[
	{
		"deltaTime": 0,
		"type": "meta",
		"subtype": "setTempo",
		"microsecondsPerBeat": 722892,
		"time": 0,
		"track": 0
	},
	{
		"deltaTime": 0,
		"type": "meta",
		"subtype": "timeSignature",
		"numerator": 4,
		"denominator": 4,
		"metronome": 24,
		"thirtyseconds": 8,
		"time": 0,
		"track": 0
	},
	{
		"deltaTime": 0,
		"type": "meta",
		"subtype": "keySignature",
		"key": 0,
		"scale": 0,
		"time": 0,
		"track": 0
	},
	{
		"deltaTime": 0,
		"type": "meta",
		"subtype": "endOfTrack",
		"time": 0,
		"track": 0
	},
	{
		"deltaTime": 0,
		"type": "meta",
		"subtype": "trackName",
		"text": "untitled",
		"time": 0,
		"track": 1
	},
	{
		"deltaTime": 0,
		"type": "meta",
		"subtype": "unknown",
		"data": "\u0000",
		"time": 0,
		"track": 1
	},
	{
		"deltaTime": 0,
		"type": "meta",
		"subtype": "endOfTrack",
		"time": 0,
		"track": 1
	},
	{
		"deltaTime": 0,
		"type": "meta",
		"subtype": "trackName",
		"text": "TabIt MIDI - Track 1",
		"time": 0,
		"track": 2
	},
	{
		"deltaTime": 0,
		"type": "meta",
		"subtype": "unknown",
		"data": "\u0000",
		"time": 0,
		"track": 2
	},
	{
		"deltaTime": 0,
		"type": "meta",
		"subtype": "midiChannelPrefix",
		"channel": 0,
		"time": 0,
		"track": 2
	},
	{
		"deltaTime": 0,
		"channel": 0,
		"type": "channel",
		"subtype": "controller",
		"controllerType": 7,
		"value": 87,
		"time": 0,
		"track": 2
	},
	{
		"deltaTime": 0,
		"channel": 0,
		"type": "channel",
		"subtype": "controller",
		"controllerType": 10,
		"value": 64,
		"time": 0,
		"track": 2
	},
	{
		"deltaTime": 0,
		"channel": 0,
		"type": "channel",
		"subtype": "programChange",
		"programNumber": 35,
		"time": 0,
		"track": 2
	},
	{
		"deltaTime": 0,
		"type": "meta",
		"subtype": "trackName",
		"text": "TabIt MIDI - Track 2",
		"time": 0,
		"track": 3
	},
	{
		"deltaTime": 0,
		"type": "meta",
		"subtype": "unknown",
		"data": "\u0000",
		"time": 0,
		"track": 3
	},
	{
		"deltaTime": 0,
		"type": "meta",
		"subtype": "midiChannelPrefix",
		"channel": 1,
		"time": 0,
		"track": 3
	},
	{
		"deltaTime": 0,
		"channel": 1,
		"type": "channel",
		"subtype": "controller",
		"controllerType": 7,
		"value": 82,
		"time": 0,
		"track": 3
	},
	{
		"deltaTime": 0,
		"channel": 1,
		"type": "channel",
		"subtype": "controller",
		"controllerType": 10,
		"value": 64,
		"time": 0,
		"track": 3
	},
	{
		"deltaTime": 0,
		"channel": 1,
		"type": "channel",
		"subtype": "programChange",
		"programNumber": 40,
		"time": 0,
		"track": 3
	},
	{
		"deltaTime": 0,
		"type": "meta",
		"subtype": "trackName",
		"text": "TabIt MIDI - Track 3",
		"time": 0,
		"track": 4
	},
	{
		"deltaTime": 0,
		"type": "meta",
		"subtype": "unknown",
		"data": "\u0000",
		"time": 0,
		"track": 4
	},
	{
		"deltaTime": 0,
		"type": "meta",
		"subtype": "midiChannelPrefix",
		"channel": 2,
		"time": 0,
		"track": 4
	},
	{
		"deltaTime": 0,
		"channel": 2,
		"type": "channel",
		"subtype": "controller",
		"controllerType": 7,
		"value": 66,
		"time": 0,
		"track": 4
	},
	{
		"deltaTime": 0,
		"channel": 2,
		"type": "channel",
		"subtype": "controller",
		"controllerType": 10,
		"value": 64,
		"time": 0,
		"track": 4
	},
	{
		"deltaTime": 0,
		"channel": 2,
		"type": "channel",
		"subtype": "programChange",
		"programNumber": 25,
		"time": 0,
		"track": 4
	},
	{
		"deltaTime": 0,
		"type": "meta",
		"subtype": "unknown",
		"data": "\u0000",
		"time": 0,
		"track": 5
	},
	{
		"deltaTime": 0,
		"type": "meta",
		"subtype": "midiChannelPrefix",
		"channel": 9,
		"time": 0,
		"track": 5
	},
	{
		"deltaTime": 0,
		"channel": 9,
		"type": "channel",
		"subtype": "controller",
		"controllerType": 7,
		"value": 84,
		"time": 0,
		"track": 5
	},
	{
		"deltaTime": 0,
		"channel": 9,
		"type": "channel",
		"subtype": "programChange",
		"programNumber": 0,
		"time": 0,
		"track": 5
	},
	{
		"deltaTime": 1920,
		"channel": 9,
		"type": "channel",
		"subtype": "controller",
		"controllerType": 0,
		"value": 0,
		"time": 0,
		"track": 5
	},
	{
		"deltaTime": 0,
		"channel": 2,
		"type": "channel",
		"noteNumber": 44,
		"velocity": 127,
		"subtype": "noteOn",
		"time": 1920,
		"track": 4
	},
	{
		"deltaTime": 0,
		"channel": 2,
		"type": "channel",
		"noteNumber": 51,
		"velocity": 127,
		"subtype": "noteOn",
		"time": 1920,
		"track": 4
	},
	{
		"deltaTime": 0,
		"channel": 2,
		"type": "channel",
		"noteNumber": 56,
		"velocity": 127,
		"subtype": "noteOn",
		"time": 1920,
		"track": 4
	},
	{
		"deltaTime": 0,
		"channel": 2,
		"type": "channel",
		"noteNumber": 59,
		"velocity": 127,
		"subtype": "noteOn",
		"time": 1920,
		"track": 4
	},
	{
		"deltaTime": 0,
		"channel": 2,
		"type": "channel",
		"noteNumber": 63,
		"velocity": 127,
		"subtype": "noteOn",
		"time": 1920,
		"track": 4
	},
	{
		"deltaTime": 60,
		"channel": 9,
		"type": "channel",
		"noteNumber": 42,
		"velocity": 127,
		"subtype": "noteOn",
		"time": 1920,
		"track": 5
	},
	{
		"deltaTime": 60,
		"channel": 9,
		"type": "channel",
		"subtype": "noteOff",
		"noteNumber": 42,
		"velocity": 0,
		"time": 1980,
		"track": 5
	},
	{
		"deltaTime": 60,
		"channel": 9,
		"type": "channel",
		"noteNumber": 42,
		"velocity": 127,
		"subtype": "noteOn",
		"time": 2040,
		"track": 5
	},
	{
		"deltaTime": 60,
		"channel": 9,
		"type": "channel",
		"subtype": "noteOff",
		"noteNumber": 42,
		"velocity": 0,
		"time": 2100,
		"track": 5
	},
	{
		"deltaTime": 60,
		"channel": 9,
		"type": "channel",
		"noteNumber": 42,
		"velocity": 127,
		"subtype": "noteOn",
		"time": 2160,
		"track": 5
	},
	{
		"deltaTime": 60,
		"channel": 9,
		"type": "channel",
		"subtype": "noteOff",
		"noteNumber": 42,
		"velocity": 0,
		"time": 2220,
		"track": 5
	},
	{
		"deltaTime": 0,
		"channel": 1,
		"type": "channel",
		"noteNumber": 56,
		"velocity": 127,
		"subtype": "noteOn",
		"time": 2280,
		"track": 3
	},
	{
		"deltaTime": 0,
		"channel": 2,
		"type": "channel",
		"subtype": "noteOff",
		"noteNumber": 63,
		"velocity": 0,
		"time": 2280,
		"track": 4
	},
	{
		"deltaTime": 0,
		"channel": 2,
		"type": "channel",
		"subtype": "noteOff",
		"noteNumber": 59,
		"velocity": 0,
		"time": 2280,
		"track": 4
	},
	{
		"deltaTime": 0,
		"channel": 2,
		"type": "channel",
		"subtype": "noteOff",
		"noteNumber": 56,
		"velocity": 0,
		"time": 2280,
		"track": 4
	},
	{
		"deltaTime": 0,
		"channel": 2,
		"type": "channel",
		"subtype": "noteOff",
		"noteNumber": 51,
		"velocity": 0,
		"time": 2280,
		"track": 4
	},
	{
		"deltaTime": 0,
		"channel": 2,
		"type": "channel",
		"subtype": "noteOff",
		"noteNumber": 44,
		"velocity": 0,
		"time": 2280,
		"track": 4
	},
	{
		"deltaTime": 0,
		"channel": 2,
		"type": "channel",
		"noteNumber": 56,
		"velocity": 127,
		"subtype": "noteOn",
		"time": 2280,
		"track": 4
	},
	{
		"deltaTime": 0,
		"channel": 2,
		"type": "channel",
		"noteNumber": 59,
		"velocity": 127,
		"subtype": "noteOn",
		"time": 2280,
		"track": 4
	},
	{
		"deltaTime": 60,
		"channel": 9,
		"type": "channel",
		"noteNumber": 42,
		"velocity": 127,
		"subtype": "noteOn",
		"time": 2280,
		"track": 5
	},
	{
		"deltaTime": 60,
		"channel": 9,
		"type": "channel",
		"subtype": "noteOff",
		"noteNumber": 42,
		"velocity": 0,
		"time": 2340,
		"track": 5
	},
	{
		"deltaTime": 0,
		"channel": 1,
		"type": "channel",
		"subtype": "noteOff",
		"noteNumber": 56,
		"velocity": 0,
		"time": 2400,
		"track": 3
	},
	{
		"deltaTime": 0,
		"channel": 1,
		"type": "channel",
		"noteNumber": 63,
		"velocity": 127,
		"subtype": "noteOn",
		"time": 2400,
		"track": 3
	},
	{
		"deltaTime": 0,
		"channel": 2,
		"type": "channel",
		"subtype": "noteOff",
		"noteNumber": 59,
		"velocity": 0,
		"time": 2400,
		"track": 4
	},
	{
		"deltaTime": 0,
		"channel": 2,
		"type": "channel",
		"subtype": "noteOff",
		"noteNumber": 56,
		"velocity": 0,
		"time": 2400,
		"track": 4
	},
	{
		"deltaTime": 0,
		"channel": 2,
		"type": "channel",
		"noteNumber": 51,
		"velocity": 127,
		"subtype": "noteOn",
		"time": 2400,
		"track": 4
	},
	{
		"deltaTime": 0,
		"channel": 2,
		"type": "channel",
		"noteNumber": 59,
		"velocity": 127,
		"subtype": "noteOn",
		"time": 2400,
		"track": 4
	},
	{
		"deltaTime": 0,
		"channel": 2,
		"type": "channel",
		"noteNumber": 63,
		"velocity": 127,
		"subtype": "noteOn",
		"time": 2400,
		"track": 4
	},
	{
		"deltaTime": 0,
		"channel": 9,
		"type": "channel",
		"noteNumber": 39,
		"velocity": 127,
		"subtype": "noteOn",
		"time": 2400,
		"track": 5
	},
	{
		"deltaTime": 60,
		"channel": 9,
		"type": "channel",
		"noteNumber": 42,
		"velocity": 127,
		"subtype": "noteOn",
		"time": 2400,
		"track": 5
	},
	{
		"deltaTime": 0,
		"channel": 9,
		"type": "channel",
		"subtype": "noteOff",
		"noteNumber": 42,
		"velocity": 0,
		"time": 2460,
		"track": 5
	},
	{
		"deltaTime": 60,
		"channel": 9,
		"type": "channel",
		"subtype": "noteOff",
		"noteNumber": 39,
		"velocity": 0,
		"time": 2460,
		"track": 5
	},
	{
		"deltaTime": 60,
		"channel": 9,
		"type": "channel",
		"noteNumber": 42,
		"velocity": 127,
		"subtype": "noteOn",
		"time": 2520,
		"track": 5
	},
	{
		"deltaTime": 60,
		"channel": 9,
		"type": "channel",
		"subtype": "noteOff",
		"noteNumber": 42,
		"velocity": 0,
		"time": 2580,
		"track": 5
	},
	{
		"deltaTime": 0,
		"channel": 1,
		"type": "channel",
		"subtype": "noteOff",
		"noteNumber": 63,
		"velocity": 0,
		"time": 2640,
		"track": 3
	},
	{
		"deltaTime": 0,
		"channel": 1,
		"type": "channel",
		"noteNumber": 63,
		"velocity": 127,
		"subtype": "noteOn",
		"time": 2640,
		"track": 3
	},
	{
		"deltaTime": 60,
		"channel": 9,
		"type": "channel",
		"noteNumber": 42,
		"velocity": 127,
		"subtype": "noteOn",
		"time": 2640,
		"track": 5
	},
	{
		"deltaTime": 60,
		"channel": 9,
		"type": "channel",
		"subtype": "noteOff",
		"noteNumber": 42,
		"velocity": 0,
		"time": 2700,
		"track": 5
	},
	{
		"deltaTime": 60,
		"channel": 9,
		"type": "channel",
		"noteNumber": 42,
		"velocity": 127,
		"subtype": "noteOn",
		"time": 2760,
		"track": 5
	},
	{
		"deltaTime": 60,
		"channel": 9,
		"type": "channel",
		"subtype": "noteOff",
		"noteNumber": 42,
		"velocity": 0,
		"time": 2820,
		"track": 5
	},
	{
		"deltaTime": 0,
		"channel": 1,
		"type": "channel",
		"subtype": "noteOff",
		"noteNumber": 63,
		"velocity": 0,
		"time": 2880,
		"track": 3
	},
	{
		"deltaTime": 0,
		"channel": 1,
		"type": "channel",
		"noteNumber": 63,
		"velocity": 127,
		"subtype": "noteOn",
		"time": 2880,
		"track": 3
	},
	{
		"deltaTime": 0,
		"channel": 2,
		"type": "channel",
		"subtype": "noteOff",
		"noteNumber": 63,
		"velocity": 0,
		"time": 2880,
		"track": 4
	},
	{
		"deltaTime": 0,
		"channel": 2,
		"type": "channel",
		"subtype": "noteOff",
		"noteNumber": 59,
		"velocity": 0,
		"time": 2880,
		"track": 4
	},
	{
		"deltaTime": 0,
		"channel": 2,
		"type": "channel",
		"subtype": "noteOff",
		"noteNumber": 51,
		"velocity": 0,
		"time": 2880,
		"track": 4
	},
	{
		"deltaTime": 0,
		"channel": 2,
		"type": "channel",
		"noteNumber": 40,
		"velocity": 127,
		"subtype": "noteOn",
		"time": 2880,
		"track": 4
	},
	{
		"deltaTime": 0,
		"channel": 2,
		"type": "channel",
		"noteNumber": 47,
		"velocity": 127,
		"subtype": "noteOn",
		"time": 2880,
		"track": 4
	},
	{
		"deltaTime": 0,
		"channel": 2,
		"type": "channel",
		"noteNumber": 52,
		"velocity": 127,
		"subtype": "noteOn",
		"time": 2880,
		"track": 4
	},
	{
		"deltaTime": 0,
		"channel": 2,
		"type": "channel",
		"noteNumber": 56,
		"velocity": 127,
		"subtype": "noteOn",
		"time": 2880,
		"track": 4
	},
	{
		"deltaTime": 60,
		"channel": 9,
		"type": "channel",
		"noteNumber": 42,
		"velocity": 127,
		"subtype": "noteOn",
		"time": 2880,
		"track": 5
	},
	{
		"deltaTime": 60,
		"channel": 9,
		"type": "channel",
		"subtype": "noteOff",
		"noteNumber": 42,
		"velocity": 0,
		"time": 2940,
		"track": 5
	},
	{
		"deltaTime": 60,
		"channel": 9,
		"type": "channel",
		"noteNumber": 42,
		"velocity": 127,
		"subtype": "noteOn",
		"time": 3000,
		"track": 5
	},
	{
		"deltaTime": 60,
		"channel": 9,
		"type": "channel",
		"subtype": "noteOff",
		"noteNumber": 42,
		"velocity": 0,
		"time": 3060,
		"track": 5
	},
	{
		"deltaTime": 0,
		"channel": 1,
		"type": "channel",
		"subtype": "noteOff",
		"noteNumber": 63,
		"velocity": 0,
		"time": 3120,
		"track": 3
	},
	{
		"deltaTime": 0,
		"channel": 1,
		"type": "channel",
		"noteNumber": 64,
		"velocity": 127,
		"subtype": "noteOn",
		"time": 3120,
		"track": 3
	},
	{
		"deltaTime": 60,
		"channel": 9,
		"type": "channel",
		"noteNumber": 42,
		"velocity": 127,
		"subtype": "noteOn",
		"time": 3120,
		"track": 5
	},
	{
		"deltaTime": 60,
		"channel": 9,
		"type": "channel",
		"subtype": "noteOff",
		"noteNumber": 42,
		"velocity": 0,
		"time": 3180,
		"track": 5
	},
	{
		"deltaTime": 0,
		"channel": 1,
		"type": "channel",
		"subtype": "noteOff",
		"noteNumber": 64,
		"velocity": 0,
		"time": 3240,
		"track": 3
	},
	{
		"deltaTime": 0,
		"channel": 1,
		"type": "channel",
		"noteNumber": 61,
		"velocity": 127,
		"subtype": "noteOn",
		"time": 3240,
		"track": 3
	},
	{
		"deltaTime": 0,
		"channel": 2,
		"type": "channel",
		"subtype": "noteOff",
		"noteNumber": 56,
		"velocity": 0,
		"time": 3240,
		"track": 4
	},
	{
		"deltaTime": 0,
		"channel": 2,
		"type": "channel",
		"subtype": "noteOff",
		"noteNumber": 52,
		"velocity": 0,
		"time": 3240,
		"track": 4
	},
	{
		"deltaTime": 0,
		"channel": 2,
		"type": "channel",
		"subtype": "noteOff",
		"noteNumber": 47,
		"velocity": 0,
		"time": 3240,
		"track": 4
	},
	{
		"deltaTime": 0,
		"channel": 2,
		"type": "channel",
		"subtype": "noteOff",
		"noteNumber": 40,
		"velocity": 0,
		"time": 3240,
		"track": 4
	},
	{
		"deltaTime": 0,
		"channel": 2,
		"type": "channel",
		"noteNumber": 52,
		"velocity": 127,
		"subtype": "noteOn",
		"time": 3240,
		"track": 4
	},
	{
		"deltaTime": 0,
		"channel": 2,
		"type": "channel",
		"noteNumber": 56,
		"velocity": 127,
		"subtype": "noteOn",
		"time": 3240,
		"track": 4
	},
	{
		"deltaTime": 60,
		"channel": 9,
		"type": "channel",
		"noteNumber": 42,
		"velocity": 127,
		"subtype": "noteOn",
		"time": 3240,
		"track": 5
	},
	{
		"deltaTime": 60,
		"channel": 9,
		"type": "channel",
		"subtype": "noteOff",
		"noteNumber": 42,
		"velocity": 0,
		"time": 3300,
		"track": 5
	},
	{
		"deltaTime": 0,
		"channel": 2,
		"type": "channel",
		"subtype": "noteOff",
		"noteNumber": 56,
		"velocity": 0,
		"time": 3360,
		"track": 4
	},
	{
		"deltaTime": 0,
		"channel": 2,
		"type": "channel",
		"subtype": "noteOff",
		"noteNumber": 52,
		"velocity": 0,
		"time": 3360,
		"track": 4
	},
	{
		"deltaTime": 0,
		"channel": 2,
		"type": "channel",
		"noteNumber": 40,
		"velocity": 127,
		"subtype": "noteOn",
		"time": 3360,
		"track": 4
	},
	{
		"deltaTime": 0,
		"channel": 2,
		"type": "channel",
		"noteNumber": 52,
		"velocity": 127,
		"subtype": "noteOn",
		"time": 3360,
		"track": 4
	},
	{
		"deltaTime": 0,
		"channel": 2,
		"type": "channel",
		"noteNumber": 56,
		"velocity": 127,
		"subtype": "noteOn",
		"time": 3360,
		"track": 4
	},
	{
		"deltaTime": 0,
		"channel": 2,
		"type": "channel",
		"noteNumber": 59,
		"velocity": 127,
		"subtype": "noteOn",
		"time": 3360,
		"track": 4
	},
	{
		"deltaTime": 0,
		"channel": 9,
		"type": "channel",
		"noteNumber": 39,
		"velocity": 127,
		"subtype": "noteOn",
		"time": 3360,
		"track": 5
	},
	{
		"deltaTime": 60,
		"channel": 9,
		"type": "channel",
		"noteNumber": 42,
		"velocity": 127,
		"subtype": "noteOn",
		"time": 3360,
		"track": 5
	},
	{
		"deltaTime": 0,
		"channel": 9,
		"type": "channel",
		"subtype": "noteOff",
		"noteNumber": 42,
		"velocity": 0,
		"time": 3420,
		"track": 5
	},
	{
		"deltaTime": 60,
		"channel": 9,
		"type": "channel",
		"subtype": "noteOff",
		"noteNumber": 39,
		"velocity": 0,
		"time": 3420,
		"track": 5
	},
	{
		"deltaTime": 0,
		"channel": 1,
		"type": "channel",
		"subtype": "noteOff",
		"noteNumber": 61,
		"velocity": 0,
		"time": 3480,
		"track": 3
	},
	{
		"deltaTime": 0,
		"channel": 1,
		"type": "channel",
		"noteNumber": 59,
		"velocity": 127,
		"subtype": "noteOn",
		"time": 3480,
		"track": 3
	},
	{
		"deltaTime": 60,
		"channel": 9,
		"type": "channel",
		"noteNumber": 42,
		"velocity": 127,
		"subtype": "noteOn",
		"time": 3480,
		"track": 5
	},
	{
		"deltaTime": 60,
		"channel": 9,
		"type": "channel",
		"subtype": "noteOff",
		"noteNumber": 42,
		"velocity": 0,
		"time": 3540,
		"track": 5
	},
	{
		"deltaTime": 60,
		"channel": 9,
		"type": "channel",
		"noteNumber": 42,
		"velocity": 127,
		"subtype": "noteOn",
		"time": 3600,
		"track": 5
	},
	{
		"deltaTime": 60,
		"channel": 9,
		"type": "channel",
		"subtype": "noteOff",
		"noteNumber": 42,
		"velocity": 0,
		"time": 3660,
		"track": 5
	},
	{
		"deltaTime": 0,
		"channel": 1,
		"type": "channel",
		"subtype": "noteOff",
		"noteNumber": 59,
		"velocity": 0,
		"time": 3720,
		"track": 3
	},
	{
		"deltaTime": 0,
		"channel": 1,
		"type": "channel",
		"noteNumber": 63,
		"velocity": 127,
		"subtype": "noteOn",
		"time": 3720,
		"track": 3
	},
	{
		"deltaTime": 60,
		"channel": 9,
		"type": "channel",
		"noteNumber": 42,
		"velocity": 127,
		"subtype": "noteOn",
		"time": 3720,
		"track": 5
	},
	{
		"deltaTime": 60,
		"channel": 9,
		"type": "channel",
		"subtype": "noteOff",
		"noteNumber": 42,
		"velocity": 0,
		"time": 3780,
		"track": 5
	},
	{
		"deltaTime": 0,
		"channel": 1,
		"type": "channel",
		"subtype": "noteOff",
		"noteNumber": 63,
		"velocity": 0,
		"time": 3840,
		"track": 3
	},
	{
		"deltaTime": 0,
		"channel": 1,
		"type": "channel",
		"noteNumber": 59,
		"velocity": 127,
		"subtype": "noteOn",
		"time": 3840,
		"track": 3
	},
	{
		"deltaTime": 0,
		"channel": 2,
		"type": "channel",
		"subtype": "noteOff",
		"noteNumber": 59,
		"velocity": 0,
		"time": 3840,
		"track": 4
	},
	{
		"deltaTime": 0,
		"channel": 2,
		"type": "channel",
		"subtype": "noteOff",
		"noteNumber": 56,
		"velocity": 0,
		"time": 3840,
		"track": 4
	},
	{
		"deltaTime": 0,
		"channel": 2,
		"type": "channel",
		"subtype": "noteOff",
		"noteNumber": 52,
		"velocity": 0,
		"time": 3840,
		"track": 4
	},
	{
		"deltaTime": 0,
		"channel": 2,
		"type": "channel",
		"subtype": "noteOff",
		"noteNumber": 40,
		"velocity": 0,
		"time": 3840,
		"track": 4
	},
	{
		"deltaTime": 0,
		"channel": 2,
		"type": "channel",
		"noteNumber": 42,
		"velocity": 127,
		"subtype": "noteOn",
		"time": 3840,
		"track": 4
	},
	{
		"deltaTime": 0,
		"channel": 2,
		"type": "channel",
		"noteNumber": 49,
		"velocity": 127,
		"subtype": "noteOn",
		"time": 3840,
		"track": 4
	},
	{
		"deltaTime": 0,
		"channel": 2,
		"type": "channel",
		"noteNumber": 54,
		"velocity": 127,
		"subtype": "noteOn",
		"time": 3840,
		"track": 4
	},
	{
		"deltaTime": 0,
		"channel": 2,
		"type": "channel",
		"noteNumber": 58,
		"velocity": 127,
		"subtype": "noteOn",
		"time": 3840,
		"track": 4
	},
	{
		"deltaTime": 60,
		"channel": 9,
		"type": "channel",
		"noteNumber": 42,
		"velocity": 127,
		"subtype": "noteOn",
		"time": 3840,
		"track": 5
	},
	{
		"deltaTime": 60,
		"channel": 9,
		"type": "channel",
		"subtype": "noteOff",
		"noteNumber": 42,
		"velocity": 0,
		"time": 3900,
		"track": 5
	},
	{
		"deltaTime": 0,
		"channel": 1,
		"type": "channel",
		"subtype": "noteOff",
		"noteNumber": 59,
		"velocity": 0,
		"time": 3960,
		"track": 3
	},
	{
		"deltaTime": 0,
		"channel": 1,
		"type": "channel",
		"noteNumber": 61,
		"velocity": 127,
		"subtype": "noteOn",
		"time": 3960,
		"track": 3
	},
	{
		"deltaTime": 60,
		"channel": 9,
		"type": "channel",
		"noteNumber": 42,
		"velocity": 127,
		"subtype": "noteOn",
		"time": 3960,
		"track": 5
	},
	{
		"deltaTime": 60,
		"channel": 9,
		"type": "channel",
		"subtype": "noteOff",
		"noteNumber": 42,
		"velocity": 0,
		"time": 4020,
		"track": 5
	},
	{
		"deltaTime": 60,
		"channel": 9,
		"type": "channel",
		"noteNumber": 42,
		"velocity": 127,
		"subtype": "noteOn",
		"time": 4080,
		"track": 5
	},
	{
		"deltaTime": 60,
		"channel": 9,
		"type": "channel",
		"subtype": "noteOff",
		"noteNumber": 42,
		"velocity": 0,
		"time": 4140,
		"track": 5
	},
	{
		"deltaTime": 0,
		"channel": 2,
		"type": "channel",
		"subtype": "noteOff",
		"noteNumber": 58,
		"velocity": 0,
		"time": 4200,
		"track": 4
	},
	{
		"deltaTime": 0,
		"channel": 2,
		"type": "channel",
		"subtype": "noteOff",
		"noteNumber": 54,
		"velocity": 0,
		"time": 4200,
		"track": 4
	},
	{
		"deltaTime": 0,
		"channel": 2,
		"type": "channel",
		"subtype": "noteOff",
		"noteNumber": 49,
		"velocity": 0,
		"time": 4200,
		"track": 4
	},
	{
		"deltaTime": 0,
		"channel": 2,
		"type": "channel",
		"subtype": "noteOff",
		"noteNumber": 42,
		"velocity": 0,
		"time": 4200,
		"track": 4
	},
	{
		"deltaTime": 0,
		"channel": 2,
		"type": "channel",
		"noteNumber": 54,
		"velocity": 127,
		"subtype": "noteOn",
		"time": 4200,
		"track": 4
	},
	{
		"deltaTime": 0,
		"channel": 2,
		"type": "channel",
		"noteNumber": 58,
		"velocity": 127,
		"subtype": "noteOn",
		"time": 4200,
		"track": 4
	},
	{
		"deltaTime": 60,
		"channel": 9,
		"type": "channel",
		"noteNumber": 42,
		"velocity": 127,
		"subtype": "noteOn",
		"time": 4200,
		"track": 5
	},
	{
		"deltaTime": 60,
		"channel": 9,
		"type": "channel",
		"subtype": "noteOff",
		"noteNumber": 42,
		"velocity": 0,
		"time": 4260,
		"track": 5
	},
	{
		"deltaTime": 0,
		"channel": 2,
		"type": "channel",
		"subtype": "noteOff",
		"noteNumber": 58,
		"velocity": 0,
		"time": 4320,
		"track": 4
	},
	{
		"deltaTime": 0,
		"channel": 2,
		"type": "channel",
		"subtype": "noteOff",
		"noteNumber": 54,
		"velocity": 0,
		"time": 4320,
		"track": 4
	},
	{
		"deltaTime": 0,
		"channel": 2,
		"type": "channel",
		"noteNumber": 42,
		"velocity": 127,
		"subtype": "noteOn",
		"time": 4320,
		"track": 4
	},
	{
		"deltaTime": 0,
		"channel": 2,
		"type": "channel",
		"noteNumber": 49,
		"velocity": 127,
		"subtype": "noteOn",
		"time": 4320,
		"track": 4
	},
	{
		"deltaTime": 0,
		"channel": 2,
		"type": "channel",
		"noteNumber": 58,
		"velocity": 127,
		"subtype": "noteOn",
		"time": 4320,
		"track": 4
	},
	{
		"deltaTime": 0,
		"channel": 2,
		"type": "channel",
		"noteNumber": 61,
		"velocity": 127,
		"subtype": "noteOn",
		"time": 4320,
		"track": 4
	},
	{
		"deltaTime": 0,
		"channel": 9,
		"type": "channel",
		"noteNumber": 42,
		"velocity": 127,
		"subtype": "noteOn",
		"time": 4320,
		"track": 5
	},
	{
		"deltaTime": 60,
		"channel": 9,
		"type": "channel",
		"noteNumber": 39,
		"velocity": 127,
		"subtype": "noteOn",
		"time": 4320,
		"track": 5
	},
	{
		"deltaTime": 0,
		"channel": 9,
		"type": "channel",
		"subtype": "noteOff",
		"noteNumber": 39,
		"velocity": 0,
		"time": 4380,
		"track": 5
	},
	{
		"deltaTime": 60,
		"channel": 9,
		"type": "channel",
		"subtype": "noteOff",
		"noteNumber": 42,
		"velocity": 0,
		"time": 4380,
		"track": 5
	},
	{
		"deltaTime": 60,
		"channel": 9,
		"type": "channel",
		"noteNumber": 42,
		"velocity": 127,
		"subtype": "noteOn",
		"time": 4440,
		"track": 5
	},
	{
		"deltaTime": 60,
		"channel": 9,
		"type": "channel",
		"subtype": "noteOff",
		"noteNumber": 42,
		"velocity": 0,
		"time": 4500,
		"track": 5
	},
	{
		"deltaTime": 60,
		"channel": 9,
		"type": "channel",
		"noteNumber": 42,
		"velocity": 127,
		"subtype": "noteOn",
		"time": 4560,
		"track": 5
	},
	{
		"deltaTime": 60,
		"channel": 9,
		"type": "channel",
		"subtype": "noteOff",
		"noteNumber": 42,
		"velocity": 0,
		"time": 4620,
		"track": 5
	},
	{
		"deltaTime": 0,
		"channel": 1,
		"type": "channel",
		"subtype": "noteOff",
		"noteNumber": 61,
		"velocity": 0,
		"time": 4680,
		"track": 3
	},
	{
		"deltaTime": 0,
		"channel": 1,
		"type": "channel",
		"noteNumber": 58,
		"velocity": 127,
		"subtype": "noteOn",
		"time": 4680,
		"track": 3
	},
	{
		"deltaTime": 60,
		"channel": 9,
		"type": "channel",
		"noteNumber": 42,
		"velocity": 127,
		"subtype": "noteOn",
		"time": 4680,
		"track": 5
	},
	{
		"deltaTime": 60,
		"channel": 9,
		"type": "channel",
		"subtype": "noteOff",
		"noteNumber": 42,
		"velocity": 0,
		"time": 4740,
		"track": 5
	},
	{
		"deltaTime": 0,
		"channel": 1,
		"type": "channel",
		"subtype": "noteOff",
		"noteNumber": 58,
		"velocity": 0,
		"time": 4800,
		"track": 3
	},
	{
		"deltaTime": 0,
		"channel": 1,
		"type": "channel",
		"noteNumber": 59,
		"velocity": 127,
		"subtype": "noteOn",
		"time": 4800,
		"track": 3
	},
	{
		"deltaTime": 0,
		"channel": 2,
		"type": "channel",
		"subtype": "noteOff",
		"noteNumber": 61,
		"velocity": 0,
		"time": 4800,
		"track": 4
	},
	{
		"deltaTime": 0,
		"channel": 2,
		"type": "channel",
		"subtype": "noteOff",
		"noteNumber": 58,
		"velocity": 0,
		"time": 4800,
		"track": 4
	},
	{
		"deltaTime": 0,
		"channel": 2,
		"type": "channel",
		"subtype": "noteOff",
		"noteNumber": 49,
		"velocity": 0,
		"time": 4800,
		"track": 4
	},
	{
		"deltaTime": 0,
		"channel": 2,
		"type": "channel",
		"subtype": "noteOff",
		"noteNumber": 42,
		"velocity": 0,
		"time": 4800,
		"track": 4
	},
	{
		"deltaTime": 0,
		"channel": 2,
		"type": "channel",
		"noteNumber": 47,
		"velocity": 127,
		"subtype": "noteOn",
		"time": 4800,
		"track": 4
	},
	{
		"deltaTime": 0,
		"channel": 2,
		"type": "channel",
		"noteNumber": 54,
		"velocity": 127,
		"subtype": "noteOn",
		"time": 4800,
		"track": 4
	},
	{
		"deltaTime": 0,
		"channel": 2,
		"type": "channel",
		"noteNumber": 59,
		"velocity": 127,
		"subtype": "noteOn",
		"time": 4800,
		"track": 4
	},
	{
		"deltaTime": 0,
		"channel": 2,
		"type": "channel",
		"noteNumber": 66,
		"velocity": 127,
		"subtype": "noteOn",
		"time": 4800,
		"track": 4
	},
	{
		"deltaTime": 60,
		"channel": 9,
		"type": "channel",
		"noteNumber": 42,
		"velocity": 127,
		"subtype": "noteOn",
		"time": 4800,
		"track": 5
	},
	{
		"deltaTime": 60,
		"channel": 9,
		"type": "channel",
		"subtype": "noteOff",
		"noteNumber": 42,
		"velocity": 0,
		"time": 4860,
		"track": 5
	},
	{
		"deltaTime": 60,
		"channel": 9,
		"type": "channel",
		"noteNumber": 42,
		"velocity": 127,
		"subtype": "noteOn",
		"time": 4920,
		"track": 5
	},
	{
		"deltaTime": 60,
		"channel": 9,
		"type": "channel",
		"subtype": "noteOff",
		"noteNumber": 42,
		"velocity": 0,
		"time": 4980,
		"track": 5
	},
	{
		"deltaTime": 0,
		"channel": 1,
		"type": "channel",
		"subtype": "noteOff",
		"noteNumber": 59,
		"velocity": 0,
		"time": 5040,
		"track": 3
	},
	{
		"deltaTime": 0,
		"channel": 1,
		"type": "channel",
		"noteNumber": 63,
		"velocity": 127,
		"subtype": "noteOn",
		"time": 5040,
		"track": 3
	},
	{
		"deltaTime": 0,
		"channel": 2,
		"type": "channel",
		"subtype": "noteOff",
		"noteNumber": 66,
		"velocity": 0,
		"time": 5040,
		"track": 4
	},
	{
		"deltaTime": 0,
		"channel": 2,
		"type": "channel",
		"subtype": "noteOff",
		"noteNumber": 59,
		"velocity": 0,
		"time": 5040,
		"track": 4
	},
	{
		"deltaTime": 0,
		"channel": 2,
		"type": "channel",
		"subtype": "noteOff",
		"noteNumber": 54,
		"velocity": 0,
		"time": 5040,
		"track": 4
	},
	{
		"deltaTime": 0,
		"channel": 2,
		"type": "channel",
		"subtype": "noteOff",
		"noteNumber": 47,
		"velocity": 0,
		"time": 5040,
		"track": 4
	},
	{
		"deltaTime": 0,
		"channel": 2,
		"type": "channel",
		"noteNumber": 54,
		"velocity": 127,
		"subtype": "noteOn",
		"time": 5040,
		"track": 4
	},
	{
		"deltaTime": 0,
		"channel": 2,
		"type": "channel",
		"noteNumber": 59,
		"velocity": 127,
		"subtype": "noteOn",
		"time": 5040,
		"track": 4
	},
	{
		"deltaTime": 0,
		"channel": 2,
		"type": "channel",
		"noteNumber": 63,
		"velocity": 127,
		"subtype": "noteOn",
		"time": 5040,
		"track": 4
	},
	{
		"deltaTime": 60,
		"channel": 9,
		"type": "channel",
		"noteNumber": 42,
		"velocity": 127,
		"subtype": "noteOn",
		"time": 5040,
		"track": 5
	},
	{
		"deltaTime": 60,
		"channel": 9,
		"type": "channel",
		"subtype": "noteOff",
		"noteNumber": 42,
		"velocity": 0,
		"time": 5100,
		"track": 5
	},
	{
		"deltaTime": 0,
		"channel": 1,
		"type": "channel",
		"subtype": "noteOff",
		"noteNumber": 63,
		"velocity": 0,
		"time": 5160,
		"track": 3
	},
	{
		"deltaTime": 0,
		"channel": 1,
		"type": "channel",
		"noteNumber": 58,
		"velocity": 127,
		"subtype": "noteOn",
		"time": 5160,
		"track": 3
	},
	{
		"deltaTime": 60,
		"channel": 9,
		"type": "channel",
		"noteNumber": 42,
		"velocity": 127,
		"subtype": "noteOn",
		"time": 5160,
		"track": 5
	},
	{
		"deltaTime": 60,
		"channel": 9,
		"type": "channel",
		"subtype": "noteOff",
		"noteNumber": 42,
		"velocity": 0,
		"time": 5220,
		"track": 5
	},
	{
		"deltaTime": 0,
		"channel": 2,
		"type": "channel",
		"subtype": "noteOff",
		"noteNumber": 63,
		"velocity": 0,
		"time": 5280,
		"track": 4
	},
	{
		"deltaTime": 0,
		"channel": 2,
		"type": "channel",
		"subtype": "noteOff",
		"noteNumber": 59,
		"velocity": 0,
		"time": 5280,
		"track": 4
	},
	{
		"deltaTime": 0,
		"channel": 2,
		"type": "channel",
		"subtype": "noteOff",
		"noteNumber": 54,
		"velocity": 0,
		"time": 5280,
		"track": 4
	},
	{
		"deltaTime": 0,
		"channel": 2,
		"type": "channel",
		"noteNumber": 46,
		"velocity": 127,
		"subtype": "noteOn",
		"time": 5280,
		"track": 4
	},
	{
		"deltaTime": 0,
		"channel": 2,
		"type": "channel",
		"noteNumber": 54,
		"velocity": 127,
		"subtype": "noteOn",
		"time": 5280,
		"track": 4
	},
	{
		"deltaTime": 0,
		"channel": 9,
		"type": "channel",
		"noteNumber": 42,
		"velocity": 127,
		"subtype": "noteOn",
		"time": 5280,
		"track": 5
	},
	{
		"deltaTime": 60,
		"channel": 9,
		"type": "channel",
		"noteNumber": 39,
		"velocity": 127,
		"subtype": "noteOn",
		"time": 5280,
		"track": 5
	},
	{
		"deltaTime": 0,
		"channel": 9,
		"type": "channel",
		"subtype": "noteOff",
		"noteNumber": 39,
		"velocity": 0,
		"time": 5340,
		"track": 5
	},
	{
		"deltaTime": 60,
		"channel": 9,
		"type": "channel",
		"subtype": "noteOff",
		"noteNumber": 42,
		"velocity": 0,
		"time": 5340,
		"track": 5
	},
	{
		"deltaTime": 60,
		"channel": 9,
		"type": "channel",
		"noteNumber": 42,
		"velocity": 127,
		"subtype": "noteOn",
		"time": 5400,
		"track": 5
	},
	{
		"deltaTime": 60,
		"channel": 9,
		"type": "channel",
		"subtype": "noteOff",
		"noteNumber": 42,
		"velocity": 0,
		"time": 5460,
		"track": 5
	},
	{
		"deltaTime": 0,
		"channel": 1,
		"type": "channel",
		"subtype": "noteOff",
		"noteNumber": 58,
		"velocity": 0,
		"time": 5520,
		"track": 3
	},
	{
		"deltaTime": 0,
		"channel": 1,
		"type": "channel",
		"noteNumber": 63,
		"velocity": 127,
		"subtype": "noteOn",
		"time": 5520,
		"track": 3
	},
	{
		"deltaTime": 0,
		"channel": 2,
		"type": "channel",
		"subtype": "noteOff",
		"noteNumber": 54,
		"velocity": 0,
		"time": 5520,
		"track": 4
	},
	{
		"deltaTime": 0,
		"channel": 2,
		"type": "channel",
		"subtype": "noteOff",
		"noteNumber": 46,
		"velocity": 0,
		"time": 5520,
		"track": 4
	},
	{
		"deltaTime": 0,
		"channel": 2,
		"type": "channel",
		"noteNumber": 54,
		"velocity": 127,
		"subtype": "noteOn",
		"time": 5520,
		"track": 4
	},
	{
		"deltaTime": 0,
		"channel": 2,
		"type": "channel",
		"noteNumber": 59,
		"velocity": 127,
		"subtype": "noteOn",
		"time": 5520,
		"track": 4
	},
	{
		"deltaTime": 0,
		"channel": 2,
		"type": "channel",
		"noteNumber": 63,
		"velocity": 127,
		"subtype": "noteOn",
		"time": 5520,
		"track": 4
	},
	{
		"deltaTime": 60,
		"channel": 9,
		"type": "channel",
		"noteNumber": 42,
		"velocity": 127,
		"subtype": "noteOn",
		"time": 5520,
		"track": 5
	},
	{
		"deltaTime": 60,
		"channel": 9,
		"type": "channel",
		"subtype": "noteOff",
		"noteNumber": 42,
		"velocity": 0,
		"time": 5580,
		"track": 5
	},
	{
		"deltaTime": 0,
		"channel": 1,
		"type": "channel",
		"subtype": "noteOff",
		"noteNumber": 63,
		"velocity": 0,
		"time": 5640,
		"track": 3
	},
	{
		"deltaTime": 0,
		"channel": 1,
		"type": "channel",
		"noteNumber": 56,
		"velocity": 127,
		"subtype": "noteOn",
		"time": 5640,
		"track": 3
	},
	{
		"deltaTime": 60,
		"channel": 9,
		"type": "channel",
		"noteNumber": 42,
		"velocity": 127,
		"subtype": "noteOn",
		"time": 5640,
		"track": 5
	},
	{
		"deltaTime": 60,
		"channel": 9,
		"type": "channel",
		"subtype": "noteOff",
		"noteNumber": 42,
		"velocity": 0,
		"time": 5700,
		"track": 5
	},
	{
		"deltaTime": 0,
		"channel": 2,
		"type": "channel",
		"subtype": "noteOff",
		"noteNumber": 63,
		"velocity": 0,
		"time": 5760,
		"track": 4
	},
	{
		"deltaTime": 0,
		"channel": 2,
		"type": "channel",
		"subtype": "noteOff",
		"noteNumber": 59,
		"velocity": 0,
		"time": 5760,
		"track": 4
	},
	{
		"deltaTime": 0,
		"channel": 2,
		"type": "channel",
		"subtype": "noteOff",
		"noteNumber": 54,
		"velocity": 0,
		"time": 5760,
		"track": 4
	},
	{
		"deltaTime": 0,
		"channel": 2,
		"type": "channel",
		"noteNumber": 44,
		"velocity": 127,
		"subtype": "noteOn",
		"time": 5760,
		"track": 4
	},
	{
		"deltaTime": 0,
		"channel": 2,
		"type": "channel",
		"noteNumber": 51,
		"velocity": 127,
		"subtype": "noteOn",
		"time": 5760,
		"track": 4
	},
	{
		"deltaTime": 0,
		"channel": 2,
		"type": "channel",
		"noteNumber": 56,
		"velocity": 127,
		"subtype": "noteOn",
		"time": 5760,
		"track": 4
	},
	{
		"deltaTime": 0,
		"channel": 2,
		"type": "channel",
		"noteNumber": 59,
		"velocity": 127,
		"subtype": "noteOn",
		"time": 5760,
		"track": 4
	},
	{
		"deltaTime": 0,
		"channel": 2,
		"type": "channel",
		"noteNumber": 63,
		"velocity": 127,
		"subtype": "noteOn",
		"time": 5760,
		"track": 4
	},
	{
		"deltaTime": 60,
		"channel": 9,
		"type": "channel",
		"noteNumber": 42,
		"velocity": 127,
		"subtype": "noteOn",
		"time": 5760,
		"track": 5
	},
	{
		"deltaTime": 60,
		"channel": 9,
		"type": "channel",
		"subtype": "noteOff",
		"noteNumber": 42,
		"velocity": 0,
		"time": 5820,
		"track": 5
	},
	{
		"deltaTime": 60,
		"channel": 9,
		"type": "channel",
		"noteNumber": 42,
		"velocity": 127,
		"subtype": "noteOn",
		"time": 5880,
		"track": 5
	},
	{
		"deltaTime": 60,
		"channel": 9,
		"type": "channel",
		"subtype": "noteOff",
		"noteNumber": 42,
		"velocity": 0,
		"time": 5940,
		"track": 5
	},
	{
		"deltaTime": 0,
		"channel": 1,
		"type": "channel",
		"subtype": "noteOff",
		"noteNumber": 56,
		"velocity": 0,
		"time": 6000,
		"track": 3
	},
	{
		"deltaTime": 60,
		"channel": 9,
		"type": "channel",
		"noteNumber": 42,
		"velocity": 127,
		"subtype": "noteOn",
		"time": 6000,
		"track": 5
	},
	{
		"deltaTime": 60,
		"channel": 9,
		"type": "channel",
		"subtype": "noteOff",
		"noteNumber": 42,
		"velocity": 0,
		"time": 6060,
		"track": 5
	},
	{
		"deltaTime": 0,
		"channel": 1,
		"type": "channel",
		"noteNumber": 56,
		"velocity": 127,
		"subtype": "noteOn",
		"time": 6120,
		"track": 3
	},
	{
		"deltaTime": 0,
		"channel": 2,
		"type": "channel",
		"subtype": "noteOff",
		"noteNumber": 63,
		"velocity": 0,
		"time": 6120,
		"track": 4
	},
	{
		"deltaTime": 0,
		"channel": 2,
		"type": "channel",
		"subtype": "noteOff",
		"noteNumber": 59,
		"velocity": 0,
		"time": 6120,
		"track": 4
	},
	{
		"deltaTime": 0,
		"channel": 2,
		"type": "channel",
		"subtype": "noteOff",
		"noteNumber": 56,
		"velocity": 0,
		"time": 6120,
		"track": 4
	},
	{
		"deltaTime": 0,
		"channel": 2,
		"type": "channel",
		"subtype": "noteOff",
		"noteNumber": 51,
		"velocity": 0,
		"time": 6120,
		"track": 4
	},
	{
		"deltaTime": 0,
		"channel": 2,
		"type": "channel",
		"subtype": "noteOff",
		"noteNumber": 44,
		"velocity": 0,
		"time": 6120,
		"track": 4
	},
	{
		"deltaTime": 0,
		"channel": 2,
		"type": "channel",
		"noteNumber": 56,
		"velocity": 127,
		"subtype": "noteOn",
		"time": 6120,
		"track": 4
	},
	{
		"deltaTime": 0,
		"channel": 2,
		"type": "channel",
		"noteNumber": 59,
		"velocity": 127,
		"subtype": "noteOn",
		"time": 6120,
		"track": 4
	},
	{
		"deltaTime": 60,
		"channel": 9,
		"type": "channel",
		"noteNumber": 42,
		"velocity": 127,
		"subtype": "noteOn",
		"time": 6120,
		"track": 5
	},
	{
		"deltaTime": 60,
		"channel": 9,
		"type": "channel",
		"subtype": "noteOff",
		"noteNumber": 42,
		"velocity": 0,
		"time": 6180,
		"track": 5
	},
	{
		"deltaTime": 0,
		"channel": 1,
		"type": "channel",
		"subtype": "noteOff",
		"noteNumber": 56,
		"velocity": 0,
		"time": 6240,
		"track": 3
	},
	{
		"deltaTime": 0,
		"channel": 1,
		"type": "channel",
		"noteNumber": 63,
		"velocity": 127,
		"subtype": "noteOn",
		"time": 6240,
		"track": 3
	},
	{
		"deltaTime": 0,
		"channel": 2,
		"type": "channel",
		"subtype": "noteOff",
		"noteNumber": 59,
		"velocity": 0,
		"time": 6240,
		"track": 4
	},
	{
		"deltaTime": 0,
		"channel": 2,
		"type": "channel",
		"subtype": "noteOff",
		"noteNumber": 56,
		"velocity": 0,
		"time": 6240,
		"track": 4
	},
	{
		"deltaTime": 0,
		"channel": 2,
		"type": "channel",
		"noteNumber": 51,
		"velocity": 127,
		"subtype": "noteOn",
		"time": 6240,
		"track": 4
	},
	{
		"deltaTime": 0,
		"channel": 2,
		"type": "channel",
		"noteNumber": 59,
		"velocity": 127,
		"subtype": "noteOn",
		"time": 6240,
		"track": 4
	},
	{
		"deltaTime": 0,
		"channel": 2,
		"type": "channel",
		"noteNumber": 63,
		"velocity": 127,
		"subtype": "noteOn",
		"time": 6240,
		"track": 4
	},
	{
		"deltaTime": 0,
		"channel": 9,
		"type": "channel",
		"noteNumber": 42,
		"velocity": 127,
		"subtype": "noteOn",
		"time": 6240,
		"track": 5
	},
	{
		"deltaTime": 60,
		"channel": 9,
		"type": "channel",
		"noteNumber": 39,
		"velocity": 127,
		"subtype": "noteOn",
		"time": 6240,
		"track": 5
	},
	{
		"deltaTime": 0,
		"channel": 9,
		"type": "channel",
		"subtype": "noteOff",
		"noteNumber": 39,
		"velocity": 0,
		"time": 6300,
		"track": 5
	},
	{
		"deltaTime": 60,
		"channel": 9,
		"type": "channel",
		"subtype": "noteOff",
		"noteNumber": 42,
		"velocity": 0,
		"time": 6300,
		"track": 5
	},
	{
		"deltaTime": 0,
		"channel": 1,
		"type": "channel",
		"subtype": "noteOff",
		"noteNumber": 63,
		"velocity": 0,
		"time": 6360,
		"track": 3
	},
	{
		"deltaTime": 0,
		"channel": 1,
		"type": "channel",
		"noteNumber": 63,
		"velocity": 127,
		"subtype": "noteOn",
		"time": 6360,
		"track": 3
	},
	{
		"deltaTime": 60,
		"channel": 9,
		"type": "channel",
		"noteNumber": 42,
		"velocity": 127,
		"subtype": "noteOn",
		"time": 6360,
		"track": 5
	},
	{
		"deltaTime": 60,
		"channel": 9,
		"type": "channel",
		"subtype": "noteOff",
		"noteNumber": 42,
		"velocity": 0,
		"time": 6420,
		"track": 5
	},
	{
		"deltaTime": 60,
		"channel": 9,
		"type": "channel",
		"noteNumber": 42,
		"velocity": 127,
		"subtype": "noteOn",
		"time": 6480,
		"track": 5
	},
	{
		"deltaTime": 60,
		"channel": 9,
		"type": "channel",
		"subtype": "noteOff",
		"noteNumber": 42,
		"velocity": 0,
		"time": 6540,
		"track": 5
	},
	{
		"deltaTime": 0,
		"channel": 1,
		"type": "channel",
		"subtype": "noteOff",
		"noteNumber": 63,
		"velocity": 0,
		"time": 6600,
		"track": 3
	},
	{
		"deltaTime": 0,
		"channel": 1,
		"type": "channel",
		"noteNumber": 63,
		"velocity": 127,
		"subtype": "noteOn",
		"time": 6600,
		"track": 3
	},
	{
		"deltaTime": 60,
		"channel": 9,
		"type": "channel",
		"noteNumber": 42,
		"velocity": 127,
		"subtype": "noteOn",
		"time": 6600,
		"track": 5
	},
	{
		"deltaTime": 60,
		"channel": 9,
		"type": "channel",
		"subtype": "noteOff",
		"noteNumber": 42,
		"velocity": 0,
		"time": 6660,
		"track": 5
	},
	{
		"deltaTime": 0,
		"channel": 2,
		"type": "channel",
		"subtype": "noteOff",
		"noteNumber": 63,
		"velocity": 0,
		"time": 6720,
		"track": 4
	},
	{
		"deltaTime": 0,
		"channel": 2,
		"type": "channel",
		"subtype": "noteOff",
		"noteNumber": 59,
		"velocity": 0,
		"time": 6720,
		"track": 4
	},
	{
		"deltaTime": 0,
		"channel": 2,
		"type": "channel",
		"subtype": "noteOff",
		"noteNumber": 51,
		"velocity": 0,
		"time": 6720,
		"track": 4
	},
	{
		"deltaTime": 0,
		"channel": 2,
		"type": "channel",
		"noteNumber": 40,
		"velocity": 127,
		"subtype": "noteOn",
		"time": 6720,
		"track": 4
	},
	{
		"deltaTime": 0,
		"channel": 2,
		"type": "channel",
		"noteNumber": 47,
		"velocity": 127,
		"subtype": "noteOn",
		"time": 6720,
		"track": 4
	},
	{
		"deltaTime": 0,
		"channel": 2,
		"type": "channel",
		"noteNumber": 52,
		"velocity": 127,
		"subtype": "noteOn",
		"time": 6720,
		"track": 4
	},
	{
		"deltaTime": 0,
		"channel": 2,
		"type": "channel",
		"noteNumber": 56,
		"velocity": 127,
		"subtype": "noteOn",
		"time": 6720,
		"track": 4
	},
	{
		"deltaTime": 60,
		"channel": 9,
		"type": "channel",
		"noteNumber": 42,
		"velocity": 127,
		"subtype": "noteOn",
		"time": 6720,
		"track": 5
	},
	{
		"deltaTime": 60,
		"channel": 9,
		"type": "channel",
		"subtype": "noteOff",
		"noteNumber": 42,
		"velocity": 0,
		"time": 6780,
		"track": 5
	},
	{
		"deltaTime": 0,
		"channel": 1,
		"type": "channel",
		"subtype": "noteOff",
		"noteNumber": 63,
		"velocity": 0,
		"time": 6840,
		"track": 3
	},
	{
		"deltaTime": 0,
		"channel": 1,
		"type": "channel",
		"noteNumber": 64,
		"velocity": 127,
		"subtype": "noteOn",
		"time": 6840,
		"track": 3
	},
	{
		"deltaTime": 60,
		"channel": 9,
		"type": "channel",
		"noteNumber": 42,
		"velocity": 127,
		"subtype": "noteOn",
		"time": 6840,
		"track": 5
	},
	{
		"deltaTime": 60,
		"channel": 9,
		"type": "channel",
		"subtype": "noteOff",
		"noteNumber": 42,
		"velocity": 0,
		"time": 6900,
		"track": 5
	},
	{
		"deltaTime": 60,
		"channel": 9,
		"type": "channel",
		"noteNumber": 42,
		"velocity": 127,
		"subtype": "noteOn",
		"time": 6960,
		"track": 5
	},
	{
		"deltaTime": 60,
		"channel": 9,
		"type": "channel",
		"subtype": "noteOff",
		"noteNumber": 42,
		"velocity": 0,
		"time": 7020,
		"track": 5
	},
	{
		"deltaTime": 0,
		"channel": 1,
		"type": "channel",
		"subtype": "noteOff",
		"noteNumber": 64,
		"velocity": 0,
		"time": 7080,
		"track": 3
	},
	{
		"deltaTime": 0,
		"channel": 1,
		"type": "channel",
		"noteNumber": 61,
		"velocity": 127,
		"subtype": "noteOn",
		"time": 7080,
		"track": 3
	},
	{
		"deltaTime": 0,
		"channel": 2,
		"type": "channel",
		"subtype": "noteOff",
		"noteNumber": 56,
		"velocity": 0,
		"time": 7080,
		"track": 4
	},
	{
		"deltaTime": 0,
		"channel": 2,
		"type": "channel",
		"subtype": "noteOff",
		"noteNumber": 52,
		"velocity": 0,
		"time": 7080,
		"track": 4
	},
	{
		"deltaTime": 0,
		"channel": 2,
		"type": "channel",
		"subtype": "noteOff",
		"noteNumber": 47,
		"velocity": 0,
		"time": 7080,
		"track": 4
	},
	{
		"deltaTime": 0,
		"channel": 2,
		"type": "channel",
		"subtype": "noteOff",
		"noteNumber": 40,
		"velocity": 0,
		"time": 7080,
		"track": 4
	},
	{
		"deltaTime": 0,
		"channel": 2,
		"type": "channel",
		"noteNumber": 52,
		"velocity": 127,
		"subtype": "noteOn",
		"time": 7080,
		"track": 4
	},
	{
		"deltaTime": 0,
		"channel": 2,
		"type": "channel",
		"noteNumber": 56,
		"velocity": 127,
		"subtype": "noteOn",
		"time": 7080,
		"track": 4
	},
	{
		"deltaTime": 60,
		"channel": 9,
		"type": "channel",
		"noteNumber": 42,
		"velocity": 127,
		"subtype": "noteOn",
		"time": 7080,
		"track": 5
	},
	{
		"deltaTime": 60,
		"channel": 9,
		"type": "channel",
		"subtype": "noteOff",
		"noteNumber": 42,
		"velocity": 0,
		"time": 7140,
		"track": 5
	},
	{
		"deltaTime": 0,
		"channel": 2,
		"type": "channel",
		"subtype": "noteOff",
		"noteNumber": 56,
		"velocity": 0,
		"time": 7200,
		"track": 4
	},
	{
		"deltaTime": 0,
		"channel": 2,
		"type": "channel",
		"subtype": "noteOff",
		"noteNumber": 52,
		"velocity": 0,
		"time": 7200,
		"track": 4
	},
	{
		"deltaTime": 0,
		"channel": 2,
		"type": "channel",
		"noteNumber": 40,
		"velocity": 127,
		"subtype": "noteOn",
		"time": 7200,
		"track": 4
	},
	{
		"deltaTime": 0,
		"channel": 2,
		"type": "channel",
		"noteNumber": 52,
		"velocity": 127,
		"subtype": "noteOn",
		"time": 7200,
		"track": 4
	},
	{
		"deltaTime": 0,
		"channel": 2,
		"type": "channel",
		"noteNumber": 56,
		"velocity": 127,
		"subtype": "noteOn",
		"time": 7200,
		"track": 4
	},
	{
		"deltaTime": 0,
		"channel": 2,
		"type": "channel",
		"noteNumber": 59,
		"velocity": 127,
		"subtype": "noteOn",
		"time": 7200,
		"track": 4
	},
	{
		"deltaTime": 0,
		"channel": 9,
		"type": "channel",
		"noteNumber": 42,
		"velocity": 127,
		"subtype": "noteOn",
		"time": 7200,
		"track": 5
	},
	{
		"deltaTime": 60,
		"channel": 9,
		"type": "channel",
		"noteNumber": 39,
		"velocity": 127,
		"subtype": "noteOn",
		"time": 7200,
		"track": 5
	},
	{
		"deltaTime": 0,
		"channel": 9,
		"type": "channel",
		"subtype": "noteOff",
		"noteNumber": 39,
		"velocity": 0,
		"time": 7260,
		"track": 5
	},
	{
		"deltaTime": 60,
		"channel": 9,
		"type": "channel",
		"subtype": "noteOff",
		"noteNumber": 42,
		"velocity": 0,
		"time": 7260,
		"track": 5
	},
	{
		"deltaTime": 0,
		"channel": 1,
		"type": "channel",
		"subtype": "noteOff",
		"noteNumber": 61,
		"velocity": 0,
		"time": 7320,
		"track": 3
	},
	{
		"deltaTime": 0,
		"channel": 1,
		"type": "channel",
		"noteNumber": 59,
		"velocity": 127,
		"subtype": "noteOn",
		"time": 7320,
		"track": 3
	},
	{
		"deltaTime": 60,
		"channel": 9,
		"type": "channel",
		"noteNumber": 42,
		"velocity": 127,
		"subtype": "noteOn",
		"time": 7320,
		"track": 5
	},
	{
		"deltaTime": 60,
		"channel": 9,
		"type": "channel",
		"subtype": "noteOff",
		"noteNumber": 42,
		"velocity": 0,
		"time": 7380,
		"track": 5
	},
	{
		"deltaTime": 60,
		"channel": 9,
		"type": "channel",
		"noteNumber": 42,
		"velocity": 127,
		"subtype": "noteOn",
		"time": 7440,
		"track": 5
	},
	{
		"deltaTime": 60,
		"channel": 9,
		"type": "channel",
		"subtype": "noteOff",
		"noteNumber": 42,
		"velocity": 0,
		"time": 7500,
		"track": 5
	},
	{
		"deltaTime": 0,
		"channel": 1,
		"type": "channel",
		"subtype": "noteOff",
		"noteNumber": 59,
		"velocity": 0,
		"time": 7560,
		"track": 3
	},
	{
		"deltaTime": 0,
		"channel": 1,
		"type": "channel",
		"noteNumber": 63,
		"velocity": 127,
		"subtype": "noteOn",
		"time": 7560,
		"track": 3
	},
	{
		"deltaTime": 60,
		"channel": 9,
		"type": "channel",
		"noteNumber": 42,
		"velocity": 127,
		"subtype": "noteOn",
		"time": 7560,
		"track": 5
	},
	{
		"deltaTime": 60,
		"channel": 9,
		"type": "channel",
		"subtype": "noteOff",
		"noteNumber": 42,
		"velocity": 0,
		"time": 7620,
		"track": 5
	},
	{
		"deltaTime": 0,
		"channel": 2,
		"type": "channel",
		"subtype": "noteOff",
		"noteNumber": 59,
		"velocity": 0,
		"time": 7680,
		"track": 4
	},
	{
		"deltaTime": 0,
		"channel": 2,
		"type": "channel",
		"subtype": "noteOff",
		"noteNumber": 56,
		"velocity": 0,
		"time": 7680,
		"track": 4
	},
	{
		"deltaTime": 0,
		"channel": 2,
		"type": "channel",
		"subtype": "noteOff",
		"noteNumber": 52,
		"velocity": 0,
		"time": 7680,
		"track": 4
	},
	{
		"deltaTime": 0,
		"channel": 2,
		"type": "channel",
		"subtype": "noteOff",
		"noteNumber": 40,
		"velocity": 0,
		"time": 7680,
		"track": 4
	},
	{
		"deltaTime": 0,
		"channel": 2,
		"type": "channel",
		"noteNumber": 42,
		"velocity": 127,
		"subtype": "noteOn",
		"time": 7680,
		"track": 4
	},
	{
		"deltaTime": 0,
		"channel": 2,
		"type": "channel",
		"noteNumber": 49,
		"velocity": 127,
		"subtype": "noteOn",
		"time": 7680,
		"track": 4
	},
	{
		"deltaTime": 0,
		"channel": 2,
		"type": "channel",
		"noteNumber": 54,
		"velocity": 127,
		"subtype": "noteOn",
		"time": 7680,
		"track": 4
	},
	{
		"deltaTime": 0,
		"channel": 2,
		"type": "channel",
		"noteNumber": 58,
		"velocity": 127,
		"subtype": "noteOn",
		"time": 7680,
		"track": 4
	},
	{
		"deltaTime": 60,
		"channel": 9,
		"type": "channel",
		"noteNumber": 42,
		"velocity": 127,
		"subtype": "noteOn",
		"time": 7680,
		"track": 5
	},
	{
		"deltaTime": 60,
		"channel": 9,
		"type": "channel",
		"subtype": "noteOff",
		"noteNumber": 42,
		"velocity": 0,
		"time": 7740,
		"track": 5
	},
	{
		"deltaTime": 60,
		"channel": 9,
		"type": "channel",
		"noteNumber": 42,
		"velocity": 127,
		"subtype": "noteOn",
		"time": 7800,
		"track": 5
	},
	{
		"deltaTime": 60,
		"channel": 9,
		"type": "channel",
		"subtype": "noteOff",
		"noteNumber": 42,
		"velocity": 0,
		"time": 7860,
		"track": 5
	},
	{
		"deltaTime": 0,
		"channel": 1,
		"type": "channel",
		"subtype": "noteOff",
		"noteNumber": 63,
		"velocity": 0,
		"time": 7920,
		"track": 3
	},
	{
		"deltaTime": 0,
		"channel": 1,
		"type": "channel",
		"noteNumber": 61,
		"velocity": 127,
		"subtype": "noteOn",
		"time": 7920,
		"track": 3
	},
	{
		"deltaTime": 60,
		"channel": 9,
		"type": "channel",
		"noteNumber": 42,
		"velocity": 127,
		"subtype": "noteOn",
		"time": 7920,
		"track": 5
	},
	{
		"deltaTime": 60,
		"channel": 9,
		"type": "channel",
		"subtype": "noteOff",
		"noteNumber": 42,
		"velocity": 0,
		"time": 7980,
		"track": 5
	},
	{
		"deltaTime": 0,
		"channel": 2,
		"type": "channel",
		"subtype": "noteOff",
		"noteNumber": 58,
		"velocity": 0,
		"time": 8040,
		"track": 4
	},
	{
		"deltaTime": 0,
		"channel": 2,
		"type": "channel",
		"subtype": "noteOff",
		"noteNumber": 54,
		"velocity": 0,
		"time": 8040,
		"track": 4
	},
	{
		"deltaTime": 0,
		"channel": 2,
		"type": "channel",
		"subtype": "noteOff",
		"noteNumber": 49,
		"velocity": 0,
		"time": 8040,
		"track": 4
	},
	{
		"deltaTime": 0,
		"channel": 2,
		"type": "channel",
		"subtype": "noteOff",
		"noteNumber": 42,
		"velocity": 0,
		"time": 8040,
		"track": 4
	},
	{
		"deltaTime": 0,
		"channel": 2,
		"type": "channel",
		"noteNumber": 54,
		"velocity": 127,
		"subtype": "noteOn",
		"time": 8040,
		"track": 4
	},
	{
		"deltaTime": 0,
		"channel": 2,
		"type": "channel",
		"noteNumber": 58,
		"velocity": 127,
		"subtype": "noteOn",
		"time": 8040,
		"track": 4
	},
	{
		"deltaTime": 60,
		"channel": 9,
		"type": "channel",
		"noteNumber": 42,
		"velocity": 127,
		"subtype": "noteOn",
		"time": 8040,
		"track": 5
	},
	{
		"deltaTime": 60,
		"channel": 9,
		"type": "channel",
		"subtype": "noteOff",
		"noteNumber": 42,
		"velocity": 0,
		"time": 8100,
		"track": 5
	},
	{
		"deltaTime": 0,
		"channel": 2,
		"type": "channel",
		"subtype": "noteOff",
		"noteNumber": 58,
		"velocity": 0,
		"time": 8160,
		"track": 4
	},
	{
		"deltaTime": 0,
		"channel": 2,
		"type": "channel",
		"subtype": "noteOff",
		"noteNumber": 54,
		"velocity": 0,
		"time": 8160,
		"track": 4
	},
	{
		"deltaTime": 0,
		"channel": 2,
		"type": "channel",
		"noteNumber": 42,
		"velocity": 127,
		"subtype": "noteOn",
		"time": 8160,
		"track": 4
	},
	{
		"deltaTime": 0,
		"channel": 2,
		"type": "channel",
		"noteNumber": 49,
		"velocity": 127,
		"subtype": "noteOn",
		"time": 8160,
		"track": 4
	},
	{
		"deltaTime": 0,
		"channel": 2,
		"type": "channel",
		"noteNumber": 58,
		"velocity": 127,
		"subtype": "noteOn",
		"time": 8160,
		"track": 4
	},
	{
		"deltaTime": 0,
		"channel": 2,
		"type": "channel",
		"noteNumber": 61,
		"velocity": 127,
		"subtype": "noteOn",
		"time": 8160,
		"track": 4
	},
	{
		"deltaTime": 0,
		"channel": 9,
		"type": "channel",
		"noteNumber": 42,
		"velocity": 127,
		"subtype": "noteOn",
		"time": 8160,
		"track": 5
	},
	{
		"deltaTime": 60,
		"channel": 9,
		"type": "channel",
		"noteNumber": 39,
		"velocity": 127,
		"subtype": "noteOn",
		"time": 8160,
		"track": 5
	},
	{
		"deltaTime": 0,
		"channel": 9,
		"type": "channel",
		"subtype": "noteOff",
		"noteNumber": 39,
		"velocity": 0,
		"time": 8220,
		"track": 5
	},
	{
		"deltaTime": 60,
		"channel": 9,
		"type": "channel",
		"subtype": "noteOff",
		"noteNumber": 42,
		"velocity": 0,
		"time": 8220,
		"track": 5
	},
	{
		"deltaTime": 60,
		"channel": 9,
		"type": "channel",
		"noteNumber": 42,
		"velocity": 127,
		"subtype": "noteOn",
		"time": 8280,
		"track": 5
	},
	{
		"deltaTime": 60,
		"channel": 9,
		"type": "channel",
		"subtype": "noteOff",
		"noteNumber": 42,
		"velocity": 0,
		"time": 8340,
		"track": 5
	},
	{
		"deltaTime": 0,
		"channel": 1,
		"type": "channel",
		"subtype": "noteOff",
		"noteNumber": 61,
		"velocity": 0,
		"time": 8400,
		"track": 3
	},
	{
		"deltaTime": 60,
		"channel": 9,
		"type": "channel",
		"noteNumber": 42,
		"velocity": 127,
		"subtype": "noteOn",
		"time": 8400,
		"track": 5
	},
	{
		"deltaTime": 60,
		"channel": 9,
		"type": "channel",
		"subtype": "noteOff",
		"noteNumber": 42,
		"velocity": 0,
		"time": 8460,
		"track": 5
	},
	{
		"deltaTime": 0,
		"channel": 1,
		"type": "channel",
		"noteNumber": 59,
		"velocity": 127,
		"subtype": "noteOn",
		"time": 8520,
		"track": 3
	},
	{
		"deltaTime": 60,
		"channel": 9,
		"type": "channel",
		"noteNumber": 42,
		"velocity": 127,
		"subtype": "noteOn",
		"time": 8520,
		"track": 5
	},
	{
		"deltaTime": 60,
		"channel": 9,
		"type": "channel",
		"subtype": "noteOff",
		"noteNumber": 42,
		"velocity": 0,
		"time": 8580,
		"track": 5
	},
	{
		"deltaTime": 0,
		"channel": 1,
		"type": "channel",
		"subtype": "noteOff",
		"noteNumber": 59,
		"velocity": 0,
		"time": 8640,
		"track": 3
	},
	{
		"deltaTime": 0,
		"channel": 1,
		"type": "channel",
		"noteNumber": 66,
		"velocity": 127,
		"subtype": "noteOn",
		"time": 8640,
		"track": 3
	},
	{
		"deltaTime": 0,
		"channel": 2,
		"type": "channel",
		"subtype": "noteOff",
		"noteNumber": 61,
		"velocity": 0,
		"time": 8640,
		"track": 4
	},
	{
		"deltaTime": 0,
		"channel": 2,
		"type": "channel",
		"subtype": "noteOff",
		"noteNumber": 58,
		"velocity": 0,
		"time": 8640,
		"track": 4
	},
	{
		"deltaTime": 0,
		"channel": 2,
		"type": "channel",
		"subtype": "noteOff",
		"noteNumber": 49,
		"velocity": 0,
		"time": 8640,
		"track": 4
	},
	{
		"deltaTime": 0,
		"channel": 2,
		"type": "channel",
		"subtype": "noteOff",
		"noteNumber": 42,
		"velocity": 0,
		"time": 8640,
		"track": 4
	},
	{
		"deltaTime": 0,
		"channel": 2,
		"type": "channel",
		"noteNumber": 47,
		"velocity": 127,
		"subtype": "noteOn",
		"time": 8640,
		"track": 4
	},
	{
		"deltaTime": 0,
		"channel": 2,
		"type": "channel",
		"noteNumber": 54,
		"velocity": 127,
		"subtype": "noteOn",
		"time": 8640,
		"track": 4
	},
	{
		"deltaTime": 0,
		"channel": 2,
		"type": "channel",
		"noteNumber": 59,
		"velocity": 127,
		"subtype": "noteOn",
		"time": 8640,
		"track": 4
	},
	{
		"deltaTime": 0,
		"channel": 2,
		"type": "channel",
		"noteNumber": 66,
		"velocity": 127,
		"subtype": "noteOn",
		"time": 8640,
		"track": 4
	},
	{
		"deltaTime": 60,
		"channel": 9,
		"type": "channel",
		"noteNumber": 42,
		"velocity": 127,
		"subtype": "noteOn",
		"time": 8640,
		"track": 5
	},
	{
		"deltaTime": 60,
		"channel": 9,
		"type": "channel",
		"subtype": "noteOff",
		"noteNumber": 42,
		"velocity": 0,
		"time": 8700,
		"track": 5
	},
	{
		"deltaTime": 60,
		"channel": 9,
		"type": "channel",
		"noteNumber": 42,
		"velocity": 127,
		"subtype": "noteOn",
		"time": 8760,
		"track": 5
	},
	{
		"deltaTime": 60,
		"channel": 9,
		"type": "channel",
		"subtype": "noteOff",
		"noteNumber": 42,
		"velocity": 0,
		"time": 8820,
		"track": 5
	},
	{
		"deltaTime": 0,
		"channel": 1,
		"type": "channel",
		"subtype": "noteOff",
		"noteNumber": 66,
		"velocity": 0,
		"time": 8880,
		"track": 3
	},
	{
		"deltaTime": 0,
		"channel": 1,
		"type": "channel",
		"noteNumber": 68,
		"velocity": 127,
		"subtype": "noteOn",
		"time": 8880,
		"track": 3
	},
	{
		"deltaTime": 0,
		"channel": 2,
		"type": "channel",
		"subtype": "noteOff",
		"noteNumber": 66,
		"velocity": 0,
		"time": 8880,
		"track": 4
	},
	{
		"deltaTime": 0,
		"channel": 2,
		"type": "channel",
		"subtype": "noteOff",
		"noteNumber": 59,
		"velocity": 0,
		"time": 8880,
		"track": 4
	},
	{
		"deltaTime": 0,
		"channel": 2,
		"type": "channel",
		"subtype": "noteOff",
		"noteNumber": 54,
		"velocity": 0,
		"time": 8880,
		"track": 4
	},
	{
		"deltaTime": 0,
		"channel": 2,
		"type": "channel",
		"subtype": "noteOff",
		"noteNumber": 47,
		"velocity": 0,
		"time": 8880,
		"track": 4
	},
	{
		"deltaTime": 0,
		"channel": 2,
		"type": "channel",
		"noteNumber": 54,
		"velocity": 127,
		"subtype": "noteOn",
		"time": 8880,
		"track": 4
	},
	{
		"deltaTime": 0,
		"channel": 2,
		"type": "channel",
		"noteNumber": 59,
		"velocity": 127,
		"subtype": "noteOn",
		"time": 8880,
		"track": 4
	},
	{
		"deltaTime": 0,
		"channel": 2,
		"type": "channel",
		"noteNumber": 63,
		"velocity": 127,
		"subtype": "noteOn",
		"time": 8880,
		"track": 4
	},
	{
		"deltaTime": 60,
		"channel": 9,
		"type": "channel",
		"noteNumber": 42,
		"velocity": 127,
		"subtype": "noteOn",
		"time": 8880,
		"track": 5
	},
	{
		"deltaTime": 60,
		"channel": 9,
		"type": "channel",
		"subtype": "noteOff",
		"noteNumber": 42,
		"velocity": 0,
		"time": 8940,
		"track": 5
	},
	{
		"deltaTime": 60,
		"channel": 9,
		"type": "channel",
		"noteNumber": 42,
		"velocity": 127,
		"subtype": "noteOn",
		"time": 9000,
		"track": 5
	},
	{
		"deltaTime": 60,
		"channel": 9,
		"type": "channel",
		"subtype": "noteOff",
		"noteNumber": 42,
		"velocity": 0,
		"time": 9060,
		"track": 5
	},
	{
		"deltaTime": 0,
		"channel": 1,
		"type": "channel",
		"subtype": "noteOff",
		"noteNumber": 68,
		"velocity": 0,
		"time": 9120,
		"track": 3
	},
	{
		"deltaTime": 0,
		"channel": 1,
		"type": "channel",
		"noteNumber": 63,
		"velocity": 127,
		"subtype": "noteOn",
		"time": 9120,
		"track": 3
	},
	{
		"deltaTime": 0,
		"channel": 2,
		"type": "channel",
		"subtype": "noteOff",
		"noteNumber": 63,
		"velocity": 0,
		"time": 9120,
		"track": 4
	},
	{
		"deltaTime": 0,
		"channel": 2,
		"type": "channel",
		"subtype": "noteOff",
		"noteNumber": 59,
		"velocity": 0,
		"time": 9120,
		"track": 4
	},
	{
		"deltaTime": 0,
		"channel": 2,
		"type": "channel",
		"subtype": "noteOff",
		"noteNumber": 54,
		"velocity": 0,
		"time": 9120,
		"track": 4
	},
	{
		"deltaTime": 0,
		"channel": 2,
		"type": "channel",
		"noteNumber": 46,
		"velocity": 127,
		"subtype": "noteOn",
		"time": 9120,
		"track": 4
	},
	{
		"deltaTime": 0,
		"channel": 2,
		"type": "channel",
		"noteNumber": 54,
		"velocity": 127,
		"subtype": "noteOn",
		"time": 9120,
		"track": 4
	},
	{
		"deltaTime": 0,
		"channel": 9,
		"type": "channel",
		"noteNumber": 42,
		"velocity": 127,
		"subtype": "noteOn",
		"time": 9120,
		"track": 5
	},
	{
		"deltaTime": 60,
		"channel": 9,
		"type": "channel",
		"noteNumber": 39,
		"velocity": 127,
		"subtype": "noteOn",
		"time": 9120,
		"track": 5
	},
	{
		"deltaTime": 0,
		"channel": 9,
		"type": "channel",
		"subtype": "noteOff",
		"noteNumber": 39,
		"velocity": 0,
		"time": 9180,
		"track": 5
	},
	{
		"deltaTime": 60,
		"channel": 9,
		"type": "channel",
		"subtype": "noteOff",
		"noteNumber": 42,
		"velocity": 0,
		"time": 9180,
		"track": 5
	},
	{
		"deltaTime": 60,
		"channel": 9,
		"type": "channel",
		"noteNumber": 42,
		"velocity": 127,
		"subtype": "noteOn",
		"time": 9240,
		"track": 5
	},
	{
		"deltaTime": 60,
		"channel": 9,
		"type": "channel",
		"subtype": "noteOff",
		"noteNumber": 42,
		"velocity": 0,
		"time": 9300,
		"track": 5
	},
	{
		"deltaTime": 0,
		"channel": 1,
		"type": "channel",
		"subtype": "noteOff",
		"noteNumber": 63,
		"velocity": 0,
		"time": 9360,
		"track": 3
	},
	{
		"deltaTime": 0,
		"channel": 1,
		"type": "channel",
		"noteNumber": 61,
		"velocity": 127,
		"subtype": "noteOn",
		"time": 9360,
		"track": 3
	},
	{
		"deltaTime": 0,
		"channel": 2,
		"type": "channel",
		"subtype": "noteOff",
		"noteNumber": 54,
		"velocity": 0,
		"time": 9360,
		"track": 4
	},
	{
		"deltaTime": 0,
		"channel": 2,
		"type": "channel",
		"subtype": "noteOff",
		"noteNumber": 46,
		"velocity": 0,
		"time": 9360,
		"track": 4
	},
	{
		"deltaTime": 0,
		"channel": 2,
		"type": "channel",
		"noteNumber": 54,
		"velocity": 127,
		"subtype": "noteOn",
		"time": 9360,
		"track": 4
	},
	{
		"deltaTime": 0,
		"channel": 2,
		"type": "channel",
		"noteNumber": 59,
		"velocity": 127,
		"subtype": "noteOn",
		"time": 9360,
		"track": 4
	},
	{
		"deltaTime": 0,
		"channel": 2,
		"type": "channel",
		"noteNumber": 63,
		"velocity": 127,
		"subtype": "noteOn",
		"time": 9360,
		"track": 4
	},
	{
		"deltaTime": 60,
		"channel": 9,
		"type": "channel",
		"noteNumber": 42,
		"velocity": 127,
		"subtype": "noteOn",
		"time": 9360,
		"track": 5
	},
	{
		"deltaTime": 60,
		"channel": 9,
		"type": "channel",
		"subtype": "noteOff",
		"noteNumber": 42,
		"velocity": 0,
		"time": 9420,
		"track": 5
	},
	{
		"deltaTime": 0,
		"channel": 1,
		"type": "channel",
		"subtype": "noteOff",
		"noteNumber": 61,
		"velocity": 0,
		"time": 9480,
		"track": 3
	},
	{
		"deltaTime": 0,
		"channel": 1,
		"type": "channel",
		"noteNumber": 63,
		"velocity": 127,
		"subtype": "noteOn",
		"time": 9480,
		"track": 3
	},
	{
		"deltaTime": 60,
		"channel": 9,
		"type": "channel",
		"noteNumber": 42,
		"velocity": 127,
		"subtype": "noteOn",
		"time": 9480,
		"track": 5
	},
	{
		"deltaTime": 60,
		"channel": 9,
		"type": "channel",
		"subtype": "noteOff",
		"noteNumber": 42,
		"velocity": 0,
		"time": 9540,
		"track": 5
	},
	{
		"deltaTime": 0,
		"channel": 2,
		"type": "channel",
		"subtype": "noteOff",
		"noteNumber": 63,
		"velocity": 0,
		"time": 9600,
		"track": 4
	},
	{
		"deltaTime": 0,
		"channel": 2,
		"type": "channel",
		"subtype": "noteOff",
		"noteNumber": 59,
		"velocity": 0,
		"time": 9600,
		"track": 4
	},
	{
		"deltaTime": 0,
		"channel": 2,
		"type": "channel",
		"subtype": "noteOff",
		"noteNumber": 54,
		"velocity": 0,
		"time": 9600,
		"track": 4
	},
	{
		"deltaTime": 0,
		"channel": 2,
		"type": "channel",
		"noteNumber": 44,
		"velocity": 127,
		"subtype": "noteOn",
		"time": 9600,
		"track": 4
	},
	{
		"deltaTime": 0,
		"channel": 2,
		"type": "channel",
		"noteNumber": 51,
		"velocity": 127,
		"subtype": "noteOn",
		"time": 9600,
		"track": 4
	},
	{
		"deltaTime": 0,
		"channel": 2,
		"type": "channel",
		"noteNumber": 56,
		"velocity": 127,
		"subtype": "noteOn",
		"time": 9600,
		"track": 4
	},
	{
		"deltaTime": 0,
		"channel": 2,
		"type": "channel",
		"noteNumber": 59,
		"velocity": 127,
		"subtype": "noteOn",
		"time": 9600,
		"track": 4
	},
	{
		"deltaTime": 0,
		"channel": 2,
		"type": "channel",
		"noteNumber": 63,
		"velocity": 127,
		"subtype": "noteOn",
		"time": 9600,
		"track": 4
	},
	{
		"deltaTime": 60,
		"channel": 9,
		"type": "channel",
		"noteNumber": 42,
		"velocity": 127,
		"subtype": "noteOn",
		"time": 9600,
		"track": 5
	},
	{
		"deltaTime": 60,
		"channel": 9,
		"type": "channel",
		"subtype": "noteOff",
		"noteNumber": 42,
		"velocity": 0,
		"time": 9660,
		"track": 5
	},
	{
		"deltaTime": 60,
		"channel": 9,
		"type": "channel",
		"noteNumber": 42,
		"velocity": 127,
		"subtype": "noteOn",
		"time": 9720,
		"track": 5
	},
	{
		"deltaTime": 60,
		"channel": 9,
		"type": "channel",
		"subtype": "noteOff",
		"noteNumber": 42,
		"velocity": 0,
		"time": 9780,
		"track": 5
	},
	{
		"deltaTime": 0,
		"channel": 1,
		"type": "channel",
		"subtype": "noteOff",
		"noteNumber": 63,
		"velocity": 0,
		"time": 9840,
		"track": 3
	},
	{
		"deltaTime": 60,
		"channel": 9,
		"type": "channel",
		"noteNumber": 42,
		"velocity": 127,
		"subtype": "noteOn",
		"time": 9840,
		"track": 5
	},
	{
		"deltaTime": 60,
		"channel": 9,
		"type": "channel",
		"subtype": "noteOff",
		"noteNumber": 42,
		"velocity": 0,
		"time": 9900,
		"track": 5
	},
	{
		"deltaTime": 0,
		"channel": 2,
		"type": "channel",
		"subtype": "noteOff",
		"noteNumber": 63,
		"velocity": 0,
		"time": 9960,
		"track": 4
	},
	{
		"deltaTime": 0,
		"channel": 2,
		"type": "channel",
		"subtype": "noteOff",
		"noteNumber": 59,
		"velocity": 0,
		"time": 9960,
		"track": 4
	},
	{
		"deltaTime": 0,
		"channel": 2,
		"type": "channel",
		"subtype": "noteOff",
		"noteNumber": 56,
		"velocity": 0,
		"time": 9960,
		"track": 4
	},
	{
		"deltaTime": 0,
		"channel": 2,
		"type": "channel",
		"subtype": "noteOff",
		"noteNumber": 51,
		"velocity": 0,
		"time": 9960,
		"track": 4
	},
	{
		"deltaTime": 0,
		"channel": 2,
		"type": "channel",
		"subtype": "noteOff",
		"noteNumber": 44,
		"velocity": 0,
		"time": 9960,
		"track": 4
	},
	{
		"deltaTime": 0,
		"channel": 2,
		"type": "channel",
		"noteNumber": 56,
		"velocity": 127,
		"subtype": "noteOn",
		"time": 9960,
		"track": 4
	},
	{
		"deltaTime": 0,
		"channel": 2,
		"type": "channel",
		"noteNumber": 59,
		"velocity": 127,
		"subtype": "noteOn",
		"time": 9960,
		"track": 4
	},
	{
		"deltaTime": 60,
		"channel": 9,
		"type": "channel",
		"noteNumber": 42,
		"velocity": 127,
		"subtype": "noteOn",
		"time": 9960,
		"track": 5
	},
	{
		"deltaTime": 60,
		"channel": 9,
		"type": "channel",
		"subtype": "noteOff",
		"noteNumber": 42,
		"velocity": 0,
		"time": 10020,
		"track": 5
	},
	{
		"deltaTime": 0,
		"channel": 1,
		"type": "channel",
		"noteNumber": 66,
		"velocity": 127,
		"subtype": "noteOn",
		"time": 10080,
		"track": 3
	},
	{
		"deltaTime": 0,
		"channel": 2,
		"type": "channel",
		"subtype": "noteOff",
		"noteNumber": 59,
		"velocity": 0,
		"time": 10080,
		"track": 4
	},
	{
		"deltaTime": 0,
		"channel": 2,
		"type": "channel",
		"subtype": "noteOff",
		"noteNumber": 56,
		"velocity": 0,
		"time": 10080,
		"track": 4
	},
	{
		"deltaTime": 0,
		"channel": 2,
		"type": "channel",
		"noteNumber": 51,
		"velocity": 127,
		"subtype": "noteOn",
		"time": 10080,
		"track": 4
	},
	{
		"deltaTime": 0,
		"channel": 2,
		"type": "channel",
		"noteNumber": 59,
		"velocity": 127,
		"subtype": "noteOn",
		"time": 10080,
		"track": 4
	},
	{
		"deltaTime": 0,
		"channel": 2,
		"type": "channel",
		"noteNumber": 63,
		"velocity": 127,
		"subtype": "noteOn",
		"time": 10080,
		"track": 4
	},
	{
		"deltaTime": 0,
		"channel": 9,
		"type": "channel",
		"noteNumber": 42,
		"velocity": 127,
		"subtype": "noteOn",
		"time": 10080,
		"track": 5
	},
	{
		"deltaTime": 60,
		"channel": 9,
		"type": "channel",
		"noteNumber": 39,
		"velocity": 127,
		"subtype": "noteOn",
		"time": 10080,
		"track": 5
	},
	{
		"deltaTime": 0,
		"channel": 9,
		"type": "channel",
		"subtype": "noteOff",
		"noteNumber": 39,
		"velocity": 0,
		"time": 10140,
		"track": 5
	},
	{
		"deltaTime": 60,
		"channel": 9,
		"type": "channel",
		"subtype": "noteOff",
		"noteNumber": 42,
		"velocity": 0,
		"time": 10140,
		"track": 5
	},
	{
		"deltaTime": 0,
		"channel": 1,
		"type": "channel",
		"subtype": "noteOff",
		"noteNumber": 66,
		"velocity": 0,
		"time": 10200,
		"track": 3
	},
	{
		"deltaTime": 0,
		"channel": 1,
		"type": "channel",
		"noteNumber": 66,
		"velocity": 127,
		"subtype": "noteOn",
		"time": 10200,
		"track": 3
	},
	{
		"deltaTime": 60,
		"channel": 9,
		"type": "channel",
		"noteNumber": 42,
		"velocity": 127,
		"subtype": "noteOn",
		"time": 10200,
		"track": 5
	},
	{
		"deltaTime": 60,
		"channel": 9,
		"type": "channel",
		"subtype": "noteOff",
		"noteNumber": 42,
		"velocity": 0,
		"time": 10260,
		"track": 5
	},
	{
		"deltaTime": 60,
		"channel": 9,
		"type": "channel",
		"noteNumber": 42,
		"velocity": 127,
		"subtype": "noteOn",
		"time": 10320,
		"track": 5
	},
	{
		"deltaTime": 60,
		"channel": 9,
		"type": "channel",
		"subtype": "noteOff",
		"noteNumber": 42,
		"velocity": 0,
		"time": 10380,
		"track": 5
	},
	{
		"deltaTime": 0,
		"channel": 1,
		"type": "channel",
		"subtype": "noteOff",
		"noteNumber": 66,
		"velocity": 0,
		"time": 10440,
		"track": 3
	},
	{
		"deltaTime": 0,
		"channel": 1,
		"type": "channel",
		"noteNumber": 66,
		"velocity": 127,
		"subtype": "noteOn",
		"time": 10440,
		"track": 3
	},
	{
		"deltaTime": 60,
		"channel": 9,
		"type": "channel",
		"noteNumber": 42,
		"velocity": 127,
		"subtype": "noteOn",
		"time": 10440,
		"track": 5
	},
	{
		"deltaTime": 60,
		"channel": 9,
		"type": "channel",
		"subtype": "noteOff",
		"noteNumber": 42,
		"velocity": 0,
		"time": 10500,
		"track": 5
	},
	{
		"deltaTime": 0,
		"channel": 2,
		"type": "channel",
		"subtype": "noteOff",
		"noteNumber": 63,
		"velocity": 0,
		"time": 10560,
		"track": 4
	},
	{
		"deltaTime": 0,
		"channel": 2,
		"type": "channel",
		"subtype": "noteOff",
		"noteNumber": 59,
		"velocity": 0,
		"time": 10560,
		"track": 4
	},
	{
		"deltaTime": 0,
		"channel": 2,
		"type": "channel",
		"subtype": "noteOff",
		"noteNumber": 51,
		"velocity": 0,
		"time": 10560,
		"track": 4
	},
	{
		"deltaTime": 0,
		"channel": 2,
		"type": "channel",
		"noteNumber": 40,
		"velocity": 127,
		"subtype": "noteOn",
		"time": 10560,
		"track": 4
	},
	{
		"deltaTime": 0,
		"channel": 2,
		"type": "channel",
		"noteNumber": 47,
		"velocity": 127,
		"subtype": "noteOn",
		"time": 10560,
		"track": 4
	},
	{
		"deltaTime": 0,
		"channel": 2,
		"type": "channel",
		"noteNumber": 52,
		"velocity": 127,
		"subtype": "noteOn",
		"time": 10560,
		"track": 4
	},
	{
		"deltaTime": 0,
		"channel": 2,
		"type": "channel",
		"noteNumber": 56,
		"velocity": 127,
		"subtype": "noteOn",
		"time": 10560,
		"track": 4
	},
	{
		"deltaTime": 60,
		"channel": 9,
		"type": "channel",
		"noteNumber": 42,
		"velocity": 127,
		"subtype": "noteOn",
		"time": 10560,
		"track": 5
	},
	{
		"deltaTime": 60,
		"channel": 9,
		"type": "channel",
		"subtype": "noteOff",
		"noteNumber": 42,
		"velocity": 0,
		"time": 10620,
		"track": 5
	},
	{
		"deltaTime": 0,
		"channel": 1,
		"type": "channel",
		"subtype": "noteOff",
		"noteNumber": 66,
		"velocity": 0,
		"time": 10680,
		"track": 3
	},
	{
		"deltaTime": 0,
		"channel": 1,
		"type": "channel",
		"noteNumber": 66,
		"velocity": 127,
		"subtype": "noteOn",
		"time": 10680,
		"track": 3
	},
	{
		"deltaTime": 60,
		"channel": 9,
		"type": "channel",
		"noteNumber": 42,
		"velocity": 127,
		"subtype": "noteOn",
		"time": 10680,
		"track": 5
	},
	{
		"deltaTime": 60,
		"channel": 9,
		"type": "channel",
		"subtype": "noteOff",
		"noteNumber": 42,
		"velocity": 0,
		"time": 10740,
		"track": 5
	},
	{
		"deltaTime": 0,
		"channel": 1,
		"type": "channel",
		"subtype": "noteOff",
		"noteNumber": 66,
		"velocity": 0,
		"time": 10800,
		"track": 3
	},
	{
		"deltaTime": 0,
		"channel": 1,
		"type": "channel",
		"noteNumber": 68,
		"velocity": 127,
		"subtype": "noteOn",
		"time": 10800,
		"track": 3
	},
	{
		"deltaTime": 60,
		"channel": 9,
		"type": "channel",
		"noteNumber": 42,
		"velocity": 127,
		"subtype": "noteOn",
		"time": 10800,
		"track": 5
	},
	{
		"deltaTime": 60,
		"channel": 9,
		"type": "channel",
		"subtype": "noteOff",
		"noteNumber": 42,
		"velocity": 0,
		"time": 10860,
		"track": 5
	},
	{
		"deltaTime": 0,
		"channel": 1,
		"type": "channel",
		"subtype": "noteOff",
		"noteNumber": 68,
		"velocity": 0,
		"time": 10920,
		"track": 3
	},
	{
		"deltaTime": 0,
		"channel": 1,
		"type": "channel",
		"noteNumber": 61,
		"velocity": 127,
		"subtype": "noteOn",
		"time": 10920,
		"track": 3
	},
	{
		"deltaTime": 0,
		"channel": 2,
		"type": "channel",
		"subtype": "noteOff",
		"noteNumber": 56,
		"velocity": 0,
		"time": 10920,
		"track": 4
	},
	{
		"deltaTime": 0,
		"channel": 2,
		"type": "channel",
		"subtype": "noteOff",
		"noteNumber": 52,
		"velocity": 0,
		"time": 10920,
		"track": 4
	},
	{
		"deltaTime": 0,
		"channel": 2,
		"type": "channel",
		"subtype": "noteOff",
		"noteNumber": 47,
		"velocity": 0,
		"time": 10920,
		"track": 4
	},
	{
		"deltaTime": 0,
		"channel": 2,
		"type": "channel",
		"subtype": "noteOff",
		"noteNumber": 40,
		"velocity": 0,
		"time": 10920,
		"track": 4
	},
	{
		"deltaTime": 0,
		"channel": 2,
		"type": "channel",
		"noteNumber": 52,
		"velocity": 127,
		"subtype": "noteOn",
		"time": 10920,
		"track": 4
	},
	{
		"deltaTime": 0,
		"channel": 2,
		"type": "channel",
		"noteNumber": 56,
		"velocity": 127,
		"subtype": "noteOn",
		"time": 10920,
		"track": 4
	},
	{
		"deltaTime": 60,
		"channel": 9,
		"type": "channel",
		"noteNumber": 42,
		"velocity": 127,
		"subtype": "noteOn",
		"time": 10920,
		"track": 5
	},
	{
		"deltaTime": 60,
		"channel": 9,
		"type": "channel",
		"subtype": "noteOff",
		"noteNumber": 42,
		"velocity": 0,
		"time": 10980,
		"track": 5
	},
	{
		"deltaTime": 0,
		"channel": 2,
		"type": "channel",
		"subtype": "noteOff",
		"noteNumber": 56,
		"velocity": 0,
		"time": 11040,
		"track": 4
	},
	{
		"deltaTime": 0,
		"channel": 2,
		"type": "channel",
		"subtype": "noteOff",
		"noteNumber": 52,
		"velocity": 0,
		"time": 11040,
		"track": 4
	},
	{
		"deltaTime": 0,
		"channel": 2,
		"type": "channel",
		"noteNumber": 40,
		"velocity": 127,
		"subtype": "noteOn",
		"time": 11040,
		"track": 4
	},
	{
		"deltaTime": 0,
		"channel": 2,
		"type": "channel",
		"noteNumber": 52,
		"velocity": 127,
		"subtype": "noteOn",
		"time": 11040,
		"track": 4
	},
	{
		"deltaTime": 0,
		"channel": 2,
		"type": "channel",
		"noteNumber": 56,
		"velocity": 127,
		"subtype": "noteOn",
		"time": 11040,
		"track": 4
	},
	{
		"deltaTime": 0,
		"channel": 2,
		"type": "channel",
		"noteNumber": 59,
		"velocity": 127,
		"subtype": "noteOn",
		"time": 11040,
		"track": 4
	},
	{
		"deltaTime": 0,
		"channel": 9,
		"type": "channel",
		"noteNumber": 42,
		"velocity": 127,
		"subtype": "noteOn",
		"time": 11040,
		"track": 5
	},
	{
		"deltaTime": 60,
		"channel": 9,
		"type": "channel",
		"noteNumber": 39,
		"velocity": 127,
		"subtype": "noteOn",
		"time": 11040,
		"track": 5
	},
	{
		"deltaTime": 0,
		"channel": 9,
		"type": "channel",
		"subtype": "noteOff",
		"noteNumber": 39,
		"velocity": 0,
		"time": 11100,
		"track": 5
	},
	{
		"deltaTime": 60,
		"channel": 9,
		"type": "channel",
		"subtype": "noteOff",
		"noteNumber": 42,
		"velocity": 0,
		"time": 11100,
		"track": 5
	},
	{
		"deltaTime": 0,
		"channel": 1,
		"type": "channel",
		"subtype": "noteOff",
		"noteNumber": 61,
		"velocity": 0,
		"time": 11160,
		"track": 3
	},
	{
		"deltaTime": 0,
		"channel": 1,
		"type": "channel",
		"noteNumber": 61,
		"velocity": 127,
		"subtype": "noteOn",
		"time": 11160,
		"track": 3
	},
	{
		"deltaTime": 60,
		"channel": 9,
		"type": "channel",
		"noteNumber": 42,
		"velocity": 127,
		"subtype": "noteOn",
		"time": 11160,
		"track": 5
	},
	{
		"deltaTime": 60,
		"channel": 9,
		"type": "channel",
		"subtype": "noteOff",
		"noteNumber": 42,
		"velocity": 0,
		"time": 11220,
		"track": 5
	},
	{
		"deltaTime": 0,
		"channel": 1,
		"type": "channel",
		"subtype": "noteOff",
		"noteNumber": 61,
		"velocity": 0,
		"time": 11280,
		"track": 3
	},
	{
		"deltaTime": 0,
		"channel": 1,
		"type": "channel",
		"noteNumber": 59,
		"velocity": 127,
		"subtype": "noteOn",
		"time": 11280,
		"track": 3
	},
	{
		"deltaTime": 60,
		"channel": 9,
		"type": "channel",
		"noteNumber": 42,
		"velocity": 127,
		"subtype": "noteOn",
		"time": 11280,
		"track": 5
	},
	{
		"deltaTime": 60,
		"channel": 9,
		"type": "channel",
		"subtype": "noteOff",
		"noteNumber": 42,
		"velocity": 0,
		"time": 11340,
		"track": 5
	},
	{
		"deltaTime": 0,
		"channel": 1,
		"type": "channel",
		"subtype": "noteOff",
		"noteNumber": 59,
		"velocity": 0,
		"time": 11400,
		"track": 3
	},
	{
		"deltaTime": 0,
		"channel": 1,
		"type": "channel",
		"noteNumber": 63,
		"velocity": 127,
		"subtype": "noteOn",
		"time": 11400,
		"track": 3
	},
	{
		"deltaTime": 60,
		"channel": 9,
		"type": "channel",
		"noteNumber": 42,
		"velocity": 127,
		"subtype": "noteOn",
		"time": 11400,
		"track": 5
	},
	{
		"deltaTime": 60,
		"channel": 9,
		"type": "channel",
		"subtype": "noteOff",
		"noteNumber": 42,
		"velocity": 0,
		"time": 11460,
		"track": 5
	},
	{
		"deltaTime": 0,
		"channel": 2,
		"type": "channel",
		"subtype": "noteOff",
		"noteNumber": 59,
		"velocity": 0,
		"time": 11520,
		"track": 4
	},
	{
		"deltaTime": 0,
		"channel": 2,
		"type": "channel",
		"subtype": "noteOff",
		"noteNumber": 56,
		"velocity": 0,
		"time": 11520,
		"track": 4
	},
	{
		"deltaTime": 0,
		"channel": 2,
		"type": "channel",
		"subtype": "noteOff",
		"noteNumber": 52,
		"velocity": 0,
		"time": 11520,
		"track": 4
	},
	{
		"deltaTime": 0,
		"channel": 2,
		"type": "channel",
		"subtype": "noteOff",
		"noteNumber": 40,
		"velocity": 0,
		"time": 11520,
		"track": 4
	},
	{
		"deltaTime": 0,
		"channel": 2,
		"type": "channel",
		"noteNumber": 42,
		"velocity": 127,
		"subtype": "noteOn",
		"time": 11520,
		"track": 4
	},
	{
		"deltaTime": 0,
		"channel": 2,
		"type": "channel",
		"noteNumber": 49,
		"velocity": 127,
		"subtype": "noteOn",
		"time": 11520,
		"track": 4
	},
	{
		"deltaTime": 0,
		"channel": 2,
		"type": "channel",
		"noteNumber": 54,
		"velocity": 127,
		"subtype": "noteOn",
		"time": 11520,
		"track": 4
	},
	{
		"deltaTime": 0,
		"channel": 2,
		"type": "channel",
		"noteNumber": 58,
		"velocity": 127,
		"subtype": "noteOn",
		"time": 11520,
		"track": 4
	},
	{
		"deltaTime": 60,
		"channel": 9,
		"type": "channel",
		"noteNumber": 42,
		"velocity": 127,
		"subtype": "noteOn",
		"time": 11520,
		"track": 5
	},
	{
		"deltaTime": 60,
		"channel": 9,
		"type": "channel",
		"subtype": "noteOff",
		"noteNumber": 42,
		"velocity": 0,
		"time": 11580,
		"track": 5
	},
	{
		"deltaTime": 0,
		"channel": 1,
		"type": "channel",
		"subtype": "noteOff",
		"noteNumber": 63,
		"velocity": 0,
		"time": 11640,
		"track": 3
	},
	{
		"deltaTime": 0,
		"channel": 1,
		"type": "channel",
		"noteNumber": 61,
		"velocity": 127,
		"subtype": "noteOn",
		"time": 11640,
		"track": 3
	},
	{
		"deltaTime": 60,
		"channel": 9,
		"type": "channel",
		"noteNumber": 42,
		"velocity": 127,
		"subtype": "noteOn",
		"time": 11640,
		"track": 5
	},
	{
		"deltaTime": 60,
		"channel": 9,
		"type": "channel",
		"subtype": "noteOff",
		"noteNumber": 42,
		"velocity": 0,
		"time": 11700,
		"track": 5
	},
	{
		"deltaTime": 60,
		"channel": 9,
		"type": "channel",
		"noteNumber": 42,
		"velocity": 127,
		"subtype": "noteOn",
		"time": 11760,
		"track": 5
	},
	{
		"deltaTime": 60,
		"channel": 9,
		"type": "channel",
		"subtype": "noteOff",
		"noteNumber": 42,
		"velocity": 0,
		"time": 11820,
		"track": 5
	},
	{
		"deltaTime": 0,
		"channel": 1,
		"type": "channel",
		"subtype": "noteOff",
		"noteNumber": 61,
		"velocity": 0,
		"time": 11880,
		"track": 3
	},
	{
		"deltaTime": 0,
		"channel": 1,
		"type": "channel",
		"noteNumber": 61,
		"velocity": 127,
		"subtype": "noteOn",
		"time": 11880,
		"track": 3
	},
	{
		"deltaTime": 0,
		"channel": 2,
		"type": "channel",
		"subtype": "noteOff",
		"noteNumber": 58,
		"velocity": 0,
		"time": 11880,
		"track": 4
	},
	{
		"deltaTime": 0,
		"channel": 2,
		"type": "channel",
		"subtype": "noteOff",
		"noteNumber": 54,
		"velocity": 0,
		"time": 11880,
		"track": 4
	},
	{
		"deltaTime": 0,
		"channel": 2,
		"type": "channel",
		"subtype": "noteOff",
		"noteNumber": 49,
		"velocity": 0,
		"time": 11880,
		"track": 4
	},
	{
		"deltaTime": 0,
		"channel": 2,
		"type": "channel",
		"subtype": "noteOff",
		"noteNumber": 42,
		"velocity": 0,
		"time": 11880,
		"track": 4
	},
	{
		"deltaTime": 0,
		"channel": 2,
		"type": "channel",
		"noteNumber": 54,
		"velocity": 127,
		"subtype": "noteOn",
		"time": 11880,
		"track": 4
	},
	{
		"deltaTime": 0,
		"channel": 2,
		"type": "channel",
		"noteNumber": 58,
		"velocity": 127,
		"subtype": "noteOn",
		"time": 11880,
		"track": 4
	},
	{
		"deltaTime": 60,
		"channel": 9,
		"type": "channel",
		"noteNumber": 42,
		"velocity": 127,
		"subtype": "noteOn",
		"time": 11880,
		"track": 5
	},
	{
		"deltaTime": 60,
		"channel": 9,
		"type": "channel",
		"subtype": "noteOff",
		"noteNumber": 42,
		"velocity": 0,
		"time": 11940,
		"track": 5
	},
	{
		"deltaTime": 0,
		"channel": 2,
		"type": "channel",
		"subtype": "noteOff",
		"noteNumber": 58,
		"velocity": 0,
		"time": 12000,
		"track": 4
	},
	{
		"deltaTime": 0,
		"channel": 2,
		"type": "channel",
		"subtype": "noteOff",
		"noteNumber": 54,
		"velocity": 0,
		"time": 12000,
		"track": 4
	},
	{
		"deltaTime": 0,
		"channel": 2,
		"type": "channel",
		"noteNumber": 42,
		"velocity": 127,
		"subtype": "noteOn",
		"time": 12000,
		"track": 4
	},
	{
		"deltaTime": 0,
		"channel": 2,
		"type": "channel",
		"noteNumber": 49,
		"velocity": 127,
		"subtype": "noteOn",
		"time": 12000,
		"track": 4
	},
	{
		"deltaTime": 0,
		"channel": 2,
		"type": "channel",
		"noteNumber": 58,
		"velocity": 127,
		"subtype": "noteOn",
		"time": 12000,
		"track": 4
	},
	{
		"deltaTime": 0,
		"channel": 2,
		"type": "channel",
		"noteNumber": 61,
		"velocity": 127,
		"subtype": "noteOn",
		"time": 12000,
		"track": 4
	},
	{
		"deltaTime": 0,
		"channel": 9,
		"type": "channel",
		"noteNumber": 42,
		"velocity": 127,
		"subtype": "noteOn",
		"time": 12000,
		"track": 5
	},
	{
		"deltaTime": 60,
		"channel": 9,
		"type": "channel",
		"noteNumber": 39,
		"velocity": 127,
		"subtype": "noteOn",
		"time": 12000,
		"track": 5
	},
	{
		"deltaTime": 0,
		"channel": 9,
		"type": "channel",
		"subtype": "noteOff",
		"noteNumber": 39,
		"velocity": 0,
		"time": 12060,
		"track": 5
	},
	{
		"deltaTime": 60,
		"channel": 9,
		"type": "channel",
		"subtype": "noteOff",
		"noteNumber": 42,
		"velocity": 0,
		"time": 12060,
		"track": 5
	},
	{
		"deltaTime": 0,
		"channel": 1,
		"type": "channel",
		"subtype": "noteOff",
		"noteNumber": 61,
		"velocity": 0,
		"time": 12120,
		"track": 3
	},
	{
		"deltaTime": 60,
		"channel": 9,
		"type": "channel",
		"noteNumber": 42,
		"velocity": 127,
		"subtype": "noteOn",
		"time": 12120,
		"track": 5
	},
	{
		"deltaTime": 60,
		"channel": 9,
		"type": "channel",
		"subtype": "noteOff",
		"noteNumber": 42,
		"velocity": 0,
		"time": 12180,
		"track": 5
	},
	{
		"deltaTime": 0,
		"channel": 1,
		"type": "channel",
		"noteNumber": 59,
		"velocity": 127,
		"subtype": "noteOn",
		"time": 12240,
		"track": 3
	},
	{
		"deltaTime": 60,
		"channel": 9,
		"type": "channel",
		"noteNumber": 42,
		"velocity": 127,
		"subtype": "noteOn",
		"time": 12240,
		"track": 5
	},
	{
		"deltaTime": 60,
		"channel": 9,
		"type": "channel",
		"subtype": "noteOff",
		"noteNumber": 42,
		"velocity": 0,
		"time": 12300,
		"track": 5
	},
	{
		"deltaTime": 0,
		"channel": 1,
		"type": "channel",
		"subtype": "noteOff",
		"noteNumber": 59,
		"velocity": 0,
		"time": 12360,
		"track": 3
	},
	{
		"deltaTime": 0,
		"channel": 1,
		"type": "channel",
		"noteNumber": 61,
		"velocity": 127,
		"subtype": "noteOn",
		"time": 12360,
		"track": 3
	},
	{
		"deltaTime": 60,
		"channel": 9,
		"type": "channel",
		"noteNumber": 42,
		"velocity": 127,
		"subtype": "noteOn",
		"time": 12360,
		"track": 5
	},
	{
		"deltaTime": 60,
		"channel": 9,
		"type": "channel",
		"subtype": "noteOff",
		"noteNumber": 42,
		"velocity": 0,
		"time": 12420,
		"track": 5
	},
	{
		"deltaTime": 0,
		"channel": 1,
		"type": "channel",
		"subtype": "noteOff",
		"noteNumber": 61,
		"velocity": 0,
		"time": 12480,
		"track": 3
	},
	{
		"deltaTime": 0,
		"channel": 1,
		"type": "channel",
		"noteNumber": 63,
		"velocity": 127,
		"subtype": "noteOn",
		"time": 12480,
		"track": 3
	},
	{
		"deltaTime": 0,
		"channel": 2,
		"type": "channel",
		"subtype": "noteOff",
		"noteNumber": 61,
		"velocity": 0,
		"time": 12480,
		"track": 4
	},
	{
		"deltaTime": 0,
		"channel": 2,
		"type": "channel",
		"subtype": "noteOff",
		"noteNumber": 58,
		"velocity": 0,
		"time": 12480,
		"track": 4
	},
	{
		"deltaTime": 0,
		"channel": 2,
		"type": "channel",
		"subtype": "noteOff",
		"noteNumber": 49,
		"velocity": 0,
		"time": 12480,
		"track": 4
	},
	{
		"deltaTime": 0,
		"channel": 2,
		"type": "channel",
		"subtype": "noteOff",
		"noteNumber": 42,
		"velocity": 0,
		"time": 12480,
		"track": 4
	},
	{
		"deltaTime": 0,
		"channel": 2,
		"type": "channel",
		"noteNumber": 47,
		"velocity": 127,
		"subtype": "noteOn",
		"time": 12480,
		"track": 4
	},
	{
		"deltaTime": 0,
		"channel": 2,
		"type": "channel",
		"noteNumber": 54,
		"velocity": 127,
		"subtype": "noteOn",
		"time": 12480,
		"track": 4
	},
	{
		"deltaTime": 0,
		"channel": 2,
		"type": "channel",
		"noteNumber": 59,
		"velocity": 127,
		"subtype": "noteOn",
		"time": 12480,
		"track": 4
	},
	{
		"deltaTime": 0,
		"channel": 2,
		"type": "channel",
		"noteNumber": 66,
		"velocity": 127,
		"subtype": "noteOn",
		"time": 12480,
		"track": 4
	},
	{
		"deltaTime": 60,
		"channel": 9,
		"type": "channel",
		"noteNumber": 42,
		"velocity": 127,
		"subtype": "noteOn",
		"time": 12480,
		"track": 5
	},
	{
		"deltaTime": 60,
		"channel": 9,
		"type": "channel",
		"subtype": "noteOff",
		"noteNumber": 42,
		"velocity": 0,
		"time": 12540,
		"track": 5
	},
	{
		"deltaTime": 60,
		"channel": 9,
		"type": "channel",
		"noteNumber": 42,
		"velocity": 127,
		"subtype": "noteOn",
		"time": 12600,
		"track": 5
	},
	{
		"deltaTime": 60,
		"channel": 9,
		"type": "channel",
		"subtype": "noteOff",
		"noteNumber": 42,
		"velocity": 0,
		"time": 12660,
		"track": 5
	},
	{
		"deltaTime": 0,
		"channel": 1,
		"type": "channel",
		"subtype": "noteOff",
		"noteNumber": 63,
		"velocity": 0,
		"time": 12720,
		"track": 3
	},
	{
		"deltaTime": 0,
		"channel": 1,
		"type": "channel",
		"noteNumber": 64,
		"velocity": 127,
		"subtype": "noteOn",
		"time": 12720,
		"track": 3
	},
	{
		"deltaTime": 0,
		"channel": 2,
		"type": "channel",
		"subtype": "noteOff",
		"noteNumber": 66,
		"velocity": 0,
		"time": 12720,
		"track": 4
	},
	{
		"deltaTime": 0,
		"channel": 2,
		"type": "channel",
		"subtype": "noteOff",
		"noteNumber": 59,
		"velocity": 0,
		"time": 12720,
		"track": 4
	},
	{
		"deltaTime": 0,
		"channel": 2,
		"type": "channel",
		"subtype": "noteOff",
		"noteNumber": 54,
		"velocity": 0,
		"time": 12720,
		"track": 4
	},
	{
		"deltaTime": 0,
		"channel": 2,
		"type": "channel",
		"subtype": "noteOff",
		"noteNumber": 47,
		"velocity": 0,
		"time": 12720,
		"track": 4
	},
	{
		"deltaTime": 0,
		"channel": 2,
		"type": "channel",
		"noteNumber": 54,
		"velocity": 127,
		"subtype": "noteOn",
		"time": 12720,
		"track": 4
	},
	{
		"deltaTime": 0,
		"channel": 2,
		"type": "channel",
		"noteNumber": 59,
		"velocity": 127,
		"subtype": "noteOn",
		"time": 12720,
		"track": 4
	},
	{
		"deltaTime": 0,
		"channel": 2,
		"type": "channel",
		"noteNumber": 63,
		"velocity": 127,
		"subtype": "noteOn",
		"time": 12720,
		"track": 4
	},
	{
		"deltaTime": 60,
		"channel": 9,
		"type": "channel",
		"noteNumber": 42,
		"velocity": 127,
		"subtype": "noteOn",
		"time": 12720,
		"track": 5
	},
	{
		"deltaTime": 60,
		"channel": 9,
		"type": "channel",
		"subtype": "noteOff",
		"noteNumber": 42,
		"velocity": 0,
		"time": 12780,
		"track": 5
	},
	{
		"deltaTime": 0,
		"channel": 1,
		"type": "channel",
		"subtype": "noteOff",
		"noteNumber": 64,
		"velocity": 0,
		"time": 12840,
		"track": 3
	},
	{
		"deltaTime": 0,
		"channel": 1,
		"type": "channel",
		"noteNumber": 63,
		"velocity": 127,
		"subtype": "noteOn",
		"time": 12840,
		"track": 3
	},
	{
		"deltaTime": 60,
		"channel": 9,
		"type": "channel",
		"noteNumber": 42,
		"velocity": 127,
		"subtype": "noteOn",
		"time": 12840,
		"track": 5
	},
	{
		"deltaTime": 60,
		"channel": 9,
		"type": "channel",
		"subtype": "noteOff",
		"noteNumber": 42,
		"velocity": 0,
		"time": 12900,
		"track": 5
	},
	{
		"deltaTime": 0,
		"channel": 2,
		"type": "channel",
		"subtype": "noteOff",
		"noteNumber": 63,
		"velocity": 0,
		"time": 12960,
		"track": 4
	},
	{
		"deltaTime": 0,
		"channel": 2,
		"type": "channel",
		"subtype": "noteOff",
		"noteNumber": 59,
		"velocity": 0,
		"time": 12960,
		"track": 4
	},
	{
		"deltaTime": 0,
		"channel": 2,
		"type": "channel",
		"subtype": "noteOff",
		"noteNumber": 54,
		"velocity": 0,
		"time": 12960,
		"track": 4
	},
	{
		"deltaTime": 0,
		"channel": 2,
		"type": "channel",
		"noteNumber": 46,
		"velocity": 127,
		"subtype": "noteOn",
		"time": 12960,
		"track": 4
	},
	{
		"deltaTime": 0,
		"channel": 2,
		"type": "channel",
		"noteNumber": 54,
		"velocity": 127,
		"subtype": "noteOn",
		"time": 12960,
		"track": 4
	},
	{
		"deltaTime": 0,
		"channel": 9,
		"type": "channel",
		"noteNumber": 42,
		"velocity": 127,
		"subtype": "noteOn",
		"time": 12960,
		"track": 5
	},
	{
		"deltaTime": 60,
		"channel": 9,
		"type": "channel",
		"noteNumber": 39,
		"velocity": 127,
		"subtype": "noteOn",
		"time": 12960,
		"track": 5
	},
	{
		"deltaTime": 0,
		"channel": 9,
		"type": "channel",
		"subtype": "noteOff",
		"noteNumber": 39,
		"velocity": 0,
		"time": 13020,
		"track": 5
	},
	{
		"deltaTime": 60,
		"channel": 9,
		"type": "channel",
		"subtype": "noteOff",
		"noteNumber": 42,
		"velocity": 0,
		"time": 13020,
		"track": 5
	},
	{
		"deltaTime": 0,
		"channel": 1,
		"type": "channel",
		"subtype": "noteOff",
		"noteNumber": 63,
		"velocity": 0,
		"time": 13080,
		"track": 3
	},
	{
		"deltaTime": 0,
		"channel": 1,
		"type": "channel",
		"noteNumber": 63,
		"velocity": 127,
		"subtype": "noteOn",
		"time": 13080,
		"track": 3
	},
	{
		"deltaTime": 60,
		"channel": 9,
		"type": "channel",
		"noteNumber": 42,
		"velocity": 127,
		"subtype": "noteOn",
		"time": 13080,
		"track": 5
	},
	{
		"deltaTime": 60,
		"channel": 9,
		"type": "channel",
		"subtype": "noteOff",
		"noteNumber": 42,
		"velocity": 0,
		"time": 13140,
		"track": 5
	},
	{
		"deltaTime": 0,
		"channel": 1,
		"type": "channel",
		"subtype": "noteOff",
		"noteNumber": 63,
		"velocity": 0,
		"time": 13200,
		"track": 3
	},
	{
		"deltaTime": 0,
		"channel": 1,
		"type": "channel",
		"noteNumber": 61,
		"velocity": 127,
		"subtype": "noteOn",
		"time": 13200,
		"track": 3
	},
	{
		"deltaTime": 0,
		"channel": 2,
		"type": "channel",
		"subtype": "noteOff",
		"noteNumber": 54,
		"velocity": 0,
		"time": 13200,
		"track": 4
	},
	{
		"deltaTime": 0,
		"channel": 2,
		"type": "channel",
		"subtype": "noteOff",
		"noteNumber": 46,
		"velocity": 0,
		"time": 13200,
		"track": 4
	},
	{
		"deltaTime": 0,
		"channel": 2,
		"type": "channel",
		"noteNumber": 54,
		"velocity": 127,
		"subtype": "noteOn",
		"time": 13200,
		"track": 4
	},
	{
		"deltaTime": 0,
		"channel": 2,
		"type": "channel",
		"noteNumber": 59,
		"velocity": 127,
		"subtype": "noteOn",
		"time": 13200,
		"track": 4
	},
	{
		"deltaTime": 0,
		"channel": 2,
		"type": "channel",
		"noteNumber": 63,
		"velocity": 127,
		"subtype": "noteOn",
		"time": 13200,
		"track": 4
	},
	{
		"deltaTime": 60,
		"channel": 9,
		"type": "channel",
		"noteNumber": 42,
		"velocity": 127,
		"subtype": "noteOn",
		"time": 13200,
		"track": 5
	},
	{
		"deltaTime": 60,
		"channel": 9,
		"type": "channel",
		"subtype": "noteOff",
		"noteNumber": 42,
		"velocity": 0,
		"time": 13260,
		"track": 5
	},
	{
		"deltaTime": 0,
		"channel": 1,
		"type": "channel",
		"subtype": "noteOff",
		"noteNumber": 61,
		"velocity": 0,
		"time": 13320,
		"track": 3
	},
	{
		"deltaTime": 0,
		"channel": 1,
		"type": "channel",
		"noteNumber": 63,
		"velocity": 127,
		"subtype": "noteOn",
		"time": 13320,
		"track": 3
	},
	{
		"deltaTime": 60,
		"channel": 9,
		"type": "channel",
		"noteNumber": 42,
		"velocity": 127,
		"subtype": "noteOn",
		"time": 13320,
		"track": 5
	},
	{
		"deltaTime": 60,
		"channel": 9,
		"type": "channel",
		"subtype": "noteOff",
		"noteNumber": 42,
		"velocity": 0,
		"time": 13380,
		"track": 5
	},
	{
		"deltaTime": 0,
		"channel": 2,
		"type": "channel",
		"subtype": "noteOff",
		"noteNumber": 63,
		"velocity": 0,
		"time": 13440,
		"track": 4
	},
	{
		"deltaTime": 0,
		"channel": 2,
		"type": "channel",
		"subtype": "noteOff",
		"noteNumber": 59,
		"velocity": 0,
		"time": 13440,
		"track": 4
	},
	{
		"deltaTime": 0,
		"channel": 2,
		"type": "channel",
		"subtype": "noteOff",
		"noteNumber": 54,
		"velocity": 0,
		"time": 13440,
		"track": 4
	},
	{
		"deltaTime": 0,
		"channel": 2,
		"type": "channel",
		"noteNumber": 44,
		"velocity": 127,
		"subtype": "noteOn",
		"time": 13440,
		"track": 4
	},
	{
		"deltaTime": 0,
		"channel": 2,
		"type": "channel",
		"noteNumber": 51,
		"velocity": 127,
		"subtype": "noteOn",
		"time": 13440,
		"track": 4
	},
	{
		"deltaTime": 0,
		"channel": 2,
		"type": "channel",
		"noteNumber": 56,
		"velocity": 127,
		"subtype": "noteOn",
		"time": 13440,
		"track": 4
	},
	{
		"deltaTime": 0,
		"channel": 2,
		"type": "channel",
		"noteNumber": 59,
		"velocity": 127,
		"subtype": "noteOn",
		"time": 13440,
		"track": 4
	},
	{
		"deltaTime": 0,
		"channel": 2,
		"type": "channel",
		"noteNumber": 63,
		"velocity": 127,
		"subtype": "noteOn",
		"time": 13440,
		"track": 4
	},
	{
		"deltaTime": 60,
		"channel": 9,
		"type": "channel",
		"noteNumber": 42,
		"velocity": 127,
		"subtype": "noteOn",
		"time": 13440,
		"track": 5
	},
	{
		"deltaTime": 60,
		"channel": 9,
		"type": "channel",
		"subtype": "noteOff",
		"noteNumber": 42,
		"velocity": 0,
		"time": 13500,
		"track": 5
	},
	{
		"deltaTime": 60,
		"channel": 9,
		"type": "channel",
		"noteNumber": 42,
		"velocity": 127,
		"subtype": "noteOn",
		"time": 13560,
		"track": 5
	},
	{
		"deltaTime": 60,
		"channel": 9,
		"type": "channel",
		"subtype": "noteOff",
		"noteNumber": 42,
		"velocity": 0,
		"time": 13620,
		"track": 5
	},
	{
		"deltaTime": 0,
		"channel": 1,
		"type": "channel",
		"subtype": "noteOff",
		"noteNumber": 63,
		"velocity": 0,
		"time": 13680,
		"track": 3
	},
	{
		"deltaTime": 60,
		"channel": 9,
		"type": "channel",
		"noteNumber": 42,
		"velocity": 127,
		"subtype": "noteOn",
		"time": 13680,
		"track": 5
	},
	{
		"deltaTime": 60,
		"channel": 9,
		"type": "channel",
		"subtype": "noteOff",
		"noteNumber": 42,
		"velocity": 0,
		"time": 13740,
		"track": 5
	},
	{
		"deltaTime": 0,
		"channel": 2,
		"type": "channel",
		"subtype": "noteOff",
		"noteNumber": 63,
		"velocity": 0,
		"time": 13800,
		"track": 4
	},
	{
		"deltaTime": 0,
		"channel": 2,
		"type": "channel",
		"subtype": "noteOff",
		"noteNumber": 59,
		"velocity": 0,
		"time": 13800,
		"track": 4
	},
	{
		"deltaTime": 0,
		"channel": 2,
		"type": "channel",
		"subtype": "noteOff",
		"noteNumber": 56,
		"velocity": 0,
		"time": 13800,
		"track": 4
	},
	{
		"deltaTime": 0,
		"channel": 2,
		"type": "channel",
		"subtype": "noteOff",
		"noteNumber": 51,
		"velocity": 0,
		"time": 13800,
		"track": 4
	},
	{
		"deltaTime": 0,
		"channel": 2,
		"type": "channel",
		"subtype": "noteOff",
		"noteNumber": 44,
		"velocity": 0,
		"time": 13800,
		"track": 4
	},
	{
		"deltaTime": 0,
		"channel": 2,
		"type": "channel",
		"noteNumber": 56,
		"velocity": 127,
		"subtype": "noteOn",
		"time": 13800,
		"track": 4
	},
	{
		"deltaTime": 0,
		"channel": 2,
		"type": "channel",
		"noteNumber": 59,
		"velocity": 127,
		"subtype": "noteOn",
		"time": 13800,
		"track": 4
	},
	{
		"deltaTime": 60,
		"channel": 9,
		"type": "channel",
		"noteNumber": 42,
		"velocity": 127,
		"subtype": "noteOn",
		"time": 13800,
		"track": 5
	},
	{
		"deltaTime": 60,
		"channel": 9,
		"type": "channel",
		"subtype": "noteOff",
		"noteNumber": 42,
		"velocity": 0,
		"time": 13860,
		"track": 5
	},
	{
		"deltaTime": 0,
		"channel": 1,
		"type": "channel",
		"noteNumber": 56,
		"velocity": 127,
		"subtype": "noteOn",
		"time": 13920,
		"track": 3
	},
	{
		"deltaTime": 0,
		"channel": 2,
		"type": "channel",
		"subtype": "noteOff",
		"noteNumber": 59,
		"velocity": 0,
		"time": 13920,
		"track": 4
	},
	{
		"deltaTime": 0,
		"channel": 2,
		"type": "channel",
		"subtype": "noteOff",
		"noteNumber": 56,
		"velocity": 0,
		"time": 13920,
		"track": 4
	},
	{
		"deltaTime": 0,
		"channel": 2,
		"type": "channel",
		"noteNumber": 51,
		"velocity": 127,
		"subtype": "noteOn",
		"time": 13920,
		"track": 4
	},
	{
		"deltaTime": 0,
		"channel": 2,
		"type": "channel",
		"noteNumber": 59,
		"velocity": 127,
		"subtype": "noteOn",
		"time": 13920,
		"track": 4
	},
	{
		"deltaTime": 0,
		"channel": 2,
		"type": "channel",
		"noteNumber": 63,
		"velocity": 127,
		"subtype": "noteOn",
		"time": 13920,
		"track": 4
	},
	{
		"deltaTime": 0,
		"channel": 9,
		"type": "channel",
		"noteNumber": 42,
		"velocity": 127,
		"subtype": "noteOn",
		"time": 13920,
		"track": 5
	},
	{
		"deltaTime": 60,
		"channel": 9,
		"type": "channel",
		"noteNumber": 39,
		"velocity": 127,
		"subtype": "noteOn",
		"time": 13920,
		"track": 5
	},
	{
		"deltaTime": 0,
		"channel": 9,
		"type": "channel",
		"subtype": "noteOff",
		"noteNumber": 39,
		"velocity": 0,
		"time": 13980,
		"track": 5
	},
	{
		"deltaTime": 60,
		"channel": 9,
		"type": "channel",
		"subtype": "noteOff",
		"noteNumber": 42,
		"velocity": 0,
		"time": 13980,
		"track": 5
	},
	{
		"deltaTime": 60,
		"channel": 9,
		"type": "channel",
		"noteNumber": 42,
		"velocity": 127,
		"subtype": "noteOn",
		"time": 14040,
		"track": 5
	},
	{
		"deltaTime": 60,
		"channel": 9,
		"type": "channel",
		"subtype": "noteOff",
		"noteNumber": 42,
		"velocity": 0,
		"time": 14100,
		"track": 5
	},
	{
		"deltaTime": 0,
		"channel": 1,
		"type": "channel",
		"subtype": "noteOff",
		"noteNumber": 56,
		"velocity": 0,
		"time": 14160,
		"track": 3
	},
	{
		"deltaTime": 0,
		"channel": 1,
		"type": "channel",
		"noteNumber": 63,
		"velocity": 127,
		"subtype": "noteOn",
		"time": 14160,
		"track": 3
	},
	{
		"deltaTime": 60,
		"channel": 9,
		"type": "channel",
		"noteNumber": 42,
		"velocity": 127,
		"subtype": "noteOn",
		"time": 14160,
		"track": 5
	},
	{
		"deltaTime": 60,
		"channel": 9,
		"type": "channel",
		"subtype": "noteOff",
		"noteNumber": 42,
		"velocity": 0,
		"time": 14220,
		"track": 5
	},
	{
		"deltaTime": 0,
		"channel": 1,
		"type": "channel",
		"subtype": "noteOff",
		"noteNumber": 63,
		"velocity": 0,
		"time": 14280,
		"track": 3
	},
	{
		"deltaTime": 0,
		"channel": 1,
		"type": "channel",
		"noteNumber": 61,
		"velocity": 127,
		"subtype": "noteOn",
		"time": 14280,
		"track": 3
	},
	{
		"deltaTime": 60,
		"channel": 9,
		"type": "channel",
		"noteNumber": 42,
		"velocity": 127,
		"subtype": "noteOn",
		"time": 14280,
		"track": 5
	},
	{
		"deltaTime": 60,
		"channel": 9,
		"type": "channel",
		"subtype": "noteOff",
		"noteNumber": 42,
		"velocity": 0,
		"time": 14340,
		"track": 5
	},
	{
		"deltaTime": 0,
		"channel": 2,
		"type": "channel",
		"subtype": "noteOff",
		"noteNumber": 63,
		"velocity": 0,
		"time": 14400,
		"track": 4
	},
	{
		"deltaTime": 0,
		"channel": 2,
		"type": "channel",
		"subtype": "noteOff",
		"noteNumber": 59,
		"velocity": 0,
		"time": 14400,
		"track": 4
	},
	{
		"deltaTime": 0,
		"channel": 2,
		"type": "channel",
		"subtype": "noteOff",
		"noteNumber": 51,
		"velocity": 0,
		"time": 14400,
		"track": 4
	},
	{
		"deltaTime": 0,
		"channel": 2,
		"type": "channel",
		"noteNumber": 40,
		"velocity": 127,
		"subtype": "noteOn",
		"time": 14400,
		"track": 4
	},
	{
		"deltaTime": 0,
		"channel": 2,
		"type": "channel",
		"noteNumber": 47,
		"velocity": 127,
		"subtype": "noteOn",
		"time": 14400,
		"track": 4
	},
	{
		"deltaTime": 0,
		"channel": 2,
		"type": "channel",
		"noteNumber": 52,
		"velocity": 127,
		"subtype": "noteOn",
		"time": 14400,
		"track": 4
	},
	{
		"deltaTime": 0,
		"channel": 2,
		"type": "channel",
		"noteNumber": 56,
		"velocity": 127,
		"subtype": "noteOn",
		"time": 14400,
		"track": 4
	},
	{
		"deltaTime": 60,
		"channel": 9,
		"type": "channel",
		"noteNumber": 42,
		"velocity": 127,
		"subtype": "noteOn",
		"time": 14400,
		"track": 5
	},
	{
		"deltaTime": 60,
		"channel": 9,
		"type": "channel",
		"subtype": "noteOff",
		"noteNumber": 42,
		"velocity": 0,
		"time": 14460,
		"track": 5
	},
	{
		"deltaTime": 60,
		"channel": 9,
		"type": "channel",
		"noteNumber": 42,
		"velocity": 127,
		"subtype": "noteOn",
		"time": 14520,
		"track": 5
	},
	{
		"deltaTime": 60,
		"channel": 9,
		"type": "channel",
		"subtype": "noteOff",
		"noteNumber": 42,
		"velocity": 0,
		"time": 14580,
		"track": 5
	},
	{
		"deltaTime": 60,
		"channel": 9,
		"type": "channel",
		"noteNumber": 42,
		"velocity": 127,
		"subtype": "noteOn",
		"time": 14640,
		"track": 5
	},
	{
		"deltaTime": 60,
		"channel": 9,
		"type": "channel",
		"subtype": "noteOff",
		"noteNumber": 42,
		"velocity": 0,
		"time": 14700,
		"track": 5
	},
	{
		"deltaTime": 0,
		"channel": 1,
		"type": "channel",
		"subtype": "noteOff",
		"noteNumber": 61,
		"velocity": 0,
		"time": 14760,
		"track": 3
	},
	{
		"deltaTime": 0,
		"channel": 1,
		"type": "channel",
		"noteNumber": 63,
		"velocity": 127,
		"subtype": "noteOn",
		"time": 14760,
		"track": 3
	},
	{
		"deltaTime": 0,
		"channel": 2,
		"type": "channel",
		"subtype": "noteOff",
		"noteNumber": 56,
		"velocity": 0,
		"time": 14760,
		"track": 4
	},
	{
		"deltaTime": 0,
		"channel": 2,
		"type": "channel",
		"subtype": "noteOff",
		"noteNumber": 52,
		"velocity": 0,
		"time": 14760,
		"track": 4
	},
	{
		"deltaTime": 0,
		"channel": 2,
		"type": "channel",
		"subtype": "noteOff",
		"noteNumber": 47,
		"velocity": 0,
		"time": 14760,
		"track": 4
	},
	{
		"deltaTime": 0,
		"channel": 2,
		"type": "channel",
		"subtype": "noteOff",
		"noteNumber": 40,
		"velocity": 0,
		"time": 14760,
		"track": 4
	},
	{
		"deltaTime": 0,
		"channel": 2,
		"type": "channel",
		"noteNumber": 52,
		"velocity": 127,
		"subtype": "noteOn",
		"time": 14760,
		"track": 4
	},
	{
		"deltaTime": 0,
		"channel": 2,
		"type": "channel",
		"noteNumber": 56,
		"velocity": 127,
		"subtype": "noteOn",
		"time": 14760,
		"track": 4
	},
	{
		"deltaTime": 60,
		"channel": 9,
		"type": "channel",
		"noteNumber": 42,
		"velocity": 127,
		"subtype": "noteOn",
		"time": 14760,
		"track": 5
	},
	{
		"deltaTime": 60,
		"channel": 9,
		"type": "channel",
		"subtype": "noteOff",
		"noteNumber": 42,
		"velocity": 0,
		"time": 14820,
		"track": 5
	},
	{
		"deltaTime": 0,
		"channel": 1,
		"type": "channel",
		"subtype": "noteOff",
		"noteNumber": 63,
		"velocity": 0,
		"time": 14880,
		"track": 3
	},
	{
		"deltaTime": 0,
		"channel": 1,
		"type": "channel",
		"noteNumber": 59,
		"velocity": 127,
		"subtype": "noteOn",
		"time": 14880,
		"track": 3
	},
	{
		"deltaTime": 0,
		"channel": 2,
		"type": "channel",
		"subtype": "noteOff",
		"noteNumber": 56,
		"velocity": 0,
		"time": 14880,
		"track": 4
	},
	{
		"deltaTime": 0,
		"channel": 2,
		"type": "channel",
		"subtype": "noteOff",
		"noteNumber": 52,
		"velocity": 0,
		"time": 14880,
		"track": 4
	},
	{
		"deltaTime": 0,
		"channel": 2,
		"type": "channel",
		"noteNumber": 40,
		"velocity": 127,
		"subtype": "noteOn",
		"time": 14880,
		"track": 4
	},
	{
		"deltaTime": 0,
		"channel": 2,
		"type": "channel",
		"noteNumber": 52,
		"velocity": 127,
		"subtype": "noteOn",
		"time": 14880,
		"track": 4
	},
	{
		"deltaTime": 0,
		"channel": 2,
		"type": "channel",
		"noteNumber": 56,
		"velocity": 127,
		"subtype": "noteOn",
		"time": 14880,
		"track": 4
	},
	{
		"deltaTime": 0,
		"channel": 2,
		"type": "channel",
		"noteNumber": 59,
		"velocity": 127,
		"subtype": "noteOn",
		"time": 14880,
		"track": 4
	},
	{
		"deltaTime": 0,
		"channel": 9,
		"type": "channel",
		"noteNumber": 42,
		"velocity": 127,
		"subtype": "noteOn",
		"time": 14880,
		"track": 5
	},
	{
		"deltaTime": 60,
		"channel": 9,
		"type": "channel",
		"noteNumber": 39,
		"velocity": 127,
		"subtype": "noteOn",
		"time": 14880,
		"track": 5
	},
	{
		"deltaTime": 0,
		"channel": 9,
		"type": "channel",
		"subtype": "noteOff",
		"noteNumber": 39,
		"velocity": 0,
		"time": 14940,
		"track": 5
	},
	{
		"deltaTime": 60,
		"channel": 9,
		"type": "channel",
		"subtype": "noteOff",
		"noteNumber": 42,
		"velocity": 0,
		"time": 14940,
		"track": 5
	},
	{
		"deltaTime": 60,
		"channel": 9,
		"type": "channel",
		"noteNumber": 42,
		"velocity": 127,
		"subtype": "noteOn",
		"time": 15000,
		"track": 5
	},
	{
		"deltaTime": 60,
		"channel": 9,
		"type": "channel",
		"subtype": "noteOff",
		"noteNumber": 42,
		"velocity": 0,
		"time": 15060,
		"track": 5
	},
	{
		"deltaTime": 0,
		"channel": 1,
		"type": "channel",
		"subtype": "noteOff",
		"noteNumber": 59,
		"velocity": 0,
		"time": 15120,
		"track": 3
	},
	{
		"deltaTime": 0,
		"channel": 1,
		"type": "channel",
		"noteNumber": 56,
		"velocity": 127,
		"subtype": "noteOn",
		"time": 15120,
		"track": 3
	},
	{
		"deltaTime": 60,
		"channel": 9,
		"type": "channel",
		"noteNumber": 42,
		"velocity": 127,
		"subtype": "noteOn",
		"time": 15120,
		"track": 5
	},
	{
		"deltaTime": 60,
		"channel": 9,
		"type": "channel",
		"subtype": "noteOff",
		"noteNumber": 42,
		"velocity": 0,
		"time": 15180,
		"track": 5
	},
	{
		"deltaTime": 0,
		"channel": 1,
		"type": "channel",
		"subtype": "noteOff",
		"noteNumber": 56,
		"velocity": 0,
		"time": 15240,
		"track": 3
	},
	{
		"deltaTime": 0,
		"channel": 1,
		"type": "channel",
		"noteNumber": 59,
		"velocity": 127,
		"subtype": "noteOn",
		"time": 15240,
		"track": 3
	},
	{
		"deltaTime": 60,
		"channel": 9,
		"type": "channel",
		"noteNumber": 42,
		"velocity": 127,
		"subtype": "noteOn",
		"time": 15240,
		"track": 5
	},
	{
		"deltaTime": 60,
		"channel": 9,
		"type": "channel",
		"subtype": "noteOff",
		"noteNumber": 42,
		"velocity": 0,
		"time": 15300,
		"track": 5
	},
	{
		"deltaTime": 0,
		"channel": 1,
		"type": "channel",
		"subtype": "noteOff",
		"noteNumber": 59,
		"velocity": 0,
		"time": 15360,
		"track": 3
	},
	{
		"deltaTime": 0,
		"channel": 1,
		"type": "channel",
		"noteNumber": 63,
		"velocity": 127,
		"subtype": "noteOn",
		"time": 15360,
		"track": 3
	},
	{
		"deltaTime": 0,
		"channel": 2,
		"type": "channel",
		"subtype": "noteOff",
		"noteNumber": 59,
		"velocity": 0,
		"time": 15360,
		"track": 4
	},
	{
		"deltaTime": 0,
		"channel": 2,
		"type": "channel",
		"subtype": "noteOff",
		"noteNumber": 56,
		"velocity": 0,
		"time": 15360,
		"track": 4
	},
	{
		"deltaTime": 0,
		"channel": 2,
		"type": "channel",
		"subtype": "noteOff",
		"noteNumber": 52,
		"velocity": 0,
		"time": 15360,
		"track": 4
	},
	{
		"deltaTime": 0,
		"channel": 2,
		"type": "channel",
		"subtype": "noteOff",
		"noteNumber": 40,
		"velocity": 0,
		"time": 15360,
		"track": 4
	},
	{
		"deltaTime": 0,
		"channel": 2,
		"type": "channel",
		"noteNumber": 41,
		"velocity": 127,
		"subtype": "noteOn",
		"time": 15360,
		"track": 4
	},
	{
		"deltaTime": 0,
		"channel": 2,
		"type": "channel",
		"noteNumber": 48,
		"velocity": 127,
		"subtype": "noteOn",
		"time": 15360,
		"track": 4
	},
	{
		"deltaTime": 0,
		"channel": 2,
		"type": "channel",
		"noteNumber": 53,
		"velocity": 127,
		"subtype": "noteOn",
		"time": 15360,
		"track": 4
	},
	{
		"deltaTime": 0,
		"channel": 2,
		"type": "channel",
		"noteNumber": 65,
		"velocity": 127,
		"subtype": "noteOn",
		"time": 15360,
		"track": 4
	},
	{
		"deltaTime": 60,
		"channel": 9,
		"type": "channel",
		"noteNumber": 42,
		"velocity": 127,
		"subtype": "noteOn",
		"time": 15360,
		"track": 5
	},
	{
		"deltaTime": 60,
		"channel": 9,
		"type": "channel",
		"subtype": "noteOff",
		"noteNumber": 42,
		"velocity": 0,
		"time": 15420,
		"track": 5
	},
	{
		"deltaTime": 60,
		"channel": 9,
		"type": "channel",
		"noteNumber": 42,
		"velocity": 127,
		"subtype": "noteOn",
		"time": 15480,
		"track": 5
	},
	{
		"deltaTime": 60,
		"channel": 9,
		"type": "channel",
		"subtype": "noteOff",
		"noteNumber": 42,
		"velocity": 0,
		"time": 15540,
		"track": 5
	},
	{
		"deltaTime": 0,
		"channel": 1,
		"type": "channel",
		"subtype": "noteOff",
		"noteNumber": 63,
		"velocity": 0,
		"time": 15600,
		"track": 3
	},
	{
		"deltaTime": 0,
		"channel": 1,
		"type": "channel",
		"noteNumber": 59,
		"velocity": 127,
		"subtype": "noteOn",
		"time": 15600,
		"track": 3
	},
	{
		"deltaTime": 60,
		"channel": 9,
		"type": "channel",
		"noteNumber": 42,
		"velocity": 127,
		"subtype": "noteOn",
		"time": 15600,
		"track": 5
	},
	{
		"deltaTime": 60,
		"channel": 9,
		"type": "channel",
		"subtype": "noteOff",
		"noteNumber": 42,
		"velocity": 0,
		"time": 15660,
		"track": 5
	},
	{
		"deltaTime": 0,
		"channel": 1,
		"type": "channel",
		"subtype": "noteOff",
		"noteNumber": 59,
		"velocity": 0,
		"time": 15720,
		"track": 3
	},
	{
		"deltaTime": 0,
		"channel": 1,
		"type": "channel",
		"noteNumber": 61,
		"velocity": 127,
		"subtype": "noteOn",
		"time": 15720,
		"track": 3
	},
	{
		"deltaTime": 60,
		"channel": 9,
		"type": "channel",
		"noteNumber": 42,
		"velocity": 127,
		"subtype": "noteOn",
		"time": 15720,
		"track": 5
	},
	{
		"deltaTime": 60,
		"channel": 9,
		"type": "channel",
		"subtype": "noteOff",
		"noteNumber": 42,
		"velocity": 0,
		"time": 15780,
		"track": 5
	},
	{
		"deltaTime": 0,
		"channel": 2,
		"type": "channel",
		"subtype": "noteOff",
		"noteNumber": 65,
		"velocity": 0,
		"time": 15840,
		"track": 4
	},
	{
		"deltaTime": 0,
		"channel": 2,
		"type": "channel",
		"subtype": "noteOff",
		"noteNumber": 53,
		"velocity": 0,
		"time": 15840,
		"track": 4
	},
	{
		"deltaTime": 0,
		"channel": 2,
		"type": "channel",
		"subtype": "noteOff",
		"noteNumber": 48,
		"velocity": 0,
		"time": 15840,
		"track": 4
	},
	{
		"deltaTime": 0,
		"channel": 2,
		"type": "channel",
		"subtype": "noteOff",
		"noteNumber": 41,
		"velocity": 0,
		"time": 15840,
		"track": 4
	},
	{
		"deltaTime": 0,
		"channel": 2,
		"type": "channel",
		"noteNumber": 41,
		"velocity": 127,
		"subtype": "noteOn",
		"time": 15840,
		"track": 4
	},
	{
		"deltaTime": 0,
		"channel": 2,
		"type": "channel",
		"noteNumber": 48,
		"velocity": 127,
		"subtype": "noteOn",
		"time": 15840,
		"track": 4
	},
	{
		"deltaTime": 0,
		"channel": 2,
		"type": "channel",
		"noteNumber": 53,
		"velocity": 127,
		"subtype": "noteOn",
		"time": 15840,
		"track": 4
	},
	{
		"deltaTime": 0,
		"channel": 2,
		"type": "channel",
		"noteNumber": 65,
		"velocity": 127,
		"subtype": "noteOn",
		"time": 15840,
		"track": 4
	},
	{
		"deltaTime": 0,
		"channel": 9,
		"type": "channel",
		"noteNumber": 42,
		"velocity": 127,
		"subtype": "noteOn",
		"time": 15840,
		"track": 5
	},
	{
		"deltaTime": 60,
		"channel": 9,
		"type": "channel",
		"noteNumber": 39,
		"velocity": 127,
		"subtype": "noteOn",
		"time": 15840,
		"track": 5
	},
	{
		"deltaTime": 0,
		"channel": 9,
		"type": "channel",
		"subtype": "noteOff",
		"noteNumber": 39,
		"velocity": 0,
		"time": 15900,
		"track": 5
	},
	{
		"deltaTime": 60,
		"channel": 9,
		"type": "channel",
		"subtype": "noteOff",
		"noteNumber": 42,
		"velocity": 0,
		"time": 15900,
		"track": 5
	},
	{
		"deltaTime": 60,
		"channel": 9,
		"type": "channel",
		"noteNumber": 42,
		"velocity": 127,
		"subtype": "noteOn",
		"time": 15960,
		"track": 5
	},
	{
		"deltaTime": 60,
		"channel": 9,
		"type": "channel",
		"subtype": "noteOff",
		"noteNumber": 42,
		"velocity": 0,
		"time": 16020,
		"track": 5
	},
	{
		"deltaTime": 60,
		"channel": 9,
		"type": "channel",
		"noteNumber": 42,
		"velocity": 127,
		"subtype": "noteOn",
		"time": 16080,
		"track": 5
	},
	{
		"deltaTime": 60,
		"channel": 9,
		"type": "channel",
		"subtype": "noteOff",
		"noteNumber": 42,
		"velocity": 0,
		"time": 16140,
		"track": 5
	},
	{
		"deltaTime": 0,
		"channel": 1,
		"type": "channel",
		"subtype": "noteOff",
		"noteNumber": 61,
		"velocity": 0,
		"time": 16200,
		"track": 3
	},
	{
		"deltaTime": 0,
		"channel": 1,
		"type": "channel",
		"noteNumber": 56,
		"velocity": 127,
		"subtype": "noteOn",
		"time": 16200,
		"track": 3
	},
	{
		"deltaTime": 60,
		"channel": 9,
		"type": "channel",
		"noteNumber": 42,
		"velocity": 127,
		"subtype": "noteOn",
		"time": 16200,
		"track": 5
	},
	{
		"deltaTime": 60,
		"channel": 9,
		"type": "channel",
		"subtype": "noteOff",
		"noteNumber": 42,
		"velocity": 0,
		"time": 16260,
		"track": 5
	},
	{
		"deltaTime": 0,
		"channel": 1,
		"type": "channel",
		"subtype": "noteOff",
		"noteNumber": 56,
		"velocity": 0,
		"time": 16320,
		"track": 3
	},
	{
		"deltaTime": 0,
		"channel": 1,
		"type": "channel",
		"noteNumber": 63,
		"velocity": 127,
		"subtype": "noteOn",
		"time": 16320,
		"track": 3
	},
	{
		"deltaTime": 0,
		"channel": 2,
		"type": "channel",
		"subtype": "noteOff",
		"noteNumber": 65,
		"velocity": 0,
		"time": 16320,
		"track": 4
	},
	{
		"deltaTime": 0,
		"channel": 2,
		"type": "channel",
		"subtype": "noteOff",
		"noteNumber": 53,
		"velocity": 0,
		"time": 16320,
		"track": 4
	},
	{
		"deltaTime": 0,
		"channel": 2,
		"type": "channel",
		"subtype": "noteOff",
		"noteNumber": 48,
		"velocity": 0,
		"time": 16320,
		"track": 4
	},
	{
		"deltaTime": 0,
		"channel": 2,
		"type": "channel",
		"subtype": "noteOff",
		"noteNumber": 41,
		"velocity": 0,
		"time": 16320,
		"track": 4
	},
	{
		"deltaTime": 0,
		"channel": 2,
		"type": "channel",
		"noteNumber": 40,
		"velocity": 127,
		"subtype": "noteOn",
		"time": 16320,
		"track": 4
	},
	{
		"deltaTime": 0,
		"channel": 2,
		"type": "channel",
		"noteNumber": 47,
		"velocity": 127,
		"subtype": "noteOn",
		"time": 16320,
		"track": 4
	},
	{
		"deltaTime": 0,
		"channel": 2,
		"type": "channel",
		"noteNumber": 52,
		"velocity": 127,
		"subtype": "noteOn",
		"time": 16320,
		"track": 4
	},
	{
		"deltaTime": 0,
		"channel": 2,
		"type": "channel",
		"noteNumber": 56,
		"velocity": 127,
		"subtype": "noteOn",
		"time": 16320,
		"track": 4
	},
	{
		"deltaTime": 60,
		"channel": 9,
		"type": "channel",
		"noteNumber": 42,
		"velocity": 127,
		"subtype": "noteOn",
		"time": 16320,
		"track": 5
	},
	{
		"deltaTime": 60,
		"channel": 9,
		"type": "channel",
		"subtype": "noteOff",
		"noteNumber": 42,
		"velocity": 0,
		"time": 16380,
		"track": 5
	},
	{
		"deltaTime": 60,
		"channel": 9,
		"type": "channel",
		"noteNumber": 42,
		"velocity": 127,
		"subtype": "noteOn",
		"time": 16440,
		"track": 5
	},
	{
		"deltaTime": 60,
		"channel": 9,
		"type": "channel",
		"subtype": "noteOff",
		"noteNumber": 42,
		"velocity": 0,
		"time": 16500,
		"track": 5
	},
	{
		"deltaTime": 0,
		"channel": 1,
		"type": "channel",
		"subtype": "noteOff",
		"noteNumber": 63,
		"velocity": 0,
		"time": 16560,
		"track": 3
	},
	{
		"deltaTime": 0,
		"channel": 1,
		"type": "channel",
		"noteNumber": 59,
		"velocity": 127,
		"subtype": "noteOn",
		"time": 16560,
		"track": 3
	},
	{
		"deltaTime": 60,
		"channel": 9,
		"type": "channel",
		"noteNumber": 42,
		"velocity": 127,
		"subtype": "noteOn",
		"time": 16560,
		"track": 5
	},
	{
		"deltaTime": 60,
		"channel": 9,
		"type": "channel",
		"subtype": "noteOff",
		"noteNumber": 42,
		"velocity": 0,
		"time": 16620,
		"track": 5
	},
	{
		"deltaTime": 0,
		"channel": 2,
		"type": "channel",
		"subtype": "noteOff",
		"noteNumber": 56,
		"velocity": 0,
		"time": 16680,
		"track": 4
	},
	{
		"deltaTime": 0,
		"channel": 2,
		"type": "channel",
		"subtype": "noteOff",
		"noteNumber": 52,
		"velocity": 0,
		"time": 16680,
		"track": 4
	},
	{
		"deltaTime": 0,
		"channel": 2,
		"type": "channel",
		"subtype": "noteOff",
		"noteNumber": 47,
		"velocity": 0,
		"time": 16680,
		"track": 4
	},
	{
		"deltaTime": 0,
		"channel": 2,
		"type": "channel",
		"subtype": "noteOff",
		"noteNumber": 40,
		"velocity": 0,
		"time": 16680,
		"track": 4
	},
	{
		"deltaTime": 0,
		"channel": 2,
		"type": "channel",
		"noteNumber": 52,
		"velocity": 127,
		"subtype": "noteOn",
		"time": 16680,
		"track": 4
	},
	{
		"deltaTime": 0,
		"channel": 2,
		"type": "channel",
		"noteNumber": 56,
		"velocity": 127,
		"subtype": "noteOn",
		"time": 16680,
		"track": 4
	},
	{
		"deltaTime": 60,
		"channel": 9,
		"type": "channel",
		"noteNumber": 42,
		"velocity": 127,
		"subtype": "noteOn",
		"time": 16680,
		"track": 5
	},
	{
		"deltaTime": 60,
		"channel": 9,
		"type": "channel",
		"subtype": "noteOff",
		"noteNumber": 42,
		"velocity": 0,
		"time": 16740,
		"track": 5
	},
	{
		"deltaTime": 0,
		"channel": 1,
		"type": "channel",
		"subtype": "noteOff",
		"noteNumber": 59,
		"velocity": 0,
		"time": 16800,
		"track": 3
	},
	{
		"deltaTime": 0,
		"channel": 1,
		"type": "channel",
		"noteNumber": 61,
		"velocity": 127,
		"subtype": "noteOn",
		"time": 16800,
		"track": 3
	},
	{
		"deltaTime": 0,
		"channel": 2,
		"type": "channel",
		"subtype": "noteOff",
		"noteNumber": 56,
		"velocity": 0,
		"time": 16800,
		"track": 4
	},
	{
		"deltaTime": 0,
		"channel": 2,
		"type": "channel",
		"subtype": "noteOff",
		"noteNumber": 52,
		"velocity": 0,
		"time": 16800,
		"track": 4
	},
	{
		"deltaTime": 0,
		"channel": 2,
		"type": "channel",
		"noteNumber": 40,
		"velocity": 127,
		"subtype": "noteOn",
		"time": 16800,
		"track": 4
	},
	{
		"deltaTime": 0,
		"channel": 2,
		"type": "channel",
		"noteNumber": 52,
		"velocity": 127,
		"subtype": "noteOn",
		"time": 16800,
		"track": 4
	},
	{
		"deltaTime": 0,
		"channel": 2,
		"type": "channel",
		"noteNumber": 56,
		"velocity": 127,
		"subtype": "noteOn",
		"time": 16800,
		"track": 4
	},
	{
		"deltaTime": 0,
		"channel": 2,
		"type": "channel",
		"noteNumber": 59,
		"velocity": 127,
		"subtype": "noteOn",
		"time": 16800,
		"track": 4
	},
	{
		"deltaTime": 0,
		"channel": 9,
		"type": "channel",
		"noteNumber": 42,
		"velocity": 127,
		"subtype": "noteOn",
		"time": 16800,
		"track": 5
	},
	{
		"deltaTime": 60,
		"channel": 9,
		"type": "channel",
		"noteNumber": 39,
		"velocity": 127,
		"subtype": "noteOn",
		"time": 16800,
		"track": 5
	},
	{
		"deltaTime": 0,
		"channel": 9,
		"type": "channel",
		"subtype": "noteOff",
		"noteNumber": 39,
		"velocity": 0,
		"time": 16860,
		"track": 5
	},
	{
		"deltaTime": 60,
		"channel": 9,
		"type": "channel",
		"subtype": "noteOff",
		"noteNumber": 42,
		"velocity": 0,
		"time": 16860,
		"track": 5
	},
	{
		"deltaTime": 60,
		"channel": 9,
		"type": "channel",
		"noteNumber": 42,
		"velocity": 127,
		"subtype": "noteOn",
		"time": 16920,
		"track": 5
	},
	{
		"deltaTime": 60,
		"channel": 9,
		"type": "channel",
		"subtype": "noteOff",
		"noteNumber": 42,
		"velocity": 0,
		"time": 16980,
		"track": 5
	},
	{
		"deltaTime": 0,
		"channel": 1,
		"type": "channel",
		"subtype": "noteOff",
		"noteNumber": 61,
		"velocity": 0,
		"time": 17040,
		"track": 3
	},
	{
		"deltaTime": 0,
		"channel": 1,
		"type": "channel",
		"noteNumber": 59,
		"velocity": 127,
		"subtype": "noteOn",
		"time": 17040,
		"track": 3
	},
	{
		"deltaTime": 0,
		"channel": 2,
		"type": "channel",
		"subtype": "noteOff",
		"noteNumber": 59,
		"velocity": 0,
		"time": 17040,
		"track": 4
	},
	{
		"deltaTime": 0,
		"channel": 2,
		"type": "channel",
		"subtype": "noteOff",
		"noteNumber": 56,
		"velocity": 0,
		"time": 17040,
		"track": 4
	},
	{
		"deltaTime": 0,
		"channel": 2,
		"type": "channel",
		"subtype": "noteOff",
		"noteNumber": 52,
		"velocity": 0,
		"time": 17040,
		"track": 4
	},
	{
		"deltaTime": 0,
		"channel": 2,
		"type": "channel",
		"subtype": "noteOff",
		"noteNumber": 40,
		"velocity": 0,
		"time": 17040,
		"track": 4
	},
	{
		"deltaTime": 0,
		"channel": 2,
		"type": "channel",
		"noteNumber": 47,
		"velocity": 127,
		"subtype": "noteOn",
		"time": 17040,
		"track": 4
	},
	{
		"deltaTime": 0,
		"channel": 2,
		"type": "channel",
		"noteNumber": 52,
		"velocity": 127,
		"subtype": "noteOn",
		"time": 17040,
		"track": 4
	},
	{
		"deltaTime": 0,
		"channel": 2,
		"type": "channel",
		"noteNumber": 56,
		"velocity": 127,
		"subtype": "noteOn",
		"time": 17040,
		"track": 4
	},
	{
		"deltaTime": 60,
		"channel": 9,
		"type": "channel",
		"noteNumber": 42,
		"velocity": 127,
		"subtype": "noteOn",
		"time": 17040,
		"track": 5
	},
	{
		"deltaTime": 60,
		"channel": 9,
		"type": "channel",
		"subtype": "noteOff",
		"noteNumber": 42,
		"velocity": 0,
		"time": 17100,
		"track": 5
	},
	{
		"deltaTime": 60,
		"channel": 9,
		"type": "channel",
		"noteNumber": 42,
		"velocity": 127,
		"subtype": "noteOn",
		"time": 17160,
		"track": 5
	},
	{
		"deltaTime": 60,
		"channel": 9,
		"type": "channel",
		"subtype": "noteOff",
		"noteNumber": 42,
		"velocity": 0,
		"time": 17220,
		"track": 5
	},
	{
		"deltaTime": 0,
		"channel": 0,
		"type": "channel",
		"noteNumber": 32,
		"velocity": 127,
		"subtype": "noteOn",
		"time": 17280,
		"track": 2
	},
	{
		"deltaTime": 0,
		"channel": 1,
		"type": "channel",
		"subtype": "noteOff",
		"noteNumber": 59,
		"velocity": 0,
		"time": 17280,
		"track": 3
	},
	{
		"deltaTime": 0,
		"channel": 2,
		"type": "channel",
		"subtype": "noteOff",
		"noteNumber": 56,
		"velocity": 0,
		"time": 17280,
		"track": 4
	},
	{
		"deltaTime": 0,
		"channel": 2,
		"type": "channel",
		"subtype": "noteOff",
		"noteNumber": 52,
		"velocity": 0,
		"time": 17280,
		"track": 4
	},
	{
		"deltaTime": 0,
		"channel": 2,
		"type": "channel",
		"subtype": "noteOff",
		"noteNumber": 47,
		"velocity": 0,
		"time": 17280,
		"track": 4
	},
	{
		"deltaTime": 0,
		"channel": 2,
		"type": "channel",
		"noteNumber": 44,
		"velocity": 127,
		"subtype": "noteOn",
		"time": 17280,
		"track": 4
	},
	{
		"deltaTime": 0,
		"channel": 2,
		"type": "channel",
		"noteNumber": 51,
		"velocity": 127,
		"subtype": "noteOn",
		"time": 17280,
		"track": 4
	},
	{
		"deltaTime": 0,
		"channel": 2,
		"type": "channel",
		"noteNumber": 56,
		"velocity": 127,
		"subtype": "noteOn",
		"time": 17280,
		"track": 4
	},
	{
		"deltaTime": 0,
		"channel": 2,
		"type": "channel",
		"noteNumber": 59,
		"velocity": 127,
		"subtype": "noteOn",
		"time": 17280,
		"track": 4
	},
	{
		"deltaTime": 0,
		"channel": 2,
		"type": "channel",
		"noteNumber": 63,
		"velocity": 127,
		"subtype": "noteOn",
		"time": 17280,
		"track": 4
	},
	{
		"deltaTime": 0,
		"channel": 9,
		"type": "channel",
		"noteNumber": 42,
		"velocity": 127,
		"subtype": "noteOn",
		"time": 17280,
		"track": 5
	},
	{
		"deltaTime": 0,
		"channel": 9,
		"type": "channel",
		"noteNumber": 35,
		"velocity": 127,
		"subtype": "noteOn",
		"time": 17280,
		"track": 5
	},
	{
		"deltaTime": 60,
		"channel": 9,
		"type": "channel",
		"noteNumber": 36,
		"velocity": 127,
		"subtype": "noteOn",
		"time": 17280,
		"track": 5
	},
	{
		"deltaTime": 0,
		"channel": 9,
		"type": "channel",
		"subtype": "noteOff",
		"noteNumber": 36,
		"velocity": 0,
		"time": 17340,
		"track": 5
	},
	{
		"deltaTime": 0,
		"channel": 9,
		"type": "channel",
		"subtype": "noteOff",
		"noteNumber": 35,
		"velocity": 0,
		"time": 17340,
		"track": 5
	},
	{
		"deltaTime": 60,
		"channel": 9,
		"type": "channel",
		"subtype": "noteOff",
		"noteNumber": 42,
		"velocity": 0,
		"time": 17340,
		"track": 5
	},
	{
		"deltaTime": 60,
		"channel": 9,
		"type": "channel",
		"noteNumber": 42,
		"velocity": 127,
		"subtype": "noteOn",
		"time": 17400,
		"track": 5
	},
	{
		"deltaTime": 60,
		"channel": 9,
		"type": "channel",
		"subtype": "noteOff",
		"noteNumber": 42,
		"velocity": 0,
		"time": 17460,
		"track": 5
	},
	{
		"deltaTime": 0,
		"channel": 9,
		"type": "channel",
		"noteNumber": 42,
		"velocity": 127,
		"subtype": "noteOn",
		"time": 17520,
		"track": 5
	},
	{
		"deltaTime": 0,
		"channel": 9,
		"type": "channel",
		"noteNumber": 36,
		"velocity": 127,
		"subtype": "noteOn",
		"time": 17520,
		"track": 5
	},
	{
		"deltaTime": 60,
		"channel": 9,
		"type": "channel",
		"noteNumber": 35,
		"velocity": 127,
		"subtype": "noteOn",
		"time": 17520,
		"track": 5
	},
	{
		"deltaTime": 0,
		"channel": 9,
		"type": "channel",
		"subtype": "noteOff",
		"noteNumber": 35,
		"velocity": 0,
		"time": 17580,
		"track": 5
	},
	{
		"deltaTime": 0,
		"channel": 9,
		"type": "channel",
		"subtype": "noteOff",
		"noteNumber": 36,
		"velocity": 0,
		"time": 17580,
		"track": 5
	},
	{
		"deltaTime": 60,
		"channel": 9,
		"type": "channel",
		"subtype": "noteOff",
		"noteNumber": 42,
		"velocity": 0,
		"time": 17580,
		"track": 5
	},
	{
		"deltaTime": 0,
		"channel": 1,
		"type": "channel",
		"noteNumber": 56,
		"velocity": 127,
		"subtype": "noteOn",
		"time": 17640,
		"track": 3
	},
	{
		"deltaTime": 0,
		"channel": 2,
		"type": "channel",
		"subtype": "noteOff",
		"noteNumber": 63,
		"velocity": 0,
		"time": 17640,
		"track": 4
	},
	{
		"deltaTime": 0,
		"channel": 2,
		"type": "channel",
		"subtype": "noteOff",
		"noteNumber": 59,
		"velocity": 0,
		"time": 17640,
		"track": 4
	},
	{
		"deltaTime": 0,
		"channel": 2,
		"type": "channel",
		"subtype": "noteOff",
		"noteNumber": 56,
		"velocity": 0,
		"time": 17640,
		"track": 4
	},
	{
		"deltaTime": 0,
		"channel": 2,
		"type": "channel",
		"subtype": "noteOff",
		"noteNumber": 51,
		"velocity": 0,
		"time": 17640,
		"track": 4
	},
	{
		"deltaTime": 0,
		"channel": 2,
		"type": "channel",
		"subtype": "noteOff",
		"noteNumber": 44,
		"velocity": 0,
		"time": 17640,
		"track": 4
	},
	{
		"deltaTime": 0,
		"channel": 2,
		"type": "channel",
		"noteNumber": 56,
		"velocity": 127,
		"subtype": "noteOn",
		"time": 17640,
		"track": 4
	},
	{
		"deltaTime": 0,
		"channel": 2,
		"type": "channel",
		"noteNumber": 59,
		"velocity": 127,
		"subtype": "noteOn",
		"time": 17640,
		"track": 4
	},
	{
		"deltaTime": 60,
		"channel": 9,
		"type": "channel",
		"noteNumber": 42,
		"velocity": 127,
		"subtype": "noteOn",
		"time": 17640,
		"track": 5
	},
	{
		"deltaTime": 60,
		"channel": 9,
		"type": "channel",
		"subtype": "noteOff",
		"noteNumber": 42,
		"velocity": 0,
		"time": 17700,
		"track": 5
	},
	{
		"deltaTime": 0,
		"channel": 1,
		"type": "channel",
		"subtype": "noteOff",
		"noteNumber": 56,
		"velocity": 0,
		"time": 17760,
		"track": 3
	},
	{
		"deltaTime": 0,
		"channel": 1,
		"type": "channel",
		"noteNumber": 63,
		"velocity": 127,
		"subtype": "noteOn",
		"time": 17760,
		"track": 3
	},
	{
		"deltaTime": 0,
		"channel": 2,
		"type": "channel",
		"subtype": "noteOff",
		"noteNumber": 59,
		"velocity": 0,
		"time": 17760,
		"track": 4
	},
	{
		"deltaTime": 0,
		"channel": 2,
		"type": "channel",
		"subtype": "noteOff",
		"noteNumber": 56,
		"velocity": 0,
		"time": 17760,
		"track": 4
	},
	{
		"deltaTime": 0,
		"channel": 2,
		"type": "channel",
		"noteNumber": 51,
		"velocity": 127,
		"subtype": "noteOn",
		"time": 17760,
		"track": 4
	},
	{
		"deltaTime": 0,
		"channel": 2,
		"type": "channel",
		"noteNumber": 59,
		"velocity": 127,
		"subtype": "noteOn",
		"time": 17760,
		"track": 4
	},
	{
		"deltaTime": 0,
		"channel": 2,
		"type": "channel",
		"noteNumber": 63,
		"velocity": 127,
		"subtype": "noteOn",
		"time": 17760,
		"track": 4
	},
	{
		"deltaTime": 0,
		"channel": 9,
		"type": "channel",
		"noteNumber": 42,
		"velocity": 127,
		"subtype": "noteOn",
		"time": 17760,
		"track": 5
	},
	{
		"deltaTime": 0,
		"channel": 9,
		"type": "channel",
		"noteNumber": 38,
		"velocity": 127,
		"subtype": "noteOn",
		"time": 17760,
		"track": 5
	},
	{
		"deltaTime": 60,
		"channel": 9,
		"type": "channel",
		"noteNumber": 40,
		"velocity": 127,
		"subtype": "noteOn",
		"time": 17760,
		"track": 5
	},
	{
		"deltaTime": 0,
		"channel": 9,
		"type": "channel",
		"subtype": "noteOff",
		"noteNumber": 40,
		"velocity": 0,
		"time": 17820,
		"track": 5
	},
	{
		"deltaTime": 0,
		"channel": 9,
		"type": "channel",
		"subtype": "noteOff",
		"noteNumber": 38,
		"velocity": 0,
		"time": 17820,
		"track": 5
	},
	{
		"deltaTime": 60,
		"channel": 9,
		"type": "channel",
		"subtype": "noteOff",
		"noteNumber": 42,
		"velocity": 0,
		"time": 17820,
		"track": 5
	},
	{
		"deltaTime": 60,
		"channel": 9,
		"type": "channel",
		"noteNumber": 42,
		"velocity": 127,
		"subtype": "noteOn",
		"time": 17880,
		"track": 5
	},
	{
		"deltaTime": 60,
		"channel": 9,
		"type": "channel",
		"subtype": "noteOff",
		"noteNumber": 42,
		"velocity": 0,
		"time": 17940,
		"track": 5
	},
	{
		"deltaTime": 0,
		"channel": 1,
		"type": "channel",
		"subtype": "noteOff",
		"noteNumber": 63,
		"velocity": 0,
		"time": 18000,
		"track": 3
	},
	{
		"deltaTime": 0,
		"channel": 1,
		"type": "channel",
		"noteNumber": 63,
		"velocity": 127,
		"subtype": "noteOn",
		"time": 18000,
		"track": 3
	},
	{
		"deltaTime": 60,
		"channel": 9,
		"type": "channel",
		"noteNumber": 42,
		"velocity": 127,
		"subtype": "noteOn",
		"time": 18000,
		"track": 5
	},
	{
		"deltaTime": 60,
		"channel": 9,
		"type": "channel",
		"subtype": "noteOff",
		"noteNumber": 42,
		"velocity": 0,
		"time": 18060,
		"track": 5
	},
	{
		"deltaTime": 0,
		"channel": 9,
		"type": "channel",
		"noteNumber": 42,
		"velocity": 127,
		"subtype": "noteOn",
		"time": 18120,
		"track": 5
	},
	{
		"deltaTime": 0,
		"channel": 9,
		"type": "channel",
		"noteNumber": 36,
		"velocity": 127,
		"subtype": "noteOn",
		"time": 18120,
		"track": 5
	},
	{
		"deltaTime": 60,
		"channel": 9,
		"type": "channel",
		"noteNumber": 35,
		"velocity": 127,
		"subtype": "noteOn",
		"time": 18120,
		"track": 5
	},
	{
		"deltaTime": 0,
		"channel": 9,
		"type": "channel",
		"subtype": "noteOff",
		"noteNumber": 35,
		"velocity": 0,
		"time": 18180,
		"track": 5
	},
	{
		"deltaTime": 0,
		"channel": 9,
		"type": "channel",
		"subtype": "noteOff",
		"noteNumber": 36,
		"velocity": 0,
		"time": 18180,
		"track": 5
	},
	{
		"deltaTime": 60,
		"channel": 9,
		"type": "channel",
		"subtype": "noteOff",
		"noteNumber": 42,
		"velocity": 0,
		"time": 18180,
		"track": 5
	},
	{
		"deltaTime": 0,
		"channel": 0,
		"type": "channel",
		"subtype": "noteOff",
		"noteNumber": 32,
		"velocity": 0,
		"time": 18240,
		"track": 2
	},
	{
		"deltaTime": 0,
		"channel": 0,
		"type": "channel",
		"noteNumber": 40,
		"velocity": 127,
		"subtype": "noteOn",
		"time": 18240,
		"track": 2
	},
	{
		"deltaTime": 0,
		"channel": 1,
		"type": "channel",
		"subtype": "noteOff",
		"noteNumber": 63,
		"velocity": 0,
		"time": 18240,
		"track": 3
	},
	{
		"deltaTime": 0,
		"channel": 1,
		"type": "channel",
		"noteNumber": 63,
		"velocity": 127,
		"subtype": "noteOn",
		"time": 18240,
		"track": 3
	},
	{
		"deltaTime": 0,
		"channel": 2,
		"type": "channel",
		"subtype": "noteOff",
		"noteNumber": 63,
		"velocity": 0,
		"time": 18240,
		"track": 4
	},
	{
		"deltaTime": 0,
		"channel": 2,
		"type": "channel",
		"subtype": "noteOff",
		"noteNumber": 59,
		"velocity": 0,
		"time": 18240,
		"track": 4
	},
	{
		"deltaTime": 0,
		"channel": 2,
		"type": "channel",
		"subtype": "noteOff",
		"noteNumber": 51,
		"velocity": 0,
		"time": 18240,
		"track": 4
	},
	{
		"deltaTime": 0,
		"channel": 2,
		"type": "channel",
		"noteNumber": 40,
		"velocity": 127,
		"subtype": "noteOn",
		"time": 18240,
		"track": 4
	},
	{
		"deltaTime": 0,
		"channel": 2,
		"type": "channel",
		"noteNumber": 47,
		"velocity": 127,
		"subtype": "noteOn",
		"time": 18240,
		"track": 4
	},
	{
		"deltaTime": 0,
		"channel": 2,
		"type": "channel",
		"noteNumber": 52,
		"velocity": 127,
		"subtype": "noteOn",
		"time": 18240,
		"track": 4
	},
	{
		"deltaTime": 0,
		"channel": 2,
		"type": "channel",
		"noteNumber": 56,
		"velocity": 127,
		"subtype": "noteOn",
		"time": 18240,
		"track": 4
	},
	{
		"deltaTime": 60,
		"channel": 9,
		"type": "channel",
		"noteNumber": 42,
		"velocity": 127,
		"subtype": "noteOn",
		"time": 18240,
		"track": 5
	},
	{
		"deltaTime": 60,
		"channel": 9,
		"type": "channel",
		"subtype": "noteOff",
		"noteNumber": 42,
		"velocity": 0,
		"time": 18300,
		"track": 5
	},
	{
		"deltaTime": 60,
		"channel": 9,
		"type": "channel",
		"noteNumber": 42,
		"velocity": 127,
		"subtype": "noteOn",
		"time": 18360,
		"track": 5
	},
	{
		"deltaTime": 60,
		"channel": 9,
		"type": "channel",
		"subtype": "noteOff",
		"noteNumber": 42,
		"velocity": 0,
		"time": 18420,
		"track": 5
	},
	{
		"deltaTime": 0,
		"channel": 1,
		"type": "channel",
		"subtype": "noteOff",
		"noteNumber": 63,
		"velocity": 0,
		"time": 18480,
		"track": 3
	},
	{
		"deltaTime": 0,
		"channel": 1,
		"type": "channel",
		"noteNumber": 64,
		"velocity": 127,
		"subtype": "noteOn",
		"time": 18480,
		"track": 3
	},
	{
		"deltaTime": 0,
		"channel": 9,
		"type": "channel",
		"noteNumber": 42,
		"velocity": 127,
		"subtype": "noteOn",
		"time": 18480,
		"track": 5
	},
	{
		"deltaTime": 0,
		"channel": 9,
		"type": "channel",
		"noteNumber": 36,
		"velocity": 127,
		"subtype": "noteOn",
		"time": 18480,
		"track": 5
	},
	{
		"deltaTime": 60,
		"channel": 9,
		"type": "channel",
		"noteNumber": 35,
		"velocity": 127,
		"subtype": "noteOn",
		"time": 18480,
		"track": 5
	},
	{
		"deltaTime": 0,
		"channel": 9,
		"type": "channel",
		"subtype": "noteOff",
		"noteNumber": 35,
		"velocity": 0,
		"time": 18540,
		"track": 5
	},
	{
		"deltaTime": 0,
		"channel": 9,
		"type": "channel",
		"subtype": "noteOff",
		"noteNumber": 36,
		"velocity": 0,
		"time": 18540,
		"track": 5
	},
	{
		"deltaTime": 60,
		"channel": 9,
		"type": "channel",
		"subtype": "noteOff",
		"noteNumber": 42,
		"velocity": 0,
		"time": 18540,
		"track": 5
	},
	{
		"deltaTime": 0,
		"channel": 1,
		"type": "channel",
		"subtype": "noteOff",
		"noteNumber": 64,
		"velocity": 0,
		"time": 18600,
		"track": 3
	},
	{
		"deltaTime": 0,
		"channel": 1,
		"type": "channel",
		"noteNumber": 61,
		"velocity": 127,
		"subtype": "noteOn",
		"time": 18600,
		"track": 3
	},
	{
		"deltaTime": 0,
		"channel": 2,
		"type": "channel",
		"subtype": "noteOff",
		"noteNumber": 56,
		"velocity": 0,
		"time": 18600,
		"track": 4
	},
	{
		"deltaTime": 0,
		"channel": 2,
		"type": "channel",
		"subtype": "noteOff",
		"noteNumber": 52,
		"velocity": 0,
		"time": 18600,
		"track": 4
	},
	{
		"deltaTime": 0,
		"channel": 2,
		"type": "channel",
		"subtype": "noteOff",
		"noteNumber": 47,
		"velocity": 0,
		"time": 18600,
		"track": 4
	},
	{
		"deltaTime": 0,
		"channel": 2,
		"type": "channel",
		"subtype": "noteOff",
		"noteNumber": 40,
		"velocity": 0,
		"time": 18600,
		"track": 4
	},
	{
		"deltaTime": 0,
		"channel": 2,
		"type": "channel",
		"noteNumber": 52,
		"velocity": 127,
		"subtype": "noteOn",
		"time": 18600,
		"track": 4
	},
	{
		"deltaTime": 0,
		"channel": 2,
		"type": "channel",
		"noteNumber": 56,
		"velocity": 127,
		"subtype": "noteOn",
		"time": 18600,
		"track": 4
	},
	{
		"deltaTime": 60,
		"channel": 9,
		"type": "channel",
		"noteNumber": 42,
		"velocity": 127,
		"subtype": "noteOn",
		"time": 18600,
		"track": 5
	},
	{
		"deltaTime": 60,
		"channel": 9,
		"type": "channel",
		"subtype": "noteOff",
		"noteNumber": 42,
		"velocity": 0,
		"time": 18660,
		"track": 5
	},
	{
		"deltaTime": 0,
		"channel": 2,
		"type": "channel",
		"subtype": "noteOff",
		"noteNumber": 56,
		"velocity": 0,
		"time": 18720,
		"track": 4
	},
	{
		"deltaTime": 0,
		"channel": 2,
		"type": "channel",
		"subtype": "noteOff",
		"noteNumber": 52,
		"velocity": 0,
		"time": 18720,
		"track": 4
	},
	{
		"deltaTime": 0,
		"channel": 2,
		"type": "channel",
		"noteNumber": 40,
		"velocity": 127,
		"subtype": "noteOn",
		"time": 18720,
		"track": 4
	},
	{
		"deltaTime": 0,
		"channel": 2,
		"type": "channel",
		"noteNumber": 52,
		"velocity": 127,
		"subtype": "noteOn",
		"time": 18720,
		"track": 4
	},
	{
		"deltaTime": 0,
		"channel": 2,
		"type": "channel",
		"noteNumber": 56,
		"velocity": 127,
		"subtype": "noteOn",
		"time": 18720,
		"track": 4
	},
	{
		"deltaTime": 0,
		"channel": 2,
		"type": "channel",
		"noteNumber": 59,
		"velocity": 127,
		"subtype": "noteOn",
		"time": 18720,
		"track": 4
	},
	{
		"deltaTime": 0,
		"channel": 9,
		"type": "channel",
		"noteNumber": 42,
		"velocity": 127,
		"subtype": "noteOn",
		"time": 18720,
		"track": 5
	},
	{
		"deltaTime": 0,
		"channel": 9,
		"type": "channel",
		"noteNumber": 40,
		"velocity": 127,
		"subtype": "noteOn",
		"time": 18720,
		"track": 5
	},
	{
		"deltaTime": 60,
		"channel": 9,
		"type": "channel",
		"noteNumber": 38,
		"velocity": 127,
		"subtype": "noteOn",
		"time": 18720,
		"track": 5
	},
	{
		"deltaTime": 0,
		"channel": 9,
		"type": "channel",
		"subtype": "noteOff",
		"noteNumber": 38,
		"velocity": 0,
		"time": 18780,
		"track": 5
	},
	{
		"deltaTime": 0,
		"channel": 9,
		"type": "channel",
		"subtype": "noteOff",
		"noteNumber": 40,
		"velocity": 0,
		"time": 18780,
		"track": 5
	},
	{
		"deltaTime": 60,
		"channel": 9,
		"type": "channel",
		"subtype": "noteOff",
		"noteNumber": 42,
		"velocity": 0,
		"time": 18780,
		"track": 5
	},
	{
		"deltaTime": 0,
		"channel": 1,
		"type": "channel",
		"subtype": "noteOff",
		"noteNumber": 61,
		"velocity": 0,
		"time": 18840,
		"track": 3
	},
	{
		"deltaTime": 0,
		"channel": 1,
		"type": "channel",
		"noteNumber": 59,
		"velocity": 127,
		"subtype": "noteOn",
		"time": 18840,
		"track": 3
	},
	{
		"deltaTime": 60,
		"channel": 9,
		"type": "channel",
		"noteNumber": 42,
		"velocity": 127,
		"subtype": "noteOn",
		"time": 18840,
		"track": 5
	},
	{
		"deltaTime": 60,
		"channel": 9,
		"type": "channel",
		"subtype": "noteOff",
		"noteNumber": 42,
		"velocity": 0,
		"time": 18900,
		"track": 5
	},
	{
		"deltaTime": 60,
		"channel": 9,
		"type": "channel",
		"noteNumber": 42,
		"velocity": 127,
		"subtype": "noteOn",
		"time": 18960,
		"track": 5
	},
	{
		"deltaTime": 60,
		"channel": 9,
		"type": "channel",
		"subtype": "noteOff",
		"noteNumber": 42,
		"velocity": 0,
		"time": 19020,
		"track": 5
	},
	{
		"deltaTime": 0,
		"channel": 1,
		"type": "channel",
		"subtype": "noteOff",
		"noteNumber": 59,
		"velocity": 0,
		"time": 19080,
		"track": 3
	},
	{
		"deltaTime": 0,
		"channel": 1,
		"type": "channel",
		"noteNumber": 63,
		"velocity": 127,
		"subtype": "noteOn",
		"time": 19080,
		"track": 3
	},
	{
		"deltaTime": 60,
		"channel": 9,
		"type": "channel",
		"noteNumber": 42,
		"velocity": 127,
		"subtype": "noteOn",
		"time": 19080,
		"track": 5
	},
	{
		"deltaTime": 60,
		"channel": 9,
		"type": "channel",
		"subtype": "noteOff",
		"noteNumber": 42,
		"velocity": 0,
		"time": 19140,
		"track": 5
	},
	{
		"deltaTime": 0,
		"channel": 0,
		"type": "channel",
		"subtype": "noteOff",
		"noteNumber": 40,
		"velocity": 0,
		"time": 19200,
		"track": 2
	},
	{
		"deltaTime": 0,
		"channel": 0,
		"type": "channel",
		"noteNumber": 42,
		"velocity": 127,
		"subtype": "noteOn",
		"time": 19200,
		"track": 2
	},
	{
		"deltaTime": 0,
		"channel": 1,
		"type": "channel",
		"subtype": "noteOff",
		"noteNumber": 63,
		"velocity": 0,
		"time": 19200,
		"track": 3
	},
	{
		"deltaTime": 0,
		"channel": 1,
		"type": "channel",
		"noteNumber": 59,
		"velocity": 127,
		"subtype": "noteOn",
		"time": 19200,
		"track": 3
	},
	{
		"deltaTime": 0,
		"channel": 2,
		"type": "channel",
		"subtype": "noteOff",
		"noteNumber": 59,
		"velocity": 0,
		"time": 19200,
		"track": 4
	},
	{
		"deltaTime": 0,
		"channel": 2,
		"type": "channel",
		"subtype": "noteOff",
		"noteNumber": 56,
		"velocity": 0,
		"time": 19200,
		"track": 4
	},
	{
		"deltaTime": 0,
		"channel": 2,
		"type": "channel",
		"subtype": "noteOff",
		"noteNumber": 52,
		"velocity": 0,
		"time": 19200,
		"track": 4
	},
	{
		"deltaTime": 0,
		"channel": 2,
		"type": "channel",
		"subtype": "noteOff",
		"noteNumber": 40,
		"velocity": 0,
		"time": 19200,
		"track": 4
	},
	{
		"deltaTime": 0,
		"channel": 2,
		"type": "channel",
		"noteNumber": 42,
		"velocity": 127,
		"subtype": "noteOn",
		"time": 19200,
		"track": 4
	},
	{
		"deltaTime": 0,
		"channel": 2,
		"type": "channel",
		"noteNumber": 49,
		"velocity": 127,
		"subtype": "noteOn",
		"time": 19200,
		"track": 4
	},
	{
		"deltaTime": 0,
		"channel": 2,
		"type": "channel",
		"noteNumber": 54,
		"velocity": 127,
		"subtype": "noteOn",
		"time": 19200,
		"track": 4
	},
	{
		"deltaTime": 0,
		"channel": 2,
		"type": "channel",
		"noteNumber": 58,
		"velocity": 127,
		"subtype": "noteOn",
		"time": 19200,
		"track": 4
	},
	{
		"deltaTime": 0,
		"channel": 9,
		"type": "channel",
		"noteNumber": 42,
		"velocity": 127,
		"subtype": "noteOn",
		"time": 19200,
		"track": 5
	},
	{
		"deltaTime": 0,
		"channel": 9,
		"type": "channel",
		"noteNumber": 35,
		"velocity": 127,
		"subtype": "noteOn",
		"time": 19200,
		"track": 5
	},
	{
		"deltaTime": 60,
		"channel": 9,
		"type": "channel",
		"noteNumber": 36,
		"velocity": 127,
		"subtype": "noteOn",
		"time": 19200,
		"track": 5
	},
	{
		"deltaTime": 0,
		"channel": 9,
		"type": "channel",
		"subtype": "noteOff",
		"noteNumber": 36,
		"velocity": 0,
		"time": 19260,
		"track": 5
	},
	{
		"deltaTime": 0,
		"channel": 9,
		"type": "channel",
		"subtype": "noteOff",
		"noteNumber": 35,
		"velocity": 0,
		"time": 19260,
		"track": 5
	},
	{
		"deltaTime": 60,
		"channel": 9,
		"type": "channel",
		"subtype": "noteOff",
		"noteNumber": 42,
		"velocity": 0,
		"time": 19260,
		"track": 5
	},
	{
		"deltaTime": 0,
		"channel": 1,
		"type": "channel",
		"subtype": "noteOff",
		"noteNumber": 59,
		"velocity": 0,
		"time": 19320,
		"track": 3
	},
	{
		"deltaTime": 0,
		"channel": 1,
		"type": "channel",
		"noteNumber": 61,
		"velocity": 127,
		"subtype": "noteOn",
		"time": 19320,
		"track": 3
	},
	{
		"deltaTime": 60,
		"channel": 9,
		"type": "channel",
		"noteNumber": 42,
		"velocity": 127,
		"subtype": "noteOn",
		"time": 19320,
		"track": 5
	},
	{
		"deltaTime": 60,
		"channel": 9,
		"type": "channel",
		"subtype": "noteOff",
		"noteNumber": 42,
		"velocity": 0,
		"time": 19380,
		"track": 5
	},
	{
		"deltaTime": 0,
		"channel": 9,
		"type": "channel",
		"noteNumber": 42,
		"velocity": 127,
		"subtype": "noteOn",
		"time": 19440,
		"track": 5
	},
	{
		"deltaTime": 0,
		"channel": 9,
		"type": "channel",
		"noteNumber": 36,
		"velocity": 127,
		"subtype": "noteOn",
		"time": 19440,
		"track": 5
	},
	{
		"deltaTime": 60,
		"channel": 9,
		"type": "channel",
		"noteNumber": 35,
		"velocity": 127,
		"subtype": "noteOn",
		"time": 19440,
		"track": 5
	},
	{
		"deltaTime": 0,
		"channel": 9,
		"type": "channel",
		"subtype": "noteOff",
		"noteNumber": 35,
		"velocity": 0,
		"time": 19500,
		"track": 5
	},
	{
		"deltaTime": 0,
		"channel": 9,
		"type": "channel",
		"subtype": "noteOff",
		"noteNumber": 36,
		"velocity": 0,
		"time": 19500,
		"track": 5
	},
	{
		"deltaTime": 60,
		"channel": 9,
		"type": "channel",
		"subtype": "noteOff",
		"noteNumber": 42,
		"velocity": 0,
		"time": 19500,
		"track": 5
	},
	{
		"deltaTime": 0,
		"channel": 2,
		"type": "channel",
		"subtype": "noteOff",
		"noteNumber": 58,
		"velocity": 0,
		"time": 19560,
		"track": 4
	},
	{
		"deltaTime": 0,
		"channel": 2,
		"type": "channel",
		"subtype": "noteOff",
		"noteNumber": 54,
		"velocity": 0,
		"time": 19560,
		"track": 4
	},
	{
		"deltaTime": 0,
		"channel": 2,
		"type": "channel",
		"subtype": "noteOff",
		"noteNumber": 49,
		"velocity": 0,
		"time": 19560,
		"track": 4
	},
	{
		"deltaTime": 0,
		"channel": 2,
		"type": "channel",
		"subtype": "noteOff",
		"noteNumber": 42,
		"velocity": 0,
		"time": 19560,
		"track": 4
	},
	{
		"deltaTime": 0,
		"channel": 2,
		"type": "channel",
		"noteNumber": 54,
		"velocity": 127,
		"subtype": "noteOn",
		"time": 19560,
		"track": 4
	},
	{
		"deltaTime": 0,
		"channel": 2,
		"type": "channel",
		"noteNumber": 58,
		"velocity": 127,
		"subtype": "noteOn",
		"time": 19560,
		"track": 4
	},
	{
		"deltaTime": 60,
		"channel": 9,
		"type": "channel",
		"noteNumber": 42,
		"velocity": 127,
		"subtype": "noteOn",
		"time": 19560,
		"track": 5
	},
	{
		"deltaTime": 60,
		"channel": 9,
		"type": "channel",
		"subtype": "noteOff",
		"noteNumber": 42,
		"velocity": 0,
		"time": 19620,
		"track": 5
	},
	{
		"deltaTime": 0,
		"channel": 2,
		"type": "channel",
		"subtype": "noteOff",
		"noteNumber": 58,
		"velocity": 0,
		"time": 19680,
		"track": 4
	},
	{
		"deltaTime": 0,
		"channel": 2,
		"type": "channel",
		"subtype": "noteOff",
		"noteNumber": 54,
		"velocity": 0,
		"time": 19680,
		"track": 4
	},
	{
		"deltaTime": 0,
		"channel": 2,
		"type": "channel",
		"noteNumber": 42,
		"velocity": 127,
		"subtype": "noteOn",
		"time": 19680,
		"track": 4
	},
	{
		"deltaTime": 0,
		"channel": 2,
		"type": "channel",
		"noteNumber": 49,
		"velocity": 127,
		"subtype": "noteOn",
		"time": 19680,
		"track": 4
	},
	{
		"deltaTime": 0,
		"channel": 2,
		"type": "channel",
		"noteNumber": 58,
		"velocity": 127,
		"subtype": "noteOn",
		"time": 19680,
		"track": 4
	},
	{
		"deltaTime": 0,
		"channel": 2,
		"type": "channel",
		"noteNumber": 61,
		"velocity": 127,
		"subtype": "noteOn",
		"time": 19680,
		"track": 4
	},
	{
		"deltaTime": 0,
		"channel": 9,
		"type": "channel",
		"noteNumber": 42,
		"velocity": 127,
		"subtype": "noteOn",
		"time": 19680,
		"track": 5
	},
	{
		"deltaTime": 0,
		"channel": 9,
		"type": "channel",
		"noteNumber": 38,
		"velocity": 127,
		"subtype": "noteOn",
		"time": 19680,
		"track": 5
	},
	{
		"deltaTime": 60,
		"channel": 9,
		"type": "channel",
		"noteNumber": 40,
		"velocity": 127,
		"subtype": "noteOn",
		"time": 19680,
		"track": 5
	},
	{
		"deltaTime": 0,
		"channel": 9,
		"type": "channel",
		"subtype": "noteOff",
		"noteNumber": 40,
		"velocity": 0,
		"time": 19740,
		"track": 5
	},
	{
		"deltaTime": 0,
		"channel": 9,
		"type": "channel",
		"subtype": "noteOff",
		"noteNumber": 38,
		"velocity": 0,
		"time": 19740,
		"track": 5
	},
	{
		"deltaTime": 60,
		"channel": 9,
		"type": "channel",
		"subtype": "noteOff",
		"noteNumber": 42,
		"velocity": 0,
		"time": 19740,
		"track": 5
	},
	{
		"deltaTime": 60,
		"channel": 9,
		"type": "channel",
		"noteNumber": 42,
		"velocity": 127,
		"subtype": "noteOn",
		"time": 19800,
		"track": 5
	},
	{
		"deltaTime": 60,
		"channel": 9,
		"type": "channel",
		"subtype": "noteOff",
		"noteNumber": 42,
		"velocity": 0,
		"time": 19860,
		"track": 5
	},
	{
		"deltaTime": 60,
		"channel": 9,
		"type": "channel",
		"noteNumber": 42,
		"velocity": 127,
		"subtype": "noteOn",
		"time": 19920,
		"track": 5
	},
	{
		"deltaTime": 60,
		"channel": 9,
		"type": "channel",
		"subtype": "noteOff",
		"noteNumber": 42,
		"velocity": 0,
		"time": 19980,
		"track": 5
	},
	{
		"deltaTime": 0,
		"channel": 1,
		"type": "channel",
		"subtype": "noteOff",
		"noteNumber": 61,
		"velocity": 0,
		"time": 20040,
		"track": 3
	},
	{
		"deltaTime": 0,
		"channel": 1,
		"type": "channel",
		"noteNumber": 58,
		"velocity": 127,
		"subtype": "noteOn",
		"time": 20040,
		"track": 3
	},
	{
		"deltaTime": 0,
		"channel": 9,
		"type": "channel",
		"noteNumber": 42,
		"velocity": 127,
		"subtype": "noteOn",
		"time": 20040,
		"track": 5
	},
	{
		"deltaTime": 0,
		"channel": 9,
		"type": "channel",
		"noteNumber": 36,
		"velocity": 127,
		"subtype": "noteOn",
		"time": 20040,
		"track": 5
	},
	{
		"deltaTime": 60,
		"channel": 9,
		"type": "channel",
		"noteNumber": 35,
		"velocity": 127,
		"subtype": "noteOn",
		"time": 20040,
		"track": 5
	},
	{
		"deltaTime": 0,
		"channel": 9,
		"type": "channel",
		"subtype": "noteOff",
		"noteNumber": 35,
		"velocity": 0,
		"time": 20100,
		"track": 5
	},
	{
		"deltaTime": 0,
		"channel": 9,
		"type": "channel",
		"subtype": "noteOff",
		"noteNumber": 36,
		"velocity": 0,
		"time": 20100,
		"track": 5
	},
	{
		"deltaTime": 60,
		"channel": 9,
		"type": "channel",
		"subtype": "noteOff",
		"noteNumber": 42,
		"velocity": 0,
		"time": 20100,
		"track": 5
	},
	{
		"deltaTime": 0,
		"channel": 0,
		"type": "channel",
		"subtype": "noteOff",
		"noteNumber": 42,
		"velocity": 0,
		"time": 20160,
		"track": 2
	},
	{
		"deltaTime": 0,
		"channel": 0,
		"type": "channel",
		"noteNumber": 35,
		"velocity": 127,
		"subtype": "noteOn",
		"time": 20160,
		"track": 2
	},
	{
		"deltaTime": 0,
		"channel": 1,
		"type": "channel",
		"subtype": "noteOff",
		"noteNumber": 58,
		"velocity": 0,
		"time": 20160,
		"track": 3
	},
	{
		"deltaTime": 0,
		"channel": 1,
		"type": "channel",
		"noteNumber": 59,
		"velocity": 127,
		"subtype": "noteOn",
		"time": 20160,
		"track": 3
	},
	{
		"deltaTime": 0,
		"channel": 2,
		"type": "channel",
		"subtype": "noteOff",
		"noteNumber": 61,
		"velocity": 0,
		"time": 20160,
		"track": 4
	},
	{
		"deltaTime": 0,
		"channel": 2,
		"type": "channel",
		"subtype": "noteOff",
		"noteNumber": 58,
		"velocity": 0,
		"time": 20160,
		"track": 4
	},
	{
		"deltaTime": 0,
		"channel": 2,
		"type": "channel",
		"subtype": "noteOff",
		"noteNumber": 49,
		"velocity": 0,
		"time": 20160,
		"track": 4
	},
	{
		"deltaTime": 0,
		"channel": 2,
		"type": "channel",
		"subtype": "noteOff",
		"noteNumber": 42,
		"velocity": 0,
		"time": 20160,
		"track": 4
	},
	{
		"deltaTime": 0,
		"channel": 2,
		"type": "channel",
		"noteNumber": 47,
		"velocity": 127,
		"subtype": "noteOn",
		"time": 20160,
		"track": 4
	},
	{
		"deltaTime": 0,
		"channel": 2,
		"type": "channel",
		"noteNumber": 54,
		"velocity": 127,
		"subtype": "noteOn",
		"time": 20160,
		"track": 4
	},
	{
		"deltaTime": 0,
		"channel": 2,
		"type": "channel",
		"noteNumber": 59,
		"velocity": 127,
		"subtype": "noteOn",
		"time": 20160,
		"track": 4
	},
	{
		"deltaTime": 0,
		"channel": 2,
		"type": "channel",
		"noteNumber": 66,
		"velocity": 127,
		"subtype": "noteOn",
		"time": 20160,
		"track": 4
	},
	{
		"deltaTime": 60,
		"channel": 9,
		"type": "channel",
		"noteNumber": 42,
		"velocity": 127,
		"subtype": "noteOn",
		"time": 20160,
		"track": 5
	},
	{
		"deltaTime": 60,
		"channel": 9,
		"type": "channel",
		"subtype": "noteOff",
		"noteNumber": 42,
		"velocity": 0,
		"time": 20220,
		"track": 5
	},
	{
		"deltaTime": 60,
		"channel": 9,
		"type": "channel",
		"noteNumber": 42,
		"velocity": 127,
		"subtype": "noteOn",
		"time": 20280,
		"track": 5
	},
	{
		"deltaTime": 60,
		"channel": 9,
		"type": "channel",
		"subtype": "noteOff",
		"noteNumber": 42,
		"velocity": 0,
		"time": 20340,
		"track": 5
	},
	{
		"deltaTime": 0,
		"channel": 1,
		"type": "channel",
		"subtype": "noteOff",
		"noteNumber": 59,
		"velocity": 0,
		"time": 20400,
		"track": 3
	},
	{
		"deltaTime": 0,
		"channel": 1,
		"type": "channel",
		"noteNumber": 63,
		"velocity": 127,
		"subtype": "noteOn",
		"time": 20400,
		"track": 3
	},
	{
		"deltaTime": 0,
		"channel": 2,
		"type": "channel",
		"subtype": "noteOff",
		"noteNumber": 66,
		"velocity": 0,
		"time": 20400,
		"track": 4
	},
	{
		"deltaTime": 0,
		"channel": 2,
		"type": "channel",
		"subtype": "noteOff",
		"noteNumber": 59,
		"velocity": 0,
		"time": 20400,
		"track": 4
	},
	{
		"deltaTime": 0,
		"channel": 2,
		"type": "channel",
		"subtype": "noteOff",
		"noteNumber": 54,
		"velocity": 0,
		"time": 20400,
		"track": 4
	},
	{
		"deltaTime": 0,
		"channel": 2,
		"type": "channel",
		"subtype": "noteOff",
		"noteNumber": 47,
		"velocity": 0,
		"time": 20400,
		"track": 4
	},
	{
		"deltaTime": 0,
		"channel": 2,
		"type": "channel",
		"noteNumber": 54,
		"velocity": 127,
		"subtype": "noteOn",
		"time": 20400,
		"track": 4
	},
	{
		"deltaTime": 0,
		"channel": 2,
		"type": "channel",
		"noteNumber": 59,
		"velocity": 127,
		"subtype": "noteOn",
		"time": 20400,
		"track": 4
	},
	{
		"deltaTime": 0,
		"channel": 2,
		"type": "channel",
		"noteNumber": 63,
		"velocity": 127,
		"subtype": "noteOn",
		"time": 20400,
		"track": 4
	},
	{
		"deltaTime": 0,
		"channel": 9,
		"type": "channel",
		"noteNumber": 42,
		"velocity": 127,
		"subtype": "noteOn",
		"time": 20400,
		"track": 5
	},
	{
		"deltaTime": 0,
		"channel": 9,
		"type": "channel",
		"noteNumber": 36,
		"velocity": 127,
		"subtype": "noteOn",
		"time": 20400,
		"track": 5
	},
	{
		"deltaTime": 60,
		"channel": 9,
		"type": "channel",
		"noteNumber": 35,
		"velocity": 127,
		"subtype": "noteOn",
		"time": 20400,
		"track": 5
	},
	{
		"deltaTime": 0,
		"channel": 9,
		"type": "channel",
		"subtype": "noteOff",
		"noteNumber": 35,
		"velocity": 0,
		"time": 20460,
		"track": 5
	},
	{
		"deltaTime": 0,
		"channel": 9,
		"type": "channel",
		"subtype": "noteOff",
		"noteNumber": 36,
		"velocity": 0,
		"time": 20460,
		"track": 5
	},
	{
		"deltaTime": 60,
		"channel": 9,
		"type": "channel",
		"subtype": "noteOff",
		"noteNumber": 42,
		"velocity": 0,
		"time": 20460,
		"track": 5
	},
	{
		"deltaTime": 0,
		"channel": 1,
		"type": "channel",
		"subtype": "noteOff",
		"noteNumber": 63,
		"velocity": 0,
		"time": 20520,
		"track": 3
	},
	{
		"deltaTime": 0,
		"channel": 1,
		"type": "channel",
		"noteNumber": 58,
		"velocity": 127,
		"subtype": "noteOn",
		"time": 20520,
		"track": 3
	},
	{
		"deltaTime": 60,
		"channel": 9,
		"type": "channel",
		"noteNumber": 42,
		"velocity": 127,
		"subtype": "noteOn",
		"time": 20520,
		"track": 5
	},
	{
		"deltaTime": 60,
		"channel": 9,
		"type": "channel",
		"subtype": "noteOff",
		"noteNumber": 42,
		"velocity": 0,
		"time": 20580,
		"track": 5
	},
	{
		"deltaTime": 0,
		"channel": 0,
		"type": "channel",
		"subtype": "noteOff",
		"noteNumber": 35,
		"velocity": 0,
		"time": 20640,
		"track": 2
	},
	{
		"deltaTime": 0,
		"channel": 0,
		"type": "channel",
		"noteNumber": 34,
		"velocity": 127,
		"subtype": "noteOn",
		"time": 20640,
		"track": 2
	},
	{
		"deltaTime": 0,
		"channel": 2,
		"type": "channel",
		"subtype": "noteOff",
		"noteNumber": 63,
		"velocity": 0,
		"time": 20640,
		"track": 4
	},
	{
		"deltaTime": 0,
		"channel": 2,
		"type": "channel",
		"subtype": "noteOff",
		"noteNumber": 59,
		"velocity": 0,
		"time": 20640,
		"track": 4
	},
	{
		"deltaTime": 0,
		"channel": 2,
		"type": "channel",
		"subtype": "noteOff",
		"noteNumber": 54,
		"velocity": 0,
		"time": 20640,
		"track": 4
	},
	{
		"deltaTime": 0,
		"channel": 2,
		"type": "channel",
		"noteNumber": 46,
		"velocity": 127,
		"subtype": "noteOn",
		"time": 20640,
		"track": 4
	},
	{
		"deltaTime": 0,
		"channel": 2,
		"type": "channel",
		"noteNumber": 54,
		"velocity": 127,
		"subtype": "noteOn",
		"time": 20640,
		"track": 4
	},
	{
		"deltaTime": 0,
		"channel": 9,
		"type": "channel",
		"noteNumber": 42,
		"velocity": 127,
		"subtype": "noteOn",
		"time": 20640,
		"track": 5
	},
	{
		"deltaTime": 0,
		"channel": 9,
		"type": "channel",
		"noteNumber": 40,
		"velocity": 127,
		"subtype": "noteOn",
		"time": 20640,
		"track": 5
	},
	{
		"deltaTime": 60,
		"channel": 9,
		"type": "channel",
		"noteNumber": 38,
		"velocity": 127,
		"subtype": "noteOn",
		"time": 20640,
		"track": 5
	},
	{
		"deltaTime": 0,
		"channel": 9,
		"type": "channel",
		"subtype": "noteOff",
		"noteNumber": 38,
		"velocity": 0,
		"time": 20700,
		"track": 5
	},
	{
		"deltaTime": 0,
		"channel": 9,
		"type": "channel",
		"subtype": "noteOff",
		"noteNumber": 40,
		"velocity": 0,
		"time": 20700,
		"track": 5
	},
	{
		"deltaTime": 60,
		"channel": 9,
		"type": "channel",
		"subtype": "noteOff",
		"noteNumber": 42,
		"velocity": 0,
		"time": 20700,
		"track": 5
	},
	{
		"deltaTime": 60,
		"channel": 9,
		"type": "channel",
		"noteNumber": 42,
		"velocity": 127,
		"subtype": "noteOn",
		"time": 20760,
		"track": 5
	},
	{
		"deltaTime": 60,
		"channel": 9,
		"type": "channel",
		"subtype": "noteOff",
		"noteNumber": 42,
		"velocity": 0,
		"time": 20820,
		"track": 5
	},
	{
		"deltaTime": 0,
		"channel": 1,
		"type": "channel",
		"subtype": "noteOff",
		"noteNumber": 58,
		"velocity": 0,
		"time": 20880,
		"track": 3
	},
	{
		"deltaTime": 0,
		"channel": 1,
		"type": "channel",
		"noteNumber": 63,
		"velocity": 127,
		"subtype": "noteOn",
		"time": 20880,
		"track": 3
	},
	{
		"deltaTime": 0,
		"channel": 2,
		"type": "channel",
		"subtype": "noteOff",
		"noteNumber": 54,
		"velocity": 0,
		"time": 20880,
		"track": 4
	},
	{
		"deltaTime": 0,
		"channel": 2,
		"type": "channel",
		"subtype": "noteOff",
		"noteNumber": 46,
		"velocity": 0,
		"time": 20880,
		"track": 4
	},
	{
		"deltaTime": 0,
		"channel": 2,
		"type": "channel",
		"noteNumber": 54,
		"velocity": 127,
		"subtype": "noteOn",
		"time": 20880,
		"track": 4
	},
	{
		"deltaTime": 0,
		"channel": 2,
		"type": "channel",
		"noteNumber": 59,
		"velocity": 127,
		"subtype": "noteOn",
		"time": 20880,
		"track": 4
	},
	{
		"deltaTime": 0,
		"channel": 2,
		"type": "channel",
		"noteNumber": 63,
		"velocity": 127,
		"subtype": "noteOn",
		"time": 20880,
		"track": 4
	},
	{
		"deltaTime": 60,
		"channel": 9,
		"type": "channel",
		"noteNumber": 42,
		"velocity": 127,
		"subtype": "noteOn",
		"time": 20880,
		"track": 5
	},
	{
		"deltaTime": 60,
		"channel": 9,
		"type": "channel",
		"subtype": "noteOff",
		"noteNumber": 42,
		"velocity": 0,
		"time": 20940,
		"track": 5
	},
	{
		"deltaTime": 0,
		"channel": 1,
		"type": "channel",
		"subtype": "noteOff",
		"noteNumber": 63,
		"velocity": 0,
		"time": 21000,
		"track": 3
	},
	{
		"deltaTime": 0,
		"channel": 1,
		"type": "channel",
		"noteNumber": 56,
		"velocity": 127,
		"subtype": "noteOn",
		"time": 21000,
		"track": 3
	},
	{
		"deltaTime": 60,
		"channel": 9,
		"type": "channel",
		"noteNumber": 42,
		"velocity": 127,
		"subtype": "noteOn",
		"time": 21000,
		"track": 5
	},
	{
		"deltaTime": 60,
		"channel": 9,
		"type": "channel",
		"subtype": "noteOff",
		"noteNumber": 42,
		"velocity": 0,
		"time": 21060,
		"track": 5
	},
	{
		"deltaTime": 0,
		"channel": 0,
		"type": "channel",
		"subtype": "noteOff",
		"noteNumber": 34,
		"velocity": 0,
		"time": 21120,
		"track": 2
	},
	{
		"deltaTime": 0,
		"channel": 0,
		"type": "channel",
		"noteNumber": 32,
		"velocity": 127,
		"subtype": "noteOn",
		"time": 21120,
		"track": 2
	},
	{
		"deltaTime": 0,
		"channel": 2,
		"type": "channel",
		"subtype": "noteOff",
		"noteNumber": 63,
		"velocity": 0,
		"time": 21120,
		"track": 4
	},
	{
		"deltaTime": 0,
		"channel": 2,
		"type": "channel",
		"subtype": "noteOff",
		"noteNumber": 59,
		"velocity": 0,
		"time": 21120,
		"track": 4
	},
	{
		"deltaTime": 0,
		"channel": 2,
		"type": "channel",
		"subtype": "noteOff",
		"noteNumber": 54,
		"velocity": 0,
		"time": 21120,
		"track": 4
	},
	{
		"deltaTime": 0,
		"channel": 2,
		"type": "channel",
		"noteNumber": 44,
		"velocity": 127,
		"subtype": "noteOn",
		"time": 21120,
		"track": 4
	},
	{
		"deltaTime": 0,
		"channel": 2,
		"type": "channel",
		"noteNumber": 51,
		"velocity": 127,
		"subtype": "noteOn",
		"time": 21120,
		"track": 4
	},
	{
		"deltaTime": 0,
		"channel": 2,
		"type": "channel",
		"noteNumber": 56,
		"velocity": 127,
		"subtype": "noteOn",
		"time": 21120,
		"track": 4
	},
	{
		"deltaTime": 0,
		"channel": 2,
		"type": "channel",
		"noteNumber": 59,
		"velocity": 127,
		"subtype": "noteOn",
		"time": 21120,
		"track": 4
	},
	{
		"deltaTime": 0,
		"channel": 2,
		"type": "channel",
		"noteNumber": 63,
		"velocity": 127,
		"subtype": "noteOn",
		"time": 21120,
		"track": 4
	},
	{
		"deltaTime": 0,
		"channel": 9,
		"type": "channel",
		"noteNumber": 42,
		"velocity": 127,
		"subtype": "noteOn",
		"time": 21120,
		"track": 5
	},
	{
		"deltaTime": 0,
		"channel": 9,
		"type": "channel",
		"noteNumber": 35,
		"velocity": 127,
		"subtype": "noteOn",
		"time": 21120,
		"track": 5
	},
	{
		"deltaTime": 60,
		"channel": 9,
		"type": "channel",
		"noteNumber": 36,
		"velocity": 127,
		"subtype": "noteOn",
		"time": 21120,
		"track": 5
	},
	{
		"deltaTime": 0,
		"channel": 9,
		"type": "channel",
		"subtype": "noteOff",
		"noteNumber": 36,
		"velocity": 0,
		"time": 21180,
		"track": 5
	},
	{
		"deltaTime": 0,
		"channel": 9,
		"type": "channel",
		"subtype": "noteOff",
		"noteNumber": 35,
		"velocity": 0,
		"time": 21180,
		"track": 5
	},
	{
		"deltaTime": 60,
		"channel": 9,
		"type": "channel",
		"subtype": "noteOff",
		"noteNumber": 42,
		"velocity": 0,
		"time": 21180,
		"track": 5
	},
	{
		"deltaTime": 60,
		"channel": 9,
		"type": "channel",
		"noteNumber": 42,
		"velocity": 127,
		"subtype": "noteOn",
		"time": 21240,
		"track": 5
	},
	{
		"deltaTime": 60,
		"channel": 9,
		"type": "channel",
		"subtype": "noteOff",
		"noteNumber": 42,
		"velocity": 0,
		"time": 21300,
		"track": 5
	},
	{
		"deltaTime": 0,
		"channel": 1,
		"type": "channel",
		"subtype": "noteOff",
		"noteNumber": 56,
		"velocity": 0,
		"time": 21360,
		"track": 3
	},
	{
		"deltaTime": 0,
		"channel": 9,
		"type": "channel",
		"noteNumber": 42,
		"velocity": 127,
		"subtype": "noteOn",
		"time": 21360,
		"track": 5
	},
	{
		"deltaTime": 0,
		"channel": 9,
		"type": "channel",
		"noteNumber": 36,
		"velocity": 127,
		"subtype": "noteOn",
		"time": 21360,
		"track": 5
	},
	{
		"deltaTime": 60,
		"channel": 9,
		"type": "channel",
		"noteNumber": 35,
		"velocity": 127,
		"subtype": "noteOn",
		"time": 21360,
		"track": 5
	},
	{
		"deltaTime": 0,
		"channel": 9,
		"type": "channel",
		"subtype": "noteOff",
		"noteNumber": 35,
		"velocity": 0,
		"time": 21420,
		"track": 5
	},
	{
		"deltaTime": 0,
		"channel": 9,
		"type": "channel",
		"subtype": "noteOff",
		"noteNumber": 36,
		"velocity": 0,
		"time": 21420,
		"track": 5
	},
	{
		"deltaTime": 60,
		"channel": 9,
		"type": "channel",
		"subtype": "noteOff",
		"noteNumber": 42,
		"velocity": 0,
		"time": 21420,
		"track": 5
	},
	{
		"deltaTime": 0,
		"channel": 1,
		"type": "channel",
		"noteNumber": 56,
		"velocity": 127,
		"subtype": "noteOn",
		"time": 21480,
		"track": 3
	},
	{
		"deltaTime": 0,
		"channel": 2,
		"type": "channel",
		"subtype": "noteOff",
		"noteNumber": 63,
		"velocity": 0,
		"time": 21480,
		"track": 4
	},
	{
		"deltaTime": 0,
		"channel": 2,
		"type": "channel",
		"subtype": "noteOff",
		"noteNumber": 59,
		"velocity": 0,
		"time": 21480,
		"track": 4
	},
	{
		"deltaTime": 0,
		"channel": 2,
		"type": "channel",
		"subtype": "noteOff",
		"noteNumber": 56,
		"velocity": 0,
		"time": 21480,
		"track": 4
	},
	{
		"deltaTime": 0,
		"channel": 2,
		"type": "channel",
		"subtype": "noteOff",
		"noteNumber": 51,
		"velocity": 0,
		"time": 21480,
		"track": 4
	},
	{
		"deltaTime": 0,
		"channel": 2,
		"type": "channel",
		"subtype": "noteOff",
		"noteNumber": 44,
		"velocity": 0,
		"time": 21480,
		"track": 4
	},
	{
		"deltaTime": 0,
		"channel": 2,
		"type": "channel",
		"noteNumber": 56,
		"velocity": 127,
		"subtype": "noteOn",
		"time": 21480,
		"track": 4
	},
	{
		"deltaTime": 0,
		"channel": 2,
		"type": "channel",
		"noteNumber": 59,
		"velocity": 127,
		"subtype": "noteOn",
		"time": 21480,
		"track": 4
	},
	{
		"deltaTime": 60,
		"channel": 9,
		"type": "channel",
		"noteNumber": 42,
		"velocity": 127,
		"subtype": "noteOn",
		"time": 21480,
		"track": 5
	},
	{
		"deltaTime": 60,
		"channel": 9,
		"type": "channel",
		"subtype": "noteOff",
		"noteNumber": 42,
		"velocity": 0,
		"time": 21540,
		"track": 5
	},
	{
		"deltaTime": 0,
		"channel": 1,
		"type": "channel",
		"subtype": "noteOff",
		"noteNumber": 56,
		"velocity": 0,
		"time": 21600,
		"track": 3
	},
	{
		"deltaTime": 0,
		"channel": 1,
		"type": "channel",
		"noteNumber": 63,
		"velocity": 127,
		"subtype": "noteOn",
		"time": 21600,
		"track": 3
	},
	{
		"deltaTime": 0,
		"channel": 2,
		"type": "channel",
		"subtype": "noteOff",
		"noteNumber": 59,
		"velocity": 0,
		"time": 21600,
		"track": 4
	},
	{
		"deltaTime": 0,
		"channel": 2,
		"type": "channel",
		"subtype": "noteOff",
		"noteNumber": 56,
		"velocity": 0,
		"time": 21600,
		"track": 4
	},
	{
		"deltaTime": 0,
		"channel": 2,
		"type": "channel",
		"noteNumber": 51,
		"velocity": 127,
		"subtype": "noteOn",
		"time": 21600,
		"track": 4
	},
	{
		"deltaTime": 0,
		"channel": 2,
		"type": "channel",
		"noteNumber": 59,
		"velocity": 127,
		"subtype": "noteOn",
		"time": 21600,
		"track": 4
	},
	{
		"deltaTime": 0,
		"channel": 2,
		"type": "channel",
		"noteNumber": 63,
		"velocity": 127,
		"subtype": "noteOn",
		"time": 21600,
		"track": 4
	},
	{
		"deltaTime": 0,
		"channel": 9,
		"type": "channel",
		"noteNumber": 42,
		"velocity": 127,
		"subtype": "noteOn",
		"time": 21600,
		"track": 5
	},
	{
		"deltaTime": 0,
		"channel": 9,
		"type": "channel",
		"noteNumber": 38,
		"velocity": 127,
		"subtype": "noteOn",
		"time": 21600,
		"track": 5
	},
	{
		"deltaTime": 60,
		"channel": 9,
		"type": "channel",
		"noteNumber": 40,
		"velocity": 127,
		"subtype": "noteOn",
		"time": 21600,
		"track": 5
	},
	{
		"deltaTime": 0,
		"channel": 9,
		"type": "channel",
		"subtype": "noteOff",
		"noteNumber": 40,
		"velocity": 0,
		"time": 21660,
		"track": 5
	},
	{
		"deltaTime": 0,
		"channel": 9,
		"type": "channel",
		"subtype": "noteOff",
		"noteNumber": 38,
		"velocity": 0,
		"time": 21660,
		"track": 5
	},
	{
		"deltaTime": 60,
		"channel": 9,
		"type": "channel",
		"subtype": "noteOff",
		"noteNumber": 42,
		"velocity": 0,
		"time": 21660,
		"track": 5
	},
	{
		"deltaTime": 0,
		"channel": 1,
		"type": "channel",
		"subtype": "noteOff",
		"noteNumber": 63,
		"velocity": 0,
		"time": 21720,
		"track": 3
	},
	{
		"deltaTime": 0,
		"channel": 1,
		"type": "channel",
		"noteNumber": 63,
		"velocity": 127,
		"subtype": "noteOn",
		"time": 21720,
		"track": 3
	},
	{
		"deltaTime": 60,
		"channel": 9,
		"type": "channel",
		"noteNumber": 42,
		"velocity": 127,
		"subtype": "noteOn",
		"time": 21720,
		"track": 5
	},
	{
		"deltaTime": 60,
		"channel": 9,
		"type": "channel",
		"subtype": "noteOff",
		"noteNumber": 42,
		"velocity": 0,
		"time": 21780,
		"track": 5
	},
	{
		"deltaTime": 60,
		"channel": 9,
		"type": "channel",
		"noteNumber": 42,
		"velocity": 127,
		"subtype": "noteOn",
		"time": 21840,
		"track": 5
	},
	{
		"deltaTime": 60,
		"channel": 9,
		"type": "channel",
		"subtype": "noteOff",
		"noteNumber": 42,
		"velocity": 0,
		"time": 21900,
		"track": 5
	},
	{
		"deltaTime": 0,
		"channel": 1,
		"type": "channel",
		"subtype": "noteOff",
		"noteNumber": 63,
		"velocity": 0,
		"time": 21960,
		"track": 3
	},
	{
		"deltaTime": 0,
		"channel": 1,
		"type": "channel",
		"noteNumber": 63,
		"velocity": 127,
		"subtype": "noteOn",
		"time": 21960,
		"track": 3
	},
	{
		"deltaTime": 0,
		"channel": 9,
		"type": "channel",
		"noteNumber": 42,
		"velocity": 127,
		"subtype": "noteOn",
		"time": 21960,
		"track": 5
	},
	{
		"deltaTime": 0,
		"channel": 9,
		"type": "channel",
		"noteNumber": 36,
		"velocity": 127,
		"subtype": "noteOn",
		"time": 21960,
		"track": 5
	},
	{
		"deltaTime": 60,
		"channel": 9,
		"type": "channel",
		"noteNumber": 35,
		"velocity": 127,
		"subtype": "noteOn",
		"time": 21960,
		"track": 5
	},
	{
		"deltaTime": 0,
		"channel": 9,
		"type": "channel",
		"subtype": "noteOff",
		"noteNumber": 35,
		"velocity": 0,
		"time": 22020,
		"track": 5
	},
	{
		"deltaTime": 0,
		"channel": 9,
		"type": "channel",
		"subtype": "noteOff",
		"noteNumber": 36,
		"velocity": 0,
		"time": 22020,
		"track": 5
	},
	{
		"deltaTime": 60,
		"channel": 9,
		"type": "channel",
		"subtype": "noteOff",
		"noteNumber": 42,
		"velocity": 0,
		"time": 22020,
		"track": 5
	},
	{
		"deltaTime": 0,
		"channel": 0,
		"type": "channel",
		"subtype": "noteOff",
		"noteNumber": 32,
		"velocity": 0,
		"time": 22080,
		"track": 2
	},
	{
		"deltaTime": 0,
		"channel": 0,
		"type": "channel",
		"noteNumber": 40,
		"velocity": 127,
		"subtype": "noteOn",
		"time": 22080,
		"track": 2
	},
	{
		"deltaTime": 0,
		"channel": 2,
		"type": "channel",
		"subtype": "noteOff",
		"noteNumber": 63,
		"velocity": 0,
		"time": 22080,
		"track": 4
	},
	{
		"deltaTime": 0,
		"channel": 2,
		"type": "channel",
		"subtype": "noteOff",
		"noteNumber": 59,
		"velocity": 0,
		"time": 22080,
		"track": 4
	},
	{
		"deltaTime": 0,
		"channel": 2,
		"type": "channel",
		"subtype": "noteOff",
		"noteNumber": 51,
		"velocity": 0,
		"time": 22080,
		"track": 4
	},
	{
		"deltaTime": 0,
		"channel": 2,
		"type": "channel",
		"noteNumber": 40,
		"velocity": 127,
		"subtype": "noteOn",
		"time": 22080,
		"track": 4
	},
	{
		"deltaTime": 0,
		"channel": 2,
		"type": "channel",
		"noteNumber": 47,
		"velocity": 127,
		"subtype": "noteOn",
		"time": 22080,
		"track": 4
	},
	{
		"deltaTime": 0,
		"channel": 2,
		"type": "channel",
		"noteNumber": 52,
		"velocity": 127,
		"subtype": "noteOn",
		"time": 22080,
		"track": 4
	},
	{
		"deltaTime": 0,
		"channel": 2,
		"type": "channel",
		"noteNumber": 56,
		"velocity": 127,
		"subtype": "noteOn",
		"time": 22080,
		"track": 4
	},
	{
		"deltaTime": 60,
		"channel": 9,
		"type": "channel",
		"noteNumber": 42,
		"velocity": 127,
		"subtype": "noteOn",
		"time": 22080,
		"track": 5
	},
	{
		"deltaTime": 60,
		"channel": 9,
		"type": "channel",
		"subtype": "noteOff",
		"noteNumber": 42,
		"velocity": 0,
		"time": 22140,
		"track": 5
	},
	{
		"deltaTime": 0,
		"channel": 1,
		"type": "channel",
		"subtype": "noteOff",
		"noteNumber": 63,
		"velocity": 0,
		"time": 22200,
		"track": 3
	},
	{
		"deltaTime": 0,
		"channel": 1,
		"type": "channel",
		"noteNumber": 64,
		"velocity": 127,
		"subtype": "noteOn",
		"time": 22200,
		"track": 3
	},
	{
		"deltaTime": 60,
		"channel": 9,
		"type": "channel",
		"noteNumber": 42,
		"velocity": 127,
		"subtype": "noteOn",
		"time": 22200,
		"track": 5
	},
	{
		"deltaTime": 60,
		"channel": 9,
		"type": "channel",
		"subtype": "noteOff",
		"noteNumber": 42,
		"velocity": 0,
		"time": 22260,
		"track": 5
	},
	{
		"deltaTime": 0,
		"channel": 9,
		"type": "channel",
		"noteNumber": 42,
		"velocity": 127,
		"subtype": "noteOn",
		"time": 22320,
		"track": 5
	},
	{
		"deltaTime": 0,
		"channel": 9,
		"type": "channel",
		"noteNumber": 36,
		"velocity": 127,
		"subtype": "noteOn",
		"time": 22320,
		"track": 5
	},
	{
		"deltaTime": 60,
		"channel": 9,
		"type": "channel",
		"noteNumber": 35,
		"velocity": 127,
		"subtype": "noteOn",
		"time": 22320,
		"track": 5
	},
	{
		"deltaTime": 0,
		"channel": 9,
		"type": "channel",
		"subtype": "noteOff",
		"noteNumber": 35,
		"velocity": 0,
		"time": 22380,
		"track": 5
	},
	{
		"deltaTime": 0,
		"channel": 9,
		"type": "channel",
		"subtype": "noteOff",
		"noteNumber": 36,
		"velocity": 0,
		"time": 22380,
		"track": 5
	},
	{
		"deltaTime": 60,
		"channel": 9,
		"type": "channel",
		"subtype": "noteOff",
		"noteNumber": 42,
		"velocity": 0,
		"time": 22380,
		"track": 5
	},
	{
		"deltaTime": 0,
		"channel": 1,
		"type": "channel",
		"subtype": "noteOff",
		"noteNumber": 64,
		"velocity": 0,
		"time": 22440,
		"track": 3
	},
	{
		"deltaTime": 0,
		"channel": 1,
		"type": "channel",
		"noteNumber": 61,
		"velocity": 127,
		"subtype": "noteOn",
		"time": 22440,
		"track": 3
	},
	{
		"deltaTime": 0,
		"channel": 2,
		"type": "channel",
		"subtype": "noteOff",
		"noteNumber": 56,
		"velocity": 0,
		"time": 22440,
		"track": 4
	},
	{
		"deltaTime": 0,
		"channel": 2,
		"type": "channel",
		"subtype": "noteOff",
		"noteNumber": 52,
		"velocity": 0,
		"time": 22440,
		"track": 4
	},
	{
		"deltaTime": 0,
		"channel": 2,
		"type": "channel",
		"subtype": "noteOff",
		"noteNumber": 47,
		"velocity": 0,
		"time": 22440,
		"track": 4
	},
	{
		"deltaTime": 0,
		"channel": 2,
		"type": "channel",
		"subtype": "noteOff",
		"noteNumber": 40,
		"velocity": 0,
		"time": 22440,
		"track": 4
	},
	{
		"deltaTime": 0,
		"channel": 2,
		"type": "channel",
		"noteNumber": 52,
		"velocity": 127,
		"subtype": "noteOn",
		"time": 22440,
		"track": 4
	},
	{
		"deltaTime": 0,
		"channel": 2,
		"type": "channel",
		"noteNumber": 56,
		"velocity": 127,
		"subtype": "noteOn",
		"time": 22440,
		"track": 4
	},
	{
		"deltaTime": 60,
		"channel": 9,
		"type": "channel",
		"noteNumber": 42,
		"velocity": 127,
		"subtype": "noteOn",
		"time": 22440,
		"track": 5
	},
	{
		"deltaTime": 60,
		"channel": 9,
		"type": "channel",
		"subtype": "noteOff",
		"noteNumber": 42,
		"velocity": 0,
		"time": 22500,
		"track": 5
	},
	{
		"deltaTime": 0,
		"channel": 2,
		"type": "channel",
		"subtype": "noteOff",
		"noteNumber": 56,
		"velocity": 0,
		"time": 22560,
		"track": 4
	},
	{
		"deltaTime": 0,
		"channel": 2,
		"type": "channel",
		"subtype": "noteOff",
		"noteNumber": 52,
		"velocity": 0,
		"time": 22560,
		"track": 4
	},
	{
		"deltaTime": 0,
		"channel": 2,
		"type": "channel",
		"noteNumber": 40,
		"velocity": 127,
		"subtype": "noteOn",
		"time": 22560,
		"track": 4
	},
	{
		"deltaTime": 0,
		"channel": 2,
		"type": "channel",
		"noteNumber": 52,
		"velocity": 127,
		"subtype": "noteOn",
		"time": 22560,
		"track": 4
	},
	{
		"deltaTime": 0,
		"channel": 2,
		"type": "channel",
		"noteNumber": 56,
		"velocity": 127,
		"subtype": "noteOn",
		"time": 22560,
		"track": 4
	},
	{
		"deltaTime": 0,
		"channel": 2,
		"type": "channel",
		"noteNumber": 59,
		"velocity": 127,
		"subtype": "noteOn",
		"time": 22560,
		"track": 4
	},
	{
		"deltaTime": 0,
		"channel": 9,
		"type": "channel",
		"noteNumber": 42,
		"velocity": 127,
		"subtype": "noteOn",
		"time": 22560,
		"track": 5
	},
	{
		"deltaTime": 0,
		"channel": 9,
		"type": "channel",
		"noteNumber": 40,
		"velocity": 127,
		"subtype": "noteOn",
		"time": 22560,
		"track": 5
	},
	{
		"deltaTime": 60,
		"channel": 9,
		"type": "channel",
		"noteNumber": 38,
		"velocity": 127,
		"subtype": "noteOn",
		"time": 22560,
		"track": 5
	},
	{
		"deltaTime": 0,
		"channel": 9,
		"type": "channel",
		"subtype": "noteOff",
		"noteNumber": 38,
		"velocity": 0,
		"time": 22620,
		"track": 5
	},
	{
		"deltaTime": 0,
		"channel": 9,
		"type": "channel",
		"subtype": "noteOff",
		"noteNumber": 40,
		"velocity": 0,
		"time": 22620,
		"track": 5
	},
	{
		"deltaTime": 60,
		"channel": 9,
		"type": "channel",
		"subtype": "noteOff",
		"noteNumber": 42,
		"velocity": 0,
		"time": 22620,
		"track": 5
	},
	{
		"deltaTime": 0,
		"channel": 1,
		"type": "channel",
		"subtype": "noteOff",
		"noteNumber": 61,
		"velocity": 0,
		"time": 22680,
		"track": 3
	},
	{
		"deltaTime": 0,
		"channel": 1,
		"type": "channel",
		"noteNumber": 59,
		"velocity": 127,
		"subtype": "noteOn",
		"time": 22680,
		"track": 3
	},
	{
		"deltaTime": 60,
		"channel": 9,
		"type": "channel",
		"noteNumber": 42,
		"velocity": 127,
		"subtype": "noteOn",
		"time": 22680,
		"track": 5
	},
	{
		"deltaTime": 60,
		"channel": 9,
		"type": "channel",
		"subtype": "noteOff",
		"noteNumber": 42,
		"velocity": 0,
		"time": 22740,
		"track": 5
	},
	{
		"deltaTime": 60,
		"channel": 9,
		"type": "channel",
		"noteNumber": 42,
		"velocity": 127,
		"subtype": "noteOn",
		"time": 22800,
		"track": 5
	},
	{
		"deltaTime": 60,
		"channel": 9,
		"type": "channel",
		"subtype": "noteOff",
		"noteNumber": 42,
		"velocity": 0,
		"time": 22860,
		"track": 5
	},
	{
		"deltaTime": 0,
		"channel": 1,
		"type": "channel",
		"subtype": "noteOff",
		"noteNumber": 59,
		"velocity": 0,
		"time": 22920,
		"track": 3
	},
	{
		"deltaTime": 0,
		"channel": 1,
		"type": "channel",
		"noteNumber": 63,
		"velocity": 127,
		"subtype": "noteOn",
		"time": 22920,
		"track": 3
	},
	{
		"deltaTime": 60,
		"channel": 9,
		"type": "channel",
		"noteNumber": 42,
		"velocity": 127,
		"subtype": "noteOn",
		"time": 22920,
		"track": 5
	},
	{
		"deltaTime": 60,
		"channel": 9,
		"type": "channel",
		"subtype": "noteOff",
		"noteNumber": 42,
		"velocity": 0,
		"time": 22980,
		"track": 5
	},
	{
		"deltaTime": 0,
		"channel": 0,
		"type": "channel",
		"subtype": "noteOff",
		"noteNumber": 40,
		"velocity": 0,
		"time": 23040,
		"track": 2
	},
	{
		"deltaTime": 0,
		"channel": 0,
		"type": "channel",
		"noteNumber": 42,
		"velocity": 127,
		"subtype": "noteOn",
		"time": 23040,
		"track": 2
	},
	{
		"deltaTime": 0,
		"channel": 2,
		"type": "channel",
		"subtype": "noteOff",
		"noteNumber": 59,
		"velocity": 0,
		"time": 23040,
		"track": 4
	},
	{
		"deltaTime": 0,
		"channel": 2,
		"type": "channel",
		"subtype": "noteOff",
		"noteNumber": 56,
		"velocity": 0,
		"time": 23040,
		"track": 4
	},
	{
		"deltaTime": 0,
		"channel": 2,
		"type": "channel",
		"subtype": "noteOff",
		"noteNumber": 52,
		"velocity": 0,
		"time": 23040,
		"track": 4
	},
	{
		"deltaTime": 0,
		"channel": 2,
		"type": "channel",
		"subtype": "noteOff",
		"noteNumber": 40,
		"velocity": 0,
		"time": 23040,
		"track": 4
	},
	{
		"deltaTime": 0,
		"channel": 2,
		"type": "channel",
		"noteNumber": 42,
		"velocity": 127,
		"subtype": "noteOn",
		"time": 23040,
		"track": 4
	},
	{
		"deltaTime": 0,
		"channel": 2,
		"type": "channel",
		"noteNumber": 49,
		"velocity": 127,
		"subtype": "noteOn",
		"time": 23040,
		"track": 4
	},
	{
		"deltaTime": 0,
		"channel": 2,
		"type": "channel",
		"noteNumber": 54,
		"velocity": 127,
		"subtype": "noteOn",
		"time": 23040,
		"track": 4
	},
	{
		"deltaTime": 0,
		"channel": 2,
		"type": "channel",
		"noteNumber": 58,
		"velocity": 127,
		"subtype": "noteOn",
		"time": 23040,
		"track": 4
	},
	{
		"deltaTime": 0,
		"channel": 9,
		"type": "channel",
		"noteNumber": 42,
		"velocity": 127,
		"subtype": "noteOn",
		"time": 23040,
		"track": 5
	},
	{
		"deltaTime": 0,
		"channel": 9,
		"type": "channel",
		"noteNumber": 35,
		"velocity": 127,
		"subtype": "noteOn",
		"time": 23040,
		"track": 5
	},
	{
		"deltaTime": 60,
		"channel": 9,
		"type": "channel",
		"noteNumber": 36,
		"velocity": 127,
		"subtype": "noteOn",
		"time": 23040,
		"track": 5
	},
	{
		"deltaTime": 0,
		"channel": 9,
		"type": "channel",
		"subtype": "noteOff",
		"noteNumber": 36,
		"velocity": 0,
		"time": 23100,
		"track": 5
	},
	{
		"deltaTime": 0,
		"channel": 9,
		"type": "channel",
		"subtype": "noteOff",
		"noteNumber": 35,
		"velocity": 0,
		"time": 23100,
		"track": 5
	},
	{
		"deltaTime": 60,
		"channel": 9,
		"type": "channel",
		"subtype": "noteOff",
		"noteNumber": 42,
		"velocity": 0,
		"time": 23100,
		"track": 5
	},
	{
		"deltaTime": 60,
		"channel": 9,
		"type": "channel",
		"noteNumber": 42,
		"velocity": 127,
		"subtype": "noteOn",
		"time": 23160,
		"track": 5
	},
	{
		"deltaTime": 60,
		"channel": 9,
		"type": "channel",
		"subtype": "noteOff",
		"noteNumber": 42,
		"velocity": 0,
		"time": 23220,
		"track": 5
	},
	{
		"deltaTime": 0,
		"channel": 1,
		"type": "channel",
		"subtype": "noteOff",
		"noteNumber": 63,
		"velocity": 0,
		"time": 23280,
		"track": 3
	},
	{
		"deltaTime": 0,
		"channel": 1,
		"type": "channel",
		"noteNumber": 61,
		"velocity": 127,
		"subtype": "noteOn",
		"time": 23280,
		"track": 3
	},
	{
		"deltaTime": 0,
		"channel": 9,
		"type": "channel",
		"noteNumber": 42,
		"velocity": 127,
		"subtype": "noteOn",
		"time": 23280,
		"track": 5
	},
	{
		"deltaTime": 0,
		"channel": 9,
		"type": "channel",
		"noteNumber": 36,
		"velocity": 127,
		"subtype": "noteOn",
		"time": 23280,
		"track": 5
	},
	{
		"deltaTime": 60,
		"channel": 9,
		"type": "channel",
		"noteNumber": 35,
		"velocity": 127,
		"subtype": "noteOn",
		"time": 23280,
		"track": 5
	},
	{
		"deltaTime": 0,
		"channel": 9,
		"type": "channel",
		"subtype": "noteOff",
		"noteNumber": 35,
		"velocity": 0,
		"time": 23340,
		"track": 5
	},
	{
		"deltaTime": 0,
		"channel": 9,
		"type": "channel",
		"subtype": "noteOff",
		"noteNumber": 36,
		"velocity": 0,
		"time": 23340,
		"track": 5
	},
	{
		"deltaTime": 60,
		"channel": 9,
		"type": "channel",
		"subtype": "noteOff",
		"noteNumber": 42,
		"velocity": 0,
		"time": 23340,
		"track": 5
	},
	{
		"deltaTime": 0,
		"channel": 2,
		"type": "channel",
		"subtype": "noteOff",
		"noteNumber": 58,
		"velocity": 0,
		"time": 23400,
		"track": 4
	},
	{
		"deltaTime": 0,
		"channel": 2,
		"type": "channel",
		"subtype": "noteOff",
		"noteNumber": 54,
		"velocity": 0,
		"time": 23400,
		"track": 4
	},
	{
		"deltaTime": 0,
		"channel": 2,
		"type": "channel",
		"subtype": "noteOff",
		"noteNumber": 49,
		"velocity": 0,
		"time": 23400,
		"track": 4
	},
	{
		"deltaTime": 0,
		"channel": 2,
		"type": "channel",
		"subtype": "noteOff",
		"noteNumber": 42,
		"velocity": 0,
		"time": 23400,
		"track": 4
	},
	{
		"deltaTime": 0,
		"channel": 2,
		"type": "channel",
		"noteNumber": 54,
		"velocity": 127,
		"subtype": "noteOn",
		"time": 23400,
		"track": 4
	},
	{
		"deltaTime": 0,
		"channel": 2,
		"type": "channel",
		"noteNumber": 58,
		"velocity": 127,
		"subtype": "noteOn",
		"time": 23400,
		"track": 4
	},
	{
		"deltaTime": 60,
		"channel": 9,
		"type": "channel",
		"noteNumber": 42,
		"velocity": 127,
		"subtype": "noteOn",
		"time": 23400,
		"track": 5
	},
	{
		"deltaTime": 60,
		"channel": 9,
		"type": "channel",
		"subtype": "noteOff",
		"noteNumber": 42,
		"velocity": 0,
		"time": 23460,
		"track": 5
	},
	{
		"deltaTime": 0,
		"channel": 2,
		"type": "channel",
		"subtype": "noteOff",
		"noteNumber": 58,
		"velocity": 0,
		"time": 23520,
		"track": 4
	},
	{
		"deltaTime": 0,
		"channel": 2,
		"type": "channel",
		"subtype": "noteOff",
		"noteNumber": 54,
		"velocity": 0,
		"time": 23520,
		"track": 4
	},
	{
		"deltaTime": 0,
		"channel": 2,
		"type": "channel",
		"noteNumber": 42,
		"velocity": 127,
		"subtype": "noteOn",
		"time": 23520,
		"track": 4
	},
	{
		"deltaTime": 0,
		"channel": 2,
		"type": "channel",
		"noteNumber": 49,
		"velocity": 127,
		"subtype": "noteOn",
		"time": 23520,
		"track": 4
	},
	{
		"deltaTime": 0,
		"channel": 2,
		"type": "channel",
		"noteNumber": 58,
		"velocity": 127,
		"subtype": "noteOn",
		"time": 23520,
		"track": 4
	},
	{
		"deltaTime": 0,
		"channel": 2,
		"type": "channel",
		"noteNumber": 61,
		"velocity": 127,
		"subtype": "noteOn",
		"time": 23520,
		"track": 4
	},
	{
		"deltaTime": 0,
		"channel": 9,
		"type": "channel",
		"noteNumber": 42,
		"velocity": 127,
		"subtype": "noteOn",
		"time": 23520,
		"track": 5
	},
	{
		"deltaTime": 0,
		"channel": 9,
		"type": "channel",
		"noteNumber": 38,
		"velocity": 127,
		"subtype": "noteOn",
		"time": 23520,
		"track": 5
	},
	{
		"deltaTime": 60,
		"channel": 9,
		"type": "channel",
		"noteNumber": 40,
		"velocity": 127,
		"subtype": "noteOn",
		"time": 23520,
		"track": 5
	},
	{
		"deltaTime": 0,
		"channel": 9,
		"type": "channel",
		"subtype": "noteOff",
		"noteNumber": 40,
		"velocity": 0,
		"time": 23580,
		"track": 5
	},
	{
		"deltaTime": 0,
		"channel": 9,
		"type": "channel",
		"subtype": "noteOff",
		"noteNumber": 38,
		"velocity": 0,
		"time": 23580,
		"track": 5
	},
	{
		"deltaTime": 60,
		"channel": 9,
		"type": "channel",
		"subtype": "noteOff",
		"noteNumber": 42,
		"velocity": 0,
		"time": 23580,
		"track": 5
	},
	{
		"deltaTime": 60,
		"channel": 9,
		"type": "channel",
		"noteNumber": 42,
		"velocity": 127,
		"subtype": "noteOn",
		"time": 23640,
		"track": 5
	},
	{
		"deltaTime": 60,
		"channel": 9,
		"type": "channel",
		"subtype": "noteOff",
		"noteNumber": 42,
		"velocity": 0,
		"time": 23700,
		"track": 5
	},
	{
		"deltaTime": 0,
		"channel": 1,
		"type": "channel",
		"subtype": "noteOff",
		"noteNumber": 61,
		"velocity": 0,
		"time": 23760,
		"track": 3
	},
	{
		"deltaTime": 60,
		"channel": 9,
		"type": "channel",
		"noteNumber": 42,
		"velocity": 127,
		"subtype": "noteOn",
		"time": 23760,
		"track": 5
	},
	{
		"deltaTime": 60,
		"channel": 9,
		"type": "channel",
		"subtype": "noteOff",
		"noteNumber": 42,
		"velocity": 0,
		"time": 23820,
		"track": 5
	},
	{
		"deltaTime": 0,
		"channel": 1,
		"type": "channel",
		"noteNumber": 59,
		"velocity": 127,
		"subtype": "noteOn",
		"time": 23880,
		"track": 3
	},
	{
		"deltaTime": 0,
		"channel": 9,
		"type": "channel",
		"noteNumber": 42,
		"velocity": 127,
		"subtype": "noteOn",
		"time": 23880,
		"track": 5
	},
	{
		"deltaTime": 0,
		"channel": 9,
		"type": "channel",
		"noteNumber": 36,
		"velocity": 127,
		"subtype": "noteOn",
		"time": 23880,
		"track": 5
	},
	{
		"deltaTime": 60,
		"channel": 9,
		"type": "channel",
		"noteNumber": 35,
		"velocity": 127,
		"subtype": "noteOn",
		"time": 23880,
		"track": 5
	},
	{
		"deltaTime": 0,
		"channel": 9,
		"type": "channel",
		"subtype": "noteOff",
		"noteNumber": 35,
		"velocity": 0,
		"time": 23940,
		"track": 5
	},
	{
		"deltaTime": 0,
		"channel": 9,
		"type": "channel",
		"subtype": "noteOff",
		"noteNumber": 36,
		"velocity": 0,
		"time": 23940,
		"track": 5
	},
	{
		"deltaTime": 60,
		"channel": 9,
		"type": "channel",
		"subtype": "noteOff",
		"noteNumber": 42,
		"velocity": 0,
		"time": 23940,
		"track": 5
	},
	{
		"deltaTime": 0,
		"channel": 0,
		"type": "channel",
		"subtype": "noteOff",
		"noteNumber": 42,
		"velocity": 0,
		"time": 24000,
		"track": 2
	},
	{
		"deltaTime": 0,
		"channel": 0,
		"type": "channel",
		"noteNumber": 35,
		"velocity": 127,
		"subtype": "noteOn",
		"time": 24000,
		"track": 2
	},
	{
		"deltaTime": 0,
		"channel": 1,
		"type": "channel",
		"subtype": "noteOff",
		"noteNumber": 59,
		"velocity": 0,
		"time": 24000,
		"track": 3
	},
	{
		"deltaTime": 0,
		"channel": 1,
		"type": "channel",
		"noteNumber": 66,
		"velocity": 127,
		"subtype": "noteOn",
		"time": 24000,
		"track": 3
	},
	{
		"deltaTime": 0,
		"channel": 2,
		"type": "channel",
		"subtype": "noteOff",
		"noteNumber": 61,
		"velocity": 0,
		"time": 24000,
		"track": 4
	},
	{
		"deltaTime": 0,
		"channel": 2,
		"type": "channel",
		"subtype": "noteOff",
		"noteNumber": 58,
		"velocity": 0,
		"time": 24000,
		"track": 4
	},
	{
		"deltaTime": 0,
		"channel": 2,
		"type": "channel",
		"subtype": "noteOff",
		"noteNumber": 49,
		"velocity": 0,
		"time": 24000,
		"track": 4
	},
	{
		"deltaTime": 0,
		"channel": 2,
		"type": "channel",
		"subtype": "noteOff",
		"noteNumber": 42,
		"velocity": 0,
		"time": 24000,
		"track": 4
	},
	{
		"deltaTime": 0,
		"channel": 2,
		"type": "channel",
		"noteNumber": 47,
		"velocity": 127,
		"subtype": "noteOn",
		"time": 24000,
		"track": 4
	},
	{
		"deltaTime": 0,
		"channel": 2,
		"type": "channel",
		"noteNumber": 54,
		"velocity": 127,
		"subtype": "noteOn",
		"time": 24000,
		"track": 4
	},
	{
		"deltaTime": 0,
		"channel": 2,
		"type": "channel",
		"noteNumber": 59,
		"velocity": 127,
		"subtype": "noteOn",
		"time": 24000,
		"track": 4
	},
	{
		"deltaTime": 0,
		"channel": 2,
		"type": "channel",
		"noteNumber": 66,
		"velocity": 127,
		"subtype": "noteOn",
		"time": 24000,
		"track": 4
	},
	{
		"deltaTime": 60,
		"channel": 9,
		"type": "channel",
		"noteNumber": 42,
		"velocity": 127,
		"subtype": "noteOn",
		"time": 24000,
		"track": 5
	},
	{
		"deltaTime": 60,
		"channel": 9,
		"type": "channel",
		"subtype": "noteOff",
		"noteNumber": 42,
		"velocity": 0,
		"time": 24060,
		"track": 5
	},
	{
		"deltaTime": 60,
		"channel": 9,
		"type": "channel",
		"noteNumber": 42,
		"velocity": 127,
		"subtype": "noteOn",
		"time": 24120,
		"track": 5
	},
	{
		"deltaTime": 60,
		"channel": 9,
		"type": "channel",
		"subtype": "noteOff",
		"noteNumber": 42,
		"velocity": 0,
		"time": 24180,
		"track": 5
	},
	{
		"deltaTime": 0,
		"channel": 1,
		"type": "channel",
		"subtype": "noteOff",
		"noteNumber": 66,
		"velocity": 0,
		"time": 24240,
		"track": 3
	},
	{
		"deltaTime": 0,
		"channel": 1,
		"type": "channel",
		"noteNumber": 68,
		"velocity": 127,
		"subtype": "noteOn",
		"time": 24240,
		"track": 3
	},
	{
		"deltaTime": 0,
		"channel": 2,
		"type": "channel",
		"subtype": "noteOff",
		"noteNumber": 66,
		"velocity": 0,
		"time": 24240,
		"track": 4
	},
	{
		"deltaTime": 0,
		"channel": 2,
		"type": "channel",
		"subtype": "noteOff",
		"noteNumber": 59,
		"velocity": 0,
		"time": 24240,
		"track": 4
	},
	{
		"deltaTime": 0,
		"channel": 2,
		"type": "channel",
		"subtype": "noteOff",
		"noteNumber": 54,
		"velocity": 0,
		"time": 24240,
		"track": 4
	},
	{
		"deltaTime": 0,
		"channel": 2,
		"type": "channel",
		"subtype": "noteOff",
		"noteNumber": 47,
		"velocity": 0,
		"time": 24240,
		"track": 4
	},
	{
		"deltaTime": 0,
		"channel": 2,
		"type": "channel",
		"noteNumber": 54,
		"velocity": 127,
		"subtype": "noteOn",
		"time": 24240,
		"track": 4
	},
	{
		"deltaTime": 0,
		"channel": 2,
		"type": "channel",
		"noteNumber": 59,
		"velocity": 127,
		"subtype": "noteOn",
		"time": 24240,
		"track": 4
	},
	{
		"deltaTime": 0,
		"channel": 2,
		"type": "channel",
		"noteNumber": 63,
		"velocity": 127,
		"subtype": "noteOn",
		"time": 24240,
		"track": 4
	},
	{
		"deltaTime": 0,
		"channel": 9,
		"type": "channel",
		"noteNumber": 42,
		"velocity": 127,
		"subtype": "noteOn",
		"time": 24240,
		"track": 5
	},
	{
		"deltaTime": 0,
		"channel": 9,
		"type": "channel",
		"noteNumber": 36,
		"velocity": 127,
		"subtype": "noteOn",
		"time": 24240,
		"track": 5
	},
	{
		"deltaTime": 60,
		"channel": 9,
		"type": "channel",
		"noteNumber": 35,
		"velocity": 127,
		"subtype": "noteOn",
		"time": 24240,
		"track": 5
	},
	{
		"deltaTime": 0,
		"channel": 9,
		"type": "channel",
		"subtype": "noteOff",
		"noteNumber": 35,
		"velocity": 0,
		"time": 24300,
		"track": 5
	},
	{
		"deltaTime": 0,
		"channel": 9,
		"type": "channel",
		"subtype": "noteOff",
		"noteNumber": 36,
		"velocity": 0,
		"time": 24300,
		"track": 5
	},
	{
		"deltaTime": 60,
		"channel": 9,
		"type": "channel",
		"subtype": "noteOff",
		"noteNumber": 42,
		"velocity": 0,
		"time": 24300,
		"track": 5
	},
	{
		"deltaTime": 60,
		"channel": 9,
		"type": "channel",
		"noteNumber": 42,
		"velocity": 127,
		"subtype": "noteOn",
		"time": 24360,
		"track": 5
	},
	{
		"deltaTime": 60,
		"channel": 9,
		"type": "channel",
		"subtype": "noteOff",
		"noteNumber": 42,
		"velocity": 0,
		"time": 24420,
		"track": 5
	},
	{
		"deltaTime": 0,
		"channel": 0,
		"type": "channel",
		"subtype": "noteOff",
		"noteNumber": 35,
		"velocity": 0,
		"time": 24480,
		"track": 2
	},
	{
		"deltaTime": 0,
		"channel": 0,
		"type": "channel",
		"noteNumber": 34,
		"velocity": 127,
		"subtype": "noteOn",
		"time": 24480,
		"track": 2
	},
	{
		"deltaTime": 0,
		"channel": 1,
		"type": "channel",
		"subtype": "noteOff",
		"noteNumber": 68,
		"velocity": 0,
		"time": 24480,
		"track": 3
	},
	{
		"deltaTime": 0,
		"channel": 1,
		"type": "channel",
		"noteNumber": 63,
		"velocity": 127,
		"subtype": "noteOn",
		"time": 24480,
		"track": 3
	},
	{
		"deltaTime": 0,
		"channel": 2,
		"type": "channel",
		"subtype": "noteOff",
		"noteNumber": 63,
		"velocity": 0,
		"time": 24480,
		"track": 4
	},
	{
		"deltaTime": 0,
		"channel": 2,
		"type": "channel",
		"subtype": "noteOff",
		"noteNumber": 59,
		"velocity": 0,
		"time": 24480,
		"track": 4
	},
	{
		"deltaTime": 0,
		"channel": 2,
		"type": "channel",
		"subtype": "noteOff",
		"noteNumber": 54,
		"velocity": 0,
		"time": 24480,
		"track": 4
	},
	{
		"deltaTime": 0,
		"channel": 2,
		"type": "channel",
		"noteNumber": 46,
		"velocity": 127,
		"subtype": "noteOn",
		"time": 24480,
		"track": 4
	},
	{
		"deltaTime": 0,
		"channel": 2,
		"type": "channel",
		"noteNumber": 54,
		"velocity": 127,
		"subtype": "noteOn",
		"time": 24480,
		"track": 4
	},
	{
		"deltaTime": 0,
		"channel": 9,
		"type": "channel",
		"noteNumber": 42,
		"velocity": 127,
		"subtype": "noteOn",
		"time": 24480,
		"track": 5
	},
	{
		"deltaTime": 0,
		"channel": 9,
		"type": "channel",
		"noteNumber": 40,
		"velocity": 127,
		"subtype": "noteOn",
		"time": 24480,
		"track": 5
	},
	{
		"deltaTime": 60,
		"channel": 9,
		"type": "channel",
		"noteNumber": 38,
		"velocity": 127,
		"subtype": "noteOn",
		"time": 24480,
		"track": 5
	},
	{
		"deltaTime": 0,
		"channel": 9,
		"type": "channel",
		"subtype": "noteOff",
		"noteNumber": 38,
		"velocity": 0,
		"time": 24540,
		"track": 5
	},
	{
		"deltaTime": 0,
		"channel": 9,
		"type": "channel",
		"subtype": "noteOff",
		"noteNumber": 40,
		"velocity": 0,
		"time": 24540,
		"track": 5
	},
	{
		"deltaTime": 60,
		"channel": 9,
		"type": "channel",
		"subtype": "noteOff",
		"noteNumber": 42,
		"velocity": 0,
		"time": 24540,
		"track": 5
	},
	{
		"deltaTime": 60,
		"channel": 9,
		"type": "channel",
		"noteNumber": 42,
		"velocity": 127,
		"subtype": "noteOn",
		"time": 24600,
		"track": 5
	},
	{
		"deltaTime": 60,
		"channel": 9,
		"type": "channel",
		"subtype": "noteOff",
		"noteNumber": 42,
		"velocity": 0,
		"time": 24660,
		"track": 5
	},
	{
		"deltaTime": 0,
		"channel": 1,
		"type": "channel",
		"subtype": "noteOff",
		"noteNumber": 63,
		"velocity": 0,
		"time": 24720,
		"track": 3
	},
	{
		"deltaTime": 0,
		"channel": 1,
		"type": "channel",
		"noteNumber": 61,
		"velocity": 127,
		"subtype": "noteOn",
		"time": 24720,
		"track": 3
	},
	{
		"deltaTime": 0,
		"channel": 2,
		"type": "channel",
		"subtype": "noteOff",
		"noteNumber": 54,
		"velocity": 0,
		"time": 24720,
		"track": 4
	},
	{
		"deltaTime": 0,
		"channel": 2,
		"type": "channel",
		"subtype": "noteOff",
		"noteNumber": 46,
		"velocity": 0,
		"time": 24720,
		"track": 4
	},
	{
		"deltaTime": 0,
		"channel": 2,
		"type": "channel",
		"noteNumber": 54,
		"velocity": 127,
		"subtype": "noteOn",
		"time": 24720,
		"track": 4
	},
	{
		"deltaTime": 0,
		"channel": 2,
		"type": "channel",
		"noteNumber": 59,
		"velocity": 127,
		"subtype": "noteOn",
		"time": 24720,
		"track": 4
	},
	{
		"deltaTime": 0,
		"channel": 2,
		"type": "channel",
		"noteNumber": 63,
		"velocity": 127,
		"subtype": "noteOn",
		"time": 24720,
		"track": 4
	},
	{
		"deltaTime": 60,
		"channel": 9,
		"type": "channel",
		"noteNumber": 42,
		"velocity": 127,
		"subtype": "noteOn",
		"time": 24720,
		"track": 5
	},
	{
		"deltaTime": 60,
		"channel": 9,
		"type": "channel",
		"subtype": "noteOff",
		"noteNumber": 42,
		"velocity": 0,
		"time": 24780,
		"track": 5
	},
	{
		"deltaTime": 0,
		"channel": 1,
		"type": "channel",
		"subtype": "noteOff",
		"noteNumber": 61,
		"velocity": 0,
		"time": 24840,
		"track": 3
	},
	{
		"deltaTime": 0,
		"channel": 1,
		"type": "channel",
		"noteNumber": 63,
		"velocity": 127,
		"subtype": "noteOn",
		"time": 24840,
		"track": 3
	},
	{
		"deltaTime": 60,
		"channel": 9,
		"type": "channel",
		"noteNumber": 42,
		"velocity": 127,
		"subtype": "noteOn",
		"time": 24840,
		"track": 5
	},
	{
		"deltaTime": 60,
		"channel": 9,
		"type": "channel",
		"subtype": "noteOff",
		"noteNumber": 42,
		"velocity": 0,
		"time": 24900,
		"track": 5
	},
	{
		"deltaTime": 0,
		"channel": 0,
		"type": "channel",
		"subtype": "noteOff",
		"noteNumber": 34,
		"velocity": 0,
		"time": 24960,
		"track": 2
	},
	{
		"deltaTime": 0,
		"channel": 0,
		"type": "channel",
		"noteNumber": 32,
		"velocity": 127,
		"subtype": "noteOn",
		"time": 24960,
		"track": 2
	},
	{
		"deltaTime": 0,
		"channel": 2,
		"type": "channel",
		"subtype": "noteOff",
		"noteNumber": 63,
		"velocity": 0,
		"time": 24960,
		"track": 4
	},
	{
		"deltaTime": 0,
		"channel": 2,
		"type": "channel",
		"subtype": "noteOff",
		"noteNumber": 59,
		"velocity": 0,
		"time": 24960,
		"track": 4
	},
	{
		"deltaTime": 0,
		"channel": 2,
		"type": "channel",
		"subtype": "noteOff",
		"noteNumber": 54,
		"velocity": 0,
		"time": 24960,
		"track": 4
	},
	{
		"deltaTime": 0,
		"channel": 2,
		"type": "channel",
		"noteNumber": 44,
		"velocity": 127,
		"subtype": "noteOn",
		"time": 24960,
		"track": 4
	},
	{
		"deltaTime": 0,
		"channel": 2,
		"type": "channel",
		"noteNumber": 51,
		"velocity": 127,
		"subtype": "noteOn",
		"time": 24960,
		"track": 4
	},
	{
		"deltaTime": 0,
		"channel": 2,
		"type": "channel",
		"noteNumber": 56,
		"velocity": 127,
		"subtype": "noteOn",
		"time": 24960,
		"track": 4
	},
	{
		"deltaTime": 0,
		"channel": 2,
		"type": "channel",
		"noteNumber": 59,
		"velocity": 127,
		"subtype": "noteOn",
		"time": 24960,
		"track": 4
	},
	{
		"deltaTime": 0,
		"channel": 2,
		"type": "channel",
		"noteNumber": 63,
		"velocity": 127,
		"subtype": "noteOn",
		"time": 24960,
		"track": 4
	},
	{
		"deltaTime": 0,
		"channel": 9,
		"type": "channel",
		"noteNumber": 42,
		"velocity": 127,
		"subtype": "noteOn",
		"time": 24960,
		"track": 5
	},
	{
		"deltaTime": 0,
		"channel": 9,
		"type": "channel",
		"noteNumber": 35,
		"velocity": 127,
		"subtype": "noteOn",
		"time": 24960,
		"track": 5
	},
	{
		"deltaTime": 60,
		"channel": 9,
		"type": "channel",
		"noteNumber": 36,
		"velocity": 127,
		"subtype": "noteOn",
		"time": 24960,
		"track": 5
	},
	{
		"deltaTime": 0,
		"channel": 9,
		"type": "channel",
		"subtype": "noteOff",
		"noteNumber": 36,
		"velocity": 0,
		"time": 25020,
		"track": 5
	},
	{
		"deltaTime": 0,
		"channel": 9,
		"type": "channel",
		"subtype": "noteOff",
		"noteNumber": 35,
		"velocity": 0,
		"time": 25020,
		"track": 5
	},
	{
		"deltaTime": 60,
		"channel": 9,
		"type": "channel",
		"subtype": "noteOff",
		"noteNumber": 42,
		"velocity": 0,
		"time": 25020,
		"track": 5
	},
	{
		"deltaTime": 60,
		"channel": 9,
		"type": "channel",
		"noteNumber": 42,
		"velocity": 127,
		"subtype": "noteOn",
		"time": 25080,
		"track": 5
	},
	{
		"deltaTime": 60,
		"channel": 9,
		"type": "channel",
		"subtype": "noteOff",
		"noteNumber": 42,
		"velocity": 0,
		"time": 25140,
		"track": 5
	},
	{
		"deltaTime": 0,
		"channel": 1,
		"type": "channel",
		"subtype": "noteOff",
		"noteNumber": 63,
		"velocity": 0,
		"time": 25200,
		"track": 3
	},
	{
		"deltaTime": 0,
		"channel": 9,
		"type": "channel",
		"noteNumber": 42,
		"velocity": 127,
		"subtype": "noteOn",
		"time": 25200,
		"track": 5
	},
	{
		"deltaTime": 0,
		"channel": 9,
		"type": "channel",
		"noteNumber": 36,
		"velocity": 127,
		"subtype": "noteOn",
		"time": 25200,
		"track": 5
	},
	{
		"deltaTime": 60,
		"channel": 9,
		"type": "channel",
		"noteNumber": 35,
		"velocity": 127,
		"subtype": "noteOn",
		"time": 25200,
		"track": 5
	},
	{
		"deltaTime": 0,
		"channel": 9,
		"type": "channel",
		"subtype": "noteOff",
		"noteNumber": 35,
		"velocity": 0,
		"time": 25260,
		"track": 5
	},
	{
		"deltaTime": 0,
		"channel": 9,
		"type": "channel",
		"subtype": "noteOff",
		"noteNumber": 36,
		"velocity": 0,
		"time": 25260,
		"track": 5
	},
	{
		"deltaTime": 60,
		"channel": 9,
		"type": "channel",
		"subtype": "noteOff",
		"noteNumber": 42,
		"velocity": 0,
		"time": 25260,
		"track": 5
	},
	{
		"deltaTime": 0,
		"channel": 2,
		"type": "channel",
		"subtype": "noteOff",
		"noteNumber": 63,
		"velocity": 0,
		"time": 25320,
		"track": 4
	},
	{
		"deltaTime": 0,
		"channel": 2,
		"type": "channel",
		"subtype": "noteOff",
		"noteNumber": 59,
		"velocity": 0,
		"time": 25320,
		"track": 4
	},
	{
		"deltaTime": 0,
		"channel": 2,
		"type": "channel",
		"subtype": "noteOff",
		"noteNumber": 56,
		"velocity": 0,
		"time": 25320,
		"track": 4
	},
	{
		"deltaTime": 0,
		"channel": 2,
		"type": "channel",
		"subtype": "noteOff",
		"noteNumber": 51,
		"velocity": 0,
		"time": 25320,
		"track": 4
	},
	{
		"deltaTime": 0,
		"channel": 2,
		"type": "channel",
		"subtype": "noteOff",
		"noteNumber": 44,
		"velocity": 0,
		"time": 25320,
		"track": 4
	},
	{
		"deltaTime": 0,
		"channel": 2,
		"type": "channel",
		"noteNumber": 56,
		"velocity": 127,
		"subtype": "noteOn",
		"time": 25320,
		"track": 4
	},
	{
		"deltaTime": 0,
		"channel": 2,
		"type": "channel",
		"noteNumber": 59,
		"velocity": 127,
		"subtype": "noteOn",
		"time": 25320,
		"track": 4
	},
	{
		"deltaTime": 60,
		"channel": 9,
		"type": "channel",
		"noteNumber": 42,
		"velocity": 127,
		"subtype": "noteOn",
		"time": 25320,
		"track": 5
	},
	{
		"deltaTime": 60,
		"channel": 9,
		"type": "channel",
		"subtype": "noteOff",
		"noteNumber": 42,
		"velocity": 0,
		"time": 25380,
		"track": 5
	},
	{
		"deltaTime": 0,
		"channel": 1,
		"type": "channel",
		"noteNumber": 66,
		"velocity": 127,
		"subtype": "noteOn",
		"time": 25440,
		"track": 3
	},
	{
		"deltaTime": 0,
		"channel": 2,
		"type": "channel",
		"subtype": "noteOff",
		"noteNumber": 59,
		"velocity": 0,
		"time": 25440,
		"track": 4
	},
	{
		"deltaTime": 0,
		"channel": 2,
		"type": "channel",
		"subtype": "noteOff",
		"noteNumber": 56,
		"velocity": 0,
		"time": 25440,
		"track": 4
	},
	{
		"deltaTime": 0,
		"channel": 2,
		"type": "channel",
		"noteNumber": 51,
		"velocity": 127,
		"subtype": "noteOn",
		"time": 25440,
		"track": 4
	},
	{
		"deltaTime": 0,
		"channel": 2,
		"type": "channel",
		"noteNumber": 59,
		"velocity": 127,
		"subtype": "noteOn",
		"time": 25440,
		"track": 4
	},
	{
		"deltaTime": 0,
		"channel": 2,
		"type": "channel",
		"noteNumber": 63,
		"velocity": 127,
		"subtype": "noteOn",
		"time": 25440,
		"track": 4
	},
	{
		"deltaTime": 0,
		"channel": 9,
		"type": "channel",
		"noteNumber": 42,
		"velocity": 127,
		"subtype": "noteOn",
		"time": 25440,
		"track": 5
	},
	{
		"deltaTime": 0,
		"channel": 9,
		"type": "channel",
		"noteNumber": 38,
		"velocity": 127,
		"subtype": "noteOn",
		"time": 25440,
		"track": 5
	},
	{
		"deltaTime": 60,
		"channel": 9,
		"type": "channel",
		"noteNumber": 40,
		"velocity": 127,
		"subtype": "noteOn",
		"time": 25440,
		"track": 5
	},
	{
		"deltaTime": 0,
		"channel": 9,
		"type": "channel",
		"subtype": "noteOff",
		"noteNumber": 40,
		"velocity": 0,
		"time": 25500,
		"track": 5
	},
	{
		"deltaTime": 0,
		"channel": 9,
		"type": "channel",
		"subtype": "noteOff",
		"noteNumber": 38,
		"velocity": 0,
		"time": 25500,
		"track": 5
	},
	{
		"deltaTime": 60,
		"channel": 9,
		"type": "channel",
		"subtype": "noteOff",
		"noteNumber": 42,
		"velocity": 0,
		"time": 25500,
		"track": 5
	},
	{
		"deltaTime": 0,
		"channel": 1,
		"type": "channel",
		"subtype": "noteOff",
		"noteNumber": 66,
		"velocity": 0,
		"time": 25560,
		"track": 3
	},
	{
		"deltaTime": 0,
		"channel": 1,
		"type": "channel",
		"noteNumber": 66,
		"velocity": 127,
		"subtype": "noteOn",
		"time": 25560,
		"track": 3
	},
	{
		"deltaTime": 60,
		"channel": 9,
		"type": "channel",
		"noteNumber": 42,
		"velocity": 127,
		"subtype": "noteOn",
		"time": 25560,
		"track": 5
	},
	{
		"deltaTime": 60,
		"channel": 9,
		"type": "channel",
		"subtype": "noteOff",
		"noteNumber": 42,
		"velocity": 0,
		"time": 25620,
		"track": 5
	},
	{
		"deltaTime": 60,
		"channel": 9,
		"type": "channel",
		"noteNumber": 42,
		"velocity": 127,
		"subtype": "noteOn",
		"time": 25680,
		"track": 5
	},
	{
		"deltaTime": 60,
		"channel": 9,
		"type": "channel",
		"subtype": "noteOff",
		"noteNumber": 42,
		"velocity": 0,
		"time": 25740,
		"track": 5
	},
	{
		"deltaTime": 0,
		"channel": 1,
		"type": "channel",
		"subtype": "noteOff",
		"noteNumber": 66,
		"velocity": 0,
		"time": 25800,
		"track": 3
	},
	{
		"deltaTime": 0,
		"channel": 1,
		"type": "channel",
		"noteNumber": 66,
		"velocity": 127,
		"subtype": "noteOn",
		"time": 25800,
		"track": 3
	},
	{
		"deltaTime": 0,
		"channel": 9,
		"type": "channel",
		"noteNumber": 42,
		"velocity": 127,
		"subtype": "noteOn",
		"time": 25800,
		"track": 5
	},
	{
		"deltaTime": 0,
		"channel": 9,
		"type": "channel",
		"noteNumber": 36,
		"velocity": 127,
		"subtype": "noteOn",
		"time": 25800,
		"track": 5
	},
	{
		"deltaTime": 60,
		"channel": 9,
		"type": "channel",
		"noteNumber": 35,
		"velocity": 127,
		"subtype": "noteOn",
		"time": 25800,
		"track": 5
	},
	{
		"deltaTime": 0,
		"channel": 9,
		"type": "channel",
		"subtype": "noteOff",
		"noteNumber": 35,
		"velocity": 0,
		"time": 25860,
		"track": 5
	},
	{
		"deltaTime": 0,
		"channel": 9,
		"type": "channel",
		"subtype": "noteOff",
		"noteNumber": 36,
		"velocity": 0,
		"time": 25860,
		"track": 5
	},
	{
		"deltaTime": 60,
		"channel": 9,
		"type": "channel",
		"subtype": "noteOff",
		"noteNumber": 42,
		"velocity": 0,
		"time": 25860,
		"track": 5
	},
	{
		"deltaTime": 0,
		"channel": 0,
		"type": "channel",
		"subtype": "noteOff",
		"noteNumber": 32,
		"velocity": 0,
		"time": 25920,
		"track": 2
	},
	{
		"deltaTime": 0,
		"channel": 0,
		"type": "channel",
		"noteNumber": 40,
		"velocity": 127,
		"subtype": "noteOn",
		"time": 25920,
		"track": 2
	},
	{
		"deltaTime": 0,
		"channel": 2,
		"type": "channel",
		"subtype": "noteOff",
		"noteNumber": 63,
		"velocity": 0,
		"time": 25920,
		"track": 4
	},
	{
		"deltaTime": 0,
		"channel": 2,
		"type": "channel",
		"subtype": "noteOff",
		"noteNumber": 59,
		"velocity": 0,
		"time": 25920,
		"track": 4
	},
	{
		"deltaTime": 0,
		"channel": 2,
		"type": "channel",
		"subtype": "noteOff",
		"noteNumber": 51,
		"velocity": 0,
		"time": 25920,
		"track": 4
	},
	{
		"deltaTime": 0,
		"channel": 2,
		"type": "channel",
		"noteNumber": 40,
		"velocity": 127,
		"subtype": "noteOn",
		"time": 25920,
		"track": 4
	},
	{
		"deltaTime": 0,
		"channel": 2,
		"type": "channel",
		"noteNumber": 47,
		"velocity": 127,
		"subtype": "noteOn",
		"time": 25920,
		"track": 4
	},
	{
		"deltaTime": 0,
		"channel": 2,
		"type": "channel",
		"noteNumber": 52,
		"velocity": 127,
		"subtype": "noteOn",
		"time": 25920,
		"track": 4
	},
	{
		"deltaTime": 0,
		"channel": 2,
		"type": "channel",
		"noteNumber": 56,
		"velocity": 127,
		"subtype": "noteOn",
		"time": 25920,
		"track": 4
	},
	{
		"deltaTime": 60,
		"channel": 9,
		"type": "channel",
		"noteNumber": 42,
		"velocity": 127,
		"subtype": "noteOn",
		"time": 25920,
		"track": 5
	},
	{
		"deltaTime": 60,
		"channel": 9,
		"type": "channel",
		"subtype": "noteOff",
		"noteNumber": 42,
		"velocity": 0,
		"time": 25980,
		"track": 5
	},
	{
		"deltaTime": 0,
		"channel": 1,
		"type": "channel",
		"subtype": "noteOff",
		"noteNumber": 66,
		"velocity": 0,
		"time": 26040,
		"track": 3
	},
	{
		"deltaTime": 0,
		"channel": 1,
		"type": "channel",
		"noteNumber": 66,
		"velocity": 127,
		"subtype": "noteOn",
		"time": 26040,
		"track": 3
	},
	{
		"deltaTime": 60,
		"channel": 9,
		"type": "channel",
		"noteNumber": 42,
		"velocity": 127,
		"subtype": "noteOn",
		"time": 26040,
		"track": 5
	},
	{
		"deltaTime": 60,
		"channel": 9,
		"type": "channel",
		"subtype": "noteOff",
		"noteNumber": 42,
		"velocity": 0,
		"time": 26100,
		"track": 5
	},
	{
		"deltaTime": 0,
		"channel": 1,
		"type": "channel",
		"subtype": "noteOff",
		"noteNumber": 66,
		"velocity": 0,
		"time": 26160,
		"track": 3
	},
	{
		"deltaTime": 0,
		"channel": 1,
		"type": "channel",
		"noteNumber": 68,
		"velocity": 127,
		"subtype": "noteOn",
		"time": 26160,
		"track": 3
	},
	{
		"deltaTime": 0,
		"channel": 9,
		"type": "channel",
		"noteNumber": 42,
		"velocity": 127,
		"subtype": "noteOn",
		"time": 26160,
		"track": 5
	},
	{
		"deltaTime": 0,
		"channel": 9,
		"type": "channel",
		"noteNumber": 36,
		"velocity": 127,
		"subtype": "noteOn",
		"time": 26160,
		"track": 5
	},
	{
		"deltaTime": 60,
		"channel": 9,
		"type": "channel",
		"noteNumber": 35,
		"velocity": 127,
		"subtype": "noteOn",
		"time": 26160,
		"track": 5
	},
	{
		"deltaTime": 0,
		"channel": 9,
		"type": "channel",
		"subtype": "noteOff",
		"noteNumber": 35,
		"velocity": 0,
		"time": 26220,
		"track": 5
	},
	{
		"deltaTime": 0,
		"channel": 9,
		"type": "channel",
		"subtype": "noteOff",
		"noteNumber": 36,
		"velocity": 0,
		"time": 26220,
		"track": 5
	},
	{
		"deltaTime": 60,
		"channel": 9,
		"type": "channel",
		"subtype": "noteOff",
		"noteNumber": 42,
		"velocity": 0,
		"time": 26220,
		"track": 5
	},
	{
		"deltaTime": 0,
		"channel": 1,
		"type": "channel",
		"subtype": "noteOff",
		"noteNumber": 68,
		"velocity": 0,
		"time": 26280,
		"track": 3
	},
	{
		"deltaTime": 0,
		"channel": 1,
		"type": "channel",
		"noteNumber": 61,
		"velocity": 127,
		"subtype": "noteOn",
		"time": 26280,
		"track": 3
	},
	{
		"deltaTime": 0,
		"channel": 2,
		"type": "channel",
		"subtype": "noteOff",
		"noteNumber": 56,
		"velocity": 0,
		"time": 26280,
		"track": 4
	},
	{
		"deltaTime": 0,
		"channel": 2,
		"type": "channel",
		"subtype": "noteOff",
		"noteNumber": 52,
		"velocity": 0,
		"time": 26280,
		"track": 4
	},
	{
		"deltaTime": 0,
		"channel": 2,
		"type": "channel",
		"subtype": "noteOff",
		"noteNumber": 47,
		"velocity": 0,
		"time": 26280,
		"track": 4
	},
	{
		"deltaTime": 0,
		"channel": 2,
		"type": "channel",
		"subtype": "noteOff",
		"noteNumber": 40,
		"velocity": 0,
		"time": 26280,
		"track": 4
	},
	{
		"deltaTime": 0,
		"channel": 2,
		"type": "channel",
		"noteNumber": 52,
		"velocity": 127,
		"subtype": "noteOn",
		"time": 26280,
		"track": 4
	},
	{
		"deltaTime": 0,
		"channel": 2,
		"type": "channel",
		"noteNumber": 56,
		"velocity": 127,
		"subtype": "noteOn",
		"time": 26280,
		"track": 4
	},
	{
		"deltaTime": 60,
		"channel": 9,
		"type": "channel",
		"noteNumber": 42,
		"velocity": 127,
		"subtype": "noteOn",
		"time": 26280,
		"track": 5
	},
	{
		"deltaTime": 60,
		"channel": 9,
		"type": "channel",
		"subtype": "noteOff",
		"noteNumber": 42,
		"velocity": 0,
		"time": 26340,
		"track": 5
	},
	{
		"deltaTime": 0,
		"channel": 2,
		"type": "channel",
		"subtype": "noteOff",
		"noteNumber": 56,
		"velocity": 0,
		"time": 26400,
		"track": 4
	},
	{
		"deltaTime": 0,
		"channel": 2,
		"type": "channel",
		"subtype": "noteOff",
		"noteNumber": 52,
		"velocity": 0,
		"time": 26400,
		"track": 4
	},
	{
		"deltaTime": 0,
		"channel": 2,
		"type": "channel",
		"noteNumber": 40,
		"velocity": 127,
		"subtype": "noteOn",
		"time": 26400,
		"track": 4
	},
	{
		"deltaTime": 0,
		"channel": 2,
		"type": "channel",
		"noteNumber": 52,
		"velocity": 127,
		"subtype": "noteOn",
		"time": 26400,
		"track": 4
	},
	{
		"deltaTime": 0,
		"channel": 2,
		"type": "channel",
		"noteNumber": 56,
		"velocity": 127,
		"subtype": "noteOn",
		"time": 26400,
		"track": 4
	},
	{
		"deltaTime": 0,
		"channel": 2,
		"type": "channel",
		"noteNumber": 59,
		"velocity": 127,
		"subtype": "noteOn",
		"time": 26400,
		"track": 4
	},
	{
		"deltaTime": 0,
		"channel": 9,
		"type": "channel",
		"noteNumber": 42,
		"velocity": 127,
		"subtype": "noteOn",
		"time": 26400,
		"track": 5
	},
	{
		"deltaTime": 0,
		"channel": 9,
		"type": "channel",
		"noteNumber": 40,
		"velocity": 127,
		"subtype": "noteOn",
		"time": 26400,
		"track": 5
	},
	{
		"deltaTime": 60,
		"channel": 9,
		"type": "channel",
		"noteNumber": 38,
		"velocity": 127,
		"subtype": "noteOn",
		"time": 26400,
		"track": 5
	},
	{
		"deltaTime": 0,
		"channel": 9,
		"type": "channel",
		"subtype": "noteOff",
		"noteNumber": 38,
		"velocity": 0,
		"time": 26460,
		"track": 5
	},
	{
		"deltaTime": 0,
		"channel": 9,
		"type": "channel",
		"subtype": "noteOff",
		"noteNumber": 40,
		"velocity": 0,
		"time": 26460,
		"track": 5
	},
	{
		"deltaTime": 60,
		"channel": 9,
		"type": "channel",
		"subtype": "noteOff",
		"noteNumber": 42,
		"velocity": 0,
		"time": 26460,
		"track": 5
	},
	{
		"deltaTime": 0,
		"channel": 1,
		"type": "channel",
		"subtype": "noteOff",
		"noteNumber": 61,
		"velocity": 0,
		"time": 26520,
		"track": 3
	},
	{
		"deltaTime": 0,
		"channel": 1,
		"type": "channel",
		"noteNumber": 61,
		"velocity": 127,
		"subtype": "noteOn",
		"time": 26520,
		"track": 3
	},
	{
		"deltaTime": 60,
		"channel": 9,
		"type": "channel",
		"noteNumber": 42,
		"velocity": 127,
		"subtype": "noteOn",
		"time": 26520,
		"track": 5
	},
	{
		"deltaTime": 60,
		"channel": 9,
		"type": "channel",
		"subtype": "noteOff",
		"noteNumber": 42,
		"velocity": 0,
		"time": 26580,
		"track": 5
	},
	{
		"deltaTime": 0,
		"channel": 1,
		"type": "channel",
		"subtype": "noteOff",
		"noteNumber": 61,
		"velocity": 0,
		"time": 26640,
		"track": 3
	},
	{
		"deltaTime": 0,
		"channel": 1,
		"type": "channel",
		"noteNumber": 59,
		"velocity": 127,
		"subtype": "noteOn",
		"time": 26640,
		"track": 3
	},
	{
		"deltaTime": 60,
		"channel": 9,
		"type": "channel",
		"noteNumber": 42,
		"velocity": 127,
		"subtype": "noteOn",
		"time": 26640,
		"track": 5
	},
	{
		"deltaTime": 60,
		"channel": 9,
		"type": "channel",
		"subtype": "noteOff",
		"noteNumber": 42,
		"velocity": 0,
		"time": 26700,
		"track": 5
	},
	{
		"deltaTime": 0,
		"channel": 1,
		"type": "channel",
		"subtype": "noteOff",
		"noteNumber": 59,
		"velocity": 0,
		"time": 26760,
		"track": 3
	},
	{
		"deltaTime": 0,
		"channel": 1,
		"type": "channel",
		"noteNumber": 63,
		"velocity": 127,
		"subtype": "noteOn",
		"time": 26760,
		"track": 3
	},
	{
		"deltaTime": 60,
		"channel": 9,
		"type": "channel",
		"noteNumber": 42,
		"velocity": 127,
		"subtype": "noteOn",
		"time": 26760,
		"track": 5
	},
	{
		"deltaTime": 60,
		"channel": 9,
		"type": "channel",
		"subtype": "noteOff",
		"noteNumber": 42,
		"velocity": 0,
		"time": 26820,
		"track": 5
	},
	{
		"deltaTime": 0,
		"channel": 0,
		"type": "channel",
		"subtype": "noteOff",
		"noteNumber": 40,
		"velocity": 0,
		"time": 26880,
		"track": 2
	},
	{
		"deltaTime": 0,
		"channel": 0,
		"type": "channel",
		"noteNumber": 42,
		"velocity": 127,
		"subtype": "noteOn",
		"time": 26880,
		"track": 2
	},
	{
		"deltaTime": 0,
		"channel": 2,
		"type": "channel",
		"subtype": "noteOff",
		"noteNumber": 59,
		"velocity": 0,
		"time": 26880,
		"track": 4
	},
	{
		"deltaTime": 0,
		"channel": 2,
		"type": "channel",
		"subtype": "noteOff",
		"noteNumber": 56,
		"velocity": 0,
		"time": 26880,
		"track": 4
	},
	{
		"deltaTime": 0,
		"channel": 2,
		"type": "channel",
		"subtype": "noteOff",
		"noteNumber": 52,
		"velocity": 0,
		"time": 26880,
		"track": 4
	},
	{
		"deltaTime": 0,
		"channel": 2,
		"type": "channel",
		"subtype": "noteOff",
		"noteNumber": 40,
		"velocity": 0,
		"time": 26880,
		"track": 4
	},
	{
		"deltaTime": 0,
		"channel": 2,
		"type": "channel",
		"noteNumber": 42,
		"velocity": 127,
		"subtype": "noteOn",
		"time": 26880,
		"track": 4
	},
	{
		"deltaTime": 0,
		"channel": 2,
		"type": "channel",
		"noteNumber": 49,
		"velocity": 127,
		"subtype": "noteOn",
		"time": 26880,
		"track": 4
	},
	{
		"deltaTime": 0,
		"channel": 2,
		"type": "channel",
		"noteNumber": 54,
		"velocity": 127,
		"subtype": "noteOn",
		"time": 26880,
		"track": 4
	},
	{
		"deltaTime": 0,
		"channel": 2,
		"type": "channel",
		"noteNumber": 58,
		"velocity": 127,
		"subtype": "noteOn",
		"time": 26880,
		"track": 4
	},
	{
		"deltaTime": 0,
		"channel": 9,
		"type": "channel",
		"noteNumber": 42,
		"velocity": 127,
		"subtype": "noteOn",
		"time": 26880,
		"track": 5
	},
	{
		"deltaTime": 0,
		"channel": 9,
		"type": "channel",
		"noteNumber": 35,
		"velocity": 127,
		"subtype": "noteOn",
		"time": 26880,
		"track": 5
	},
	{
		"deltaTime": 60,
		"channel": 9,
		"type": "channel",
		"noteNumber": 36,
		"velocity": 127,
		"subtype": "noteOn",
		"time": 26880,
		"track": 5
	},
	{
		"deltaTime": 0,
		"channel": 9,
		"type": "channel",
		"subtype": "noteOff",
		"noteNumber": 36,
		"velocity": 0,
		"time": 26940,
		"track": 5
	},
	{
		"deltaTime": 0,
		"channel": 9,
		"type": "channel",
		"subtype": "noteOff",
		"noteNumber": 35,
		"velocity": 0,
		"time": 26940,
		"track": 5
	},
	{
		"deltaTime": 60,
		"channel": 9,
		"type": "channel",
		"subtype": "noteOff",
		"noteNumber": 42,
		"velocity": 0,
		"time": 26940,
		"track": 5
	},
	{
		"deltaTime": 0,
		"channel": 1,
		"type": "channel",
		"subtype": "noteOff",
		"noteNumber": 63,
		"velocity": 0,
		"time": 27000,
		"track": 3
	},
	{
		"deltaTime": 0,
		"channel": 1,
		"type": "channel",
		"noteNumber": 61,
		"velocity": 127,
		"subtype": "noteOn",
		"time": 27000,
		"track": 3
	},
	{
		"deltaTime": 60,
		"channel": 9,
		"type": "channel",
		"noteNumber": 42,
		"velocity": 127,
		"subtype": "noteOn",
		"time": 27000,
		"track": 5
	},
	{
		"deltaTime": 60,
		"channel": 9,
		"type": "channel",
		"subtype": "noteOff",
		"noteNumber": 42,
		"velocity": 0,
		"time": 27060,
		"track": 5
	},
	{
		"deltaTime": 0,
		"channel": 9,
		"type": "channel",
		"noteNumber": 42,
		"velocity": 127,
		"subtype": "noteOn",
		"time": 27120,
		"track": 5
	},
	{
		"deltaTime": 0,
		"channel": 9,
		"type": "channel",
		"noteNumber": 36,
		"velocity": 127,
		"subtype": "noteOn",
		"time": 27120,
		"track": 5
	},
	{
		"deltaTime": 60,
		"channel": 9,
		"type": "channel",
		"noteNumber": 35,
		"velocity": 127,
		"subtype": "noteOn",
		"time": 27120,
		"track": 5
	},
	{
		"deltaTime": 0,
		"channel": 9,
		"type": "channel",
		"subtype": "noteOff",
		"noteNumber": 35,
		"velocity": 0,
		"time": 27180,
		"track": 5
	},
	{
		"deltaTime": 0,
		"channel": 9,
		"type": "channel",
		"subtype": "noteOff",
		"noteNumber": 36,
		"velocity": 0,
		"time": 27180,
		"track": 5
	},
	{
		"deltaTime": 60,
		"channel": 9,
		"type": "channel",
		"subtype": "noteOff",
		"noteNumber": 42,
		"velocity": 0,
		"time": 27180,
		"track": 5
	},
	{
		"deltaTime": 0,
		"channel": 1,
		"type": "channel",
		"subtype": "noteOff",
		"noteNumber": 61,
		"velocity": 0,
		"time": 27240,
		"track": 3
	},
	{
		"deltaTime": 0,
		"channel": 1,
		"type": "channel",
		"noteNumber": 61,
		"velocity": 127,
		"subtype": "noteOn",
		"time": 27240,
		"track": 3
	},
	{
		"deltaTime": 0,
		"channel": 2,
		"type": "channel",
		"subtype": "noteOff",
		"noteNumber": 58,
		"velocity": 0,
		"time": 27240,
		"track": 4
	},
	{
		"deltaTime": 0,
		"channel": 2,
		"type": "channel",
		"subtype": "noteOff",
		"noteNumber": 54,
		"velocity": 0,
		"time": 27240,
		"track": 4
	},
	{
		"deltaTime": 0,
		"channel": 2,
		"type": "channel",
		"subtype": "noteOff",
		"noteNumber": 49,
		"velocity": 0,
		"time": 27240,
		"track": 4
	},
	{
		"deltaTime": 0,
		"channel": 2,
		"type": "channel",
		"subtype": "noteOff",
		"noteNumber": 42,
		"velocity": 0,
		"time": 27240,
		"track": 4
	},
	{
		"deltaTime": 0,
		"channel": 2,
		"type": "channel",
		"noteNumber": 54,
		"velocity": 127,
		"subtype": "noteOn",
		"time": 27240,
		"track": 4
	},
	{
		"deltaTime": 0,
		"channel": 2,
		"type": "channel",
		"noteNumber": 58,
		"velocity": 127,
		"subtype": "noteOn",
		"time": 27240,
		"track": 4
	},
	{
		"deltaTime": 60,
		"channel": 9,
		"type": "channel",
		"noteNumber": 42,
		"velocity": 127,
		"subtype": "noteOn",
		"time": 27240,
		"track": 5
	},
	{
		"deltaTime": 60,
		"channel": 9,
		"type": "channel",
		"subtype": "noteOff",
		"noteNumber": 42,
		"velocity": 0,
		"time": 27300,
		"track": 5
	},
	{
		"deltaTime": 0,
		"channel": 2,
		"type": "channel",
		"subtype": "noteOff",
		"noteNumber": 58,
		"velocity": 0,
		"time": 27360,
		"track": 4
	},
	{
		"deltaTime": 0,
		"channel": 2,
		"type": "channel",
		"subtype": "noteOff",
		"noteNumber": 54,
		"velocity": 0,
		"time": 27360,
		"track": 4
	},
	{
		"deltaTime": 0,
		"channel": 2,
		"type": "channel",
		"noteNumber": 42,
		"velocity": 127,
		"subtype": "noteOn",
		"time": 27360,
		"track": 4
	},
	{
		"deltaTime": 0,
		"channel": 2,
		"type": "channel",
		"noteNumber": 49,
		"velocity": 127,
		"subtype": "noteOn",
		"time": 27360,
		"track": 4
	},
	{
		"deltaTime": 0,
		"channel": 2,
		"type": "channel",
		"noteNumber": 58,
		"velocity": 127,
		"subtype": "noteOn",
		"time": 27360,
		"track": 4
	},
	{
		"deltaTime": 0,
		"channel": 2,
		"type": "channel",
		"noteNumber": 61,
		"velocity": 127,
		"subtype": "noteOn",
		"time": 27360,
		"track": 4
	},
	{
		"deltaTime": 0,
		"channel": 9,
		"type": "channel",
		"noteNumber": 42,
		"velocity": 127,
		"subtype": "noteOn",
		"time": 27360,
		"track": 5
	},
	{
		"deltaTime": 0,
		"channel": 9,
		"type": "channel",
		"noteNumber": 38,
		"velocity": 127,
		"subtype": "noteOn",
		"time": 27360,
		"track": 5
	},
	{
		"deltaTime": 60,
		"channel": 9,
		"type": "channel",
		"noteNumber": 40,
		"velocity": 127,
		"subtype": "noteOn",
		"time": 27360,
		"track": 5
	},
	{
		"deltaTime": 0,
		"channel": 9,
		"type": "channel",
		"subtype": "noteOff",
		"noteNumber": 40,
		"velocity": 0,
		"time": 27420,
		"track": 5
	},
	{
		"deltaTime": 0,
		"channel": 9,
		"type": "channel",
		"subtype": "noteOff",
		"noteNumber": 38,
		"velocity": 0,
		"time": 27420,
		"track": 5
	},
	{
		"deltaTime": 60,
		"channel": 9,
		"type": "channel",
		"subtype": "noteOff",
		"noteNumber": 42,
		"velocity": 0,
		"time": 27420,
		"track": 5
	},
	{
		"deltaTime": 0,
		"channel": 1,
		"type": "channel",
		"subtype": "noteOff",
		"noteNumber": 61,
		"velocity": 0,
		"time": 27480,
		"track": 3
	},
	{
		"deltaTime": 60,
		"channel": 9,
		"type": "channel",
		"noteNumber": 42,
		"velocity": 127,
		"subtype": "noteOn",
		"time": 27480,
		"track": 5
	},
	{
		"deltaTime": 60,
		"channel": 9,
		"type": "channel",
		"subtype": "noteOff",
		"noteNumber": 42,
		"velocity": 0,
		"time": 27540,
		"track": 5
	},
	{
		"deltaTime": 0,
		"channel": 1,
		"type": "channel",
		"noteNumber": 59,
		"velocity": 127,
		"subtype": "noteOn",
		"time": 27600,
		"track": 3
	},
	{
		"deltaTime": 60,
		"channel": 9,
		"type": "channel",
		"noteNumber": 42,
		"velocity": 127,
		"subtype": "noteOn",
		"time": 27600,
		"track": 5
	},
	{
		"deltaTime": 60,
		"channel": 9,
		"type": "channel",
		"subtype": "noteOff",
		"noteNumber": 42,
		"velocity": 0,
		"time": 27660,
		"track": 5
	},
	{
		"deltaTime": 0,
		"channel": 1,
		"type": "channel",
		"subtype": "noteOff",
		"noteNumber": 59,
		"velocity": 0,
		"time": 27720,
		"track": 3
	},
	{
		"deltaTime": 0,
		"channel": 1,
		"type": "channel",
		"noteNumber": 61,
		"velocity": 127,
		"subtype": "noteOn",
		"time": 27720,
		"track": 3
	},
	{
		"deltaTime": 0,
		"channel": 9,
		"type": "channel",
		"noteNumber": 42,
		"velocity": 127,
		"subtype": "noteOn",
		"time": 27720,
		"track": 5
	},
	{
		"deltaTime": 0,
		"channel": 9,
		"type": "channel",
		"noteNumber": 36,
		"velocity": 127,
		"subtype": "noteOn",
		"time": 27720,
		"track": 5
	},
	{
		"deltaTime": 60,
		"channel": 9,
		"type": "channel",
		"noteNumber": 35,
		"velocity": 127,
		"subtype": "noteOn",
		"time": 27720,
		"track": 5
	},
	{
		"deltaTime": 0,
		"channel": 9,
		"type": "channel",
		"subtype": "noteOff",
		"noteNumber": 35,
		"velocity": 0,
		"time": 27780,
		"track": 5
	},
	{
		"deltaTime": 0,
		"channel": 9,
		"type": "channel",
		"subtype": "noteOff",
		"noteNumber": 36,
		"velocity": 0,
		"time": 27780,
		"track": 5
	},
	{
		"deltaTime": 60,
		"channel": 9,
		"type": "channel",
		"subtype": "noteOff",
		"noteNumber": 42,
		"velocity": 0,
		"time": 27780,
		"track": 5
	},
	{
		"deltaTime": 0,
		"channel": 0,
		"type": "channel",
		"subtype": "noteOff",
		"noteNumber": 42,
		"velocity": 0,
		"time": 27840,
		"track": 2
	},
	{
		"deltaTime": 0,
		"channel": 0,
		"type": "channel",
		"noteNumber": 35,
		"velocity": 127,
		"subtype": "noteOn",
		"time": 27840,
		"track": 2
	},
	{
		"deltaTime": 0,
		"channel": 1,
		"type": "channel",
		"subtype": "noteOff",
		"noteNumber": 61,
		"velocity": 0,
		"time": 27840,
		"track": 3
	},
	{
		"deltaTime": 0,
		"channel": 1,
		"type": "channel",
		"noteNumber": 63,
		"velocity": 127,
		"subtype": "noteOn",
		"time": 27840,
		"track": 3
	},
	{
		"deltaTime": 0,
		"channel": 2,
		"type": "channel",
		"subtype": "noteOff",
		"noteNumber": 61,
		"velocity": 0,
		"time": 27840,
		"track": 4
	},
	{
		"deltaTime": 0,
		"channel": 2,
		"type": "channel",
		"subtype": "noteOff",
		"noteNumber": 58,
		"velocity": 0,
		"time": 27840,
		"track": 4
	},
	{
		"deltaTime": 0,
		"channel": 2,
		"type": "channel",
		"subtype": "noteOff",
		"noteNumber": 49,
		"velocity": 0,
		"time": 27840,
		"track": 4
	},
	{
		"deltaTime": 0,
		"channel": 2,
		"type": "channel",
		"subtype": "noteOff",
		"noteNumber": 42,
		"velocity": 0,
		"time": 27840,
		"track": 4
	},
	{
		"deltaTime": 0,
		"channel": 2,
		"type": "channel",
		"noteNumber": 47,
		"velocity": 127,
		"subtype": "noteOn",
		"time": 27840,
		"track": 4
	},
	{
		"deltaTime": 0,
		"channel": 2,
		"type": "channel",
		"noteNumber": 54,
		"velocity": 127,
		"subtype": "noteOn",
		"time": 27840,
		"track": 4
	},
	{
		"deltaTime": 0,
		"channel": 2,
		"type": "channel",
		"noteNumber": 59,
		"velocity": 127,
		"subtype": "noteOn",
		"time": 27840,
		"track": 4
	},
	{
		"deltaTime": 0,
		"channel": 2,
		"type": "channel",
		"noteNumber": 66,
		"velocity": 127,
		"subtype": "noteOn",
		"time": 27840,
		"track": 4
	},
	{
		"deltaTime": 60,
		"channel": 9,
		"type": "channel",
		"noteNumber": 42,
		"velocity": 127,
		"subtype": "noteOn",
		"time": 27840,
		"track": 5
	},
	{
		"deltaTime": 60,
		"channel": 9,
		"type": "channel",
		"subtype": "noteOff",
		"noteNumber": 42,
		"velocity": 0,
		"time": 27900,
		"track": 5
	},
	{
		"deltaTime": 60,
		"channel": 9,
		"type": "channel",
		"noteNumber": 42,
		"velocity": 127,
		"subtype": "noteOn",
		"time": 27960,
		"track": 5
	},
	{
		"deltaTime": 60,
		"channel": 9,
		"type": "channel",
		"subtype": "noteOff",
		"noteNumber": 42,
		"velocity": 0,
		"time": 28020,
		"track": 5
	},
	{
		"deltaTime": 0,
		"channel": 1,
		"type": "channel",
		"subtype": "noteOff",
		"noteNumber": 63,
		"velocity": 0,
		"time": 28080,
		"track": 3
	},
	{
		"deltaTime": 0,
		"channel": 1,
		"type": "channel",
		"noteNumber": 64,
		"velocity": 127,
		"subtype": "noteOn",
		"time": 28080,
		"track": 3
	},
	{
		"deltaTime": 0,
		"channel": 2,
		"type": "channel",
		"subtype": "noteOff",
		"noteNumber": 66,
		"velocity": 0,
		"time": 28080,
		"track": 4
	},
	{
		"deltaTime": 0,
		"channel": 2,
		"type": "channel",
		"subtype": "noteOff",
		"noteNumber": 59,
		"velocity": 0,
		"time": 28080,
		"track": 4
	},
	{
		"deltaTime": 0,
		"channel": 2,
		"type": "channel",
		"subtype": "noteOff",
		"noteNumber": 54,
		"velocity": 0,
		"time": 28080,
		"track": 4
	},
	{
		"deltaTime": 0,
		"channel": 2,
		"type": "channel",
		"subtype": "noteOff",
		"noteNumber": 47,
		"velocity": 0,
		"time": 28080,
		"track": 4
	},
	{
		"deltaTime": 0,
		"channel": 2,
		"type": "channel",
		"noteNumber": 54,
		"velocity": 127,
		"subtype": "noteOn",
		"time": 28080,
		"track": 4
	},
	{
		"deltaTime": 0,
		"channel": 2,
		"type": "channel",
		"noteNumber": 59,
		"velocity": 127,
		"subtype": "noteOn",
		"time": 28080,
		"track": 4
	},
	{
		"deltaTime": 0,
		"channel": 2,
		"type": "channel",
		"noteNumber": 63,
		"velocity": 127,
		"subtype": "noteOn",
		"time": 28080,
		"track": 4
	},
	{
		"deltaTime": 0,
		"channel": 9,
		"type": "channel",
		"noteNumber": 42,
		"velocity": 127,
		"subtype": "noteOn",
		"time": 28080,
		"track": 5
	},
	{
		"deltaTime": 0,
		"channel": 9,
		"type": "channel",
		"noteNumber": 36,
		"velocity": 127,
		"subtype": "noteOn",
		"time": 28080,
		"track": 5
	},
	{
		"deltaTime": 60,
		"channel": 9,
		"type": "channel",
		"noteNumber": 35,
		"velocity": 127,
		"subtype": "noteOn",
		"time": 28080,
		"track": 5
	},
	{
		"deltaTime": 0,
		"channel": 9,
		"type": "channel",
		"subtype": "noteOff",
		"noteNumber": 35,
		"velocity": 0,
		"time": 28140,
		"track": 5
	},
	{
		"deltaTime": 0,
		"channel": 9,
		"type": "channel",
		"subtype": "noteOff",
		"noteNumber": 36,
		"velocity": 0,
		"time": 28140,
		"track": 5
	},
	{
		"deltaTime": 60,
		"channel": 9,
		"type": "channel",
		"subtype": "noteOff",
		"noteNumber": 42,
		"velocity": 0,
		"time": 28140,
		"track": 5
	},
	{
		"deltaTime": 0,
		"channel": 1,
		"type": "channel",
		"subtype": "noteOff",
		"noteNumber": 64,
		"velocity": 0,
		"time": 28200,
		"track": 3
	},
	{
		"deltaTime": 0,
		"channel": 1,
		"type": "channel",
		"noteNumber": 63,
		"velocity": 127,
		"subtype": "noteOn",
		"time": 28200,
		"track": 3
	},
	{
		"deltaTime": 60,
		"channel": 9,
		"type": "channel",
		"noteNumber": 42,
		"velocity": 127,
		"subtype": "noteOn",
		"time": 28200,
		"track": 5
	},
	{
		"deltaTime": 60,
		"channel": 9,
		"type": "channel",
		"subtype": "noteOff",
		"noteNumber": 42,
		"velocity": 0,
		"time": 28260,
		"track": 5
	},
	{
		"deltaTime": 0,
		"channel": 0,
		"type": "channel",
		"subtype": "noteOff",
		"noteNumber": 35,
		"velocity": 0,
		"time": 28320,
		"track": 2
	},
	{
		"deltaTime": 0,
		"channel": 0,
		"type": "channel",
		"noteNumber": 34,
		"velocity": 127,
		"subtype": "noteOn",
		"time": 28320,
		"track": 2
	},
	{
		"deltaTime": 0,
		"channel": 2,
		"type": "channel",
		"subtype": "noteOff",
		"noteNumber": 63,
		"velocity": 0,
		"time": 28320,
		"track": 4
	},
	{
		"deltaTime": 0,
		"channel": 2,
		"type": "channel",
		"subtype": "noteOff",
		"noteNumber": 59,
		"velocity": 0,
		"time": 28320,
		"track": 4
	},
	{
		"deltaTime": 0,
		"channel": 2,
		"type": "channel",
		"subtype": "noteOff",
		"noteNumber": 54,
		"velocity": 0,
		"time": 28320,
		"track": 4
	},
	{
		"deltaTime": 0,
		"channel": 2,
		"type": "channel",
		"noteNumber": 46,
		"velocity": 127,
		"subtype": "noteOn",
		"time": 28320,
		"track": 4
	},
	{
		"deltaTime": 0,
		"channel": 2,
		"type": "channel",
		"noteNumber": 54,
		"velocity": 127,
		"subtype": "noteOn",
		"time": 28320,
		"track": 4
	},
	{
		"deltaTime": 0,
		"channel": 9,
		"type": "channel",
		"noteNumber": 42,
		"velocity": 127,
		"subtype": "noteOn",
		"time": 28320,
		"track": 5
	},
	{
		"deltaTime": 0,
		"channel": 9,
		"type": "channel",
		"noteNumber": 40,
		"velocity": 127,
		"subtype": "noteOn",
		"time": 28320,
		"track": 5
	},
	{
		"deltaTime": 60,
		"channel": 9,
		"type": "channel",
		"noteNumber": 38,
		"velocity": 127,
		"subtype": "noteOn",
		"time": 28320,
		"track": 5
	},
	{
		"deltaTime": 0,
		"channel": 9,
		"type": "channel",
		"subtype": "noteOff",
		"noteNumber": 38,
		"velocity": 0,
		"time": 28380,
		"track": 5
	},
	{
		"deltaTime": 0,
		"channel": 9,
		"type": "channel",
		"subtype": "noteOff",
		"noteNumber": 40,
		"velocity": 0,
		"time": 28380,
		"track": 5
	},
	{
		"deltaTime": 60,
		"channel": 9,
		"type": "channel",
		"subtype": "noteOff",
		"noteNumber": 42,
		"velocity": 0,
		"time": 28380,
		"track": 5
	},
	{
		"deltaTime": 0,
		"channel": 1,
		"type": "channel",
		"subtype": "noteOff",
		"noteNumber": 63,
		"velocity": 0,
		"time": 28440,
		"track": 3
	},
	{
		"deltaTime": 0,
		"channel": 1,
		"type": "channel",
		"noteNumber": 63,
		"velocity": 127,
		"subtype": "noteOn",
		"time": 28440,
		"track": 3
	},
	{
		"deltaTime": 60,
		"channel": 9,
		"type": "channel",
		"noteNumber": 42,
		"velocity": 127,
		"subtype": "noteOn",
		"time": 28440,
		"track": 5
	},
	{
		"deltaTime": 60,
		"channel": 9,
		"type": "channel",
		"subtype": "noteOff",
		"noteNumber": 42,
		"velocity": 0,
		"time": 28500,
		"track": 5
	},
	{
		"deltaTime": 0,
		"channel": 1,
		"type": "channel",
		"subtype": "noteOff",
		"noteNumber": 63,
		"velocity": 0,
		"time": 28560,
		"track": 3
	},
	{
		"deltaTime": 0,
		"channel": 1,
		"type": "channel",
		"noteNumber": 61,
		"velocity": 127,
		"subtype": "noteOn",
		"time": 28560,
		"track": 3
	},
	{
		"deltaTime": 0,
		"channel": 2,
		"type": "channel",
		"subtype": "noteOff",
		"noteNumber": 54,
		"velocity": 0,
		"time": 28560,
		"track": 4
	},
	{
		"deltaTime": 0,
		"channel": 2,
		"type": "channel",
		"subtype": "noteOff",
		"noteNumber": 46,
		"velocity": 0,
		"time": 28560,
		"track": 4
	},
	{
		"deltaTime": 0,
		"channel": 2,
		"type": "channel",
		"noteNumber": 54,
		"velocity": 127,
		"subtype": "noteOn",
		"time": 28560,
		"track": 4
	},
	{
		"deltaTime": 0,
		"channel": 2,
		"type": "channel",
		"noteNumber": 59,
		"velocity": 127,
		"subtype": "noteOn",
		"time": 28560,
		"track": 4
	},
	{
		"deltaTime": 0,
		"channel": 2,
		"type": "channel",
		"noteNumber": 63,
		"velocity": 127,
		"subtype": "noteOn",
		"time": 28560,
		"track": 4
	},
	{
		"deltaTime": 60,
		"channel": 9,
		"type": "channel",
		"noteNumber": 42,
		"velocity": 127,
		"subtype": "noteOn",
		"time": 28560,
		"track": 5
	},
	{
		"deltaTime": 60,
		"channel": 9,
		"type": "channel",
		"subtype": "noteOff",
		"noteNumber": 42,
		"velocity": 0,
		"time": 28620,
		"track": 5
	},
	{
		"deltaTime": 0,
		"channel": 1,
		"type": "channel",
		"subtype": "noteOff",
		"noteNumber": 61,
		"velocity": 0,
		"time": 28680,
		"track": 3
	},
	{
		"deltaTime": 0,
		"channel": 1,
		"type": "channel",
		"noteNumber": 63,
		"velocity": 127,
		"subtype": "noteOn",
		"time": 28680,
		"track": 3
	},
	{
		"deltaTime": 60,
		"channel": 9,
		"type": "channel",
		"noteNumber": 42,
		"velocity": 127,
		"subtype": "noteOn",
		"time": 28680,
		"track": 5
	},
	{
		"deltaTime": 60,
		"channel": 9,
		"type": "channel",
		"subtype": "noteOff",
		"noteNumber": 42,
		"velocity": 0,
		"time": 28740,
		"track": 5
	},
	{
		"deltaTime": 0,
		"channel": 0,
		"type": "channel",
		"subtype": "noteOff",
		"noteNumber": 34,
		"velocity": 0,
		"time": 28800,
		"track": 2
	},
	{
		"deltaTime": 0,
		"channel": 0,
		"type": "channel",
		"noteNumber": 32,
		"velocity": 127,
		"subtype": "noteOn",
		"time": 28800,
		"track": 2
	},
	{
		"deltaTime": 0,
		"channel": 2,
		"type": "channel",
		"subtype": "noteOff",
		"noteNumber": 63,
		"velocity": 0,
		"time": 28800,
		"track": 4
	},
	{
		"deltaTime": 0,
		"channel": 2,
		"type": "channel",
		"subtype": "noteOff",
		"noteNumber": 59,
		"velocity": 0,
		"time": 28800,
		"track": 4
	},
	{
		"deltaTime": 0,
		"channel": 2,
		"type": "channel",
		"subtype": "noteOff",
		"noteNumber": 54,
		"velocity": 0,
		"time": 28800,
		"track": 4
	},
	{
		"deltaTime": 0,
		"channel": 2,
		"type": "channel",
		"noteNumber": 44,
		"velocity": 127,
		"subtype": "noteOn",
		"time": 28800,
		"track": 4
	},
	{
		"deltaTime": 0,
		"channel": 2,
		"type": "channel",
		"noteNumber": 51,
		"velocity": 127,
		"subtype": "noteOn",
		"time": 28800,
		"track": 4
	},
	{
		"deltaTime": 0,
		"channel": 2,
		"type": "channel",
		"noteNumber": 56,
		"velocity": 127,
		"subtype": "noteOn",
		"time": 28800,
		"track": 4
	},
	{
		"deltaTime": 0,
		"channel": 2,
		"type": "channel",
		"noteNumber": 59,
		"velocity": 127,
		"subtype": "noteOn",
		"time": 28800,
		"track": 4
	},
	{
		"deltaTime": 0,
		"channel": 2,
		"type": "channel",
		"noteNumber": 63,
		"velocity": 127,
		"subtype": "noteOn",
		"time": 28800,
		"track": 4
	},
	{
		"deltaTime": 0,
		"channel": 9,
		"type": "channel",
		"noteNumber": 42,
		"velocity": 127,
		"subtype": "noteOn",
		"time": 28800,
		"track": 5
	},
	{
		"deltaTime": 0,
		"channel": 9,
		"type": "channel",
		"noteNumber": 35,
		"velocity": 127,
		"subtype": "noteOn",
		"time": 28800,
		"track": 5
	},
	{
		"deltaTime": 60,
		"channel": 9,
		"type": "channel",
		"noteNumber": 36,
		"velocity": 127,
		"subtype": "noteOn",
		"time": 28800,
		"track": 5
	},
	{
		"deltaTime": 0,
		"channel": 9,
		"type": "channel",
		"subtype": "noteOff",
		"noteNumber": 36,
		"velocity": 0,
		"time": 28860,
		"track": 5
	},
	{
		"deltaTime": 0,
		"channel": 9,
		"type": "channel",
		"subtype": "noteOff",
		"noteNumber": 35,
		"velocity": 0,
		"time": 28860,
		"track": 5
	},
	{
		"deltaTime": 60,
		"channel": 9,
		"type": "channel",
		"subtype": "noteOff",
		"noteNumber": 42,
		"velocity": 0,
		"time": 28860,
		"track": 5
	},
	{
		"deltaTime": 60,
		"channel": 9,
		"type": "channel",
		"noteNumber": 42,
		"velocity": 127,
		"subtype": "noteOn",
		"time": 28920,
		"track": 5
	},
	{
		"deltaTime": 60,
		"channel": 9,
		"type": "channel",
		"subtype": "noteOff",
		"noteNumber": 42,
		"velocity": 0,
		"time": 28980,
		"track": 5
	},
	{
		"deltaTime": 0,
		"channel": 1,
		"type": "channel",
		"subtype": "noteOff",
		"noteNumber": 63,
		"velocity": 0,
		"time": 29040,
		"track": 3
	},
	{
		"deltaTime": 0,
		"channel": 9,
		"type": "channel",
		"noteNumber": 42,
		"velocity": 127,
		"subtype": "noteOn",
		"time": 29040,
		"track": 5
	},
	{
		"deltaTime": 0,
		"channel": 9,
		"type": "channel",
		"noteNumber": 36,
		"velocity": 127,
		"subtype": "noteOn",
		"time": 29040,
		"track": 5
	},
	{
		"deltaTime": 60,
		"channel": 9,
		"type": "channel",
		"noteNumber": 35,
		"velocity": 127,
		"subtype": "noteOn",
		"time": 29040,
		"track": 5
	},
	{
		"deltaTime": 0,
		"channel": 9,
		"type": "channel",
		"subtype": "noteOff",
		"noteNumber": 35,
		"velocity": 0,
		"time": 29100,
		"track": 5
	},
	{
		"deltaTime": 0,
		"channel": 9,
		"type": "channel",
		"subtype": "noteOff",
		"noteNumber": 36,
		"velocity": 0,
		"time": 29100,
		"track": 5
	},
	{
		"deltaTime": 60,
		"channel": 9,
		"type": "channel",
		"subtype": "noteOff",
		"noteNumber": 42,
		"velocity": 0,
		"time": 29100,
		"track": 5
	},
	{
		"deltaTime": 0,
		"channel": 2,
		"type": "channel",
		"subtype": "noteOff",
		"noteNumber": 63,
		"velocity": 0,
		"time": 29160,
		"track": 4
	},
	{
		"deltaTime": 0,
		"channel": 2,
		"type": "channel",
		"subtype": "noteOff",
		"noteNumber": 59,
		"velocity": 0,
		"time": 29160,
		"track": 4
	},
	{
		"deltaTime": 0,
		"channel": 2,
		"type": "channel",
		"subtype": "noteOff",
		"noteNumber": 56,
		"velocity": 0,
		"time": 29160,
		"track": 4
	},
	{
		"deltaTime": 0,
		"channel": 2,
		"type": "channel",
		"subtype": "noteOff",
		"noteNumber": 51,
		"velocity": 0,
		"time": 29160,
		"track": 4
	},
	{
		"deltaTime": 0,
		"channel": 2,
		"type": "channel",
		"subtype": "noteOff",
		"noteNumber": 44,
		"velocity": 0,
		"time": 29160,
		"track": 4
	},
	{
		"deltaTime": 0,
		"channel": 2,
		"type": "channel",
		"noteNumber": 56,
		"velocity": 127,
		"subtype": "noteOn",
		"time": 29160,
		"track": 4
	},
	{
		"deltaTime": 0,
		"channel": 2,
		"type": "channel",
		"noteNumber": 59,
		"velocity": 127,
		"subtype": "noteOn",
		"time": 29160,
		"track": 4
	},
	{
		"deltaTime": 60,
		"channel": 9,
		"type": "channel",
		"noteNumber": 42,
		"velocity": 127,
		"subtype": "noteOn",
		"time": 29160,
		"track": 5
	},
	{
		"deltaTime": 60,
		"channel": 9,
		"type": "channel",
		"subtype": "noteOff",
		"noteNumber": 42,
		"velocity": 0,
		"time": 29220,
		"track": 5
	},
	{
		"deltaTime": 0,
		"channel": 1,
		"type": "channel",
		"noteNumber": 56,
		"velocity": 127,
		"subtype": "noteOn",
		"time": 29280,
		"track": 3
	},
	{
		"deltaTime": 0,
		"channel": 2,
		"type": "channel",
		"subtype": "noteOff",
		"noteNumber": 59,
		"velocity": 0,
		"time": 29280,
		"track": 4
	},
	{
		"deltaTime": 0,
		"channel": 2,
		"type": "channel",
		"subtype": "noteOff",
		"noteNumber": 56,
		"velocity": 0,
		"time": 29280,
		"track": 4
	},
	{
		"deltaTime": 0,
		"channel": 2,
		"type": "channel",
		"noteNumber": 51,
		"velocity": 127,
		"subtype": "noteOn",
		"time": 29280,
		"track": 4
	},
	{
		"deltaTime": 0,
		"channel": 2,
		"type": "channel",
		"noteNumber": 59,
		"velocity": 127,
		"subtype": "noteOn",
		"time": 29280,
		"track": 4
	},
	{
		"deltaTime": 0,
		"channel": 2,
		"type": "channel",
		"noteNumber": 63,
		"velocity": 127,
		"subtype": "noteOn",
		"time": 29280,
		"track": 4
	},
	{
		"deltaTime": 0,
		"channel": 9,
		"type": "channel",
		"noteNumber": 42,
		"velocity": 127,
		"subtype": "noteOn",
		"time": 29280,
		"track": 5
	},
	{
		"deltaTime": 0,
		"channel": 9,
		"type": "channel",
		"noteNumber": 38,
		"velocity": 127,
		"subtype": "noteOn",
		"time": 29280,
		"track": 5
	},
	{
		"deltaTime": 60,
		"channel": 9,
		"type": "channel",
		"noteNumber": 40,
		"velocity": 127,
		"subtype": "noteOn",
		"time": 29280,
		"track": 5
	},
	{
		"deltaTime": 0,
		"channel": 9,
		"type": "channel",
		"subtype": "noteOff",
		"noteNumber": 40,
		"velocity": 0,
		"time": 29340,
		"track": 5
	},
	{
		"deltaTime": 0,
		"channel": 9,
		"type": "channel",
		"subtype": "noteOff",
		"noteNumber": 38,
		"velocity": 0,
		"time": 29340,
		"track": 5
	},
	{
		"deltaTime": 60,
		"channel": 9,
		"type": "channel",
		"subtype": "noteOff",
		"noteNumber": 42,
		"velocity": 0,
		"time": 29340,
		"track": 5
	},
	{
		"deltaTime": 60,
		"channel": 9,
		"type": "channel",
		"noteNumber": 42,
		"velocity": 127,
		"subtype": "noteOn",
		"time": 29400,
		"track": 5
	},
	{
		"deltaTime": 60,
		"channel": 9,
		"type": "channel",
		"subtype": "noteOff",
		"noteNumber": 42,
		"velocity": 0,
		"time": 29460,
		"track": 5
	},
	{
		"deltaTime": 0,
		"channel": 0,
		"type": "channel",
		"subtype": "noteOff",
		"noteNumber": 32,
		"velocity": 0,
		"time": 29520,
		"track": 2
	},
	{
		"deltaTime": 0,
		"channel": 0,
		"type": "channel",
		"noteNumber": 32,
		"velocity": 127,
		"subtype": "noteOn",
		"time": 29520,
		"track": 2
	},
	{
		"deltaTime": 0,
		"channel": 1,
		"type": "channel",
		"subtype": "noteOff",
		"noteNumber": 56,
		"velocity": 0,
		"time": 29520,
		"track": 3
	},
	{
		"deltaTime": 0,
		"channel": 1,
		"type": "channel",
		"noteNumber": 63,
		"velocity": 127,
		"subtype": "noteOn",
		"time": 29520,
		"track": 3
	},
	{
		"deltaTime": 60,
		"channel": 9,
		"type": "channel",
		"noteNumber": 42,
		"velocity": 127,
		"subtype": "noteOn",
		"time": 29520,
		"track": 5
	},
	{
		"deltaTime": 60,
		"channel": 9,
		"type": "channel",
		"subtype": "noteOff",
		"noteNumber": 42,
		"velocity": 0,
		"time": 29580,
		"track": 5
	},
	{
		"deltaTime": 0,
		"channel": 1,
		"type": "channel",
		"subtype": "noteOff",
		"noteNumber": 63,
		"velocity": 0,
		"time": 29640,
		"track": 3
	},
	{
		"deltaTime": 0,
		"channel": 1,
		"type": "channel",
		"noteNumber": 61,
		"velocity": 127,
		"subtype": "noteOn",
		"time": 29640,
		"track": 3
	},
	{
		"deltaTime": 0,
		"channel": 9,
		"type": "channel",
		"noteNumber": 42,
		"velocity": 127,
		"subtype": "noteOn",
		"time": 29640,
		"track": 5
	},
	{
		"deltaTime": 0,
		"channel": 9,
		"type": "channel",
		"noteNumber": 36,
		"velocity": 127,
		"subtype": "noteOn",
		"time": 29640,
		"track": 5
	},
	{
		"deltaTime": 60,
		"channel": 9,
		"type": "channel",
		"noteNumber": 35,
		"velocity": 127,
		"subtype": "noteOn",
		"time": 29640,
		"track": 5
	},
	{
		"deltaTime": 0,
		"channel": 9,
		"type": "channel",
		"subtype": "noteOff",
		"noteNumber": 35,
		"velocity": 0,
		"time": 29700,
		"track": 5
	},
	{
		"deltaTime": 0,
		"channel": 9,
		"type": "channel",
		"subtype": "noteOff",
		"noteNumber": 36,
		"velocity": 0,
		"time": 29700,
		"track": 5
	},
	{
		"deltaTime": 60,
		"channel": 9,
		"type": "channel",
		"subtype": "noteOff",
		"noteNumber": 42,
		"velocity": 0,
		"time": 29700,
		"track": 5
	},
	{
		"deltaTime": 0,
		"channel": 0,
		"type": "channel",
		"subtype": "noteOff",
		"noteNumber": 32,
		"velocity": 0,
		"time": 29760,
		"track": 2
	},
	{
		"deltaTime": 0,
		"channel": 0,
		"type": "channel",
		"noteNumber": 40,
		"velocity": 127,
		"subtype": "noteOn",
		"time": 29760,
		"track": 2
	},
	{
		"deltaTime": 0,
		"channel": 2,
		"type": "channel",
		"subtype": "noteOff",
		"noteNumber": 63,
		"velocity": 0,
		"time": 29760,
		"track": 4
	},
	{
		"deltaTime": 0,
		"channel": 2,
		"type": "channel",
		"subtype": "noteOff",
		"noteNumber": 59,
		"velocity": 0,
		"time": 29760,
		"track": 4
	},
	{
		"deltaTime": 0,
		"channel": 2,
		"type": "channel",
		"subtype": "noteOff",
		"noteNumber": 51,
		"velocity": 0,
		"time": 29760,
		"track": 4
	},
	{
		"deltaTime": 0,
		"channel": 2,
		"type": "channel",
		"noteNumber": 40,
		"velocity": 127,
		"subtype": "noteOn",
		"time": 29760,
		"track": 4
	},
	{
		"deltaTime": 0,
		"channel": 2,
		"type": "channel",
		"noteNumber": 47,
		"velocity": 127,
		"subtype": "noteOn",
		"time": 29760,
		"track": 4
	},
	{
		"deltaTime": 0,
		"channel": 2,
		"type": "channel",
		"noteNumber": 52,
		"velocity": 127,
		"subtype": "noteOn",
		"time": 29760,
		"track": 4
	},
	{
		"deltaTime": 0,
		"channel": 2,
		"type": "channel",
		"noteNumber": 56,
		"velocity": 127,
		"subtype": "noteOn",
		"time": 29760,
		"track": 4
	},
	{
		"deltaTime": 60,
		"channel": 9,
		"type": "channel",
		"noteNumber": 42,
		"velocity": 127,
		"subtype": "noteOn",
		"time": 29760,
		"track": 5
	},
	{
		"deltaTime": 60,
		"channel": 9,
		"type": "channel",
		"subtype": "noteOff",
		"noteNumber": 42,
		"velocity": 0,
		"time": 29820,
		"track": 5
	},
	{
		"deltaTime": 60,
		"channel": 9,
		"type": "channel",
		"noteNumber": 42,
		"velocity": 127,
		"subtype": "noteOn",
		"time": 29880,
		"track": 5
	},
	{
		"deltaTime": 60,
		"channel": 9,
		"type": "channel",
		"subtype": "noteOff",
		"noteNumber": 42,
		"velocity": 0,
		"time": 29940,
		"track": 5
	},
	{
		"deltaTime": 0,
		"channel": 9,
		"type": "channel",
		"noteNumber": 42,
		"velocity": 127,
		"subtype": "noteOn",
		"time": 30000,
		"track": 5
	},
	{
		"deltaTime": 0,
		"channel": 9,
		"type": "channel",
		"noteNumber": 36,
		"velocity": 127,
		"subtype": "noteOn",
		"time": 30000,
		"track": 5
	},
	{
		"deltaTime": 60,
		"channel": 9,
		"type": "channel",
		"noteNumber": 35,
		"velocity": 127,
		"subtype": "noteOn",
		"time": 30000,
		"track": 5
	},
	{
		"deltaTime": 0,
		"channel": 9,
		"type": "channel",
		"subtype": "noteOff",
		"noteNumber": 35,
		"velocity": 0,
		"time": 30060,
		"track": 5
	},
	{
		"deltaTime": 0,
		"channel": 9,
		"type": "channel",
		"subtype": "noteOff",
		"noteNumber": 36,
		"velocity": 0,
		"time": 30060,
		"track": 5
	},
	{
		"deltaTime": 60,
		"channel": 9,
		"type": "channel",
		"subtype": "noteOff",
		"noteNumber": 42,
		"velocity": 0,
		"time": 30060,
		"track": 5
	},
	{
		"deltaTime": 0,
		"channel": 1,
		"type": "channel",
		"subtype": "noteOff",
		"noteNumber": 61,
		"velocity": 0,
		"time": 30120,
		"track": 3
	},
	{
		"deltaTime": 0,
		"channel": 1,
		"type": "channel",
		"noteNumber": 63,
		"velocity": 127,
		"subtype": "noteOn",
		"time": 30120,
		"track": 3
	},
	{
		"deltaTime": 0,
		"channel": 2,
		"type": "channel",
		"subtype": "noteOff",
		"noteNumber": 56,
		"velocity": 0,
		"time": 30120,
		"track": 4
	},
	{
		"deltaTime": 0,
		"channel": 2,
		"type": "channel",
		"subtype": "noteOff",
		"noteNumber": 52,
		"velocity": 0,
		"time": 30120,
		"track": 4
	},
	{
		"deltaTime": 0,
		"channel": 2,
		"type": "channel",
		"subtype": "noteOff",
		"noteNumber": 47,
		"velocity": 0,
		"time": 30120,
		"track": 4
	},
	{
		"deltaTime": 0,
		"channel": 2,
		"type": "channel",
		"subtype": "noteOff",
		"noteNumber": 40,
		"velocity": 0,
		"time": 30120,
		"track": 4
	},
	{
		"deltaTime": 0,
		"channel": 2,
		"type": "channel",
		"noteNumber": 52,
		"velocity": 127,
		"subtype": "noteOn",
		"time": 30120,
		"track": 4
	},
	{
		"deltaTime": 0,
		"channel": 2,
		"type": "channel",
		"noteNumber": 56,
		"velocity": 127,
		"subtype": "noteOn",
		"time": 30120,
		"track": 4
	},
	{
		"deltaTime": 60,
		"channel": 9,
		"type": "channel",
		"noteNumber": 42,
		"velocity": 127,
		"subtype": "noteOn",
		"time": 30120,
		"track": 5
	},
	{
		"deltaTime": 60,
		"channel": 9,
		"type": "channel",
		"subtype": "noteOff",
		"noteNumber": 42,
		"velocity": 0,
		"time": 30180,
		"track": 5
	},
	{
		"deltaTime": 0,
		"channel": 1,
		"type": "channel",
		"subtype": "noteOff",
		"noteNumber": 63,
		"velocity": 0,
		"time": 30240,
		"track": 3
	},
	{
		"deltaTime": 0,
		"channel": 1,
		"type": "channel",
		"noteNumber": 59,
		"velocity": 127,
		"subtype": "noteOn",
		"time": 30240,
		"track": 3
	},
	{
		"deltaTime": 0,
		"channel": 2,
		"type": "channel",
		"subtype": "noteOff",
		"noteNumber": 56,
		"velocity": 0,
		"time": 30240,
		"track": 4
	},
	{
		"deltaTime": 0,
		"channel": 2,
		"type": "channel",
		"subtype": "noteOff",
		"noteNumber": 52,
		"velocity": 0,
		"time": 30240,
		"track": 4
	},
	{
		"deltaTime": 0,
		"channel": 2,
		"type": "channel",
		"noteNumber": 40,
		"velocity": 127,
		"subtype": "noteOn",
		"time": 30240,
		"track": 4
	},
	{
		"deltaTime": 0,
		"channel": 2,
		"type": "channel",
		"noteNumber": 52,
		"velocity": 127,
		"subtype": "noteOn",
		"time": 30240,
		"track": 4
	},
	{
		"deltaTime": 0,
		"channel": 2,
		"type": "channel",
		"noteNumber": 56,
		"velocity": 127,
		"subtype": "noteOn",
		"time": 30240,
		"track": 4
	},
	{
		"deltaTime": 0,
		"channel": 2,
		"type": "channel",
		"noteNumber": 59,
		"velocity": 127,
		"subtype": "noteOn",
		"time": 30240,
		"track": 4
	},
	{
		"deltaTime": 0,
		"channel": 9,
		"type": "channel",
		"noteNumber": 42,
		"velocity": 127,
		"subtype": "noteOn",
		"time": 30240,
		"track": 5
	},
	{
		"deltaTime": 0,
		"channel": 9,
		"type": "channel",
		"noteNumber": 40,
		"velocity": 127,
		"subtype": "noteOn",
		"time": 30240,
		"track": 5
	},
	{
		"deltaTime": 60,
		"channel": 9,
		"type": "channel",
		"noteNumber": 38,
		"velocity": 127,
		"subtype": "noteOn",
		"time": 30240,
		"track": 5
	},
	{
		"deltaTime": 0,
		"channel": 9,
		"type": "channel",
		"subtype": "noteOff",
		"noteNumber": 38,
		"velocity": 0,
		"time": 30300,
		"track": 5
	},
	{
		"deltaTime": 0,
		"channel": 9,
		"type": "channel",
		"subtype": "noteOff",
		"noteNumber": 40,
		"velocity": 0,
		"time": 30300,
		"track": 5
	},
	{
		"deltaTime": 60,
		"channel": 9,
		"type": "channel",
		"subtype": "noteOff",
		"noteNumber": 42,
		"velocity": 0,
		"time": 30300,
		"track": 5
	},
	{
		"deltaTime": 60,
		"channel": 9,
		"type": "channel",
		"noteNumber": 42,
		"velocity": 127,
		"subtype": "noteOn",
		"time": 30360,
		"track": 5
	},
	{
		"deltaTime": 60,
		"channel": 9,
		"type": "channel",
		"subtype": "noteOff",
		"noteNumber": 42,
		"velocity": 0,
		"time": 30420,
		"track": 5
	},
	{
		"deltaTime": 0,
		"channel": 0,
		"type": "channel",
		"subtype": "noteOff",
		"noteNumber": 40,
		"velocity": 0,
		"time": 30480,
		"track": 2
	},
	{
		"deltaTime": 0,
		"channel": 0,
		"type": "channel",
		"noteNumber": 40,
		"velocity": 127,
		"subtype": "noteOn",
		"time": 30480,
		"track": 2
	},
	{
		"deltaTime": 0,
		"channel": 1,
		"type": "channel",
		"subtype": "noteOff",
		"noteNumber": 59,
		"velocity": 0,
		"time": 30480,
		"track": 3
	},
	{
		"deltaTime": 0,
		"channel": 1,
		"type": "channel",
		"noteNumber": 56,
		"velocity": 127,
		"subtype": "noteOn",
		"time": 30480,
		"track": 3
	},
	{
		"deltaTime": 60,
		"channel": 9,
		"type": "channel",
		"noteNumber": 42,
		"velocity": 127,
		"subtype": "noteOn",
		"time": 30480,
		"track": 5
	},
	{
		"deltaTime": 60,
		"channel": 9,
		"type": "channel",
		"subtype": "noteOff",
		"noteNumber": 42,
		"velocity": 0,
		"time": 30540,
		"track": 5
	},
	{
		"deltaTime": 0,
		"channel": 1,
		"type": "channel",
		"subtype": "noteOff",
		"noteNumber": 56,
		"velocity": 0,
		"time": 30600,
		"track": 3
	},
	{
		"deltaTime": 0,
		"channel": 1,
		"type": "channel",
		"noteNumber": 59,
		"velocity": 127,
		"subtype": "noteOn",
		"time": 30600,
		"track": 3
	},
	{
		"deltaTime": 60,
		"channel": 9,
		"type": "channel",
		"noteNumber": 42,
		"velocity": 127,
		"subtype": "noteOn",
		"time": 30600,
		"track": 5
	},
	{
		"deltaTime": 60,
		"channel": 9,
		"type": "channel",
		"subtype": "noteOff",
		"noteNumber": 42,
		"velocity": 0,
		"time": 30660,
		"track": 5
	},
	{
		"deltaTime": 0,
		"channel": 0,
		"type": "channel",
		"subtype": "noteOff",
		"noteNumber": 40,
		"velocity": 0,
		"time": 30720,
		"track": 2
	},
	{
		"deltaTime": 0,
		"channel": 0,
		"type": "channel",
		"noteNumber": 41,
		"velocity": 127,
		"subtype": "noteOn",
		"time": 30720,
		"track": 2
	},
	{
		"deltaTime": 0,
		"channel": 1,
		"type": "channel",
		"subtype": "noteOff",
		"noteNumber": 59,
		"velocity": 0,
		"time": 30720,
		"track": 3
	},
	{
		"deltaTime": 0,
		"channel": 1,
		"type": "channel",
		"noteNumber": 63,
		"velocity": 127,
		"subtype": "noteOn",
		"time": 30720,
		"track": 3
	},
	{
		"deltaTime": 0,
		"channel": 2,
		"type": "channel",
		"subtype": "noteOff",
		"noteNumber": 59,
		"velocity": 0,
		"time": 30720,
		"track": 4
	},
	{
		"deltaTime": 0,
		"channel": 2,
		"type": "channel",
		"subtype": "noteOff",
		"noteNumber": 56,
		"velocity": 0,
		"time": 30720,
		"track": 4
	},
	{
		"deltaTime": 0,
		"channel": 2,
		"type": "channel",
		"subtype": "noteOff",
		"noteNumber": 52,
		"velocity": 0,
		"time": 30720,
		"track": 4
	},
	{
		"deltaTime": 0,
		"channel": 2,
		"type": "channel",
		"subtype": "noteOff",
		"noteNumber": 40,
		"velocity": 0,
		"time": 30720,
		"track": 4
	},
	{
		"deltaTime": 0,
		"channel": 2,
		"type": "channel",
		"noteNumber": 41,
		"velocity": 127,
		"subtype": "noteOn",
		"time": 30720,
		"track": 4
	},
	{
		"deltaTime": 0,
		"channel": 2,
		"type": "channel",
		"noteNumber": 48,
		"velocity": 127,
		"subtype": "noteOn",
		"time": 30720,
		"track": 4
	},
	{
		"deltaTime": 0,
		"channel": 2,
		"type": "channel",
		"noteNumber": 53,
		"velocity": 127,
		"subtype": "noteOn",
		"time": 30720,
		"track": 4
	},
	{
		"deltaTime": 0,
		"channel": 2,
		"type": "channel",
		"noteNumber": 65,
		"velocity": 127,
		"subtype": "noteOn",
		"time": 30720,
		"track": 4
	},
	{
		"deltaTime": 0,
		"channel": 9,
		"type": "channel",
		"noteNumber": 35,
		"velocity": 127,
		"subtype": "noteOn",
		"time": 30720,
		"track": 5
	},
	{
		"deltaTime": 60,
		"channel": 9,
		"type": "channel",
		"noteNumber": 36,
		"velocity": 127,
		"subtype": "noteOn",
		"time": 30720,
		"track": 5
	},
	{
		"deltaTime": 0,
		"channel": 9,
		"type": "channel",
		"subtype": "noteOff",
		"noteNumber": 36,
		"velocity": 0,
		"time": 30780,
		"track": 5
	},
	{
		"deltaTime": 180,
		"channel": 9,
		"type": "channel",
		"subtype": "noteOff",
		"noteNumber": 35,
		"velocity": 0,
		"time": 30780,
		"track": 5
	},
	{
		"deltaTime": 0,
		"channel": 1,
		"type": "channel",
		"subtype": "noteOff",
		"noteNumber": 63,
		"velocity": 0,
		"time": 30960,
		"track": 3
	},
	{
		"deltaTime": 0,
		"channel": 1,
		"type": "channel",
		"noteNumber": 59,
		"velocity": 127,
		"subtype": "noteOn",
		"time": 30960,
		"track": 3
	},
	{
		"deltaTime": 0,
		"channel": 9,
		"type": "channel",
		"noteNumber": 35,
		"velocity": 127,
		"subtype": "noteOn",
		"time": 30960,
		"track": 5
	},
	{
		"deltaTime": 60,
		"channel": 9,
		"type": "channel",
		"noteNumber": 36,
		"velocity": 127,
		"subtype": "noteOn",
		"time": 30960,
		"track": 5
	},
	{
		"deltaTime": 0,
		"channel": 9,
		"type": "channel",
		"subtype": "noteOff",
		"noteNumber": 36,
		"velocity": 0,
		"time": 31020,
		"track": 5
	},
	{
		"deltaTime": 60,
		"channel": 9,
		"type": "channel",
		"subtype": "noteOff",
		"noteNumber": 35,
		"velocity": 0,
		"time": 31020,
		"track": 5
	},
	{
		"deltaTime": 0,
		"channel": 1,
		"type": "channel",
		"subtype": "noteOff",
		"noteNumber": 59,
		"velocity": 0,
		"time": 31080,
		"track": 3
	},
	{
		"deltaTime": 120,
		"channel": 1,
		"type": "channel",
		"noteNumber": 61,
		"velocity": 127,
		"subtype": "noteOn",
		"time": 31080,
		"track": 3
	},
	{
		"deltaTime": 0,
		"channel": 2,
		"type": "channel",
		"subtype": "noteOff",
		"noteNumber": 65,
		"velocity": 0,
		"time": 31200,
		"track": 4
	},
	{
		"deltaTime": 0,
		"channel": 2,
		"type": "channel",
		"subtype": "noteOff",
		"noteNumber": 53,
		"velocity": 0,
		"time": 31200,
		"track": 4
	},
	{
		"deltaTime": 0,
		"channel": 2,
		"type": "channel",
		"subtype": "noteOff",
		"noteNumber": 48,
		"velocity": 0,
		"time": 31200,
		"track": 4
	},
	{
		"deltaTime": 0,
		"channel": 2,
		"type": "channel",
		"subtype": "noteOff",
		"noteNumber": 41,
		"velocity": 0,
		"time": 31200,
		"track": 4
	},
	{
		"deltaTime": 0,
		"channel": 2,
		"type": "channel",
		"noteNumber": 41,
		"velocity": 127,
		"subtype": "noteOn",
		"time": 31200,
		"track": 4
	},
	{
		"deltaTime": 0,
		"channel": 2,
		"type": "channel",
		"noteNumber": 48,
		"velocity": 127,
		"subtype": "noteOn",
		"time": 31200,
		"track": 4
	},
	{
		"deltaTime": 0,
		"channel": 2,
		"type": "channel",
		"noteNumber": 53,
		"velocity": 127,
		"subtype": "noteOn",
		"time": 31200,
		"track": 4
	},
	{
		"deltaTime": 0,
		"channel": 2,
		"type": "channel",
		"noteNumber": 65,
		"velocity": 127,
		"subtype": "noteOn",
		"time": 31200,
		"track": 4
	},
	{
		"deltaTime": 60,
		"channel": 9,
		"type": "channel",
		"noteNumber": 39,
		"velocity": 127,
		"subtype": "noteOn",
		"time": 31200,
		"track": 5
	},
	{
		"deltaTime": 180,
		"channel": 9,
		"type": "channel",
		"subtype": "noteOff",
		"noteNumber": 39,
		"velocity": 0,
		"time": 31260,
		"track": 5
	},
	{
		"deltaTime": 0,
		"channel": 0,
		"type": "channel",
		"subtype": "noteOff",
		"noteNumber": 41,
		"velocity": 0,
		"time": 31440,
		"track": 2
	},
	{
		"deltaTime": 120,
		"channel": 0,
		"type": "channel",
		"noteNumber": 41,
		"velocity": 127,
		"subtype": "noteOn",
		"time": 31440,
		"track": 2
	},
	{
		"deltaTime": 0,
		"channel": 1,
		"type": "channel",
		"subtype": "noteOff",
		"noteNumber": 61,
		"velocity": 0,
		"time": 31560,
		"track": 3
	},
	{
		"deltaTime": 0,
		"channel": 1,
		"type": "channel",
		"noteNumber": 56,
		"velocity": 127,
		"subtype": "noteOn",
		"time": 31560,
		"track": 3
	},
	{
		"deltaTime": 0,
		"channel": 9,
		"type": "channel",
		"noteNumber": 35,
		"velocity": 127,
		"subtype": "noteOn",
		"time": 31560,
		"track": 5
	},
	{
		"deltaTime": 60,
		"channel": 9,
		"type": "channel",
		"noteNumber": 36,
		"velocity": 127,
		"subtype": "noteOn",
		"time": 31560,
		"track": 5
	},
	{
		"deltaTime": 0,
		"channel": 9,
		"type": "channel",
		"subtype": "noteOff",
		"noteNumber": 36,
		"velocity": 0,
		"time": 31620,
		"track": 5
	},
	{
		"deltaTime": 60,
		"channel": 9,
		"type": "channel",
		"subtype": "noteOff",
		"noteNumber": 35,
		"velocity": 0,
		"time": 31620,
		"track": 5
	},
	{
		"deltaTime": 0,
		"channel": 0,
		"type": "channel",
		"subtype": "noteOff",
		"noteNumber": 41,
		"velocity": 0,
		"time": 31680,
		"track": 2
	},
	{
		"deltaTime": 0,
		"channel": 0,
		"type": "channel",
		"noteNumber": 40,
		"velocity": 127,
		"subtype": "noteOn",
		"time": 31680,
		"track": 2
	},
	{
		"deltaTime": 0,
		"channel": 1,
		"type": "channel",
		"subtype": "noteOff",
		"noteNumber": 56,
		"velocity": 0,
		"time": 31680,
		"track": 3
	},
	{
		"deltaTime": 0,
		"channel": 1,
		"type": "channel",
		"noteNumber": 63,
		"velocity": 127,
		"subtype": "noteOn",
		"time": 31680,
		"track": 3
	},
	{
		"deltaTime": 0,
		"channel": 2,
		"type": "channel",
		"subtype": "noteOff",
		"noteNumber": 65,
		"velocity": 0,
		"time": 31680,
		"track": 4
	},
	{
		"deltaTime": 0,
		"channel": 2,
		"type": "channel",
		"subtype": "noteOff",
		"noteNumber": 53,
		"velocity": 0,
		"time": 31680,
		"track": 4
	},
	{
		"deltaTime": 0,
		"channel": 2,
		"type": "channel",
		"subtype": "noteOff",
		"noteNumber": 48,
		"velocity": 0,
		"time": 31680,
		"track": 4
	},
	{
		"deltaTime": 0,
		"channel": 2,
		"type": "channel",
		"subtype": "noteOff",
		"noteNumber": 41,
		"velocity": 0,
		"time": 31680,
		"track": 4
	},
	{
		"deltaTime": 0,
		"channel": 2,
		"type": "channel",
		"noteNumber": 40,
		"velocity": 127,
		"subtype": "noteOn",
		"time": 31680,
		"track": 4
	},
	{
		"deltaTime": 0,
		"channel": 2,
		"type": "channel",
		"noteNumber": 47,
		"velocity": 127,
		"subtype": "noteOn",
		"time": 31680,
		"track": 4
	},
	{
		"deltaTime": 0,
		"channel": 2,
		"type": "channel",
		"noteNumber": 52,
		"velocity": 127,
		"subtype": "noteOn",
		"time": 31680,
		"track": 4
	},
	{
		"deltaTime": 240,
		"channel": 2,
		"type": "channel",
		"noteNumber": 56,
		"velocity": 127,
		"subtype": "noteOn",
		"time": 31680,
		"track": 4
	},
	{
		"deltaTime": 0,
		"channel": 1,
		"type": "channel",
		"subtype": "noteOff",
		"noteNumber": 63,
		"velocity": 0,
		"time": 31920,
		"track": 3
	},
	{
		"deltaTime": 0,
		"channel": 1,
		"type": "channel",
		"noteNumber": 59,
		"velocity": 127,
		"subtype": "noteOn",
		"time": 31920,
		"track": 3
	},
	{
		"deltaTime": 0,
		"channel": 9,
		"type": "channel",
		"noteNumber": 35,
		"velocity": 127,
		"subtype": "noteOn",
		"time": 31920,
		"track": 5
	},
	{
		"deltaTime": 60,
		"channel": 9,
		"type": "channel",
		"noteNumber": 36,
		"velocity": 127,
		"subtype": "noteOn",
		"time": 31920,
		"track": 5
	},
	{
		"deltaTime": 0,
		"channel": 9,
		"type": "channel",
		"subtype": "noteOff",
		"noteNumber": 36,
		"velocity": 0,
		"time": 31980,
		"track": 5
	},
	{
		"deltaTime": 60,
		"channel": 9,
		"type": "channel",
		"subtype": "noteOff",
		"noteNumber": 35,
		"velocity": 0,
		"time": 31980,
		"track": 5
	},
	{
		"deltaTime": 0,
		"channel": 2,
		"type": "channel",
		"subtype": "noteOff",
		"noteNumber": 56,
		"velocity": 0,
		"time": 32040,
		"track": 4
	},
	{
		"deltaTime": 0,
		"channel": 2,
		"type": "channel",
		"subtype": "noteOff",
		"noteNumber": 52,
		"velocity": 0,
		"time": 32040,
		"track": 4
	},
	{
		"deltaTime": 0,
		"channel": 2,
		"type": "channel",
		"subtype": "noteOff",
		"noteNumber": 47,
		"velocity": 0,
		"time": 32040,
		"track": 4
	},
	{
		"deltaTime": 0,
		"channel": 2,
		"type": "channel",
		"subtype": "noteOff",
		"noteNumber": 40,
		"velocity": 0,
		"time": 32040,
		"track": 4
	},
	{
		"deltaTime": 0,
		"channel": 2,
		"type": "channel",
		"noteNumber": 52,
		"velocity": 127,
		"subtype": "noteOn",
		"time": 32040,
		"track": 4
	},
	{
		"deltaTime": 120,
		"channel": 2,
		"type": "channel",
		"noteNumber": 56,
		"velocity": 127,
		"subtype": "noteOn",
		"time": 32040,
		"track": 4
	},
	{
		"deltaTime": 0,
		"channel": 0,
		"type": "channel",
		"subtype": "noteOff",
		"noteNumber": 40,
		"velocity": 0,
		"time": 32160,
		"track": 2
	},
	{
		"deltaTime": 0,
		"channel": 0,
		"type": "channel",
		"noteNumber": 35,
		"velocity": 127,
		"subtype": "noteOn",
		"time": 32160,
		"track": 2
	},
	{
		"deltaTime": 0,
		"channel": 1,
		"type": "channel",
		"subtype": "noteOff",
		"noteNumber": 59,
		"velocity": 0,
		"time": 32160,
		"track": 3
	},
	{
		"deltaTime": 0,
		"channel": 1,
		"type": "channel",
		"noteNumber": 61,
		"velocity": 127,
		"subtype": "noteOn",
		"time": 32160,
		"track": 3
	},
	{
		"deltaTime": 0,
		"channel": 2,
		"type": "channel",
		"subtype": "noteOff",
		"noteNumber": 56,
		"velocity": 0,
		"time": 32160,
		"track": 4
	},
	{
		"deltaTime": 0,
		"channel": 2,
		"type": "channel",
		"subtype": "noteOff",
		"noteNumber": 52,
		"velocity": 0,
		"time": 32160,
		"track": 4
	},
	{
		"deltaTime": 0,
		"channel": 2,
		"type": "channel",
		"noteNumber": 40,
		"velocity": 127,
		"subtype": "noteOn",
		"time": 32160,
		"track": 4
	},
	{
		"deltaTime": 0,
		"channel": 2,
		"type": "channel",
		"noteNumber": 52,
		"velocity": 127,
		"subtype": "noteOn",
		"time": 32160,
		"track": 4
	},
	{
		"deltaTime": 0,
		"channel": 2,
		"type": "channel",
		"noteNumber": 56,
		"velocity": 127,
		"subtype": "noteOn",
		"time": 32160,
		"track": 4
	},
	{
		"deltaTime": 0,
		"channel": 2,
		"type": "channel",
		"noteNumber": 59,
		"velocity": 127,
		"subtype": "noteOn",
		"time": 32160,
		"track": 4
	},
	{
		"deltaTime": 0,
		"channel": 9,
		"type": "channel",
		"noteNumber": 38,
		"velocity": 127,
		"subtype": "noteOn",
		"time": 32160,
		"track": 5
	},
	{
		"deltaTime": 60,
		"channel": 9,
		"type": "channel",
		"noteNumber": 40,
		"velocity": 127,
		"subtype": "noteOn",
		"time": 32160,
		"track": 5
	},
	{
		"deltaTime": 0,
		"channel": 9,
		"type": "channel",
		"subtype": "noteOff",
		"noteNumber": 40,
		"velocity": 0,
		"time": 32220,
		"track": 5
	},
	{
		"deltaTime": 180,
		"channel": 9,
		"type": "channel",
		"subtype": "noteOff",
		"noteNumber": 38,
		"velocity": 0,
		"time": 32220,
		"track": 5
	},
	{
		"deltaTime": 0,
		"channel": 0,
		"type": "channel",
		"subtype": "noteOff",
		"noteNumber": 35,
		"velocity": 0,
		"time": 32400,
		"track": 2
	},
	{
		"deltaTime": 0,
		"channel": 0,
		"type": "channel",
		"noteNumber": 34,
		"velocity": 127,
		"subtype": "noteOn",
		"time": 32400,
		"track": 2
	},
	{
		"deltaTime": 0,
		"channel": 1,
		"type": "channel",
		"subtype": "noteOff",
		"noteNumber": 61,
		"velocity": 0,
		"time": 32400,
		"track": 3
	},
	{
		"deltaTime": 0,
		"channel": 1,
		"type": "channel",
		"noteNumber": 59,
		"velocity": 127,
		"subtype": "noteOn",
		"time": 32400,
		"track": 3
	},
	{
		"deltaTime": 0,
		"channel": 2,
		"type": "channel",
		"subtype": "noteOff",
		"noteNumber": 59,
		"velocity": 0,
		"time": 32400,
		"track": 4
	},
	{
		"deltaTime": 0,
		"channel": 2,
		"type": "channel",
		"subtype": "noteOff",
		"noteNumber": 56,
		"velocity": 0,
		"time": 32400,
		"track": 4
	},
	{
		"deltaTime": 0,
		"channel": 2,
		"type": "channel",
		"subtype": "noteOff",
		"noteNumber": 52,
		"velocity": 0,
		"time": 32400,
		"track": 4
	},
	{
		"deltaTime": 0,
		"channel": 2,
		"type": "channel",
		"subtype": "noteOff",
		"noteNumber": 40,
		"velocity": 0,
		"time": 32400,
		"track": 4
	},
	{
		"deltaTime": 0,
		"channel": 2,
		"type": "channel",
		"noteNumber": 47,
		"velocity": 127,
		"subtype": "noteOn",
		"time": 32400,
		"track": 4
	},
	{
		"deltaTime": 0,
		"channel": 2,
		"type": "channel",
		"noteNumber": 52,
		"velocity": 127,
		"subtype": "noteOn",
		"time": 32400,
		"track": 4
	},
	{
		"deltaTime": 0,
		"channel": 2,
		"type": "channel",
		"noteNumber": 56,
		"velocity": 127,
		"subtype": "noteOn",
		"time": 32400,
		"track": 4
	},
	{
		"deltaTime": 0,
		"channel": 9,
		"type": "channel",
		"noteNumber": 35,
		"velocity": 127,
		"subtype": "noteOn",
		"time": 32400,
		"track": 5
	},
	{
		"deltaTime": 60,
		"channel": 9,
		"type": "channel",
		"noteNumber": 36,
		"velocity": 127,
		"subtype": "noteOn",
		"time": 32400,
		"track": 5
	},
	{
		"deltaTime": 0,
		"channel": 9,
		"type": "channel",
		"subtype": "noteOff",
		"noteNumber": 36,
		"velocity": 0,
		"time": 32460,
		"track": 5
	},
	{
		"deltaTime": 180,
		"channel": 9,
		"type": "channel",
		"subtype": "noteOff",
		"noteNumber": 35,
		"velocity": 0,
		"time": 32460,
		"track": 5
	},
	{
		"deltaTime": 0,
		"channel": 0,
		"type": "channel",
		"subtype": "noteOff",
		"noteNumber": 34,
		"velocity": 0,
		"time": 32640,
		"track": 2
	},
	{
		"deltaTime": 0,
		"channel": 0,
		"type": "channel",
		"noteNumber": 32,
		"velocity": 127,
		"subtype": "noteOn",
		"time": 32640,
		"track": 2
	},
	{
		"deltaTime": 0,
		"channel": 1,
		"type": "channel",
		"subtype": "noteOff",
		"noteNumber": 59,
		"velocity": 0,
		"time": 32640,
		"track": 3
	},
	{
		"deltaTime": 0,
		"channel": 2,
		"type": "channel",
		"subtype": "noteOff",
		"noteNumber": 56,
		"velocity": 0,
		"time": 32640,
		"track": 4
	},
	{
		"deltaTime": 0,
		"channel": 2,
		"type": "channel",
		"subtype": "noteOff",
		"noteNumber": 52,
		"velocity": 0,
		"time": 32640,
		"track": 4
	},
	{
		"deltaTime": 0,
		"channel": 2,
		"type": "channel",
		"subtype": "noteOff",
		"noteNumber": 47,
		"velocity": 0,
		"time": 32640,
		"track": 4
	},
	{
		"deltaTime": 0,
		"channel": 2,
		"type": "channel",
		"noteNumber": 44,
		"velocity": 127,
		"subtype": "noteOn",
		"time": 32640,
		"track": 4
	},
	{
		"deltaTime": 0,
		"channel": 9,
		"type": "channel",
		"noteNumber": 42,
		"velocity": 127,
		"subtype": "noteOn",
		"time": 32640,
		"track": 5
	},
	{
		"deltaTime": 0,
		"channel": 9,
		"type": "channel",
		"noteNumber": 35,
		"velocity": 127,
		"subtype": "noteOn",
		"time": 32640,
		"track": 5
	},
	{
		"deltaTime": 60,
		"channel": 9,
		"type": "channel",
		"noteNumber": 36,
		"velocity": 127,
		"subtype": "noteOn",
		"time": 32640,
		"track": 5
	},
	{
		"deltaTime": 0,
		"channel": 9,
		"type": "channel",
		"subtype": "noteOff",
		"noteNumber": 36,
		"velocity": 0,
		"time": 32700,
		"track": 5
	},
	{
		"deltaTime": 0,
		"channel": 9,
		"type": "channel",
		"subtype": "noteOff",
		"noteNumber": 35,
		"velocity": 0,
		"time": 32700,
		"track": 5
	},
	{
		"deltaTime": 60,
		"channel": 9,
		"type": "channel",
		"subtype": "noteOff",
		"noteNumber": 42,
		"velocity": 0,
		"time": 32700,
		"track": 5
	},
	{
		"deltaTime": 60,
		"channel": 9,
		"type": "channel",
		"noteNumber": 42,
		"velocity": 127,
		"subtype": "noteOn",
		"time": 32760,
		"track": 5
	},
	{
		"deltaTime": 60,
		"channel": 9,
		"type": "channel",
		"subtype": "noteOff",
		"noteNumber": 42,
		"velocity": 0,
		"time": 32820,
		"track": 5
	},
	{
		"deltaTime": 0,
		"channel": 9,
		"type": "channel",
		"noteNumber": 42,
		"velocity": 127,
		"subtype": "noteOn",
		"time": 32880,
		"track": 5
	},
	{
		"deltaTime": 0,
		"channel": 9,
		"type": "channel",
		"noteNumber": 36,
		"velocity": 127,
		"subtype": "noteOn",
		"time": 32880,
		"track": 5
	},
	{
		"deltaTime": 60,
		"channel": 9,
		"type": "channel",
		"noteNumber": 35,
		"velocity": 127,
		"subtype": "noteOn",
		"time": 32880,
		"track": 5
	},
	{
		"deltaTime": 0,
		"channel": 9,
		"type": "channel",
		"subtype": "noteOff",
		"noteNumber": 35,
		"velocity": 0,
		"time": 32940,
		"track": 5
	},
	{
		"deltaTime": 0,
		"channel": 9,
		"type": "channel",
		"subtype": "noteOff",
		"noteNumber": 36,
		"velocity": 0,
		"time": 32940,
		"track": 5
	},
	{
		"deltaTime": 60,
		"channel": 9,
		"type": "channel",
		"subtype": "noteOff",
		"noteNumber": 42,
		"velocity": 0,
		"time": 32940,
		"track": 5
	},
	{
		"deltaTime": 0,
		"channel": 2,
		"type": "channel",
		"subtype": "noteOff",
		"noteNumber": 44,
		"velocity": 0,
		"time": 33000,
		"track": 4
	},
	{
		"deltaTime": 0,
		"channel": 2,
		"type": "channel",
		"noteNumber": 59,
		"velocity": 127,
		"subtype": "noteOn",
		"time": 33000,
		"track": 4
	},
	{
		"deltaTime": 0,
		"channel": 2,
		"type": "channel",
		"noteNumber": 63,
		"velocity": 127,
		"subtype": "noteOn",
		"time": 33000,
		"track": 4
	},
	{
		"deltaTime": 0,
		"channel": 2,
		"type": "channel",
		"noteNumber": 68,
		"velocity": 127,
		"subtype": "noteOn",
		"time": 33000,
		"track": 4
	},
	{
		"deltaTime": 60,
		"channel": 9,
		"type": "channel",
		"noteNumber": 42,
		"velocity": 127,
		"subtype": "noteOn",
		"time": 33000,
		"track": 5
	},
	{
		"deltaTime": 60,
		"channel": 9,
		"type": "channel",
		"subtype": "noteOff",
		"noteNumber": 42,
		"velocity": 0,
		"time": 33060,
		"track": 5
	},
	{
		"deltaTime": 0,
		"channel": 9,
		"type": "channel",
		"noteNumber": 42,
		"velocity": 127,
		"subtype": "noteOn",
		"time": 33120,
		"track": 5
	},
	{
		"deltaTime": 0,
		"channel": 9,
		"type": "channel",
		"noteNumber": 38,
		"velocity": 127,
		"subtype": "noteOn",
		"time": 33120,
		"track": 5
	},
	{
		"deltaTime": 60,
		"channel": 9,
		"type": "channel",
		"noteNumber": 40,
		"velocity": 127,
		"subtype": "noteOn",
		"time": 33120,
		"track": 5
	},
	{
		"deltaTime": 0,
		"channel": 9,
		"type": "channel",
		"subtype": "noteOff",
		"noteNumber": 40,
		"velocity": 0,
		"time": 33180,
		"track": 5
	},
	{
		"deltaTime": 0,
		"channel": 9,
		"type": "channel",
		"subtype": "noteOff",
		"noteNumber": 38,
		"velocity": 0,
		"time": 33180,
		"track": 5
	},
	{
		"deltaTime": 60,
		"channel": 9,
		"type": "channel",
		"subtype": "noteOff",
		"noteNumber": 42,
		"velocity": 0,
		"time": 33180,
		"track": 5
	},
	{
		"deltaTime": 0,
		"channel": 2,
		"type": "channel",
		"subtype": "noteOff",
		"noteNumber": 68,
		"velocity": 0,
		"time": 33240,
		"track": 4
	},
	{
		"deltaTime": 0,
		"channel": 2,
		"type": "channel",
		"subtype": "noteOff",
		"noteNumber": 63,
		"velocity": 0,
		"time": 33240,
		"track": 4
	},
	{
		"deltaTime": 0,
		"channel": 2,
		"type": "channel",
		"subtype": "noteOff",
		"noteNumber": 59,
		"velocity": 0,
		"time": 33240,
		"track": 4
	},
	{
		"deltaTime": 0,
		"channel": 2,
		"type": "channel",
		"noteNumber": 59,
		"velocity": 127,
		"subtype": "noteOn",
		"time": 33240,
		"track": 4
	},
	{
		"deltaTime": 0,
		"channel": 2,
		"type": "channel",
		"noteNumber": 63,
		"velocity": 127,
		"subtype": "noteOn",
		"time": 33240,
		"track": 4
	},
	{
		"deltaTime": 0,
		"channel": 2,
		"type": "channel",
		"noteNumber": 68,
		"velocity": 127,
		"subtype": "noteOn",
		"time": 33240,
		"track": 4
	},
	{
		"deltaTime": 60,
		"channel": 9,
		"type": "channel",
		"noteNumber": 42,
		"velocity": 127,
		"subtype": "noteOn",
		"time": 33240,
		"track": 5
	},
	{
		"deltaTime": 60,
		"channel": 9,
		"type": "channel",
		"subtype": "noteOff",
		"noteNumber": 42,
		"velocity": 0,
		"time": 33300,
		"track": 5
	},
	{
		"deltaTime": 60,
		"channel": 9,
		"type": "channel",
		"noteNumber": 42,
		"velocity": 127,
		"subtype": "noteOn",
		"time": 33360,
		"track": 5
	},
	{
		"deltaTime": 60,
		"channel": 9,
		"type": "channel",
		"subtype": "noteOff",
		"noteNumber": 42,
		"velocity": 0,
		"time": 33420,
		"track": 5
	},
	{
		"deltaTime": 0,
		"channel": 9,
		"type": "channel",
		"noteNumber": 42,
		"velocity": 127,
		"subtype": "noteOn",
		"time": 33480,
		"track": 5
	},
	{
		"deltaTime": 0,
		"channel": 9,
		"type": "channel",
		"noteNumber": 36,
		"velocity": 127,
		"subtype": "noteOn",
		"time": 33480,
		"track": 5
	},
	{
		"deltaTime": 60,
		"channel": 9,
		"type": "channel",
		"noteNumber": 35,
		"velocity": 127,
		"subtype": "noteOn",
		"time": 33480,
		"track": 5
	},
	{
		"deltaTime": 0,
		"channel": 9,
		"type": "channel",
		"subtype": "noteOff",
		"noteNumber": 35,
		"velocity": 0,
		"time": 33540,
		"track": 5
	},
	{
		"deltaTime": 0,
		"channel": 9,
		"type": "channel",
		"subtype": "noteOff",
		"noteNumber": 36,
		"velocity": 0,
		"time": 33540,
		"track": 5
	},
	{
		"deltaTime": 60,
		"channel": 9,
		"type": "channel",
		"subtype": "noteOff",
		"noteNumber": 42,
		"velocity": 0,
		"time": 33540,
		"track": 5
	},
	{
		"deltaTime": 0,
		"channel": 0,
		"type": "channel",
		"subtype": "noteOff",
		"noteNumber": 32,
		"velocity": 0,
		"time": 33600,
		"track": 2
	},
	{
		"deltaTime": 0,
		"channel": 0,
		"type": "channel",
		"noteNumber": 40,
		"velocity": 127,
		"subtype": "noteOn",
		"time": 33600,
		"track": 2
	},
	{
		"deltaTime": 0,
		"channel": 2,
		"type": "channel",
		"subtype": "noteOff",
		"noteNumber": 68,
		"velocity": 0,
		"time": 33600,
		"track": 4
	},
	{
		"deltaTime": 0,
		"channel": 2,
		"type": "channel",
		"subtype": "noteOff",
		"noteNumber": 63,
		"velocity": 0,
		"time": 33600,
		"track": 4
	},
	{
		"deltaTime": 0,
		"channel": 2,
		"type": "channel",
		"subtype": "noteOff",
		"noteNumber": 59,
		"velocity": 0,
		"time": 33600,
		"track": 4
	},
	{
		"deltaTime": 0,
		"channel": 2,
		"type": "channel",
		"noteNumber": 40,
		"velocity": 127,
		"subtype": "noteOn",
		"time": 33600,
		"track": 4
	},
	{
		"deltaTime": 60,
		"channel": 9,
		"type": "channel",
		"noteNumber": 42,
		"velocity": 127,
		"subtype": "noteOn",
		"time": 33600,
		"track": 5
	},
	{
		"deltaTime": 60,
		"channel": 9,
		"type": "channel",
		"subtype": "noteOff",
		"noteNumber": 42,
		"velocity": 0,
		"time": 33660,
		"track": 5
	},
	{
		"deltaTime": 60,
		"channel": 9,
		"type": "channel",
		"noteNumber": 42,
		"velocity": 127,
		"subtype": "noteOn",
		"time": 33720,
		"track": 5
	},
	{
		"deltaTime": 60,
		"channel": 9,
		"type": "channel",
		"subtype": "noteOff",
		"noteNumber": 42,
		"velocity": 0,
		"time": 33780,
		"track": 5
	},
	{
		"deltaTime": 0,
		"channel": 9,
		"type": "channel",
		"noteNumber": 42,
		"velocity": 127,
		"subtype": "noteOn",
		"time": 33840,
		"track": 5
	},
	{
		"deltaTime": 0,
		"channel": 9,
		"type": "channel",
		"noteNumber": 36,
		"velocity": 127,
		"subtype": "noteOn",
		"time": 33840,
		"track": 5
	},
	{
		"deltaTime": 60,
		"channel": 9,
		"type": "channel",
		"noteNumber": 35,
		"velocity": 127,
		"subtype": "noteOn",
		"time": 33840,
		"track": 5
	},
	{
		"deltaTime": 0,
		"channel": 9,
		"type": "channel",
		"subtype": "noteOff",
		"noteNumber": 35,
		"velocity": 0,
		"time": 33900,
		"track": 5
	},
	{
		"deltaTime": 0,
		"channel": 9,
		"type": "channel",
		"subtype": "noteOff",
		"noteNumber": 36,
		"velocity": 0,
		"time": 33900,
		"track": 5
	},
	{
		"deltaTime": 60,
		"channel": 9,
		"type": "channel",
		"subtype": "noteOff",
		"noteNumber": 42,
		"velocity": 0,
		"time": 33900,
		"track": 5
	},
	{
		"deltaTime": 0,
		"channel": 2,
		"type": "channel",
		"subtype": "noteOff",
		"noteNumber": 40,
		"velocity": 0,
		"time": 33960,
		"track": 4
	},
	{
		"deltaTime": 0,
		"channel": 2,
		"type": "channel",
		"noteNumber": 59,
		"velocity": 127,
		"subtype": "noteOn",
		"time": 33960,
		"track": 4
	},
	{
		"deltaTime": 0,
		"channel": 2,
		"type": "channel",
		"noteNumber": 63,
		"velocity": 127,
		"subtype": "noteOn",
		"time": 33960,
		"track": 4
	},
	{
		"deltaTime": 0,
		"channel": 2,
		"type": "channel",
		"noteNumber": 68,
		"velocity": 127,
		"subtype": "noteOn",
		"time": 33960,
		"track": 4
	},
	{
		"deltaTime": 60,
		"channel": 9,
		"type": "channel",
		"noteNumber": 42,
		"velocity": 127,
		"subtype": "noteOn",
		"time": 33960,
		"track": 5
	},
	{
		"deltaTime": 60,
		"channel": 9,
		"type": "channel",
		"subtype": "noteOff",
		"noteNumber": 42,
		"velocity": 0,
		"time": 34020,
		"track": 5
	},
	{
		"deltaTime": 0,
		"channel": 9,
		"type": "channel",
		"noteNumber": 42,
		"velocity": 127,
		"subtype": "noteOn",
		"time": 34080,
		"track": 5
	},
	{
		"deltaTime": 0,
		"channel": 9,
		"type": "channel",
		"noteNumber": 40,
		"velocity": 127,
		"subtype": "noteOn",
		"time": 34080,
		"track": 5
	},
	{
		"deltaTime": 60,
		"channel": 9,
		"type": "channel",
		"noteNumber": 38,
		"velocity": 127,
		"subtype": "noteOn",
		"time": 34080,
		"track": 5
	},
	{
		"deltaTime": 0,
		"channel": 9,
		"type": "channel",
		"subtype": "noteOff",
		"noteNumber": 38,
		"velocity": 0,
		"time": 34140,
		"track": 5
	},
	{
		"deltaTime": 0,
		"channel": 9,
		"type": "channel",
		"subtype": "noteOff",
		"noteNumber": 40,
		"velocity": 0,
		"time": 34140,
		"track": 5
	},
	{
		"deltaTime": 60,
		"channel": 9,
		"type": "channel",
		"subtype": "noteOff",
		"noteNumber": 42,
		"velocity": 0,
		"time": 34140,
		"track": 5
	},
	{
		"deltaTime": 0,
		"channel": 2,
		"type": "channel",
		"subtype": "noteOff",
		"noteNumber": 68,
		"velocity": 0,
		"time": 34200,
		"track": 4
	},
	{
		"deltaTime": 0,
		"channel": 2,
		"type": "channel",
		"subtype": "noteOff",
		"noteNumber": 63,
		"velocity": 0,
		"time": 34200,
		"track": 4
	},
	{
		"deltaTime": 0,
		"channel": 2,
		"type": "channel",
		"subtype": "noteOff",
		"noteNumber": 59,
		"velocity": 0,
		"time": 34200,
		"track": 4
	},
	{
		"deltaTime": 0,
		"channel": 2,
		"type": "channel",
		"noteNumber": 59,
		"velocity": 127,
		"subtype": "noteOn",
		"time": 34200,
		"track": 4
	},
	{
		"deltaTime": 0,
		"channel": 2,
		"type": "channel",
		"noteNumber": 63,
		"velocity": 127,
		"subtype": "noteOn",
		"time": 34200,
		"track": 4
	},
	{
		"deltaTime": 0,
		"channel": 2,
		"type": "channel",
		"noteNumber": 68,
		"velocity": 127,
		"subtype": "noteOn",
		"time": 34200,
		"track": 4
	},
	{
		"deltaTime": 60,
		"channel": 9,
		"type": "channel",
		"noteNumber": 42,
		"velocity": 127,
		"subtype": "noteOn",
		"time": 34200,
		"track": 5
	},
	{
		"deltaTime": 60,
		"channel": 9,
		"type": "channel",
		"subtype": "noteOff",
		"noteNumber": 42,
		"velocity": 0,
		"time": 34260,
		"track": 5
	},
	{
		"deltaTime": 60,
		"channel": 9,
		"type": "channel",
		"noteNumber": 42,
		"velocity": 127,
		"subtype": "noteOn",
		"time": 34320,
		"track": 5
	},
	{
		"deltaTime": 60,
		"channel": 9,
		"type": "channel",
		"subtype": "noteOff",
		"noteNumber": 42,
		"velocity": 0,
		"time": 34380,
		"track": 5
	},
	{
		"deltaTime": 60,
		"channel": 9,
		"type": "channel",
		"noteNumber": 42,
		"velocity": 127,
		"subtype": "noteOn",
		"time": 34440,
		"track": 5
	},
	{
		"deltaTime": 60,
		"channel": 9,
		"type": "channel",
		"subtype": "noteOff",
		"noteNumber": 42,
		"velocity": 0,
		"time": 34500,
		"track": 5
	},
	{
		"deltaTime": 0,
		"channel": 0,
		"type": "channel",
		"subtype": "noteOff",
		"noteNumber": 40,
		"velocity": 0,
		"time": 34560,
		"track": 2
	},
	{
		"deltaTime": 0,
		"channel": 0,
		"type": "channel",
		"noteNumber": 42,
		"velocity": 127,
		"subtype": "noteOn",
		"time": 34560,
		"track": 2
	},
	{
		"deltaTime": 0,
		"channel": 2,
		"type": "channel",
		"subtype": "noteOff",
		"noteNumber": 68,
		"velocity": 0,
		"time": 34560,
		"track": 4
	},
	{
		"deltaTime": 0,
		"channel": 2,
		"type": "channel",
		"subtype": "noteOff",
		"noteNumber": 63,
		"velocity": 0,
		"time": 34560,
		"track": 4
	},
	{
		"deltaTime": 0,
		"channel": 2,
		"type": "channel",
		"subtype": "noteOff",
		"noteNumber": 59,
		"velocity": 0,
		"time": 34560,
		"track": 4
	},
	{
		"deltaTime": 0,
		"channel": 2,
		"type": "channel",
		"noteNumber": 42,
		"velocity": 127,
		"subtype": "noteOn",
		"time": 34560,
		"track": 4
	},
	{
		"deltaTime": 0,
		"channel": 9,
		"type": "channel",
		"noteNumber": 42,
		"velocity": 127,
		"subtype": "noteOn",
		"time": 34560,
		"track": 5
	},
	{
		"deltaTime": 0,
		"channel": 9,
		"type": "channel",
		"noteNumber": 35,
		"velocity": 127,
		"subtype": "noteOn",
		"time": 34560,
		"track": 5
	},
	{
		"deltaTime": 60,
		"channel": 9,
		"type": "channel",
		"noteNumber": 36,
		"velocity": 127,
		"subtype": "noteOn",
		"time": 34560,
		"track": 5
	},
	{
		"deltaTime": 0,
		"channel": 9,
		"type": "channel",
		"subtype": "noteOff",
		"noteNumber": 36,
		"velocity": 0,
		"time": 34620,
		"track": 5
	},
	{
		"deltaTime": 0,
		"channel": 9,
		"type": "channel",
		"subtype": "noteOff",
		"noteNumber": 35,
		"velocity": 0,
		"time": 34620,
		"track": 5
	},
	{
		"deltaTime": 60,
		"channel": 9,
		"type": "channel",
		"subtype": "noteOff",
		"noteNumber": 42,
		"velocity": 0,
		"time": 34620,
		"track": 5
	},
	{
		"deltaTime": 60,
		"channel": 9,
		"type": "channel",
		"noteNumber": 42,
		"velocity": 127,
		"subtype": "noteOn",
		"time": 34680,
		"track": 5
	},
	{
		"deltaTime": 60,
		"channel": 9,
		"type": "channel",
		"subtype": "noteOff",
		"noteNumber": 42,
		"velocity": 0,
		"time": 34740,
		"track": 5
	},
	{
		"deltaTime": 0,
		"channel": 9,
		"type": "channel",
		"noteNumber": 42,
		"velocity": 127,
		"subtype": "noteOn",
		"time": 34800,
		"track": 5
	},
	{
		"deltaTime": 0,
		"channel": 9,
		"type": "channel",
		"noteNumber": 36,
		"velocity": 127,
		"subtype": "noteOn",
		"time": 34800,
		"track": 5
	},
	{
		"deltaTime": 60,
		"channel": 9,
		"type": "channel",
		"noteNumber": 35,
		"velocity": 127,
		"subtype": "noteOn",
		"time": 34800,
		"track": 5
	},
	{
		"deltaTime": 0,
		"channel": 9,
		"type": "channel",
		"subtype": "noteOff",
		"noteNumber": 35,
		"velocity": 0,
		"time": 34860,
		"track": 5
	},
	{
		"deltaTime": 0,
		"channel": 9,
		"type": "channel",
		"subtype": "noteOff",
		"noteNumber": 36,
		"velocity": 0,
		"time": 34860,
		"track": 5
	},
	{
		"deltaTime": 60,
		"channel": 9,
		"type": "channel",
		"subtype": "noteOff",
		"noteNumber": 42,
		"velocity": 0,
		"time": 34860,
		"track": 5
	},
	{
		"deltaTime": 0,
		"channel": 2,
		"type": "channel",
		"subtype": "noteOff",
		"noteNumber": 42,
		"velocity": 0,
		"time": 34920,
		"track": 4
	},
	{
		"deltaTime": 0,
		"channel": 2,
		"type": "channel",
		"noteNumber": 61,
		"velocity": 127,
		"subtype": "noteOn",
		"time": 34920,
		"track": 4
	},
	{
		"deltaTime": 0,
		"channel": 2,
		"type": "channel",
		"noteNumber": 66,
		"velocity": 127,
		"subtype": "noteOn",
		"time": 34920,
		"track": 4
	},
	{
		"deltaTime": 0,
		"channel": 2,
		"type": "channel",
		"noteNumber": 70,
		"velocity": 127,
		"subtype": "noteOn",
		"time": 34920,
		"track": 4
	},
	{
		"deltaTime": 60,
		"channel": 9,
		"type": "channel",
		"noteNumber": 42,
		"velocity": 127,
		"subtype": "noteOn",
		"time": 34920,
		"track": 5
	},
	{
		"deltaTime": 60,
		"channel": 9,
		"type": "channel",
		"subtype": "noteOff",
		"noteNumber": 42,
		"velocity": 0,
		"time": 34980,
		"track": 5
	},
	{
		"deltaTime": 0,
		"channel": 9,
		"type": "channel",
		"noteNumber": 42,
		"velocity": 127,
		"subtype": "noteOn",
		"time": 35040,
		"track": 5
	},
	{
		"deltaTime": 0,
		"channel": 9,
		"type": "channel",
		"noteNumber": 38,
		"velocity": 127,
		"subtype": "noteOn",
		"time": 35040,
		"track": 5
	},
	{
		"deltaTime": 60,
		"channel": 9,
		"type": "channel",
		"noteNumber": 40,
		"velocity": 127,
		"subtype": "noteOn",
		"time": 35040,
		"track": 5
	},
	{
		"deltaTime": 0,
		"channel": 9,
		"type": "channel",
		"subtype": "noteOff",
		"noteNumber": 40,
		"velocity": 0,
		"time": 35100,
		"track": 5
	},
	{
		"deltaTime": 0,
		"channel": 9,
		"type": "channel",
		"subtype": "noteOff",
		"noteNumber": 38,
		"velocity": 0,
		"time": 35100,
		"track": 5
	},
	{
		"deltaTime": 60,
		"channel": 9,
		"type": "channel",
		"subtype": "noteOff",
		"noteNumber": 42,
		"velocity": 0,
		"time": 35100,
		"track": 5
	},
	{
		"deltaTime": 0,
		"channel": 2,
		"type": "channel",
		"subtype": "noteOff",
		"noteNumber": 70,
		"velocity": 0,
		"time": 35160,
		"track": 4
	},
	{
		"deltaTime": 0,
		"channel": 2,
		"type": "channel",
		"subtype": "noteOff",
		"noteNumber": 66,
		"velocity": 0,
		"time": 35160,
		"track": 4
	},
	{
		"deltaTime": 0,
		"channel": 2,
		"type": "channel",
		"subtype": "noteOff",
		"noteNumber": 61,
		"velocity": 0,
		"time": 35160,
		"track": 4
	},
	{
		"deltaTime": 0,
		"channel": 2,
		"type": "channel",
		"noteNumber": 61,
		"velocity": 127,
		"subtype": "noteOn",
		"time": 35160,
		"track": 4
	},
	{
		"deltaTime": 0,
		"channel": 2,
		"type": "channel",
		"noteNumber": 66,
		"velocity": 127,
		"subtype": "noteOn",
		"time": 35160,
		"track": 4
	},
	{
		"deltaTime": 0,
		"channel": 2,
		"type": "channel",
		"noteNumber": 70,
		"velocity": 127,
		"subtype": "noteOn",
		"time": 35160,
		"track": 4
	},
	{
		"deltaTime": 60,
		"channel": 9,
		"type": "channel",
		"noteNumber": 42,
		"velocity": 127,
		"subtype": "noteOn",
		"time": 35160,
		"track": 5
	},
	{
		"deltaTime": 60,
		"channel": 9,
		"type": "channel",
		"subtype": "noteOff",
		"noteNumber": 42,
		"velocity": 0,
		"time": 35220,
		"track": 5
	},
	{
		"deltaTime": 60,
		"channel": 9,
		"type": "channel",
		"noteNumber": 42,
		"velocity": 127,
		"subtype": "noteOn",
		"time": 35280,
		"track": 5
	},
	{
		"deltaTime": 60,
		"channel": 9,
		"type": "channel",
		"subtype": "noteOff",
		"noteNumber": 42,
		"velocity": 0,
		"time": 35340,
		"track": 5
	},
	{
		"deltaTime": 0,
		"channel": 9,
		"type": "channel",
		"noteNumber": 42,
		"velocity": 127,
		"subtype": "noteOn",
		"time": 35400,
		"track": 5
	},
	{
		"deltaTime": 0,
		"channel": 9,
		"type": "channel",
		"noteNumber": 36,
		"velocity": 127,
		"subtype": "noteOn",
		"time": 35400,
		"track": 5
	},
	{
		"deltaTime": 60,
		"channel": 9,
		"type": "channel",
		"noteNumber": 35,
		"velocity": 127,
		"subtype": "noteOn",
		"time": 35400,
		"track": 5
	},
	{
		"deltaTime": 0,
		"channel": 9,
		"type": "channel",
		"subtype": "noteOff",
		"noteNumber": 35,
		"velocity": 0,
		"time": 35460,
		"track": 5
	},
	{
		"deltaTime": 0,
		"channel": 9,
		"type": "channel",
		"subtype": "noteOff",
		"noteNumber": 36,
		"velocity": 0,
		"time": 35460,
		"track": 5
	},
	{
		"deltaTime": 60,
		"channel": 9,
		"type": "channel",
		"subtype": "noteOff",
		"noteNumber": 42,
		"velocity": 0,
		"time": 35460,
		"track": 5
	},
	{
		"deltaTime": 0,
		"channel": 0,
		"type": "channel",
		"subtype": "noteOff",
		"noteNumber": 42,
		"velocity": 0,
		"time": 35520,
		"track": 2
	},
	{
		"deltaTime": 0,
		"channel": 0,
		"type": "channel",
		"noteNumber": 35,
		"velocity": 127,
		"subtype": "noteOn",
		"time": 35520,
		"track": 2
	},
	{
		"deltaTime": 0,
		"channel": 2,
		"type": "channel",
		"subtype": "noteOff",
		"noteNumber": 70,
		"velocity": 0,
		"time": 35520,
		"track": 4
	},
	{
		"deltaTime": 0,
		"channel": 2,
		"type": "channel",
		"subtype": "noteOff",
		"noteNumber": 66,
		"velocity": 0,
		"time": 35520,
		"track": 4
	},
	{
		"deltaTime": 0,
		"channel": 2,
		"type": "channel",
		"subtype": "noteOff",
		"noteNumber": 61,
		"velocity": 0,
		"time": 35520,
		"track": 4
	},
	{
		"deltaTime": 0,
		"channel": 2,
		"type": "channel",
		"noteNumber": 47,
		"velocity": 127,
		"subtype": "noteOn",
		"time": 35520,
		"track": 4
	},
	{
		"deltaTime": 60,
		"channel": 9,
		"type": "channel",
		"noteNumber": 42,
		"velocity": 127,
		"subtype": "noteOn",
		"time": 35520,
		"track": 5
	},
	{
		"deltaTime": 60,
		"channel": 9,
		"type": "channel",
		"subtype": "noteOff",
		"noteNumber": 42,
		"velocity": 0,
		"time": 35580,
		"track": 5
	},
	{
		"deltaTime": 60,
		"channel": 9,
		"type": "channel",
		"noteNumber": 42,
		"velocity": 127,
		"subtype": "noteOn",
		"time": 35640,
		"track": 5
	},
	{
		"deltaTime": 60,
		"channel": 9,
		"type": "channel",
		"subtype": "noteOff",
		"noteNumber": 42,
		"velocity": 0,
		"time": 35700,
		"track": 5
	},
	{
		"deltaTime": 0,
		"channel": 9,
		"type": "channel",
		"noteNumber": 42,
		"velocity": 127,
		"subtype": "noteOn",
		"time": 35760,
		"track": 5
	},
	{
		"deltaTime": 0,
		"channel": 9,
		"type": "channel",
		"noteNumber": 36,
		"velocity": 127,
		"subtype": "noteOn",
		"time": 35760,
		"track": 5
	},
	{
		"deltaTime": 60,
		"channel": 9,
		"type": "channel",
		"noteNumber": 35,
		"velocity": 127,
		"subtype": "noteOn",
		"time": 35760,
		"track": 5
	},
	{
		"deltaTime": 0,
		"channel": 9,
		"type": "channel",
		"subtype": "noteOff",
		"noteNumber": 35,
		"velocity": 0,
		"time": 35820,
		"track": 5
	},
	{
		"deltaTime": 0,
		"channel": 9,
		"type": "channel",
		"subtype": "noteOff",
		"noteNumber": 36,
		"velocity": 0,
		"time": 35820,
		"track": 5
	},
	{
		"deltaTime": 60,
		"channel": 9,
		"type": "channel",
		"subtype": "noteOff",
		"noteNumber": 42,
		"velocity": 0,
		"time": 35820,
		"track": 5
	},
	{
		"deltaTime": 0,
		"channel": 2,
		"type": "channel",
		"subtype": "noteOff",
		"noteNumber": 47,
		"velocity": 0,
		"time": 35880,
		"track": 4
	},
	{
		"deltaTime": 0,
		"channel": 2,
		"type": "channel",
		"noteNumber": 61,
		"velocity": 127,
		"subtype": "noteOn",
		"time": 35880,
		"track": 4
	},
	{
		"deltaTime": 0,
		"channel": 2,
		"type": "channel",
		"noteNumber": 66,
		"velocity": 127,
		"subtype": "noteOn",
		"time": 35880,
		"track": 4
	},
	{
		"deltaTime": 0,
		"channel": 2,
		"type": "channel",
		"noteNumber": 70,
		"velocity": 127,
		"subtype": "noteOn",
		"time": 35880,
		"track": 4
	},
	{
		"deltaTime": 60,
		"channel": 9,
		"type": "channel",
		"noteNumber": 42,
		"velocity": 127,
		"subtype": "noteOn",
		"time": 35880,
		"track": 5
	},
	{
		"deltaTime": 60,
		"channel": 9,
		"type": "channel",
		"subtype": "noteOff",
		"noteNumber": 42,
		"velocity": 0,
		"time": 35940,
		"track": 5
	},
	{
		"deltaTime": 0,
		"channel": 0,
		"type": "channel",
		"subtype": "noteOff",
		"noteNumber": 35,
		"velocity": 0,
		"time": 36000,
		"track": 2
	},
	{
		"deltaTime": 0,
		"channel": 0,
		"type": "channel",
		"noteNumber": 34,
		"velocity": 127,
		"subtype": "noteOn",
		"time": 36000,
		"track": 2
	},
	{
		"deltaTime": 0,
		"channel": 9,
		"type": "channel",
		"noteNumber": 42,
		"velocity": 127,
		"subtype": "noteOn",
		"time": 36000,
		"track": 5
	},
	{
		"deltaTime": 0,
		"channel": 9,
		"type": "channel",
		"noteNumber": 40,
		"velocity": 127,
		"subtype": "noteOn",
		"time": 36000,
		"track": 5
	},
	{
		"deltaTime": 60,
		"channel": 9,
		"type": "channel",
		"noteNumber": 38,
		"velocity": 127,
		"subtype": "noteOn",
		"time": 36000,
		"track": 5
	},
	{
		"deltaTime": 0,
		"channel": 9,
		"type": "channel",
		"subtype": "noteOff",
		"noteNumber": 38,
		"velocity": 0,
		"time": 36060,
		"track": 5
	},
	{
		"deltaTime": 0,
		"channel": 9,
		"type": "channel",
		"subtype": "noteOff",
		"noteNumber": 40,
		"velocity": 0,
		"time": 36060,
		"track": 5
	},
	{
		"deltaTime": 60,
		"channel": 9,
		"type": "channel",
		"subtype": "noteOff",
		"noteNumber": 42,
		"velocity": 0,
		"time": 36060,
		"track": 5
	},
	{
		"deltaTime": 0,
		"channel": 2,
		"type": "channel",
		"subtype": "noteOff",
		"noteNumber": 70,
		"velocity": 0,
		"time": 36120,
		"track": 4
	},
	{
		"deltaTime": 0,
		"channel": 2,
		"type": "channel",
		"subtype": "noteOff",
		"noteNumber": 66,
		"velocity": 0,
		"time": 36120,
		"track": 4
	},
	{
		"deltaTime": 0,
		"channel": 2,
		"type": "channel",
		"subtype": "noteOff",
		"noteNumber": 61,
		"velocity": 0,
		"time": 36120,
		"track": 4
	},
	{
		"deltaTime": 0,
		"channel": 2,
		"type": "channel",
		"noteNumber": 61,
		"velocity": 127,
		"subtype": "noteOn",
		"time": 36120,
		"track": 4
	},
	{
		"deltaTime": 0,
		"channel": 2,
		"type": "channel",
		"noteNumber": 66,
		"velocity": 127,
		"subtype": "noteOn",
		"time": 36120,
		"track": 4
	},
	{
		"deltaTime": 0,
		"channel": 2,
		"type": "channel",
		"noteNumber": 71,
		"velocity": 127,
		"subtype": "noteOn",
		"time": 36120,
		"track": 4
	},
	{
		"deltaTime": 60,
		"channel": 9,
		"type": "channel",
		"noteNumber": 42,
		"velocity": 127,
		"subtype": "noteOn",
		"time": 36120,
		"track": 5
	},
	{
		"deltaTime": 60,
		"channel": 9,
		"type": "channel",
		"subtype": "noteOff",
		"noteNumber": 42,
		"velocity": 0,
		"time": 36180,
		"track": 5
	},
	{
		"deltaTime": 60,
		"channel": 9,
		"type": "channel",
		"noteNumber": 42,
		"velocity": 127,
		"subtype": "noteOn",
		"time": 36240,
		"track": 5
	},
	{
		"deltaTime": 60,
		"channel": 9,
		"type": "channel",
		"subtype": "noteOff",
		"noteNumber": 42,
		"velocity": 0,
		"time": 36300,
		"track": 5
	},
	{
		"deltaTime": 60,
		"channel": 9,
		"type": "channel",
		"noteNumber": 42,
		"velocity": 127,
		"subtype": "noteOn",
		"time": 36360,
		"track": 5
	},
	{
		"deltaTime": 60,
		"channel": 9,
		"type": "channel",
		"subtype": "noteOff",
		"noteNumber": 42,
		"velocity": 0,
		"time": 36420,
		"track": 5
	},
	{
		"deltaTime": 0,
		"channel": 0,
		"type": "channel",
		"subtype": "noteOff",
		"noteNumber": 34,
		"velocity": 0,
		"time": 36480,
		"track": 2
	},
	{
		"deltaTime": 0,
		"channel": 0,
		"type": "channel",
		"noteNumber": 32,
		"velocity": 127,
		"subtype": "noteOn",
		"time": 36480,
		"track": 2
	},
	{
		"deltaTime": 0,
		"channel": 2,
		"type": "channel",
		"subtype": "noteOff",
		"noteNumber": 71,
		"velocity": 0,
		"time": 36480,
		"track": 4
	},
	{
		"deltaTime": 0,
		"channel": 2,
		"type": "channel",
		"subtype": "noteOff",
		"noteNumber": 66,
		"velocity": 0,
		"time": 36480,
		"track": 4
	},
	{
		"deltaTime": 0,
		"channel": 2,
		"type": "channel",
		"subtype": "noteOff",
		"noteNumber": 61,
		"velocity": 0,
		"time": 36480,
		"track": 4
	},
	{
		"deltaTime": 0,
		"channel": 2,
		"type": "channel",
		"noteNumber": 44,
		"velocity": 127,
		"subtype": "noteOn",
		"time": 36480,
		"track": 4
	},
	{
		"deltaTime": 0,
		"channel": 9,
		"type": "channel",
		"noteNumber": 42,
		"velocity": 127,
		"subtype": "noteOn",
		"time": 36480,
		"track": 5
	},
	{
		"deltaTime": 0,
		"channel": 9,
		"type": "channel",
		"noteNumber": 35,
		"velocity": 127,
		"subtype": "noteOn",
		"time": 36480,
		"track": 5
	},
	{
		"deltaTime": 60,
		"channel": 9,
		"type": "channel",
		"noteNumber": 36,
		"velocity": 127,
		"subtype": "noteOn",
		"time": 36480,
		"track": 5
	},
	{
		"deltaTime": 0,
		"channel": 9,
		"type": "channel",
		"subtype": "noteOff",
		"noteNumber": 36,
		"velocity": 0,
		"time": 36540,
		"track": 5
	},
	{
		"deltaTime": 0,
		"channel": 9,
		"type": "channel",
		"subtype": "noteOff",
		"noteNumber": 35,
		"velocity": 0,
		"time": 36540,
		"track": 5
	},
	{
		"deltaTime": 60,
		"channel": 9,
		"type": "channel",
		"subtype": "noteOff",
		"noteNumber": 42,
		"velocity": 0,
		"time": 36540,
		"track": 5
	},
	{
		"deltaTime": 60,
		"channel": 9,
		"type": "channel",
		"noteNumber": 42,
		"velocity": 127,
		"subtype": "noteOn",
		"time": 36600,
		"track": 5
	},
	{
		"deltaTime": 60,
		"channel": 9,
		"type": "channel",
		"subtype": "noteOff",
		"noteNumber": 42,
		"velocity": 0,
		"time": 36660,
		"track": 5
	},
	{
		"deltaTime": 0,
		"channel": 9,
		"type": "channel",
		"noteNumber": 42,
		"velocity": 127,
		"subtype": "noteOn",
		"time": 36720,
		"track": 5
	},
	{
		"deltaTime": 0,
		"channel": 9,
		"type": "channel",
		"noteNumber": 36,
		"velocity": 127,
		"subtype": "noteOn",
		"time": 36720,
		"track": 5
	},
	{
		"deltaTime": 60,
		"channel": 9,
		"type": "channel",
		"noteNumber": 35,
		"velocity": 127,
		"subtype": "noteOn",
		"time": 36720,
		"track": 5
	},
	{
		"deltaTime": 0,
		"channel": 9,
		"type": "channel",
		"subtype": "noteOff",
		"noteNumber": 35,
		"velocity": 0,
		"time": 36780,
		"track": 5
	},
	{
		"deltaTime": 0,
		"channel": 9,
		"type": "channel",
		"subtype": "noteOff",
		"noteNumber": 36,
		"velocity": 0,
		"time": 36780,
		"track": 5
	},
	{
		"deltaTime": 60,
		"channel": 9,
		"type": "channel",
		"subtype": "noteOff",
		"noteNumber": 42,
		"velocity": 0,
		"time": 36780,
		"track": 5
	},
	{
		"deltaTime": 0,
		"channel": 2,
		"type": "channel",
		"subtype": "noteOff",
		"noteNumber": 44,
		"velocity": 0,
		"time": 36840,
		"track": 4
	},
	{
		"deltaTime": 0,
		"channel": 2,
		"type": "channel",
		"noteNumber": 59,
		"velocity": 127,
		"subtype": "noteOn",
		"time": 36840,
		"track": 4
	},
	{
		"deltaTime": 0,
		"channel": 2,
		"type": "channel",
		"noteNumber": 63,
		"velocity": 127,
		"subtype": "noteOn",
		"time": 36840,
		"track": 4
	},
	{
		"deltaTime": 0,
		"channel": 2,
		"type": "channel",
		"noteNumber": 68,
		"velocity": 127,
		"subtype": "noteOn",
		"time": 36840,
		"track": 4
	},
	{
		"deltaTime": 60,
		"channel": 9,
		"type": "channel",
		"noteNumber": 42,
		"velocity": 127,
		"subtype": "noteOn",
		"time": 36840,
		"track": 5
	},
	{
		"deltaTime": 60,
		"channel": 9,
		"type": "channel",
		"subtype": "noteOff",
		"noteNumber": 42,
		"velocity": 0,
		"time": 36900,
		"track": 5
	},
	{
		"deltaTime": 0,
		"channel": 9,
		"type": "channel",
		"noteNumber": 42,
		"velocity": 127,
		"subtype": "noteOn",
		"time": 36960,
		"track": 5
	},
	{
		"deltaTime": 0,
		"channel": 9,
		"type": "channel",
		"noteNumber": 38,
		"velocity": 127,
		"subtype": "noteOn",
		"time": 36960,
		"track": 5
	},
	{
		"deltaTime": 60,
		"channel": 9,
		"type": "channel",
		"noteNumber": 40,
		"velocity": 127,
		"subtype": "noteOn",
		"time": 36960,
		"track": 5
	},
	{
		"deltaTime": 0,
		"channel": 9,
		"type": "channel",
		"subtype": "noteOff",
		"noteNumber": 40,
		"velocity": 0,
		"time": 37020,
		"track": 5
	},
	{
		"deltaTime": 0,
		"channel": 9,
		"type": "channel",
		"subtype": "noteOff",
		"noteNumber": 38,
		"velocity": 0,
		"time": 37020,
		"track": 5
	},
	{
		"deltaTime": 60,
		"channel": 9,
		"type": "channel",
		"subtype": "noteOff",
		"noteNumber": 42,
		"velocity": 0,
		"time": 37020,
		"track": 5
	},
	{
		"deltaTime": 0,
		"channel": 2,
		"type": "channel",
		"subtype": "noteOff",
		"noteNumber": 68,
		"velocity": 0,
		"time": 37080,
		"track": 4
	},
	{
		"deltaTime": 0,
		"channel": 2,
		"type": "channel",
		"subtype": "noteOff",
		"noteNumber": 63,
		"velocity": 0,
		"time": 37080,
		"track": 4
	},
	{
		"deltaTime": 0,
		"channel": 2,
		"type": "channel",
		"subtype": "noteOff",
		"noteNumber": 59,
		"velocity": 0,
		"time": 37080,
		"track": 4
	},
	{
		"deltaTime": 0,
		"channel": 2,
		"type": "channel",
		"noteNumber": 59,
		"velocity": 127,
		"subtype": "noteOn",
		"time": 37080,
		"track": 4
	},
	{
		"deltaTime": 0,
		"channel": 2,
		"type": "channel",
		"noteNumber": 63,
		"velocity": 127,
		"subtype": "noteOn",
		"time": 37080,
		"track": 4
	},
	{
		"deltaTime": 0,
		"channel": 2,
		"type": "channel",
		"noteNumber": 68,
		"velocity": 127,
		"subtype": "noteOn",
		"time": 37080,
		"track": 4
	},
	{
		"deltaTime": 60,
		"channel": 9,
		"type": "channel",
		"noteNumber": 42,
		"velocity": 127,
		"subtype": "noteOn",
		"time": 37080,
		"track": 5
	},
	{
		"deltaTime": 60,
		"channel": 9,
		"type": "channel",
		"subtype": "noteOff",
		"noteNumber": 42,
		"velocity": 0,
		"time": 37140,
		"track": 5
	},
	{
		"deltaTime": 60,
		"channel": 9,
		"type": "channel",
		"noteNumber": 42,
		"velocity": 127,
		"subtype": "noteOn",
		"time": 37200,
		"track": 5
	},
	{
		"deltaTime": 60,
		"channel": 9,
		"type": "channel",
		"subtype": "noteOff",
		"noteNumber": 42,
		"velocity": 0,
		"time": 37260,
		"track": 5
	},
	{
		"deltaTime": 0,
		"channel": 9,
		"type": "channel",
		"noteNumber": 42,
		"velocity": 127,
		"subtype": "noteOn",
		"time": 37320,
		"track": 5
	},
	{
		"deltaTime": 0,
		"channel": 9,
		"type": "channel",
		"noteNumber": 36,
		"velocity": 127,
		"subtype": "noteOn",
		"time": 37320,
		"track": 5
	},
	{
		"deltaTime": 60,
		"channel": 9,
		"type": "channel",
		"noteNumber": 35,
		"velocity": 127,
		"subtype": "noteOn",
		"time": 37320,
		"track": 5
	},
	{
		"deltaTime": 0,
		"channel": 9,
		"type": "channel",
		"subtype": "noteOff",
		"noteNumber": 35,
		"velocity": 0,
		"time": 37380,
		"track": 5
	},
	{
		"deltaTime": 0,
		"channel": 9,
		"type": "channel",
		"subtype": "noteOff",
		"noteNumber": 36,
		"velocity": 0,
		"time": 37380,
		"track": 5
	},
	{
		"deltaTime": 60,
		"channel": 9,
		"type": "channel",
		"subtype": "noteOff",
		"noteNumber": 42,
		"velocity": 0,
		"time": 37380,
		"track": 5
	},
	{
		"deltaTime": 0,
		"channel": 0,
		"type": "channel",
		"subtype": "noteOff",
		"noteNumber": 32,
		"velocity": 0,
		"time": 37440,
		"track": 2
	},
	{
		"deltaTime": 0,
		"channel": 0,
		"type": "channel",
		"noteNumber": 40,
		"velocity": 127,
		"subtype": "noteOn",
		"time": 37440,
		"track": 2
	},
	{
		"deltaTime": 0,
		"channel": 2,
		"type": "channel",
		"subtype": "noteOff",
		"noteNumber": 68,
		"velocity": 0,
		"time": 37440,
		"track": 4
	},
	{
		"deltaTime": 0,
		"channel": 2,
		"type": "channel",
		"subtype": "noteOff",
		"noteNumber": 63,
		"velocity": 0,
		"time": 37440,
		"track": 4
	},
	{
		"deltaTime": 0,
		"channel": 2,
		"type": "channel",
		"subtype": "noteOff",
		"noteNumber": 59,
		"velocity": 0,
		"time": 37440,
		"track": 4
	},
	{
		"deltaTime": 0,
		"channel": 2,
		"type": "channel",
		"noteNumber": 40,
		"velocity": 127,
		"subtype": "noteOn",
		"time": 37440,
		"track": 4
	},
	{
		"deltaTime": 60,
		"channel": 9,
		"type": "channel",
		"noteNumber": 42,
		"velocity": 127,
		"subtype": "noteOn",
		"time": 37440,
		"track": 5
	},
	{
		"deltaTime": 60,
		"channel": 9,
		"type": "channel",
		"subtype": "noteOff",
		"noteNumber": 42,
		"velocity": 0,
		"time": 37500,
		"track": 5
	},
	{
		"deltaTime": 60,
		"channel": 9,
		"type": "channel",
		"noteNumber": 42,
		"velocity": 127,
		"subtype": "noteOn",
		"time": 37560,
		"track": 5
	},
	{
		"deltaTime": 60,
		"channel": 9,
		"type": "channel",
		"subtype": "noteOff",
		"noteNumber": 42,
		"velocity": 0,
		"time": 37620,
		"track": 5
	},
	{
		"deltaTime": 0,
		"channel": 9,
		"type": "channel",
		"noteNumber": 42,
		"velocity": 127,
		"subtype": "noteOn",
		"time": 37680,
		"track": 5
	},
	{
		"deltaTime": 0,
		"channel": 9,
		"type": "channel",
		"noteNumber": 36,
		"velocity": 127,
		"subtype": "noteOn",
		"time": 37680,
		"track": 5
	},
	{
		"deltaTime": 60,
		"channel": 9,
		"type": "channel",
		"noteNumber": 35,
		"velocity": 127,
		"subtype": "noteOn",
		"time": 37680,
		"track": 5
	},
	{
		"deltaTime": 0,
		"channel": 9,
		"type": "channel",
		"subtype": "noteOff",
		"noteNumber": 35,
		"velocity": 0,
		"time": 37740,
		"track": 5
	},
	{
		"deltaTime": 0,
		"channel": 9,
		"type": "channel",
		"subtype": "noteOff",
		"noteNumber": 36,
		"velocity": 0,
		"time": 37740,
		"track": 5
	},
	{
		"deltaTime": 60,
		"channel": 9,
		"type": "channel",
		"subtype": "noteOff",
		"noteNumber": 42,
		"velocity": 0,
		"time": 37740,
		"track": 5
	},
	{
		"deltaTime": 0,
		"channel": 2,
		"type": "channel",
		"subtype": "noteOff",
		"noteNumber": 40,
		"velocity": 0,
		"time": 37800,
		"track": 4
	},
	{
		"deltaTime": 0,
		"channel": 2,
		"type": "channel",
		"noteNumber": 59,
		"velocity": 127,
		"subtype": "noteOn",
		"time": 37800,
		"track": 4
	},
	{
		"deltaTime": 0,
		"channel": 2,
		"type": "channel",
		"noteNumber": 63,
		"velocity": 127,
		"subtype": "noteOn",
		"time": 37800,
		"track": 4
	},
	{
		"deltaTime": 0,
		"channel": 2,
		"type": "channel",
		"noteNumber": 68,
		"velocity": 127,
		"subtype": "noteOn",
		"time": 37800,
		"track": 4
	},
	{
		"deltaTime": 60,
		"channel": 9,
		"type": "channel",
		"noteNumber": 42,
		"velocity": 127,
		"subtype": "noteOn",
		"time": 37800,
		"track": 5
	},
	{
		"deltaTime": 60,
		"channel": 9,
		"type": "channel",
		"subtype": "noteOff",
		"noteNumber": 42,
		"velocity": 0,
		"time": 37860,
		"track": 5
	},
	{
		"deltaTime": 0,
		"channel": 9,
		"type": "channel",
		"noteNumber": 42,
		"velocity": 127,
		"subtype": "noteOn",
		"time": 37920,
		"track": 5
	},
	{
		"deltaTime": 0,
		"channel": 9,
		"type": "channel",
		"noteNumber": 40,
		"velocity": 127,
		"subtype": "noteOn",
		"time": 37920,
		"track": 5
	},
	{
		"deltaTime": 60,
		"channel": 9,
		"type": "channel",
		"noteNumber": 38,
		"velocity": 127,
		"subtype": "noteOn",
		"time": 37920,
		"track": 5
	},
	{
		"deltaTime": 0,
		"channel": 9,
		"type": "channel",
		"subtype": "noteOff",
		"noteNumber": 38,
		"velocity": 0,
		"time": 37980,
		"track": 5
	},
	{
		"deltaTime": 0,
		"channel": 9,
		"type": "channel",
		"subtype": "noteOff",
		"noteNumber": 40,
		"velocity": 0,
		"time": 37980,
		"track": 5
	},
	{
		"deltaTime": 60,
		"channel": 9,
		"type": "channel",
		"subtype": "noteOff",
		"noteNumber": 42,
		"velocity": 0,
		"time": 37980,
		"track": 5
	},
	{
		"deltaTime": 0,
		"channel": 2,
		"type": "channel",
		"subtype": "noteOff",
		"noteNumber": 68,
		"velocity": 0,
		"time": 38040,
		"track": 4
	},
	{
		"deltaTime": 0,
		"channel": 2,
		"type": "channel",
		"subtype": "noteOff",
		"noteNumber": 63,
		"velocity": 0,
		"time": 38040,
		"track": 4
	},
	{
		"deltaTime": 0,
		"channel": 2,
		"type": "channel",
		"subtype": "noteOff",
		"noteNumber": 59,
		"velocity": 0,
		"time": 38040,
		"track": 4
	},
	{
		"deltaTime": 0,
		"channel": 2,
		"type": "channel",
		"noteNumber": 59,
		"velocity": 127,
		"subtype": "noteOn",
		"time": 38040,
		"track": 4
	},
	{
		"deltaTime": 0,
		"channel": 2,
		"type": "channel",
		"noteNumber": 63,
		"velocity": 127,
		"subtype": "noteOn",
		"time": 38040,
		"track": 4
	},
	{
		"deltaTime": 0,
		"channel": 2,
		"type": "channel",
		"noteNumber": 68,
		"velocity": 127,
		"subtype": "noteOn",
		"time": 38040,
		"track": 4
	},
	{
		"deltaTime": 60,
		"channel": 9,
		"type": "channel",
		"noteNumber": 42,
		"velocity": 127,
		"subtype": "noteOn",
		"time": 38040,
		"track": 5
	},
	{
		"deltaTime": 60,
		"channel": 9,
		"type": "channel",
		"subtype": "noteOff",
		"noteNumber": 42,
		"velocity": 0,
		"time": 38100,
		"track": 5
	},
	{
		"deltaTime": 60,
		"channel": 9,
		"type": "channel",
		"noteNumber": 42,
		"velocity": 127,
		"subtype": "noteOn",
		"time": 38160,
		"track": 5
	},
	{
		"deltaTime": 60,
		"channel": 9,
		"type": "channel",
		"subtype": "noteOff",
		"noteNumber": 42,
		"velocity": 0,
		"time": 38220,
		"track": 5
	},
	{
		"deltaTime": 60,
		"channel": 9,
		"type": "channel",
		"noteNumber": 42,
		"velocity": 127,
		"subtype": "noteOn",
		"time": 38280,
		"track": 5
	},
	{
		"deltaTime": 60,
		"channel": 9,
		"type": "channel",
		"subtype": "noteOff",
		"noteNumber": 42,
		"velocity": 0,
		"time": 38340,
		"track": 5
	},
	{
		"deltaTime": 0,
		"channel": 0,
		"type": "channel",
		"subtype": "noteOff",
		"noteNumber": 40,
		"velocity": 0,
		"time": 38400,
		"track": 2
	},
	{
		"deltaTime": 0,
		"channel": 0,
		"type": "channel",
		"noteNumber": 42,
		"velocity": 127,
		"subtype": "noteOn",
		"time": 38400,
		"track": 2
	},
	{
		"deltaTime": 0,
		"channel": 2,
		"type": "channel",
		"subtype": "noteOff",
		"noteNumber": 68,
		"velocity": 0,
		"time": 38400,
		"track": 4
	},
	{
		"deltaTime": 0,
		"channel": 2,
		"type": "channel",
		"subtype": "noteOff",
		"noteNumber": 63,
		"velocity": 0,
		"time": 38400,
		"track": 4
	},
	{
		"deltaTime": 0,
		"channel": 2,
		"type": "channel",
		"subtype": "noteOff",
		"noteNumber": 59,
		"velocity": 0,
		"time": 38400,
		"track": 4
	},
	{
		"deltaTime": 0,
		"channel": 2,
		"type": "channel",
		"noteNumber": 42,
		"velocity": 127,
		"subtype": "noteOn",
		"time": 38400,
		"track": 4
	},
	{
		"deltaTime": 0,
		"channel": 9,
		"type": "channel",
		"noteNumber": 42,
		"velocity": 127,
		"subtype": "noteOn",
		"time": 38400,
		"track": 5
	},
	{
		"deltaTime": 0,
		"channel": 9,
		"type": "channel",
		"noteNumber": 35,
		"velocity": 127,
		"subtype": "noteOn",
		"time": 38400,
		"track": 5
	},
	{
		"deltaTime": 60,
		"channel": 9,
		"type": "channel",
		"noteNumber": 36,
		"velocity": 127,
		"subtype": "noteOn",
		"time": 38400,
		"track": 5
	},
	{
		"deltaTime": 0,
		"channel": 9,
		"type": "channel",
		"subtype": "noteOff",
		"noteNumber": 36,
		"velocity": 0,
		"time": 38460,
		"track": 5
	},
	{
		"deltaTime": 0,
		"channel": 9,
		"type": "channel",
		"subtype": "noteOff",
		"noteNumber": 35,
		"velocity": 0,
		"time": 38460,
		"track": 5
	},
	{
		"deltaTime": 60,
		"channel": 9,
		"type": "channel",
		"subtype": "noteOff",
		"noteNumber": 42,
		"velocity": 0,
		"time": 38460,
		"track": 5
	},
	{
		"deltaTime": 60,
		"channel": 9,
		"type": "channel",
		"noteNumber": 42,
		"velocity": 127,
		"subtype": "noteOn",
		"time": 38520,
		"track": 5
	},
	{
		"deltaTime": 60,
		"channel": 9,
		"type": "channel",
		"subtype": "noteOff",
		"noteNumber": 42,
		"velocity": 0,
		"time": 38580,
		"track": 5
	},
	{
		"deltaTime": 0,
		"channel": 9,
		"type": "channel",
		"noteNumber": 42,
		"velocity": 127,
		"subtype": "noteOn",
		"time": 38640,
		"track": 5
	},
	{
		"deltaTime": 0,
		"channel": 9,
		"type": "channel",
		"noteNumber": 36,
		"velocity": 127,
		"subtype": "noteOn",
		"time": 38640,
		"track": 5
	},
	{
		"deltaTime": 60,
		"channel": 9,
		"type": "channel",
		"noteNumber": 35,
		"velocity": 127,
		"subtype": "noteOn",
		"time": 38640,
		"track": 5
	},
	{
		"deltaTime": 0,
		"channel": 9,
		"type": "channel",
		"subtype": "noteOff",
		"noteNumber": 35,
		"velocity": 0,
		"time": 38700,
		"track": 5
	},
	{
		"deltaTime": 0,
		"channel": 9,
		"type": "channel",
		"subtype": "noteOff",
		"noteNumber": 36,
		"velocity": 0,
		"time": 38700,
		"track": 5
	},
	{
		"deltaTime": 60,
		"channel": 9,
		"type": "channel",
		"subtype": "noteOff",
		"noteNumber": 42,
		"velocity": 0,
		"time": 38700,
		"track": 5
	},
	{
		"deltaTime": 0,
		"channel": 2,
		"type": "channel",
		"subtype": "noteOff",
		"noteNumber": 42,
		"velocity": 0,
		"time": 38760,
		"track": 4
	},
	{
		"deltaTime": 0,
		"channel": 2,
		"type": "channel",
		"noteNumber": 61,
		"velocity": 127,
		"subtype": "noteOn",
		"time": 38760,
		"track": 4
	},
	{
		"deltaTime": 0,
		"channel": 2,
		"type": "channel",
		"noteNumber": 66,
		"velocity": 127,
		"subtype": "noteOn",
		"time": 38760,
		"track": 4
	},
	{
		"deltaTime": 0,
		"channel": 2,
		"type": "channel",
		"noteNumber": 70,
		"velocity": 127,
		"subtype": "noteOn",
		"time": 38760,
		"track": 4
	},
	{
		"deltaTime": 60,
		"channel": 9,
		"type": "channel",
		"noteNumber": 42,
		"velocity": 127,
		"subtype": "noteOn",
		"time": 38760,
		"track": 5
	},
	{
		"deltaTime": 60,
		"channel": 9,
		"type": "channel",
		"subtype": "noteOff",
		"noteNumber": 42,
		"velocity": 0,
		"time": 38820,
		"track": 5
	},
	{
		"deltaTime": 0,
		"channel": 9,
		"type": "channel",
		"noteNumber": 42,
		"velocity": 127,
		"subtype": "noteOn",
		"time": 38880,
		"track": 5
	},
	{
		"deltaTime": 0,
		"channel": 9,
		"type": "channel",
		"noteNumber": 38,
		"velocity": 127,
		"subtype": "noteOn",
		"time": 38880,
		"track": 5
	},
	{
		"deltaTime": 60,
		"channel": 9,
		"type": "channel",
		"noteNumber": 40,
		"velocity": 127,
		"subtype": "noteOn",
		"time": 38880,
		"track": 5
	},
	{
		"deltaTime": 0,
		"channel": 9,
		"type": "channel",
		"subtype": "noteOff",
		"noteNumber": 40,
		"velocity": 0,
		"time": 38940,
		"track": 5
	},
	{
		"deltaTime": 0,
		"channel": 9,
		"type": "channel",
		"subtype": "noteOff",
		"noteNumber": 38,
		"velocity": 0,
		"time": 38940,
		"track": 5
	},
	{
		"deltaTime": 60,
		"channel": 9,
		"type": "channel",
		"subtype": "noteOff",
		"noteNumber": 42,
		"velocity": 0,
		"time": 38940,
		"track": 5
	},
	{
		"deltaTime": 0,
		"channel": 2,
		"type": "channel",
		"subtype": "noteOff",
		"noteNumber": 70,
		"velocity": 0,
		"time": 39000,
		"track": 4
	},
	{
		"deltaTime": 0,
		"channel": 2,
		"type": "channel",
		"subtype": "noteOff",
		"noteNumber": 66,
		"velocity": 0,
		"time": 39000,
		"track": 4
	},
	{
		"deltaTime": 0,
		"channel": 2,
		"type": "channel",
		"subtype": "noteOff",
		"noteNumber": 61,
		"velocity": 0,
		"time": 39000,
		"track": 4
	},
	{
		"deltaTime": 0,
		"channel": 2,
		"type": "channel",
		"noteNumber": 61,
		"velocity": 127,
		"subtype": "noteOn",
		"time": 39000,
		"track": 4
	},
	{
		"deltaTime": 0,
		"channel": 2,
		"type": "channel",
		"noteNumber": 66,
		"velocity": 127,
		"subtype": "noteOn",
		"time": 39000,
		"track": 4
	},
	{
		"deltaTime": 0,
		"channel": 2,
		"type": "channel",
		"noteNumber": 70,
		"velocity": 127,
		"subtype": "noteOn",
		"time": 39000,
		"track": 4
	},
	{
		"deltaTime": 60,
		"channel": 9,
		"type": "channel",
		"noteNumber": 42,
		"velocity": 127,
		"subtype": "noteOn",
		"time": 39000,
		"track": 5
	},
	{
		"deltaTime": 60,
		"channel": 9,
		"type": "channel",
		"subtype": "noteOff",
		"noteNumber": 42,
		"velocity": 0,
		"time": 39060,
		"track": 5
	},
	{
		"deltaTime": 60,
		"channel": 9,
		"type": "channel",
		"noteNumber": 42,
		"velocity": 127,
		"subtype": "noteOn",
		"time": 39120,
		"track": 5
	},
	{
		"deltaTime": 60,
		"channel": 9,
		"type": "channel",
		"subtype": "noteOff",
		"noteNumber": 42,
		"velocity": 0,
		"time": 39180,
		"track": 5
	},
	{
		"deltaTime": 0,
		"channel": 9,
		"type": "channel",
		"noteNumber": 42,
		"velocity": 127,
		"subtype": "noteOn",
		"time": 39240,
		"track": 5
	},
	{
		"deltaTime": 0,
		"channel": 9,
		"type": "channel",
		"noteNumber": 36,
		"velocity": 127,
		"subtype": "noteOn",
		"time": 39240,
		"track": 5
	},
	{
		"deltaTime": 60,
		"channel": 9,
		"type": "channel",
		"noteNumber": 35,
		"velocity": 127,
		"subtype": "noteOn",
		"time": 39240,
		"track": 5
	},
	{
		"deltaTime": 0,
		"channel": 9,
		"type": "channel",
		"subtype": "noteOff",
		"noteNumber": 35,
		"velocity": 0,
		"time": 39300,
		"track": 5
	},
	{
		"deltaTime": 0,
		"channel": 9,
		"type": "channel",
		"subtype": "noteOff",
		"noteNumber": 36,
		"velocity": 0,
		"time": 39300,
		"track": 5
	},
	{
		"deltaTime": 60,
		"channel": 9,
		"type": "channel",
		"subtype": "noteOff",
		"noteNumber": 42,
		"velocity": 0,
		"time": 39300,
		"track": 5
	},
	{
		"deltaTime": 0,
		"channel": 0,
		"type": "channel",
		"subtype": "noteOff",
		"noteNumber": 42,
		"velocity": 0,
		"time": 39360,
		"track": 2
	},
	{
		"deltaTime": 0,
		"channel": 0,
		"type": "channel",
		"noteNumber": 35,
		"velocity": 127,
		"subtype": "noteOn",
		"time": 39360,
		"track": 2
	},
	{
		"deltaTime": 0,
		"channel": 2,
		"type": "channel",
		"subtype": "noteOff",
		"noteNumber": 70,
		"velocity": 0,
		"time": 39360,
		"track": 4
	},
	{
		"deltaTime": 0,
		"channel": 2,
		"type": "channel",
		"subtype": "noteOff",
		"noteNumber": 66,
		"velocity": 0,
		"time": 39360,
		"track": 4
	},
	{
		"deltaTime": 0,
		"channel": 2,
		"type": "channel",
		"subtype": "noteOff",
		"noteNumber": 61,
		"velocity": 0,
		"time": 39360,
		"track": 4
	},
	{
		"deltaTime": 0,
		"channel": 2,
		"type": "channel",
		"noteNumber": 47,
		"velocity": 127,
		"subtype": "noteOn",
		"time": 39360,
		"track": 4
	},
	{
		"deltaTime": 60,
		"channel": 9,
		"type": "channel",
		"noteNumber": 42,
		"velocity": 127,
		"subtype": "noteOn",
		"time": 39360,
		"track": 5
	},
	{
		"deltaTime": 60,
		"channel": 9,
		"type": "channel",
		"subtype": "noteOff",
		"noteNumber": 42,
		"velocity": 0,
		"time": 39420,
		"track": 5
	},
	{
		"deltaTime": 60,
		"channel": 9,
		"type": "channel",
		"noteNumber": 42,
		"velocity": 127,
		"subtype": "noteOn",
		"time": 39480,
		"track": 5
	},
	{
		"deltaTime": 60,
		"channel": 9,
		"type": "channel",
		"subtype": "noteOff",
		"noteNumber": 42,
		"velocity": 0,
		"time": 39540,
		"track": 5
	},
	{
		"deltaTime": 0,
		"channel": 9,
		"type": "channel",
		"noteNumber": 42,
		"velocity": 127,
		"subtype": "noteOn",
		"time": 39600,
		"track": 5
	},
	{
		"deltaTime": 0,
		"channel": 9,
		"type": "channel",
		"noteNumber": 36,
		"velocity": 127,
		"subtype": "noteOn",
		"time": 39600,
		"track": 5
	},
	{
		"deltaTime": 60,
		"channel": 9,
		"type": "channel",
		"noteNumber": 35,
		"velocity": 127,
		"subtype": "noteOn",
		"time": 39600,
		"track": 5
	},
	{
		"deltaTime": 0,
		"channel": 9,
		"type": "channel",
		"subtype": "noteOff",
		"noteNumber": 35,
		"velocity": 0,
		"time": 39660,
		"track": 5
	},
	{
		"deltaTime": 0,
		"channel": 9,
		"type": "channel",
		"subtype": "noteOff",
		"noteNumber": 36,
		"velocity": 0,
		"time": 39660,
		"track": 5
	},
	{
		"deltaTime": 60,
		"channel": 9,
		"type": "channel",
		"subtype": "noteOff",
		"noteNumber": 42,
		"velocity": 0,
		"time": 39660,
		"track": 5
	},
	{
		"deltaTime": 0,
		"channel": 2,
		"type": "channel",
		"subtype": "noteOff",
		"noteNumber": 47,
		"velocity": 0,
		"time": 39720,
		"track": 4
	},
	{
		"deltaTime": 0,
		"channel": 2,
		"type": "channel",
		"noteNumber": 61,
		"velocity": 127,
		"subtype": "noteOn",
		"time": 39720,
		"track": 4
	},
	{
		"deltaTime": 0,
		"channel": 2,
		"type": "channel",
		"noteNumber": 66,
		"velocity": 127,
		"subtype": "noteOn",
		"time": 39720,
		"track": 4
	},
	{
		"deltaTime": 0,
		"channel": 2,
		"type": "channel",
		"noteNumber": 70,
		"velocity": 127,
		"subtype": "noteOn",
		"time": 39720,
		"track": 4
	},
	{
		"deltaTime": 60,
		"channel": 9,
		"type": "channel",
		"noteNumber": 42,
		"velocity": 127,
		"subtype": "noteOn",
		"time": 39720,
		"track": 5
	},
	{
		"deltaTime": 60,
		"channel": 9,
		"type": "channel",
		"subtype": "noteOff",
		"noteNumber": 42,
		"velocity": 0,
		"time": 39780,
		"track": 5
	},
	{
		"deltaTime": 0,
		"channel": 0,
		"type": "channel",
		"subtype": "noteOff",
		"noteNumber": 35,
		"velocity": 0,
		"time": 39840,
		"track": 2
	},
	{
		"deltaTime": 0,
		"channel": 0,
		"type": "channel",
		"noteNumber": 34,
		"velocity": 127,
		"subtype": "noteOn",
		"time": 39840,
		"track": 2
	},
	{
		"deltaTime": 0,
		"channel": 9,
		"type": "channel",
		"noteNumber": 42,
		"velocity": 127,
		"subtype": "noteOn",
		"time": 39840,
		"track": 5
	},
	{
		"deltaTime": 0,
		"channel": 9,
		"type": "channel",
		"noteNumber": 40,
		"velocity": 127,
		"subtype": "noteOn",
		"time": 39840,
		"track": 5
	},
	{
		"deltaTime": 60,
		"channel": 9,
		"type": "channel",
		"noteNumber": 38,
		"velocity": 127,
		"subtype": "noteOn",
		"time": 39840,
		"track": 5
	},
	{
		"deltaTime": 0,
		"channel": 9,
		"type": "channel",
		"subtype": "noteOff",
		"noteNumber": 38,
		"velocity": 0,
		"time": 39900,
		"track": 5
	},
	{
		"deltaTime": 0,
		"channel": 9,
		"type": "channel",
		"subtype": "noteOff",
		"noteNumber": 40,
		"velocity": 0,
		"time": 39900,
		"track": 5
	},
	{
		"deltaTime": 60,
		"channel": 9,
		"type": "channel",
		"subtype": "noteOff",
		"noteNumber": 42,
		"velocity": 0,
		"time": 39900,
		"track": 5
	},
	{
		"deltaTime": 0,
		"channel": 2,
		"type": "channel",
		"subtype": "noteOff",
		"noteNumber": 70,
		"velocity": 0,
		"time": 39960,
		"track": 4
	},
	{
		"deltaTime": 0,
		"channel": 2,
		"type": "channel",
		"subtype": "noteOff",
		"noteNumber": 66,
		"velocity": 0,
		"time": 39960,
		"track": 4
	},
	{
		"deltaTime": 0,
		"channel": 2,
		"type": "channel",
		"subtype": "noteOff",
		"noteNumber": 61,
		"velocity": 0,
		"time": 39960,
		"track": 4
	},
	{
		"deltaTime": 0,
		"channel": 2,
		"type": "channel",
		"noteNumber": 61,
		"velocity": 127,
		"subtype": "noteOn",
		"time": 39960,
		"track": 4
	},
	{
		"deltaTime": 0,
		"channel": 2,
		"type": "channel",
		"noteNumber": 66,
		"velocity": 127,
		"subtype": "noteOn",
		"time": 39960,
		"track": 4
	},
	{
		"deltaTime": 0,
		"channel": 2,
		"type": "channel",
		"noteNumber": 71,
		"velocity": 127,
		"subtype": "noteOn",
		"time": 39960,
		"track": 4
	},
	{
		"deltaTime": 60,
		"channel": 9,
		"type": "channel",
		"noteNumber": 42,
		"velocity": 127,
		"subtype": "noteOn",
		"time": 39960,
		"track": 5
	},
	{
		"deltaTime": 60,
		"channel": 9,
		"type": "channel",
		"subtype": "noteOff",
		"noteNumber": 42,
		"velocity": 0,
		"time": 40020,
		"track": 5
	},
	{
		"deltaTime": 60,
		"channel": 9,
		"type": "channel",
		"noteNumber": 42,
		"velocity": 127,
		"subtype": "noteOn",
		"time": 40080,
		"track": 5
	},
	{
		"deltaTime": 60,
		"channel": 9,
		"type": "channel",
		"subtype": "noteOff",
		"noteNumber": 42,
		"velocity": 0,
		"time": 40140,
		"track": 5
	},
	{
		"deltaTime": 60,
		"channel": 9,
		"type": "channel",
		"noteNumber": 42,
		"velocity": 127,
		"subtype": "noteOn",
		"time": 40200,
		"track": 5
	},
	{
		"deltaTime": 60,
		"channel": 9,
		"type": "channel",
		"subtype": "noteOff",
		"noteNumber": 42,
		"velocity": 0,
		"time": 40260,
		"track": 5
	},
	{
		"deltaTime": 0,
		"channel": 0,
		"type": "channel",
		"subtype": "noteOff",
		"noteNumber": 34,
		"velocity": 0,
		"time": 40320,
		"track": 2
	},
	{
		"deltaTime": 0,
		"channel": 0,
		"type": "channel",
		"noteNumber": 32,
		"velocity": 127,
		"subtype": "noteOn",
		"time": 40320,
		"track": 2
	},
	{
		"deltaTime": 0,
		"channel": 2,
		"type": "channel",
		"subtype": "noteOff",
		"noteNumber": 71,
		"velocity": 0,
		"time": 40320,
		"track": 4
	},
	{
		"deltaTime": 0,
		"channel": 2,
		"type": "channel",
		"subtype": "noteOff",
		"noteNumber": 66,
		"velocity": 0,
		"time": 40320,
		"track": 4
	},
	{
		"deltaTime": 0,
		"channel": 2,
		"type": "channel",
		"subtype": "noteOff",
		"noteNumber": 61,
		"velocity": 0,
		"time": 40320,
		"track": 4
	},
	{
		"deltaTime": 0,
		"channel": 2,
		"type": "channel",
		"noteNumber": 44,
		"velocity": 127,
		"subtype": "noteOn",
		"time": 40320,
		"track": 4
	},
	{
		"deltaTime": 0,
		"channel": 9,
		"type": "channel",
		"noteNumber": 42,
		"velocity": 127,
		"subtype": "noteOn",
		"time": 40320,
		"track": 5
	},
	{
		"deltaTime": 0,
		"channel": 9,
		"type": "channel",
		"noteNumber": 35,
		"velocity": 127,
		"subtype": "noteOn",
		"time": 40320,
		"track": 5
	},
	{
		"deltaTime": 60,
		"channel": 9,
		"type": "channel",
		"noteNumber": 36,
		"velocity": 127,
		"subtype": "noteOn",
		"time": 40320,
		"track": 5
	},
	{
		"deltaTime": 0,
		"channel": 9,
		"type": "channel",
		"subtype": "noteOff",
		"noteNumber": 36,
		"velocity": 0,
		"time": 40380,
		"track": 5
	},
	{
		"deltaTime": 0,
		"channel": 9,
		"type": "channel",
		"subtype": "noteOff",
		"noteNumber": 35,
		"velocity": 0,
		"time": 40380,
		"track": 5
	},
	{
		"deltaTime": 60,
		"channel": 9,
		"type": "channel",
		"subtype": "noteOff",
		"noteNumber": 42,
		"velocity": 0,
		"time": 40380,
		"track": 5
	},
	{
		"deltaTime": 60,
		"channel": 9,
		"type": "channel",
		"noteNumber": 42,
		"velocity": 127,
		"subtype": "noteOn",
		"time": 40440,
		"track": 5
	},
	{
		"deltaTime": 60,
		"channel": 9,
		"type": "channel",
		"subtype": "noteOff",
		"noteNumber": 42,
		"velocity": 0,
		"time": 40500,
		"track": 5
	},
	{
		"deltaTime": 0,
		"channel": 9,
		"type": "channel",
		"noteNumber": 42,
		"velocity": 127,
		"subtype": "noteOn",
		"time": 40560,
		"track": 5
	},
	{
		"deltaTime": 0,
		"channel": 9,
		"type": "channel",
		"noteNumber": 36,
		"velocity": 127,
		"subtype": "noteOn",
		"time": 40560,
		"track": 5
	},
	{
		"deltaTime": 60,
		"channel": 9,
		"type": "channel",
		"noteNumber": 35,
		"velocity": 127,
		"subtype": "noteOn",
		"time": 40560,
		"track": 5
	},
	{
		"deltaTime": 0,
		"channel": 9,
		"type": "channel",
		"subtype": "noteOff",
		"noteNumber": 35,
		"velocity": 0,
		"time": 40620,
		"track": 5
	},
	{
		"deltaTime": 0,
		"channel": 9,
		"type": "channel",
		"subtype": "noteOff",
		"noteNumber": 36,
		"velocity": 0,
		"time": 40620,
		"track": 5
	},
	{
		"deltaTime": 60,
		"channel": 9,
		"type": "channel",
		"subtype": "noteOff",
		"noteNumber": 42,
		"velocity": 0,
		"time": 40620,
		"track": 5
	},
	{
		"deltaTime": 0,
		"channel": 2,
		"type": "channel",
		"subtype": "noteOff",
		"noteNumber": 44,
		"velocity": 0,
		"time": 40680,
		"track": 4
	},
	{
		"deltaTime": 0,
		"channel": 2,
		"type": "channel",
		"noteNumber": 59,
		"velocity": 127,
		"subtype": "noteOn",
		"time": 40680,
		"track": 4
	},
	{
		"deltaTime": 0,
		"channel": 2,
		"type": "channel",
		"noteNumber": 63,
		"velocity": 127,
		"subtype": "noteOn",
		"time": 40680,
		"track": 4
	},
	{
		"deltaTime": 0,
		"channel": 2,
		"type": "channel",
		"noteNumber": 68,
		"velocity": 127,
		"subtype": "noteOn",
		"time": 40680,
		"track": 4
	},
	{
		"deltaTime": 60,
		"channel": 9,
		"type": "channel",
		"noteNumber": 42,
		"velocity": 127,
		"subtype": "noteOn",
		"time": 40680,
		"track": 5
	},
	{
		"deltaTime": 60,
		"channel": 9,
		"type": "channel",
		"subtype": "noteOff",
		"noteNumber": 42,
		"velocity": 0,
		"time": 40740,
		"track": 5
	},
	{
		"deltaTime": 0,
		"channel": 9,
		"type": "channel",
		"noteNumber": 42,
		"velocity": 127,
		"subtype": "noteOn",
		"time": 40800,
		"track": 5
	},
	{
		"deltaTime": 0,
		"channel": 9,
		"type": "channel",
		"noteNumber": 38,
		"velocity": 127,
		"subtype": "noteOn",
		"time": 40800,
		"track": 5
	},
	{
		"deltaTime": 60,
		"channel": 9,
		"type": "channel",
		"noteNumber": 40,
		"velocity": 127,
		"subtype": "noteOn",
		"time": 40800,
		"track": 5
	},
	{
		"deltaTime": 0,
		"channel": 9,
		"type": "channel",
		"subtype": "noteOff",
		"noteNumber": 40,
		"velocity": 0,
		"time": 40860,
		"track": 5
	},
	{
		"deltaTime": 0,
		"channel": 9,
		"type": "channel",
		"subtype": "noteOff",
		"noteNumber": 38,
		"velocity": 0,
		"time": 40860,
		"track": 5
	},
	{
		"deltaTime": 60,
		"channel": 9,
		"type": "channel",
		"subtype": "noteOff",
		"noteNumber": 42,
		"velocity": 0,
		"time": 40860,
		"track": 5
	},
	{
		"deltaTime": 0,
		"channel": 2,
		"type": "channel",
		"subtype": "noteOff",
		"noteNumber": 68,
		"velocity": 0,
		"time": 40920,
		"track": 4
	},
	{
		"deltaTime": 0,
		"channel": 2,
		"type": "channel",
		"subtype": "noteOff",
		"noteNumber": 63,
		"velocity": 0,
		"time": 40920,
		"track": 4
	},
	{
		"deltaTime": 0,
		"channel": 2,
		"type": "channel",
		"subtype": "noteOff",
		"noteNumber": 59,
		"velocity": 0,
		"time": 40920,
		"track": 4
	},
	{
		"deltaTime": 0,
		"channel": 2,
		"type": "channel",
		"noteNumber": 59,
		"velocity": 127,
		"subtype": "noteOn",
		"time": 40920,
		"track": 4
	},
	{
		"deltaTime": 0,
		"channel": 2,
		"type": "channel",
		"noteNumber": 63,
		"velocity": 127,
		"subtype": "noteOn",
		"time": 40920,
		"track": 4
	},
	{
		"deltaTime": 0,
		"channel": 2,
		"type": "channel",
		"noteNumber": 68,
		"velocity": 127,
		"subtype": "noteOn",
		"time": 40920,
		"track": 4
	},
	{
		"deltaTime": 60,
		"channel": 9,
		"type": "channel",
		"noteNumber": 42,
		"velocity": 127,
		"subtype": "noteOn",
		"time": 40920,
		"track": 5
	},
	{
		"deltaTime": 60,
		"channel": 9,
		"type": "channel",
		"subtype": "noteOff",
		"noteNumber": 42,
		"velocity": 0,
		"time": 40980,
		"track": 5
	},
	{
		"deltaTime": 60,
		"channel": 9,
		"type": "channel",
		"noteNumber": 42,
		"velocity": 127,
		"subtype": "noteOn",
		"time": 41040,
		"track": 5
	},
	{
		"deltaTime": 60,
		"channel": 9,
		"type": "channel",
		"subtype": "noteOff",
		"noteNumber": 42,
		"velocity": 0,
		"time": 41100,
		"track": 5
	},
	{
		"deltaTime": 0,
		"channel": 9,
		"type": "channel",
		"noteNumber": 42,
		"velocity": 127,
		"subtype": "noteOn",
		"time": 41160,
		"track": 5
	},
	{
		"deltaTime": 0,
		"channel": 9,
		"type": "channel",
		"noteNumber": 36,
		"velocity": 127,
		"subtype": "noteOn",
		"time": 41160,
		"track": 5
	},
	{
		"deltaTime": 60,
		"channel": 9,
		"type": "channel",
		"noteNumber": 35,
		"velocity": 127,
		"subtype": "noteOn",
		"time": 41160,
		"track": 5
	},
	{
		"deltaTime": 0,
		"channel": 9,
		"type": "channel",
		"subtype": "noteOff",
		"noteNumber": 35,
		"velocity": 0,
		"time": 41220,
		"track": 5
	},
	{
		"deltaTime": 0,
		"channel": 9,
		"type": "channel",
		"subtype": "noteOff",
		"noteNumber": 36,
		"velocity": 0,
		"time": 41220,
		"track": 5
	},
	{
		"deltaTime": 60,
		"channel": 9,
		"type": "channel",
		"subtype": "noteOff",
		"noteNumber": 42,
		"velocity": 0,
		"time": 41220,
		"track": 5
	},
	{
		"deltaTime": 0,
		"channel": 0,
		"type": "channel",
		"subtype": "noteOff",
		"noteNumber": 32,
		"velocity": 0,
		"time": 41280,
		"track": 2
	},
	{
		"deltaTime": 0,
		"channel": 0,
		"type": "channel",
		"noteNumber": 40,
		"velocity": 127,
		"subtype": "noteOn",
		"time": 41280,
		"track": 2
	},
	{
		"deltaTime": 0,
		"channel": 2,
		"type": "channel",
		"subtype": "noteOff",
		"noteNumber": 68,
		"velocity": 0,
		"time": 41280,
		"track": 4
	},
	{
		"deltaTime": 0,
		"channel": 2,
		"type": "channel",
		"subtype": "noteOff",
		"noteNumber": 63,
		"velocity": 0,
		"time": 41280,
		"track": 4
	},
	{
		"deltaTime": 0,
		"channel": 2,
		"type": "channel",
		"subtype": "noteOff",
		"noteNumber": 59,
		"velocity": 0,
		"time": 41280,
		"track": 4
	},
	{
		"deltaTime": 0,
		"channel": 2,
		"type": "channel",
		"noteNumber": 40,
		"velocity": 127,
		"subtype": "noteOn",
		"time": 41280,
		"track": 4
	},
	{
		"deltaTime": 60,
		"channel": 9,
		"type": "channel",
		"noteNumber": 42,
		"velocity": 127,
		"subtype": "noteOn",
		"time": 41280,
		"track": 5
	},
	{
		"deltaTime": 60,
		"channel": 9,
		"type": "channel",
		"subtype": "noteOff",
		"noteNumber": 42,
		"velocity": 0,
		"time": 41340,
		"track": 5
	},
	{
		"deltaTime": 60,
		"channel": 9,
		"type": "channel",
		"noteNumber": 42,
		"velocity": 127,
		"subtype": "noteOn",
		"time": 41400,
		"track": 5
	},
	{
		"deltaTime": 60,
		"channel": 9,
		"type": "channel",
		"subtype": "noteOff",
		"noteNumber": 42,
		"velocity": 0,
		"time": 41460,
		"track": 5
	},
	{
		"deltaTime": 0,
		"channel": 9,
		"type": "channel",
		"noteNumber": 42,
		"velocity": 127,
		"subtype": "noteOn",
		"time": 41520,
		"track": 5
	},
	{
		"deltaTime": 0,
		"channel": 9,
		"type": "channel",
		"noteNumber": 36,
		"velocity": 127,
		"subtype": "noteOn",
		"time": 41520,
		"track": 5
	},
	{
		"deltaTime": 60,
		"channel": 9,
		"type": "channel",
		"noteNumber": 35,
		"velocity": 127,
		"subtype": "noteOn",
		"time": 41520,
		"track": 5
	},
	{
		"deltaTime": 0,
		"channel": 9,
		"type": "channel",
		"subtype": "noteOff",
		"noteNumber": 35,
		"velocity": 0,
		"time": 41580,
		"track": 5
	},
	{
		"deltaTime": 0,
		"channel": 9,
		"type": "channel",
		"subtype": "noteOff",
		"noteNumber": 36,
		"velocity": 0,
		"time": 41580,
		"track": 5
	},
	{
		"deltaTime": 60,
		"channel": 9,
		"type": "channel",
		"subtype": "noteOff",
		"noteNumber": 42,
		"velocity": 0,
		"time": 41580,
		"track": 5
	},
	{
		"deltaTime": 0,
		"channel": 2,
		"type": "channel",
		"subtype": "noteOff",
		"noteNumber": 40,
		"velocity": 0,
		"time": 41640,
		"track": 4
	},
	{
		"deltaTime": 0,
		"channel": 2,
		"type": "channel",
		"noteNumber": 59,
		"velocity": 127,
		"subtype": "noteOn",
		"time": 41640,
		"track": 4
	},
	{
		"deltaTime": 0,
		"channel": 2,
		"type": "channel",
		"noteNumber": 63,
		"velocity": 127,
		"subtype": "noteOn",
		"time": 41640,
		"track": 4
	},
	{
		"deltaTime": 0,
		"channel": 2,
		"type": "channel",
		"noteNumber": 68,
		"velocity": 127,
		"subtype": "noteOn",
		"time": 41640,
		"track": 4
	},
	{
		"deltaTime": 60,
		"channel": 9,
		"type": "channel",
		"noteNumber": 42,
		"velocity": 127,
		"subtype": "noteOn",
		"time": 41640,
		"track": 5
	},
	{
		"deltaTime": 60,
		"channel": 9,
		"type": "channel",
		"subtype": "noteOff",
		"noteNumber": 42,
		"velocity": 0,
		"time": 41700,
		"track": 5
	},
	{
		"deltaTime": 0,
		"channel": 9,
		"type": "channel",
		"noteNumber": 42,
		"velocity": 127,
		"subtype": "noteOn",
		"time": 41760,
		"track": 5
	},
	{
		"deltaTime": 0,
		"channel": 9,
		"type": "channel",
		"noteNumber": 40,
		"velocity": 127,
		"subtype": "noteOn",
		"time": 41760,
		"track": 5
	},
	{
		"deltaTime": 60,
		"channel": 9,
		"type": "channel",
		"noteNumber": 38,
		"velocity": 127,
		"subtype": "noteOn",
		"time": 41760,
		"track": 5
	},
	{
		"deltaTime": 0,
		"channel": 9,
		"type": "channel",
		"subtype": "noteOff",
		"noteNumber": 38,
		"velocity": 0,
		"time": 41820,
		"track": 5
	},
	{
		"deltaTime": 0,
		"channel": 9,
		"type": "channel",
		"subtype": "noteOff",
		"noteNumber": 40,
		"velocity": 0,
		"time": 41820,
		"track": 5
	},
	{
		"deltaTime": 60,
		"channel": 9,
		"type": "channel",
		"subtype": "noteOff",
		"noteNumber": 42,
		"velocity": 0,
		"time": 41820,
		"track": 5
	},
	{
		"deltaTime": 0,
		"channel": 2,
		"type": "channel",
		"subtype": "noteOff",
		"noteNumber": 68,
		"velocity": 0,
		"time": 41880,
		"track": 4
	},
	{
		"deltaTime": 0,
		"channel": 2,
		"type": "channel",
		"subtype": "noteOff",
		"noteNumber": 63,
		"velocity": 0,
		"time": 41880,
		"track": 4
	},
	{
		"deltaTime": 0,
		"channel": 2,
		"type": "channel",
		"subtype": "noteOff",
		"noteNumber": 59,
		"velocity": 0,
		"time": 41880,
		"track": 4
	},
	{
		"deltaTime": 0,
		"channel": 2,
		"type": "channel",
		"noteNumber": 59,
		"velocity": 127,
		"subtype": "noteOn",
		"time": 41880,
		"track": 4
	},
	{
		"deltaTime": 0,
		"channel": 2,
		"type": "channel",
		"noteNumber": 63,
		"velocity": 127,
		"subtype": "noteOn",
		"time": 41880,
		"track": 4
	},
	{
		"deltaTime": 0,
		"channel": 2,
		"type": "channel",
		"noteNumber": 68,
		"velocity": 127,
		"subtype": "noteOn",
		"time": 41880,
		"track": 4
	},
	{
		"deltaTime": 60,
		"channel": 9,
		"type": "channel",
		"noteNumber": 42,
		"velocity": 127,
		"subtype": "noteOn",
		"time": 41880,
		"track": 5
	},
	{
		"deltaTime": 60,
		"channel": 9,
		"type": "channel",
		"subtype": "noteOff",
		"noteNumber": 42,
		"velocity": 0,
		"time": 41940,
		"track": 5
	},
	{
		"deltaTime": 60,
		"channel": 9,
		"type": "channel",
		"noteNumber": 42,
		"velocity": 127,
		"subtype": "noteOn",
		"time": 42000,
		"track": 5
	},
	{
		"deltaTime": 60,
		"channel": 9,
		"type": "channel",
		"subtype": "noteOff",
		"noteNumber": 42,
		"velocity": 0,
		"time": 42060,
		"track": 5
	},
	{
		"deltaTime": 60,
		"channel": 9,
		"type": "channel",
		"noteNumber": 42,
		"velocity": 127,
		"subtype": "noteOn",
		"time": 42120,
		"track": 5
	},
	{
		"deltaTime": 60,
		"channel": 9,
		"type": "channel",
		"subtype": "noteOff",
		"noteNumber": 42,
		"velocity": 0,
		"time": 42180,
		"track": 5
	},
	{
		"deltaTime": 0,
		"channel": 0,
		"type": "channel",
		"subtype": "noteOff",
		"noteNumber": 40,
		"velocity": 0,
		"time": 42240,
		"track": 2
	},
	{
		"deltaTime": 0,
		"channel": 0,
		"type": "channel",
		"noteNumber": 42,
		"velocity": 127,
		"subtype": "noteOn",
		"time": 42240,
		"track": 2
	},
	{
		"deltaTime": 0,
		"channel": 2,
		"type": "channel",
		"subtype": "noteOff",
		"noteNumber": 68,
		"velocity": 0,
		"time": 42240,
		"track": 4
	},
	{
		"deltaTime": 0,
		"channel": 2,
		"type": "channel",
		"subtype": "noteOff",
		"noteNumber": 63,
		"velocity": 0,
		"time": 42240,
		"track": 4
	},
	{
		"deltaTime": 0,
		"channel": 2,
		"type": "channel",
		"subtype": "noteOff",
		"noteNumber": 59,
		"velocity": 0,
		"time": 42240,
		"track": 4
	},
	{
		"deltaTime": 0,
		"channel": 2,
		"type": "channel",
		"noteNumber": 42,
		"velocity": 127,
		"subtype": "noteOn",
		"time": 42240,
		"track": 4
	},
	{
		"deltaTime": 0,
		"channel": 9,
		"type": "channel",
		"noteNumber": 42,
		"velocity": 127,
		"subtype": "noteOn",
		"time": 42240,
		"track": 5
	},
	{
		"deltaTime": 0,
		"channel": 9,
		"type": "channel",
		"noteNumber": 35,
		"velocity": 127,
		"subtype": "noteOn",
		"time": 42240,
		"track": 5
	},
	{
		"deltaTime": 60,
		"channel": 9,
		"type": "channel",
		"noteNumber": 36,
		"velocity": 127,
		"subtype": "noteOn",
		"time": 42240,
		"track": 5
	},
	{
		"deltaTime": 0,
		"channel": 9,
		"type": "channel",
		"subtype": "noteOff",
		"noteNumber": 36,
		"velocity": 0,
		"time": 42300,
		"track": 5
	},
	{
		"deltaTime": 0,
		"channel": 9,
		"type": "channel",
		"subtype": "noteOff",
		"noteNumber": 35,
		"velocity": 0,
		"time": 42300,
		"track": 5
	},
	{
		"deltaTime": 60,
		"channel": 9,
		"type": "channel",
		"subtype": "noteOff",
		"noteNumber": 42,
		"velocity": 0,
		"time": 42300,
		"track": 5
	},
	{
		"deltaTime": 60,
		"channel": 9,
		"type": "channel",
		"noteNumber": 42,
		"velocity": 127,
		"subtype": "noteOn",
		"time": 42360,
		"track": 5
	},
	{
		"deltaTime": 60,
		"channel": 9,
		"type": "channel",
		"subtype": "noteOff",
		"noteNumber": 42,
		"velocity": 0,
		"time": 42420,
		"track": 5
	},
	{
		"deltaTime": 0,
		"channel": 9,
		"type": "channel",
		"noteNumber": 42,
		"velocity": 127,
		"subtype": "noteOn",
		"time": 42480,
		"track": 5
	},
	{
		"deltaTime": 0,
		"channel": 9,
		"type": "channel",
		"noteNumber": 36,
		"velocity": 127,
		"subtype": "noteOn",
		"time": 42480,
		"track": 5
	},
	{
		"deltaTime": 60,
		"channel": 9,
		"type": "channel",
		"noteNumber": 35,
		"velocity": 127,
		"subtype": "noteOn",
		"time": 42480,
		"track": 5
	},
	{
		"deltaTime": 0,
		"channel": 9,
		"type": "channel",
		"subtype": "noteOff",
		"noteNumber": 35,
		"velocity": 0,
		"time": 42540,
		"track": 5
	},
	{
		"deltaTime": 0,
		"channel": 9,
		"type": "channel",
		"subtype": "noteOff",
		"noteNumber": 36,
		"velocity": 0,
		"time": 42540,
		"track": 5
	},
	{
		"deltaTime": 60,
		"channel": 9,
		"type": "channel",
		"subtype": "noteOff",
		"noteNumber": 42,
		"velocity": 0,
		"time": 42540,
		"track": 5
	},
	{
		"deltaTime": 0,
		"channel": 2,
		"type": "channel",
		"subtype": "noteOff",
		"noteNumber": 42,
		"velocity": 0,
		"time": 42600,
		"track": 4
	},
	{
		"deltaTime": 0,
		"channel": 2,
		"type": "channel",
		"noteNumber": 61,
		"velocity": 127,
		"subtype": "noteOn",
		"time": 42600,
		"track": 4
	},
	{
		"deltaTime": 0,
		"channel": 2,
		"type": "channel",
		"noteNumber": 66,
		"velocity": 127,
		"subtype": "noteOn",
		"time": 42600,
		"track": 4
	},
	{
		"deltaTime": 0,
		"channel": 2,
		"type": "channel",
		"noteNumber": 70,
		"velocity": 127,
		"subtype": "noteOn",
		"time": 42600,
		"track": 4
	},
	{
		"deltaTime": 60,
		"channel": 9,
		"type": "channel",
		"noteNumber": 42,
		"velocity": 127,
		"subtype": "noteOn",
		"time": 42600,
		"track": 5
	},
	{
		"deltaTime": 60,
		"channel": 9,
		"type": "channel",
		"subtype": "noteOff",
		"noteNumber": 42,
		"velocity": 0,
		"time": 42660,
		"track": 5
	},
	{
		"deltaTime": 0,
		"channel": 9,
		"type": "channel",
		"noteNumber": 42,
		"velocity": 127,
		"subtype": "noteOn",
		"time": 42720,
		"track": 5
	},
	{
		"deltaTime": 0,
		"channel": 9,
		"type": "channel",
		"noteNumber": 38,
		"velocity": 127,
		"subtype": "noteOn",
		"time": 42720,
		"track": 5
	},
	{
		"deltaTime": 60,
		"channel": 9,
		"type": "channel",
		"noteNumber": 40,
		"velocity": 127,
		"subtype": "noteOn",
		"time": 42720,
		"track": 5
	},
	{
		"deltaTime": 0,
		"channel": 9,
		"type": "channel",
		"subtype": "noteOff",
		"noteNumber": 40,
		"velocity": 0,
		"time": 42780,
		"track": 5
	},
	{
		"deltaTime": 0,
		"channel": 9,
		"type": "channel",
		"subtype": "noteOff",
		"noteNumber": 38,
		"velocity": 0,
		"time": 42780,
		"track": 5
	},
	{
		"deltaTime": 60,
		"channel": 9,
		"type": "channel",
		"subtype": "noteOff",
		"noteNumber": 42,
		"velocity": 0,
		"time": 42780,
		"track": 5
	},
	{
		"deltaTime": 0,
		"channel": 2,
		"type": "channel",
		"subtype": "noteOff",
		"noteNumber": 70,
		"velocity": 0,
		"time": 42840,
		"track": 4
	},
	{
		"deltaTime": 0,
		"channel": 2,
		"type": "channel",
		"subtype": "noteOff",
		"noteNumber": 66,
		"velocity": 0,
		"time": 42840,
		"track": 4
	},
	{
		"deltaTime": 0,
		"channel": 2,
		"type": "channel",
		"subtype": "noteOff",
		"noteNumber": 61,
		"velocity": 0,
		"time": 42840,
		"track": 4
	},
	{
		"deltaTime": 0,
		"channel": 2,
		"type": "channel",
		"noteNumber": 61,
		"velocity": 127,
		"subtype": "noteOn",
		"time": 42840,
		"track": 4
	},
	{
		"deltaTime": 0,
		"channel": 2,
		"type": "channel",
		"noteNumber": 66,
		"velocity": 127,
		"subtype": "noteOn",
		"time": 42840,
		"track": 4
	},
	{
		"deltaTime": 0,
		"channel": 2,
		"type": "channel",
		"noteNumber": 70,
		"velocity": 127,
		"subtype": "noteOn",
		"time": 42840,
		"track": 4
	},
	{
		"deltaTime": 60,
		"channel": 9,
		"type": "channel",
		"noteNumber": 42,
		"velocity": 127,
		"subtype": "noteOn",
		"time": 42840,
		"track": 5
	},
	{
		"deltaTime": 60,
		"channel": 9,
		"type": "channel",
		"subtype": "noteOff",
		"noteNumber": 42,
		"velocity": 0,
		"time": 42900,
		"track": 5
	},
	{
		"deltaTime": 60,
		"channel": 9,
		"type": "channel",
		"noteNumber": 42,
		"velocity": 127,
		"subtype": "noteOn",
		"time": 42960,
		"track": 5
	},
	{
		"deltaTime": 60,
		"channel": 9,
		"type": "channel",
		"subtype": "noteOff",
		"noteNumber": 42,
		"velocity": 0,
		"time": 43020,
		"track": 5
	},
	{
		"deltaTime": 0,
		"channel": 9,
		"type": "channel",
		"noteNumber": 42,
		"velocity": 127,
		"subtype": "noteOn",
		"time": 43080,
		"track": 5
	},
	{
		"deltaTime": 0,
		"channel": 9,
		"type": "channel",
		"noteNumber": 36,
		"velocity": 127,
		"subtype": "noteOn",
		"time": 43080,
		"track": 5
	},
	{
		"deltaTime": 60,
		"channel": 9,
		"type": "channel",
		"noteNumber": 35,
		"velocity": 127,
		"subtype": "noteOn",
		"time": 43080,
		"track": 5
	},
	{
		"deltaTime": 0,
		"channel": 9,
		"type": "channel",
		"subtype": "noteOff",
		"noteNumber": 35,
		"velocity": 0,
		"time": 43140,
		"track": 5
	},
	{
		"deltaTime": 0,
		"channel": 9,
		"type": "channel",
		"subtype": "noteOff",
		"noteNumber": 36,
		"velocity": 0,
		"time": 43140,
		"track": 5
	},
	{
		"deltaTime": 60,
		"channel": 9,
		"type": "channel",
		"subtype": "noteOff",
		"noteNumber": 42,
		"velocity": 0,
		"time": 43140,
		"track": 5
	},
	{
		"deltaTime": 0,
		"channel": 0,
		"type": "channel",
		"subtype": "noteOff",
		"noteNumber": 42,
		"velocity": 0,
		"time": 43200,
		"track": 2
	},
	{
		"deltaTime": 0,
		"channel": 0,
		"type": "channel",
		"noteNumber": 35,
		"velocity": 127,
		"subtype": "noteOn",
		"time": 43200,
		"track": 2
	},
	{
		"deltaTime": 0,
		"channel": 2,
		"type": "channel",
		"subtype": "noteOff",
		"noteNumber": 70,
		"velocity": 0,
		"time": 43200,
		"track": 4
	},
	{
		"deltaTime": 0,
		"channel": 2,
		"type": "channel",
		"subtype": "noteOff",
		"noteNumber": 66,
		"velocity": 0,
		"time": 43200,
		"track": 4
	},
	{
		"deltaTime": 0,
		"channel": 2,
		"type": "channel",
		"subtype": "noteOff",
		"noteNumber": 61,
		"velocity": 0,
		"time": 43200,
		"track": 4
	},
	{
		"deltaTime": 0,
		"channel": 2,
		"type": "channel",
		"noteNumber": 47,
		"velocity": 127,
		"subtype": "noteOn",
		"time": 43200,
		"track": 4
	},
	{
		"deltaTime": 60,
		"channel": 9,
		"type": "channel",
		"noteNumber": 42,
		"velocity": 127,
		"subtype": "noteOn",
		"time": 43200,
		"track": 5
	},
	{
		"deltaTime": 60,
		"channel": 9,
		"type": "channel",
		"subtype": "noteOff",
		"noteNumber": 42,
		"velocity": 0,
		"time": 43260,
		"track": 5
	},
	{
		"deltaTime": 60,
		"channel": 9,
		"type": "channel",
		"noteNumber": 42,
		"velocity": 127,
		"subtype": "noteOn",
		"time": 43320,
		"track": 5
	},
	{
		"deltaTime": 60,
		"channel": 9,
		"type": "channel",
		"subtype": "noteOff",
		"noteNumber": 42,
		"velocity": 0,
		"time": 43380,
		"track": 5
	},
	{
		"deltaTime": 0,
		"channel": 9,
		"type": "channel",
		"noteNumber": 42,
		"velocity": 127,
		"subtype": "noteOn",
		"time": 43440,
		"track": 5
	},
	{
		"deltaTime": 0,
		"channel": 9,
		"type": "channel",
		"noteNumber": 36,
		"velocity": 127,
		"subtype": "noteOn",
		"time": 43440,
		"track": 5
	},
	{
		"deltaTime": 60,
		"channel": 9,
		"type": "channel",
		"noteNumber": 35,
		"velocity": 127,
		"subtype": "noteOn",
		"time": 43440,
		"track": 5
	},
	{
		"deltaTime": 0,
		"channel": 9,
		"type": "channel",
		"subtype": "noteOff",
		"noteNumber": 35,
		"velocity": 0,
		"time": 43500,
		"track": 5
	},
	{
		"deltaTime": 0,
		"channel": 9,
		"type": "channel",
		"subtype": "noteOff",
		"noteNumber": 36,
		"velocity": 0,
		"time": 43500,
		"track": 5
	},
	{
		"deltaTime": 60,
		"channel": 9,
		"type": "channel",
		"subtype": "noteOff",
		"noteNumber": 42,
		"velocity": 0,
		"time": 43500,
		"track": 5
	},
	{
		"deltaTime": 0,
		"channel": 2,
		"type": "channel",
		"subtype": "noteOff",
		"noteNumber": 47,
		"velocity": 0,
		"time": 43560,
		"track": 4
	},
	{
		"deltaTime": 0,
		"channel": 2,
		"type": "channel",
		"noteNumber": 61,
		"velocity": 127,
		"subtype": "noteOn",
		"time": 43560,
		"track": 4
	},
	{
		"deltaTime": 0,
		"channel": 2,
		"type": "channel",
		"noteNumber": 66,
		"velocity": 127,
		"subtype": "noteOn",
		"time": 43560,
		"track": 4
	},
	{
		"deltaTime": 0,
		"channel": 2,
		"type": "channel",
		"noteNumber": 70,
		"velocity": 127,
		"subtype": "noteOn",
		"time": 43560,
		"track": 4
	},
	{
		"deltaTime": 60,
		"channel": 9,
		"type": "channel",
		"noteNumber": 42,
		"velocity": 127,
		"subtype": "noteOn",
		"time": 43560,
		"track": 5
	},
	{
		"deltaTime": 60,
		"channel": 9,
		"type": "channel",
		"subtype": "noteOff",
		"noteNumber": 42,
		"velocity": 0,
		"time": 43620,
		"track": 5
	},
	{
		"deltaTime": 0,
		"channel": 0,
		"type": "channel",
		"subtype": "noteOff",
		"noteNumber": 35,
		"velocity": 0,
		"time": 43680,
		"track": 2
	},
	{
		"deltaTime": 0,
		"channel": 0,
		"type": "channel",
		"noteNumber": 34,
		"velocity": 127,
		"subtype": "noteOn",
		"time": 43680,
		"track": 2
	},
	{
		"deltaTime": 0,
		"channel": 9,
		"type": "channel",
		"noteNumber": 42,
		"velocity": 127,
		"subtype": "noteOn",
		"time": 43680,
		"track": 5
	},
	{
		"deltaTime": 0,
		"channel": 9,
		"type": "channel",
		"noteNumber": 40,
		"velocity": 127,
		"subtype": "noteOn",
		"time": 43680,
		"track": 5
	},
	{
		"deltaTime": 60,
		"channel": 9,
		"type": "channel",
		"noteNumber": 38,
		"velocity": 127,
		"subtype": "noteOn",
		"time": 43680,
		"track": 5
	},
	{
		"deltaTime": 0,
		"channel": 9,
		"type": "channel",
		"subtype": "noteOff",
		"noteNumber": 38,
		"velocity": 0,
		"time": 43740,
		"track": 5
	},
	{
		"deltaTime": 0,
		"channel": 9,
		"type": "channel",
		"subtype": "noteOff",
		"noteNumber": 40,
		"velocity": 0,
		"time": 43740,
		"track": 5
	},
	{
		"deltaTime": 60,
		"channel": 9,
		"type": "channel",
		"subtype": "noteOff",
		"noteNumber": 42,
		"velocity": 0,
		"time": 43740,
		"track": 5
	},
	{
		"deltaTime": 0,
		"channel": 2,
		"type": "channel",
		"subtype": "noteOff",
		"noteNumber": 70,
		"velocity": 0,
		"time": 43800,
		"track": 4
	},
	{
		"deltaTime": 0,
		"channel": 2,
		"type": "channel",
		"subtype": "noteOff",
		"noteNumber": 66,
		"velocity": 0,
		"time": 43800,
		"track": 4
	},
	{
		"deltaTime": 0,
		"channel": 2,
		"type": "channel",
		"subtype": "noteOff",
		"noteNumber": 61,
		"velocity": 0,
		"time": 43800,
		"track": 4
	},
	{
		"deltaTime": 0,
		"channel": 2,
		"type": "channel",
		"noteNumber": 61,
		"velocity": 127,
		"subtype": "noteOn",
		"time": 43800,
		"track": 4
	},
	{
		"deltaTime": 0,
		"channel": 2,
		"type": "channel",
		"noteNumber": 66,
		"velocity": 127,
		"subtype": "noteOn",
		"time": 43800,
		"track": 4
	},
	{
		"deltaTime": 0,
		"channel": 2,
		"type": "channel",
		"noteNumber": 71,
		"velocity": 127,
		"subtype": "noteOn",
		"time": 43800,
		"track": 4
	},
	{
		"deltaTime": 60,
		"channel": 9,
		"type": "channel",
		"noteNumber": 42,
		"velocity": 127,
		"subtype": "noteOn",
		"time": 43800,
		"track": 5
	},
	{
		"deltaTime": 60,
		"channel": 9,
		"type": "channel",
		"subtype": "noteOff",
		"noteNumber": 42,
		"velocity": 0,
		"time": 43860,
		"track": 5
	},
	{
		"deltaTime": 60,
		"channel": 9,
		"type": "channel",
		"noteNumber": 42,
		"velocity": 127,
		"subtype": "noteOn",
		"time": 43920,
		"track": 5
	},
	{
		"deltaTime": 60,
		"channel": 9,
		"type": "channel",
		"subtype": "noteOff",
		"noteNumber": 42,
		"velocity": 0,
		"time": 43980,
		"track": 5
	},
	{
		"deltaTime": 60,
		"channel": 9,
		"type": "channel",
		"noteNumber": 42,
		"velocity": 127,
		"subtype": "noteOn",
		"time": 44040,
		"track": 5
	},
	{
		"deltaTime": 60,
		"channel": 9,
		"type": "channel",
		"subtype": "noteOff",
		"noteNumber": 42,
		"velocity": 0,
		"time": 44100,
		"track": 5
	},
	{
		"deltaTime": 0,
		"channel": 0,
		"type": "channel",
		"subtype": "noteOff",
		"noteNumber": 34,
		"velocity": 0,
		"time": 44160,
		"track": 2
	},
	{
		"deltaTime": 0,
		"channel": 0,
		"type": "channel",
		"noteNumber": 32,
		"velocity": 127,
		"subtype": "noteOn",
		"time": 44160,
		"track": 2
	},
	{
		"deltaTime": 0,
		"channel": 2,
		"type": "channel",
		"subtype": "noteOff",
		"noteNumber": 71,
		"velocity": 0,
		"time": 44160,
		"track": 4
	},
	{
		"deltaTime": 0,
		"channel": 2,
		"type": "channel",
		"subtype": "noteOff",
		"noteNumber": 66,
		"velocity": 0,
		"time": 44160,
		"track": 4
	},
	{
		"deltaTime": 0,
		"channel": 2,
		"type": "channel",
		"subtype": "noteOff",
		"noteNumber": 61,
		"velocity": 0,
		"time": 44160,
		"track": 4
	},
	{
		"deltaTime": 0,
		"channel": 2,
		"type": "channel",
		"noteNumber": 44,
		"velocity": 127,
		"subtype": "noteOn",
		"time": 44160,
		"track": 4
	},
	{
		"deltaTime": 0,
		"channel": 9,
		"type": "channel",
		"noteNumber": 42,
		"velocity": 127,
		"subtype": "noteOn",
		"time": 44160,
		"track": 5
	},
	{
		"deltaTime": 0,
		"channel": 9,
		"type": "channel",
		"noteNumber": 35,
		"velocity": 127,
		"subtype": "noteOn",
		"time": 44160,
		"track": 5
	},
	{
		"deltaTime": 60,
		"channel": 9,
		"type": "channel",
		"noteNumber": 36,
		"velocity": 127,
		"subtype": "noteOn",
		"time": 44160,
		"track": 5
	},
	{
		"deltaTime": 0,
		"channel": 9,
		"type": "channel",
		"subtype": "noteOff",
		"noteNumber": 36,
		"velocity": 0,
		"time": 44220,
		"track": 5
	},
	{
		"deltaTime": 0,
		"channel": 9,
		"type": "channel",
		"subtype": "noteOff",
		"noteNumber": 35,
		"velocity": 0,
		"time": 44220,
		"track": 5
	},
	{
		"deltaTime": 60,
		"channel": 9,
		"type": "channel",
		"subtype": "noteOff",
		"noteNumber": 42,
		"velocity": 0,
		"time": 44220,
		"track": 5
	},
	{
		"deltaTime": 60,
		"channel": 9,
		"type": "channel",
		"noteNumber": 42,
		"velocity": 127,
		"subtype": "noteOn",
		"time": 44280,
		"track": 5
	},
	{
		"deltaTime": 60,
		"channel": 9,
		"type": "channel",
		"subtype": "noteOff",
		"noteNumber": 42,
		"velocity": 0,
		"time": 44340,
		"track": 5
	},
	{
		"deltaTime": 0,
		"channel": 9,
		"type": "channel",
		"noteNumber": 42,
		"velocity": 127,
		"subtype": "noteOn",
		"time": 44400,
		"track": 5
	},
	{
		"deltaTime": 0,
		"channel": 9,
		"type": "channel",
		"noteNumber": 36,
		"velocity": 127,
		"subtype": "noteOn",
		"time": 44400,
		"track": 5
	},
	{
		"deltaTime": 60,
		"channel": 9,
		"type": "channel",
		"noteNumber": 35,
		"velocity": 127,
		"subtype": "noteOn",
		"time": 44400,
		"track": 5
	},
	{
		"deltaTime": 0,
		"channel": 9,
		"type": "channel",
		"subtype": "noteOff",
		"noteNumber": 35,
		"velocity": 0,
		"time": 44460,
		"track": 5
	},
	{
		"deltaTime": 0,
		"channel": 9,
		"type": "channel",
		"subtype": "noteOff",
		"noteNumber": 36,
		"velocity": 0,
		"time": 44460,
		"track": 5
	},
	{
		"deltaTime": 60,
		"channel": 9,
		"type": "channel",
		"subtype": "noteOff",
		"noteNumber": 42,
		"velocity": 0,
		"time": 44460,
		"track": 5
	},
	{
		"deltaTime": 0,
		"channel": 2,
		"type": "channel",
		"subtype": "noteOff",
		"noteNumber": 44,
		"velocity": 0,
		"time": 44520,
		"track": 4
	},
	{
		"deltaTime": 0,
		"channel": 2,
		"type": "channel",
		"noteNumber": 59,
		"velocity": 127,
		"subtype": "noteOn",
		"time": 44520,
		"track": 4
	},
	{
		"deltaTime": 0,
		"channel": 2,
		"type": "channel",
		"noteNumber": 63,
		"velocity": 127,
		"subtype": "noteOn",
		"time": 44520,
		"track": 4
	},
	{
		"deltaTime": 0,
		"channel": 2,
		"type": "channel",
		"noteNumber": 68,
		"velocity": 127,
		"subtype": "noteOn",
		"time": 44520,
		"track": 4
	},
	{
		"deltaTime": 60,
		"channel": 9,
		"type": "channel",
		"noteNumber": 42,
		"velocity": 127,
		"subtype": "noteOn",
		"time": 44520,
		"track": 5
	},
	{
		"deltaTime": 60,
		"channel": 9,
		"type": "channel",
		"subtype": "noteOff",
		"noteNumber": 42,
		"velocity": 0,
		"time": 44580,
		"track": 5
	},
	{
		"deltaTime": 0,
		"channel": 9,
		"type": "channel",
		"noteNumber": 42,
		"velocity": 127,
		"subtype": "noteOn",
		"time": 44640,
		"track": 5
	},
	{
		"deltaTime": 0,
		"channel": 9,
		"type": "channel",
		"noteNumber": 38,
		"velocity": 127,
		"subtype": "noteOn",
		"time": 44640,
		"track": 5
	},
	{
		"deltaTime": 60,
		"channel": 9,
		"type": "channel",
		"noteNumber": 40,
		"velocity": 127,
		"subtype": "noteOn",
		"time": 44640,
		"track": 5
	},
	{
		"deltaTime": 0,
		"channel": 9,
		"type": "channel",
		"subtype": "noteOff",
		"noteNumber": 40,
		"velocity": 0,
		"time": 44700,
		"track": 5
	},
	{
		"deltaTime": 0,
		"channel": 9,
		"type": "channel",
		"subtype": "noteOff",
		"noteNumber": 38,
		"velocity": 0,
		"time": 44700,
		"track": 5
	},
	{
		"deltaTime": 60,
		"channel": 9,
		"type": "channel",
		"subtype": "noteOff",
		"noteNumber": 42,
		"velocity": 0,
		"time": 44700,
		"track": 5
	},
	{
		"deltaTime": 0,
		"channel": 2,
		"type": "channel",
		"subtype": "noteOff",
		"noteNumber": 68,
		"velocity": 0,
		"time": 44760,
		"track": 4
	},
	{
		"deltaTime": 0,
		"channel": 2,
		"type": "channel",
		"subtype": "noteOff",
		"noteNumber": 63,
		"velocity": 0,
		"time": 44760,
		"track": 4
	},
	{
		"deltaTime": 0,
		"channel": 2,
		"type": "channel",
		"subtype": "noteOff",
		"noteNumber": 59,
		"velocity": 0,
		"time": 44760,
		"track": 4
	},
	{
		"deltaTime": 0,
		"channel": 2,
		"type": "channel",
		"noteNumber": 59,
		"velocity": 127,
		"subtype": "noteOn",
		"time": 44760,
		"track": 4
	},
	{
		"deltaTime": 0,
		"channel": 2,
		"type": "channel",
		"noteNumber": 63,
		"velocity": 127,
		"subtype": "noteOn",
		"time": 44760,
		"track": 4
	},
	{
		"deltaTime": 0,
		"channel": 2,
		"type": "channel",
		"noteNumber": 68,
		"velocity": 127,
		"subtype": "noteOn",
		"time": 44760,
		"track": 4
	},
	{
		"deltaTime": 60,
		"channel": 9,
		"type": "channel",
		"noteNumber": 42,
		"velocity": 127,
		"subtype": "noteOn",
		"time": 44760,
		"track": 5
	},
	{
		"deltaTime": 60,
		"channel": 9,
		"type": "channel",
		"subtype": "noteOff",
		"noteNumber": 42,
		"velocity": 0,
		"time": 44820,
		"track": 5
	},
	{
		"deltaTime": 0,
		"channel": 0,
		"type": "channel",
		"subtype": "noteOff",
		"noteNumber": 32,
		"velocity": 0,
		"time": 44880,
		"track": 2
	},
	{
		"deltaTime": 0,
		"channel": 0,
		"type": "channel",
		"noteNumber": 32,
		"velocity": 127,
		"subtype": "noteOn",
		"time": 44880,
		"track": 2
	},
	{
		"deltaTime": 60,
		"channel": 9,
		"type": "channel",
		"noteNumber": 42,
		"velocity": 127,
		"subtype": "noteOn",
		"time": 44880,
		"track": 5
	},
	{
		"deltaTime": 60,
		"channel": 9,
		"type": "channel",
		"subtype": "noteOff",
		"noteNumber": 42,
		"velocity": 0,
		"time": 44940,
		"track": 5
	},
	{
		"deltaTime": 0,
		"channel": 9,
		"type": "channel",
		"noteNumber": 42,
		"velocity": 127,
		"subtype": "noteOn",
		"time": 45000,
		"track": 5
	},
	{
		"deltaTime": 0,
		"channel": 9,
		"type": "channel",
		"noteNumber": 36,
		"velocity": 127,
		"subtype": "noteOn",
		"time": 45000,
		"track": 5
	},
	{
		"deltaTime": 60,
		"channel": 9,
		"type": "channel",
		"noteNumber": 35,
		"velocity": 127,
		"subtype": "noteOn",
		"time": 45000,
		"track": 5
	},
	{
		"deltaTime": 0,
		"channel": 9,
		"type": "channel",
		"subtype": "noteOff",
		"noteNumber": 35,
		"velocity": 0,
		"time": 45060,
		"track": 5
	},
	{
		"deltaTime": 0,
		"channel": 9,
		"type": "channel",
		"subtype": "noteOff",
		"noteNumber": 36,
		"velocity": 0,
		"time": 45060,
		"track": 5
	},
	{
		"deltaTime": 60,
		"channel": 9,
		"type": "channel",
		"subtype": "noteOff",
		"noteNumber": 42,
		"velocity": 0,
		"time": 45060,
		"track": 5
	},
	{
		"deltaTime": 0,
		"channel": 0,
		"type": "channel",
		"subtype": "noteOff",
		"noteNumber": 32,
		"velocity": 0,
		"time": 45120,
		"track": 2
	},
	{
		"deltaTime": 0,
		"channel": 0,
		"type": "channel",
		"noteNumber": 40,
		"velocity": 127,
		"subtype": "noteOn",
		"time": 45120,
		"track": 2
	},
	{
		"deltaTime": 0,
		"channel": 2,
		"type": "channel",
		"subtype": "noteOff",
		"noteNumber": 68,
		"velocity": 0,
		"time": 45120,
		"track": 4
	},
	{
		"deltaTime": 0,
		"channel": 2,
		"type": "channel",
		"subtype": "noteOff",
		"noteNumber": 63,
		"velocity": 0,
		"time": 45120,
		"track": 4
	},
	{
		"deltaTime": 0,
		"channel": 2,
		"type": "channel",
		"subtype": "noteOff",
		"noteNumber": 59,
		"velocity": 0,
		"time": 45120,
		"track": 4
	},
	{
		"deltaTime": 0,
		"channel": 2,
		"type": "channel",
		"noteNumber": 40,
		"velocity": 127,
		"subtype": "noteOn",
		"time": 45120,
		"track": 4
	},
	{
		"deltaTime": 60,
		"channel": 9,
		"type": "channel",
		"noteNumber": 42,
		"velocity": 127,
		"subtype": "noteOn",
		"time": 45120,
		"track": 5
	},
	{
		"deltaTime": 60,
		"channel": 9,
		"type": "channel",
		"subtype": "noteOff",
		"noteNumber": 42,
		"velocity": 0,
		"time": 45180,
		"track": 5
	},
	{
		"deltaTime": 60,
		"channel": 9,
		"type": "channel",
		"noteNumber": 42,
		"velocity": 127,
		"subtype": "noteOn",
		"time": 45240,
		"track": 5
	},
	{
		"deltaTime": 60,
		"channel": 9,
		"type": "channel",
		"subtype": "noteOff",
		"noteNumber": 42,
		"velocity": 0,
		"time": 45300,
		"track": 5
	},
	{
		"deltaTime": 0,
		"channel": 9,
		"type": "channel",
		"noteNumber": 42,
		"velocity": 127,
		"subtype": "noteOn",
		"time": 45360,
		"track": 5
	},
	{
		"deltaTime": 0,
		"channel": 9,
		"type": "channel",
		"noteNumber": 36,
		"velocity": 127,
		"subtype": "noteOn",
		"time": 45360,
		"track": 5
	},
	{
		"deltaTime": 60,
		"channel": 9,
		"type": "channel",
		"noteNumber": 35,
		"velocity": 127,
		"subtype": "noteOn",
		"time": 45360,
		"track": 5
	},
	{
		"deltaTime": 0,
		"channel": 9,
		"type": "channel",
		"subtype": "noteOff",
		"noteNumber": 35,
		"velocity": 0,
		"time": 45420,
		"track": 5
	},
	{
		"deltaTime": 0,
		"channel": 9,
		"type": "channel",
		"subtype": "noteOff",
		"noteNumber": 36,
		"velocity": 0,
		"time": 45420,
		"track": 5
	},
	{
		"deltaTime": 60,
		"channel": 9,
		"type": "channel",
		"subtype": "noteOff",
		"noteNumber": 42,
		"velocity": 0,
		"time": 45420,
		"track": 5
	},
	{
		"deltaTime": 0,
		"channel": 2,
		"type": "channel",
		"subtype": "noteOff",
		"noteNumber": 40,
		"velocity": 0,
		"time": 45480,
		"track": 4
	},
	{
		"deltaTime": 0,
		"channel": 2,
		"type": "channel",
		"noteNumber": 59,
		"velocity": 127,
		"subtype": "noteOn",
		"time": 45480,
		"track": 4
	},
	{
		"deltaTime": 0,
		"channel": 2,
		"type": "channel",
		"noteNumber": 63,
		"velocity": 127,
		"subtype": "noteOn",
		"time": 45480,
		"track": 4
	},
	{
		"deltaTime": 0,
		"channel": 2,
		"type": "channel",
		"noteNumber": 68,
		"velocity": 127,
		"subtype": "noteOn",
		"time": 45480,
		"track": 4
	},
	{
		"deltaTime": 60,
		"channel": 9,
		"type": "channel",
		"noteNumber": 42,
		"velocity": 127,
		"subtype": "noteOn",
		"time": 45480,
		"track": 5
	},
	{
		"deltaTime": 60,
		"channel": 9,
		"type": "channel",
		"subtype": "noteOff",
		"noteNumber": 42,
		"velocity": 0,
		"time": 45540,
		"track": 5
	},
	{
		"deltaTime": 0,
		"channel": 9,
		"type": "channel",
		"noteNumber": 42,
		"velocity": 127,
		"subtype": "noteOn",
		"time": 45600,
		"track": 5
	},
	{
		"deltaTime": 0,
		"channel": 9,
		"type": "channel",
		"noteNumber": 40,
		"velocity": 127,
		"subtype": "noteOn",
		"time": 45600,
		"track": 5
	},
	{
		"deltaTime": 60,
		"channel": 9,
		"type": "channel",
		"noteNumber": 38,
		"velocity": 127,
		"subtype": "noteOn",
		"time": 45600,
		"track": 5
	},
	{
		"deltaTime": 0,
		"channel": 9,
		"type": "channel",
		"subtype": "noteOff",
		"noteNumber": 38,
		"velocity": 0,
		"time": 45660,
		"track": 5
	},
	{
		"deltaTime": 0,
		"channel": 9,
		"type": "channel",
		"subtype": "noteOff",
		"noteNumber": 40,
		"velocity": 0,
		"time": 45660,
		"track": 5
	},
	{
		"deltaTime": 60,
		"channel": 9,
		"type": "channel",
		"subtype": "noteOff",
		"noteNumber": 42,
		"velocity": 0,
		"time": 45660,
		"track": 5
	},
	{
		"deltaTime": 0,
		"channel": 2,
		"type": "channel",
		"subtype": "noteOff",
		"noteNumber": 68,
		"velocity": 0,
		"time": 45720,
		"track": 4
	},
	{
		"deltaTime": 0,
		"channel": 2,
		"type": "channel",
		"subtype": "noteOff",
		"noteNumber": 63,
		"velocity": 0,
		"time": 45720,
		"track": 4
	},
	{
		"deltaTime": 0,
		"channel": 2,
		"type": "channel",
		"subtype": "noteOff",
		"noteNumber": 59,
		"velocity": 0,
		"time": 45720,
		"track": 4
	},
	{
		"deltaTime": 0,
		"channel": 2,
		"type": "channel",
		"noteNumber": 59,
		"velocity": 127,
		"subtype": "noteOn",
		"time": 45720,
		"track": 4
	},
	{
		"deltaTime": 0,
		"channel": 2,
		"type": "channel",
		"noteNumber": 63,
		"velocity": 127,
		"subtype": "noteOn",
		"time": 45720,
		"track": 4
	},
	{
		"deltaTime": 0,
		"channel": 2,
		"type": "channel",
		"noteNumber": 68,
		"velocity": 127,
		"subtype": "noteOn",
		"time": 45720,
		"track": 4
	},
	{
		"deltaTime": 60,
		"channel": 9,
		"type": "channel",
		"noteNumber": 42,
		"velocity": 127,
		"subtype": "noteOn",
		"time": 45720,
		"track": 5
	},
	{
		"deltaTime": 60,
		"channel": 9,
		"type": "channel",
		"subtype": "noteOff",
		"noteNumber": 42,
		"velocity": 0,
		"time": 45780,
		"track": 5
	},
	{
		"deltaTime": 0,
		"channel": 0,
		"type": "channel",
		"subtype": "noteOff",
		"noteNumber": 40,
		"velocity": 0,
		"time": 45840,
		"track": 2
	},
	{
		"deltaTime": 0,
		"channel": 0,
		"type": "channel",
		"noteNumber": 40,
		"velocity": 127,
		"subtype": "noteOn",
		"time": 45840,
		"track": 2
	},
	{
		"deltaTime": 60,
		"channel": 9,
		"type": "channel",
		"noteNumber": 42,
		"velocity": 127,
		"subtype": "noteOn",
		"time": 45840,
		"track": 5
	},
	{
		"deltaTime": 60,
		"channel": 9,
		"type": "channel",
		"subtype": "noteOff",
		"noteNumber": 42,
		"velocity": 0,
		"time": 45900,
		"track": 5
	},
	{
		"deltaTime": 60,
		"channel": 9,
		"type": "channel",
		"noteNumber": 42,
		"velocity": 127,
		"subtype": "noteOn",
		"time": 45960,
		"track": 5
	},
	{
		"deltaTime": 60,
		"channel": 9,
		"type": "channel",
		"subtype": "noteOff",
		"noteNumber": 42,
		"velocity": 0,
		"time": 46020,
		"track": 5
	},
	{
		"deltaTime": 0,
		"channel": 0,
		"type": "channel",
		"subtype": "noteOff",
		"noteNumber": 40,
		"velocity": 0,
		"time": 46080,
		"track": 2
	},
	{
		"deltaTime": 0,
		"channel": 0,
		"type": "channel",
		"noteNumber": 41,
		"velocity": 127,
		"subtype": "noteOn",
		"time": 46080,
		"track": 2
	},
	{
		"deltaTime": 0,
		"channel": 2,
		"type": "channel",
		"subtype": "noteOff",
		"noteNumber": 68,
		"velocity": 0,
		"time": 46080,
		"track": 4
	},
	{
		"deltaTime": 0,
		"channel": 2,
		"type": "channel",
		"subtype": "noteOff",
		"noteNumber": 63,
		"velocity": 0,
		"time": 46080,
		"track": 4
	},
	{
		"deltaTime": 0,
		"channel": 2,
		"type": "channel",
		"subtype": "noteOff",
		"noteNumber": 59,
		"velocity": 0,
		"time": 46080,
		"track": 4
	},
	{
		"deltaTime": 0,
		"channel": 2,
		"type": "channel",
		"noteNumber": 41,
		"velocity": 127,
		"subtype": "noteOn",
		"time": 46080,
		"track": 4
	},
	{
		"deltaTime": 0,
		"channel": 9,
		"type": "channel",
		"noteNumber": 35,
		"velocity": 127,
		"subtype": "noteOn",
		"time": 46080,
		"track": 5
	},
	{
		"deltaTime": 60,
		"channel": 9,
		"type": "channel",
		"noteNumber": 36,
		"velocity": 127,
		"subtype": "noteOn",
		"time": 46080,
		"track": 5
	},
	{
		"deltaTime": 0,
		"channel": 9,
		"type": "channel",
		"subtype": "noteOff",
		"noteNumber": 36,
		"velocity": 0,
		"time": 46140,
		"track": 5
	},
	{
		"deltaTime": 180,
		"channel": 9,
		"type": "channel",
		"subtype": "noteOff",
		"noteNumber": 35,
		"velocity": 0,
		"time": 46140,
		"track": 5
	},
	{
		"deltaTime": 0,
		"channel": 9,
		"type": "channel",
		"noteNumber": 35,
		"velocity": 127,
		"subtype": "noteOn",
		"time": 46320,
		"track": 5
	},
	{
		"deltaTime": 60,
		"channel": 9,
		"type": "channel",
		"noteNumber": 36,
		"velocity": 127,
		"subtype": "noteOn",
		"time": 46320,
		"track": 5
	},
	{
		"deltaTime": 0,
		"channel": 9,
		"type": "channel",
		"subtype": "noteOff",
		"noteNumber": 36,
		"velocity": 0,
		"time": 46380,
		"track": 5
	},
	{
		"deltaTime": 60,
		"channel": 9,
		"type": "channel",
		"subtype": "noteOff",
		"noteNumber": 35,
		"velocity": 0,
		"time": 46380,
		"track": 5
	},
	{
		"deltaTime": 0,
		"channel": 2,
		"type": "channel",
		"subtype": "noteOff",
		"noteNumber": 41,
		"velocity": 0,
		"time": 46440,
		"track": 4
	},
	{
		"deltaTime": 0,
		"channel": 2,
		"type": "channel",
		"noteNumber": 59,
		"velocity": 127,
		"subtype": "noteOn",
		"time": 46440,
		"track": 4
	},
	{
		"deltaTime": 0,
		"channel": 2,
		"type": "channel",
		"noteNumber": 63,
		"velocity": 127,
		"subtype": "noteOn",
		"time": 46440,
		"track": 4
	},
	{
		"deltaTime": 120,
		"channel": 2,
		"type": "channel",
		"noteNumber": 68,
		"velocity": 127,
		"subtype": "noteOn",
		"time": 46440,
		"track": 4
	},
	{
		"deltaTime": 60,
		"channel": 9,
		"type": "channel",
		"noteNumber": 39,
		"velocity": 127,
		"subtype": "noteOn",
		"time": 46560,
		"track": 5
	},
	{
		"deltaTime": 60,
		"channel": 9,
		"type": "channel",
		"subtype": "noteOff",
		"noteNumber": 39,
		"velocity": 0,
		"time": 46620,
		"track": 5
	},
	{
		"deltaTime": 0,
		"channel": 2,
		"type": "channel",
		"subtype": "noteOff",
		"noteNumber": 68,
		"velocity": 0,
		"time": 46680,
		"track": 4
	},
	{
		"deltaTime": 0,
		"channel": 2,
		"type": "channel",
		"subtype": "noteOff",
		"noteNumber": 63,
		"velocity": 0,
		"time": 46680,
		"track": 4
	},
	{
		"deltaTime": 0,
		"channel": 2,
		"type": "channel",
		"subtype": "noteOff",
		"noteNumber": 59,
		"velocity": 0,
		"time": 46680,
		"track": 4
	},
	{
		"deltaTime": 0,
		"channel": 2,
		"type": "channel",
		"noteNumber": 59,
		"velocity": 127,
		"subtype": "noteOn",
		"time": 46680,
		"track": 4
	},
	{
		"deltaTime": 0,
		"channel": 2,
		"type": "channel",
		"noteNumber": 63,
		"velocity": 127,
		"subtype": "noteOn",
		"time": 46680,
		"track": 4
	},
	{
		"deltaTime": 120,
		"channel": 2,
		"type": "channel",
		"noteNumber": 68,
		"velocity": 127,
		"subtype": "noteOn",
		"time": 46680,
		"track": 4
	},
	{
		"deltaTime": 0,
		"channel": 0,
		"type": "channel",
		"subtype": "noteOff",
		"noteNumber": 41,
		"velocity": 0,
		"time": 46800,
		"track": 2
	},
	{
		"deltaTime": 120,
		"channel": 0,
		"type": "channel",
		"noteNumber": 41,
		"velocity": 127,
		"subtype": "noteOn",
		"time": 46800,
		"track": 2
	},
	{
		"deltaTime": 0,
		"channel": 9,
		"type": "channel",
		"noteNumber": 35,
		"velocity": 127,
		"subtype": "noteOn",
		"time": 46920,
		"track": 5
	},
	{
		"deltaTime": 60,
		"channel": 9,
		"type": "channel",
		"noteNumber": 36,
		"velocity": 127,
		"subtype": "noteOn",
		"time": 46920,
		"track": 5
	},
	{
		"deltaTime": 0,
		"channel": 9,
		"type": "channel",
		"subtype": "noteOff",
		"noteNumber": 36,
		"velocity": 0,
		"time": 46980,
		"track": 5
	},
	{
		"deltaTime": 60,
		"channel": 9,
		"type": "channel",
		"subtype": "noteOff",
		"noteNumber": 35,
		"velocity": 0,
		"time": 46980,
		"track": 5
	},
	{
		"deltaTime": 0,
		"channel": 0,
		"type": "channel",
		"subtype": "noteOff",
		"noteNumber": 41,
		"velocity": 0,
		"time": 47040,
		"track": 2
	},
	{
		"deltaTime": 0,
		"channel": 0,
		"type": "channel",
		"noteNumber": 40,
		"velocity": 127,
		"subtype": "noteOn",
		"time": 47040,
		"track": 2
	},
	{
		"deltaTime": 0,
		"channel": 2,
		"type": "channel",
		"subtype": "noteOff",
		"noteNumber": 68,
		"velocity": 0,
		"time": 47040,
		"track": 4
	},
	{
		"deltaTime": 0,
		"channel": 2,
		"type": "channel",
		"subtype": "noteOff",
		"noteNumber": 63,
		"velocity": 0,
		"time": 47040,
		"track": 4
	},
	{
		"deltaTime": 0,
		"channel": 2,
		"type": "channel",
		"subtype": "noteOff",
		"noteNumber": 59,
		"velocity": 0,
		"time": 47040,
		"track": 4
	},
	{
		"deltaTime": 240,
		"channel": 2,
		"type": "channel",
		"noteNumber": 40,
		"velocity": 127,
		"subtype": "noteOn",
		"time": 47040,
		"track": 4
	},
	{
		"deltaTime": 0,
		"channel": 9,
		"type": "channel",
		"noteNumber": 35,
		"velocity": 127,
		"subtype": "noteOn",
		"time": 47280,
		"track": 5
	},
	{
		"deltaTime": 60,
		"channel": 9,
		"type": "channel",
		"noteNumber": 36,
		"velocity": 127,
		"subtype": "noteOn",
		"time": 47280,
		"track": 5
	},
	{
		"deltaTime": 0,
		"channel": 9,
		"type": "channel",
		"subtype": "noteOff",
		"noteNumber": 36,
		"velocity": 0,
		"time": 47340,
		"track": 5
	},
	{
		"deltaTime": 60,
		"channel": 9,
		"type": "channel",
		"subtype": "noteOff",
		"noteNumber": 35,
		"velocity": 0,
		"time": 47340,
		"track": 5
	},
	{
		"deltaTime": 0,
		"channel": 2,
		"type": "channel",
		"subtype": "noteOff",
		"noteNumber": 40,
		"velocity": 0,
		"time": 47400,
		"track": 4
	},
	{
		"deltaTime": 0,
		"channel": 2,
		"type": "channel",
		"noteNumber": 59,
		"velocity": 127,
		"subtype": "noteOn",
		"time": 47400,
		"track": 4
	},
	{
		"deltaTime": 0,
		"channel": 2,
		"type": "channel",
		"noteNumber": 63,
		"velocity": 127,
		"subtype": "noteOn",
		"time": 47400,
		"track": 4
	},
	{
		"deltaTime": 120,
		"channel": 2,
		"type": "channel",
		"noteNumber": 68,
		"velocity": 127,
		"subtype": "noteOn",
		"time": 47400,
		"track": 4
	},
	{
		"deltaTime": 0,
		"channel": 0,
		"type": "channel",
		"subtype": "noteOff",
		"noteNumber": 40,
		"velocity": 0,
		"time": 47520,
		"track": 2
	},
	{
		"deltaTime": 0,
		"channel": 0,
		"type": "channel",
		"noteNumber": 35,
		"velocity": 127,
		"subtype": "noteOn",
		"time": 47520,
		"track": 2
	},
	{
		"deltaTime": 0,
		"channel": 9,
		"type": "channel",
		"noteNumber": 38,
		"velocity": 127,
		"subtype": "noteOn",
		"time": 47520,
		"track": 5
	},
	{
		"deltaTime": 60,
		"channel": 9,
		"type": "channel",
		"noteNumber": 40,
		"velocity": 127,
		"subtype": "noteOn",
		"time": 47520,
		"track": 5
	},
	{
		"deltaTime": 0,
		"channel": 9,
		"type": "channel",
		"subtype": "noteOff",
		"noteNumber": 40,
		"velocity": 0,
		"time": 47580,
		"track": 5
	},
	{
		"deltaTime": 60,
		"channel": 9,
		"type": "channel",
		"subtype": "noteOff",
		"noteNumber": 38,
		"velocity": 0,
		"time": 47580,
		"track": 5
	},
	{
		"deltaTime": 0,
		"channel": 2,
		"type": "channel",
		"subtype": "noteOff",
		"noteNumber": 68,
		"velocity": 0,
		"time": 47640,
		"track": 4
	},
	{
		"deltaTime": 0,
		"channel": 2,
		"type": "channel",
		"subtype": "noteOff",
		"noteNumber": 63,
		"velocity": 0,
		"time": 47640,
		"track": 4
	},
	{
		"deltaTime": 0,
		"channel": 2,
		"type": "channel",
		"subtype": "noteOff",
		"noteNumber": 59,
		"velocity": 0,
		"time": 47640,
		"track": 4
	},
	{
		"deltaTime": 0,
		"channel": 2,
		"type": "channel",
		"noteNumber": 59,
		"velocity": 127,
		"subtype": "noteOn",
		"time": 47640,
		"track": 4
	},
	{
		"deltaTime": 0,
		"channel": 2,
		"type": "channel",
		"noteNumber": 63,
		"velocity": 127,
		"subtype": "noteOn",
		"time": 47640,
		"track": 4
	},
	{
		"deltaTime": 120,
		"channel": 2,
		"type": "channel",
		"noteNumber": 68,
		"velocity": 127,
		"subtype": "noteOn",
		"time": 47640,
		"track": 4
	},
	{
		"deltaTime": 0,
		"channel": 0,
		"type": "channel",
		"subtype": "noteOff",
		"noteNumber": 35,
		"velocity": 0,
		"time": 47760,
		"track": 2
	},
	{
		"deltaTime": 0,
		"channel": 0,
		"type": "channel",
		"noteNumber": 34,
		"velocity": 127,
		"subtype": "noteOn",
		"time": 47760,
		"track": 2
	},
	{
		"deltaTime": 0,
		"channel": 9,
		"type": "channel",
		"noteNumber": 35,
		"velocity": 127,
		"subtype": "noteOn",
		"time": 47760,
		"track": 5
	},
	{
		"deltaTime": 60,
		"channel": 9,
		"type": "channel",
		"noteNumber": 36,
		"velocity": 127,
		"subtype": "noteOn",
		"time": 47760,
		"track": 5
	},
	{
		"deltaTime": 0,
		"channel": 9,
		"type": "channel",
		"subtype": "noteOff",
		"noteNumber": 36,
		"velocity": 0,
		"time": 47820,
		"track": 5
	},
	{
		"deltaTime": 180,
		"channel": 9,
		"type": "channel",
		"subtype": "noteOff",
		"noteNumber": 35,
		"velocity": 0,
		"time": 47820,
		"track": 5
	},
	{
		"deltaTime": 0,
		"channel": 0,
		"type": "channel",
		"subtype": "noteOff",
		"noteNumber": 34,
		"velocity": 0,
		"time": 48000,
		"track": 2
	},
	{
		"deltaTime": 0,
		"channel": 0,
		"type": "channel",
		"noteNumber": 32,
		"velocity": 127,
		"subtype": "noteOn",
		"time": 48000,
		"track": 2
	},
	{
		"deltaTime": 0,
		"channel": 2,
		"type": "channel",
		"subtype": "noteOff",
		"noteNumber": 68,
		"velocity": 0,
		"time": 48000,
		"track": 4
	},
	{
		"deltaTime": 0,
		"channel": 2,
		"type": "channel",
		"subtype": "noteOff",
		"noteNumber": 63,
		"velocity": 0,
		"time": 48000,
		"track": 4
	},
	{
		"deltaTime": 0,
		"channel": 2,
		"type": "channel",
		"subtype": "noteOff",
		"noteNumber": 59,
		"velocity": 0,
		"time": 48000,
		"track": 4
	},
	{
		"deltaTime": 0,
		"channel": 2,
		"type": "channel",
		"noteNumber": 44,
		"velocity": 127,
		"subtype": "noteOn",
		"time": 48000,
		"track": 4
	},
	{
		"deltaTime": 0,
		"channel": 9,
		"type": "channel",
		"noteNumber": 42,
		"velocity": 127,
		"subtype": "noteOn",
		"time": 48000,
		"track": 5
	},
	{
		"deltaTime": 0,
		"channel": 9,
		"type": "channel",
		"noteNumber": 35,
		"velocity": 127,
		"subtype": "noteOn",
		"time": 48000,
		"track": 5
	},
	{
		"deltaTime": 60,
		"channel": 9,
		"type": "channel",
		"noteNumber": 36,
		"velocity": 127,
		"subtype": "noteOn",
		"time": 48000,
		"track": 5
	},
	{
		"deltaTime": 0,
		"channel": 9,
		"type": "channel",
		"subtype": "noteOff",
		"noteNumber": 36,
		"velocity": 0,
		"time": 48060,
		"track": 5
	},
	{
		"deltaTime": 0,
		"channel": 9,
		"type": "channel",
		"subtype": "noteOff",
		"noteNumber": 35,
		"velocity": 0,
		"time": 48060,
		"track": 5
	},
	{
		"deltaTime": 60,
		"channel": 9,
		"type": "channel",
		"subtype": "noteOff",
		"noteNumber": 42,
		"velocity": 0,
		"time": 48060,
		"track": 5
	},
	{
		"deltaTime": 60,
		"channel": 9,
		"type": "channel",
		"noteNumber": 42,
		"velocity": 127,
		"subtype": "noteOn",
		"time": 48120,
		"track": 5
	},
	{
		"deltaTime": 60,
		"channel": 9,
		"type": "channel",
		"subtype": "noteOff",
		"noteNumber": 42,
		"velocity": 0,
		"time": 48180,
		"track": 5
	},
	{
		"deltaTime": 0,
		"channel": 9,
		"type": "channel",
		"noteNumber": 42,
		"velocity": 127,
		"subtype": "noteOn",
		"time": 48240,
		"track": 5
	},
	{
		"deltaTime": 0,
		"channel": 9,
		"type": "channel",
		"noteNumber": 36,
		"velocity": 127,
		"subtype": "noteOn",
		"time": 48240,
		"track": 5
	},
	{
		"deltaTime": 60,
		"channel": 9,
		"type": "channel",
		"noteNumber": 35,
		"velocity": 127,
		"subtype": "noteOn",
		"time": 48240,
		"track": 5
	},
	{
		"deltaTime": 0,
		"channel": 9,
		"type": "channel",
		"subtype": "noteOff",
		"noteNumber": 35,
		"velocity": 0,
		"time": 48300,
		"track": 5
	},
	{
		"deltaTime": 0,
		"channel": 9,
		"type": "channel",
		"subtype": "noteOff",
		"noteNumber": 36,
		"velocity": 0,
		"time": 48300,
		"track": 5
	},
	{
		"deltaTime": 60,
		"channel": 9,
		"type": "channel",
		"subtype": "noteOff",
		"noteNumber": 42,
		"velocity": 0,
		"time": 48300,
		"track": 5
	},
	{
		"deltaTime": 0,
		"channel": 2,
		"type": "channel",
		"subtype": "noteOff",
		"noteNumber": 44,
		"velocity": 0,
		"time": 48360,
		"track": 4
	},
	{
		"deltaTime": 0,
		"channel": 2,
		"type": "channel",
		"noteNumber": 59,
		"velocity": 127,
		"subtype": "noteOn",
		"time": 48360,
		"track": 4
	},
	{
		"deltaTime": 0,
		"channel": 2,
		"type": "channel",
		"noteNumber": 63,
		"velocity": 127,
		"subtype": "noteOn",
		"time": 48360,
		"track": 4
	},
	{
		"deltaTime": 0,
		"channel": 2,
		"type": "channel",
		"noteNumber": 68,
		"velocity": 127,
		"subtype": "noteOn",
		"time": 48360,
		"track": 4
	},
	{
		"deltaTime": 60,
		"channel": 9,
		"type": "channel",
		"noteNumber": 42,
		"velocity": 127,
		"subtype": "noteOn",
		"time": 48360,
		"track": 5
	},
	{
		"deltaTime": 60,
		"channel": 9,
		"type": "channel",
		"subtype": "noteOff",
		"noteNumber": 42,
		"velocity": 0,
		"time": 48420,
		"track": 5
	},
	{
		"deltaTime": 0,
		"channel": 9,
		"type": "channel",
		"noteNumber": 42,
		"velocity": 127,
		"subtype": "noteOn",
		"time": 48480,
		"track": 5
	},
	{
		"deltaTime": 0,
		"channel": 9,
		"type": "channel",
		"noteNumber": 38,
		"velocity": 127,
		"subtype": "noteOn",
		"time": 48480,
		"track": 5
	},
	{
		"deltaTime": 60,
		"channel": 9,
		"type": "channel",
		"noteNumber": 40,
		"velocity": 127,
		"subtype": "noteOn",
		"time": 48480,
		"track": 5
	},
	{
		"deltaTime": 0,
		"channel": 9,
		"type": "channel",
		"subtype": "noteOff",
		"noteNumber": 40,
		"velocity": 0,
		"time": 48540,
		"track": 5
	},
	{
		"deltaTime": 0,
		"channel": 9,
		"type": "channel",
		"subtype": "noteOff",
		"noteNumber": 38,
		"velocity": 0,
		"time": 48540,
		"track": 5
	},
	{
		"deltaTime": 60,
		"channel": 9,
		"type": "channel",
		"subtype": "noteOff",
		"noteNumber": 42,
		"velocity": 0,
		"time": 48540,
		"track": 5
	},
	{
		"deltaTime": 0,
		"channel": 2,
		"type": "channel",
		"subtype": "noteOff",
		"noteNumber": 68,
		"velocity": 0,
		"time": 48600,
		"track": 4
	},
	{
		"deltaTime": 0,
		"channel": 2,
		"type": "channel",
		"subtype": "noteOff",
		"noteNumber": 63,
		"velocity": 0,
		"time": 48600,
		"track": 4
	},
	{
		"deltaTime": 0,
		"channel": 2,
		"type": "channel",
		"subtype": "noteOff",
		"noteNumber": 59,
		"velocity": 0,
		"time": 48600,
		"track": 4
	},
	{
		"deltaTime": 0,
		"channel": 2,
		"type": "channel",
		"noteNumber": 59,
		"velocity": 127,
		"subtype": "noteOn",
		"time": 48600,
		"track": 4
	},
	{
		"deltaTime": 0,
		"channel": 2,
		"type": "channel",
		"noteNumber": 63,
		"velocity": 127,
		"subtype": "noteOn",
		"time": 48600,
		"track": 4
	},
	{
		"deltaTime": 0,
		"channel": 2,
		"type": "channel",
		"noteNumber": 68,
		"velocity": 127,
		"subtype": "noteOn",
		"time": 48600,
		"track": 4
	},
	{
		"deltaTime": 60,
		"channel": 9,
		"type": "channel",
		"noteNumber": 42,
		"velocity": 127,
		"subtype": "noteOn",
		"time": 48600,
		"track": 5
	},
	{
		"deltaTime": 60,
		"channel": 9,
		"type": "channel",
		"subtype": "noteOff",
		"noteNumber": 42,
		"velocity": 0,
		"time": 48660,
		"track": 5
	},
	{
		"deltaTime": 60,
		"channel": 9,
		"type": "channel",
		"noteNumber": 42,
		"velocity": 127,
		"subtype": "noteOn",
		"time": 48720,
		"track": 5
	},
	{
		"deltaTime": 60,
		"channel": 9,
		"type": "channel",
		"subtype": "noteOff",
		"noteNumber": 42,
		"velocity": 0,
		"time": 48780,
		"track": 5
	},
	{
		"deltaTime": 0,
		"channel": 9,
		"type": "channel",
		"noteNumber": 42,
		"velocity": 127,
		"subtype": "noteOn",
		"time": 48840,
		"track": 5
	},
	{
		"deltaTime": 0,
		"channel": 9,
		"type": "channel",
		"noteNumber": 36,
		"velocity": 127,
		"subtype": "noteOn",
		"time": 48840,
		"track": 5
	},
	{
		"deltaTime": 60,
		"channel": 9,
		"type": "channel",
		"noteNumber": 35,
		"velocity": 127,
		"subtype": "noteOn",
		"time": 48840,
		"track": 5
	},
	{
		"deltaTime": 0,
		"channel": 9,
		"type": "channel",
		"subtype": "noteOff",
		"noteNumber": 35,
		"velocity": 0,
		"time": 48900,
		"track": 5
	},
	{
		"deltaTime": 0,
		"channel": 9,
		"type": "channel",
		"subtype": "noteOff",
		"noteNumber": 36,
		"velocity": 0,
		"time": 48900,
		"track": 5
	},
	{
		"deltaTime": 60,
		"channel": 9,
		"type": "channel",
		"subtype": "noteOff",
		"noteNumber": 42,
		"velocity": 0,
		"time": 48900,
		"track": 5
	},
	{
		"deltaTime": 0,
		"channel": 0,
		"type": "channel",
		"subtype": "noteOff",
		"noteNumber": 32,
		"velocity": 0,
		"time": 48960,
		"track": 2
	},
	{
		"deltaTime": 0,
		"channel": 0,
		"type": "channel",
		"noteNumber": 40,
		"velocity": 127,
		"subtype": "noteOn",
		"time": 48960,
		"track": 2
	},
	{
		"deltaTime": 0,
		"channel": 2,
		"type": "channel",
		"subtype": "noteOff",
		"noteNumber": 68,
		"velocity": 0,
		"time": 48960,
		"track": 4
	},
	{
		"deltaTime": 0,
		"channel": 2,
		"type": "channel",
		"subtype": "noteOff",
		"noteNumber": 63,
		"velocity": 0,
		"time": 48960,
		"track": 4
	},
	{
		"deltaTime": 0,
		"channel": 2,
		"type": "channel",
		"subtype": "noteOff",
		"noteNumber": 59,
		"velocity": 0,
		"time": 48960,
		"track": 4
	},
	{
		"deltaTime": 0,
		"channel": 2,
		"type": "channel",
		"noteNumber": 40,
		"velocity": 127,
		"subtype": "noteOn",
		"time": 48960,
		"track": 4
	},
	{
		"deltaTime": 60,
		"channel": 9,
		"type": "channel",
		"noteNumber": 42,
		"velocity": 127,
		"subtype": "noteOn",
		"time": 48960,
		"track": 5
	},
	{
		"deltaTime": 60,
		"channel": 9,
		"type": "channel",
		"subtype": "noteOff",
		"noteNumber": 42,
		"velocity": 0,
		"time": 49020,
		"track": 5
	},
	{
		"deltaTime": 60,
		"channel": 9,
		"type": "channel",
		"noteNumber": 42,
		"velocity": 127,
		"subtype": "noteOn",
		"time": 49080,
		"track": 5
	},
	{
		"deltaTime": 60,
		"channel": 9,
		"type": "channel",
		"subtype": "noteOff",
		"noteNumber": 42,
		"velocity": 0,
		"time": 49140,
		"track": 5
	},
	{
		"deltaTime": 0,
		"channel": 9,
		"type": "channel",
		"noteNumber": 42,
		"velocity": 127,
		"subtype": "noteOn",
		"time": 49200,
		"track": 5
	},
	{
		"deltaTime": 0,
		"channel": 9,
		"type": "channel",
		"noteNumber": 36,
		"velocity": 127,
		"subtype": "noteOn",
		"time": 49200,
		"track": 5
	},
	{
		"deltaTime": 60,
		"channel": 9,
		"type": "channel",
		"noteNumber": 35,
		"velocity": 127,
		"subtype": "noteOn",
		"time": 49200,
		"track": 5
	},
	{
		"deltaTime": 0,
		"channel": 9,
		"type": "channel",
		"subtype": "noteOff",
		"noteNumber": 35,
		"velocity": 0,
		"time": 49260,
		"track": 5
	},
	{
		"deltaTime": 0,
		"channel": 9,
		"type": "channel",
		"subtype": "noteOff",
		"noteNumber": 36,
		"velocity": 0,
		"time": 49260,
		"track": 5
	},
	{
		"deltaTime": 60,
		"channel": 9,
		"type": "channel",
		"subtype": "noteOff",
		"noteNumber": 42,
		"velocity": 0,
		"time": 49260,
		"track": 5
	},
	{
		"deltaTime": 0,
		"channel": 2,
		"type": "channel",
		"subtype": "noteOff",
		"noteNumber": 40,
		"velocity": 0,
		"time": 49320,
		"track": 4
	},
	{
		"deltaTime": 0,
		"channel": 2,
		"type": "channel",
		"noteNumber": 59,
		"velocity": 127,
		"subtype": "noteOn",
		"time": 49320,
		"track": 4
	},
	{
		"deltaTime": 0,
		"channel": 2,
		"type": "channel",
		"noteNumber": 63,
		"velocity": 127,
		"subtype": "noteOn",
		"time": 49320,
		"track": 4
	},
	{
		"deltaTime": 0,
		"channel": 2,
		"type": "channel",
		"noteNumber": 68,
		"velocity": 127,
		"subtype": "noteOn",
		"time": 49320,
		"track": 4
	},
	{
		"deltaTime": 60,
		"channel": 9,
		"type": "channel",
		"noteNumber": 42,
		"velocity": 127,
		"subtype": "noteOn",
		"time": 49320,
		"track": 5
	},
	{
		"deltaTime": 60,
		"channel": 9,
		"type": "channel",
		"subtype": "noteOff",
		"noteNumber": 42,
		"velocity": 0,
		"time": 49380,
		"track": 5
	},
	{
		"deltaTime": 0,
		"channel": 9,
		"type": "channel",
		"noteNumber": 42,
		"velocity": 127,
		"subtype": "noteOn",
		"time": 49440,
		"track": 5
	},
	{
		"deltaTime": 0,
		"channel": 9,
		"type": "channel",
		"noteNumber": 40,
		"velocity": 127,
		"subtype": "noteOn",
		"time": 49440,
		"track": 5
	},
	{
		"deltaTime": 60,
		"channel": 9,
		"type": "channel",
		"noteNumber": 38,
		"velocity": 127,
		"subtype": "noteOn",
		"time": 49440,
		"track": 5
	},
	{
		"deltaTime": 0,
		"channel": 9,
		"type": "channel",
		"subtype": "noteOff",
		"noteNumber": 38,
		"velocity": 0,
		"time": 49500,
		"track": 5
	},
	{
		"deltaTime": 0,
		"channel": 9,
		"type": "channel",
		"subtype": "noteOff",
		"noteNumber": 40,
		"velocity": 0,
		"time": 49500,
		"track": 5
	},
	{
		"deltaTime": 60,
		"channel": 9,
		"type": "channel",
		"subtype": "noteOff",
		"noteNumber": 42,
		"velocity": 0,
		"time": 49500,
		"track": 5
	},
	{
		"deltaTime": 0,
		"channel": 2,
		"type": "channel",
		"subtype": "noteOff",
		"noteNumber": 68,
		"velocity": 0,
		"time": 49560,
		"track": 4
	},
	{
		"deltaTime": 0,
		"channel": 2,
		"type": "channel",
		"subtype": "noteOff",
		"noteNumber": 63,
		"velocity": 0,
		"time": 49560,
		"track": 4
	},
	{
		"deltaTime": 0,
		"channel": 2,
		"type": "channel",
		"subtype": "noteOff",
		"noteNumber": 59,
		"velocity": 0,
		"time": 49560,
		"track": 4
	},
	{
		"deltaTime": 0,
		"channel": 2,
		"type": "channel",
		"noteNumber": 59,
		"velocity": 127,
		"subtype": "noteOn",
		"time": 49560,
		"track": 4
	},
	{
		"deltaTime": 0,
		"channel": 2,
		"type": "channel",
		"noteNumber": 63,
		"velocity": 127,
		"subtype": "noteOn",
		"time": 49560,
		"track": 4
	},
	{
		"deltaTime": 0,
		"channel": 2,
		"type": "channel",
		"noteNumber": 68,
		"velocity": 127,
		"subtype": "noteOn",
		"time": 49560,
		"track": 4
	},
	{
		"deltaTime": 60,
		"channel": 9,
		"type": "channel",
		"noteNumber": 42,
		"velocity": 127,
		"subtype": "noteOn",
		"time": 49560,
		"track": 5
	},
	{
		"deltaTime": 60,
		"channel": 9,
		"type": "channel",
		"subtype": "noteOff",
		"noteNumber": 42,
		"velocity": 0,
		"time": 49620,
		"track": 5
	},
	{
		"deltaTime": 60,
		"channel": 9,
		"type": "channel",
		"noteNumber": 42,
		"velocity": 127,
		"subtype": "noteOn",
		"time": 49680,
		"track": 5
	},
	{
		"deltaTime": 60,
		"channel": 9,
		"type": "channel",
		"subtype": "noteOff",
		"noteNumber": 42,
		"velocity": 0,
		"time": 49740,
		"track": 5
	},
	{
		"deltaTime": 60,
		"channel": 9,
		"type": "channel",
		"noteNumber": 42,
		"velocity": 127,
		"subtype": "noteOn",
		"time": 49800,
		"track": 5
	},
	{
		"deltaTime": 60,
		"channel": 9,
		"type": "channel",
		"subtype": "noteOff",
		"noteNumber": 42,
		"velocity": 0,
		"time": 49860,
		"track": 5
	},
	{
		"deltaTime": 0,
		"channel": 0,
		"type": "channel",
		"subtype": "noteOff",
		"noteNumber": 40,
		"velocity": 0,
		"time": 49920,
		"track": 2
	},
	{
		"deltaTime": 0,
		"channel": 0,
		"type": "channel",
		"noteNumber": 42,
		"velocity": 127,
		"subtype": "noteOn",
		"time": 49920,
		"track": 2
	},
	{
		"deltaTime": 0,
		"channel": 2,
		"type": "channel",
		"subtype": "noteOff",
		"noteNumber": 68,
		"velocity": 0,
		"time": 49920,
		"track": 4
	},
	{
		"deltaTime": 0,
		"channel": 2,
		"type": "channel",
		"subtype": "noteOff",
		"noteNumber": 63,
		"velocity": 0,
		"time": 49920,
		"track": 4
	},
	{
		"deltaTime": 0,
		"channel": 2,
		"type": "channel",
		"subtype": "noteOff",
		"noteNumber": 59,
		"velocity": 0,
		"time": 49920,
		"track": 4
	},
	{
		"deltaTime": 0,
		"channel": 2,
		"type": "channel",
		"noteNumber": 42,
		"velocity": 127,
		"subtype": "noteOn",
		"time": 49920,
		"track": 4
	},
	{
		"deltaTime": 0,
		"channel": 9,
		"type": "channel",
		"noteNumber": 42,
		"velocity": 127,
		"subtype": "noteOn",
		"time": 49920,
		"track": 5
	},
	{
		"deltaTime": 0,
		"channel": 9,
		"type": "channel",
		"noteNumber": 35,
		"velocity": 127,
		"subtype": "noteOn",
		"time": 49920,
		"track": 5
	},
	{
		"deltaTime": 60,
		"channel": 9,
		"type": "channel",
		"noteNumber": 36,
		"velocity": 127,
		"subtype": "noteOn",
		"time": 49920,
		"track": 5
	},
	{
		"deltaTime": 0,
		"channel": 9,
		"type": "channel",
		"subtype": "noteOff",
		"noteNumber": 36,
		"velocity": 0,
		"time": 49980,
		"track": 5
	},
	{
		"deltaTime": 0,
		"channel": 9,
		"type": "channel",
		"subtype": "noteOff",
		"noteNumber": 35,
		"velocity": 0,
		"time": 49980,
		"track": 5
	},
	{
		"deltaTime": 60,
		"channel": 9,
		"type": "channel",
		"subtype": "noteOff",
		"noteNumber": 42,
		"velocity": 0,
		"time": 49980,
		"track": 5
	},
	{
		"deltaTime": 60,
		"channel": 9,
		"type": "channel",
		"noteNumber": 42,
		"velocity": 127,
		"subtype": "noteOn",
		"time": 50040,
		"track": 5
	},
	{
		"deltaTime": 60,
		"channel": 9,
		"type": "channel",
		"subtype": "noteOff",
		"noteNumber": 42,
		"velocity": 0,
		"time": 50100,
		"track": 5
	},
	{
		"deltaTime": 0,
		"channel": 9,
		"type": "channel",
		"noteNumber": 42,
		"velocity": 127,
		"subtype": "noteOn",
		"time": 50160,
		"track": 5
	},
	{
		"deltaTime": 0,
		"channel": 9,
		"type": "channel",
		"noteNumber": 36,
		"velocity": 127,
		"subtype": "noteOn",
		"time": 50160,
		"track": 5
	},
	{
		"deltaTime": 60,
		"channel": 9,
		"type": "channel",
		"noteNumber": 35,
		"velocity": 127,
		"subtype": "noteOn",
		"time": 50160,
		"track": 5
	},
	{
		"deltaTime": 0,
		"channel": 9,
		"type": "channel",
		"subtype": "noteOff",
		"noteNumber": 35,
		"velocity": 0,
		"time": 50220,
		"track": 5
	},
	{
		"deltaTime": 0,
		"channel": 9,
		"type": "channel",
		"subtype": "noteOff",
		"noteNumber": 36,
		"velocity": 0,
		"time": 50220,
		"track": 5
	},
	{
		"deltaTime": 60,
		"channel": 9,
		"type": "channel",
		"subtype": "noteOff",
		"noteNumber": 42,
		"velocity": 0,
		"time": 50220,
		"track": 5
	},
	{
		"deltaTime": 0,
		"channel": 2,
		"type": "channel",
		"subtype": "noteOff",
		"noteNumber": 42,
		"velocity": 0,
		"time": 50280,
		"track": 4
	},
	{
		"deltaTime": 0,
		"channel": 2,
		"type": "channel",
		"noteNumber": 61,
		"velocity": 127,
		"subtype": "noteOn",
		"time": 50280,
		"track": 4
	},
	{
		"deltaTime": 0,
		"channel": 2,
		"type": "channel",
		"noteNumber": 66,
		"velocity": 127,
		"subtype": "noteOn",
		"time": 50280,
		"track": 4
	},
	{
		"deltaTime": 0,
		"channel": 2,
		"type": "channel",
		"noteNumber": 70,
		"velocity": 127,
		"subtype": "noteOn",
		"time": 50280,
		"track": 4
	},
	{
		"deltaTime": 60,
		"channel": 9,
		"type": "channel",
		"noteNumber": 42,
		"velocity": 127,
		"subtype": "noteOn",
		"time": 50280,
		"track": 5
	},
	{
		"deltaTime": 60,
		"channel": 9,
		"type": "channel",
		"subtype": "noteOff",
		"noteNumber": 42,
		"velocity": 0,
		"time": 50340,
		"track": 5
	},
	{
		"deltaTime": 0,
		"channel": 9,
		"type": "channel",
		"noteNumber": 42,
		"velocity": 127,
		"subtype": "noteOn",
		"time": 50400,
		"track": 5
	},
	{
		"deltaTime": 0,
		"channel": 9,
		"type": "channel",
		"noteNumber": 38,
		"velocity": 127,
		"subtype": "noteOn",
		"time": 50400,
		"track": 5
	},
	{
		"deltaTime": 60,
		"channel": 9,
		"type": "channel",
		"noteNumber": 40,
		"velocity": 127,
		"subtype": "noteOn",
		"time": 50400,
		"track": 5
	},
	{
		"deltaTime": 0,
		"channel": 9,
		"type": "channel",
		"subtype": "noteOff",
		"noteNumber": 40,
		"velocity": 0,
		"time": 50460,
		"track": 5
	},
	{
		"deltaTime": 0,
		"channel": 9,
		"type": "channel",
		"subtype": "noteOff",
		"noteNumber": 38,
		"velocity": 0,
		"time": 50460,
		"track": 5
	},
	{
		"deltaTime": 60,
		"channel": 9,
		"type": "channel",
		"subtype": "noteOff",
		"noteNumber": 42,
		"velocity": 0,
		"time": 50460,
		"track": 5
	},
	{
		"deltaTime": 0,
		"channel": 2,
		"type": "channel",
		"subtype": "noteOff",
		"noteNumber": 70,
		"velocity": 0,
		"time": 50520,
		"track": 4
	},
	{
		"deltaTime": 0,
		"channel": 2,
		"type": "channel",
		"subtype": "noteOff",
		"noteNumber": 66,
		"velocity": 0,
		"time": 50520,
		"track": 4
	},
	{
		"deltaTime": 0,
		"channel": 2,
		"type": "channel",
		"subtype": "noteOff",
		"noteNumber": 61,
		"velocity": 0,
		"time": 50520,
		"track": 4
	},
	{
		"deltaTime": 0,
		"channel": 2,
		"type": "channel",
		"noteNumber": 61,
		"velocity": 127,
		"subtype": "noteOn",
		"time": 50520,
		"track": 4
	},
	{
		"deltaTime": 0,
		"channel": 2,
		"type": "channel",
		"noteNumber": 66,
		"velocity": 127,
		"subtype": "noteOn",
		"time": 50520,
		"track": 4
	},
	{
		"deltaTime": 0,
		"channel": 2,
		"type": "channel",
		"noteNumber": 70,
		"velocity": 127,
		"subtype": "noteOn",
		"time": 50520,
		"track": 4
	},
	{
		"deltaTime": 60,
		"channel": 9,
		"type": "channel",
		"noteNumber": 42,
		"velocity": 127,
		"subtype": "noteOn",
		"time": 50520,
		"track": 5
	},
	{
		"deltaTime": 60,
		"channel": 9,
		"type": "channel",
		"subtype": "noteOff",
		"noteNumber": 42,
		"velocity": 0,
		"time": 50580,
		"track": 5
	},
	{
		"deltaTime": 60,
		"channel": 9,
		"type": "channel",
		"noteNumber": 42,
		"velocity": 127,
		"subtype": "noteOn",
		"time": 50640,
		"track": 5
	},
	{
		"deltaTime": 60,
		"channel": 9,
		"type": "channel",
		"subtype": "noteOff",
		"noteNumber": 42,
		"velocity": 0,
		"time": 50700,
		"track": 5
	},
	{
		"deltaTime": 0,
		"channel": 9,
		"type": "channel",
		"noteNumber": 42,
		"velocity": 127,
		"subtype": "noteOn",
		"time": 50760,
		"track": 5
	},
	{
		"deltaTime": 0,
		"channel": 9,
		"type": "channel",
		"noteNumber": 36,
		"velocity": 127,
		"subtype": "noteOn",
		"time": 50760,
		"track": 5
	},
	{
		"deltaTime": 60,
		"channel": 9,
		"type": "channel",
		"noteNumber": 35,
		"velocity": 127,
		"subtype": "noteOn",
		"time": 50760,
		"track": 5
	},
	{
		"deltaTime": 0,
		"channel": 9,
		"type": "channel",
		"subtype": "noteOff",
		"noteNumber": 35,
		"velocity": 0,
		"time": 50820,
		"track": 5
	},
	{
		"deltaTime": 0,
		"channel": 9,
		"type": "channel",
		"subtype": "noteOff",
		"noteNumber": 36,
		"velocity": 0,
		"time": 50820,
		"track": 5
	},
	{
		"deltaTime": 60,
		"channel": 9,
		"type": "channel",
		"subtype": "noteOff",
		"noteNumber": 42,
		"velocity": 0,
		"time": 50820,
		"track": 5
	},
	{
		"deltaTime": 0,
		"channel": 0,
		"type": "channel",
		"subtype": "noteOff",
		"noteNumber": 42,
		"velocity": 0,
		"time": 50880,
		"track": 2
	},
	{
		"deltaTime": 0,
		"channel": 0,
		"type": "channel",
		"noteNumber": 35,
		"velocity": 127,
		"subtype": "noteOn",
		"time": 50880,
		"track": 2
	},
	{
		"deltaTime": 0,
		"channel": 2,
		"type": "channel",
		"subtype": "noteOff",
		"noteNumber": 70,
		"velocity": 0,
		"time": 50880,
		"track": 4
	},
	{
		"deltaTime": 0,
		"channel": 2,
		"type": "channel",
		"subtype": "noteOff",
		"noteNumber": 66,
		"velocity": 0,
		"time": 50880,
		"track": 4
	},
	{
		"deltaTime": 0,
		"channel": 2,
		"type": "channel",
		"subtype": "noteOff",
		"noteNumber": 61,
		"velocity": 0,
		"time": 50880,
		"track": 4
	},
	{
		"deltaTime": 0,
		"channel": 2,
		"type": "channel",
		"noteNumber": 47,
		"velocity": 127,
		"subtype": "noteOn",
		"time": 50880,
		"track": 4
	},
	{
		"deltaTime": 60,
		"channel": 9,
		"type": "channel",
		"noteNumber": 42,
		"velocity": 127,
		"subtype": "noteOn",
		"time": 50880,
		"track": 5
	},
	{
		"deltaTime": 60,
		"channel": 9,
		"type": "channel",
		"subtype": "noteOff",
		"noteNumber": 42,
		"velocity": 0,
		"time": 50940,
		"track": 5
	},
	{
		"deltaTime": 60,
		"channel": 9,
		"type": "channel",
		"noteNumber": 42,
		"velocity": 127,
		"subtype": "noteOn",
		"time": 51000,
		"track": 5
	},
	{
		"deltaTime": 60,
		"channel": 9,
		"type": "channel",
		"subtype": "noteOff",
		"noteNumber": 42,
		"velocity": 0,
		"time": 51060,
		"track": 5
	},
	{
		"deltaTime": 0,
		"channel": 9,
		"type": "channel",
		"noteNumber": 42,
		"velocity": 127,
		"subtype": "noteOn",
		"time": 51120,
		"track": 5
	},
	{
		"deltaTime": 0,
		"channel": 9,
		"type": "channel",
		"noteNumber": 36,
		"velocity": 127,
		"subtype": "noteOn",
		"time": 51120,
		"track": 5
	},
	{
		"deltaTime": 60,
		"channel": 9,
		"type": "channel",
		"noteNumber": 35,
		"velocity": 127,
		"subtype": "noteOn",
		"time": 51120,
		"track": 5
	},
	{
		"deltaTime": 0,
		"channel": 9,
		"type": "channel",
		"subtype": "noteOff",
		"noteNumber": 35,
		"velocity": 0,
		"time": 51180,
		"track": 5
	},
	{
		"deltaTime": 0,
		"channel": 9,
		"type": "channel",
		"subtype": "noteOff",
		"noteNumber": 36,
		"velocity": 0,
		"time": 51180,
		"track": 5
	},
	{
		"deltaTime": 60,
		"channel": 9,
		"type": "channel",
		"subtype": "noteOff",
		"noteNumber": 42,
		"velocity": 0,
		"time": 51180,
		"track": 5
	},
	{
		"deltaTime": 0,
		"channel": 2,
		"type": "channel",
		"subtype": "noteOff",
		"noteNumber": 47,
		"velocity": 0,
		"time": 51240,
		"track": 4
	},
	{
		"deltaTime": 0,
		"channel": 2,
		"type": "channel",
		"noteNumber": 61,
		"velocity": 127,
		"subtype": "noteOn",
		"time": 51240,
		"track": 4
	},
	{
		"deltaTime": 0,
		"channel": 2,
		"type": "channel",
		"noteNumber": 66,
		"velocity": 127,
		"subtype": "noteOn",
		"time": 51240,
		"track": 4
	},
	{
		"deltaTime": 0,
		"channel": 2,
		"type": "channel",
		"noteNumber": 70,
		"velocity": 127,
		"subtype": "noteOn",
		"time": 51240,
		"track": 4
	},
	{
		"deltaTime": 60,
		"channel": 9,
		"type": "channel",
		"noteNumber": 42,
		"velocity": 127,
		"subtype": "noteOn",
		"time": 51240,
		"track": 5
	},
	{
		"deltaTime": 60,
		"channel": 9,
		"type": "channel",
		"subtype": "noteOff",
		"noteNumber": 42,
		"velocity": 0,
		"time": 51300,
		"track": 5
	},
	{
		"deltaTime": 0,
		"channel": 0,
		"type": "channel",
		"subtype": "noteOff",
		"noteNumber": 35,
		"velocity": 0,
		"time": 51360,
		"track": 2
	},
	{
		"deltaTime": 0,
		"channel": 0,
		"type": "channel",
		"noteNumber": 34,
		"velocity": 127,
		"subtype": "noteOn",
		"time": 51360,
		"track": 2
	},
	{
		"deltaTime": 0,
		"channel": 9,
		"type": "channel",
		"noteNumber": 42,
		"velocity": 127,
		"subtype": "noteOn",
		"time": 51360,
		"track": 5
	},
	{
		"deltaTime": 0,
		"channel": 9,
		"type": "channel",
		"noteNumber": 40,
		"velocity": 127,
		"subtype": "noteOn",
		"time": 51360,
		"track": 5
	},
	{
		"deltaTime": 60,
		"channel": 9,
		"type": "channel",
		"noteNumber": 38,
		"velocity": 127,
		"subtype": "noteOn",
		"time": 51360,
		"track": 5
	},
	{
		"deltaTime": 0,
		"channel": 9,
		"type": "channel",
		"subtype": "noteOff",
		"noteNumber": 38,
		"velocity": 0,
		"time": 51420,
		"track": 5
	},
	{
		"deltaTime": 0,
		"channel": 9,
		"type": "channel",
		"subtype": "noteOff",
		"noteNumber": 40,
		"velocity": 0,
		"time": 51420,
		"track": 5
	},
	{
		"deltaTime": 60,
		"channel": 9,
		"type": "channel",
		"subtype": "noteOff",
		"noteNumber": 42,
		"velocity": 0,
		"time": 51420,
		"track": 5
	},
	{
		"deltaTime": 0,
		"channel": 2,
		"type": "channel",
		"subtype": "noteOff",
		"noteNumber": 70,
		"velocity": 0,
		"time": 51480,
		"track": 4
	},
	{
		"deltaTime": 0,
		"channel": 2,
		"type": "channel",
		"subtype": "noteOff",
		"noteNumber": 66,
		"velocity": 0,
		"time": 51480,
		"track": 4
	},
	{
		"deltaTime": 0,
		"channel": 2,
		"type": "channel",
		"subtype": "noteOff",
		"noteNumber": 61,
		"velocity": 0,
		"time": 51480,
		"track": 4
	},
	{
		"deltaTime": 0,
		"channel": 2,
		"type": "channel",
		"noteNumber": 61,
		"velocity": 127,
		"subtype": "noteOn",
		"time": 51480,
		"track": 4
	},
	{
		"deltaTime": 0,
		"channel": 2,
		"type": "channel",
		"noteNumber": 66,
		"velocity": 127,
		"subtype": "noteOn",
		"time": 51480,
		"track": 4
	},
	{
		"deltaTime": 0,
		"channel": 2,
		"type": "channel",
		"noteNumber": 71,
		"velocity": 127,
		"subtype": "noteOn",
		"time": 51480,
		"track": 4
	},
	{
		"deltaTime": 60,
		"channel": 9,
		"type": "channel",
		"noteNumber": 42,
		"velocity": 127,
		"subtype": "noteOn",
		"time": 51480,
		"track": 5
	},
	{
		"deltaTime": 60,
		"channel": 9,
		"type": "channel",
		"subtype": "noteOff",
		"noteNumber": 42,
		"velocity": 0,
		"time": 51540,
		"track": 5
	},
	{
		"deltaTime": 60,
		"channel": 9,
		"type": "channel",
		"noteNumber": 42,
		"velocity": 127,
		"subtype": "noteOn",
		"time": 51600,
		"track": 5
	},
	{
		"deltaTime": 60,
		"channel": 9,
		"type": "channel",
		"subtype": "noteOff",
		"noteNumber": 42,
		"velocity": 0,
		"time": 51660,
		"track": 5
	},
	{
		"deltaTime": 60,
		"channel": 9,
		"type": "channel",
		"noteNumber": 42,
		"velocity": 127,
		"subtype": "noteOn",
		"time": 51720,
		"track": 5
	},
	{
		"deltaTime": 60,
		"channel": 9,
		"type": "channel",
		"subtype": "noteOff",
		"noteNumber": 42,
		"velocity": 0,
		"time": 51780,
		"track": 5
	},
	{
		"deltaTime": 0,
		"channel": 0,
		"type": "channel",
		"subtype": "noteOff",
		"noteNumber": 34,
		"velocity": 0,
		"time": 51840,
		"track": 2
	},
	{
		"deltaTime": 0,
		"channel": 0,
		"type": "channel",
		"noteNumber": 32,
		"velocity": 127,
		"subtype": "noteOn",
		"time": 51840,
		"track": 2
	},
	{
		"deltaTime": 0,
		"channel": 2,
		"type": "channel",
		"subtype": "noteOff",
		"noteNumber": 71,
		"velocity": 0,
		"time": 51840,
		"track": 4
	},
	{
		"deltaTime": 0,
		"channel": 2,
		"type": "channel",
		"subtype": "noteOff",
		"noteNumber": 66,
		"velocity": 0,
		"time": 51840,
		"track": 4
	},
	{
		"deltaTime": 0,
		"channel": 2,
		"type": "channel",
		"subtype": "noteOff",
		"noteNumber": 61,
		"velocity": 0,
		"time": 51840,
		"track": 4
	},
	{
		"deltaTime": 0,
		"channel": 2,
		"type": "channel",
		"noteNumber": 44,
		"velocity": 127,
		"subtype": "noteOn",
		"time": 51840,
		"track": 4
	},
	{
		"deltaTime": 0,
		"channel": 9,
		"type": "channel",
		"noteNumber": 42,
		"velocity": 127,
		"subtype": "noteOn",
		"time": 51840,
		"track": 5
	},
	{
		"deltaTime": 0,
		"channel": 9,
		"type": "channel",
		"noteNumber": 35,
		"velocity": 127,
		"subtype": "noteOn",
		"time": 51840,
		"track": 5
	},
	{
		"deltaTime": 60,
		"channel": 9,
		"type": "channel",
		"noteNumber": 36,
		"velocity": 127,
		"subtype": "noteOn",
		"time": 51840,
		"track": 5
	},
	{
		"deltaTime": 0,
		"channel": 9,
		"type": "channel",
		"subtype": "noteOff",
		"noteNumber": 36,
		"velocity": 0,
		"time": 51900,
		"track": 5
	},
	{
		"deltaTime": 0,
		"channel": 9,
		"type": "channel",
		"subtype": "noteOff",
		"noteNumber": 35,
		"velocity": 0,
		"time": 51900,
		"track": 5
	},
	{
		"deltaTime": 60,
		"channel": 9,
		"type": "channel",
		"subtype": "noteOff",
		"noteNumber": 42,
		"velocity": 0,
		"time": 51900,
		"track": 5
	},
	{
		"deltaTime": 60,
		"channel": 9,
		"type": "channel",
		"noteNumber": 42,
		"velocity": 127,
		"subtype": "noteOn",
		"time": 51960,
		"track": 5
	},
	{
		"deltaTime": 60,
		"channel": 9,
		"type": "channel",
		"subtype": "noteOff",
		"noteNumber": 42,
		"velocity": 0,
		"time": 52020,
		"track": 5
	},
	{
		"deltaTime": 0,
		"channel": 9,
		"type": "channel",
		"noteNumber": 42,
		"velocity": 127,
		"subtype": "noteOn",
		"time": 52080,
		"track": 5
	},
	{
		"deltaTime": 0,
		"channel": 9,
		"type": "channel",
		"noteNumber": 36,
		"velocity": 127,
		"subtype": "noteOn",
		"time": 52080,
		"track": 5
	},
	{
		"deltaTime": 60,
		"channel": 9,
		"type": "channel",
		"noteNumber": 35,
		"velocity": 127,
		"subtype": "noteOn",
		"time": 52080,
		"track": 5
	},
	{
		"deltaTime": 0,
		"channel": 9,
		"type": "channel",
		"subtype": "noteOff",
		"noteNumber": 35,
		"velocity": 0,
		"time": 52140,
		"track": 5
	},
	{
		"deltaTime": 0,
		"channel": 9,
		"type": "channel",
		"subtype": "noteOff",
		"noteNumber": 36,
		"velocity": 0,
		"time": 52140,
		"track": 5
	},
	{
		"deltaTime": 60,
		"channel": 9,
		"type": "channel",
		"subtype": "noteOff",
		"noteNumber": 42,
		"velocity": 0,
		"time": 52140,
		"track": 5
	},
	{
		"deltaTime": 0,
		"channel": 2,
		"type": "channel",
		"subtype": "noteOff",
		"noteNumber": 44,
		"velocity": 0,
		"time": 52200,
		"track": 4
	},
	{
		"deltaTime": 0,
		"channel": 2,
		"type": "channel",
		"noteNumber": 59,
		"velocity": 127,
		"subtype": "noteOn",
		"time": 52200,
		"track": 4
	},
	{
		"deltaTime": 0,
		"channel": 2,
		"type": "channel",
		"noteNumber": 63,
		"velocity": 127,
		"subtype": "noteOn",
		"time": 52200,
		"track": 4
	},
	{
		"deltaTime": 0,
		"channel": 2,
		"type": "channel",
		"noteNumber": 68,
		"velocity": 127,
		"subtype": "noteOn",
		"time": 52200,
		"track": 4
	},
	{
		"deltaTime": 60,
		"channel": 9,
		"type": "channel",
		"noteNumber": 42,
		"velocity": 127,
		"subtype": "noteOn",
		"time": 52200,
		"track": 5
	},
	{
		"deltaTime": 60,
		"channel": 9,
		"type": "channel",
		"subtype": "noteOff",
		"noteNumber": 42,
		"velocity": 0,
		"time": 52260,
		"track": 5
	},
	{
		"deltaTime": 0,
		"channel": 9,
		"type": "channel",
		"noteNumber": 42,
		"velocity": 127,
		"subtype": "noteOn",
		"time": 52320,
		"track": 5
	},
	{
		"deltaTime": 0,
		"channel": 9,
		"type": "channel",
		"noteNumber": 38,
		"velocity": 127,
		"subtype": "noteOn",
		"time": 52320,
		"track": 5
	},
	{
		"deltaTime": 60,
		"channel": 9,
		"type": "channel",
		"noteNumber": 40,
		"velocity": 127,
		"subtype": "noteOn",
		"time": 52320,
		"track": 5
	},
	{
		"deltaTime": 0,
		"channel": 9,
		"type": "channel",
		"subtype": "noteOff",
		"noteNumber": 40,
		"velocity": 0,
		"time": 52380,
		"track": 5
	},
	{
		"deltaTime": 0,
		"channel": 9,
		"type": "channel",
		"subtype": "noteOff",
		"noteNumber": 38,
		"velocity": 0,
		"time": 52380,
		"track": 5
	},
	{
		"deltaTime": 60,
		"channel": 9,
		"type": "channel",
		"subtype": "noteOff",
		"noteNumber": 42,
		"velocity": 0,
		"time": 52380,
		"track": 5
	},
	{
		"deltaTime": 0,
		"channel": 2,
		"type": "channel",
		"subtype": "noteOff",
		"noteNumber": 68,
		"velocity": 0,
		"time": 52440,
		"track": 4
	},
	{
		"deltaTime": 0,
		"channel": 2,
		"type": "channel",
		"subtype": "noteOff",
		"noteNumber": 63,
		"velocity": 0,
		"time": 52440,
		"track": 4
	},
	{
		"deltaTime": 0,
		"channel": 2,
		"type": "channel",
		"subtype": "noteOff",
		"noteNumber": 59,
		"velocity": 0,
		"time": 52440,
		"track": 4
	},
	{
		"deltaTime": 0,
		"channel": 2,
		"type": "channel",
		"noteNumber": 59,
		"velocity": 127,
		"subtype": "noteOn",
		"time": 52440,
		"track": 4
	},
	{
		"deltaTime": 0,
		"channel": 2,
		"type": "channel",
		"noteNumber": 63,
		"velocity": 127,
		"subtype": "noteOn",
		"time": 52440,
		"track": 4
	},
	{
		"deltaTime": 0,
		"channel": 2,
		"type": "channel",
		"noteNumber": 68,
		"velocity": 127,
		"subtype": "noteOn",
		"time": 52440,
		"track": 4
	},
	{
		"deltaTime": 60,
		"channel": 9,
		"type": "channel",
		"noteNumber": 42,
		"velocity": 127,
		"subtype": "noteOn",
		"time": 52440,
		"track": 5
	},
	{
		"deltaTime": 60,
		"channel": 9,
		"type": "channel",
		"subtype": "noteOff",
		"noteNumber": 42,
		"velocity": 0,
		"time": 52500,
		"track": 5
	},
	{
		"deltaTime": 60,
		"channel": 9,
		"type": "channel",
		"noteNumber": 42,
		"velocity": 127,
		"subtype": "noteOn",
		"time": 52560,
		"track": 5
	},
	{
		"deltaTime": 60,
		"channel": 9,
		"type": "channel",
		"subtype": "noteOff",
		"noteNumber": 42,
		"velocity": 0,
		"time": 52620,
		"track": 5
	},
	{
		"deltaTime": 0,
		"channel": 9,
		"type": "channel",
		"noteNumber": 42,
		"velocity": 127,
		"subtype": "noteOn",
		"time": 52680,
		"track": 5
	},
	{
		"deltaTime": 0,
		"channel": 9,
		"type": "channel",
		"noteNumber": 36,
		"velocity": 127,
		"subtype": "noteOn",
		"time": 52680,
		"track": 5
	},
	{
		"deltaTime": 60,
		"channel": 9,
		"type": "channel",
		"noteNumber": 35,
		"velocity": 127,
		"subtype": "noteOn",
		"time": 52680,
		"track": 5
	},
	{
		"deltaTime": 0,
		"channel": 9,
		"type": "channel",
		"subtype": "noteOff",
		"noteNumber": 35,
		"velocity": 0,
		"time": 52740,
		"track": 5
	},
	{
		"deltaTime": 0,
		"channel": 9,
		"type": "channel",
		"subtype": "noteOff",
		"noteNumber": 36,
		"velocity": 0,
		"time": 52740,
		"track": 5
	},
	{
		"deltaTime": 60,
		"channel": 9,
		"type": "channel",
		"subtype": "noteOff",
		"noteNumber": 42,
		"velocity": 0,
		"time": 52740,
		"track": 5
	},
	{
		"deltaTime": 0,
		"channel": 0,
		"type": "channel",
		"subtype": "noteOff",
		"noteNumber": 32,
		"velocity": 0,
		"time": 52800,
		"track": 2
	},
	{
		"deltaTime": 0,
		"channel": 0,
		"type": "channel",
		"noteNumber": 40,
		"velocity": 127,
		"subtype": "noteOn",
		"time": 52800,
		"track": 2
	},
	{
		"deltaTime": 0,
		"channel": 2,
		"type": "channel",
		"subtype": "noteOff",
		"noteNumber": 68,
		"velocity": 0,
		"time": 52800,
		"track": 4
	},
	{
		"deltaTime": 0,
		"channel": 2,
		"type": "channel",
		"subtype": "noteOff",
		"noteNumber": 63,
		"velocity": 0,
		"time": 52800,
		"track": 4
	},
	{
		"deltaTime": 0,
		"channel": 2,
		"type": "channel",
		"subtype": "noteOff",
		"noteNumber": 59,
		"velocity": 0,
		"time": 52800,
		"track": 4
	},
	{
		"deltaTime": 0,
		"channel": 2,
		"type": "channel",
		"noteNumber": 40,
		"velocity": 127,
		"subtype": "noteOn",
		"time": 52800,
		"track": 4
	},
	{
		"deltaTime": 60,
		"channel": 9,
		"type": "channel",
		"noteNumber": 42,
		"velocity": 127,
		"subtype": "noteOn",
		"time": 52800,
		"track": 5
	},
	{
		"deltaTime": 60,
		"channel": 9,
		"type": "channel",
		"subtype": "noteOff",
		"noteNumber": 42,
		"velocity": 0,
		"time": 52860,
		"track": 5
	},
	{
		"deltaTime": 60,
		"channel": 9,
		"type": "channel",
		"noteNumber": 42,
		"velocity": 127,
		"subtype": "noteOn",
		"time": 52920,
		"track": 5
	},
	{
		"deltaTime": 60,
		"channel": 9,
		"type": "channel",
		"subtype": "noteOff",
		"noteNumber": 42,
		"velocity": 0,
		"time": 52980,
		"track": 5
	},
	{
		"deltaTime": 0,
		"channel": 9,
		"type": "channel",
		"noteNumber": 42,
		"velocity": 127,
		"subtype": "noteOn",
		"time": 53040,
		"track": 5
	},
	{
		"deltaTime": 0,
		"channel": 9,
		"type": "channel",
		"noteNumber": 36,
		"velocity": 127,
		"subtype": "noteOn",
		"time": 53040,
		"track": 5
	},
	{
		"deltaTime": 60,
		"channel": 9,
		"type": "channel",
		"noteNumber": 35,
		"velocity": 127,
		"subtype": "noteOn",
		"time": 53040,
		"track": 5
	},
	{
		"deltaTime": 0,
		"channel": 9,
		"type": "channel",
		"subtype": "noteOff",
		"noteNumber": 35,
		"velocity": 0,
		"time": 53100,
		"track": 5
	},
	{
		"deltaTime": 0,
		"channel": 9,
		"type": "channel",
		"subtype": "noteOff",
		"noteNumber": 36,
		"velocity": 0,
		"time": 53100,
		"track": 5
	},
	{
		"deltaTime": 60,
		"channel": 9,
		"type": "channel",
		"subtype": "noteOff",
		"noteNumber": 42,
		"velocity": 0,
		"time": 53100,
		"track": 5
	},
	{
		"deltaTime": 0,
		"channel": 2,
		"type": "channel",
		"subtype": "noteOff",
		"noteNumber": 40,
		"velocity": 0,
		"time": 53160,
		"track": 4
	},
	{
		"deltaTime": 0,
		"channel": 2,
		"type": "channel",
		"noteNumber": 59,
		"velocity": 127,
		"subtype": "noteOn",
		"time": 53160,
		"track": 4
	},
	{
		"deltaTime": 0,
		"channel": 2,
		"type": "channel",
		"noteNumber": 63,
		"velocity": 127,
		"subtype": "noteOn",
		"time": 53160,
		"track": 4
	},
	{
		"deltaTime": 0,
		"channel": 2,
		"type": "channel",
		"noteNumber": 68,
		"velocity": 127,
		"subtype": "noteOn",
		"time": 53160,
		"track": 4
	},
	{
		"deltaTime": 60,
		"channel": 9,
		"type": "channel",
		"noteNumber": 42,
		"velocity": 127,
		"subtype": "noteOn",
		"time": 53160,
		"track": 5
	},
	{
		"deltaTime": 60,
		"channel": 9,
		"type": "channel",
		"subtype": "noteOff",
		"noteNumber": 42,
		"velocity": 0,
		"time": 53220,
		"track": 5
	},
	{
		"deltaTime": 0,
		"channel": 9,
		"type": "channel",
		"noteNumber": 42,
		"velocity": 127,
		"subtype": "noteOn",
		"time": 53280,
		"track": 5
	},
	{
		"deltaTime": 0,
		"channel": 9,
		"type": "channel",
		"noteNumber": 40,
		"velocity": 127,
		"subtype": "noteOn",
		"time": 53280,
		"track": 5
	},
	{
		"deltaTime": 60,
		"channel": 9,
		"type": "channel",
		"noteNumber": 38,
		"velocity": 127,
		"subtype": "noteOn",
		"time": 53280,
		"track": 5
	},
	{
		"deltaTime": 0,
		"channel": 9,
		"type": "channel",
		"subtype": "noteOff",
		"noteNumber": 38,
		"velocity": 0,
		"time": 53340,
		"track": 5
	},
	{
		"deltaTime": 0,
		"channel": 9,
		"type": "channel",
		"subtype": "noteOff",
		"noteNumber": 40,
		"velocity": 0,
		"time": 53340,
		"track": 5
	},
	{
		"deltaTime": 60,
		"channel": 9,
		"type": "channel",
		"subtype": "noteOff",
		"noteNumber": 42,
		"velocity": 0,
		"time": 53340,
		"track": 5
	},
	{
		"deltaTime": 0,
		"channel": 2,
		"type": "channel",
		"subtype": "noteOff",
		"noteNumber": 68,
		"velocity": 0,
		"time": 53400,
		"track": 4
	},
	{
		"deltaTime": 0,
		"channel": 2,
		"type": "channel",
		"subtype": "noteOff",
		"noteNumber": 63,
		"velocity": 0,
		"time": 53400,
		"track": 4
	},
	{
		"deltaTime": 0,
		"channel": 2,
		"type": "channel",
		"subtype": "noteOff",
		"noteNumber": 59,
		"velocity": 0,
		"time": 53400,
		"track": 4
	},
	{
		"deltaTime": 0,
		"channel": 2,
		"type": "channel",
		"noteNumber": 59,
		"velocity": 127,
		"subtype": "noteOn",
		"time": 53400,
		"track": 4
	},
	{
		"deltaTime": 0,
		"channel": 2,
		"type": "channel",
		"noteNumber": 63,
		"velocity": 127,
		"subtype": "noteOn",
		"time": 53400,
		"track": 4
	},
	{
		"deltaTime": 0,
		"channel": 2,
		"type": "channel",
		"noteNumber": 68,
		"velocity": 127,
		"subtype": "noteOn",
		"time": 53400,
		"track": 4
	},
	{
		"deltaTime": 60,
		"channel": 9,
		"type": "channel",
		"noteNumber": 42,
		"velocity": 127,
		"subtype": "noteOn",
		"time": 53400,
		"track": 5
	},
	{
		"deltaTime": 60,
		"channel": 9,
		"type": "channel",
		"subtype": "noteOff",
		"noteNumber": 42,
		"velocity": 0,
		"time": 53460,
		"track": 5
	},
	{
		"deltaTime": 60,
		"channel": 9,
		"type": "channel",
		"noteNumber": 42,
		"velocity": 127,
		"subtype": "noteOn",
		"time": 53520,
		"track": 5
	},
	{
		"deltaTime": 60,
		"channel": 9,
		"type": "channel",
		"subtype": "noteOff",
		"noteNumber": 42,
		"velocity": 0,
		"time": 53580,
		"track": 5
	},
	{
		"deltaTime": 60,
		"channel": 9,
		"type": "channel",
		"noteNumber": 42,
		"velocity": 127,
		"subtype": "noteOn",
		"time": 53640,
		"track": 5
	},
	{
		"deltaTime": 60,
		"channel": 9,
		"type": "channel",
		"subtype": "noteOff",
		"noteNumber": 42,
		"velocity": 0,
		"time": 53700,
		"track": 5
	},
	{
		"deltaTime": 0,
		"channel": 0,
		"type": "channel",
		"subtype": "noteOff",
		"noteNumber": 40,
		"velocity": 0,
		"time": 53760,
		"track": 2
	},
	{
		"deltaTime": 0,
		"channel": 0,
		"type": "channel",
		"noteNumber": 42,
		"velocity": 127,
		"subtype": "noteOn",
		"time": 53760,
		"track": 2
	},
	{
		"deltaTime": 0,
		"channel": 2,
		"type": "channel",
		"subtype": "noteOff",
		"noteNumber": 68,
		"velocity": 0,
		"time": 53760,
		"track": 4
	},
	{
		"deltaTime": 0,
		"channel": 2,
		"type": "channel",
		"subtype": "noteOff",
		"noteNumber": 63,
		"velocity": 0,
		"time": 53760,
		"track": 4
	},
	{
		"deltaTime": 0,
		"channel": 2,
		"type": "channel",
		"subtype": "noteOff",
		"noteNumber": 59,
		"velocity": 0,
		"time": 53760,
		"track": 4
	},
	{
		"deltaTime": 0,
		"channel": 2,
		"type": "channel",
		"noteNumber": 42,
		"velocity": 127,
		"subtype": "noteOn",
		"time": 53760,
		"track": 4
	},
	{
		"deltaTime": 0,
		"channel": 9,
		"type": "channel",
		"noteNumber": 42,
		"velocity": 127,
		"subtype": "noteOn",
		"time": 53760,
		"track": 5
	},
	{
		"deltaTime": 0,
		"channel": 9,
		"type": "channel",
		"noteNumber": 35,
		"velocity": 127,
		"subtype": "noteOn",
		"time": 53760,
		"track": 5
	},
	{
		"deltaTime": 60,
		"channel": 9,
		"type": "channel",
		"noteNumber": 36,
		"velocity": 127,
		"subtype": "noteOn",
		"time": 53760,
		"track": 5
	},
	{
		"deltaTime": 0,
		"channel": 9,
		"type": "channel",
		"subtype": "noteOff",
		"noteNumber": 36,
		"velocity": 0,
		"time": 53820,
		"track": 5
	},
	{
		"deltaTime": 0,
		"channel": 9,
		"type": "channel",
		"subtype": "noteOff",
		"noteNumber": 35,
		"velocity": 0,
		"time": 53820,
		"track": 5
	},
	{
		"deltaTime": 60,
		"channel": 9,
		"type": "channel",
		"subtype": "noteOff",
		"noteNumber": 42,
		"velocity": 0,
		"time": 53820,
		"track": 5
	},
	{
		"deltaTime": 60,
		"channel": 9,
		"type": "channel",
		"noteNumber": 42,
		"velocity": 127,
		"subtype": "noteOn",
		"time": 53880,
		"track": 5
	},
	{
		"deltaTime": 60,
		"channel": 9,
		"type": "channel",
		"subtype": "noteOff",
		"noteNumber": 42,
		"velocity": 0,
		"time": 53940,
		"track": 5
	},
	{
		"deltaTime": 0,
		"channel": 9,
		"type": "channel",
		"noteNumber": 42,
		"velocity": 127,
		"subtype": "noteOn",
		"time": 54000,
		"track": 5
	},
	{
		"deltaTime": 0,
		"channel": 9,
		"type": "channel",
		"noteNumber": 36,
		"velocity": 127,
		"subtype": "noteOn",
		"time": 54000,
		"track": 5
	},
	{
		"deltaTime": 60,
		"channel": 9,
		"type": "channel",
		"noteNumber": 35,
		"velocity": 127,
		"subtype": "noteOn",
		"time": 54000,
		"track": 5
	},
	{
		"deltaTime": 0,
		"channel": 9,
		"type": "channel",
		"subtype": "noteOff",
		"noteNumber": 35,
		"velocity": 0,
		"time": 54060,
		"track": 5
	},
	{
		"deltaTime": 0,
		"channel": 9,
		"type": "channel",
		"subtype": "noteOff",
		"noteNumber": 36,
		"velocity": 0,
		"time": 54060,
		"track": 5
	},
	{
		"deltaTime": 60,
		"channel": 9,
		"type": "channel",
		"subtype": "noteOff",
		"noteNumber": 42,
		"velocity": 0,
		"time": 54060,
		"track": 5
	},
	{
		"deltaTime": 0,
		"channel": 2,
		"type": "channel",
		"subtype": "noteOff",
		"noteNumber": 42,
		"velocity": 0,
		"time": 54120,
		"track": 4
	},
	{
		"deltaTime": 0,
		"channel": 2,
		"type": "channel",
		"noteNumber": 61,
		"velocity": 127,
		"subtype": "noteOn",
		"time": 54120,
		"track": 4
	},
	{
		"deltaTime": 0,
		"channel": 2,
		"type": "channel",
		"noteNumber": 66,
		"velocity": 127,
		"subtype": "noteOn",
		"time": 54120,
		"track": 4
	},
	{
		"deltaTime": 0,
		"channel": 2,
		"type": "channel",
		"noteNumber": 70,
		"velocity": 127,
		"subtype": "noteOn",
		"time": 54120,
		"track": 4
	},
	{
		"deltaTime": 60,
		"channel": 9,
		"type": "channel",
		"noteNumber": 42,
		"velocity": 127,
		"subtype": "noteOn",
		"time": 54120,
		"track": 5
	},
	{
		"deltaTime": 60,
		"channel": 9,
		"type": "channel",
		"subtype": "noteOff",
		"noteNumber": 42,
		"velocity": 0,
		"time": 54180,
		"track": 5
	},
	{
		"deltaTime": 0,
		"channel": 9,
		"type": "channel",
		"noteNumber": 42,
		"velocity": 127,
		"subtype": "noteOn",
		"time": 54240,
		"track": 5
	},
	{
		"deltaTime": 0,
		"channel": 9,
		"type": "channel",
		"noteNumber": 38,
		"velocity": 127,
		"subtype": "noteOn",
		"time": 54240,
		"track": 5
	},
	{
		"deltaTime": 60,
		"channel": 9,
		"type": "channel",
		"noteNumber": 40,
		"velocity": 127,
		"subtype": "noteOn",
		"time": 54240,
		"track": 5
	},
	{
		"deltaTime": 0,
		"channel": 9,
		"type": "channel",
		"subtype": "noteOff",
		"noteNumber": 40,
		"velocity": 0,
		"time": 54300,
		"track": 5
	},
	{
		"deltaTime": 0,
		"channel": 9,
		"type": "channel",
		"subtype": "noteOff",
		"noteNumber": 38,
		"velocity": 0,
		"time": 54300,
		"track": 5
	},
	{
		"deltaTime": 60,
		"channel": 9,
		"type": "channel",
		"subtype": "noteOff",
		"noteNumber": 42,
		"velocity": 0,
		"time": 54300,
		"track": 5
	},
	{
		"deltaTime": 0,
		"channel": 2,
		"type": "channel",
		"subtype": "noteOff",
		"noteNumber": 70,
		"velocity": 0,
		"time": 54360,
		"track": 4
	},
	{
		"deltaTime": 0,
		"channel": 2,
		"type": "channel",
		"subtype": "noteOff",
		"noteNumber": 66,
		"velocity": 0,
		"time": 54360,
		"track": 4
	},
	{
		"deltaTime": 0,
		"channel": 2,
		"type": "channel",
		"subtype": "noteOff",
		"noteNumber": 61,
		"velocity": 0,
		"time": 54360,
		"track": 4
	},
	{
		"deltaTime": 0,
		"channel": 2,
		"type": "channel",
		"noteNumber": 61,
		"velocity": 127,
		"subtype": "noteOn",
		"time": 54360,
		"track": 4
	},
	{
		"deltaTime": 0,
		"channel": 2,
		"type": "channel",
		"noteNumber": 66,
		"velocity": 127,
		"subtype": "noteOn",
		"time": 54360,
		"track": 4
	},
	{
		"deltaTime": 0,
		"channel": 2,
		"type": "channel",
		"noteNumber": 70,
		"velocity": 127,
		"subtype": "noteOn",
		"time": 54360,
		"track": 4
	},
	{
		"deltaTime": 60,
		"channel": 9,
		"type": "channel",
		"noteNumber": 42,
		"velocity": 127,
		"subtype": "noteOn",
		"time": 54360,
		"track": 5
	},
	{
		"deltaTime": 60,
		"channel": 9,
		"type": "channel",
		"subtype": "noteOff",
		"noteNumber": 42,
		"velocity": 0,
		"time": 54420,
		"track": 5
	},
	{
		"deltaTime": 60,
		"channel": 9,
		"type": "channel",
		"noteNumber": 42,
		"velocity": 127,
		"subtype": "noteOn",
		"time": 54480,
		"track": 5
	},
	{
		"deltaTime": 60,
		"channel": 9,
		"type": "channel",
		"subtype": "noteOff",
		"noteNumber": 42,
		"velocity": 0,
		"time": 54540,
		"track": 5
	},
	{
		"deltaTime": 0,
		"channel": 9,
		"type": "channel",
		"noteNumber": 42,
		"velocity": 127,
		"subtype": "noteOn",
		"time": 54600,
		"track": 5
	},
	{
		"deltaTime": 0,
		"channel": 9,
		"type": "channel",
		"noteNumber": 36,
		"velocity": 127,
		"subtype": "noteOn",
		"time": 54600,
		"track": 5
	},
	{
		"deltaTime": 60,
		"channel": 9,
		"type": "channel",
		"noteNumber": 35,
		"velocity": 127,
		"subtype": "noteOn",
		"time": 54600,
		"track": 5
	},
	{
		"deltaTime": 0,
		"channel": 9,
		"type": "channel",
		"subtype": "noteOff",
		"noteNumber": 35,
		"velocity": 0,
		"time": 54660,
		"track": 5
	},
	{
		"deltaTime": 0,
		"channel": 9,
		"type": "channel",
		"subtype": "noteOff",
		"noteNumber": 36,
		"velocity": 0,
		"time": 54660,
		"track": 5
	},
	{
		"deltaTime": 60,
		"channel": 9,
		"type": "channel",
		"subtype": "noteOff",
		"noteNumber": 42,
		"velocity": 0,
		"time": 54660,
		"track": 5
	},
	{
		"deltaTime": 0,
		"channel": 0,
		"type": "channel",
		"subtype": "noteOff",
		"noteNumber": 42,
		"velocity": 0,
		"time": 54720,
		"track": 2
	},
	{
		"deltaTime": 0,
		"channel": 0,
		"type": "channel",
		"noteNumber": 35,
		"velocity": 127,
		"subtype": "noteOn",
		"time": 54720,
		"track": 2
	},
	{
		"deltaTime": 0,
		"channel": 2,
		"type": "channel",
		"subtype": "noteOff",
		"noteNumber": 70,
		"velocity": 0,
		"time": 54720,
		"track": 4
	},
	{
		"deltaTime": 0,
		"channel": 2,
		"type": "channel",
		"subtype": "noteOff",
		"noteNumber": 66,
		"velocity": 0,
		"time": 54720,
		"track": 4
	},
	{
		"deltaTime": 0,
		"channel": 2,
		"type": "channel",
		"subtype": "noteOff",
		"noteNumber": 61,
		"velocity": 0,
		"time": 54720,
		"track": 4
	},
	{
		"deltaTime": 0,
		"channel": 2,
		"type": "channel",
		"noteNumber": 47,
		"velocity": 127,
		"subtype": "noteOn",
		"time": 54720,
		"track": 4
	},
	{
		"deltaTime": 60,
		"channel": 9,
		"type": "channel",
		"noteNumber": 42,
		"velocity": 127,
		"subtype": "noteOn",
		"time": 54720,
		"track": 5
	},
	{
		"deltaTime": 60,
		"channel": 9,
		"type": "channel",
		"subtype": "noteOff",
		"noteNumber": 42,
		"velocity": 0,
		"time": 54780,
		"track": 5
	},
	{
		"deltaTime": 60,
		"channel": 9,
		"type": "channel",
		"noteNumber": 42,
		"velocity": 127,
		"subtype": "noteOn",
		"time": 54840,
		"track": 5
	},
	{
		"deltaTime": 60,
		"channel": 9,
		"type": "channel",
		"subtype": "noteOff",
		"noteNumber": 42,
		"velocity": 0,
		"time": 54900,
		"track": 5
	},
	{
		"deltaTime": 0,
		"channel": 9,
		"type": "channel",
		"noteNumber": 42,
		"velocity": 127,
		"subtype": "noteOn",
		"time": 54960,
		"track": 5
	},
	{
		"deltaTime": 0,
		"channel": 9,
		"type": "channel",
		"noteNumber": 36,
		"velocity": 127,
		"subtype": "noteOn",
		"time": 54960,
		"track": 5
	},
	{
		"deltaTime": 60,
		"channel": 9,
		"type": "channel",
		"noteNumber": 35,
		"velocity": 127,
		"subtype": "noteOn",
		"time": 54960,
		"track": 5
	},
	{
		"deltaTime": 0,
		"channel": 9,
		"type": "channel",
		"subtype": "noteOff",
		"noteNumber": 35,
		"velocity": 0,
		"time": 55020,
		"track": 5
	},
	{
		"deltaTime": 0,
		"channel": 9,
		"type": "channel",
		"subtype": "noteOff",
		"noteNumber": 36,
		"velocity": 0,
		"time": 55020,
		"track": 5
	},
	{
		"deltaTime": 60,
		"channel": 9,
		"type": "channel",
		"subtype": "noteOff",
		"noteNumber": 42,
		"velocity": 0,
		"time": 55020,
		"track": 5
	},
	{
		"deltaTime": 0,
		"channel": 2,
		"type": "channel",
		"subtype": "noteOff",
		"noteNumber": 47,
		"velocity": 0,
		"time": 55080,
		"track": 4
	},
	{
		"deltaTime": 0,
		"channel": 2,
		"type": "channel",
		"noteNumber": 61,
		"velocity": 127,
		"subtype": "noteOn",
		"time": 55080,
		"track": 4
	},
	{
		"deltaTime": 0,
		"channel": 2,
		"type": "channel",
		"noteNumber": 66,
		"velocity": 127,
		"subtype": "noteOn",
		"time": 55080,
		"track": 4
	},
	{
		"deltaTime": 0,
		"channel": 2,
		"type": "channel",
		"noteNumber": 70,
		"velocity": 127,
		"subtype": "noteOn",
		"time": 55080,
		"track": 4
	},
	{
		"deltaTime": 60,
		"channel": 9,
		"type": "channel",
		"noteNumber": 42,
		"velocity": 127,
		"subtype": "noteOn",
		"time": 55080,
		"track": 5
	},
	{
		"deltaTime": 60,
		"channel": 9,
		"type": "channel",
		"subtype": "noteOff",
		"noteNumber": 42,
		"velocity": 0,
		"time": 55140,
		"track": 5
	},
	{
		"deltaTime": 0,
		"channel": 0,
		"type": "channel",
		"subtype": "noteOff",
		"noteNumber": 35,
		"velocity": 0,
		"time": 55200,
		"track": 2
	},
	{
		"deltaTime": 0,
		"channel": 0,
		"type": "channel",
		"noteNumber": 34,
		"velocity": 127,
		"subtype": "noteOn",
		"time": 55200,
		"track": 2
	},
	{
		"deltaTime": 0,
		"channel": 9,
		"type": "channel",
		"noteNumber": 42,
		"velocity": 127,
		"subtype": "noteOn",
		"time": 55200,
		"track": 5
	},
	{
		"deltaTime": 0,
		"channel": 9,
		"type": "channel",
		"noteNumber": 40,
		"velocity": 127,
		"subtype": "noteOn",
		"time": 55200,
		"track": 5
	},
	{
		"deltaTime": 60,
		"channel": 9,
		"type": "channel",
		"noteNumber": 38,
		"velocity": 127,
		"subtype": "noteOn",
		"time": 55200,
		"track": 5
	},
	{
		"deltaTime": 0,
		"channel": 9,
		"type": "channel",
		"subtype": "noteOff",
		"noteNumber": 38,
		"velocity": 0,
		"time": 55260,
		"track": 5
	},
	{
		"deltaTime": 0,
		"channel": 9,
		"type": "channel",
		"subtype": "noteOff",
		"noteNumber": 40,
		"velocity": 0,
		"time": 55260,
		"track": 5
	},
	{
		"deltaTime": 60,
		"channel": 9,
		"type": "channel",
		"subtype": "noteOff",
		"noteNumber": 42,
		"velocity": 0,
		"time": 55260,
		"track": 5
	},
	{
		"deltaTime": 0,
		"channel": 2,
		"type": "channel",
		"subtype": "noteOff",
		"noteNumber": 70,
		"velocity": 0,
		"time": 55320,
		"track": 4
	},
	{
		"deltaTime": 0,
		"channel": 2,
		"type": "channel",
		"subtype": "noteOff",
		"noteNumber": 66,
		"velocity": 0,
		"time": 55320,
		"track": 4
	},
	{
		"deltaTime": 0,
		"channel": 2,
		"type": "channel",
		"subtype": "noteOff",
		"noteNumber": 61,
		"velocity": 0,
		"time": 55320,
		"track": 4
	},
	{
		"deltaTime": 0,
		"channel": 2,
		"type": "channel",
		"noteNumber": 61,
		"velocity": 127,
		"subtype": "noteOn",
		"time": 55320,
		"track": 4
	},
	{
		"deltaTime": 0,
		"channel": 2,
		"type": "channel",
		"noteNumber": 66,
		"velocity": 127,
		"subtype": "noteOn",
		"time": 55320,
		"track": 4
	},
	{
		"deltaTime": 0,
		"channel": 2,
		"type": "channel",
		"noteNumber": 71,
		"velocity": 127,
		"subtype": "noteOn",
		"time": 55320,
		"track": 4
	},
	{
		"deltaTime": 60,
		"channel": 9,
		"type": "channel",
		"noteNumber": 42,
		"velocity": 127,
		"subtype": "noteOn",
		"time": 55320,
		"track": 5
	},
	{
		"deltaTime": 60,
		"channel": 9,
		"type": "channel",
		"subtype": "noteOff",
		"noteNumber": 42,
		"velocity": 0,
		"time": 55380,
		"track": 5
	},
	{
		"deltaTime": 60,
		"channel": 9,
		"type": "channel",
		"noteNumber": 42,
		"velocity": 127,
		"subtype": "noteOn",
		"time": 55440,
		"track": 5
	},
	{
		"deltaTime": 60,
		"channel": 9,
		"type": "channel",
		"subtype": "noteOff",
		"noteNumber": 42,
		"velocity": 0,
		"time": 55500,
		"track": 5
	},
	{
		"deltaTime": 60,
		"channel": 9,
		"type": "channel",
		"noteNumber": 42,
		"velocity": 127,
		"subtype": "noteOn",
		"time": 55560,
		"track": 5
	},
	{
		"deltaTime": 60,
		"channel": 9,
		"type": "channel",
		"subtype": "noteOff",
		"noteNumber": 42,
		"velocity": 0,
		"time": 55620,
		"track": 5
	},
	{
		"deltaTime": 0,
		"channel": 0,
		"type": "channel",
		"subtype": "noteOff",
		"noteNumber": 34,
		"velocity": 0,
		"time": 55680,
		"track": 2
	},
	{
		"deltaTime": 0,
		"channel": 0,
		"type": "channel",
		"noteNumber": 32,
		"velocity": 127,
		"subtype": "noteOn",
		"time": 55680,
		"track": 2
	},
	{
		"deltaTime": 0,
		"channel": 2,
		"type": "channel",
		"subtype": "noteOff",
		"noteNumber": 71,
		"velocity": 0,
		"time": 55680,
		"track": 4
	},
	{
		"deltaTime": 0,
		"channel": 2,
		"type": "channel",
		"subtype": "noteOff",
		"noteNumber": 66,
		"velocity": 0,
		"time": 55680,
		"track": 4
	},
	{
		"deltaTime": 0,
		"channel": 2,
		"type": "channel",
		"subtype": "noteOff",
		"noteNumber": 61,
		"velocity": 0,
		"time": 55680,
		"track": 4
	},
	{
		"deltaTime": 0,
		"channel": 2,
		"type": "channel",
		"noteNumber": 44,
		"velocity": 127,
		"subtype": "noteOn",
		"time": 55680,
		"track": 4
	},
	{
		"deltaTime": 0,
		"channel": 9,
		"type": "channel",
		"noteNumber": 42,
		"velocity": 127,
		"subtype": "noteOn",
		"time": 55680,
		"track": 5
	},
	{
		"deltaTime": 0,
		"channel": 9,
		"type": "channel",
		"noteNumber": 35,
		"velocity": 127,
		"subtype": "noteOn",
		"time": 55680,
		"track": 5
	},
	{
		"deltaTime": 60,
		"channel": 9,
		"type": "channel",
		"noteNumber": 36,
		"velocity": 127,
		"subtype": "noteOn",
		"time": 55680,
		"track": 5
	},
	{
		"deltaTime": 0,
		"channel": 9,
		"type": "channel",
		"subtype": "noteOff",
		"noteNumber": 36,
		"velocity": 0,
		"time": 55740,
		"track": 5
	},
	{
		"deltaTime": 0,
		"channel": 9,
		"type": "channel",
		"subtype": "noteOff",
		"noteNumber": 35,
		"velocity": 0,
		"time": 55740,
		"track": 5
	},
	{
		"deltaTime": 60,
		"channel": 9,
		"type": "channel",
		"subtype": "noteOff",
		"noteNumber": 42,
		"velocity": 0,
		"time": 55740,
		"track": 5
	},
	{
		"deltaTime": 60,
		"channel": 9,
		"type": "channel",
		"noteNumber": 42,
		"velocity": 127,
		"subtype": "noteOn",
		"time": 55800,
		"track": 5
	},
	{
		"deltaTime": 60,
		"channel": 9,
		"type": "channel",
		"subtype": "noteOff",
		"noteNumber": 42,
		"velocity": 0,
		"time": 55860,
		"track": 5
	},
	{
		"deltaTime": 0,
		"channel": 9,
		"type": "channel",
		"noteNumber": 42,
		"velocity": 127,
		"subtype": "noteOn",
		"time": 55920,
		"track": 5
	},
	{
		"deltaTime": 0,
		"channel": 9,
		"type": "channel",
		"noteNumber": 36,
		"velocity": 127,
		"subtype": "noteOn",
		"time": 55920,
		"track": 5
	},
	{
		"deltaTime": 60,
		"channel": 9,
		"type": "channel",
		"noteNumber": 35,
		"velocity": 127,
		"subtype": "noteOn",
		"time": 55920,
		"track": 5
	},
	{
		"deltaTime": 0,
		"channel": 9,
		"type": "channel",
		"subtype": "noteOff",
		"noteNumber": 35,
		"velocity": 0,
		"time": 55980,
		"track": 5
	},
	{
		"deltaTime": 0,
		"channel": 9,
		"type": "channel",
		"subtype": "noteOff",
		"noteNumber": 36,
		"velocity": 0,
		"time": 55980,
		"track": 5
	},
	{
		"deltaTime": 60,
		"channel": 9,
		"type": "channel",
		"subtype": "noteOff",
		"noteNumber": 42,
		"velocity": 0,
		"time": 55980,
		"track": 5
	},
	{
		"deltaTime": 0,
		"channel": 2,
		"type": "channel",
		"subtype": "noteOff",
		"noteNumber": 44,
		"velocity": 0,
		"time": 56040,
		"track": 4
	},
	{
		"deltaTime": 0,
		"channel": 2,
		"type": "channel",
		"noteNumber": 59,
		"velocity": 127,
		"subtype": "noteOn",
		"time": 56040,
		"track": 4
	},
	{
		"deltaTime": 0,
		"channel": 2,
		"type": "channel",
		"noteNumber": 63,
		"velocity": 127,
		"subtype": "noteOn",
		"time": 56040,
		"track": 4
	},
	{
		"deltaTime": 0,
		"channel": 2,
		"type": "channel",
		"noteNumber": 68,
		"velocity": 127,
		"subtype": "noteOn",
		"time": 56040,
		"track": 4
	},
	{
		"deltaTime": 60,
		"channel": 9,
		"type": "channel",
		"noteNumber": 42,
		"velocity": 127,
		"subtype": "noteOn",
		"time": 56040,
		"track": 5
	},
	{
		"deltaTime": 60,
		"channel": 9,
		"type": "channel",
		"subtype": "noteOff",
		"noteNumber": 42,
		"velocity": 0,
		"time": 56100,
		"track": 5
	},
	{
		"deltaTime": 0,
		"channel": 9,
		"type": "channel",
		"noteNumber": 42,
		"velocity": 127,
		"subtype": "noteOn",
		"time": 56160,
		"track": 5
	},
	{
		"deltaTime": 0,
		"channel": 9,
		"type": "channel",
		"noteNumber": 38,
		"velocity": 127,
		"subtype": "noteOn",
		"time": 56160,
		"track": 5
	},
	{
		"deltaTime": 60,
		"channel": 9,
		"type": "channel",
		"noteNumber": 40,
		"velocity": 127,
		"subtype": "noteOn",
		"time": 56160,
		"track": 5
	},
	{
		"deltaTime": 0,
		"channel": 9,
		"type": "channel",
		"subtype": "noteOff",
		"noteNumber": 40,
		"velocity": 0,
		"time": 56220,
		"track": 5
	},
	{
		"deltaTime": 0,
		"channel": 9,
		"type": "channel",
		"subtype": "noteOff",
		"noteNumber": 38,
		"velocity": 0,
		"time": 56220,
		"track": 5
	},
	{
		"deltaTime": 60,
		"channel": 9,
		"type": "channel",
		"subtype": "noteOff",
		"noteNumber": 42,
		"velocity": 0,
		"time": 56220,
		"track": 5
	},
	{
		"deltaTime": 0,
		"channel": 2,
		"type": "channel",
		"subtype": "noteOff",
		"noteNumber": 68,
		"velocity": 0,
		"time": 56280,
		"track": 4
	},
	{
		"deltaTime": 0,
		"channel": 2,
		"type": "channel",
		"subtype": "noteOff",
		"noteNumber": 63,
		"velocity": 0,
		"time": 56280,
		"track": 4
	},
	{
		"deltaTime": 0,
		"channel": 2,
		"type": "channel",
		"subtype": "noteOff",
		"noteNumber": 59,
		"velocity": 0,
		"time": 56280,
		"track": 4
	},
	{
		"deltaTime": 0,
		"channel": 2,
		"type": "channel",
		"noteNumber": 59,
		"velocity": 127,
		"subtype": "noteOn",
		"time": 56280,
		"track": 4
	},
	{
		"deltaTime": 0,
		"channel": 2,
		"type": "channel",
		"noteNumber": 63,
		"velocity": 127,
		"subtype": "noteOn",
		"time": 56280,
		"track": 4
	},
	{
		"deltaTime": 0,
		"channel": 2,
		"type": "channel",
		"noteNumber": 68,
		"velocity": 127,
		"subtype": "noteOn",
		"time": 56280,
		"track": 4
	},
	{
		"deltaTime": 60,
		"channel": 9,
		"type": "channel",
		"noteNumber": 42,
		"velocity": 127,
		"subtype": "noteOn",
		"time": 56280,
		"track": 5
	},
	{
		"deltaTime": 60,
		"channel": 9,
		"type": "channel",
		"subtype": "noteOff",
		"noteNumber": 42,
		"velocity": 0,
		"time": 56340,
		"track": 5
	},
	{
		"deltaTime": 60,
		"channel": 9,
		"type": "channel",
		"noteNumber": 42,
		"velocity": 127,
		"subtype": "noteOn",
		"time": 56400,
		"track": 5
	},
	{
		"deltaTime": 60,
		"channel": 9,
		"type": "channel",
		"subtype": "noteOff",
		"noteNumber": 42,
		"velocity": 0,
		"time": 56460,
		"track": 5
	},
	{
		"deltaTime": 0,
		"channel": 9,
		"type": "channel",
		"noteNumber": 42,
		"velocity": 127,
		"subtype": "noteOn",
		"time": 56520,
		"track": 5
	},
	{
		"deltaTime": 0,
		"channel": 9,
		"type": "channel",
		"noteNumber": 36,
		"velocity": 127,
		"subtype": "noteOn",
		"time": 56520,
		"track": 5
	},
	{
		"deltaTime": 60,
		"channel": 9,
		"type": "channel",
		"noteNumber": 35,
		"velocity": 127,
		"subtype": "noteOn",
		"time": 56520,
		"track": 5
	},
	{
		"deltaTime": 0,
		"channel": 9,
		"type": "channel",
		"subtype": "noteOff",
		"noteNumber": 35,
		"velocity": 0,
		"time": 56580,
		"track": 5
	},
	{
		"deltaTime": 0,
		"channel": 9,
		"type": "channel",
		"subtype": "noteOff",
		"noteNumber": 36,
		"velocity": 0,
		"time": 56580,
		"track": 5
	},
	{
		"deltaTime": 60,
		"channel": 9,
		"type": "channel",
		"subtype": "noteOff",
		"noteNumber": 42,
		"velocity": 0,
		"time": 56580,
		"track": 5
	},
	{
		"deltaTime": 0,
		"channel": 0,
		"type": "channel",
		"subtype": "noteOff",
		"noteNumber": 32,
		"velocity": 0,
		"time": 56640,
		"track": 2
	},
	{
		"deltaTime": 0,
		"channel": 0,
		"type": "channel",
		"noteNumber": 40,
		"velocity": 127,
		"subtype": "noteOn",
		"time": 56640,
		"track": 2
	},
	{
		"deltaTime": 0,
		"channel": 2,
		"type": "channel",
		"subtype": "noteOff",
		"noteNumber": 68,
		"velocity": 0,
		"time": 56640,
		"track": 4
	},
	{
		"deltaTime": 0,
		"channel": 2,
		"type": "channel",
		"subtype": "noteOff",
		"noteNumber": 63,
		"velocity": 0,
		"time": 56640,
		"track": 4
	},
	{
		"deltaTime": 0,
		"channel": 2,
		"type": "channel",
		"subtype": "noteOff",
		"noteNumber": 59,
		"velocity": 0,
		"time": 56640,
		"track": 4
	},
	{
		"deltaTime": 0,
		"channel": 2,
		"type": "channel",
		"noteNumber": 40,
		"velocity": 127,
		"subtype": "noteOn",
		"time": 56640,
		"track": 4
	},
	{
		"deltaTime": 60,
		"channel": 9,
		"type": "channel",
		"noteNumber": 42,
		"velocity": 127,
		"subtype": "noteOn",
		"time": 56640,
		"track": 5
	},
	{
		"deltaTime": 60,
		"channel": 9,
		"type": "channel",
		"subtype": "noteOff",
		"noteNumber": 42,
		"velocity": 0,
		"time": 56700,
		"track": 5
	},
	{
		"deltaTime": 60,
		"channel": 9,
		"type": "channel",
		"noteNumber": 42,
		"velocity": 127,
		"subtype": "noteOn",
		"time": 56760,
		"track": 5
	},
	{
		"deltaTime": 60,
		"channel": 9,
		"type": "channel",
		"subtype": "noteOff",
		"noteNumber": 42,
		"velocity": 0,
		"time": 56820,
		"track": 5
	},
	{
		"deltaTime": 0,
		"channel": 9,
		"type": "channel",
		"noteNumber": 42,
		"velocity": 127,
		"subtype": "noteOn",
		"time": 56880,
		"track": 5
	},
	{
		"deltaTime": 0,
		"channel": 9,
		"type": "channel",
		"noteNumber": 36,
		"velocity": 127,
		"subtype": "noteOn",
		"time": 56880,
		"track": 5
	},
	{
		"deltaTime": 60,
		"channel": 9,
		"type": "channel",
		"noteNumber": 35,
		"velocity": 127,
		"subtype": "noteOn",
		"time": 56880,
		"track": 5
	},
	{
		"deltaTime": 0,
		"channel": 9,
		"type": "channel",
		"subtype": "noteOff",
		"noteNumber": 35,
		"velocity": 0,
		"time": 56940,
		"track": 5
	},
	{
		"deltaTime": 0,
		"channel": 9,
		"type": "channel",
		"subtype": "noteOff",
		"noteNumber": 36,
		"velocity": 0,
		"time": 56940,
		"track": 5
	},
	{
		"deltaTime": 60,
		"channel": 9,
		"type": "channel",
		"subtype": "noteOff",
		"noteNumber": 42,
		"velocity": 0,
		"time": 56940,
		"track": 5
	},
	{
		"deltaTime": 0,
		"channel": 2,
		"type": "channel",
		"subtype": "noteOff",
		"noteNumber": 40,
		"velocity": 0,
		"time": 57000,
		"track": 4
	},
	{
		"deltaTime": 0,
		"channel": 2,
		"type": "channel",
		"noteNumber": 59,
		"velocity": 127,
		"subtype": "noteOn",
		"time": 57000,
		"track": 4
	},
	{
		"deltaTime": 0,
		"channel": 2,
		"type": "channel",
		"noteNumber": 63,
		"velocity": 127,
		"subtype": "noteOn",
		"time": 57000,
		"track": 4
	},
	{
		"deltaTime": 0,
		"channel": 2,
		"type": "channel",
		"noteNumber": 68,
		"velocity": 127,
		"subtype": "noteOn",
		"time": 57000,
		"track": 4
	},
	{
		"deltaTime": 60,
		"channel": 9,
		"type": "channel",
		"noteNumber": 42,
		"velocity": 127,
		"subtype": "noteOn",
		"time": 57000,
		"track": 5
	},
	{
		"deltaTime": 60,
		"channel": 9,
		"type": "channel",
		"subtype": "noteOff",
		"noteNumber": 42,
		"velocity": 0,
		"time": 57060,
		"track": 5
	},
	{
		"deltaTime": 0,
		"channel": 9,
		"type": "channel",
		"noteNumber": 42,
		"velocity": 127,
		"subtype": "noteOn",
		"time": 57120,
		"track": 5
	},
	{
		"deltaTime": 0,
		"channel": 9,
		"type": "channel",
		"noteNumber": 40,
		"velocity": 127,
		"subtype": "noteOn",
		"time": 57120,
		"track": 5
	},
	{
		"deltaTime": 60,
		"channel": 9,
		"type": "channel",
		"noteNumber": 38,
		"velocity": 127,
		"subtype": "noteOn",
		"time": 57120,
		"track": 5
	},
	{
		"deltaTime": 0,
		"channel": 9,
		"type": "channel",
		"subtype": "noteOff",
		"noteNumber": 38,
		"velocity": 0,
		"time": 57180,
		"track": 5
	},
	{
		"deltaTime": 0,
		"channel": 9,
		"type": "channel",
		"subtype": "noteOff",
		"noteNumber": 40,
		"velocity": 0,
		"time": 57180,
		"track": 5
	},
	{
		"deltaTime": 60,
		"channel": 9,
		"type": "channel",
		"subtype": "noteOff",
		"noteNumber": 42,
		"velocity": 0,
		"time": 57180,
		"track": 5
	},
	{
		"deltaTime": 0,
		"channel": 2,
		"type": "channel",
		"subtype": "noteOff",
		"noteNumber": 68,
		"velocity": 0,
		"time": 57240,
		"track": 4
	},
	{
		"deltaTime": 0,
		"channel": 2,
		"type": "channel",
		"subtype": "noteOff",
		"noteNumber": 63,
		"velocity": 0,
		"time": 57240,
		"track": 4
	},
	{
		"deltaTime": 0,
		"channel": 2,
		"type": "channel",
		"subtype": "noteOff",
		"noteNumber": 59,
		"velocity": 0,
		"time": 57240,
		"track": 4
	},
	{
		"deltaTime": 0,
		"channel": 2,
		"type": "channel",
		"noteNumber": 59,
		"velocity": 127,
		"subtype": "noteOn",
		"time": 57240,
		"track": 4
	},
	{
		"deltaTime": 0,
		"channel": 2,
		"type": "channel",
		"noteNumber": 63,
		"velocity": 127,
		"subtype": "noteOn",
		"time": 57240,
		"track": 4
	},
	{
		"deltaTime": 0,
		"channel": 2,
		"type": "channel",
		"noteNumber": 68,
		"velocity": 127,
		"subtype": "noteOn",
		"time": 57240,
		"track": 4
	},
	{
		"deltaTime": 60,
		"channel": 9,
		"type": "channel",
		"noteNumber": 42,
		"velocity": 127,
		"subtype": "noteOn",
		"time": 57240,
		"track": 5
	},
	{
		"deltaTime": 60,
		"channel": 9,
		"type": "channel",
		"subtype": "noteOff",
		"noteNumber": 42,
		"velocity": 0,
		"time": 57300,
		"track": 5
	},
	{
		"deltaTime": 60,
		"channel": 9,
		"type": "channel",
		"noteNumber": 42,
		"velocity": 127,
		"subtype": "noteOn",
		"time": 57360,
		"track": 5
	},
	{
		"deltaTime": 60,
		"channel": 9,
		"type": "channel",
		"subtype": "noteOff",
		"noteNumber": 42,
		"velocity": 0,
		"time": 57420,
		"track": 5
	},
	{
		"deltaTime": 60,
		"channel": 9,
		"type": "channel",
		"noteNumber": 42,
		"velocity": 127,
		"subtype": "noteOn",
		"time": 57480,
		"track": 5
	},
	{
		"deltaTime": 60,
		"channel": 9,
		"type": "channel",
		"subtype": "noteOff",
		"noteNumber": 42,
		"velocity": 0,
		"time": 57540,
		"track": 5
	},
	{
		"deltaTime": 0,
		"channel": 0,
		"type": "channel",
		"subtype": "noteOff",
		"noteNumber": 40,
		"velocity": 0,
		"time": 57600,
		"track": 2
	},
	{
		"deltaTime": 0,
		"channel": 0,
		"type": "channel",
		"noteNumber": 42,
		"velocity": 127,
		"subtype": "noteOn",
		"time": 57600,
		"track": 2
	},
	{
		"deltaTime": 0,
		"channel": 2,
		"type": "channel",
		"subtype": "noteOff",
		"noteNumber": 68,
		"velocity": 0,
		"time": 57600,
		"track": 4
	},
	{
		"deltaTime": 0,
		"channel": 2,
		"type": "channel",
		"subtype": "noteOff",
		"noteNumber": 63,
		"velocity": 0,
		"time": 57600,
		"track": 4
	},
	{
		"deltaTime": 0,
		"channel": 2,
		"type": "channel",
		"subtype": "noteOff",
		"noteNumber": 59,
		"velocity": 0,
		"time": 57600,
		"track": 4
	},
	{
		"deltaTime": 0,
		"channel": 2,
		"type": "channel",
		"noteNumber": 42,
		"velocity": 127,
		"subtype": "noteOn",
		"time": 57600,
		"track": 4
	},
	{
		"deltaTime": 0,
		"channel": 9,
		"type": "channel",
		"noteNumber": 42,
		"velocity": 127,
		"subtype": "noteOn",
		"time": 57600,
		"track": 5
	},
	{
		"deltaTime": 0,
		"channel": 9,
		"type": "channel",
		"noteNumber": 35,
		"velocity": 127,
		"subtype": "noteOn",
		"time": 57600,
		"track": 5
	},
	{
		"deltaTime": 60,
		"channel": 9,
		"type": "channel",
		"noteNumber": 36,
		"velocity": 127,
		"subtype": "noteOn",
		"time": 57600,
		"track": 5
	},
	{
		"deltaTime": 0,
		"channel": 9,
		"type": "channel",
		"subtype": "noteOff",
		"noteNumber": 36,
		"velocity": 0,
		"time": 57660,
		"track": 5
	},
	{
		"deltaTime": 0,
		"channel": 9,
		"type": "channel",
		"subtype": "noteOff",
		"noteNumber": 35,
		"velocity": 0,
		"time": 57660,
		"track": 5
	},
	{
		"deltaTime": 60,
		"channel": 9,
		"type": "channel",
		"subtype": "noteOff",
		"noteNumber": 42,
		"velocity": 0,
		"time": 57660,
		"track": 5
	},
	{
		"deltaTime": 60,
		"channel": 9,
		"type": "channel",
		"noteNumber": 42,
		"velocity": 127,
		"subtype": "noteOn",
		"time": 57720,
		"track": 5
	},
	{
		"deltaTime": 60,
		"channel": 9,
		"type": "channel",
		"subtype": "noteOff",
		"noteNumber": 42,
		"velocity": 0,
		"time": 57780,
		"track": 5
	},
	{
		"deltaTime": 0,
		"channel": 9,
		"type": "channel",
		"noteNumber": 42,
		"velocity": 127,
		"subtype": "noteOn",
		"time": 57840,
		"track": 5
	},
	{
		"deltaTime": 0,
		"channel": 9,
		"type": "channel",
		"noteNumber": 36,
		"velocity": 127,
		"subtype": "noteOn",
		"time": 57840,
		"track": 5
	},
	{
		"deltaTime": 60,
		"channel": 9,
		"type": "channel",
		"noteNumber": 35,
		"velocity": 127,
		"subtype": "noteOn",
		"time": 57840,
		"track": 5
	},
	{
		"deltaTime": 0,
		"channel": 9,
		"type": "channel",
		"subtype": "noteOff",
		"noteNumber": 35,
		"velocity": 0,
		"time": 57900,
		"track": 5
	},
	{
		"deltaTime": 0,
		"channel": 9,
		"type": "channel",
		"subtype": "noteOff",
		"noteNumber": 36,
		"velocity": 0,
		"time": 57900,
		"track": 5
	},
	{
		"deltaTime": 60,
		"channel": 9,
		"type": "channel",
		"subtype": "noteOff",
		"noteNumber": 42,
		"velocity": 0,
		"time": 57900,
		"track": 5
	},
	{
		"deltaTime": 0,
		"channel": 2,
		"type": "channel",
		"subtype": "noteOff",
		"noteNumber": 42,
		"velocity": 0,
		"time": 57960,
		"track": 4
	},
	{
		"deltaTime": 0,
		"channel": 2,
		"type": "channel",
		"noteNumber": 61,
		"velocity": 127,
		"subtype": "noteOn",
		"time": 57960,
		"track": 4
	},
	{
		"deltaTime": 0,
		"channel": 2,
		"type": "channel",
		"noteNumber": 66,
		"velocity": 127,
		"subtype": "noteOn",
		"time": 57960,
		"track": 4
	},
	{
		"deltaTime": 0,
		"channel": 2,
		"type": "channel",
		"noteNumber": 70,
		"velocity": 127,
		"subtype": "noteOn",
		"time": 57960,
		"track": 4
	},
	{
		"deltaTime": 60,
		"channel": 9,
		"type": "channel",
		"noteNumber": 42,
		"velocity": 127,
		"subtype": "noteOn",
		"time": 57960,
		"track": 5
	},
	{
		"deltaTime": 60,
		"channel": 9,
		"type": "channel",
		"subtype": "noteOff",
		"noteNumber": 42,
		"velocity": 0,
		"time": 58020,
		"track": 5
	},
	{
		"deltaTime": 0,
		"channel": 9,
		"type": "channel",
		"noteNumber": 42,
		"velocity": 127,
		"subtype": "noteOn",
		"time": 58080,
		"track": 5
	},
	{
		"deltaTime": 0,
		"channel": 9,
		"type": "channel",
		"noteNumber": 38,
		"velocity": 127,
		"subtype": "noteOn",
		"time": 58080,
		"track": 5
	},
	{
		"deltaTime": 60,
		"channel": 9,
		"type": "channel",
		"noteNumber": 40,
		"velocity": 127,
		"subtype": "noteOn",
		"time": 58080,
		"track": 5
	},
	{
		"deltaTime": 0,
		"channel": 9,
		"type": "channel",
		"subtype": "noteOff",
		"noteNumber": 40,
		"velocity": 0,
		"time": 58140,
		"track": 5
	},
	{
		"deltaTime": 0,
		"channel": 9,
		"type": "channel",
		"subtype": "noteOff",
		"noteNumber": 38,
		"velocity": 0,
		"time": 58140,
		"track": 5
	},
	{
		"deltaTime": 60,
		"channel": 9,
		"type": "channel",
		"subtype": "noteOff",
		"noteNumber": 42,
		"velocity": 0,
		"time": 58140,
		"track": 5
	},
	{
		"deltaTime": 0,
		"channel": 2,
		"type": "channel",
		"subtype": "noteOff",
		"noteNumber": 70,
		"velocity": 0,
		"time": 58200,
		"track": 4
	},
	{
		"deltaTime": 0,
		"channel": 2,
		"type": "channel",
		"subtype": "noteOff",
		"noteNumber": 66,
		"velocity": 0,
		"time": 58200,
		"track": 4
	},
	{
		"deltaTime": 0,
		"channel": 2,
		"type": "channel",
		"subtype": "noteOff",
		"noteNumber": 61,
		"velocity": 0,
		"time": 58200,
		"track": 4
	},
	{
		"deltaTime": 0,
		"channel": 2,
		"type": "channel",
		"noteNumber": 61,
		"velocity": 127,
		"subtype": "noteOn",
		"time": 58200,
		"track": 4
	},
	{
		"deltaTime": 0,
		"channel": 2,
		"type": "channel",
		"noteNumber": 66,
		"velocity": 127,
		"subtype": "noteOn",
		"time": 58200,
		"track": 4
	},
	{
		"deltaTime": 0,
		"channel": 2,
		"type": "channel",
		"noteNumber": 70,
		"velocity": 127,
		"subtype": "noteOn",
		"time": 58200,
		"track": 4
	},
	{
		"deltaTime": 60,
		"channel": 9,
		"type": "channel",
		"noteNumber": 42,
		"velocity": 127,
		"subtype": "noteOn",
		"time": 58200,
		"track": 5
	},
	{
		"deltaTime": 60,
		"channel": 9,
		"type": "channel",
		"subtype": "noteOff",
		"noteNumber": 42,
		"velocity": 0,
		"time": 58260,
		"track": 5
	},
	{
		"deltaTime": 60,
		"channel": 9,
		"type": "channel",
		"noteNumber": 42,
		"velocity": 127,
		"subtype": "noteOn",
		"time": 58320,
		"track": 5
	},
	{
		"deltaTime": 60,
		"channel": 9,
		"type": "channel",
		"subtype": "noteOff",
		"noteNumber": 42,
		"velocity": 0,
		"time": 58380,
		"track": 5
	},
	{
		"deltaTime": 0,
		"channel": 9,
		"type": "channel",
		"noteNumber": 42,
		"velocity": 127,
		"subtype": "noteOn",
		"time": 58440,
		"track": 5
	},
	{
		"deltaTime": 0,
		"channel": 9,
		"type": "channel",
		"noteNumber": 36,
		"velocity": 127,
		"subtype": "noteOn",
		"time": 58440,
		"track": 5
	},
	{
		"deltaTime": 60,
		"channel": 9,
		"type": "channel",
		"noteNumber": 35,
		"velocity": 127,
		"subtype": "noteOn",
		"time": 58440,
		"track": 5
	},
	{
		"deltaTime": 0,
		"channel": 9,
		"type": "channel",
		"subtype": "noteOff",
		"noteNumber": 35,
		"velocity": 0,
		"time": 58500,
		"track": 5
	},
	{
		"deltaTime": 0,
		"channel": 9,
		"type": "channel",
		"subtype": "noteOff",
		"noteNumber": 36,
		"velocity": 0,
		"time": 58500,
		"track": 5
	},
	{
		"deltaTime": 60,
		"channel": 9,
		"type": "channel",
		"subtype": "noteOff",
		"noteNumber": 42,
		"velocity": 0,
		"time": 58500,
		"track": 5
	},
	{
		"deltaTime": 0,
		"channel": 0,
		"type": "channel",
		"subtype": "noteOff",
		"noteNumber": 42,
		"velocity": 0,
		"time": 58560,
		"track": 2
	},
	{
		"deltaTime": 0,
		"channel": 0,
		"type": "channel",
		"noteNumber": 35,
		"velocity": 127,
		"subtype": "noteOn",
		"time": 58560,
		"track": 2
	},
	{
		"deltaTime": 0,
		"channel": 2,
		"type": "channel",
		"subtype": "noteOff",
		"noteNumber": 70,
		"velocity": 0,
		"time": 58560,
		"track": 4
	},
	{
		"deltaTime": 0,
		"channel": 2,
		"type": "channel",
		"subtype": "noteOff",
		"noteNumber": 66,
		"velocity": 0,
		"time": 58560,
		"track": 4
	},
	{
		"deltaTime": 0,
		"channel": 2,
		"type": "channel",
		"subtype": "noteOff",
		"noteNumber": 61,
		"velocity": 0,
		"time": 58560,
		"track": 4
	},
	{
		"deltaTime": 0,
		"channel": 2,
		"type": "channel",
		"noteNumber": 47,
		"velocity": 127,
		"subtype": "noteOn",
		"time": 58560,
		"track": 4
	},
	{
		"deltaTime": 60,
		"channel": 9,
		"type": "channel",
		"noteNumber": 42,
		"velocity": 127,
		"subtype": "noteOn",
		"time": 58560,
		"track": 5
	},
	{
		"deltaTime": 60,
		"channel": 9,
		"type": "channel",
		"subtype": "noteOff",
		"noteNumber": 42,
		"velocity": 0,
		"time": 58620,
		"track": 5
	},
	{
		"deltaTime": 60,
		"channel": 9,
		"type": "channel",
		"noteNumber": 42,
		"velocity": 127,
		"subtype": "noteOn",
		"time": 58680,
		"track": 5
	},
	{
		"deltaTime": 60,
		"channel": 9,
		"type": "channel",
		"subtype": "noteOff",
		"noteNumber": 42,
		"velocity": 0,
		"time": 58740,
		"track": 5
	},
	{
		"deltaTime": 0,
		"channel": 9,
		"type": "channel",
		"noteNumber": 42,
		"velocity": 127,
		"subtype": "noteOn",
		"time": 58800,
		"track": 5
	},
	{
		"deltaTime": 0,
		"channel": 9,
		"type": "channel",
		"noteNumber": 36,
		"velocity": 127,
		"subtype": "noteOn",
		"time": 58800,
		"track": 5
	},
	{
		"deltaTime": 60,
		"channel": 9,
		"type": "channel",
		"noteNumber": 35,
		"velocity": 127,
		"subtype": "noteOn",
		"time": 58800,
		"track": 5
	},
	{
		"deltaTime": 0,
		"channel": 9,
		"type": "channel",
		"subtype": "noteOff",
		"noteNumber": 35,
		"velocity": 0,
		"time": 58860,
		"track": 5
	},
	{
		"deltaTime": 0,
		"channel": 9,
		"type": "channel",
		"subtype": "noteOff",
		"noteNumber": 36,
		"velocity": 0,
		"time": 58860,
		"track": 5
	},
	{
		"deltaTime": 60,
		"channel": 9,
		"type": "channel",
		"subtype": "noteOff",
		"noteNumber": 42,
		"velocity": 0,
		"time": 58860,
		"track": 5
	},
	{
		"deltaTime": 0,
		"channel": 2,
		"type": "channel",
		"subtype": "noteOff",
		"noteNumber": 47,
		"velocity": 0,
		"time": 58920,
		"track": 4
	},
	{
		"deltaTime": 0,
		"channel": 2,
		"type": "channel",
		"noteNumber": 61,
		"velocity": 127,
		"subtype": "noteOn",
		"time": 58920,
		"track": 4
	},
	{
		"deltaTime": 0,
		"channel": 2,
		"type": "channel",
		"noteNumber": 66,
		"velocity": 127,
		"subtype": "noteOn",
		"time": 58920,
		"track": 4
	},
	{
		"deltaTime": 0,
		"channel": 2,
		"type": "channel",
		"noteNumber": 70,
		"velocity": 127,
		"subtype": "noteOn",
		"time": 58920,
		"track": 4
	},
	{
		"deltaTime": 60,
		"channel": 9,
		"type": "channel",
		"noteNumber": 42,
		"velocity": 127,
		"subtype": "noteOn",
		"time": 58920,
		"track": 5
	},
	{
		"deltaTime": 60,
		"channel": 9,
		"type": "channel",
		"subtype": "noteOff",
		"noteNumber": 42,
		"velocity": 0,
		"time": 58980,
		"track": 5
	},
	{
		"deltaTime": 0,
		"channel": 0,
		"type": "channel",
		"subtype": "noteOff",
		"noteNumber": 35,
		"velocity": 0,
		"time": 59040,
		"track": 2
	},
	{
		"deltaTime": 0,
		"channel": 0,
		"type": "channel",
		"noteNumber": 34,
		"velocity": 127,
		"subtype": "noteOn",
		"time": 59040,
		"track": 2
	},
	{
		"deltaTime": 0,
		"channel": 9,
		"type": "channel",
		"noteNumber": 42,
		"velocity": 127,
		"subtype": "noteOn",
		"time": 59040,
		"track": 5
	},
	{
		"deltaTime": 0,
		"channel": 9,
		"type": "channel",
		"noteNumber": 40,
		"velocity": 127,
		"subtype": "noteOn",
		"time": 59040,
		"track": 5
	},
	{
		"deltaTime": 60,
		"channel": 9,
		"type": "channel",
		"noteNumber": 38,
		"velocity": 127,
		"subtype": "noteOn",
		"time": 59040,
		"track": 5
	},
	{
		"deltaTime": 0,
		"channel": 9,
		"type": "channel",
		"subtype": "noteOff",
		"noteNumber": 38,
		"velocity": 0,
		"time": 59100,
		"track": 5
	},
	{
		"deltaTime": 0,
		"channel": 9,
		"type": "channel",
		"subtype": "noteOff",
		"noteNumber": 40,
		"velocity": 0,
		"time": 59100,
		"track": 5
	},
	{
		"deltaTime": 60,
		"channel": 9,
		"type": "channel",
		"subtype": "noteOff",
		"noteNumber": 42,
		"velocity": 0,
		"time": 59100,
		"track": 5
	},
	{
		"deltaTime": 0,
		"channel": 2,
		"type": "channel",
		"subtype": "noteOff",
		"noteNumber": 70,
		"velocity": 0,
		"time": 59160,
		"track": 4
	},
	{
		"deltaTime": 0,
		"channel": 2,
		"type": "channel",
		"subtype": "noteOff",
		"noteNumber": 66,
		"velocity": 0,
		"time": 59160,
		"track": 4
	},
	{
		"deltaTime": 0,
		"channel": 2,
		"type": "channel",
		"subtype": "noteOff",
		"noteNumber": 61,
		"velocity": 0,
		"time": 59160,
		"track": 4
	},
	{
		"deltaTime": 0,
		"channel": 2,
		"type": "channel",
		"noteNumber": 61,
		"velocity": 127,
		"subtype": "noteOn",
		"time": 59160,
		"track": 4
	},
	{
		"deltaTime": 0,
		"channel": 2,
		"type": "channel",
		"noteNumber": 66,
		"velocity": 127,
		"subtype": "noteOn",
		"time": 59160,
		"track": 4
	},
	{
		"deltaTime": 0,
		"channel": 2,
		"type": "channel",
		"noteNumber": 71,
		"velocity": 127,
		"subtype": "noteOn",
		"time": 59160,
		"track": 4
	},
	{
		"deltaTime": 60,
		"channel": 9,
		"type": "channel",
		"noteNumber": 42,
		"velocity": 127,
		"subtype": "noteOn",
		"time": 59160,
		"track": 5
	},
	{
		"deltaTime": 60,
		"channel": 9,
		"type": "channel",
		"subtype": "noteOff",
		"noteNumber": 42,
		"velocity": 0,
		"time": 59220,
		"track": 5
	},
	{
		"deltaTime": 60,
		"channel": 9,
		"type": "channel",
		"noteNumber": 42,
		"velocity": 127,
		"subtype": "noteOn",
		"time": 59280,
		"track": 5
	},
	{
		"deltaTime": 60,
		"channel": 9,
		"type": "channel",
		"subtype": "noteOff",
		"noteNumber": 42,
		"velocity": 0,
		"time": 59340,
		"track": 5
	},
	{
		"deltaTime": 60,
		"channel": 9,
		"type": "channel",
		"noteNumber": 42,
		"velocity": 127,
		"subtype": "noteOn",
		"time": 59400,
		"track": 5
	},
	{
		"deltaTime": 60,
		"channel": 9,
		"type": "channel",
		"subtype": "noteOff",
		"noteNumber": 42,
		"velocity": 0,
		"time": 59460,
		"track": 5
	},
	{
		"deltaTime": 0,
		"channel": 0,
		"type": "channel",
		"subtype": "noteOff",
		"noteNumber": 34,
		"velocity": 0,
		"time": 59520,
		"track": 2
	},
	{
		"deltaTime": 0,
		"channel": 0,
		"type": "channel",
		"noteNumber": 32,
		"velocity": 127,
		"subtype": "noteOn",
		"time": 59520,
		"track": 2
	},
	{
		"deltaTime": 0,
		"channel": 2,
		"type": "channel",
		"subtype": "noteOff",
		"noteNumber": 71,
		"velocity": 0,
		"time": 59520,
		"track": 4
	},
	{
		"deltaTime": 0,
		"channel": 2,
		"type": "channel",
		"subtype": "noteOff",
		"noteNumber": 66,
		"velocity": 0,
		"time": 59520,
		"track": 4
	},
	{
		"deltaTime": 0,
		"channel": 2,
		"type": "channel",
		"subtype": "noteOff",
		"noteNumber": 61,
		"velocity": 0,
		"time": 59520,
		"track": 4
	},
	{
		"deltaTime": 0,
		"channel": 2,
		"type": "channel",
		"noteNumber": 44,
		"velocity": 127,
		"subtype": "noteOn",
		"time": 59520,
		"track": 4
	},
	{
		"deltaTime": 0,
		"channel": 9,
		"type": "channel",
		"noteNumber": 42,
		"velocity": 127,
		"subtype": "noteOn",
		"time": 59520,
		"track": 5
	},
	{
		"deltaTime": 0,
		"channel": 9,
		"type": "channel",
		"noteNumber": 35,
		"velocity": 127,
		"subtype": "noteOn",
		"time": 59520,
		"track": 5
	},
	{
		"deltaTime": 60,
		"channel": 9,
		"type": "channel",
		"noteNumber": 36,
		"velocity": 127,
		"subtype": "noteOn",
		"time": 59520,
		"track": 5
	},
	{
		"deltaTime": 0,
		"channel": 9,
		"type": "channel",
		"subtype": "noteOff",
		"noteNumber": 36,
		"velocity": 0,
		"time": 59580,
		"track": 5
	},
	{
		"deltaTime": 0,
		"channel": 9,
		"type": "channel",
		"subtype": "noteOff",
		"noteNumber": 35,
		"velocity": 0,
		"time": 59580,
		"track": 5
	},
	{
		"deltaTime": 60,
		"channel": 9,
		"type": "channel",
		"subtype": "noteOff",
		"noteNumber": 42,
		"velocity": 0,
		"time": 59580,
		"track": 5
	},
	{
		"deltaTime": 60,
		"channel": 9,
		"type": "channel",
		"noteNumber": 42,
		"velocity": 127,
		"subtype": "noteOn",
		"time": 59640,
		"track": 5
	},
	{
		"deltaTime": 60,
		"channel": 9,
		"type": "channel",
		"subtype": "noteOff",
		"noteNumber": 42,
		"velocity": 0,
		"time": 59700,
		"track": 5
	},
	{
		"deltaTime": 0,
		"channel": 9,
		"type": "channel",
		"noteNumber": 42,
		"velocity": 127,
		"subtype": "noteOn",
		"time": 59760,
		"track": 5
	},
	{
		"deltaTime": 0,
		"channel": 9,
		"type": "channel",
		"noteNumber": 36,
		"velocity": 127,
		"subtype": "noteOn",
		"time": 59760,
		"track": 5
	},
	{
		"deltaTime": 60,
		"channel": 9,
		"type": "channel",
		"noteNumber": 35,
		"velocity": 127,
		"subtype": "noteOn",
		"time": 59760,
		"track": 5
	},
	{
		"deltaTime": 0,
		"channel": 9,
		"type": "channel",
		"subtype": "noteOff",
		"noteNumber": 35,
		"velocity": 0,
		"time": 59820,
		"track": 5
	},
	{
		"deltaTime": 0,
		"channel": 9,
		"type": "channel",
		"subtype": "noteOff",
		"noteNumber": 36,
		"velocity": 0,
		"time": 59820,
		"track": 5
	},
	{
		"deltaTime": 60,
		"channel": 9,
		"type": "channel",
		"subtype": "noteOff",
		"noteNumber": 42,
		"velocity": 0,
		"time": 59820,
		"track": 5
	},
	{
		"deltaTime": 0,
		"channel": 2,
		"type": "channel",
		"subtype": "noteOff",
		"noteNumber": 44,
		"velocity": 0,
		"time": 59880,
		"track": 4
	},
	{
		"deltaTime": 0,
		"channel": 2,
		"type": "channel",
		"noteNumber": 59,
		"velocity": 127,
		"subtype": "noteOn",
		"time": 59880,
		"track": 4
	},
	{
		"deltaTime": 0,
		"channel": 2,
		"type": "channel",
		"noteNumber": 63,
		"velocity": 127,
		"subtype": "noteOn",
		"time": 59880,
		"track": 4
	},
	{
		"deltaTime": 0,
		"channel": 2,
		"type": "channel",
		"noteNumber": 68,
		"velocity": 127,
		"subtype": "noteOn",
		"time": 59880,
		"track": 4
	},
	{
		"deltaTime": 60,
		"channel": 9,
		"type": "channel",
		"noteNumber": 42,
		"velocity": 127,
		"subtype": "noteOn",
		"time": 59880,
		"track": 5
	},
	{
		"deltaTime": 60,
		"channel": 9,
		"type": "channel",
		"subtype": "noteOff",
		"noteNumber": 42,
		"velocity": 0,
		"time": 59940,
		"track": 5
	},
	{
		"deltaTime": 0,
		"channel": 9,
		"type": "channel",
		"noteNumber": 42,
		"velocity": 127,
		"subtype": "noteOn",
		"time": 60000,
		"track": 5
	},
	{
		"deltaTime": 0,
		"channel": 9,
		"type": "channel",
		"noteNumber": 38,
		"velocity": 127,
		"subtype": "noteOn",
		"time": 60000,
		"track": 5
	},
	{
		"deltaTime": 60,
		"channel": 9,
		"type": "channel",
		"noteNumber": 40,
		"velocity": 127,
		"subtype": "noteOn",
		"time": 60000,
		"track": 5
	},
	{
		"deltaTime": 0,
		"channel": 9,
		"type": "channel",
		"subtype": "noteOff",
		"noteNumber": 40,
		"velocity": 0,
		"time": 60060,
		"track": 5
	},
	{
		"deltaTime": 0,
		"channel": 9,
		"type": "channel",
		"subtype": "noteOff",
		"noteNumber": 38,
		"velocity": 0,
		"time": 60060,
		"track": 5
	},
	{
		"deltaTime": 60,
		"channel": 9,
		"type": "channel",
		"subtype": "noteOff",
		"noteNumber": 42,
		"velocity": 0,
		"time": 60060,
		"track": 5
	},
	{
		"deltaTime": 0,
		"channel": 2,
		"type": "channel",
		"subtype": "noteOff",
		"noteNumber": 68,
		"velocity": 0,
		"time": 60120,
		"track": 4
	},
	{
		"deltaTime": 0,
		"channel": 2,
		"type": "channel",
		"subtype": "noteOff",
		"noteNumber": 63,
		"velocity": 0,
		"time": 60120,
		"track": 4
	},
	{
		"deltaTime": 0,
		"channel": 2,
		"type": "channel",
		"subtype": "noteOff",
		"noteNumber": 59,
		"velocity": 0,
		"time": 60120,
		"track": 4
	},
	{
		"deltaTime": 0,
		"channel": 2,
		"type": "channel",
		"noteNumber": 59,
		"velocity": 127,
		"subtype": "noteOn",
		"time": 60120,
		"track": 4
	},
	{
		"deltaTime": 0,
		"channel": 2,
		"type": "channel",
		"noteNumber": 63,
		"velocity": 127,
		"subtype": "noteOn",
		"time": 60120,
		"track": 4
	},
	{
		"deltaTime": 0,
		"channel": 2,
		"type": "channel",
		"noteNumber": 68,
		"velocity": 127,
		"subtype": "noteOn",
		"time": 60120,
		"track": 4
	},
	{
		"deltaTime": 60,
		"channel": 9,
		"type": "channel",
		"noteNumber": 42,
		"velocity": 127,
		"subtype": "noteOn",
		"time": 60120,
		"track": 5
	},
	{
		"deltaTime": 60,
		"channel": 9,
		"type": "channel",
		"subtype": "noteOff",
		"noteNumber": 42,
		"velocity": 0,
		"time": 60180,
		"track": 5
	},
	{
		"deltaTime": 0,
		"channel": 0,
		"type": "channel",
		"subtype": "noteOff",
		"noteNumber": 32,
		"velocity": 0,
		"time": 60240,
		"track": 2
	},
	{
		"deltaTime": 0,
		"channel": 0,
		"type": "channel",
		"noteNumber": 32,
		"velocity": 127,
		"subtype": "noteOn",
		"time": 60240,
		"track": 2
	},
	{
		"deltaTime": 60,
		"channel": 9,
		"type": "channel",
		"noteNumber": 42,
		"velocity": 127,
		"subtype": "noteOn",
		"time": 60240,
		"track": 5
	},
	{
		"deltaTime": 60,
		"channel": 9,
		"type": "channel",
		"subtype": "noteOff",
		"noteNumber": 42,
		"velocity": 0,
		"time": 60300,
		"track": 5
	},
	{
		"deltaTime": 0,
		"channel": 9,
		"type": "channel",
		"noteNumber": 42,
		"velocity": 127,
		"subtype": "noteOn",
		"time": 60360,
		"track": 5
	},
	{
		"deltaTime": 0,
		"channel": 9,
		"type": "channel",
		"noteNumber": 36,
		"velocity": 127,
		"subtype": "noteOn",
		"time": 60360,
		"track": 5
	},
	{
		"deltaTime": 60,
		"channel": 9,
		"type": "channel",
		"noteNumber": 35,
		"velocity": 127,
		"subtype": "noteOn",
		"time": 60360,
		"track": 5
	},
	{
		"deltaTime": 0,
		"channel": 9,
		"type": "channel",
		"subtype": "noteOff",
		"noteNumber": 35,
		"velocity": 0,
		"time": 60420,
		"track": 5
	},
	{
		"deltaTime": 0,
		"channel": 9,
		"type": "channel",
		"subtype": "noteOff",
		"noteNumber": 36,
		"velocity": 0,
		"time": 60420,
		"track": 5
	},
	{
		"deltaTime": 60,
		"channel": 9,
		"type": "channel",
		"subtype": "noteOff",
		"noteNumber": 42,
		"velocity": 0,
		"time": 60420,
		"track": 5
	},
	{
		"deltaTime": 0,
		"channel": 0,
		"type": "channel",
		"subtype": "noteOff",
		"noteNumber": 32,
		"velocity": 0,
		"time": 60480,
		"track": 2
	},
	{
		"deltaTime": 0,
		"channel": 0,
		"type": "channel",
		"noteNumber": 40,
		"velocity": 127,
		"subtype": "noteOn",
		"time": 60480,
		"track": 2
	},
	{
		"deltaTime": 0,
		"channel": 2,
		"type": "channel",
		"subtype": "noteOff",
		"noteNumber": 68,
		"velocity": 0,
		"time": 60480,
		"track": 4
	},
	{
		"deltaTime": 0,
		"channel": 2,
		"type": "channel",
		"subtype": "noteOff",
		"noteNumber": 63,
		"velocity": 0,
		"time": 60480,
		"track": 4
	},
	{
		"deltaTime": 0,
		"channel": 2,
		"type": "channel",
		"subtype": "noteOff",
		"noteNumber": 59,
		"velocity": 0,
		"time": 60480,
		"track": 4
	},
	{
		"deltaTime": 0,
		"channel": 2,
		"type": "channel",
		"noteNumber": 40,
		"velocity": 127,
		"subtype": "noteOn",
		"time": 60480,
		"track": 4
	},
	{
		"deltaTime": 60,
		"channel": 9,
		"type": "channel",
		"noteNumber": 42,
		"velocity": 127,
		"subtype": "noteOn",
		"time": 60480,
		"track": 5
	},
	{
		"deltaTime": 60,
		"channel": 9,
		"type": "channel",
		"subtype": "noteOff",
		"noteNumber": 42,
		"velocity": 0,
		"time": 60540,
		"track": 5
	},
	{
		"deltaTime": 60,
		"channel": 9,
		"type": "channel",
		"noteNumber": 42,
		"velocity": 127,
		"subtype": "noteOn",
		"time": 60600,
		"track": 5
	},
	{
		"deltaTime": 60,
		"channel": 9,
		"type": "channel",
		"subtype": "noteOff",
		"noteNumber": 42,
		"velocity": 0,
		"time": 60660,
		"track": 5
	},
	{
		"deltaTime": 0,
		"channel": 9,
		"type": "channel",
		"noteNumber": 42,
		"velocity": 127,
		"subtype": "noteOn",
		"time": 60720,
		"track": 5
	},
	{
		"deltaTime": 0,
		"channel": 9,
		"type": "channel",
		"noteNumber": 36,
		"velocity": 127,
		"subtype": "noteOn",
		"time": 60720,
		"track": 5
	},
	{
		"deltaTime": 60,
		"channel": 9,
		"type": "channel",
		"noteNumber": 35,
		"velocity": 127,
		"subtype": "noteOn",
		"time": 60720,
		"track": 5
	},
	{
		"deltaTime": 0,
		"channel": 9,
		"type": "channel",
		"subtype": "noteOff",
		"noteNumber": 35,
		"velocity": 0,
		"time": 60780,
		"track": 5
	},
	{
		"deltaTime": 0,
		"channel": 9,
		"type": "channel",
		"subtype": "noteOff",
		"noteNumber": 36,
		"velocity": 0,
		"time": 60780,
		"track": 5
	},
	{
		"deltaTime": 60,
		"channel": 9,
		"type": "channel",
		"subtype": "noteOff",
		"noteNumber": 42,
		"velocity": 0,
		"time": 60780,
		"track": 5
	},
	{
		"deltaTime": 0,
		"channel": 2,
		"type": "channel",
		"subtype": "noteOff",
		"noteNumber": 40,
		"velocity": 0,
		"time": 60840,
		"track": 4
	},
	{
		"deltaTime": 0,
		"channel": 2,
		"type": "channel",
		"noteNumber": 59,
		"velocity": 127,
		"subtype": "noteOn",
		"time": 60840,
		"track": 4
	},
	{
		"deltaTime": 0,
		"channel": 2,
		"type": "channel",
		"noteNumber": 63,
		"velocity": 127,
		"subtype": "noteOn",
		"time": 60840,
		"track": 4
	},
	{
		"deltaTime": 0,
		"channel": 2,
		"type": "channel",
		"noteNumber": 68,
		"velocity": 127,
		"subtype": "noteOn",
		"time": 60840,
		"track": 4
	},
	{
		"deltaTime": 60,
		"channel": 9,
		"type": "channel",
		"noteNumber": 42,
		"velocity": 127,
		"subtype": "noteOn",
		"time": 60840,
		"track": 5
	},
	{
		"deltaTime": 60,
		"channel": 9,
		"type": "channel",
		"subtype": "noteOff",
		"noteNumber": 42,
		"velocity": 0,
		"time": 60900,
		"track": 5
	},
	{
		"deltaTime": 0,
		"channel": 9,
		"type": "channel",
		"noteNumber": 42,
		"velocity": 127,
		"subtype": "noteOn",
		"time": 60960,
		"track": 5
	},
	{
		"deltaTime": 0,
		"channel": 9,
		"type": "channel",
		"noteNumber": 40,
		"velocity": 127,
		"subtype": "noteOn",
		"time": 60960,
		"track": 5
	},
	{
		"deltaTime": 60,
		"channel": 9,
		"type": "channel",
		"noteNumber": 38,
		"velocity": 127,
		"subtype": "noteOn",
		"time": 60960,
		"track": 5
	},
	{
		"deltaTime": 0,
		"channel": 9,
		"type": "channel",
		"subtype": "noteOff",
		"noteNumber": 38,
		"velocity": 0,
		"time": 61020,
		"track": 5
	},
	{
		"deltaTime": 0,
		"channel": 9,
		"type": "channel",
		"subtype": "noteOff",
		"noteNumber": 40,
		"velocity": 0,
		"time": 61020,
		"track": 5
	},
	{
		"deltaTime": 60,
		"channel": 9,
		"type": "channel",
		"subtype": "noteOff",
		"noteNumber": 42,
		"velocity": 0,
		"time": 61020,
		"track": 5
	},
	{
		"deltaTime": 0,
		"channel": 2,
		"type": "channel",
		"subtype": "noteOff",
		"noteNumber": 68,
		"velocity": 0,
		"time": 61080,
		"track": 4
	},
	{
		"deltaTime": 0,
		"channel": 2,
		"type": "channel",
		"subtype": "noteOff",
		"noteNumber": 63,
		"velocity": 0,
		"time": 61080,
		"track": 4
	},
	{
		"deltaTime": 0,
		"channel": 2,
		"type": "channel",
		"subtype": "noteOff",
		"noteNumber": 59,
		"velocity": 0,
		"time": 61080,
		"track": 4
	},
	{
		"deltaTime": 0,
		"channel": 2,
		"type": "channel",
		"noteNumber": 59,
		"velocity": 127,
		"subtype": "noteOn",
		"time": 61080,
		"track": 4
	},
	{
		"deltaTime": 0,
		"channel": 2,
		"type": "channel",
		"noteNumber": 63,
		"velocity": 127,
		"subtype": "noteOn",
		"time": 61080,
		"track": 4
	},
	{
		"deltaTime": 0,
		"channel": 2,
		"type": "channel",
		"noteNumber": 68,
		"velocity": 127,
		"subtype": "noteOn",
		"time": 61080,
		"track": 4
	},
	{
		"deltaTime": 60,
		"channel": 9,
		"type": "channel",
		"noteNumber": 42,
		"velocity": 127,
		"subtype": "noteOn",
		"time": 61080,
		"track": 5
	},
	{
		"deltaTime": 60,
		"channel": 9,
		"type": "channel",
		"subtype": "noteOff",
		"noteNumber": 42,
		"velocity": 0,
		"time": 61140,
		"track": 5
	},
	{
		"deltaTime": 0,
		"channel": 0,
		"type": "channel",
		"subtype": "noteOff",
		"noteNumber": 40,
		"velocity": 0,
		"time": 61200,
		"track": 2
	},
	{
		"deltaTime": 0,
		"channel": 0,
		"type": "channel",
		"noteNumber": 40,
		"velocity": 127,
		"subtype": "noteOn",
		"time": 61200,
		"track": 2
	},
	{
		"deltaTime": 60,
		"channel": 9,
		"type": "channel",
		"noteNumber": 42,
		"velocity": 127,
		"subtype": "noteOn",
		"time": 61200,
		"track": 5
	},
	{
		"deltaTime": 60,
		"channel": 9,
		"type": "channel",
		"subtype": "noteOff",
		"noteNumber": 42,
		"velocity": 0,
		"time": 61260,
		"track": 5
	},
	{
		"deltaTime": 60,
		"channel": 9,
		"type": "channel",
		"noteNumber": 42,
		"velocity": 127,
		"subtype": "noteOn",
		"time": 61320,
		"track": 5
	},
	{
		"deltaTime": 60,
		"channel": 9,
		"type": "channel",
		"subtype": "noteOff",
		"noteNumber": 42,
		"velocity": 0,
		"time": 61380,
		"track": 5
	},
	{
		"deltaTime": 0,
		"channel": 0,
		"type": "channel",
		"subtype": "noteOff",
		"noteNumber": 40,
		"velocity": 0,
		"time": 61440,
		"track": 2
	},
	{
		"deltaTime": 0,
		"channel": 0,
		"type": "channel",
		"noteNumber": 41,
		"velocity": 127,
		"subtype": "noteOn",
		"time": 61440,
		"track": 2
	},
	{
		"deltaTime": 0,
		"channel": 2,
		"type": "channel",
		"subtype": "noteOff",
		"noteNumber": 68,
		"velocity": 0,
		"time": 61440,
		"track": 4
	},
	{
		"deltaTime": 0,
		"channel": 2,
		"type": "channel",
		"subtype": "noteOff",
		"noteNumber": 63,
		"velocity": 0,
		"time": 61440,
		"track": 4
	},
	{
		"deltaTime": 0,
		"channel": 2,
		"type": "channel",
		"subtype": "noteOff",
		"noteNumber": 59,
		"velocity": 0,
		"time": 61440,
		"track": 4
	},
	{
		"deltaTime": 0,
		"channel": 9,
		"type": "channel",
		"noteNumber": 35,
		"velocity": 127,
		"subtype": "noteOn",
		"time": 61440,
		"track": 5
	},
	{
		"deltaTime": 60,
		"channel": 9,
		"type": "channel",
		"noteNumber": 36,
		"velocity": 127,
		"subtype": "noteOn",
		"time": 61440,
		"track": 5
	},
	{
		"deltaTime": 0,
		"channel": 9,
		"type": "channel",
		"subtype": "noteOff",
		"noteNumber": 36,
		"velocity": 0,
		"time": 61500,
		"track": 5
	},
	{
		"deltaTime": 180,
		"channel": 9,
		"type": "channel",
		"subtype": "noteOff",
		"noteNumber": 35,
		"velocity": 0,
		"time": 61500,
		"track": 5
	},
	{
		"deltaTime": 0,
		"channel": 9,
		"type": "channel",
		"noteNumber": 35,
		"velocity": 127,
		"subtype": "noteOn",
		"time": 61680,
		"track": 5
	},
	{
		"deltaTime": 60,
		"channel": 9,
		"type": "channel",
		"noteNumber": 36,
		"velocity": 127,
		"subtype": "noteOn",
		"time": 61680,
		"track": 5
	},
	{
		"deltaTime": 0,
		"channel": 9,
		"type": "channel",
		"subtype": "noteOff",
		"noteNumber": 36,
		"velocity": 0,
		"time": 61740,
		"track": 5
	},
	{
		"deltaTime": 180,
		"channel": 9,
		"type": "channel",
		"subtype": "noteOff",
		"noteNumber": 35,
		"velocity": 0,
		"time": 61740,
		"track": 5
	},
	{
		"deltaTime": 60,
		"channel": 9,
		"type": "channel",
		"noteNumber": 39,
		"velocity": 127,
		"subtype": "noteOn",
		"time": 61920,
		"track": 5
	},
	{
		"deltaTime": 180,
		"channel": 9,
		"type": "channel",
		"subtype": "noteOff",
		"noteNumber": 39,
		"velocity": 0,
		"time": 61980,
		"track": 5
	},
	{
		"deltaTime": 0,
		"channel": 0,
		"type": "channel",
		"subtype": "noteOff",
		"noteNumber": 41,
		"velocity": 0,
		"time": 62160,
		"track": 2
	},
	{
		"deltaTime": 120,
		"channel": 0,
		"type": "channel",
		"noteNumber": 41,
		"velocity": 127,
		"subtype": "noteOn",
		"time": 62160,
		"track": 2
	},
	{
		"deltaTime": 0,
		"channel": 9,
		"type": "channel",
		"noteNumber": 35,
		"velocity": 127,
		"subtype": "noteOn",
		"time": 62280,
		"track": 5
	},
	{
		"deltaTime": 60,
		"channel": 9,
		"type": "channel",
		"noteNumber": 36,
		"velocity": 127,
		"subtype": "noteOn",
		"time": 62280,
		"track": 5
	},
	{
		"deltaTime": 0,
		"channel": 9,
		"type": "channel",
		"subtype": "noteOff",
		"noteNumber": 36,
		"velocity": 0,
		"time": 62340,
		"track": 5
	},
	{
		"deltaTime": 60,
		"channel": 9,
		"type": "channel",
		"subtype": "noteOff",
		"noteNumber": 35,
		"velocity": 0,
		"time": 62340,
		"track": 5
	},
	{
		"deltaTime": 0,
		"channel": 0,
		"type": "channel",
		"subtype": "noteOff",
		"noteNumber": 41,
		"velocity": 0,
		"time": 62400,
		"track": 2
	},
	{
		"deltaTime": 240,
		"channel": 0,
		"type": "channel",
		"noteNumber": 40,
		"velocity": 127,
		"subtype": "noteOn",
		"time": 62400,
		"track": 2
	},
	{
		"deltaTime": 0,
		"channel": 9,
		"type": "channel",
		"noteNumber": 35,
		"velocity": 127,
		"subtype": "noteOn",
		"time": 62640,
		"track": 5
	},
	{
		"deltaTime": 60,
		"channel": 9,
		"type": "channel",
		"noteNumber": 36,
		"velocity": 127,
		"subtype": "noteOn",
		"time": 62640,
		"track": 5
	},
	{
		"deltaTime": 0,
		"channel": 9,
		"type": "channel",
		"subtype": "noteOff",
		"noteNumber": 36,
		"velocity": 0,
		"time": 62700,
		"track": 5
	},
	{
		"deltaTime": 180,
		"channel": 9,
		"type": "channel",
		"subtype": "noteOff",
		"noteNumber": 35,
		"velocity": 0,
		"time": 62700,
		"track": 5
	},
	{
		"deltaTime": 0,
		"channel": 0,
		"type": "channel",
		"subtype": "noteOff",
		"noteNumber": 40,
		"velocity": 0,
		"time": 62880,
		"track": 2
	},
	{
		"deltaTime": 0,
		"channel": 0,
		"type": "channel",
		"noteNumber": 35,
		"velocity": 127,
		"subtype": "noteOn",
		"time": 62880,
		"track": 2
	},
	{
		"deltaTime": 0,
		"channel": 9,
		"type": "channel",
		"noteNumber": 38,
		"velocity": 127,
		"subtype": "noteOn",
		"time": 62880,
		"track": 5
	},
	{
		"deltaTime": 60,
		"channel": 9,
		"type": "channel",
		"noteNumber": 40,
		"velocity": 127,
		"subtype": "noteOn",
		"time": 62880,
		"track": 5
	},
	{
		"deltaTime": 0,
		"channel": 9,
		"type": "channel",
		"subtype": "noteOff",
		"noteNumber": 40,
		"velocity": 0,
		"time": 62940,
		"track": 5
	},
	{
		"deltaTime": 180,
		"channel": 9,
		"type": "channel",
		"subtype": "noteOff",
		"noteNumber": 38,
		"velocity": 0,
		"time": 62940,
		"track": 5
	},
	{
		"deltaTime": 0,
		"channel": 0,
		"type": "channel",
		"subtype": "noteOff",
		"noteNumber": 35,
		"velocity": 0,
		"time": 63120,
		"track": 2
	},
	{
		"deltaTime": 0,
		"channel": 0,
		"type": "channel",
		"noteNumber": 34,
		"velocity": 127,
		"subtype": "noteOn",
		"time": 63120,
		"track": 2
	},
	{
		"deltaTime": 0,
		"channel": 9,
		"type": "channel",
		"noteNumber": 35,
		"velocity": 127,
		"subtype": "noteOn",
		"time": 63120,
		"track": 5
	},
	{
		"deltaTime": 60,
		"channel": 9,
		"type": "channel",
		"noteNumber": 36,
		"velocity": 127,
		"subtype": "noteOn",
		"time": 63120,
		"track": 5
	},
	{
		"deltaTime": 0,
		"channel": 9,
		"type": "channel",
		"subtype": "noteOff",
		"noteNumber": 36,
		"velocity": 0,
		"time": 63180,
		"track": 5
	},
	{
		"deltaTime": 180,
		"channel": 9,
		"type": "channel",
		"subtype": "noteOff",
		"noteNumber": 35,
		"velocity": 0,
		"time": 63180,
		"track": 5
	},
	{
		"deltaTime": 0,
		"channel": 0,
		"type": "channel",
		"subtype": "noteOff",
		"noteNumber": 34,
		"velocity": 0,
		"time": 63360,
		"track": 2
	},
	{
		"deltaTime": 0,
		"channel": 0,
		"type": "channel",
		"noteNumber": 32,
		"velocity": 127,
		"subtype": "noteOn",
		"time": 63360,
		"track": 2
	},
	{
		"deltaTime": 0,
		"channel": 2,
		"type": "channel",
		"noteNumber": 44,
		"velocity": 127,
		"subtype": "noteOn",
		"time": 63360,
		"track": 4
	},
	{
		"deltaTime": 0,
		"channel": 2,
		"type": "channel",
		"noteNumber": 51,
		"velocity": 127,
		"subtype": "noteOn",
		"time": 63360,
		"track": 4
	},
	{
		"deltaTime": 0,
		"channel": 2,
		"type": "channel",
		"noteNumber": 56,
		"velocity": 127,
		"subtype": "noteOn",
		"time": 63360,
		"track": 4
	},
	{
		"deltaTime": 0,
		"channel": 2,
		"type": "channel",
		"noteNumber": 59,
		"velocity": 127,
		"subtype": "noteOn",
		"time": 63360,
		"track": 4
	},
	{
		"deltaTime": 0,
		"channel": 2,
		"type": "channel",
		"noteNumber": 63,
		"velocity": 127,
		"subtype": "noteOn",
		"time": 63360,
		"track": 4
	},
	{
		"deltaTime": 0,
		"channel": 9,
		"type": "channel",
		"noteNumber": 42,
		"velocity": 127,
		"subtype": "noteOn",
		"time": 63360,
		"track": 5
	},
	{
		"deltaTime": 0,
		"channel": 9,
		"type": "channel",
		"noteNumber": 35,
		"velocity": 127,
		"subtype": "noteOn",
		"time": 63360,
		"track": 5
	},
	{
		"deltaTime": 60,
		"channel": 9,
		"type": "channel",
		"noteNumber": 36,
		"velocity": 127,
		"subtype": "noteOn",
		"time": 63360,
		"track": 5
	},
	{
		"deltaTime": 0,
		"channel": 9,
		"type": "channel",
		"subtype": "noteOff",
		"noteNumber": 36,
		"velocity": 0,
		"time": 63420,
		"track": 5
	},
	{
		"deltaTime": 0,
		"channel": 9,
		"type": "channel",
		"subtype": "noteOff",
		"noteNumber": 35,
		"velocity": 0,
		"time": 63420,
		"track": 5
	},
	{
		"deltaTime": 60,
		"channel": 9,
		"type": "channel",
		"subtype": "noteOff",
		"noteNumber": 42,
		"velocity": 0,
		"time": 63420,
		"track": 5
	},
	{
		"deltaTime": 60,
		"channel": 9,
		"type": "channel",
		"noteNumber": 42,
		"velocity": 127,
		"subtype": "noteOn",
		"time": 63480,
		"track": 5
	},
	{
		"deltaTime": 60,
		"channel": 9,
		"type": "channel",
		"subtype": "noteOff",
		"noteNumber": 42,
		"velocity": 0,
		"time": 63540,
		"track": 5
	},
	{
		"deltaTime": 0,
		"channel": 9,
		"type": "channel",
		"noteNumber": 42,
		"velocity": 127,
		"subtype": "noteOn",
		"time": 63600,
		"track": 5
	},
	{
		"deltaTime": 0,
		"channel": 9,
		"type": "channel",
		"noteNumber": 36,
		"velocity": 127,
		"subtype": "noteOn",
		"time": 63600,
		"track": 5
	},
	{
		"deltaTime": 60,
		"channel": 9,
		"type": "channel",
		"noteNumber": 35,
		"velocity": 127,
		"subtype": "noteOn",
		"time": 63600,
		"track": 5
	},
	{
		"deltaTime": 0,
		"channel": 9,
		"type": "channel",
		"subtype": "noteOff",
		"noteNumber": 35,
		"velocity": 0,
		"time": 63660,
		"track": 5
	},
	{
		"deltaTime": 0,
		"channel": 9,
		"type": "channel",
		"subtype": "noteOff",
		"noteNumber": 36,
		"velocity": 0,
		"time": 63660,
		"track": 5
	},
	{
		"deltaTime": 60,
		"channel": 9,
		"type": "channel",
		"subtype": "noteOff",
		"noteNumber": 42,
		"velocity": 0,
		"time": 63660,
		"track": 5
	},
	{
		"deltaTime": 0,
		"channel": 1,
		"type": "channel",
		"noteNumber": 56,
		"velocity": 127,
		"subtype": "noteOn",
		"time": 63720,
		"track": 3
	},
	{
		"deltaTime": 0,
		"channel": 2,
		"type": "channel",
		"subtype": "noteOff",
		"noteNumber": 63,
		"velocity": 0,
		"time": 63720,
		"track": 4
	},
	{
		"deltaTime": 0,
		"channel": 2,
		"type": "channel",
		"subtype": "noteOff",
		"noteNumber": 59,
		"velocity": 0,
		"time": 63720,
		"track": 4
	},
	{
		"deltaTime": 0,
		"channel": 2,
		"type": "channel",
		"subtype": "noteOff",
		"noteNumber": 56,
		"velocity": 0,
		"time": 63720,
		"track": 4
	},
	{
		"deltaTime": 0,
		"channel": 2,
		"type": "channel",
		"subtype": "noteOff",
		"noteNumber": 51,
		"velocity": 0,
		"time": 63720,
		"track": 4
	},
	{
		"deltaTime": 0,
		"channel": 2,
		"type": "channel",
		"subtype": "noteOff",
		"noteNumber": 44,
		"velocity": 0,
		"time": 63720,
		"track": 4
	},
	{
		"deltaTime": 0,
		"channel": 2,
		"type": "channel",
		"noteNumber": 56,
		"velocity": 127,
		"subtype": "noteOn",
		"time": 63720,
		"track": 4
	},
	{
		"deltaTime": 0,
		"channel": 2,
		"type": "channel",
		"noteNumber": 59,
		"velocity": 127,
		"subtype": "noteOn",
		"time": 63720,
		"track": 4
	},
	{
		"deltaTime": 60,
		"channel": 9,
		"type": "channel",
		"noteNumber": 42,
		"velocity": 127,
		"subtype": "noteOn",
		"time": 63720,
		"track": 5
	},
	{
		"deltaTime": 60,
		"channel": 9,
		"type": "channel",
		"subtype": "noteOff",
		"noteNumber": 42,
		"velocity": 0,
		"time": 63780,
		"track": 5
	},
	{
		"deltaTime": 0,
		"channel": 1,
		"type": "channel",
		"subtype": "noteOff",
		"noteNumber": 56,
		"velocity": 0,
		"time": 63840,
		"track": 3
	},
	{
		"deltaTime": 0,
		"channel": 1,
		"type": "channel",
		"noteNumber": 63,
		"velocity": 127,
		"subtype": "noteOn",
		"time": 63840,
		"track": 3
	},
	{
		"deltaTime": 0,
		"channel": 2,
		"type": "channel",
		"subtype": "noteOff",
		"noteNumber": 59,
		"velocity": 0,
		"time": 63840,
		"track": 4
	},
	{
		"deltaTime": 0,
		"channel": 2,
		"type": "channel",
		"subtype": "noteOff",
		"noteNumber": 56,
		"velocity": 0,
		"time": 63840,
		"track": 4
	},
	{
		"deltaTime": 0,
		"channel": 2,
		"type": "channel",
		"noteNumber": 51,
		"velocity": 127,
		"subtype": "noteOn",
		"time": 63840,
		"track": 4
	},
	{
		"deltaTime": 0,
		"channel": 2,
		"type": "channel",
		"noteNumber": 59,
		"velocity": 127,
		"subtype": "noteOn",
		"time": 63840,
		"track": 4
	},
	{
		"deltaTime": 0,
		"channel": 2,
		"type": "channel",
		"noteNumber": 63,
		"velocity": 127,
		"subtype": "noteOn",
		"time": 63840,
		"track": 4
	},
	{
		"deltaTime": 0,
		"channel": 9,
		"type": "channel",
		"noteNumber": 42,
		"velocity": 127,
		"subtype": "noteOn",
		"time": 63840,
		"track": 5
	},
	{
		"deltaTime": 0,
		"channel": 9,
		"type": "channel",
		"noteNumber": 38,
		"velocity": 127,
		"subtype": "noteOn",
		"time": 63840,
		"track": 5
	},
	{
		"deltaTime": 60,
		"channel": 9,
		"type": "channel",
		"noteNumber": 40,
		"velocity": 127,
		"subtype": "noteOn",
		"time": 63840,
		"track": 5
	},
	{
		"deltaTime": 0,
		"channel": 9,
		"type": "channel",
		"subtype": "noteOff",
		"noteNumber": 40,
		"velocity": 0,
		"time": 63900,
		"track": 5
	},
	{
		"deltaTime": 0,
		"channel": 9,
		"type": "channel",
		"subtype": "noteOff",
		"noteNumber": 38,
		"velocity": 0,
		"time": 63900,
		"track": 5
	},
	{
		"deltaTime": 60,
		"channel": 9,
		"type": "channel",
		"subtype": "noteOff",
		"noteNumber": 42,
		"velocity": 0,
		"time": 63900,
		"track": 5
	},
	{
		"deltaTime": 60,
		"channel": 9,
		"type": "channel",
		"noteNumber": 42,
		"velocity": 127,
		"subtype": "noteOn",
		"time": 63960,
		"track": 5
	},
	{
		"deltaTime": 60,
		"channel": 9,
		"type": "channel",
		"subtype": "noteOff",
		"noteNumber": 42,
		"velocity": 0,
		"time": 64020,
		"track": 5
	},
	{
		"deltaTime": 0,
		"channel": 1,
		"type": "channel",
		"subtype": "noteOff",
		"noteNumber": 63,
		"velocity": 0,
		"time": 64080,
		"track": 3
	},
	{
		"deltaTime": 0,
		"channel": 1,
		"type": "channel",
		"noteNumber": 63,
		"velocity": 127,
		"subtype": "noteOn",
		"time": 64080,
		"track": 3
	},
	{
		"deltaTime": 60,
		"channel": 9,
		"type": "channel",
		"noteNumber": 42,
		"velocity": 127,
		"subtype": "noteOn",
		"time": 64080,
		"track": 5
	},
	{
		"deltaTime": 60,
		"channel": 9,
		"type": "channel",
		"subtype": "noteOff",
		"noteNumber": 42,
		"velocity": 0,
		"time": 64140,
		"track": 5
	},
	{
		"deltaTime": 0,
		"channel": 9,
		"type": "channel",
		"noteNumber": 42,
		"velocity": 127,
		"subtype": "noteOn",
		"time": 64200,
		"track": 5
	},
	{
		"deltaTime": 0,
		"channel": 9,
		"type": "channel",
		"noteNumber": 36,
		"velocity": 127,
		"subtype": "noteOn",
		"time": 64200,
		"track": 5
	},
	{
		"deltaTime": 60,
		"channel": 9,
		"type": "channel",
		"noteNumber": 35,
		"velocity": 127,
		"subtype": "noteOn",
		"time": 64200,
		"track": 5
	},
	{
		"deltaTime": 0,
		"channel": 9,
		"type": "channel",
		"subtype": "noteOff",
		"noteNumber": 35,
		"velocity": 0,
		"time": 64260,
		"track": 5
	},
	{
		"deltaTime": 0,
		"channel": 9,
		"type": "channel",
		"subtype": "noteOff",
		"noteNumber": 36,
		"velocity": 0,
		"time": 64260,
		"track": 5
	},
	{
		"deltaTime": 60,
		"channel": 9,
		"type": "channel",
		"subtype": "noteOff",
		"noteNumber": 42,
		"velocity": 0,
		"time": 64260,
		"track": 5
	},
	{
		"deltaTime": 0,
		"channel": 0,
		"type": "channel",
		"subtype": "noteOff",
		"noteNumber": 32,
		"velocity": 0,
		"time": 64320,
		"track": 2
	},
	{
		"deltaTime": 0,
		"channel": 0,
		"type": "channel",
		"noteNumber": 40,
		"velocity": 127,
		"subtype": "noteOn",
		"time": 64320,
		"track": 2
	},
	{
		"deltaTime": 0,
		"channel": 1,
		"type": "channel",
		"subtype": "noteOff",
		"noteNumber": 63,
		"velocity": 0,
		"time": 64320,
		"track": 3
	},
	{
		"deltaTime": 0,
		"channel": 1,
		"type": "channel",
		"noteNumber": 63,
		"velocity": 127,
		"subtype": "noteOn",
		"time": 64320,
		"track": 3
	},
	{
		"deltaTime": 0,
		"channel": 2,
		"type": "channel",
		"subtype": "noteOff",
		"noteNumber": 63,
		"velocity": 0,
		"time": 64320,
		"track": 4
	},
	{
		"deltaTime": 0,
		"channel": 2,
		"type": "channel",
		"subtype": "noteOff",
		"noteNumber": 59,
		"velocity": 0,
		"time": 64320,
		"track": 4
	},
	{
		"deltaTime": 0,
		"channel": 2,
		"type": "channel",
		"subtype": "noteOff",
		"noteNumber": 51,
		"velocity": 0,
		"time": 64320,
		"track": 4
	},
	{
		"deltaTime": 0,
		"channel": 2,
		"type": "channel",
		"noteNumber": 40,
		"velocity": 127,
		"subtype": "noteOn",
		"time": 64320,
		"track": 4
	},
	{
		"deltaTime": 0,
		"channel": 2,
		"type": "channel",
		"noteNumber": 47,
		"velocity": 127,
		"subtype": "noteOn",
		"time": 64320,
		"track": 4
	},
	{
		"deltaTime": 0,
		"channel": 2,
		"type": "channel",
		"noteNumber": 52,
		"velocity": 127,
		"subtype": "noteOn",
		"time": 64320,
		"track": 4
	},
	{
		"deltaTime": 0,
		"channel": 2,
		"type": "channel",
		"noteNumber": 56,
		"velocity": 127,
		"subtype": "noteOn",
		"time": 64320,
		"track": 4
	},
	{
		"deltaTime": 60,
		"channel": 9,
		"type": "channel",
		"noteNumber": 42,
		"velocity": 127,
		"subtype": "noteOn",
		"time": 64320,
		"track": 5
	},
	{
		"deltaTime": 60,
		"channel": 9,
		"type": "channel",
		"subtype": "noteOff",
		"noteNumber": 42,
		"velocity": 0,
		"time": 64380,
		"track": 5
	},
	{
		"deltaTime": 60,
		"channel": 9,
		"type": "channel",
		"noteNumber": 42,
		"velocity": 127,
		"subtype": "noteOn",
		"time": 64440,
		"track": 5
	},
	{
		"deltaTime": 60,
		"channel": 9,
		"type": "channel",
		"subtype": "noteOff",
		"noteNumber": 42,
		"velocity": 0,
		"time": 64500,
		"track": 5
	},
	{
		"deltaTime": 0,
		"channel": 1,
		"type": "channel",
		"subtype": "noteOff",
		"noteNumber": 63,
		"velocity": 0,
		"time": 64560,
		"track": 3
	},
	{
		"deltaTime": 0,
		"channel": 1,
		"type": "channel",
		"noteNumber": 64,
		"velocity": 127,
		"subtype": "noteOn",
		"time": 64560,
		"track": 3
	},
	{
		"deltaTime": 0,
		"channel": 9,
		"type": "channel",
		"noteNumber": 42,
		"velocity": 127,
		"subtype": "noteOn",
		"time": 64560,
		"track": 5
	},
	{
		"deltaTime": 0,
		"channel": 9,
		"type": "channel",
		"noteNumber": 36,
		"velocity": 127,
		"subtype": "noteOn",
		"time": 64560,
		"track": 5
	},
	{
		"deltaTime": 60,
		"channel": 9,
		"type": "channel",
		"noteNumber": 35,
		"velocity": 127,
		"subtype": "noteOn",
		"time": 64560,
		"track": 5
	},
	{
		"deltaTime": 0,
		"channel": 9,
		"type": "channel",
		"subtype": "noteOff",
		"noteNumber": 35,
		"velocity": 0,
		"time": 64620,
		"track": 5
	},
	{
		"deltaTime": 0,
		"channel": 9,
		"type": "channel",
		"subtype": "noteOff",
		"noteNumber": 36,
		"velocity": 0,
		"time": 64620,
		"track": 5
	},
	{
		"deltaTime": 60,
		"channel": 9,
		"type": "channel",
		"subtype": "noteOff",
		"noteNumber": 42,
		"velocity": 0,
		"time": 64620,
		"track": 5
	},
	{
		"deltaTime": 0,
		"channel": 1,
		"type": "channel",
		"subtype": "noteOff",
		"noteNumber": 64,
		"velocity": 0,
		"time": 64680,
		"track": 3
	},
	{
		"deltaTime": 0,
		"channel": 1,
		"type": "channel",
		"noteNumber": 61,
		"velocity": 127,
		"subtype": "noteOn",
		"time": 64680,
		"track": 3
	},
	{
		"deltaTime": 0,
		"channel": 2,
		"type": "channel",
		"subtype": "noteOff",
		"noteNumber": 56,
		"velocity": 0,
		"time": 64680,
		"track": 4
	},
	{
		"deltaTime": 0,
		"channel": 2,
		"type": "channel",
		"subtype": "noteOff",
		"noteNumber": 52,
		"velocity": 0,
		"time": 64680,
		"track": 4
	},
	{
		"deltaTime": 0,
		"channel": 2,
		"type": "channel",
		"subtype": "noteOff",
		"noteNumber": 47,
		"velocity": 0,
		"time": 64680,
		"track": 4
	},
	{
		"deltaTime": 0,
		"channel": 2,
		"type": "channel",
		"subtype": "noteOff",
		"noteNumber": 40,
		"velocity": 0,
		"time": 64680,
		"track": 4
	},
	{
		"deltaTime": 0,
		"channel": 2,
		"type": "channel",
		"noteNumber": 52,
		"velocity": 127,
		"subtype": "noteOn",
		"time": 64680,
		"track": 4
	},
	{
		"deltaTime": 0,
		"channel": 2,
		"type": "channel",
		"noteNumber": 56,
		"velocity": 127,
		"subtype": "noteOn",
		"time": 64680,
		"track": 4
	},
	{
		"deltaTime": 60,
		"channel": 9,
		"type": "channel",
		"noteNumber": 42,
		"velocity": 127,
		"subtype": "noteOn",
		"time": 64680,
		"track": 5
	},
	{
		"deltaTime": 60,
		"channel": 9,
		"type": "channel",
		"subtype": "noteOff",
		"noteNumber": 42,
		"velocity": 0,
		"time": 64740,
		"track": 5
	},
	{
		"deltaTime": 0,
		"channel": 2,
		"type": "channel",
		"subtype": "noteOff",
		"noteNumber": 56,
		"velocity": 0,
		"time": 64800,
		"track": 4
	},
	{
		"deltaTime": 0,
		"channel": 2,
		"type": "channel",
		"subtype": "noteOff",
		"noteNumber": 52,
		"velocity": 0,
		"time": 64800,
		"track": 4
	},
	{
		"deltaTime": 0,
		"channel": 2,
		"type": "channel",
		"noteNumber": 40,
		"velocity": 127,
		"subtype": "noteOn",
		"time": 64800,
		"track": 4
	},
	{
		"deltaTime": 0,
		"channel": 2,
		"type": "channel",
		"noteNumber": 52,
		"velocity": 127,
		"subtype": "noteOn",
		"time": 64800,
		"track": 4
	},
	{
		"deltaTime": 0,
		"channel": 2,
		"type": "channel",
		"noteNumber": 56,
		"velocity": 127,
		"subtype": "noteOn",
		"time": 64800,
		"track": 4
	},
	{
		"deltaTime": 0,
		"channel": 2,
		"type": "channel",
		"noteNumber": 59,
		"velocity": 127,
		"subtype": "noteOn",
		"time": 64800,
		"track": 4
	},
	{
		"deltaTime": 0,
		"channel": 9,
		"type": "channel",
		"noteNumber": 42,
		"velocity": 127,
		"subtype": "noteOn",
		"time": 64800,
		"track": 5
	},
	{
		"deltaTime": 0,
		"channel": 9,
		"type": "channel",
		"noteNumber": 40,
		"velocity": 127,
		"subtype": "noteOn",
		"time": 64800,
		"track": 5
	},
	{
		"deltaTime": 60,
		"channel": 9,
		"type": "channel",
		"noteNumber": 38,
		"velocity": 127,
		"subtype": "noteOn",
		"time": 64800,
		"track": 5
	},
	{
		"deltaTime": 0,
		"channel": 9,
		"type": "channel",
		"subtype": "noteOff",
		"noteNumber": 38,
		"velocity": 0,
		"time": 64860,
		"track": 5
	},
	{
		"deltaTime": 0,
		"channel": 9,
		"type": "channel",
		"subtype": "noteOff",
		"noteNumber": 40,
		"velocity": 0,
		"time": 64860,
		"track": 5
	},
	{
		"deltaTime": 60,
		"channel": 9,
		"type": "channel",
		"subtype": "noteOff",
		"noteNumber": 42,
		"velocity": 0,
		"time": 64860,
		"track": 5
	},
	{
		"deltaTime": 0,
		"channel": 1,
		"type": "channel",
		"subtype": "noteOff",
		"noteNumber": 61,
		"velocity": 0,
		"time": 64920,
		"track": 3
	},
	{
		"deltaTime": 0,
		"channel": 1,
		"type": "channel",
		"noteNumber": 59,
		"velocity": 127,
		"subtype": "noteOn",
		"time": 64920,
		"track": 3
	},
	{
		"deltaTime": 60,
		"channel": 9,
		"type": "channel",
		"noteNumber": 42,
		"velocity": 127,
		"subtype": "noteOn",
		"time": 64920,
		"track": 5
	},
	{
		"deltaTime": 60,
		"channel": 9,
		"type": "channel",
		"subtype": "noteOff",
		"noteNumber": 42,
		"velocity": 0,
		"time": 64980,
		"track": 5
	},
	{
		"deltaTime": 60,
		"channel": 9,
		"type": "channel",
		"noteNumber": 42,
		"velocity": 127,
		"subtype": "noteOn",
		"time": 65040,
		"track": 5
	},
	{
		"deltaTime": 60,
		"channel": 9,
		"type": "channel",
		"subtype": "noteOff",
		"noteNumber": 42,
		"velocity": 0,
		"time": 65100,
		"track": 5
	},
	{
		"deltaTime": 0,
		"channel": 1,
		"type": "channel",
		"subtype": "noteOff",
		"noteNumber": 59,
		"velocity": 0,
		"time": 65160,
		"track": 3
	},
	{
		"deltaTime": 0,
		"channel": 1,
		"type": "channel",
		"noteNumber": 63,
		"velocity": 127,
		"subtype": "noteOn",
		"time": 65160,
		"track": 3
	},
	{
		"deltaTime": 60,
		"channel": 9,
		"type": "channel",
		"noteNumber": 42,
		"velocity": 127,
		"subtype": "noteOn",
		"time": 65160,
		"track": 5
	},
	{
		"deltaTime": 60,
		"channel": 9,
		"type": "channel",
		"subtype": "noteOff",
		"noteNumber": 42,
		"velocity": 0,
		"time": 65220,
		"track": 5
	},
	{
		"deltaTime": 0,
		"channel": 0,
		"type": "channel",
		"subtype": "noteOff",
		"noteNumber": 40,
		"velocity": 0,
		"time": 65280,
		"track": 2
	},
	{
		"deltaTime": 0,
		"channel": 0,
		"type": "channel",
		"noteNumber": 42,
		"velocity": 127,
		"subtype": "noteOn",
		"time": 65280,
		"track": 2
	},
	{
		"deltaTime": 0,
		"channel": 1,
		"type": "channel",
		"subtype": "noteOff",
		"noteNumber": 63,
		"velocity": 0,
		"time": 65280,
		"track": 3
	},
	{
		"deltaTime": 0,
		"channel": 1,
		"type": "channel",
		"noteNumber": 59,
		"velocity": 127,
		"subtype": "noteOn",
		"time": 65280,
		"track": 3
	},
	{
		"deltaTime": 0,
		"channel": 2,
		"type": "channel",
		"subtype": "noteOff",
		"noteNumber": 59,
		"velocity": 0,
		"time": 65280,
		"track": 4
	},
	{
		"deltaTime": 0,
		"channel": 2,
		"type": "channel",
		"subtype": "noteOff",
		"noteNumber": 56,
		"velocity": 0,
		"time": 65280,
		"track": 4
	},
	{
		"deltaTime": 0,
		"channel": 2,
		"type": "channel",
		"subtype": "noteOff",
		"noteNumber": 52,
		"velocity": 0,
		"time": 65280,
		"track": 4
	},
	{
		"deltaTime": 0,
		"channel": 2,
		"type": "channel",
		"subtype": "noteOff",
		"noteNumber": 40,
		"velocity": 0,
		"time": 65280,
		"track": 4
	},
	{
		"deltaTime": 0,
		"channel": 2,
		"type": "channel",
		"noteNumber": 42,
		"velocity": 127,
		"subtype": "noteOn",
		"time": 65280,
		"track": 4
	},
	{
		"deltaTime": 0,
		"channel": 2,
		"type": "channel",
		"noteNumber": 49,
		"velocity": 127,
		"subtype": "noteOn",
		"time": 65280,
		"track": 4
	},
	{
		"deltaTime": 0,
		"channel": 2,
		"type": "channel",
		"noteNumber": 54,
		"velocity": 127,
		"subtype": "noteOn",
		"time": 65280,
		"track": 4
	},
	{
		"deltaTime": 0,
		"channel": 2,
		"type": "channel",
		"noteNumber": 58,
		"velocity": 127,
		"subtype": "noteOn",
		"time": 65280,
		"track": 4
	},
	{
		"deltaTime": 0,
		"channel": 9,
		"type": "channel",
		"noteNumber": 42,
		"velocity": 127,
		"subtype": "noteOn",
		"time": 65280,
		"track": 5
	},
	{
		"deltaTime": 0,
		"channel": 9,
		"type": "channel",
		"noteNumber": 35,
		"velocity": 127,
		"subtype": "noteOn",
		"time": 65280,
		"track": 5
	},
	{
		"deltaTime": 60,
		"channel": 9,
		"type": "channel",
		"noteNumber": 36,
		"velocity": 127,
		"subtype": "noteOn",
		"time": 65280,
		"track": 5
	},
	{
		"deltaTime": 0,
		"channel": 9,
		"type": "channel",
		"subtype": "noteOff",
		"noteNumber": 36,
		"velocity": 0,
		"time": 65340,
		"track": 5
	},
	{
		"deltaTime": 0,
		"channel": 9,
		"type": "channel",
		"subtype": "noteOff",
		"noteNumber": 35,
		"velocity": 0,
		"time": 65340,
		"track": 5
	},
	{
		"deltaTime": 60,
		"channel": 9,
		"type": "channel",
		"subtype": "noteOff",
		"noteNumber": 42,
		"velocity": 0,
		"time": 65340,
		"track": 5
	},
	{
		"deltaTime": 0,
		"channel": 1,
		"type": "channel",
		"subtype": "noteOff",
		"noteNumber": 59,
		"velocity": 0,
		"time": 65400,
		"track": 3
	},
	{
		"deltaTime": 0,
		"channel": 1,
		"type": "channel",
		"noteNumber": 61,
		"velocity": 127,
		"subtype": "noteOn",
		"time": 65400,
		"track": 3
	},
	{
		"deltaTime": 60,
		"channel": 9,
		"type": "channel",
		"noteNumber": 42,
		"velocity": 127,
		"subtype": "noteOn",
		"time": 65400,
		"track": 5
	},
	{
		"deltaTime": 60,
		"channel": 9,
		"type": "channel",
		"subtype": "noteOff",
		"noteNumber": 42,
		"velocity": 0,
		"time": 65460,
		"track": 5
	},
	{
		"deltaTime": 0,
		"channel": 9,
		"type": "channel",
		"noteNumber": 42,
		"velocity": 127,
		"subtype": "noteOn",
		"time": 65520,
		"track": 5
	},
	{
		"deltaTime": 0,
		"channel": 9,
		"type": "channel",
		"noteNumber": 36,
		"velocity": 127,
		"subtype": "noteOn",
		"time": 65520,
		"track": 5
	},
	{
		"deltaTime": 60,
		"channel": 9,
		"type": "channel",
		"noteNumber": 35,
		"velocity": 127,
		"subtype": "noteOn",
		"time": 65520,
		"track": 5
	},
	{
		"deltaTime": 0,
		"channel": 9,
		"type": "channel",
		"subtype": "noteOff",
		"noteNumber": 35,
		"velocity": 0,
		"time": 65580,
		"track": 5
	},
	{
		"deltaTime": 0,
		"channel": 9,
		"type": "channel",
		"subtype": "noteOff",
		"noteNumber": 36,
		"velocity": 0,
		"time": 65580,
		"track": 5
	},
	{
		"deltaTime": 60,
		"channel": 9,
		"type": "channel",
		"subtype": "noteOff",
		"noteNumber": 42,
		"velocity": 0,
		"time": 65580,
		"track": 5
	},
	{
		"deltaTime": 0,
		"channel": 2,
		"type": "channel",
		"subtype": "noteOff",
		"noteNumber": 58,
		"velocity": 0,
		"time": 65640,
		"track": 4
	},
	{
		"deltaTime": 0,
		"channel": 2,
		"type": "channel",
		"subtype": "noteOff",
		"noteNumber": 54,
		"velocity": 0,
		"time": 65640,
		"track": 4
	},
	{
		"deltaTime": 0,
		"channel": 2,
		"type": "channel",
		"subtype": "noteOff",
		"noteNumber": 49,
		"velocity": 0,
		"time": 65640,
		"track": 4
	},
	{
		"deltaTime": 0,
		"channel": 2,
		"type": "channel",
		"subtype": "noteOff",
		"noteNumber": 42,
		"velocity": 0,
		"time": 65640,
		"track": 4
	},
	{
		"deltaTime": 0,
		"channel": 2,
		"type": "channel",
		"noteNumber": 54,
		"velocity": 127,
		"subtype": "noteOn",
		"time": 65640,
		"track": 4
	},
	{
		"deltaTime": 0,
		"channel": 2,
		"type": "channel",
		"noteNumber": 58,
		"velocity": 127,
		"subtype": "noteOn",
		"time": 65640,
		"track": 4
	},
	{
		"deltaTime": 60,
		"channel": 9,
		"type": "channel",
		"noteNumber": 42,
		"velocity": 127,
		"subtype": "noteOn",
		"time": 65640,
		"track": 5
	},
	{
		"deltaTime": 60,
		"channel": 9,
		"type": "channel",
		"subtype": "noteOff",
		"noteNumber": 42,
		"velocity": 0,
		"time": 65700,
		"track": 5
	},
	{
		"deltaTime": 0,
		"channel": 2,
		"type": "channel",
		"subtype": "noteOff",
		"noteNumber": 58,
		"velocity": 0,
		"time": 65760,
		"track": 4
	},
	{
		"deltaTime": 0,
		"channel": 2,
		"type": "channel",
		"subtype": "noteOff",
		"noteNumber": 54,
		"velocity": 0,
		"time": 65760,
		"track": 4
	},
	{
		"deltaTime": 0,
		"channel": 2,
		"type": "channel",
		"noteNumber": 42,
		"velocity": 127,
		"subtype": "noteOn",
		"time": 65760,
		"track": 4
	},
	{
		"deltaTime": 0,
		"channel": 2,
		"type": "channel",
		"noteNumber": 49,
		"velocity": 127,
		"subtype": "noteOn",
		"time": 65760,
		"track": 4
	},
	{
		"deltaTime": 0,
		"channel": 2,
		"type": "channel",
		"noteNumber": 58,
		"velocity": 127,
		"subtype": "noteOn",
		"time": 65760,
		"track": 4
	},
	{
		"deltaTime": 0,
		"channel": 2,
		"type": "channel",
		"noteNumber": 61,
		"velocity": 127,
		"subtype": "noteOn",
		"time": 65760,
		"track": 4
	},
	{
		"deltaTime": 0,
		"channel": 9,
		"type": "channel",
		"noteNumber": 42,
		"velocity": 127,
		"subtype": "noteOn",
		"time": 65760,
		"track": 5
	},
	{
		"deltaTime": 0,
		"channel": 9,
		"type": "channel",
		"noteNumber": 38,
		"velocity": 127,
		"subtype": "noteOn",
		"time": 65760,
		"track": 5
	},
	{
		"deltaTime": 60,
		"channel": 9,
		"type": "channel",
		"noteNumber": 40,
		"velocity": 127,
		"subtype": "noteOn",
		"time": 65760,
		"track": 5
	},
	{
		"deltaTime": 0,
		"channel": 9,
		"type": "channel",
		"subtype": "noteOff",
		"noteNumber": 40,
		"velocity": 0,
		"time": 65820,
		"track": 5
	},
	{
		"deltaTime": 0,
		"channel": 9,
		"type": "channel",
		"subtype": "noteOff",
		"noteNumber": 38,
		"velocity": 0,
		"time": 65820,
		"track": 5
	},
	{
		"deltaTime": 60,
		"channel": 9,
		"type": "channel",
		"subtype": "noteOff",
		"noteNumber": 42,
		"velocity": 0,
		"time": 65820,
		"track": 5
	},
	{
		"deltaTime": 60,
		"channel": 9,
		"type": "channel",
		"noteNumber": 42,
		"velocity": 127,
		"subtype": "noteOn",
		"time": 65880,
		"track": 5
	},
	{
		"deltaTime": 60,
		"channel": 9,
		"type": "channel",
		"subtype": "noteOff",
		"noteNumber": 42,
		"velocity": 0,
		"time": 65940,
		"track": 5
	},
	{
		"deltaTime": 60,
		"channel": 9,
		"type": "channel",
		"noteNumber": 42,
		"velocity": 127,
		"subtype": "noteOn",
		"time": 66000,
		"track": 5
	},
	{
		"deltaTime": 60,
		"channel": 9,
		"type": "channel",
		"subtype": "noteOff",
		"noteNumber": 42,
		"velocity": 0,
		"time": 66060,
		"track": 5
	},
	{
		"deltaTime": 0,
		"channel": 1,
		"type": "channel",
		"subtype": "noteOff",
		"noteNumber": 61,
		"velocity": 0,
		"time": 66120,
		"track": 3
	},
	{
		"deltaTime": 0,
		"channel": 1,
		"type": "channel",
		"noteNumber": 58,
		"velocity": 127,
		"subtype": "noteOn",
		"time": 66120,
		"track": 3
	},
	{
		"deltaTime": 0,
		"channel": 9,
		"type": "channel",
		"noteNumber": 42,
		"velocity": 127,
		"subtype": "noteOn",
		"time": 66120,
		"track": 5
	},
	{
		"deltaTime": 0,
		"channel": 9,
		"type": "channel",
		"noteNumber": 36,
		"velocity": 127,
		"subtype": "noteOn",
		"time": 66120,
		"track": 5
	},
	{
		"deltaTime": 60,
		"channel": 9,
		"type": "channel",
		"noteNumber": 35,
		"velocity": 127,
		"subtype": "noteOn",
		"time": 66120,
		"track": 5
	},
	{
		"deltaTime": 0,
		"channel": 9,
		"type": "channel",
		"subtype": "noteOff",
		"noteNumber": 35,
		"velocity": 0,
		"time": 66180,
		"track": 5
	},
	{
		"deltaTime": 0,
		"channel": 9,
		"type": "channel",
		"subtype": "noteOff",
		"noteNumber": 36,
		"velocity": 0,
		"time": 66180,
		"track": 5
	},
	{
		"deltaTime": 60,
		"channel": 9,
		"type": "channel",
		"subtype": "noteOff",
		"noteNumber": 42,
		"velocity": 0,
		"time": 66180,
		"track": 5
	},
	{
		"deltaTime": 0,
		"channel": 0,
		"type": "channel",
		"subtype": "noteOff",
		"noteNumber": 42,
		"velocity": 0,
		"time": 66240,
		"track": 2
	},
	{
		"deltaTime": 0,
		"channel": 0,
		"type": "channel",
		"noteNumber": 35,
		"velocity": 127,
		"subtype": "noteOn",
		"time": 66240,
		"track": 2
	},
	{
		"deltaTime": 0,
		"channel": 1,
		"type": "channel",
		"subtype": "noteOff",
		"noteNumber": 58,
		"velocity": 0,
		"time": 66240,
		"track": 3
	},
	{
		"deltaTime": 0,
		"channel": 1,
		"type": "channel",
		"noteNumber": 59,
		"velocity": 127,
		"subtype": "noteOn",
		"time": 66240,
		"track": 3
	},
	{
		"deltaTime": 0,
		"channel": 2,
		"type": "channel",
		"subtype": "noteOff",
		"noteNumber": 61,
		"velocity": 0,
		"time": 66240,
		"track": 4
	},
	{
		"deltaTime": 0,
		"channel": 2,
		"type": "channel",
		"subtype": "noteOff",
		"noteNumber": 58,
		"velocity": 0,
		"time": 66240,
		"track": 4
	},
	{
		"deltaTime": 0,
		"channel": 2,
		"type": "channel",
		"subtype": "noteOff",
		"noteNumber": 49,
		"velocity": 0,
		"time": 66240,
		"track": 4
	},
	{
		"deltaTime": 0,
		"channel": 2,
		"type": "channel",
		"subtype": "noteOff",
		"noteNumber": 42,
		"velocity": 0,
		"time": 66240,
		"track": 4
	},
	{
		"deltaTime": 0,
		"channel": 2,
		"type": "channel",
		"noteNumber": 47,
		"velocity": 127,
		"subtype": "noteOn",
		"time": 66240,
		"track": 4
	},
	{
		"deltaTime": 0,
		"channel": 2,
		"type": "channel",
		"noteNumber": 54,
		"velocity": 127,
		"subtype": "noteOn",
		"time": 66240,
		"track": 4
	},
	{
		"deltaTime": 0,
		"channel": 2,
		"type": "channel",
		"noteNumber": 59,
		"velocity": 127,
		"subtype": "noteOn",
		"time": 66240,
		"track": 4
	},
	{
		"deltaTime": 0,
		"channel": 2,
		"type": "channel",
		"noteNumber": 66,
		"velocity": 127,
		"subtype": "noteOn",
		"time": 66240,
		"track": 4
	},
	{
		"deltaTime": 60,
		"channel": 9,
		"type": "channel",
		"noteNumber": 42,
		"velocity": 127,
		"subtype": "noteOn",
		"time": 66240,
		"track": 5
	},
	{
		"deltaTime": 60,
		"channel": 9,
		"type": "channel",
		"subtype": "noteOff",
		"noteNumber": 42,
		"velocity": 0,
		"time": 66300,
		"track": 5
	},
	{
		"deltaTime": 60,
		"channel": 9,
		"type": "channel",
		"noteNumber": 42,
		"velocity": 127,
		"subtype": "noteOn",
		"time": 66360,
		"track": 5
	},
	{
		"deltaTime": 60,
		"channel": 9,
		"type": "channel",
		"subtype": "noteOff",
		"noteNumber": 42,
		"velocity": 0,
		"time": 66420,
		"track": 5
	},
	{
		"deltaTime": 0,
		"channel": 1,
		"type": "channel",
		"subtype": "noteOff",
		"noteNumber": 59,
		"velocity": 0,
		"time": 66480,
		"track": 3
	},
	{
		"deltaTime": 0,
		"channel": 1,
		"type": "channel",
		"noteNumber": 63,
		"velocity": 127,
		"subtype": "noteOn",
		"time": 66480,
		"track": 3
	},
	{
		"deltaTime": 0,
		"channel": 2,
		"type": "channel",
		"subtype": "noteOff",
		"noteNumber": 66,
		"velocity": 0,
		"time": 66480,
		"track": 4
	},
	{
		"deltaTime": 0,
		"channel": 2,
		"type": "channel",
		"subtype": "noteOff",
		"noteNumber": 59,
		"velocity": 0,
		"time": 66480,
		"track": 4
	},
	{
		"deltaTime": 0,
		"channel": 2,
		"type": "channel",
		"subtype": "noteOff",
		"noteNumber": 54,
		"velocity": 0,
		"time": 66480,
		"track": 4
	},
	{
		"deltaTime": 0,
		"channel": 2,
		"type": "channel",
		"subtype": "noteOff",
		"noteNumber": 47,
		"velocity": 0,
		"time": 66480,
		"track": 4
	},
	{
		"deltaTime": 0,
		"channel": 2,
		"type": "channel",
		"noteNumber": 54,
		"velocity": 127,
		"subtype": "noteOn",
		"time": 66480,
		"track": 4
	},
	{
		"deltaTime": 0,
		"channel": 2,
		"type": "channel",
		"noteNumber": 59,
		"velocity": 127,
		"subtype": "noteOn",
		"time": 66480,
		"track": 4
	},
	{
		"deltaTime": 0,
		"channel": 2,
		"type": "channel",
		"noteNumber": 63,
		"velocity": 127,
		"subtype": "noteOn",
		"time": 66480,
		"track": 4
	},
	{
		"deltaTime": 0,
		"channel": 9,
		"type": "channel",
		"noteNumber": 42,
		"velocity": 127,
		"subtype": "noteOn",
		"time": 66480,
		"track": 5
	},
	{
		"deltaTime": 0,
		"channel": 9,
		"type": "channel",
		"noteNumber": 36,
		"velocity": 127,
		"subtype": "noteOn",
		"time": 66480,
		"track": 5
	},
	{
		"deltaTime": 60,
		"channel": 9,
		"type": "channel",
		"noteNumber": 35,
		"velocity": 127,
		"subtype": "noteOn",
		"time": 66480,
		"track": 5
	},
	{
		"deltaTime": 0,
		"channel": 9,
		"type": "channel",
		"subtype": "noteOff",
		"noteNumber": 35,
		"velocity": 0,
		"time": 66540,
		"track": 5
	},
	{
		"deltaTime": 0,
		"channel": 9,
		"type": "channel",
		"subtype": "noteOff",
		"noteNumber": 36,
		"velocity": 0,
		"time": 66540,
		"track": 5
	},
	{
		"deltaTime": 60,
		"channel": 9,
		"type": "channel",
		"subtype": "noteOff",
		"noteNumber": 42,
		"velocity": 0,
		"time": 66540,
		"track": 5
	},
	{
		"deltaTime": 0,
		"channel": 1,
		"type": "channel",
		"subtype": "noteOff",
		"noteNumber": 63,
		"velocity": 0,
		"time": 66600,
		"track": 3
	},
	{
		"deltaTime": 0,
		"channel": 1,
		"type": "channel",
		"noteNumber": 58,
		"velocity": 127,
		"subtype": "noteOn",
		"time": 66600,
		"track": 3
	},
	{
		"deltaTime": 60,
		"channel": 9,
		"type": "channel",
		"noteNumber": 42,
		"velocity": 127,
		"subtype": "noteOn",
		"time": 66600,
		"track": 5
	},
	{
		"deltaTime": 60,
		"channel": 9,
		"type": "channel",
		"subtype": "noteOff",
		"noteNumber": 42,
		"velocity": 0,
		"time": 66660,
		"track": 5
	},
	{
		"deltaTime": 0,
		"channel": 0,
		"type": "channel",
		"subtype": "noteOff",
		"noteNumber": 35,
		"velocity": 0,
		"time": 66720,
		"track": 2
	},
	{
		"deltaTime": 0,
		"channel": 0,
		"type": "channel",
		"noteNumber": 34,
		"velocity": 127,
		"subtype": "noteOn",
		"time": 66720,
		"track": 2
	},
	{
		"deltaTime": 0,
		"channel": 2,
		"type": "channel",
		"subtype": "noteOff",
		"noteNumber": 63,
		"velocity": 0,
		"time": 66720,
		"track": 4
	},
	{
		"deltaTime": 0,
		"channel": 2,
		"type": "channel",
		"subtype": "noteOff",
		"noteNumber": 59,
		"velocity": 0,
		"time": 66720,
		"track": 4
	},
	{
		"deltaTime": 0,
		"channel": 2,
		"type": "channel",
		"subtype": "noteOff",
		"noteNumber": 54,
		"velocity": 0,
		"time": 66720,
		"track": 4
	},
	{
		"deltaTime": 0,
		"channel": 2,
		"type": "channel",
		"noteNumber": 46,
		"velocity": 127,
		"subtype": "noteOn",
		"time": 66720,
		"track": 4
	},
	{
		"deltaTime": 0,
		"channel": 2,
		"type": "channel",
		"noteNumber": 54,
		"velocity": 127,
		"subtype": "noteOn",
		"time": 66720,
		"track": 4
	},
	{
		"deltaTime": 0,
		"channel": 9,
		"type": "channel",
		"noteNumber": 42,
		"velocity": 127,
		"subtype": "noteOn",
		"time": 66720,
		"track": 5
	},
	{
		"deltaTime": 0,
		"channel": 9,
		"type": "channel",
		"noteNumber": 40,
		"velocity": 127,
		"subtype": "noteOn",
		"time": 66720,
		"track": 5
	},
	{
		"deltaTime": 60,
		"channel": 9,
		"type": "channel",
		"noteNumber": 38,
		"velocity": 127,
		"subtype": "noteOn",
		"time": 66720,
		"track": 5
	},
	{
		"deltaTime": 0,
		"channel": 9,
		"type": "channel",
		"subtype": "noteOff",
		"noteNumber": 38,
		"velocity": 0,
		"time": 66780,
		"track": 5
	},
	{
		"deltaTime": 0,
		"channel": 9,
		"type": "channel",
		"subtype": "noteOff",
		"noteNumber": 40,
		"velocity": 0,
		"time": 66780,
		"track": 5
	},
	{
		"deltaTime": 60,
		"channel": 9,
		"type": "channel",
		"subtype": "noteOff",
		"noteNumber": 42,
		"velocity": 0,
		"time": 66780,
		"track": 5
	},
	{
		"deltaTime": 60,
		"channel": 9,
		"type": "channel",
		"noteNumber": 42,
		"velocity": 127,
		"subtype": "noteOn",
		"time": 66840,
		"track": 5
	},
	{
		"deltaTime": 60,
		"channel": 9,
		"type": "channel",
		"subtype": "noteOff",
		"noteNumber": 42,
		"velocity": 0,
		"time": 66900,
		"track": 5
	},
	{
		"deltaTime": 0,
		"channel": 1,
		"type": "channel",
		"subtype": "noteOff",
		"noteNumber": 58,
		"velocity": 0,
		"time": 66960,
		"track": 3
	},
	{
		"deltaTime": 0,
		"channel": 1,
		"type": "channel",
		"noteNumber": 63,
		"velocity": 127,
		"subtype": "noteOn",
		"time": 66960,
		"track": 3
	},
	{
		"deltaTime": 0,
		"channel": 2,
		"type": "channel",
		"subtype": "noteOff",
		"noteNumber": 54,
		"velocity": 0,
		"time": 66960,
		"track": 4
	},
	{
		"deltaTime": 0,
		"channel": 2,
		"type": "channel",
		"subtype": "noteOff",
		"noteNumber": 46,
		"velocity": 0,
		"time": 66960,
		"track": 4
	},
	{
		"deltaTime": 0,
		"channel": 2,
		"type": "channel",
		"noteNumber": 54,
		"velocity": 127,
		"subtype": "noteOn",
		"time": 66960,
		"track": 4
	},
	{
		"deltaTime": 0,
		"channel": 2,
		"type": "channel",
		"noteNumber": 59,
		"velocity": 127,
		"subtype": "noteOn",
		"time": 66960,
		"track": 4
	},
	{
		"deltaTime": 0,
		"channel": 2,
		"type": "channel",
		"noteNumber": 63,
		"velocity": 127,
		"subtype": "noteOn",
		"time": 66960,
		"track": 4
	},
	{
		"deltaTime": 60,
		"channel": 9,
		"type": "channel",
		"noteNumber": 42,
		"velocity": 127,
		"subtype": "noteOn",
		"time": 66960,
		"track": 5
	},
	{
		"deltaTime": 60,
		"channel": 9,
		"type": "channel",
		"subtype": "noteOff",
		"noteNumber": 42,
		"velocity": 0,
		"time": 67020,
		"track": 5
	},
	{
		"deltaTime": 0,
		"channel": 1,
		"type": "channel",
		"subtype": "noteOff",
		"noteNumber": 63,
		"velocity": 0,
		"time": 67080,
		"track": 3
	},
	{
		"deltaTime": 0,
		"channel": 1,
		"type": "channel",
		"noteNumber": 56,
		"velocity": 127,
		"subtype": "noteOn",
		"time": 67080,
		"track": 3
	},
	{
		"deltaTime": 60,
		"channel": 9,
		"type": "channel",
		"noteNumber": 42,
		"velocity": 127,
		"subtype": "noteOn",
		"time": 67080,
		"track": 5
	},
	{
		"deltaTime": 60,
		"channel": 9,
		"type": "channel",
		"subtype": "noteOff",
		"noteNumber": 42,
		"velocity": 0,
		"time": 67140,
		"track": 5
	},
	{
		"deltaTime": 0,
		"channel": 0,
		"type": "channel",
		"subtype": "noteOff",
		"noteNumber": 34,
		"velocity": 0,
		"time": 67200,
		"track": 2
	},
	{
		"deltaTime": 0,
		"channel": 0,
		"type": "channel",
		"noteNumber": 32,
		"velocity": 127,
		"subtype": "noteOn",
		"time": 67200,
		"track": 2
	},
	{
		"deltaTime": 0,
		"channel": 2,
		"type": "channel",
		"subtype": "noteOff",
		"noteNumber": 63,
		"velocity": 0,
		"time": 67200,
		"track": 4
	},
	{
		"deltaTime": 0,
		"channel": 2,
		"type": "channel",
		"subtype": "noteOff",
		"noteNumber": 59,
		"velocity": 0,
		"time": 67200,
		"track": 4
	},
	{
		"deltaTime": 0,
		"channel": 2,
		"type": "channel",
		"subtype": "noteOff",
		"noteNumber": 54,
		"velocity": 0,
		"time": 67200,
		"track": 4
	},
	{
		"deltaTime": 0,
		"channel": 2,
		"type": "channel",
		"noteNumber": 44,
		"velocity": 127,
		"subtype": "noteOn",
		"time": 67200,
		"track": 4
	},
	{
		"deltaTime": 0,
		"channel": 2,
		"type": "channel",
		"noteNumber": 51,
		"velocity": 127,
		"subtype": "noteOn",
		"time": 67200,
		"track": 4
	},
	{
		"deltaTime": 0,
		"channel": 2,
		"type": "channel",
		"noteNumber": 56,
		"velocity": 127,
		"subtype": "noteOn",
		"time": 67200,
		"track": 4
	},
	{
		"deltaTime": 0,
		"channel": 2,
		"type": "channel",
		"noteNumber": 59,
		"velocity": 127,
		"subtype": "noteOn",
		"time": 67200,
		"track": 4
	},
	{
		"deltaTime": 0,
		"channel": 2,
		"type": "channel",
		"noteNumber": 63,
		"velocity": 127,
		"subtype": "noteOn",
		"time": 67200,
		"track": 4
	},
	{
		"deltaTime": 0,
		"channel": 9,
		"type": "channel",
		"noteNumber": 42,
		"velocity": 127,
		"subtype": "noteOn",
		"time": 67200,
		"track": 5
	},
	{
		"deltaTime": 0,
		"channel": 9,
		"type": "channel",
		"noteNumber": 35,
		"velocity": 127,
		"subtype": "noteOn",
		"time": 67200,
		"track": 5
	},
	{
		"deltaTime": 60,
		"channel": 9,
		"type": "channel",
		"noteNumber": 36,
		"velocity": 127,
		"subtype": "noteOn",
		"time": 67200,
		"track": 5
	},
	{
		"deltaTime": 0,
		"channel": 9,
		"type": "channel",
		"subtype": "noteOff",
		"noteNumber": 36,
		"velocity": 0,
		"time": 67260,
		"track": 5
	},
	{
		"deltaTime": 0,
		"channel": 9,
		"type": "channel",
		"subtype": "noteOff",
		"noteNumber": 35,
		"velocity": 0,
		"time": 67260,
		"track": 5
	},
	{
		"deltaTime": 60,
		"channel": 9,
		"type": "channel",
		"subtype": "noteOff",
		"noteNumber": 42,
		"velocity": 0,
		"time": 67260,
		"track": 5
	},
	{
		"deltaTime": 60,
		"channel": 9,
		"type": "channel",
		"noteNumber": 42,
		"velocity": 127,
		"subtype": "noteOn",
		"time": 67320,
		"track": 5
	},
	{
		"deltaTime": 60,
		"channel": 9,
		"type": "channel",
		"subtype": "noteOff",
		"noteNumber": 42,
		"velocity": 0,
		"time": 67380,
		"track": 5
	},
	{
		"deltaTime": 0,
		"channel": 1,
		"type": "channel",
		"subtype": "noteOff",
		"noteNumber": 56,
		"velocity": 0,
		"time": 67440,
		"track": 3
	},
	{
		"deltaTime": 0,
		"channel": 9,
		"type": "channel",
		"noteNumber": 42,
		"velocity": 127,
		"subtype": "noteOn",
		"time": 67440,
		"track": 5
	},
	{
		"deltaTime": 0,
		"channel": 9,
		"type": "channel",
		"noteNumber": 36,
		"velocity": 127,
		"subtype": "noteOn",
		"time": 67440,
		"track": 5
	},
	{
		"deltaTime": 60,
		"channel": 9,
		"type": "channel",
		"noteNumber": 35,
		"velocity": 127,
		"subtype": "noteOn",
		"time": 67440,
		"track": 5
	},
	{
		"deltaTime": 0,
		"channel": 9,
		"type": "channel",
		"subtype": "noteOff",
		"noteNumber": 35,
		"velocity": 0,
		"time": 67500,
		"track": 5
	},
	{
		"deltaTime": 0,
		"channel": 9,
		"type": "channel",
		"subtype": "noteOff",
		"noteNumber": 36,
		"velocity": 0,
		"time": 67500,
		"track": 5
	},
	{
		"deltaTime": 60,
		"channel": 9,
		"type": "channel",
		"subtype": "noteOff",
		"noteNumber": 42,
		"velocity": 0,
		"time": 67500,
		"track": 5
	},
	{
		"deltaTime": 0,
		"channel": 1,
		"type": "channel",
		"noteNumber": 56,
		"velocity": 127,
		"subtype": "noteOn",
		"time": 67560,
		"track": 3
	},
	{
		"deltaTime": 0,
		"channel": 2,
		"type": "channel",
		"subtype": "noteOff",
		"noteNumber": 63,
		"velocity": 0,
		"time": 67560,
		"track": 4
	},
	{
		"deltaTime": 0,
		"channel": 2,
		"type": "channel",
		"subtype": "noteOff",
		"noteNumber": 59,
		"velocity": 0,
		"time": 67560,
		"track": 4
	},
	{
		"deltaTime": 0,
		"channel": 2,
		"type": "channel",
		"subtype": "noteOff",
		"noteNumber": 56,
		"velocity": 0,
		"time": 67560,
		"track": 4
	},
	{
		"deltaTime": 0,
		"channel": 2,
		"type": "channel",
		"subtype": "noteOff",
		"noteNumber": 51,
		"velocity": 0,
		"time": 67560,
		"track": 4
	},
	{
		"deltaTime": 0,
		"channel": 2,
		"type": "channel",
		"subtype": "noteOff",
		"noteNumber": 44,
		"velocity": 0,
		"time": 67560,
		"track": 4
	},
	{
		"deltaTime": 0,
		"channel": 2,
		"type": "channel",
		"noteNumber": 56,
		"velocity": 127,
		"subtype": "noteOn",
		"time": 67560,
		"track": 4
	},
	{
		"deltaTime": 0,
		"channel": 2,
		"type": "channel",
		"noteNumber": 59,
		"velocity": 127,
		"subtype": "noteOn",
		"time": 67560,
		"track": 4
	},
	{
		"deltaTime": 60,
		"channel": 9,
		"type": "channel",
		"noteNumber": 42,
		"velocity": 127,
		"subtype": "noteOn",
		"time": 67560,
		"track": 5
	},
	{
		"deltaTime": 60,
		"channel": 9,
		"type": "channel",
		"subtype": "noteOff",
		"noteNumber": 42,
		"velocity": 0,
		"time": 67620,
		"track": 5
	},
	{
		"deltaTime": 0,
		"channel": 1,
		"type": "channel",
		"subtype": "noteOff",
		"noteNumber": 56,
		"velocity": 0,
		"time": 67680,
		"track": 3
	},
	{
		"deltaTime": 0,
		"channel": 1,
		"type": "channel",
		"noteNumber": 63,
		"velocity": 127,
		"subtype": "noteOn",
		"time": 67680,
		"track": 3
	},
	{
		"deltaTime": 0,
		"channel": 2,
		"type": "channel",
		"subtype": "noteOff",
		"noteNumber": 59,
		"velocity": 0,
		"time": 67680,
		"track": 4
	},
	{
		"deltaTime": 0,
		"channel": 2,
		"type": "channel",
		"subtype": "noteOff",
		"noteNumber": 56,
		"velocity": 0,
		"time": 67680,
		"track": 4
	},
	{
		"deltaTime": 0,
		"channel": 2,
		"type": "channel",
		"noteNumber": 51,
		"velocity": 127,
		"subtype": "noteOn",
		"time": 67680,
		"track": 4
	},
	{
		"deltaTime": 0,
		"channel": 2,
		"type": "channel",
		"noteNumber": 59,
		"velocity": 127,
		"subtype": "noteOn",
		"time": 67680,
		"track": 4
	},
	{
		"deltaTime": 0,
		"channel": 2,
		"type": "channel",
		"noteNumber": 63,
		"velocity": 127,
		"subtype": "noteOn",
		"time": 67680,
		"track": 4
	},
	{
		"deltaTime": 0,
		"channel": 9,
		"type": "channel",
		"noteNumber": 42,
		"velocity": 127,
		"subtype": "noteOn",
		"time": 67680,
		"track": 5
	},
	{
		"deltaTime": 0,
		"channel": 9,
		"type": "channel",
		"noteNumber": 38,
		"velocity": 127,
		"subtype": "noteOn",
		"time": 67680,
		"track": 5
	},
	{
		"deltaTime": 60,
		"channel": 9,
		"type": "channel",
		"noteNumber": 40,
		"velocity": 127,
		"subtype": "noteOn",
		"time": 67680,
		"track": 5
	},
	{
		"deltaTime": 0,
		"channel": 9,
		"type": "channel",
		"subtype": "noteOff",
		"noteNumber": 40,
		"velocity": 0,
		"time": 67740,
		"track": 5
	},
	{
		"deltaTime": 0,
		"channel": 9,
		"type": "channel",
		"subtype": "noteOff",
		"noteNumber": 38,
		"velocity": 0,
		"time": 67740,
		"track": 5
	},
	{
		"deltaTime": 60,
		"channel": 9,
		"type": "channel",
		"subtype": "noteOff",
		"noteNumber": 42,
		"velocity": 0,
		"time": 67740,
		"track": 5
	},
	{
		"deltaTime": 0,
		"channel": 1,
		"type": "channel",
		"subtype": "noteOff",
		"noteNumber": 63,
		"velocity": 0,
		"time": 67800,
		"track": 3
	},
	{
		"deltaTime": 0,
		"channel": 1,
		"type": "channel",
		"noteNumber": 63,
		"velocity": 127,
		"subtype": "noteOn",
		"time": 67800,
		"track": 3
	},
	{
		"deltaTime": 60,
		"channel": 9,
		"type": "channel",
		"noteNumber": 42,
		"velocity": 127,
		"subtype": "noteOn",
		"time": 67800,
		"track": 5
	},
	{
		"deltaTime": 60,
		"channel": 9,
		"type": "channel",
		"subtype": "noteOff",
		"noteNumber": 42,
		"velocity": 0,
		"time": 67860,
		"track": 5
	},
	{
		"deltaTime": 60,
		"channel": 9,
		"type": "channel",
		"noteNumber": 42,
		"velocity": 127,
		"subtype": "noteOn",
		"time": 67920,
		"track": 5
	},
	{
		"deltaTime": 60,
		"channel": 9,
		"type": "channel",
		"subtype": "noteOff",
		"noteNumber": 42,
		"velocity": 0,
		"time": 67980,
		"track": 5
	},
	{
		"deltaTime": 0,
		"channel": 1,
		"type": "channel",
		"subtype": "noteOff",
		"noteNumber": 63,
		"velocity": 0,
		"time": 68040,
		"track": 3
	},
	{
		"deltaTime": 0,
		"channel": 1,
		"type": "channel",
		"noteNumber": 63,
		"velocity": 127,
		"subtype": "noteOn",
		"time": 68040,
		"track": 3
	},
	{
		"deltaTime": 0,
		"channel": 9,
		"type": "channel",
		"noteNumber": 42,
		"velocity": 127,
		"subtype": "noteOn",
		"time": 68040,
		"track": 5
	},
	{
		"deltaTime": 0,
		"channel": 9,
		"type": "channel",
		"noteNumber": 36,
		"velocity": 127,
		"subtype": "noteOn",
		"time": 68040,
		"track": 5
	},
	{
		"deltaTime": 60,
		"channel": 9,
		"type": "channel",
		"noteNumber": 35,
		"velocity": 127,
		"subtype": "noteOn",
		"time": 68040,
		"track": 5
	},
	{
		"deltaTime": 0,
		"channel": 9,
		"type": "channel",
		"subtype": "noteOff",
		"noteNumber": 35,
		"velocity": 0,
		"time": 68100,
		"track": 5
	},
	{
		"deltaTime": 0,
		"channel": 9,
		"type": "channel",
		"subtype": "noteOff",
		"noteNumber": 36,
		"velocity": 0,
		"time": 68100,
		"track": 5
	},
	{
		"deltaTime": 60,
		"channel": 9,
		"type": "channel",
		"subtype": "noteOff",
		"noteNumber": 42,
		"velocity": 0,
		"time": 68100,
		"track": 5
	},
	{
		"deltaTime": 0,
		"channel": 0,
		"type": "channel",
		"subtype": "noteOff",
		"noteNumber": 32,
		"velocity": 0,
		"time": 68160,
		"track": 2
	},
	{
		"deltaTime": 0,
		"channel": 0,
		"type": "channel",
		"noteNumber": 40,
		"velocity": 127,
		"subtype": "noteOn",
		"time": 68160,
		"track": 2
	},
	{
		"deltaTime": 0,
		"channel": 2,
		"type": "channel",
		"subtype": "noteOff",
		"noteNumber": 63,
		"velocity": 0,
		"time": 68160,
		"track": 4
	},
	{
		"deltaTime": 0,
		"channel": 2,
		"type": "channel",
		"subtype": "noteOff",
		"noteNumber": 59,
		"velocity": 0,
		"time": 68160,
		"track": 4
	},
	{
		"deltaTime": 0,
		"channel": 2,
		"type": "channel",
		"subtype": "noteOff",
		"noteNumber": 51,
		"velocity": 0,
		"time": 68160,
		"track": 4
	},
	{
		"deltaTime": 0,
		"channel": 2,
		"type": "channel",
		"noteNumber": 40,
		"velocity": 127,
		"subtype": "noteOn",
		"time": 68160,
		"track": 4
	},
	{
		"deltaTime": 0,
		"channel": 2,
		"type": "channel",
		"noteNumber": 47,
		"velocity": 127,
		"subtype": "noteOn",
		"time": 68160,
		"track": 4
	},
	{
		"deltaTime": 0,
		"channel": 2,
		"type": "channel",
		"noteNumber": 52,
		"velocity": 127,
		"subtype": "noteOn",
		"time": 68160,
		"track": 4
	},
	{
		"deltaTime": 0,
		"channel": 2,
		"type": "channel",
		"noteNumber": 56,
		"velocity": 127,
		"subtype": "noteOn",
		"time": 68160,
		"track": 4
	},
	{
		"deltaTime": 60,
		"channel": 9,
		"type": "channel",
		"noteNumber": 42,
		"velocity": 127,
		"subtype": "noteOn",
		"time": 68160,
		"track": 5
	},
	{
		"deltaTime": 60,
		"channel": 9,
		"type": "channel",
		"subtype": "noteOff",
		"noteNumber": 42,
		"velocity": 0,
		"time": 68220,
		"track": 5
	},
	{
		"deltaTime": 0,
		"channel": 1,
		"type": "channel",
		"subtype": "noteOff",
		"noteNumber": 63,
		"velocity": 0,
		"time": 68280,
		"track": 3
	},
	{
		"deltaTime": 0,
		"channel": 1,
		"type": "channel",
		"noteNumber": 64,
		"velocity": 127,
		"subtype": "noteOn",
		"time": 68280,
		"track": 3
	},
	{
		"deltaTime": 60,
		"channel": 9,
		"type": "channel",
		"noteNumber": 42,
		"velocity": 127,
		"subtype": "noteOn",
		"time": 68280,
		"track": 5
	},
	{
		"deltaTime": 60,
		"channel": 9,
		"type": "channel",
		"subtype": "noteOff",
		"noteNumber": 42,
		"velocity": 0,
		"time": 68340,
		"track": 5
	},
	{
		"deltaTime": 0,
		"channel": 9,
		"type": "channel",
		"noteNumber": 42,
		"velocity": 127,
		"subtype": "noteOn",
		"time": 68400,
		"track": 5
	},
	{
		"deltaTime": 0,
		"channel": 9,
		"type": "channel",
		"noteNumber": 36,
		"velocity": 127,
		"subtype": "noteOn",
		"time": 68400,
		"track": 5
	},
	{
		"deltaTime": 60,
		"channel": 9,
		"type": "channel",
		"noteNumber": 35,
		"velocity": 127,
		"subtype": "noteOn",
		"time": 68400,
		"track": 5
	},
	{
		"deltaTime": 0,
		"channel": 9,
		"type": "channel",
		"subtype": "noteOff",
		"noteNumber": 35,
		"velocity": 0,
		"time": 68460,
		"track": 5
	},
	{
		"deltaTime": 0,
		"channel": 9,
		"type": "channel",
		"subtype": "noteOff",
		"noteNumber": 36,
		"velocity": 0,
		"time": 68460,
		"track": 5
	},
	{
		"deltaTime": 60,
		"channel": 9,
		"type": "channel",
		"subtype": "noteOff",
		"noteNumber": 42,
		"velocity": 0,
		"time": 68460,
		"track": 5
	},
	{
		"deltaTime": 0,
		"channel": 1,
		"type": "channel",
		"subtype": "noteOff",
		"noteNumber": 64,
		"velocity": 0,
		"time": 68520,
		"track": 3
	},
	{
		"deltaTime": 0,
		"channel": 1,
		"type": "channel",
		"noteNumber": 61,
		"velocity": 127,
		"subtype": "noteOn",
		"time": 68520,
		"track": 3
	},
	{
		"deltaTime": 0,
		"channel": 2,
		"type": "channel",
		"subtype": "noteOff",
		"noteNumber": 56,
		"velocity": 0,
		"time": 68520,
		"track": 4
	},
	{
		"deltaTime": 0,
		"channel": 2,
		"type": "channel",
		"subtype": "noteOff",
		"noteNumber": 52,
		"velocity": 0,
		"time": 68520,
		"track": 4
	},
	{
		"deltaTime": 0,
		"channel": 2,
		"type": "channel",
		"subtype": "noteOff",
		"noteNumber": 47,
		"velocity": 0,
		"time": 68520,
		"track": 4
	},
	{
		"deltaTime": 0,
		"channel": 2,
		"type": "channel",
		"subtype": "noteOff",
		"noteNumber": 40,
		"velocity": 0,
		"time": 68520,
		"track": 4
	},
	{
		"deltaTime": 0,
		"channel": 2,
		"type": "channel",
		"noteNumber": 52,
		"velocity": 127,
		"subtype": "noteOn",
		"time": 68520,
		"track": 4
	},
	{
		"deltaTime": 0,
		"channel": 2,
		"type": "channel",
		"noteNumber": 56,
		"velocity": 127,
		"subtype": "noteOn",
		"time": 68520,
		"track": 4
	},
	{
		"deltaTime": 60,
		"channel": 9,
		"type": "channel",
		"noteNumber": 42,
		"velocity": 127,
		"subtype": "noteOn",
		"time": 68520,
		"track": 5
	},
	{
		"deltaTime": 60,
		"channel": 9,
		"type": "channel",
		"subtype": "noteOff",
		"noteNumber": 42,
		"velocity": 0,
		"time": 68580,
		"track": 5
	},
	{
		"deltaTime": 0,
		"channel": 2,
		"type": "channel",
		"subtype": "noteOff",
		"noteNumber": 56,
		"velocity": 0,
		"time": 68640,
		"track": 4
	},
	{
		"deltaTime": 0,
		"channel": 2,
		"type": "channel",
		"subtype": "noteOff",
		"noteNumber": 52,
		"velocity": 0,
		"time": 68640,
		"track": 4
	},
	{
		"deltaTime": 0,
		"channel": 2,
		"type": "channel",
		"noteNumber": 40,
		"velocity": 127,
		"subtype": "noteOn",
		"time": 68640,
		"track": 4
	},
	{
		"deltaTime": 0,
		"channel": 2,
		"type": "channel",
		"noteNumber": 52,
		"velocity": 127,
		"subtype": "noteOn",
		"time": 68640,
		"track": 4
	},
	{
		"deltaTime": 0,
		"channel": 2,
		"type": "channel",
		"noteNumber": 56,
		"velocity": 127,
		"subtype": "noteOn",
		"time": 68640,
		"track": 4
	},
	{
		"deltaTime": 0,
		"channel": 2,
		"type": "channel",
		"noteNumber": 59,
		"velocity": 127,
		"subtype": "noteOn",
		"time": 68640,
		"track": 4
	},
	{
		"deltaTime": 0,
		"channel": 9,
		"type": "channel",
		"noteNumber": 42,
		"velocity": 127,
		"subtype": "noteOn",
		"time": 68640,
		"track": 5
	},
	{
		"deltaTime": 0,
		"channel": 9,
		"type": "channel",
		"noteNumber": 40,
		"velocity": 127,
		"subtype": "noteOn",
		"time": 68640,
		"track": 5
	},
	{
		"deltaTime": 60,
		"channel": 9,
		"type": "channel",
		"noteNumber": 38,
		"velocity": 127,
		"subtype": "noteOn",
		"time": 68640,
		"track": 5
	},
	{
		"deltaTime": 0,
		"channel": 9,
		"type": "channel",
		"subtype": "noteOff",
		"noteNumber": 38,
		"velocity": 0,
		"time": 68700,
		"track": 5
	},
	{
		"deltaTime": 0,
		"channel": 9,
		"type": "channel",
		"subtype": "noteOff",
		"noteNumber": 40,
		"velocity": 0,
		"time": 68700,
		"track": 5
	},
	{
		"deltaTime": 60,
		"channel": 9,
		"type": "channel",
		"subtype": "noteOff",
		"noteNumber": 42,
		"velocity": 0,
		"time": 68700,
		"track": 5
	},
	{
		"deltaTime": 0,
		"channel": 1,
		"type": "channel",
		"subtype": "noteOff",
		"noteNumber": 61,
		"velocity": 0,
		"time": 68760,
		"track": 3
	},
	{
		"deltaTime": 0,
		"channel": 1,
		"type": "channel",
		"noteNumber": 59,
		"velocity": 127,
		"subtype": "noteOn",
		"time": 68760,
		"track": 3
	},
	{
		"deltaTime": 60,
		"channel": 9,
		"type": "channel",
		"noteNumber": 42,
		"velocity": 127,
		"subtype": "noteOn",
		"time": 68760,
		"track": 5
	},
	{
		"deltaTime": 60,
		"channel": 9,
		"type": "channel",
		"subtype": "noteOff",
		"noteNumber": 42,
		"velocity": 0,
		"time": 68820,
		"track": 5
	},
	{
		"deltaTime": 60,
		"channel": 9,
		"type": "channel",
		"noteNumber": 42,
		"velocity": 127,
		"subtype": "noteOn",
		"time": 68880,
		"track": 5
	},
	{
		"deltaTime": 60,
		"channel": 9,
		"type": "channel",
		"subtype": "noteOff",
		"noteNumber": 42,
		"velocity": 0,
		"time": 68940,
		"track": 5
	},
	{
		"deltaTime": 0,
		"channel": 1,
		"type": "channel",
		"subtype": "noteOff",
		"noteNumber": 59,
		"velocity": 0,
		"time": 69000,
		"track": 3
	},
	{
		"deltaTime": 0,
		"channel": 1,
		"type": "channel",
		"noteNumber": 63,
		"velocity": 127,
		"subtype": "noteOn",
		"time": 69000,
		"track": 3
	},
	{
		"deltaTime": 60,
		"channel": 9,
		"type": "channel",
		"noteNumber": 42,
		"velocity": 127,
		"subtype": "noteOn",
		"time": 69000,
		"track": 5
	},
	{
		"deltaTime": 60,
		"channel": 9,
		"type": "channel",
		"subtype": "noteOff",
		"noteNumber": 42,
		"velocity": 0,
		"time": 69060,
		"track": 5
	},
	{
		"deltaTime": 0,
		"channel": 0,
		"type": "channel",
		"subtype": "noteOff",
		"noteNumber": 40,
		"velocity": 0,
		"time": 69120,
		"track": 2
	},
	{
		"deltaTime": 0,
		"channel": 0,
		"type": "channel",
		"noteNumber": 42,
		"velocity": 127,
		"subtype": "noteOn",
		"time": 69120,
		"track": 2
	},
	{
		"deltaTime": 0,
		"channel": 2,
		"type": "channel",
		"subtype": "noteOff",
		"noteNumber": 59,
		"velocity": 0,
		"time": 69120,
		"track": 4
	},
	{
		"deltaTime": 0,
		"channel": 2,
		"type": "channel",
		"subtype": "noteOff",
		"noteNumber": 56,
		"velocity": 0,
		"time": 69120,
		"track": 4
	},
	{
		"deltaTime": 0,
		"channel": 2,
		"type": "channel",
		"subtype": "noteOff",
		"noteNumber": 52,
		"velocity": 0,
		"time": 69120,
		"track": 4
	},
	{
		"deltaTime": 0,
		"channel": 2,
		"type": "channel",
		"subtype": "noteOff",
		"noteNumber": 40,
		"velocity": 0,
		"time": 69120,
		"track": 4
	},
	{
		"deltaTime": 0,
		"channel": 2,
		"type": "channel",
		"noteNumber": 42,
		"velocity": 127,
		"subtype": "noteOn",
		"time": 69120,
		"track": 4
	},
	{
		"deltaTime": 0,
		"channel": 2,
		"type": "channel",
		"noteNumber": 49,
		"velocity": 127,
		"subtype": "noteOn",
		"time": 69120,
		"track": 4
	},
	{
		"deltaTime": 0,
		"channel": 2,
		"type": "channel",
		"noteNumber": 54,
		"velocity": 127,
		"subtype": "noteOn",
		"time": 69120,
		"track": 4
	},
	{
		"deltaTime": 0,
		"channel": 2,
		"type": "channel",
		"noteNumber": 58,
		"velocity": 127,
		"subtype": "noteOn",
		"time": 69120,
		"track": 4
	},
	{
		"deltaTime": 0,
		"channel": 9,
		"type": "channel",
		"noteNumber": 42,
		"velocity": 127,
		"subtype": "noteOn",
		"time": 69120,
		"track": 5
	},
	{
		"deltaTime": 0,
		"channel": 9,
		"type": "channel",
		"noteNumber": 35,
		"velocity": 127,
		"subtype": "noteOn",
		"time": 69120,
		"track": 5
	},
	{
		"deltaTime": 60,
		"channel": 9,
		"type": "channel",
		"noteNumber": 36,
		"velocity": 127,
		"subtype": "noteOn",
		"time": 69120,
		"track": 5
	},
	{
		"deltaTime": 0,
		"channel": 9,
		"type": "channel",
		"subtype": "noteOff",
		"noteNumber": 36,
		"velocity": 0,
		"time": 69180,
		"track": 5
	},
	{
		"deltaTime": 0,
		"channel": 9,
		"type": "channel",
		"subtype": "noteOff",
		"noteNumber": 35,
		"velocity": 0,
		"time": 69180,
		"track": 5
	},
	{
		"deltaTime": 60,
		"channel": 9,
		"type": "channel",
		"subtype": "noteOff",
		"noteNumber": 42,
		"velocity": 0,
		"time": 69180,
		"track": 5
	},
	{
		"deltaTime": 60,
		"channel": 9,
		"type": "channel",
		"noteNumber": 42,
		"velocity": 127,
		"subtype": "noteOn",
		"time": 69240,
		"track": 5
	},
	{
		"deltaTime": 60,
		"channel": 9,
		"type": "channel",
		"subtype": "noteOff",
		"noteNumber": 42,
		"velocity": 0,
		"time": 69300,
		"track": 5
	},
	{
		"deltaTime": 0,
		"channel": 1,
		"type": "channel",
		"subtype": "noteOff",
		"noteNumber": 63,
		"velocity": 0,
		"time": 69360,
		"track": 3
	},
	{
		"deltaTime": 0,
		"channel": 1,
		"type": "channel",
		"noteNumber": 61,
		"velocity": 127,
		"subtype": "noteOn",
		"time": 69360,
		"track": 3
	},
	{
		"deltaTime": 0,
		"channel": 9,
		"type": "channel",
		"noteNumber": 42,
		"velocity": 127,
		"subtype": "noteOn",
		"time": 69360,
		"track": 5
	},
	{
		"deltaTime": 0,
		"channel": 9,
		"type": "channel",
		"noteNumber": 36,
		"velocity": 127,
		"subtype": "noteOn",
		"time": 69360,
		"track": 5
	},
	{
		"deltaTime": 60,
		"channel": 9,
		"type": "channel",
		"noteNumber": 35,
		"velocity": 127,
		"subtype": "noteOn",
		"time": 69360,
		"track": 5
	},
	{
		"deltaTime": 0,
		"channel": 9,
		"type": "channel",
		"subtype": "noteOff",
		"noteNumber": 35,
		"velocity": 0,
		"time": 69420,
		"track": 5
	},
	{
		"deltaTime": 0,
		"channel": 9,
		"type": "channel",
		"subtype": "noteOff",
		"noteNumber": 36,
		"velocity": 0,
		"time": 69420,
		"track": 5
	},
	{
		"deltaTime": 60,
		"channel": 9,
		"type": "channel",
		"subtype": "noteOff",
		"noteNumber": 42,
		"velocity": 0,
		"time": 69420,
		"track": 5
	},
	{
		"deltaTime": 0,
		"channel": 2,
		"type": "channel",
		"subtype": "noteOff",
		"noteNumber": 58,
		"velocity": 0,
		"time": 69480,
		"track": 4
	},
	{
		"deltaTime": 0,
		"channel": 2,
		"type": "channel",
		"subtype": "noteOff",
		"noteNumber": 54,
		"velocity": 0,
		"time": 69480,
		"track": 4
	},
	{
		"deltaTime": 0,
		"channel": 2,
		"type": "channel",
		"subtype": "noteOff",
		"noteNumber": 49,
		"velocity": 0,
		"time": 69480,
		"track": 4
	},
	{
		"deltaTime": 0,
		"channel": 2,
		"type": "channel",
		"subtype": "noteOff",
		"noteNumber": 42,
		"velocity": 0,
		"time": 69480,
		"track": 4
	},
	{
		"deltaTime": 0,
		"channel": 2,
		"type": "channel",
		"noteNumber": 54,
		"velocity": 127,
		"subtype": "noteOn",
		"time": 69480,
		"track": 4
	},
	{
		"deltaTime": 0,
		"channel": 2,
		"type": "channel",
		"noteNumber": 58,
		"velocity": 127,
		"subtype": "noteOn",
		"time": 69480,
		"track": 4
	},
	{
		"deltaTime": 60,
		"channel": 9,
		"type": "channel",
		"noteNumber": 42,
		"velocity": 127,
		"subtype": "noteOn",
		"time": 69480,
		"track": 5
	},
	{
		"deltaTime": 60,
		"channel": 9,
		"type": "channel",
		"subtype": "noteOff",
		"noteNumber": 42,
		"velocity": 0,
		"time": 69540,
		"track": 5
	},
	{
		"deltaTime": 0,
		"channel": 2,
		"type": "channel",
		"subtype": "noteOff",
		"noteNumber": 58,
		"velocity": 0,
		"time": 69600,
		"track": 4
	},
	{
		"deltaTime": 0,
		"channel": 2,
		"type": "channel",
		"subtype": "noteOff",
		"noteNumber": 54,
		"velocity": 0,
		"time": 69600,
		"track": 4
	},
	{
		"deltaTime": 0,
		"channel": 2,
		"type": "channel",
		"noteNumber": 42,
		"velocity": 127,
		"subtype": "noteOn",
		"time": 69600,
		"track": 4
	},
	{
		"deltaTime": 0,
		"channel": 2,
		"type": "channel",
		"noteNumber": 49,
		"velocity": 127,
		"subtype": "noteOn",
		"time": 69600,
		"track": 4
	},
	{
		"deltaTime": 0,
		"channel": 2,
		"type": "channel",
		"noteNumber": 58,
		"velocity": 127,
		"subtype": "noteOn",
		"time": 69600,
		"track": 4
	},
	{
		"deltaTime": 0,
		"channel": 2,
		"type": "channel",
		"noteNumber": 61,
		"velocity": 127,
		"subtype": "noteOn",
		"time": 69600,
		"track": 4
	},
	{
		"deltaTime": 0,
		"channel": 9,
		"type": "channel",
		"noteNumber": 42,
		"velocity": 127,
		"subtype": "noteOn",
		"time": 69600,
		"track": 5
	},
	{
		"deltaTime": 0,
		"channel": 9,
		"type": "channel",
		"noteNumber": 38,
		"velocity": 127,
		"subtype": "noteOn",
		"time": 69600,
		"track": 5
	},
	{
		"deltaTime": 60,
		"channel": 9,
		"type": "channel",
		"noteNumber": 40,
		"velocity": 127,
		"subtype": "noteOn",
		"time": 69600,
		"track": 5
	},
	{
		"deltaTime": 0,
		"channel": 9,
		"type": "channel",
		"subtype": "noteOff",
		"noteNumber": 40,
		"velocity": 0,
		"time": 69660,
		"track": 5
	},
	{
		"deltaTime": 0,
		"channel": 9,
		"type": "channel",
		"subtype": "noteOff",
		"noteNumber": 38,
		"velocity": 0,
		"time": 69660,
		"track": 5
	},
	{
		"deltaTime": 60,
		"channel": 9,
		"type": "channel",
		"subtype": "noteOff",
		"noteNumber": 42,
		"velocity": 0,
		"time": 69660,
		"track": 5
	},
	{
		"deltaTime": 60,
		"channel": 9,
		"type": "channel",
		"noteNumber": 42,
		"velocity": 127,
		"subtype": "noteOn",
		"time": 69720,
		"track": 5
	},
	{
		"deltaTime": 60,
		"channel": 9,
		"type": "channel",
		"subtype": "noteOff",
		"noteNumber": 42,
		"velocity": 0,
		"time": 69780,
		"track": 5
	},
	{
		"deltaTime": 0,
		"channel": 1,
		"type": "channel",
		"subtype": "noteOff",
		"noteNumber": 61,
		"velocity": 0,
		"time": 69840,
		"track": 3
	},
	{
		"deltaTime": 60,
		"channel": 9,
		"type": "channel",
		"noteNumber": 42,
		"velocity": 127,
		"subtype": "noteOn",
		"time": 69840,
		"track": 5
	},
	{
		"deltaTime": 60,
		"channel": 9,
		"type": "channel",
		"subtype": "noteOff",
		"noteNumber": 42,
		"velocity": 0,
		"time": 69900,
		"track": 5
	},
	{
		"deltaTime": 0,
		"channel": 1,
		"type": "channel",
		"noteNumber": 59,
		"velocity": 127,
		"subtype": "noteOn",
		"time": 69960,
		"track": 3
	},
	{
		"deltaTime": 0,
		"channel": 9,
		"type": "channel",
		"noteNumber": 42,
		"velocity": 127,
		"subtype": "noteOn",
		"time": 69960,
		"track": 5
	},
	{
		"deltaTime": 0,
		"channel": 9,
		"type": "channel",
		"noteNumber": 36,
		"velocity": 127,
		"subtype": "noteOn",
		"time": 69960,
		"track": 5
	},
	{
		"deltaTime": 60,
		"channel": 9,
		"type": "channel",
		"noteNumber": 35,
		"velocity": 127,
		"subtype": "noteOn",
		"time": 69960,
		"track": 5
	},
	{
		"deltaTime": 0,
		"channel": 9,
		"type": "channel",
		"subtype": "noteOff",
		"noteNumber": 35,
		"velocity": 0,
		"time": 70020,
		"track": 5
	},
	{
		"deltaTime": 0,
		"channel": 9,
		"type": "channel",
		"subtype": "noteOff",
		"noteNumber": 36,
		"velocity": 0,
		"time": 70020,
		"track": 5
	},
	{
		"deltaTime": 60,
		"channel": 9,
		"type": "channel",
		"subtype": "noteOff",
		"noteNumber": 42,
		"velocity": 0,
		"time": 70020,
		"track": 5
	},
	{
		"deltaTime": 0,
		"channel": 0,
		"type": "channel",
		"subtype": "noteOff",
		"noteNumber": 42,
		"velocity": 0,
		"time": 70080,
		"track": 2
	},
	{
		"deltaTime": 0,
		"channel": 0,
		"type": "channel",
		"noteNumber": 35,
		"velocity": 127,
		"subtype": "noteOn",
		"time": 70080,
		"track": 2
	},
	{
		"deltaTime": 0,
		"channel": 1,
		"type": "channel",
		"subtype": "noteOff",
		"noteNumber": 59,
		"velocity": 0,
		"time": 70080,
		"track": 3
	},
	{
		"deltaTime": 0,
		"channel": 1,
		"type": "channel",
		"noteNumber": 66,
		"velocity": 127,
		"subtype": "noteOn",
		"time": 70080,
		"track": 3
	},
	{
		"deltaTime": 0,
		"channel": 2,
		"type": "channel",
		"subtype": "noteOff",
		"noteNumber": 61,
		"velocity": 0,
		"time": 70080,
		"track": 4
	},
	{
		"deltaTime": 0,
		"channel": 2,
		"type": "channel",
		"subtype": "noteOff",
		"noteNumber": 58,
		"velocity": 0,
		"time": 70080,
		"track": 4
	},
	{
		"deltaTime": 0,
		"channel": 2,
		"type": "channel",
		"subtype": "noteOff",
		"noteNumber": 49,
		"velocity": 0,
		"time": 70080,
		"track": 4
	},
	{
		"deltaTime": 0,
		"channel": 2,
		"type": "channel",
		"subtype": "noteOff",
		"noteNumber": 42,
		"velocity": 0,
		"time": 70080,
		"track": 4
	},
	{
		"deltaTime": 0,
		"channel": 2,
		"type": "channel",
		"noteNumber": 47,
		"velocity": 127,
		"subtype": "noteOn",
		"time": 70080,
		"track": 4
	},
	{
		"deltaTime": 0,
		"channel": 2,
		"type": "channel",
		"noteNumber": 54,
		"velocity": 127,
		"subtype": "noteOn",
		"time": 70080,
		"track": 4
	},
	{
		"deltaTime": 0,
		"channel": 2,
		"type": "channel",
		"noteNumber": 59,
		"velocity": 127,
		"subtype": "noteOn",
		"time": 70080,
		"track": 4
	},
	{
		"deltaTime": 0,
		"channel": 2,
		"type": "channel",
		"noteNumber": 66,
		"velocity": 127,
		"subtype": "noteOn",
		"time": 70080,
		"track": 4
	},
	{
		"deltaTime": 60,
		"channel": 9,
		"type": "channel",
		"noteNumber": 42,
		"velocity": 127,
		"subtype": "noteOn",
		"time": 70080,
		"track": 5
	},
	{
		"deltaTime": 60,
		"channel": 9,
		"type": "channel",
		"subtype": "noteOff",
		"noteNumber": 42,
		"velocity": 0,
		"time": 70140,
		"track": 5
	},
	{
		"deltaTime": 60,
		"channel": 9,
		"type": "channel",
		"noteNumber": 42,
		"velocity": 127,
		"subtype": "noteOn",
		"time": 70200,
		"track": 5
	},
	{
		"deltaTime": 60,
		"channel": 9,
		"type": "channel",
		"subtype": "noteOff",
		"noteNumber": 42,
		"velocity": 0,
		"time": 70260,
		"track": 5
	},
	{
		"deltaTime": 0,
		"channel": 1,
		"type": "channel",
		"subtype": "noteOff",
		"noteNumber": 66,
		"velocity": 0,
		"time": 70320,
		"track": 3
	},
	{
		"deltaTime": 0,
		"channel": 1,
		"type": "channel",
		"noteNumber": 68,
		"velocity": 127,
		"subtype": "noteOn",
		"time": 70320,
		"track": 3
	},
	{
		"deltaTime": 0,
		"channel": 2,
		"type": "channel",
		"subtype": "noteOff",
		"noteNumber": 66,
		"velocity": 0,
		"time": 70320,
		"track": 4
	},
	{
		"deltaTime": 0,
		"channel": 2,
		"type": "channel",
		"subtype": "noteOff",
		"noteNumber": 59,
		"velocity": 0,
		"time": 70320,
		"track": 4
	},
	{
		"deltaTime": 0,
		"channel": 2,
		"type": "channel",
		"subtype": "noteOff",
		"noteNumber": 54,
		"velocity": 0,
		"time": 70320,
		"track": 4
	},
	{
		"deltaTime": 0,
		"channel": 2,
		"type": "channel",
		"subtype": "noteOff",
		"noteNumber": 47,
		"velocity": 0,
		"time": 70320,
		"track": 4
	},
	{
		"deltaTime": 0,
		"channel": 2,
		"type": "channel",
		"noteNumber": 54,
		"velocity": 127,
		"subtype": "noteOn",
		"time": 70320,
		"track": 4
	},
	{
		"deltaTime": 0,
		"channel": 2,
		"type": "channel",
		"noteNumber": 59,
		"velocity": 127,
		"subtype": "noteOn",
		"time": 70320,
		"track": 4
	},
	{
		"deltaTime": 0,
		"channel": 2,
		"type": "channel",
		"noteNumber": 63,
		"velocity": 127,
		"subtype": "noteOn",
		"time": 70320,
		"track": 4
	},
	{
		"deltaTime": 0,
		"channel": 9,
		"type": "channel",
		"noteNumber": 42,
		"velocity": 127,
		"subtype": "noteOn",
		"time": 70320,
		"track": 5
	},
	{
		"deltaTime": 0,
		"channel": 9,
		"type": "channel",
		"noteNumber": 36,
		"velocity": 127,
		"subtype": "noteOn",
		"time": 70320,
		"track": 5
	},
	{
		"deltaTime": 60,
		"channel": 9,
		"type": "channel",
		"noteNumber": 35,
		"velocity": 127,
		"subtype": "noteOn",
		"time": 70320,
		"track": 5
	},
	{
		"deltaTime": 0,
		"channel": 9,
		"type": "channel",
		"subtype": "noteOff",
		"noteNumber": 35,
		"velocity": 0,
		"time": 70380,
		"track": 5
	},
	{
		"deltaTime": 0,
		"channel": 9,
		"type": "channel",
		"subtype": "noteOff",
		"noteNumber": 36,
		"velocity": 0,
		"time": 70380,
		"track": 5
	},
	{
		"deltaTime": 60,
		"channel": 9,
		"type": "channel",
		"subtype": "noteOff",
		"noteNumber": 42,
		"velocity": 0,
		"time": 70380,
		"track": 5
	},
	{
		"deltaTime": 60,
		"channel": 9,
		"type": "channel",
		"noteNumber": 42,
		"velocity": 127,
		"subtype": "noteOn",
		"time": 70440,
		"track": 5
	},
	{
		"deltaTime": 60,
		"channel": 9,
		"type": "channel",
		"subtype": "noteOff",
		"noteNumber": 42,
		"velocity": 0,
		"time": 70500,
		"track": 5
	},
	{
		"deltaTime": 0,
		"channel": 0,
		"type": "channel",
		"subtype": "noteOff",
		"noteNumber": 35,
		"velocity": 0,
		"time": 70560,
		"track": 2
	},
	{
		"deltaTime": 0,
		"channel": 0,
		"type": "channel",
		"noteNumber": 34,
		"velocity": 127,
		"subtype": "noteOn",
		"time": 70560,
		"track": 2
	},
	{
		"deltaTime": 0,
		"channel": 1,
		"type": "channel",
		"subtype": "noteOff",
		"noteNumber": 68,
		"velocity": 0,
		"time": 70560,
		"track": 3
	},
	{
		"deltaTime": 0,
		"channel": 1,
		"type": "channel",
		"noteNumber": 63,
		"velocity": 127,
		"subtype": "noteOn",
		"time": 70560,
		"track": 3
	},
	{
		"deltaTime": 0,
		"channel": 2,
		"type": "channel",
		"subtype": "noteOff",
		"noteNumber": 63,
		"velocity": 0,
		"time": 70560,
		"track": 4
	},
	{
		"deltaTime": 0,
		"channel": 2,
		"type": "channel",
		"subtype": "noteOff",
		"noteNumber": 59,
		"velocity": 0,
		"time": 70560,
		"track": 4
	},
	{
		"deltaTime": 0,
		"channel": 2,
		"type": "channel",
		"subtype": "noteOff",
		"noteNumber": 54,
		"velocity": 0,
		"time": 70560,
		"track": 4
	},
	{
		"deltaTime": 0,
		"channel": 2,
		"type": "channel",
		"noteNumber": 46,
		"velocity": 127,
		"subtype": "noteOn",
		"time": 70560,
		"track": 4
	},
	{
		"deltaTime": 0,
		"channel": 2,
		"type": "channel",
		"noteNumber": 54,
		"velocity": 127,
		"subtype": "noteOn",
		"time": 70560,
		"track": 4
	},
	{
		"deltaTime": 0,
		"channel": 9,
		"type": "channel",
		"noteNumber": 42,
		"velocity": 127,
		"subtype": "noteOn",
		"time": 70560,
		"track": 5
	},
	{
		"deltaTime": 0,
		"channel": 9,
		"type": "channel",
		"noteNumber": 40,
		"velocity": 127,
		"subtype": "noteOn",
		"time": 70560,
		"track": 5
	},
	{
		"deltaTime": 60,
		"channel": 9,
		"type": "channel",
		"noteNumber": 38,
		"velocity": 127,
		"subtype": "noteOn",
		"time": 70560,
		"track": 5
	},
	{
		"deltaTime": 0,
		"channel": 9,
		"type": "channel",
		"subtype": "noteOff",
		"noteNumber": 38,
		"velocity": 0,
		"time": 70620,
		"track": 5
	},
	{
		"deltaTime": 0,
		"channel": 9,
		"type": "channel",
		"subtype": "noteOff",
		"noteNumber": 40,
		"velocity": 0,
		"time": 70620,
		"track": 5
	},
	{
		"deltaTime": 60,
		"channel": 9,
		"type": "channel",
		"subtype": "noteOff",
		"noteNumber": 42,
		"velocity": 0,
		"time": 70620,
		"track": 5
	},
	{
		"deltaTime": 60,
		"channel": 9,
		"type": "channel",
		"noteNumber": 42,
		"velocity": 127,
		"subtype": "noteOn",
		"time": 70680,
		"track": 5
	},
	{
		"deltaTime": 60,
		"channel": 9,
		"type": "channel",
		"subtype": "noteOff",
		"noteNumber": 42,
		"velocity": 0,
		"time": 70740,
		"track": 5
	},
	{
		"deltaTime": 0,
		"channel": 1,
		"type": "channel",
		"subtype": "noteOff",
		"noteNumber": 63,
		"velocity": 0,
		"time": 70800,
		"track": 3
	},
	{
		"deltaTime": 0,
		"channel": 1,
		"type": "channel",
		"noteNumber": 61,
		"velocity": 127,
		"subtype": "noteOn",
		"time": 70800,
		"track": 3
	},
	{
		"deltaTime": 0,
		"channel": 2,
		"type": "channel",
		"subtype": "noteOff",
		"noteNumber": 54,
		"velocity": 0,
		"time": 70800,
		"track": 4
	},
	{
		"deltaTime": 0,
		"channel": 2,
		"type": "channel",
		"subtype": "noteOff",
		"noteNumber": 46,
		"velocity": 0,
		"time": 70800,
		"track": 4
	},
	{
		"deltaTime": 0,
		"channel": 2,
		"type": "channel",
		"noteNumber": 54,
		"velocity": 127,
		"subtype": "noteOn",
		"time": 70800,
		"track": 4
	},
	{
		"deltaTime": 0,
		"channel": 2,
		"type": "channel",
		"noteNumber": 59,
		"velocity": 127,
		"subtype": "noteOn",
		"time": 70800,
		"track": 4
	},
	{
		"deltaTime": 0,
		"channel": 2,
		"type": "channel",
		"noteNumber": 63,
		"velocity": 127,
		"subtype": "noteOn",
		"time": 70800,
		"track": 4
	},
	{
		"deltaTime": 60,
		"channel": 9,
		"type": "channel",
		"noteNumber": 42,
		"velocity": 127,
		"subtype": "noteOn",
		"time": 70800,
		"track": 5
	},
	{
		"deltaTime": 60,
		"channel": 9,
		"type": "channel",
		"subtype": "noteOff",
		"noteNumber": 42,
		"velocity": 0,
		"time": 70860,
		"track": 5
	},
	{
		"deltaTime": 0,
		"channel": 1,
		"type": "channel",
		"subtype": "noteOff",
		"noteNumber": 61,
		"velocity": 0,
		"time": 70920,
		"track": 3
	},
	{
		"deltaTime": 0,
		"channel": 1,
		"type": "channel",
		"noteNumber": 63,
		"velocity": 127,
		"subtype": "noteOn",
		"time": 70920,
		"track": 3
	},
	{
		"deltaTime": 60,
		"channel": 9,
		"type": "channel",
		"noteNumber": 42,
		"velocity": 127,
		"subtype": "noteOn",
		"time": 70920,
		"track": 5
	},
	{
		"deltaTime": 60,
		"channel": 9,
		"type": "channel",
		"subtype": "noteOff",
		"noteNumber": 42,
		"velocity": 0,
		"time": 70980,
		"track": 5
	},
	{
		"deltaTime": 0,
		"channel": 0,
		"type": "channel",
		"subtype": "noteOff",
		"noteNumber": 34,
		"velocity": 0,
		"time": 71040,
		"track": 2
	},
	{
		"deltaTime": 0,
		"channel": 0,
		"type": "channel",
		"noteNumber": 32,
		"velocity": 127,
		"subtype": "noteOn",
		"time": 71040,
		"track": 2
	},
	{
		"deltaTime": 0,
		"channel": 2,
		"type": "channel",
		"subtype": "noteOff",
		"noteNumber": 63,
		"velocity": 0,
		"time": 71040,
		"track": 4
	},
	{
		"deltaTime": 0,
		"channel": 2,
		"type": "channel",
		"subtype": "noteOff",
		"noteNumber": 59,
		"velocity": 0,
		"time": 71040,
		"track": 4
	},
	{
		"deltaTime": 0,
		"channel": 2,
		"type": "channel",
		"subtype": "noteOff",
		"noteNumber": 54,
		"velocity": 0,
		"time": 71040,
		"track": 4
	},
	{
		"deltaTime": 0,
		"channel": 2,
		"type": "channel",
		"noteNumber": 44,
		"velocity": 127,
		"subtype": "noteOn",
		"time": 71040,
		"track": 4
	},
	{
		"deltaTime": 0,
		"channel": 2,
		"type": "channel",
		"noteNumber": 51,
		"velocity": 127,
		"subtype": "noteOn",
		"time": 71040,
		"track": 4
	},
	{
		"deltaTime": 0,
		"channel": 2,
		"type": "channel",
		"noteNumber": 56,
		"velocity": 127,
		"subtype": "noteOn",
		"time": 71040,
		"track": 4
	},
	{
		"deltaTime": 0,
		"channel": 2,
		"type": "channel",
		"noteNumber": 59,
		"velocity": 127,
		"subtype": "noteOn",
		"time": 71040,
		"track": 4
	},
	{
		"deltaTime": 0,
		"channel": 2,
		"type": "channel",
		"noteNumber": 63,
		"velocity": 127,
		"subtype": "noteOn",
		"time": 71040,
		"track": 4
	},
	{
		"deltaTime": 0,
		"channel": 9,
		"type": "channel",
		"noteNumber": 42,
		"velocity": 127,
		"subtype": "noteOn",
		"time": 71040,
		"track": 5
	},
	{
		"deltaTime": 0,
		"channel": 9,
		"type": "channel",
		"noteNumber": 35,
		"velocity": 127,
		"subtype": "noteOn",
		"time": 71040,
		"track": 5
	},
	{
		"deltaTime": 60,
		"channel": 9,
		"type": "channel",
		"noteNumber": 36,
		"velocity": 127,
		"subtype": "noteOn",
		"time": 71040,
		"track": 5
	},
	{
		"deltaTime": 0,
		"channel": 9,
		"type": "channel",
		"subtype": "noteOff",
		"noteNumber": 36,
		"velocity": 0,
		"time": 71100,
		"track": 5
	},
	{
		"deltaTime": 0,
		"channel": 9,
		"type": "channel",
		"subtype": "noteOff",
		"noteNumber": 35,
		"velocity": 0,
		"time": 71100,
		"track": 5
	},
	{
		"deltaTime": 60,
		"channel": 9,
		"type": "channel",
		"subtype": "noteOff",
		"noteNumber": 42,
		"velocity": 0,
		"time": 71100,
		"track": 5
	},
	{
		"deltaTime": 60,
		"channel": 9,
		"type": "channel",
		"noteNumber": 42,
		"velocity": 127,
		"subtype": "noteOn",
		"time": 71160,
		"track": 5
	},
	{
		"deltaTime": 60,
		"channel": 9,
		"type": "channel",
		"subtype": "noteOff",
		"noteNumber": 42,
		"velocity": 0,
		"time": 71220,
		"track": 5
	},
	{
		"deltaTime": 0,
		"channel": 1,
		"type": "channel",
		"subtype": "noteOff",
		"noteNumber": 63,
		"velocity": 0,
		"time": 71280,
		"track": 3
	},
	{
		"deltaTime": 0,
		"channel": 9,
		"type": "channel",
		"noteNumber": 42,
		"velocity": 127,
		"subtype": "noteOn",
		"time": 71280,
		"track": 5
	},
	{
		"deltaTime": 0,
		"channel": 9,
		"type": "channel",
		"noteNumber": 36,
		"velocity": 127,
		"subtype": "noteOn",
		"time": 71280,
		"track": 5
	},
	{
		"deltaTime": 60,
		"channel": 9,
		"type": "channel",
		"noteNumber": 35,
		"velocity": 127,
		"subtype": "noteOn",
		"time": 71280,
		"track": 5
	},
	{
		"deltaTime": 0,
		"channel": 9,
		"type": "channel",
		"subtype": "noteOff",
		"noteNumber": 35,
		"velocity": 0,
		"time": 71340,
		"track": 5
	},
	{
		"deltaTime": 0,
		"channel": 9,
		"type": "channel",
		"subtype": "noteOff",
		"noteNumber": 36,
		"velocity": 0,
		"time": 71340,
		"track": 5
	},
	{
		"deltaTime": 60,
		"channel": 9,
		"type": "channel",
		"subtype": "noteOff",
		"noteNumber": 42,
		"velocity": 0,
		"time": 71340,
		"track": 5
	},
	{
		"deltaTime": 0,
		"channel": 2,
		"type": "channel",
		"subtype": "noteOff",
		"noteNumber": 63,
		"velocity": 0,
		"time": 71400,
		"track": 4
	},
	{
		"deltaTime": 0,
		"channel": 2,
		"type": "channel",
		"subtype": "noteOff",
		"noteNumber": 59,
		"velocity": 0,
		"time": 71400,
		"track": 4
	},
	{
		"deltaTime": 0,
		"channel": 2,
		"type": "channel",
		"subtype": "noteOff",
		"noteNumber": 56,
		"velocity": 0,
		"time": 71400,
		"track": 4
	},
	{
		"deltaTime": 0,
		"channel": 2,
		"type": "channel",
		"subtype": "noteOff",
		"noteNumber": 51,
		"velocity": 0,
		"time": 71400,
		"track": 4
	},
	{
		"deltaTime": 0,
		"channel": 2,
		"type": "channel",
		"subtype": "noteOff",
		"noteNumber": 44,
		"velocity": 0,
		"time": 71400,
		"track": 4
	},
	{
		"deltaTime": 0,
		"channel": 2,
		"type": "channel",
		"noteNumber": 56,
		"velocity": 127,
		"subtype": "noteOn",
		"time": 71400,
		"track": 4
	},
	{
		"deltaTime": 0,
		"channel": 2,
		"type": "channel",
		"noteNumber": 59,
		"velocity": 127,
		"subtype": "noteOn",
		"time": 71400,
		"track": 4
	},
	{
		"deltaTime": 60,
		"channel": 9,
		"type": "channel",
		"noteNumber": 42,
		"velocity": 127,
		"subtype": "noteOn",
		"time": 71400,
		"track": 5
	},
	{
		"deltaTime": 60,
		"channel": 9,
		"type": "channel",
		"subtype": "noteOff",
		"noteNumber": 42,
		"velocity": 0,
		"time": 71460,
		"track": 5
	},
	{
		"deltaTime": 0,
		"channel": 1,
		"type": "channel",
		"noteNumber": 66,
		"velocity": 127,
		"subtype": "noteOn",
		"time": 71520,
		"track": 3
	},
	{
		"deltaTime": 0,
		"channel": 2,
		"type": "channel",
		"subtype": "noteOff",
		"noteNumber": 59,
		"velocity": 0,
		"time": 71520,
		"track": 4
	},
	{
		"deltaTime": 0,
		"channel": 2,
		"type": "channel",
		"subtype": "noteOff",
		"noteNumber": 56,
		"velocity": 0,
		"time": 71520,
		"track": 4
	},
	{
		"deltaTime": 0,
		"channel": 2,
		"type": "channel",
		"noteNumber": 51,
		"velocity": 127,
		"subtype": "noteOn",
		"time": 71520,
		"track": 4
	},
	{
		"deltaTime": 0,
		"channel": 2,
		"type": "channel",
		"noteNumber": 59,
		"velocity": 127,
		"subtype": "noteOn",
		"time": 71520,
		"track": 4
	},
	{
		"deltaTime": 0,
		"channel": 2,
		"type": "channel",
		"noteNumber": 63,
		"velocity": 127,
		"subtype": "noteOn",
		"time": 71520,
		"track": 4
	},
	{
		"deltaTime": 0,
		"channel": 9,
		"type": "channel",
		"noteNumber": 42,
		"velocity": 127,
		"subtype": "noteOn",
		"time": 71520,
		"track": 5
	},
	{
		"deltaTime": 0,
		"channel": 9,
		"type": "channel",
		"noteNumber": 38,
		"velocity": 127,
		"subtype": "noteOn",
		"time": 71520,
		"track": 5
	},
	{
		"deltaTime": 60,
		"channel": 9,
		"type": "channel",
		"noteNumber": 40,
		"velocity": 127,
		"subtype": "noteOn",
		"time": 71520,
		"track": 5
	},
	{
		"deltaTime": 0,
		"channel": 9,
		"type": "channel",
		"subtype": "noteOff",
		"noteNumber": 40,
		"velocity": 0,
		"time": 71580,
		"track": 5
	},
	{
		"deltaTime": 0,
		"channel": 9,
		"type": "channel",
		"subtype": "noteOff",
		"noteNumber": 38,
		"velocity": 0,
		"time": 71580,
		"track": 5
	},
	{
		"deltaTime": 60,
		"channel": 9,
		"type": "channel",
		"subtype": "noteOff",
		"noteNumber": 42,
		"velocity": 0,
		"time": 71580,
		"track": 5
	},
	{
		"deltaTime": 0,
		"channel": 1,
		"type": "channel",
		"subtype": "noteOff",
		"noteNumber": 66,
		"velocity": 0,
		"time": 71640,
		"track": 3
	},
	{
		"deltaTime": 0,
		"channel": 1,
		"type": "channel",
		"noteNumber": 66,
		"velocity": 127,
		"subtype": "noteOn",
		"time": 71640,
		"track": 3
	},
	{
		"deltaTime": 60,
		"channel": 9,
		"type": "channel",
		"noteNumber": 42,
		"velocity": 127,
		"subtype": "noteOn",
		"time": 71640,
		"track": 5
	},
	{
		"deltaTime": 60,
		"channel": 9,
		"type": "channel",
		"subtype": "noteOff",
		"noteNumber": 42,
		"velocity": 0,
		"time": 71700,
		"track": 5
	},
	{
		"deltaTime": 60,
		"channel": 9,
		"type": "channel",
		"noteNumber": 42,
		"velocity": 127,
		"subtype": "noteOn",
		"time": 71760,
		"track": 5
	},
	{
		"deltaTime": 60,
		"channel": 9,
		"type": "channel",
		"subtype": "noteOff",
		"noteNumber": 42,
		"velocity": 0,
		"time": 71820,
		"track": 5
	},
	{
		"deltaTime": 0,
		"channel": 1,
		"type": "channel",
		"subtype": "noteOff",
		"noteNumber": 66,
		"velocity": 0,
		"time": 71880,
		"track": 3
	},
	{
		"deltaTime": 0,
		"channel": 1,
		"type": "channel",
		"noteNumber": 66,
		"velocity": 127,
		"subtype": "noteOn",
		"time": 71880,
		"track": 3
	},
	{
		"deltaTime": 0,
		"channel": 9,
		"type": "channel",
		"noteNumber": 42,
		"velocity": 127,
		"subtype": "noteOn",
		"time": 71880,
		"track": 5
	},
	{
		"deltaTime": 0,
		"channel": 9,
		"type": "channel",
		"noteNumber": 36,
		"velocity": 127,
		"subtype": "noteOn",
		"time": 71880,
		"track": 5
	},
	{
		"deltaTime": 60,
		"channel": 9,
		"type": "channel",
		"noteNumber": 35,
		"velocity": 127,
		"subtype": "noteOn",
		"time": 71880,
		"track": 5
	},
	{
		"deltaTime": 0,
		"channel": 9,
		"type": "channel",
		"subtype": "noteOff",
		"noteNumber": 35,
		"velocity": 0,
		"time": 71940,
		"track": 5
	},
	{
		"deltaTime": 0,
		"channel": 9,
		"type": "channel",
		"subtype": "noteOff",
		"noteNumber": 36,
		"velocity": 0,
		"time": 71940,
		"track": 5
	},
	{
		"deltaTime": 60,
		"channel": 9,
		"type": "channel",
		"subtype": "noteOff",
		"noteNumber": 42,
		"velocity": 0,
		"time": 71940,
		"track": 5
	},
	{
		"deltaTime": 0,
		"channel": 0,
		"type": "channel",
		"subtype": "noteOff",
		"noteNumber": 32,
		"velocity": 0,
		"time": 72000,
		"track": 2
	},
	{
		"deltaTime": 0,
		"channel": 0,
		"type": "channel",
		"noteNumber": 40,
		"velocity": 127,
		"subtype": "noteOn",
		"time": 72000,
		"track": 2
	},
	{
		"deltaTime": 0,
		"channel": 2,
		"type": "channel",
		"subtype": "noteOff",
		"noteNumber": 63,
		"velocity": 0,
		"time": 72000,
		"track": 4
	},
	{
		"deltaTime": 0,
		"channel": 2,
		"type": "channel",
		"subtype": "noteOff",
		"noteNumber": 59,
		"velocity": 0,
		"time": 72000,
		"track": 4
	},
	{
		"deltaTime": 0,
		"channel": 2,
		"type": "channel",
		"subtype": "noteOff",
		"noteNumber": 51,
		"velocity": 0,
		"time": 72000,
		"track": 4
	},
	{
		"deltaTime": 0,
		"channel": 2,
		"type": "channel",
		"noteNumber": 40,
		"velocity": 127,
		"subtype": "noteOn",
		"time": 72000,
		"track": 4
	},
	{
		"deltaTime": 0,
		"channel": 2,
		"type": "channel",
		"noteNumber": 47,
		"velocity": 127,
		"subtype": "noteOn",
		"time": 72000,
		"track": 4
	},
	{
		"deltaTime": 0,
		"channel": 2,
		"type": "channel",
		"noteNumber": 52,
		"velocity": 127,
		"subtype": "noteOn",
		"time": 72000,
		"track": 4
	},
	{
		"deltaTime": 0,
		"channel": 2,
		"type": "channel",
		"noteNumber": 56,
		"velocity": 127,
		"subtype": "noteOn",
		"time": 72000,
		"track": 4
	},
	{
		"deltaTime": 60,
		"channel": 9,
		"type": "channel",
		"noteNumber": 42,
		"velocity": 127,
		"subtype": "noteOn",
		"time": 72000,
		"track": 5
	},
	{
		"deltaTime": 60,
		"channel": 9,
		"type": "channel",
		"subtype": "noteOff",
		"noteNumber": 42,
		"velocity": 0,
		"time": 72060,
		"track": 5
	},
	{
		"deltaTime": 0,
		"channel": 1,
		"type": "channel",
		"subtype": "noteOff",
		"noteNumber": 66,
		"velocity": 0,
		"time": 72120,
		"track": 3
	},
	{
		"deltaTime": 0,
		"channel": 1,
		"type": "channel",
		"noteNumber": 66,
		"velocity": 127,
		"subtype": "noteOn",
		"time": 72120,
		"track": 3
	},
	{
		"deltaTime": 60,
		"channel": 9,
		"type": "channel",
		"noteNumber": 42,
		"velocity": 127,
		"subtype": "noteOn",
		"time": 72120,
		"track": 5
	},
	{
		"deltaTime": 60,
		"channel": 9,
		"type": "channel",
		"subtype": "noteOff",
		"noteNumber": 42,
		"velocity": 0,
		"time": 72180,
		"track": 5
	},
	{
		"deltaTime": 0,
		"channel": 1,
		"type": "channel",
		"subtype": "noteOff",
		"noteNumber": 66,
		"velocity": 0,
		"time": 72240,
		"track": 3
	},
	{
		"deltaTime": 0,
		"channel": 1,
		"type": "channel",
		"noteNumber": 68,
		"velocity": 127,
		"subtype": "noteOn",
		"time": 72240,
		"track": 3
	},
	{
		"deltaTime": 0,
		"channel": 9,
		"type": "channel",
		"noteNumber": 42,
		"velocity": 127,
		"subtype": "noteOn",
		"time": 72240,
		"track": 5
	},
	{
		"deltaTime": 0,
		"channel": 9,
		"type": "channel",
		"noteNumber": 36,
		"velocity": 127,
		"subtype": "noteOn",
		"time": 72240,
		"track": 5
	},
	{
		"deltaTime": 60,
		"channel": 9,
		"type": "channel",
		"noteNumber": 35,
		"velocity": 127,
		"subtype": "noteOn",
		"time": 72240,
		"track": 5
	},
	{
		"deltaTime": 0,
		"channel": 9,
		"type": "channel",
		"subtype": "noteOff",
		"noteNumber": 35,
		"velocity": 0,
		"time": 72300,
		"track": 5
	},
	{
		"deltaTime": 0,
		"channel": 9,
		"type": "channel",
		"subtype": "noteOff",
		"noteNumber": 36,
		"velocity": 0,
		"time": 72300,
		"track": 5
	},
	{
		"deltaTime": 60,
		"channel": 9,
		"type": "channel",
		"subtype": "noteOff",
		"noteNumber": 42,
		"velocity": 0,
		"time": 72300,
		"track": 5
	},
	{
		"deltaTime": 0,
		"channel": 1,
		"type": "channel",
		"subtype": "noteOff",
		"noteNumber": 68,
		"velocity": 0,
		"time": 72360,
		"track": 3
	},
	{
		"deltaTime": 0,
		"channel": 1,
		"type": "channel",
		"noteNumber": 61,
		"velocity": 127,
		"subtype": "noteOn",
		"time": 72360,
		"track": 3
	},
	{
		"deltaTime": 0,
		"channel": 2,
		"type": "channel",
		"subtype": "noteOff",
		"noteNumber": 56,
		"velocity": 0,
		"time": 72360,
		"track": 4
	},
	{
		"deltaTime": 0,
		"channel": 2,
		"type": "channel",
		"subtype": "noteOff",
		"noteNumber": 52,
		"velocity": 0,
		"time": 72360,
		"track": 4
	},
	{
		"deltaTime": 0,
		"channel": 2,
		"type": "channel",
		"subtype": "noteOff",
		"noteNumber": 47,
		"velocity": 0,
		"time": 72360,
		"track": 4
	},
	{
		"deltaTime": 0,
		"channel": 2,
		"type": "channel",
		"subtype": "noteOff",
		"noteNumber": 40,
		"velocity": 0,
		"time": 72360,
		"track": 4
	},
	{
		"deltaTime": 0,
		"channel": 2,
		"type": "channel",
		"noteNumber": 52,
		"velocity": 127,
		"subtype": "noteOn",
		"time": 72360,
		"track": 4
	},
	{
		"deltaTime": 0,
		"channel": 2,
		"type": "channel",
		"noteNumber": 56,
		"velocity": 127,
		"subtype": "noteOn",
		"time": 72360,
		"track": 4
	},
	{
		"deltaTime": 60,
		"channel": 9,
		"type": "channel",
		"noteNumber": 42,
		"velocity": 127,
		"subtype": "noteOn",
		"time": 72360,
		"track": 5
	},
	{
		"deltaTime": 60,
		"channel": 9,
		"type": "channel",
		"subtype": "noteOff",
		"noteNumber": 42,
		"velocity": 0,
		"time": 72420,
		"track": 5
	},
	{
		"deltaTime": 0,
		"channel": 2,
		"type": "channel",
		"subtype": "noteOff",
		"noteNumber": 56,
		"velocity": 0,
		"time": 72480,
		"track": 4
	},
	{
		"deltaTime": 0,
		"channel": 2,
		"type": "channel",
		"subtype": "noteOff",
		"noteNumber": 52,
		"velocity": 0,
		"time": 72480,
		"track": 4
	},
	{
		"deltaTime": 0,
		"channel": 2,
		"type": "channel",
		"noteNumber": 40,
		"velocity": 127,
		"subtype": "noteOn",
		"time": 72480,
		"track": 4
	},
	{
		"deltaTime": 0,
		"channel": 2,
		"type": "channel",
		"noteNumber": 52,
		"velocity": 127,
		"subtype": "noteOn",
		"time": 72480,
		"track": 4
	},
	{
		"deltaTime": 0,
		"channel": 2,
		"type": "channel",
		"noteNumber": 56,
		"velocity": 127,
		"subtype": "noteOn",
		"time": 72480,
		"track": 4
	},
	{
		"deltaTime": 0,
		"channel": 2,
		"type": "channel",
		"noteNumber": 59,
		"velocity": 127,
		"subtype": "noteOn",
		"time": 72480,
		"track": 4
	},
	{
		"deltaTime": 0,
		"channel": 9,
		"type": "channel",
		"noteNumber": 42,
		"velocity": 127,
		"subtype": "noteOn",
		"time": 72480,
		"track": 5
	},
	{
		"deltaTime": 0,
		"channel": 9,
		"type": "channel",
		"noteNumber": 40,
		"velocity": 127,
		"subtype": "noteOn",
		"time": 72480,
		"track": 5
	},
	{
		"deltaTime": 60,
		"channel": 9,
		"type": "channel",
		"noteNumber": 38,
		"velocity": 127,
		"subtype": "noteOn",
		"time": 72480,
		"track": 5
	},
	{
		"deltaTime": 0,
		"channel": 9,
		"type": "channel",
		"subtype": "noteOff",
		"noteNumber": 38,
		"velocity": 0,
		"time": 72540,
		"track": 5
	},
	{
		"deltaTime": 0,
		"channel": 9,
		"type": "channel",
		"subtype": "noteOff",
		"noteNumber": 40,
		"velocity": 0,
		"time": 72540,
		"track": 5
	},
	{
		"deltaTime": 60,
		"channel": 9,
		"type": "channel",
		"subtype": "noteOff",
		"noteNumber": 42,
		"velocity": 0,
		"time": 72540,
		"track": 5
	},
	{
		"deltaTime": 0,
		"channel": 1,
		"type": "channel",
		"subtype": "noteOff",
		"noteNumber": 61,
		"velocity": 0,
		"time": 72600,
		"track": 3
	},
	{
		"deltaTime": 0,
		"channel": 1,
		"type": "channel",
		"noteNumber": 61,
		"velocity": 127,
		"subtype": "noteOn",
		"time": 72600,
		"track": 3
	},
	{
		"deltaTime": 60,
		"channel": 9,
		"type": "channel",
		"noteNumber": 42,
		"velocity": 127,
		"subtype": "noteOn",
		"time": 72600,
		"track": 5
	},
	{
		"deltaTime": 60,
		"channel": 9,
		"type": "channel",
		"subtype": "noteOff",
		"noteNumber": 42,
		"velocity": 0,
		"time": 72660,
		"track": 5
	},
	{
		"deltaTime": 0,
		"channel": 1,
		"type": "channel",
		"subtype": "noteOff",
		"noteNumber": 61,
		"velocity": 0,
		"time": 72720,
		"track": 3
	},
	{
		"deltaTime": 0,
		"channel": 1,
		"type": "channel",
		"noteNumber": 59,
		"velocity": 127,
		"subtype": "noteOn",
		"time": 72720,
		"track": 3
	},
	{
		"deltaTime": 60,
		"channel": 9,
		"type": "channel",
		"noteNumber": 42,
		"velocity": 127,
		"subtype": "noteOn",
		"time": 72720,
		"track": 5
	},
	{
		"deltaTime": 60,
		"channel": 9,
		"type": "channel",
		"subtype": "noteOff",
		"noteNumber": 42,
		"velocity": 0,
		"time": 72780,
		"track": 5
	},
	{
		"deltaTime": 0,
		"channel": 1,
		"type": "channel",
		"subtype": "noteOff",
		"noteNumber": 59,
		"velocity": 0,
		"time": 72840,
		"track": 3
	},
	{
		"deltaTime": 0,
		"channel": 1,
		"type": "channel",
		"noteNumber": 63,
		"velocity": 127,
		"subtype": "noteOn",
		"time": 72840,
		"track": 3
	},
	{
		"deltaTime": 60,
		"channel": 9,
		"type": "channel",
		"noteNumber": 42,
		"velocity": 127,
		"subtype": "noteOn",
		"time": 72840,
		"track": 5
	},
	{
		"deltaTime": 60,
		"channel": 9,
		"type": "channel",
		"subtype": "noteOff",
		"noteNumber": 42,
		"velocity": 0,
		"time": 72900,
		"track": 5
	},
	{
		"deltaTime": 0,
		"channel": 0,
		"type": "channel",
		"subtype": "noteOff",
		"noteNumber": 40,
		"velocity": 0,
		"time": 72960,
		"track": 2
	},
	{
		"deltaTime": 0,
		"channel": 0,
		"type": "channel",
		"noteNumber": 42,
		"velocity": 127,
		"subtype": "noteOn",
		"time": 72960,
		"track": 2
	},
	{
		"deltaTime": 0,
		"channel": 2,
		"type": "channel",
		"subtype": "noteOff",
		"noteNumber": 59,
		"velocity": 0,
		"time": 72960,
		"track": 4
	},
	{
		"deltaTime": 0,
		"channel": 2,
		"type": "channel",
		"subtype": "noteOff",
		"noteNumber": 56,
		"velocity": 0,
		"time": 72960,
		"track": 4
	},
	{
		"deltaTime": 0,
		"channel": 2,
		"type": "channel",
		"subtype": "noteOff",
		"noteNumber": 52,
		"velocity": 0,
		"time": 72960,
		"track": 4
	},
	{
		"deltaTime": 0,
		"channel": 2,
		"type": "channel",
		"subtype": "noteOff",
		"noteNumber": 40,
		"velocity": 0,
		"time": 72960,
		"track": 4
	},
	{
		"deltaTime": 0,
		"channel": 2,
		"type": "channel",
		"noteNumber": 42,
		"velocity": 127,
		"subtype": "noteOn",
		"time": 72960,
		"track": 4
	},
	{
		"deltaTime": 0,
		"channel": 2,
		"type": "channel",
		"noteNumber": 49,
		"velocity": 127,
		"subtype": "noteOn",
		"time": 72960,
		"track": 4
	},
	{
		"deltaTime": 0,
		"channel": 2,
		"type": "channel",
		"noteNumber": 54,
		"velocity": 127,
		"subtype": "noteOn",
		"time": 72960,
		"track": 4
	},
	{
		"deltaTime": 0,
		"channel": 2,
		"type": "channel",
		"noteNumber": 58,
		"velocity": 127,
		"subtype": "noteOn",
		"time": 72960,
		"track": 4
	},
	{
		"deltaTime": 0,
		"channel": 9,
		"type": "channel",
		"noteNumber": 42,
		"velocity": 127,
		"subtype": "noteOn",
		"time": 72960,
		"track": 5
	},
	{
		"deltaTime": 0,
		"channel": 9,
		"type": "channel",
		"noteNumber": 35,
		"velocity": 127,
		"subtype": "noteOn",
		"time": 72960,
		"track": 5
	},
	{
		"deltaTime": 60,
		"channel": 9,
		"type": "channel",
		"noteNumber": 36,
		"velocity": 127,
		"subtype": "noteOn",
		"time": 72960,
		"track": 5
	},
	{
		"deltaTime": 0,
		"channel": 9,
		"type": "channel",
		"subtype": "noteOff",
		"noteNumber": 36,
		"velocity": 0,
		"time": 73020,
		"track": 5
	},
	{
		"deltaTime": 0,
		"channel": 9,
		"type": "channel",
		"subtype": "noteOff",
		"noteNumber": 35,
		"velocity": 0,
		"time": 73020,
		"track": 5
	},
	{
		"deltaTime": 60,
		"channel": 9,
		"type": "channel",
		"subtype": "noteOff",
		"noteNumber": 42,
		"velocity": 0,
		"time": 73020,
		"track": 5
	},
	{
		"deltaTime": 0,
		"channel": 1,
		"type": "channel",
		"subtype": "noteOff",
		"noteNumber": 63,
		"velocity": 0,
		"time": 73080,
		"track": 3
	},
	{
		"deltaTime": 0,
		"channel": 1,
		"type": "channel",
		"noteNumber": 61,
		"velocity": 127,
		"subtype": "noteOn",
		"time": 73080,
		"track": 3
	},
	{
		"deltaTime": 60,
		"channel": 9,
		"type": "channel",
		"noteNumber": 42,
		"velocity": 127,
		"subtype": "noteOn",
		"time": 73080,
		"track": 5
	},
	{
		"deltaTime": 60,
		"channel": 9,
		"type": "channel",
		"subtype": "noteOff",
		"noteNumber": 42,
		"velocity": 0,
		"time": 73140,
		"track": 5
	},
	{
		"deltaTime": 0,
		"channel": 9,
		"type": "channel",
		"noteNumber": 42,
		"velocity": 127,
		"subtype": "noteOn",
		"time": 73200,
		"track": 5
	},
	{
		"deltaTime": 0,
		"channel": 9,
		"type": "channel",
		"noteNumber": 36,
		"velocity": 127,
		"subtype": "noteOn",
		"time": 73200,
		"track": 5
	},
	{
		"deltaTime": 60,
		"channel": 9,
		"type": "channel",
		"noteNumber": 35,
		"velocity": 127,
		"subtype": "noteOn",
		"time": 73200,
		"track": 5
	},
	{
		"deltaTime": 0,
		"channel": 9,
		"type": "channel",
		"subtype": "noteOff",
		"noteNumber": 35,
		"velocity": 0,
		"time": 73260,
		"track": 5
	},
	{
		"deltaTime": 0,
		"channel": 9,
		"type": "channel",
		"subtype": "noteOff",
		"noteNumber": 36,
		"velocity": 0,
		"time": 73260,
		"track": 5
	},
	{
		"deltaTime": 60,
		"channel": 9,
		"type": "channel",
		"subtype": "noteOff",
		"noteNumber": 42,
		"velocity": 0,
		"time": 73260,
		"track": 5
	},
	{
		"deltaTime": 0,
		"channel": 1,
		"type": "channel",
		"subtype": "noteOff",
		"noteNumber": 61,
		"velocity": 0,
		"time": 73320,
		"track": 3
	},
	{
		"deltaTime": 0,
		"channel": 1,
		"type": "channel",
		"noteNumber": 61,
		"velocity": 127,
		"subtype": "noteOn",
		"time": 73320,
		"track": 3
	},
	{
		"deltaTime": 0,
		"channel": 2,
		"type": "channel",
		"subtype": "noteOff",
		"noteNumber": 58,
		"velocity": 0,
		"time": 73320,
		"track": 4
	},
	{
		"deltaTime": 0,
		"channel": 2,
		"type": "channel",
		"subtype": "noteOff",
		"noteNumber": 54,
		"velocity": 0,
		"time": 73320,
		"track": 4
	},
	{
		"deltaTime": 0,
		"channel": 2,
		"type": "channel",
		"subtype": "noteOff",
		"noteNumber": 49,
		"velocity": 0,
		"time": 73320,
		"track": 4
	},
	{
		"deltaTime": 0,
		"channel": 2,
		"type": "channel",
		"subtype": "noteOff",
		"noteNumber": 42,
		"velocity": 0,
		"time": 73320,
		"track": 4
	},
	{
		"deltaTime": 0,
		"channel": 2,
		"type": "channel",
		"noteNumber": 54,
		"velocity": 127,
		"subtype": "noteOn",
		"time": 73320,
		"track": 4
	},
	{
		"deltaTime": 0,
		"channel": 2,
		"type": "channel",
		"noteNumber": 58,
		"velocity": 127,
		"subtype": "noteOn",
		"time": 73320,
		"track": 4
	},
	{
		"deltaTime": 60,
		"channel": 9,
		"type": "channel",
		"noteNumber": 42,
		"velocity": 127,
		"subtype": "noteOn",
		"time": 73320,
		"track": 5
	},
	{
		"deltaTime": 60,
		"channel": 9,
		"type": "channel",
		"subtype": "noteOff",
		"noteNumber": 42,
		"velocity": 0,
		"time": 73380,
		"track": 5
	},
	{
		"deltaTime": 0,
		"channel": 2,
		"type": "channel",
		"subtype": "noteOff",
		"noteNumber": 58,
		"velocity": 0,
		"time": 73440,
		"track": 4
	},
	{
		"deltaTime": 0,
		"channel": 2,
		"type": "channel",
		"subtype": "noteOff",
		"noteNumber": 54,
		"velocity": 0,
		"time": 73440,
		"track": 4
	},
	{
		"deltaTime": 0,
		"channel": 2,
		"type": "channel",
		"noteNumber": 42,
		"velocity": 127,
		"subtype": "noteOn",
		"time": 73440,
		"track": 4
	},
	{
		"deltaTime": 0,
		"channel": 2,
		"type": "channel",
		"noteNumber": 49,
		"velocity": 127,
		"subtype": "noteOn",
		"time": 73440,
		"track": 4
	},
	{
		"deltaTime": 0,
		"channel": 2,
		"type": "channel",
		"noteNumber": 58,
		"velocity": 127,
		"subtype": "noteOn",
		"time": 73440,
		"track": 4
	},
	{
		"deltaTime": 0,
		"channel": 2,
		"type": "channel",
		"noteNumber": 61,
		"velocity": 127,
		"subtype": "noteOn",
		"time": 73440,
		"track": 4
	},
	{
		"deltaTime": 0,
		"channel": 9,
		"type": "channel",
		"noteNumber": 42,
		"velocity": 127,
		"subtype": "noteOn",
		"time": 73440,
		"track": 5
	},
	{
		"deltaTime": 0,
		"channel": 9,
		"type": "channel",
		"noteNumber": 38,
		"velocity": 127,
		"subtype": "noteOn",
		"time": 73440,
		"track": 5
	},
	{
		"deltaTime": 60,
		"channel": 9,
		"type": "channel",
		"noteNumber": 40,
		"velocity": 127,
		"subtype": "noteOn",
		"time": 73440,
		"track": 5
	},
	{
		"deltaTime": 0,
		"channel": 9,
		"type": "channel",
		"subtype": "noteOff",
		"noteNumber": 40,
		"velocity": 0,
		"time": 73500,
		"track": 5
	},
	{
		"deltaTime": 0,
		"channel": 9,
		"type": "channel",
		"subtype": "noteOff",
		"noteNumber": 38,
		"velocity": 0,
		"time": 73500,
		"track": 5
	},
	{
		"deltaTime": 60,
		"channel": 9,
		"type": "channel",
		"subtype": "noteOff",
		"noteNumber": 42,
		"velocity": 0,
		"time": 73500,
		"track": 5
	},
	{
		"deltaTime": 0,
		"channel": 1,
		"type": "channel",
		"subtype": "noteOff",
		"noteNumber": 61,
		"velocity": 0,
		"time": 73560,
		"track": 3
	},
	{
		"deltaTime": 60,
		"channel": 9,
		"type": "channel",
		"noteNumber": 42,
		"velocity": 127,
		"subtype": "noteOn",
		"time": 73560,
		"track": 5
	},
	{
		"deltaTime": 60,
		"channel": 9,
		"type": "channel",
		"subtype": "noteOff",
		"noteNumber": 42,
		"velocity": 0,
		"time": 73620,
		"track": 5
	},
	{
		"deltaTime": 0,
		"channel": 1,
		"type": "channel",
		"noteNumber": 59,
		"velocity": 127,
		"subtype": "noteOn",
		"time": 73680,
		"track": 3
	},
	{
		"deltaTime": 60,
		"channel": 9,
		"type": "channel",
		"noteNumber": 42,
		"velocity": 127,
		"subtype": "noteOn",
		"time": 73680,
		"track": 5
	},
	{
		"deltaTime": 60,
		"channel": 9,
		"type": "channel",
		"subtype": "noteOff",
		"noteNumber": 42,
		"velocity": 0,
		"time": 73740,
		"track": 5
	},
	{
		"deltaTime": 0,
		"channel": 1,
		"type": "channel",
		"subtype": "noteOff",
		"noteNumber": 59,
		"velocity": 0,
		"time": 73800,
		"track": 3
	},
	{
		"deltaTime": 0,
		"channel": 1,
		"type": "channel",
		"noteNumber": 61,
		"velocity": 127,
		"subtype": "noteOn",
		"time": 73800,
		"track": 3
	},
	{
		"deltaTime": 0,
		"channel": 9,
		"type": "channel",
		"noteNumber": 42,
		"velocity": 127,
		"subtype": "noteOn",
		"time": 73800,
		"track": 5
	},
	{
		"deltaTime": 0,
		"channel": 9,
		"type": "channel",
		"noteNumber": 36,
		"velocity": 127,
		"subtype": "noteOn",
		"time": 73800,
		"track": 5
	},
	{
		"deltaTime": 60,
		"channel": 9,
		"type": "channel",
		"noteNumber": 35,
		"velocity": 127,
		"subtype": "noteOn",
		"time": 73800,
		"track": 5
	},
	{
		"deltaTime": 0,
		"channel": 9,
		"type": "channel",
		"subtype": "noteOff",
		"noteNumber": 35,
		"velocity": 0,
		"time": 73860,
		"track": 5
	},
	{
		"deltaTime": 0,
		"channel": 9,
		"type": "channel",
		"subtype": "noteOff",
		"noteNumber": 36,
		"velocity": 0,
		"time": 73860,
		"track": 5
	},
	{
		"deltaTime": 60,
		"channel": 9,
		"type": "channel",
		"subtype": "noteOff",
		"noteNumber": 42,
		"velocity": 0,
		"time": 73860,
		"track": 5
	},
	{
		"deltaTime": 0,
		"channel": 0,
		"type": "channel",
		"subtype": "noteOff",
		"noteNumber": 42,
		"velocity": 0,
		"time": 73920,
		"track": 2
	},
	{
		"deltaTime": 0,
		"channel": 0,
		"type": "channel",
		"noteNumber": 35,
		"velocity": 127,
		"subtype": "noteOn",
		"time": 73920,
		"track": 2
	},
	{
		"deltaTime": 0,
		"channel": 1,
		"type": "channel",
		"subtype": "noteOff",
		"noteNumber": 61,
		"velocity": 0,
		"time": 73920,
		"track": 3
	},
	{
		"deltaTime": 0,
		"channel": 1,
		"type": "channel",
		"noteNumber": 63,
		"velocity": 127,
		"subtype": "noteOn",
		"time": 73920,
		"track": 3
	},
	{
		"deltaTime": 0,
		"channel": 2,
		"type": "channel",
		"subtype": "noteOff",
		"noteNumber": 61,
		"velocity": 0,
		"time": 73920,
		"track": 4
	},
	{
		"deltaTime": 0,
		"channel": 2,
		"type": "channel",
		"subtype": "noteOff",
		"noteNumber": 58,
		"velocity": 0,
		"time": 73920,
		"track": 4
	},
	{
		"deltaTime": 0,
		"channel": 2,
		"type": "channel",
		"subtype": "noteOff",
		"noteNumber": 49,
		"velocity": 0,
		"time": 73920,
		"track": 4
	},
	{
		"deltaTime": 0,
		"channel": 2,
		"type": "channel",
		"subtype": "noteOff",
		"noteNumber": 42,
		"velocity": 0,
		"time": 73920,
		"track": 4
	},
	{
		"deltaTime": 0,
		"channel": 2,
		"type": "channel",
		"noteNumber": 47,
		"velocity": 127,
		"subtype": "noteOn",
		"time": 73920,
		"track": 4
	},
	{
		"deltaTime": 0,
		"channel": 2,
		"type": "channel",
		"noteNumber": 54,
		"velocity": 127,
		"subtype": "noteOn",
		"time": 73920,
		"track": 4
	},
	{
		"deltaTime": 0,
		"channel": 2,
		"type": "channel",
		"noteNumber": 59,
		"velocity": 127,
		"subtype": "noteOn",
		"time": 73920,
		"track": 4
	},
	{
		"deltaTime": 0,
		"channel": 2,
		"type": "channel",
		"noteNumber": 66,
		"velocity": 127,
		"subtype": "noteOn",
		"time": 73920,
		"track": 4
	},
	{
		"deltaTime": 60,
		"channel": 9,
		"type": "channel",
		"noteNumber": 42,
		"velocity": 127,
		"subtype": "noteOn",
		"time": 73920,
		"track": 5
	},
	{
		"deltaTime": 60,
		"channel": 9,
		"type": "channel",
		"subtype": "noteOff",
		"noteNumber": 42,
		"velocity": 0,
		"time": 73980,
		"track": 5
	},
	{
		"deltaTime": 60,
		"channel": 9,
		"type": "channel",
		"noteNumber": 42,
		"velocity": 127,
		"subtype": "noteOn",
		"time": 74040,
		"track": 5
	},
	{
		"deltaTime": 60,
		"channel": 9,
		"type": "channel",
		"subtype": "noteOff",
		"noteNumber": 42,
		"velocity": 0,
		"time": 74100,
		"track": 5
	},
	{
		"deltaTime": 0,
		"channel": 1,
		"type": "channel",
		"subtype": "noteOff",
		"noteNumber": 63,
		"velocity": 0,
		"time": 74160,
		"track": 3
	},
	{
		"deltaTime": 0,
		"channel": 1,
		"type": "channel",
		"noteNumber": 64,
		"velocity": 127,
		"subtype": "noteOn",
		"time": 74160,
		"track": 3
	},
	{
		"deltaTime": 0,
		"channel": 2,
		"type": "channel",
		"subtype": "noteOff",
		"noteNumber": 66,
		"velocity": 0,
		"time": 74160,
		"track": 4
	},
	{
		"deltaTime": 0,
		"channel": 2,
		"type": "channel",
		"subtype": "noteOff",
		"noteNumber": 59,
		"velocity": 0,
		"time": 74160,
		"track": 4
	},
	{
		"deltaTime": 0,
		"channel": 2,
		"type": "channel",
		"subtype": "noteOff",
		"noteNumber": 54,
		"velocity": 0,
		"time": 74160,
		"track": 4
	},
	{
		"deltaTime": 0,
		"channel": 2,
		"type": "channel",
		"subtype": "noteOff",
		"noteNumber": 47,
		"velocity": 0,
		"time": 74160,
		"track": 4
	},
	{
		"deltaTime": 0,
		"channel": 2,
		"type": "channel",
		"noteNumber": 54,
		"velocity": 127,
		"subtype": "noteOn",
		"time": 74160,
		"track": 4
	},
	{
		"deltaTime": 0,
		"channel": 2,
		"type": "channel",
		"noteNumber": 59,
		"velocity": 127,
		"subtype": "noteOn",
		"time": 74160,
		"track": 4
	},
	{
		"deltaTime": 0,
		"channel": 2,
		"type": "channel",
		"noteNumber": 63,
		"velocity": 127,
		"subtype": "noteOn",
		"time": 74160,
		"track": 4
	},
	{
		"deltaTime": 0,
		"channel": 9,
		"type": "channel",
		"noteNumber": 42,
		"velocity": 127,
		"subtype": "noteOn",
		"time": 74160,
		"track": 5
	},
	{
		"deltaTime": 0,
		"channel": 9,
		"type": "channel",
		"noteNumber": 36,
		"velocity": 127,
		"subtype": "noteOn",
		"time": 74160,
		"track": 5
	},
	{
		"deltaTime": 60,
		"channel": 9,
		"type": "channel",
		"noteNumber": 35,
		"velocity": 127,
		"subtype": "noteOn",
		"time": 74160,
		"track": 5
	},
	{
		"deltaTime": 0,
		"channel": 9,
		"type": "channel",
		"subtype": "noteOff",
		"noteNumber": 35,
		"velocity": 0,
		"time": 74220,
		"track": 5
	},
	{
		"deltaTime": 0,
		"channel": 9,
		"type": "channel",
		"subtype": "noteOff",
		"noteNumber": 36,
		"velocity": 0,
		"time": 74220,
		"track": 5
	},
	{
		"deltaTime": 60,
		"channel": 9,
		"type": "channel",
		"subtype": "noteOff",
		"noteNumber": 42,
		"velocity": 0,
		"time": 74220,
		"track": 5
	},
	{
		"deltaTime": 0,
		"channel": 1,
		"type": "channel",
		"subtype": "noteOff",
		"noteNumber": 64,
		"velocity": 0,
		"time": 74280,
		"track": 3
	},
	{
		"deltaTime": 0,
		"channel": 1,
		"type": "channel",
		"noteNumber": 63,
		"velocity": 127,
		"subtype": "noteOn",
		"time": 74280,
		"track": 3
	},
	{
		"deltaTime": 60,
		"channel": 9,
		"type": "channel",
		"noteNumber": 42,
		"velocity": 127,
		"subtype": "noteOn",
		"time": 74280,
		"track": 5
	},
	{
		"deltaTime": 60,
		"channel": 9,
		"type": "channel",
		"subtype": "noteOff",
		"noteNumber": 42,
		"velocity": 0,
		"time": 74340,
		"track": 5
	},
	{
		"deltaTime": 0,
		"channel": 0,
		"type": "channel",
		"subtype": "noteOff",
		"noteNumber": 35,
		"velocity": 0,
		"time": 74400,
		"track": 2
	},
	{
		"deltaTime": 0,
		"channel": 0,
		"type": "channel",
		"noteNumber": 34,
		"velocity": 127,
		"subtype": "noteOn",
		"time": 74400,
		"track": 2
	},
	{
		"deltaTime": 0,
		"channel": 2,
		"type": "channel",
		"subtype": "noteOff",
		"noteNumber": 63,
		"velocity": 0,
		"time": 74400,
		"track": 4
	},
	{
		"deltaTime": 0,
		"channel": 2,
		"type": "channel",
		"subtype": "noteOff",
		"noteNumber": 59,
		"velocity": 0,
		"time": 74400,
		"track": 4
	},
	{
		"deltaTime": 0,
		"channel": 2,
		"type": "channel",
		"subtype": "noteOff",
		"noteNumber": 54,
		"velocity": 0,
		"time": 74400,
		"track": 4
	},
	{
		"deltaTime": 0,
		"channel": 2,
		"type": "channel",
		"noteNumber": 46,
		"velocity": 127,
		"subtype": "noteOn",
		"time": 74400,
		"track": 4
	},
	{
		"deltaTime": 0,
		"channel": 2,
		"type": "channel",
		"noteNumber": 54,
		"velocity": 127,
		"subtype": "noteOn",
		"time": 74400,
		"track": 4
	},
	{
		"deltaTime": 0,
		"channel": 9,
		"type": "channel",
		"noteNumber": 42,
		"velocity": 127,
		"subtype": "noteOn",
		"time": 74400,
		"track": 5
	},
	{
		"deltaTime": 0,
		"channel": 9,
		"type": "channel",
		"noteNumber": 40,
		"velocity": 127,
		"subtype": "noteOn",
		"time": 74400,
		"track": 5
	},
	{
		"deltaTime": 60,
		"channel": 9,
		"type": "channel",
		"noteNumber": 38,
		"velocity": 127,
		"subtype": "noteOn",
		"time": 74400,
		"track": 5
	},
	{
		"deltaTime": 0,
		"channel": 9,
		"type": "channel",
		"subtype": "noteOff",
		"noteNumber": 38,
		"velocity": 0,
		"time": 74460,
		"track": 5
	},
	{
		"deltaTime": 0,
		"channel": 9,
		"type": "channel",
		"subtype": "noteOff",
		"noteNumber": 40,
		"velocity": 0,
		"time": 74460,
		"track": 5
	},
	{
		"deltaTime": 60,
		"channel": 9,
		"type": "channel",
		"subtype": "noteOff",
		"noteNumber": 42,
		"velocity": 0,
		"time": 74460,
		"track": 5
	},
	{
		"deltaTime": 0,
		"channel": 1,
		"type": "channel",
		"subtype": "noteOff",
		"noteNumber": 63,
		"velocity": 0,
		"time": 74520,
		"track": 3
	},
	{
		"deltaTime": 0,
		"channel": 1,
		"type": "channel",
		"noteNumber": 63,
		"velocity": 127,
		"subtype": "noteOn",
		"time": 74520,
		"track": 3
	},
	{
		"deltaTime": 60,
		"channel": 9,
		"type": "channel",
		"noteNumber": 42,
		"velocity": 127,
		"subtype": "noteOn",
		"time": 74520,
		"track": 5
	},
	{
		"deltaTime": 60,
		"channel": 9,
		"type": "channel",
		"subtype": "noteOff",
		"noteNumber": 42,
		"velocity": 0,
		"time": 74580,
		"track": 5
	},
	{
		"deltaTime": 0,
		"channel": 1,
		"type": "channel",
		"subtype": "noteOff",
		"noteNumber": 63,
		"velocity": 0,
		"time": 74640,
		"track": 3
	},
	{
		"deltaTime": 0,
		"channel": 1,
		"type": "channel",
		"noteNumber": 61,
		"velocity": 127,
		"subtype": "noteOn",
		"time": 74640,
		"track": 3
	},
	{
		"deltaTime": 0,
		"channel": 2,
		"type": "channel",
		"subtype": "noteOff",
		"noteNumber": 54,
		"velocity": 0,
		"time": 74640,
		"track": 4
	},
	{
		"deltaTime": 0,
		"channel": 2,
		"type": "channel",
		"subtype": "noteOff",
		"noteNumber": 46,
		"velocity": 0,
		"time": 74640,
		"track": 4
	},
	{
		"deltaTime": 0,
		"channel": 2,
		"type": "channel",
		"noteNumber": 54,
		"velocity": 127,
		"subtype": "noteOn",
		"time": 74640,
		"track": 4
	},
	{
		"deltaTime": 0,
		"channel": 2,
		"type": "channel",
		"noteNumber": 59,
		"velocity": 127,
		"subtype": "noteOn",
		"time": 74640,
		"track": 4
	},
	{
		"deltaTime": 0,
		"channel": 2,
		"type": "channel",
		"noteNumber": 63,
		"velocity": 127,
		"subtype": "noteOn",
		"time": 74640,
		"track": 4
	},
	{
		"deltaTime": 60,
		"channel": 9,
		"type": "channel",
		"noteNumber": 42,
		"velocity": 127,
		"subtype": "noteOn",
		"time": 74640,
		"track": 5
	},
	{
		"deltaTime": 60,
		"channel": 9,
		"type": "channel",
		"subtype": "noteOff",
		"noteNumber": 42,
		"velocity": 0,
		"time": 74700,
		"track": 5
	},
	{
		"deltaTime": 0,
		"channel": 1,
		"type": "channel",
		"subtype": "noteOff",
		"noteNumber": 61,
		"velocity": 0,
		"time": 74760,
		"track": 3
	},
	{
		"deltaTime": 0,
		"channel": 1,
		"type": "channel",
		"noteNumber": 63,
		"velocity": 127,
		"subtype": "noteOn",
		"time": 74760,
		"track": 3
	},
	{
		"deltaTime": 60,
		"channel": 9,
		"type": "channel",
		"noteNumber": 42,
		"velocity": 127,
		"subtype": "noteOn",
		"time": 74760,
		"track": 5
	},
	{
		"deltaTime": 60,
		"channel": 9,
		"type": "channel",
		"subtype": "noteOff",
		"noteNumber": 42,
		"velocity": 0,
		"time": 74820,
		"track": 5
	},
	{
		"deltaTime": 0,
		"channel": 0,
		"type": "channel",
		"subtype": "noteOff",
		"noteNumber": 34,
		"velocity": 0,
		"time": 74880,
		"track": 2
	},
	{
		"deltaTime": 0,
		"channel": 0,
		"type": "channel",
		"noteNumber": 32,
		"velocity": 127,
		"subtype": "noteOn",
		"time": 74880,
		"track": 2
	},
	{
		"deltaTime": 0,
		"channel": 2,
		"type": "channel",
		"subtype": "noteOff",
		"noteNumber": 63,
		"velocity": 0,
		"time": 74880,
		"track": 4
	},
	{
		"deltaTime": 0,
		"channel": 2,
		"type": "channel",
		"subtype": "noteOff",
		"noteNumber": 59,
		"velocity": 0,
		"time": 74880,
		"track": 4
	},
	{
		"deltaTime": 0,
		"channel": 2,
		"type": "channel",
		"subtype": "noteOff",
		"noteNumber": 54,
		"velocity": 0,
		"time": 74880,
		"track": 4
	},
	{
		"deltaTime": 0,
		"channel": 2,
		"type": "channel",
		"noteNumber": 44,
		"velocity": 127,
		"subtype": "noteOn",
		"time": 74880,
		"track": 4
	},
	{
		"deltaTime": 0,
		"channel": 2,
		"type": "channel",
		"noteNumber": 51,
		"velocity": 127,
		"subtype": "noteOn",
		"time": 74880,
		"track": 4
	},
	{
		"deltaTime": 0,
		"channel": 2,
		"type": "channel",
		"noteNumber": 56,
		"velocity": 127,
		"subtype": "noteOn",
		"time": 74880,
		"track": 4
	},
	{
		"deltaTime": 0,
		"channel": 2,
		"type": "channel",
		"noteNumber": 59,
		"velocity": 127,
		"subtype": "noteOn",
		"time": 74880,
		"track": 4
	},
	{
		"deltaTime": 0,
		"channel": 2,
		"type": "channel",
		"noteNumber": 63,
		"velocity": 127,
		"subtype": "noteOn",
		"time": 74880,
		"track": 4
	},
	{
		"deltaTime": 0,
		"channel": 9,
		"type": "channel",
		"noteNumber": 42,
		"velocity": 127,
		"subtype": "noteOn",
		"time": 74880,
		"track": 5
	},
	{
		"deltaTime": 0,
		"channel": 9,
		"type": "channel",
		"noteNumber": 35,
		"velocity": 127,
		"subtype": "noteOn",
		"time": 74880,
		"track": 5
	},
	{
		"deltaTime": 60,
		"channel": 9,
		"type": "channel",
		"noteNumber": 36,
		"velocity": 127,
		"subtype": "noteOn",
		"time": 74880,
		"track": 5
	},
	{
		"deltaTime": 0,
		"channel": 9,
		"type": "channel",
		"subtype": "noteOff",
		"noteNumber": 36,
		"velocity": 0,
		"time": 74940,
		"track": 5
	},
	{
		"deltaTime": 0,
		"channel": 9,
		"type": "channel",
		"subtype": "noteOff",
		"noteNumber": 35,
		"velocity": 0,
		"time": 74940,
		"track": 5
	},
	{
		"deltaTime": 60,
		"channel": 9,
		"type": "channel",
		"subtype": "noteOff",
		"noteNumber": 42,
		"velocity": 0,
		"time": 74940,
		"track": 5
	},
	{
		"deltaTime": 60,
		"channel": 9,
		"type": "channel",
		"noteNumber": 42,
		"velocity": 127,
		"subtype": "noteOn",
		"time": 75000,
		"track": 5
	},
	{
		"deltaTime": 60,
		"channel": 9,
		"type": "channel",
		"subtype": "noteOff",
		"noteNumber": 42,
		"velocity": 0,
		"time": 75060,
		"track": 5
	},
	{
		"deltaTime": 0,
		"channel": 1,
		"type": "channel",
		"subtype": "noteOff",
		"noteNumber": 63,
		"velocity": 0,
		"time": 75120,
		"track": 3
	},
	{
		"deltaTime": 0,
		"channel": 9,
		"type": "channel",
		"noteNumber": 42,
		"velocity": 127,
		"subtype": "noteOn",
		"time": 75120,
		"track": 5
	},
	{
		"deltaTime": 0,
		"channel": 9,
		"type": "channel",
		"noteNumber": 36,
		"velocity": 127,
		"subtype": "noteOn",
		"time": 75120,
		"track": 5
	},
	{
		"deltaTime": 60,
		"channel": 9,
		"type": "channel",
		"noteNumber": 35,
		"velocity": 127,
		"subtype": "noteOn",
		"time": 75120,
		"track": 5
	},
	{
		"deltaTime": 0,
		"channel": 9,
		"type": "channel",
		"subtype": "noteOff",
		"noteNumber": 35,
		"velocity": 0,
		"time": 75180,
		"track": 5
	},
	{
		"deltaTime": 0,
		"channel": 9,
		"type": "channel",
		"subtype": "noteOff",
		"noteNumber": 36,
		"velocity": 0,
		"time": 75180,
		"track": 5
	},
	{
		"deltaTime": 60,
		"channel": 9,
		"type": "channel",
		"subtype": "noteOff",
		"noteNumber": 42,
		"velocity": 0,
		"time": 75180,
		"track": 5
	},
	{
		"deltaTime": 0,
		"channel": 2,
		"type": "channel",
		"subtype": "noteOff",
		"noteNumber": 63,
		"velocity": 0,
		"time": 75240,
		"track": 4
	},
	{
		"deltaTime": 0,
		"channel": 2,
		"type": "channel",
		"subtype": "noteOff",
		"noteNumber": 59,
		"velocity": 0,
		"time": 75240,
		"track": 4
	},
	{
		"deltaTime": 0,
		"channel": 2,
		"type": "channel",
		"subtype": "noteOff",
		"noteNumber": 56,
		"velocity": 0,
		"time": 75240,
		"track": 4
	},
	{
		"deltaTime": 0,
		"channel": 2,
		"type": "channel",
		"subtype": "noteOff",
		"noteNumber": 51,
		"velocity": 0,
		"time": 75240,
		"track": 4
	},
	{
		"deltaTime": 0,
		"channel": 2,
		"type": "channel",
		"subtype": "noteOff",
		"noteNumber": 44,
		"velocity": 0,
		"time": 75240,
		"track": 4
	},
	{
		"deltaTime": 0,
		"channel": 2,
		"type": "channel",
		"noteNumber": 56,
		"velocity": 127,
		"subtype": "noteOn",
		"time": 75240,
		"track": 4
	},
	{
		"deltaTime": 0,
		"channel": 2,
		"type": "channel",
		"noteNumber": 59,
		"velocity": 127,
		"subtype": "noteOn",
		"time": 75240,
		"track": 4
	},
	{
		"deltaTime": 60,
		"channel": 9,
		"type": "channel",
		"noteNumber": 42,
		"velocity": 127,
		"subtype": "noteOn",
		"time": 75240,
		"track": 5
	},
	{
		"deltaTime": 60,
		"channel": 9,
		"type": "channel",
		"subtype": "noteOff",
		"noteNumber": 42,
		"velocity": 0,
		"time": 75300,
		"track": 5
	},
	{
		"deltaTime": 0,
		"channel": 1,
		"type": "channel",
		"noteNumber": 56,
		"velocity": 127,
		"subtype": "noteOn",
		"time": 75360,
		"track": 3
	},
	{
		"deltaTime": 0,
		"channel": 2,
		"type": "channel",
		"subtype": "noteOff",
		"noteNumber": 59,
		"velocity": 0,
		"time": 75360,
		"track": 4
	},
	{
		"deltaTime": 0,
		"channel": 2,
		"type": "channel",
		"subtype": "noteOff",
		"noteNumber": 56,
		"velocity": 0,
		"time": 75360,
		"track": 4
	},
	{
		"deltaTime": 0,
		"channel": 2,
		"type": "channel",
		"noteNumber": 51,
		"velocity": 127,
		"subtype": "noteOn",
		"time": 75360,
		"track": 4
	},
	{
		"deltaTime": 0,
		"channel": 2,
		"type": "channel",
		"noteNumber": 59,
		"velocity": 127,
		"subtype": "noteOn",
		"time": 75360,
		"track": 4
	},
	{
		"deltaTime": 0,
		"channel": 2,
		"type": "channel",
		"noteNumber": 63,
		"velocity": 127,
		"subtype": "noteOn",
		"time": 75360,
		"track": 4
	},
	{
		"deltaTime": 0,
		"channel": 9,
		"type": "channel",
		"noteNumber": 42,
		"velocity": 127,
		"subtype": "noteOn",
		"time": 75360,
		"track": 5
	},
	{
		"deltaTime": 0,
		"channel": 9,
		"type": "channel",
		"noteNumber": 38,
		"velocity": 127,
		"subtype": "noteOn",
		"time": 75360,
		"track": 5
	},
	{
		"deltaTime": 60,
		"channel": 9,
		"type": "channel",
		"noteNumber": 40,
		"velocity": 127,
		"subtype": "noteOn",
		"time": 75360,
		"track": 5
	},
	{
		"deltaTime": 0,
		"channel": 9,
		"type": "channel",
		"subtype": "noteOff",
		"noteNumber": 40,
		"velocity": 0,
		"time": 75420,
		"track": 5
	},
	{
		"deltaTime": 0,
		"channel": 9,
		"type": "channel",
		"subtype": "noteOff",
		"noteNumber": 38,
		"velocity": 0,
		"time": 75420,
		"track": 5
	},
	{
		"deltaTime": 60,
		"channel": 9,
		"type": "channel",
		"subtype": "noteOff",
		"noteNumber": 42,
		"velocity": 0,
		"time": 75420,
		"track": 5
	},
	{
		"deltaTime": 60,
		"channel": 9,
		"type": "channel",
		"noteNumber": 42,
		"velocity": 127,
		"subtype": "noteOn",
		"time": 75480,
		"track": 5
	},
	{
		"deltaTime": 60,
		"channel": 9,
		"type": "channel",
		"subtype": "noteOff",
		"noteNumber": 42,
		"velocity": 0,
		"time": 75540,
		"track": 5
	},
	{
		"deltaTime": 0,
		"channel": 0,
		"type": "channel",
		"subtype": "noteOff",
		"noteNumber": 32,
		"velocity": 0,
		"time": 75600,
		"track": 2
	},
	{
		"deltaTime": 0,
		"channel": 0,
		"type": "channel",
		"noteNumber": 32,
		"velocity": 127,
		"subtype": "noteOn",
		"time": 75600,
		"track": 2
	},
	{
		"deltaTime": 0,
		"channel": 1,
		"type": "channel",
		"subtype": "noteOff",
		"noteNumber": 56,
		"velocity": 0,
		"time": 75600,
		"track": 3
	},
	{
		"deltaTime": 0,
		"channel": 1,
		"type": "channel",
		"noteNumber": 63,
		"velocity": 127,
		"subtype": "noteOn",
		"time": 75600,
		"track": 3
	},
	{
		"deltaTime": 60,
		"channel": 9,
		"type": "channel",
		"noteNumber": 42,
		"velocity": 127,
		"subtype": "noteOn",
		"time": 75600,
		"track": 5
	},
	{
		"deltaTime": 60,
		"channel": 9,
		"type": "channel",
		"subtype": "noteOff",
		"noteNumber": 42,
		"velocity": 0,
		"time": 75660,
		"track": 5
	},
	{
		"deltaTime": 0,
		"channel": 1,
		"type": "channel",
		"subtype": "noteOff",
		"noteNumber": 63,
		"velocity": 0,
		"time": 75720,
		"track": 3
	},
	{
		"deltaTime": 0,
		"channel": 1,
		"type": "channel",
		"noteNumber": 61,
		"velocity": 127,
		"subtype": "noteOn",
		"time": 75720,
		"track": 3
	},
	{
		"deltaTime": 0,
		"channel": 9,
		"type": "channel",
		"noteNumber": 42,
		"velocity": 127,
		"subtype": "noteOn",
		"time": 75720,
		"track": 5
	},
	{
		"deltaTime": 0,
		"channel": 9,
		"type": "channel",
		"noteNumber": 36,
		"velocity": 127,
		"subtype": "noteOn",
		"time": 75720,
		"track": 5
	},
	{
		"deltaTime": 60,
		"channel": 9,
		"type": "channel",
		"noteNumber": 35,
		"velocity": 127,
		"subtype": "noteOn",
		"time": 75720,
		"track": 5
	},
	{
		"deltaTime": 0,
		"channel": 9,
		"type": "channel",
		"subtype": "noteOff",
		"noteNumber": 35,
		"velocity": 0,
		"time": 75780,
		"track": 5
	},
	{
		"deltaTime": 0,
		"channel": 9,
		"type": "channel",
		"subtype": "noteOff",
		"noteNumber": 36,
		"velocity": 0,
		"time": 75780,
		"track": 5
	},
	{
		"deltaTime": 60,
		"channel": 9,
		"type": "channel",
		"subtype": "noteOff",
		"noteNumber": 42,
		"velocity": 0,
		"time": 75780,
		"track": 5
	},
	{
		"deltaTime": 0,
		"channel": 0,
		"type": "channel",
		"subtype": "noteOff",
		"noteNumber": 32,
		"velocity": 0,
		"time": 75840,
		"track": 2
	},
	{
		"deltaTime": 0,
		"channel": 0,
		"type": "channel",
		"noteNumber": 40,
		"velocity": 127,
		"subtype": "noteOn",
		"time": 75840,
		"track": 2
	},
	{
		"deltaTime": 0,
		"channel": 2,
		"type": "channel",
		"subtype": "noteOff",
		"noteNumber": 63,
		"velocity": 0,
		"time": 75840,
		"track": 4
	},
	{
		"deltaTime": 0,
		"channel": 2,
		"type": "channel",
		"subtype": "noteOff",
		"noteNumber": 59,
		"velocity": 0,
		"time": 75840,
		"track": 4
	},
	{
		"deltaTime": 0,
		"channel": 2,
		"type": "channel",
		"subtype": "noteOff",
		"noteNumber": 51,
		"velocity": 0,
		"time": 75840,
		"track": 4
	},
	{
		"deltaTime": 0,
		"channel": 2,
		"type": "channel",
		"noteNumber": 40,
		"velocity": 127,
		"subtype": "noteOn",
		"time": 75840,
		"track": 4
	},
	{
		"deltaTime": 0,
		"channel": 2,
		"type": "channel",
		"noteNumber": 47,
		"velocity": 127,
		"subtype": "noteOn",
		"time": 75840,
		"track": 4
	},
	{
		"deltaTime": 0,
		"channel": 2,
		"type": "channel",
		"noteNumber": 52,
		"velocity": 127,
		"subtype": "noteOn",
		"time": 75840,
		"track": 4
	},
	{
		"deltaTime": 0,
		"channel": 2,
		"type": "channel",
		"noteNumber": 56,
		"velocity": 127,
		"subtype": "noteOn",
		"time": 75840,
		"track": 4
	},
	{
		"deltaTime": 60,
		"channel": 9,
		"type": "channel",
		"noteNumber": 42,
		"velocity": 127,
		"subtype": "noteOn",
		"time": 75840,
		"track": 5
	},
	{
		"deltaTime": 60,
		"channel": 9,
		"type": "channel",
		"subtype": "noteOff",
		"noteNumber": 42,
		"velocity": 0,
		"time": 75900,
		"track": 5
	},
	{
		"deltaTime": 60,
		"channel": 9,
		"type": "channel",
		"noteNumber": 42,
		"velocity": 127,
		"subtype": "noteOn",
		"time": 75960,
		"track": 5
	},
	{
		"deltaTime": 60,
		"channel": 9,
		"type": "channel",
		"subtype": "noteOff",
		"noteNumber": 42,
		"velocity": 0,
		"time": 76020,
		"track": 5
	},
	{
		"deltaTime": 0,
		"channel": 9,
		"type": "channel",
		"noteNumber": 42,
		"velocity": 127,
		"subtype": "noteOn",
		"time": 76080,
		"track": 5
	},
	{
		"deltaTime": 0,
		"channel": 9,
		"type": "channel",
		"noteNumber": 36,
		"velocity": 127,
		"subtype": "noteOn",
		"time": 76080,
		"track": 5
	},
	{
		"deltaTime": 60,
		"channel": 9,
		"type": "channel",
		"noteNumber": 35,
		"velocity": 127,
		"subtype": "noteOn",
		"time": 76080,
		"track": 5
	},
	{
		"deltaTime": 0,
		"channel": 9,
		"type": "channel",
		"subtype": "noteOff",
		"noteNumber": 35,
		"velocity": 0,
		"time": 76140,
		"track": 5
	},
	{
		"deltaTime": 0,
		"channel": 9,
		"type": "channel",
		"subtype": "noteOff",
		"noteNumber": 36,
		"velocity": 0,
		"time": 76140,
		"track": 5
	},
	{
		"deltaTime": 60,
		"channel": 9,
		"type": "channel",
		"subtype": "noteOff",
		"noteNumber": 42,
		"velocity": 0,
		"time": 76140,
		"track": 5
	},
	{
		"deltaTime": 0,
		"channel": 1,
		"type": "channel",
		"subtype": "noteOff",
		"noteNumber": 61,
		"velocity": 0,
		"time": 76200,
		"track": 3
	},
	{
		"deltaTime": 0,
		"channel": 1,
		"type": "channel",
		"noteNumber": 63,
		"velocity": 127,
		"subtype": "noteOn",
		"time": 76200,
		"track": 3
	},
	{
		"deltaTime": 0,
		"channel": 2,
		"type": "channel",
		"subtype": "noteOff",
		"noteNumber": 56,
		"velocity": 0,
		"time": 76200,
		"track": 4
	},
	{
		"deltaTime": 0,
		"channel": 2,
		"type": "channel",
		"subtype": "noteOff",
		"noteNumber": 52,
		"velocity": 0,
		"time": 76200,
		"track": 4
	},
	{
		"deltaTime": 0,
		"channel": 2,
		"type": "channel",
		"subtype": "noteOff",
		"noteNumber": 47,
		"velocity": 0,
		"time": 76200,
		"track": 4
	},
	{
		"deltaTime": 0,
		"channel": 2,
		"type": "channel",
		"subtype": "noteOff",
		"noteNumber": 40,
		"velocity": 0,
		"time": 76200,
		"track": 4
	},
	{
		"deltaTime": 0,
		"channel": 2,
		"type": "channel",
		"noteNumber": 52,
		"velocity": 127,
		"subtype": "noteOn",
		"time": 76200,
		"track": 4
	},
	{
		"deltaTime": 0,
		"channel": 2,
		"type": "channel",
		"noteNumber": 56,
		"velocity": 127,
		"subtype": "noteOn",
		"time": 76200,
		"track": 4
	},
	{
		"deltaTime": 60,
		"channel": 9,
		"type": "channel",
		"noteNumber": 42,
		"velocity": 127,
		"subtype": "noteOn",
		"time": 76200,
		"track": 5
	},
	{
		"deltaTime": 60,
		"channel": 9,
		"type": "channel",
		"subtype": "noteOff",
		"noteNumber": 42,
		"velocity": 0,
		"time": 76260,
		"track": 5
	},
	{
		"deltaTime": 0,
		"channel": 1,
		"type": "channel",
		"subtype": "noteOff",
		"noteNumber": 63,
		"velocity": 0,
		"time": 76320,
		"track": 3
	},
	{
		"deltaTime": 0,
		"channel": 1,
		"type": "channel",
		"noteNumber": 59,
		"velocity": 127,
		"subtype": "noteOn",
		"time": 76320,
		"track": 3
	},
	{
		"deltaTime": 0,
		"channel": 2,
		"type": "channel",
		"subtype": "noteOff",
		"noteNumber": 56,
		"velocity": 0,
		"time": 76320,
		"track": 4
	},
	{
		"deltaTime": 0,
		"channel": 2,
		"type": "channel",
		"subtype": "noteOff",
		"noteNumber": 52,
		"velocity": 0,
		"time": 76320,
		"track": 4
	},
	{
		"deltaTime": 0,
		"channel": 2,
		"type": "channel",
		"noteNumber": 40,
		"velocity": 127,
		"subtype": "noteOn",
		"time": 76320,
		"track": 4
	},
	{
		"deltaTime": 0,
		"channel": 2,
		"type": "channel",
		"noteNumber": 52,
		"velocity": 127,
		"subtype": "noteOn",
		"time": 76320,
		"track": 4
	},
	{
		"deltaTime": 0,
		"channel": 2,
		"type": "channel",
		"noteNumber": 56,
		"velocity": 127,
		"subtype": "noteOn",
		"time": 76320,
		"track": 4
	},
	{
		"deltaTime": 0,
		"channel": 2,
		"type": "channel",
		"noteNumber": 59,
		"velocity": 127,
		"subtype": "noteOn",
		"time": 76320,
		"track": 4
	},
	{
		"deltaTime": 0,
		"channel": 9,
		"type": "channel",
		"noteNumber": 42,
		"velocity": 127,
		"subtype": "noteOn",
		"time": 76320,
		"track": 5
	},
	{
		"deltaTime": 0,
		"channel": 9,
		"type": "channel",
		"noteNumber": 40,
		"velocity": 127,
		"subtype": "noteOn",
		"time": 76320,
		"track": 5
	},
	{
		"deltaTime": 60,
		"channel": 9,
		"type": "channel",
		"noteNumber": 38,
		"velocity": 127,
		"subtype": "noteOn",
		"time": 76320,
		"track": 5
	},
	{
		"deltaTime": 0,
		"channel": 9,
		"type": "channel",
		"subtype": "noteOff",
		"noteNumber": 38,
		"velocity": 0,
		"time": 76380,
		"track": 5
	},
	{
		"deltaTime": 0,
		"channel": 9,
		"type": "channel",
		"subtype": "noteOff",
		"noteNumber": 40,
		"velocity": 0,
		"time": 76380,
		"track": 5
	},
	{
		"deltaTime": 60,
		"channel": 9,
		"type": "channel",
		"subtype": "noteOff",
		"noteNumber": 42,
		"velocity": 0,
		"time": 76380,
		"track": 5
	},
	{
		"deltaTime": 60,
		"channel": 9,
		"type": "channel",
		"noteNumber": 42,
		"velocity": 127,
		"subtype": "noteOn",
		"time": 76440,
		"track": 5
	},
	{
		"deltaTime": 60,
		"channel": 9,
		"type": "channel",
		"subtype": "noteOff",
		"noteNumber": 42,
		"velocity": 0,
		"time": 76500,
		"track": 5
	},
	{
		"deltaTime": 0,
		"channel": 0,
		"type": "channel",
		"subtype": "noteOff",
		"noteNumber": 40,
		"velocity": 0,
		"time": 76560,
		"track": 2
	},
	{
		"deltaTime": 0,
		"channel": 0,
		"type": "channel",
		"noteNumber": 40,
		"velocity": 127,
		"subtype": "noteOn",
		"time": 76560,
		"track": 2
	},
	{
		"deltaTime": 0,
		"channel": 1,
		"type": "channel",
		"subtype": "noteOff",
		"noteNumber": 59,
		"velocity": 0,
		"time": 76560,
		"track": 3
	},
	{
		"deltaTime": 0,
		"channel": 1,
		"type": "channel",
		"noteNumber": 56,
		"velocity": 127,
		"subtype": "noteOn",
		"time": 76560,
		"track": 3
	},
	{
		"deltaTime": 60,
		"channel": 9,
		"type": "channel",
		"noteNumber": 42,
		"velocity": 127,
		"subtype": "noteOn",
		"time": 76560,
		"track": 5
	},
	{
		"deltaTime": 60,
		"channel": 9,
		"type": "channel",
		"subtype": "noteOff",
		"noteNumber": 42,
		"velocity": 0,
		"time": 76620,
		"track": 5
	},
	{
		"deltaTime": 0,
		"channel": 1,
		"type": "channel",
		"subtype": "noteOff",
		"noteNumber": 56,
		"velocity": 0,
		"time": 76680,
		"track": 3
	},
	{
		"deltaTime": 0,
		"channel": 1,
		"type": "channel",
		"noteNumber": 59,
		"velocity": 127,
		"subtype": "noteOn",
		"time": 76680,
		"track": 3
	},
	{
		"deltaTime": 60,
		"channel": 9,
		"type": "channel",
		"noteNumber": 42,
		"velocity": 127,
		"subtype": "noteOn",
		"time": 76680,
		"track": 5
	},
	{
		"deltaTime": 60,
		"channel": 9,
		"type": "channel",
		"subtype": "noteOff",
		"noteNumber": 42,
		"velocity": 0,
		"time": 76740,
		"track": 5
	},
	{
		"deltaTime": 0,
		"channel": 0,
		"type": "channel",
		"subtype": "noteOff",
		"noteNumber": 40,
		"velocity": 0,
		"time": 76800,
		"track": 2
	},
	{
		"deltaTime": 0,
		"channel": 0,
		"type": "channel",
		"noteNumber": 41,
		"velocity": 127,
		"subtype": "noteOn",
		"time": 76800,
		"track": 2
	},
	{
		"deltaTime": 0,
		"channel": 1,
		"type": "channel",
		"subtype": "noteOff",
		"noteNumber": 59,
		"velocity": 0,
		"time": 76800,
		"track": 3
	},
	{
		"deltaTime": 0,
		"channel": 1,
		"type": "channel",
		"noteNumber": 63,
		"velocity": 127,
		"subtype": "noteOn",
		"time": 76800,
		"track": 3
	},
	{
		"deltaTime": 0,
		"channel": 2,
		"type": "channel",
		"subtype": "noteOff",
		"noteNumber": 59,
		"velocity": 0,
		"time": 76800,
		"track": 4
	},
	{
		"deltaTime": 0,
		"channel": 2,
		"type": "channel",
		"subtype": "noteOff",
		"noteNumber": 56,
		"velocity": 0,
		"time": 76800,
		"track": 4
	},
	{
		"deltaTime": 0,
		"channel": 2,
		"type": "channel",
		"subtype": "noteOff",
		"noteNumber": 52,
		"velocity": 0,
		"time": 76800,
		"track": 4
	},
	{
		"deltaTime": 0,
		"channel": 2,
		"type": "channel",
		"subtype": "noteOff",
		"noteNumber": 40,
		"velocity": 0,
		"time": 76800,
		"track": 4
	},
	{
		"deltaTime": 0,
		"channel": 9,
		"type": "channel",
		"noteNumber": 35,
		"velocity": 127,
		"subtype": "noteOn",
		"time": 76800,
		"track": 5
	},
	{
		"deltaTime": 60,
		"channel": 9,
		"type": "channel",
		"noteNumber": 36,
		"velocity": 127,
		"subtype": "noteOn",
		"time": 76800,
		"track": 5
	},
	{
		"deltaTime": 0,
		"channel": 9,
		"type": "channel",
		"subtype": "noteOff",
		"noteNumber": 36,
		"velocity": 0,
		"time": 76860,
		"track": 5
	},
	{
		"deltaTime": 180,
		"channel": 9,
		"type": "channel",
		"subtype": "noteOff",
		"noteNumber": 35,
		"velocity": 0,
		"time": 76860,
		"track": 5
	},
	{
		"deltaTime": 0,
		"channel": 1,
		"type": "channel",
		"subtype": "noteOff",
		"noteNumber": 63,
		"velocity": 0,
		"time": 77040,
		"track": 3
	},
	{
		"deltaTime": 0,
		"channel": 1,
		"type": "channel",
		"noteNumber": 59,
		"velocity": 127,
		"subtype": "noteOn",
		"time": 77040,
		"track": 3
	},
	{
		"deltaTime": 0,
		"channel": 9,
		"type": "channel",
		"noteNumber": 35,
		"velocity": 127,
		"subtype": "noteOn",
		"time": 77040,
		"track": 5
	},
	{
		"deltaTime": 60,
		"channel": 9,
		"type": "channel",
		"noteNumber": 36,
		"velocity": 127,
		"subtype": "noteOn",
		"time": 77040,
		"track": 5
	},
	{
		"deltaTime": 0,
		"channel": 9,
		"type": "channel",
		"subtype": "noteOff",
		"noteNumber": 36,
		"velocity": 0,
		"time": 77100,
		"track": 5
	},
	{
		"deltaTime": 60,
		"channel": 9,
		"type": "channel",
		"subtype": "noteOff",
		"noteNumber": 35,
		"velocity": 0,
		"time": 77100,
		"track": 5
	},
	{
		"deltaTime": 0,
		"channel": 1,
		"type": "channel",
		"subtype": "noteOff",
		"noteNumber": 59,
		"velocity": 0,
		"time": 77160,
		"track": 3
	},
	{
		"deltaTime": 120,
		"channel": 1,
		"type": "channel",
		"noteNumber": 61,
		"velocity": 127,
		"subtype": "noteOn",
		"time": 77160,
		"track": 3
	},
	{
		"deltaTime": 60,
		"channel": 9,
		"type": "channel",
		"noteNumber": 39,
		"velocity": 127,
		"subtype": "noteOn",
		"time": 77280,
		"track": 5
	},
	{
		"deltaTime": 180,
		"channel": 9,
		"type": "channel",
		"subtype": "noteOff",
		"noteNumber": 39,
		"velocity": 0,
		"time": 77340,
		"track": 5
	},
	{
		"deltaTime": 0,
		"channel": 0,
		"type": "channel",
		"subtype": "noteOff",
		"noteNumber": 41,
		"velocity": 0,
		"time": 77520,
		"track": 2
	},
	{
		"deltaTime": 120,
		"channel": 0,
		"type": "channel",
		"noteNumber": 41,
		"velocity": 127,
		"subtype": "noteOn",
		"time": 77520,
		"track": 2
	},
	{
		"deltaTime": 0,
		"channel": 1,
		"type": "channel",
		"subtype": "noteOff",
		"noteNumber": 61,
		"velocity": 0,
		"time": 77640,
		"track": 3
	},
	{
		"deltaTime": 0,
		"channel": 1,
		"type": "channel",
		"noteNumber": 56,
		"velocity": 127,
		"subtype": "noteOn",
		"time": 77640,
		"track": 3
	},
	{
		"deltaTime": 0,
		"channel": 9,
		"type": "channel",
		"noteNumber": 35,
		"velocity": 127,
		"subtype": "noteOn",
		"time": 77640,
		"track": 5
	},
	{
		"deltaTime": 60,
		"channel": 9,
		"type": "channel",
		"noteNumber": 36,
		"velocity": 127,
		"subtype": "noteOn",
		"time": 77640,
		"track": 5
	},
	{
		"deltaTime": 0,
		"channel": 9,
		"type": "channel",
		"subtype": "noteOff",
		"noteNumber": 36,
		"velocity": 0,
		"time": 77700,
		"track": 5
	},
	{
		"deltaTime": 60,
		"channel": 9,
		"type": "channel",
		"subtype": "noteOff",
		"noteNumber": 35,
		"velocity": 0,
		"time": 77700,
		"track": 5
	},
	{
		"deltaTime": 0,
		"channel": 0,
		"type": "channel",
		"subtype": "noteOff",
		"noteNumber": 41,
		"velocity": 0,
		"time": 77760,
		"track": 2
	},
	{
		"deltaTime": 0,
		"channel": 0,
		"type": "channel",
		"noteNumber": 40,
		"velocity": 127,
		"subtype": "noteOn",
		"time": 77760,
		"track": 2
	},
	{
		"deltaTime": 0,
		"channel": 1,
		"type": "channel",
		"subtype": "noteOff",
		"noteNumber": 56,
		"velocity": 0,
		"time": 77760,
		"track": 3
	},
	{
		"deltaTime": 240,
		"channel": 1,
		"type": "channel",
		"noteNumber": 63,
		"velocity": 127,
		"subtype": "noteOn",
		"time": 77760,
		"track": 3
	},
	{
		"deltaTime": 0,
		"channel": 1,
		"type": "channel",
		"subtype": "noteOff",
		"noteNumber": 63,
		"velocity": 0,
		"time": 78000,
		"track": 3
	},
	{
		"deltaTime": 0,
		"channel": 1,
		"type": "channel",
		"noteNumber": 59,
		"velocity": 127,
		"subtype": "noteOn",
		"time": 78000,
		"track": 3
	},
	{
		"deltaTime": 0,
		"channel": 9,
		"type": "channel",
		"noteNumber": 35,
		"velocity": 127,
		"subtype": "noteOn",
		"time": 78000,
		"track": 5
	},
	{
		"deltaTime": 60,
		"channel": 9,
		"type": "channel",
		"noteNumber": 36,
		"velocity": 127,
		"subtype": "noteOn",
		"time": 78000,
		"track": 5
	},
	{
		"deltaTime": 0,
		"channel": 9,
		"type": "channel",
		"subtype": "noteOff",
		"noteNumber": 36,
		"velocity": 0,
		"time": 78060,
		"track": 5
	},
	{
		"deltaTime": 180,
		"channel": 9,
		"type": "channel",
		"subtype": "noteOff",
		"noteNumber": 35,
		"velocity": 0,
		"time": 78060,
		"track": 5
	},
	{
		"deltaTime": 0,
		"channel": 0,
		"type": "channel",
		"subtype": "noteOff",
		"noteNumber": 40,
		"velocity": 0,
		"time": 78240,
		"track": 2
	},
	{
		"deltaTime": 0,
		"channel": 0,
		"type": "channel",
		"noteNumber": 35,
		"velocity": 127,
		"subtype": "noteOn",
		"time": 78240,
		"track": 2
	},
	{
		"deltaTime": 0,
		"channel": 1,
		"type": "channel",
		"subtype": "noteOff",
		"noteNumber": 59,
		"velocity": 0,
		"time": 78240,
		"track": 3
	},
	{
		"deltaTime": 0,
		"channel": 1,
		"type": "channel",
		"noteNumber": 61,
		"velocity": 127,
		"subtype": "noteOn",
		"time": 78240,
		"track": 3
	},
	{
		"deltaTime": 0,
		"channel": 9,
		"type": "channel",
		"noteNumber": 38,
		"velocity": 127,
		"subtype": "noteOn",
		"time": 78240,
		"track": 5
	},
	{
		"deltaTime": 60,
		"channel": 9,
		"type": "channel",
		"noteNumber": 40,
		"velocity": 127,
		"subtype": "noteOn",
		"time": 78240,
		"track": 5
	},
	{
		"deltaTime": 0,
		"channel": 9,
		"type": "channel",
		"subtype": "noteOff",
		"noteNumber": 40,
		"velocity": 0,
		"time": 78300,
		"track": 5
	},
	{
		"deltaTime": 180,
		"channel": 9,
		"type": "channel",
		"subtype": "noteOff",
		"noteNumber": 38,
		"velocity": 0,
		"time": 78300,
		"track": 5
	},
	{
		"deltaTime": 0,
		"channel": 0,
		"type": "channel",
		"subtype": "noteOff",
		"noteNumber": 35,
		"velocity": 0,
		"time": 78480,
		"track": 2
	},
	{
		"deltaTime": 0,
		"channel": 0,
		"type": "channel",
		"noteNumber": 34,
		"velocity": 127,
		"subtype": "noteOn",
		"time": 78480,
		"track": 2
	},
	{
		"deltaTime": 0,
		"channel": 1,
		"type": "channel",
		"subtype": "noteOff",
		"noteNumber": 61,
		"velocity": 0,
		"time": 78480,
		"track": 3
	},
	{
		"deltaTime": 0,
		"channel": 1,
		"type": "channel",
		"noteNumber": 59,
		"velocity": 127,
		"subtype": "noteOn",
		"time": 78480,
		"track": 3
	},
	{
		"deltaTime": 0,
		"channel": 9,
		"type": "channel",
		"noteNumber": 35,
		"velocity": 127,
		"subtype": "noteOn",
		"time": 78480,
		"track": 5
	},
	{
		"deltaTime": 60,
		"channel": 9,
		"type": "channel",
		"noteNumber": 36,
		"velocity": 127,
		"subtype": "noteOn",
		"time": 78480,
		"track": 5
	},
	{
		"deltaTime": 0,
		"channel": 9,
		"type": "channel",
		"subtype": "noteOff",
		"noteNumber": 36,
		"velocity": 0,
		"time": 78540,
		"track": 5
	},
	{
		"deltaTime": 180,
		"channel": 9,
		"type": "channel",
		"subtype": "noteOff",
		"noteNumber": 35,
		"velocity": 0,
		"time": 78540,
		"track": 5
	},
	{
		"deltaTime": 0,
		"channel": 0,
		"type": "channel",
		"subtype": "noteOff",
		"noteNumber": 34,
		"velocity": 0,
		"time": 78720,
		"track": 2
	},
	{
		"deltaTime": 0,
		"channel": 0,
		"type": "channel",
		"noteNumber": 32,
		"velocity": 127,
		"subtype": "noteOn",
		"time": 78720,
		"track": 2
	},
	{
		"deltaTime": 0,
		"channel": 1,
		"type": "channel",
		"subtype": "noteOff",
		"noteNumber": 59,
		"velocity": 0,
		"time": 78720,
		"track": 3
	},
	{
		"deltaTime": 0,
		"channel": 2,
		"type": "channel",
		"noteNumber": 44,
		"velocity": 127,
		"subtype": "noteOn",
		"time": 78720,
		"track": 4
	},
	{
		"deltaTime": 0,
		"channel": 9,
		"type": "channel",
		"noteNumber": 42,
		"velocity": 127,
		"subtype": "noteOn",
		"time": 78720,
		"track": 5
	},
	{
		"deltaTime": 0,
		"channel": 9,
		"type": "channel",
		"noteNumber": 35,
		"velocity": 127,
		"subtype": "noteOn",
		"time": 78720,
		"track": 5
	},
	{
		"deltaTime": 60,
		"channel": 9,
		"type": "channel",
		"noteNumber": 36,
		"velocity": 127,
		"subtype": "noteOn",
		"time": 78720,
		"track": 5
	},
	{
		"deltaTime": 0,
		"channel": 9,
		"type": "channel",
		"subtype": "noteOff",
		"noteNumber": 36,
		"velocity": 0,
		"time": 78780,
		"track": 5
	},
	{
		"deltaTime": 0,
		"channel": 9,
		"type": "channel",
		"subtype": "noteOff",
		"noteNumber": 35,
		"velocity": 0,
		"time": 78780,
		"track": 5
	},
	{
		"deltaTime": 60,
		"channel": 9,
		"type": "channel",
		"subtype": "noteOff",
		"noteNumber": 42,
		"velocity": 0,
		"time": 78780,
		"track": 5
	},
	{
		"deltaTime": 60,
		"channel": 9,
		"type": "channel",
		"noteNumber": 42,
		"velocity": 127,
		"subtype": "noteOn",
		"time": 78840,
		"track": 5
	},
	{
		"deltaTime": 60,
		"channel": 9,
		"type": "channel",
		"subtype": "noteOff",
		"noteNumber": 42,
		"velocity": 0,
		"time": 78900,
		"track": 5
	},
	{
		"deltaTime": 0,
		"channel": 9,
		"type": "channel",
		"noteNumber": 42,
		"velocity": 127,
		"subtype": "noteOn",
		"time": 78960,
		"track": 5
	},
	{
		"deltaTime": 0,
		"channel": 9,
		"type": "channel",
		"noteNumber": 36,
		"velocity": 127,
		"subtype": "noteOn",
		"time": 78960,
		"track": 5
	},
	{
		"deltaTime": 60,
		"channel": 9,
		"type": "channel",
		"noteNumber": 35,
		"velocity": 127,
		"subtype": "noteOn",
		"time": 78960,
		"track": 5
	},
	{
		"deltaTime": 0,
		"channel": 9,
		"type": "channel",
		"subtype": "noteOff",
		"noteNumber": 35,
		"velocity": 0,
		"time": 79020,
		"track": 5
	},
	{
		"deltaTime": 0,
		"channel": 9,
		"type": "channel",
		"subtype": "noteOff",
		"noteNumber": 36,
		"velocity": 0,
		"time": 79020,
		"track": 5
	},
	{
		"deltaTime": 60,
		"channel": 9,
		"type": "channel",
		"subtype": "noteOff",
		"noteNumber": 42,
		"velocity": 0,
		"time": 79020,
		"track": 5
	},
	{
		"deltaTime": 0,
		"channel": 2,
		"type": "channel",
		"subtype": "noteOff",
		"noteNumber": 44,
		"velocity": 0,
		"time": 79080,
		"track": 4
	},
	{
		"deltaTime": 0,
		"channel": 2,
		"type": "channel",
		"noteNumber": 59,
		"velocity": 127,
		"subtype": "noteOn",
		"time": 79080,
		"track": 4
	},
	{
		"deltaTime": 0,
		"channel": 2,
		"type": "channel",
		"noteNumber": 63,
		"velocity": 127,
		"subtype": "noteOn",
		"time": 79080,
		"track": 4
	},
	{
		"deltaTime": 0,
		"channel": 2,
		"type": "channel",
		"noteNumber": 68,
		"velocity": 127,
		"subtype": "noteOn",
		"time": 79080,
		"track": 4
	},
	{
		"deltaTime": 60,
		"channel": 9,
		"type": "channel",
		"noteNumber": 42,
		"velocity": 127,
		"subtype": "noteOn",
		"time": 79080,
		"track": 5
	},
	{
		"deltaTime": 60,
		"channel": 9,
		"type": "channel",
		"subtype": "noteOff",
		"noteNumber": 42,
		"velocity": 0,
		"time": 79140,
		"track": 5
	},
	{
		"deltaTime": 0,
		"channel": 9,
		"type": "channel",
		"noteNumber": 42,
		"velocity": 127,
		"subtype": "noteOn",
		"time": 79200,
		"track": 5
	},
	{
		"deltaTime": 0,
		"channel": 9,
		"type": "channel",
		"noteNumber": 38,
		"velocity": 127,
		"subtype": "noteOn",
		"time": 79200,
		"track": 5
	},
	{
		"deltaTime": 60,
		"channel": 9,
		"type": "channel",
		"noteNumber": 40,
		"velocity": 127,
		"subtype": "noteOn",
		"time": 79200,
		"track": 5
	},
	{
		"deltaTime": 0,
		"channel": 9,
		"type": "channel",
		"subtype": "noteOff",
		"noteNumber": 40,
		"velocity": 0,
		"time": 79260,
		"track": 5
	},
	{
		"deltaTime": 0,
		"channel": 9,
		"type": "channel",
		"subtype": "noteOff",
		"noteNumber": 38,
		"velocity": 0,
		"time": 79260,
		"track": 5
	},
	{
		"deltaTime": 60,
		"channel": 9,
		"type": "channel",
		"subtype": "noteOff",
		"noteNumber": 42,
		"velocity": 0,
		"time": 79260,
		"track": 5
	},
	{
		"deltaTime": 0,
		"channel": 2,
		"type": "channel",
		"subtype": "noteOff",
		"noteNumber": 68,
		"velocity": 0,
		"time": 79320,
		"track": 4
	},
	{
		"deltaTime": 0,
		"channel": 2,
		"type": "channel",
		"subtype": "noteOff",
		"noteNumber": 63,
		"velocity": 0,
		"time": 79320,
		"track": 4
	},
	{
		"deltaTime": 0,
		"channel": 2,
		"type": "channel",
		"subtype": "noteOff",
		"noteNumber": 59,
		"velocity": 0,
		"time": 79320,
		"track": 4
	},
	{
		"deltaTime": 0,
		"channel": 2,
		"type": "channel",
		"noteNumber": 59,
		"velocity": 127,
		"subtype": "noteOn",
		"time": 79320,
		"track": 4
	},
	{
		"deltaTime": 0,
		"channel": 2,
		"type": "channel",
		"noteNumber": 63,
		"velocity": 127,
		"subtype": "noteOn",
		"time": 79320,
		"track": 4
	},
	{
		"deltaTime": 0,
		"channel": 2,
		"type": "channel",
		"noteNumber": 68,
		"velocity": 127,
		"subtype": "noteOn",
		"time": 79320,
		"track": 4
	},
	{
		"deltaTime": 60,
		"channel": 9,
		"type": "channel",
		"noteNumber": 42,
		"velocity": 127,
		"subtype": "noteOn",
		"time": 79320,
		"track": 5
	},
	{
		"deltaTime": 60,
		"channel": 9,
		"type": "channel",
		"subtype": "noteOff",
		"noteNumber": 42,
		"velocity": 0,
		"time": 79380,
		"track": 5
	},
	{
		"deltaTime": 60,
		"channel": 9,
		"type": "channel",
		"noteNumber": 42,
		"velocity": 127,
		"subtype": "noteOn",
		"time": 79440,
		"track": 5
	},
	{
		"deltaTime": 60,
		"channel": 9,
		"type": "channel",
		"subtype": "noteOff",
		"noteNumber": 42,
		"velocity": 0,
		"time": 79500,
		"track": 5
	},
	{
		"deltaTime": 0,
		"channel": 9,
		"type": "channel",
		"noteNumber": 42,
		"velocity": 127,
		"subtype": "noteOn",
		"time": 79560,
		"track": 5
	},
	{
		"deltaTime": 0,
		"channel": 9,
		"type": "channel",
		"noteNumber": 36,
		"velocity": 127,
		"subtype": "noteOn",
		"time": 79560,
		"track": 5
	},
	{
		"deltaTime": 60,
		"channel": 9,
		"type": "channel",
		"noteNumber": 35,
		"velocity": 127,
		"subtype": "noteOn",
		"time": 79560,
		"track": 5
	},
	{
		"deltaTime": 0,
		"channel": 9,
		"type": "channel",
		"subtype": "noteOff",
		"noteNumber": 35,
		"velocity": 0,
		"time": 79620,
		"track": 5
	},
	{
		"deltaTime": 0,
		"channel": 9,
		"type": "channel",
		"subtype": "noteOff",
		"noteNumber": 36,
		"velocity": 0,
		"time": 79620,
		"track": 5
	},
	{
		"deltaTime": 60,
		"channel": 9,
		"type": "channel",
		"subtype": "noteOff",
		"noteNumber": 42,
		"velocity": 0,
		"time": 79620,
		"track": 5
	},
	{
		"deltaTime": 0,
		"channel": 0,
		"type": "channel",
		"subtype": "noteOff",
		"noteNumber": 32,
		"velocity": 0,
		"time": 79680,
		"track": 2
	},
	{
		"deltaTime": 0,
		"channel": 0,
		"type": "channel",
		"noteNumber": 40,
		"velocity": 127,
		"subtype": "noteOn",
		"time": 79680,
		"track": 2
	},
	{
		"deltaTime": 0,
		"channel": 2,
		"type": "channel",
		"subtype": "noteOff",
		"noteNumber": 68,
		"velocity": 0,
		"time": 79680,
		"track": 4
	},
	{
		"deltaTime": 0,
		"channel": 2,
		"type": "channel",
		"subtype": "noteOff",
		"noteNumber": 63,
		"velocity": 0,
		"time": 79680,
		"track": 4
	},
	{
		"deltaTime": 0,
		"channel": 2,
		"type": "channel",
		"subtype": "noteOff",
		"noteNumber": 59,
		"velocity": 0,
		"time": 79680,
		"track": 4
	},
	{
		"deltaTime": 0,
		"channel": 2,
		"type": "channel",
		"noteNumber": 40,
		"velocity": 127,
		"subtype": "noteOn",
		"time": 79680,
		"track": 4
	},
	{
		"deltaTime": 60,
		"channel": 9,
		"type": "channel",
		"noteNumber": 42,
		"velocity": 127,
		"subtype": "noteOn",
		"time": 79680,
		"track": 5
	},
	{
		"deltaTime": 60,
		"channel": 9,
		"type": "channel",
		"subtype": "noteOff",
		"noteNumber": 42,
		"velocity": 0,
		"time": 79740,
		"track": 5
	},
	{
		"deltaTime": 60,
		"channel": 9,
		"type": "channel",
		"noteNumber": 42,
		"velocity": 127,
		"subtype": "noteOn",
		"time": 79800,
		"track": 5
	},
	{
		"deltaTime": 60,
		"channel": 9,
		"type": "channel",
		"subtype": "noteOff",
		"noteNumber": 42,
		"velocity": 0,
		"time": 79860,
		"track": 5
	},
	{
		"deltaTime": 0,
		"channel": 9,
		"type": "channel",
		"noteNumber": 42,
		"velocity": 127,
		"subtype": "noteOn",
		"time": 79920,
		"track": 5
	},
	{
		"deltaTime": 0,
		"channel": 9,
		"type": "channel",
		"noteNumber": 36,
		"velocity": 127,
		"subtype": "noteOn",
		"time": 79920,
		"track": 5
	},
	{
		"deltaTime": 60,
		"channel": 9,
		"type": "channel",
		"noteNumber": 35,
		"velocity": 127,
		"subtype": "noteOn",
		"time": 79920,
		"track": 5
	},
	{
		"deltaTime": 0,
		"channel": 9,
		"type": "channel",
		"subtype": "noteOff",
		"noteNumber": 35,
		"velocity": 0,
		"time": 79980,
		"track": 5
	},
	{
		"deltaTime": 0,
		"channel": 9,
		"type": "channel",
		"subtype": "noteOff",
		"noteNumber": 36,
		"velocity": 0,
		"time": 79980,
		"track": 5
	},
	{
		"deltaTime": 60,
		"channel": 9,
		"type": "channel",
		"subtype": "noteOff",
		"noteNumber": 42,
		"velocity": 0,
		"time": 79980,
		"track": 5
	},
	{
		"deltaTime": 0,
		"channel": 2,
		"type": "channel",
		"subtype": "noteOff",
		"noteNumber": 40,
		"velocity": 0,
		"time": 80040,
		"track": 4
	},
	{
		"deltaTime": 0,
		"channel": 2,
		"type": "channel",
		"noteNumber": 59,
		"velocity": 127,
		"subtype": "noteOn",
		"time": 80040,
		"track": 4
	},
	{
		"deltaTime": 0,
		"channel": 2,
		"type": "channel",
		"noteNumber": 63,
		"velocity": 127,
		"subtype": "noteOn",
		"time": 80040,
		"track": 4
	},
	{
		"deltaTime": 0,
		"channel": 2,
		"type": "channel",
		"noteNumber": 68,
		"velocity": 127,
		"subtype": "noteOn",
		"time": 80040,
		"track": 4
	},
	{
		"deltaTime": 60,
		"channel": 9,
		"type": "channel",
		"noteNumber": 42,
		"velocity": 127,
		"subtype": "noteOn",
		"time": 80040,
		"track": 5
	},
	{
		"deltaTime": 60,
		"channel": 9,
		"type": "channel",
		"subtype": "noteOff",
		"noteNumber": 42,
		"velocity": 0,
		"time": 80100,
		"track": 5
	},
	{
		"deltaTime": 0,
		"channel": 9,
		"type": "channel",
		"noteNumber": 42,
		"velocity": 127,
		"subtype": "noteOn",
		"time": 80160,
		"track": 5
	},
	{
		"deltaTime": 0,
		"channel": 9,
		"type": "channel",
		"noteNumber": 40,
		"velocity": 127,
		"subtype": "noteOn",
		"time": 80160,
		"track": 5
	},
	{
		"deltaTime": 60,
		"channel": 9,
		"type": "channel",
		"noteNumber": 38,
		"velocity": 127,
		"subtype": "noteOn",
		"time": 80160,
		"track": 5
	},
	{
		"deltaTime": 0,
		"channel": 9,
		"type": "channel",
		"subtype": "noteOff",
		"noteNumber": 38,
		"velocity": 0,
		"time": 80220,
		"track": 5
	},
	{
		"deltaTime": 0,
		"channel": 9,
		"type": "channel",
		"subtype": "noteOff",
		"noteNumber": 40,
		"velocity": 0,
		"time": 80220,
		"track": 5
	},
	{
		"deltaTime": 60,
		"channel": 9,
		"type": "channel",
		"subtype": "noteOff",
		"noteNumber": 42,
		"velocity": 0,
		"time": 80220,
		"track": 5
	},
	{
		"deltaTime": 0,
		"channel": 2,
		"type": "channel",
		"subtype": "noteOff",
		"noteNumber": 68,
		"velocity": 0,
		"time": 80280,
		"track": 4
	},
	{
		"deltaTime": 0,
		"channel": 2,
		"type": "channel",
		"subtype": "noteOff",
		"noteNumber": 63,
		"velocity": 0,
		"time": 80280,
		"track": 4
	},
	{
		"deltaTime": 0,
		"channel": 2,
		"type": "channel",
		"subtype": "noteOff",
		"noteNumber": 59,
		"velocity": 0,
		"time": 80280,
		"track": 4
	},
	{
		"deltaTime": 0,
		"channel": 2,
		"type": "channel",
		"noteNumber": 59,
		"velocity": 127,
		"subtype": "noteOn",
		"time": 80280,
		"track": 4
	},
	{
		"deltaTime": 0,
		"channel": 2,
		"type": "channel",
		"noteNumber": 63,
		"velocity": 127,
		"subtype": "noteOn",
		"time": 80280,
		"track": 4
	},
	{
		"deltaTime": 0,
		"channel": 2,
		"type": "channel",
		"noteNumber": 68,
		"velocity": 127,
		"subtype": "noteOn",
		"time": 80280,
		"track": 4
	},
	{
		"deltaTime": 60,
		"channel": 9,
		"type": "channel",
		"noteNumber": 42,
		"velocity": 127,
		"subtype": "noteOn",
		"time": 80280,
		"track": 5
	},
	{
		"deltaTime": 60,
		"channel": 9,
		"type": "channel",
		"subtype": "noteOff",
		"noteNumber": 42,
		"velocity": 0,
		"time": 80340,
		"track": 5
	},
	{
		"deltaTime": 60,
		"channel": 9,
		"type": "channel",
		"noteNumber": 42,
		"velocity": 127,
		"subtype": "noteOn",
		"time": 80400,
		"track": 5
	},
	{
		"deltaTime": 60,
		"channel": 9,
		"type": "channel",
		"subtype": "noteOff",
		"noteNumber": 42,
		"velocity": 0,
		"time": 80460,
		"track": 5
	},
	{
		"deltaTime": 60,
		"channel": 9,
		"type": "channel",
		"noteNumber": 42,
		"velocity": 127,
		"subtype": "noteOn",
		"time": 80520,
		"track": 5
	},
	{
		"deltaTime": 60,
		"channel": 9,
		"type": "channel",
		"subtype": "noteOff",
		"noteNumber": 42,
		"velocity": 0,
		"time": 80580,
		"track": 5
	},
	{
		"deltaTime": 0,
		"channel": 0,
		"type": "channel",
		"subtype": "noteOff",
		"noteNumber": 40,
		"velocity": 0,
		"time": 80640,
		"track": 2
	},
	{
		"deltaTime": 0,
		"channel": 0,
		"type": "channel",
		"noteNumber": 42,
		"velocity": 127,
		"subtype": "noteOn",
		"time": 80640,
		"track": 2
	},
	{
		"deltaTime": 0,
		"channel": 2,
		"type": "channel",
		"subtype": "noteOff",
		"noteNumber": 68,
		"velocity": 0,
		"time": 80640,
		"track": 4
	},
	{
		"deltaTime": 0,
		"channel": 2,
		"type": "channel",
		"subtype": "noteOff",
		"noteNumber": 63,
		"velocity": 0,
		"time": 80640,
		"track": 4
	},
	{
		"deltaTime": 0,
		"channel": 2,
		"type": "channel",
		"subtype": "noteOff",
		"noteNumber": 59,
		"velocity": 0,
		"time": 80640,
		"track": 4
	},
	{
		"deltaTime": 0,
		"channel": 2,
		"type": "channel",
		"noteNumber": 42,
		"velocity": 127,
		"subtype": "noteOn",
		"time": 80640,
		"track": 4
	},
	{
		"deltaTime": 0,
		"channel": 9,
		"type": "channel",
		"noteNumber": 42,
		"velocity": 127,
		"subtype": "noteOn",
		"time": 80640,
		"track": 5
	},
	{
		"deltaTime": 0,
		"channel": 9,
		"type": "channel",
		"noteNumber": 35,
		"velocity": 127,
		"subtype": "noteOn",
		"time": 80640,
		"track": 5
	},
	{
		"deltaTime": 60,
		"channel": 9,
		"type": "channel",
		"noteNumber": 36,
		"velocity": 127,
		"subtype": "noteOn",
		"time": 80640,
		"track": 5
	},
	{
		"deltaTime": 0,
		"channel": 9,
		"type": "channel",
		"subtype": "noteOff",
		"noteNumber": 36,
		"velocity": 0,
		"time": 80700,
		"track": 5
	},
	{
		"deltaTime": 0,
		"channel": 9,
		"type": "channel",
		"subtype": "noteOff",
		"noteNumber": 35,
		"velocity": 0,
		"time": 80700,
		"track": 5
	},
	{
		"deltaTime": 60,
		"channel": 9,
		"type": "channel",
		"subtype": "noteOff",
		"noteNumber": 42,
		"velocity": 0,
		"time": 80700,
		"track": 5
	},
	{
		"deltaTime": 60,
		"channel": 9,
		"type": "channel",
		"noteNumber": 42,
		"velocity": 127,
		"subtype": "noteOn",
		"time": 80760,
		"track": 5
	},
	{
		"deltaTime": 60,
		"channel": 9,
		"type": "channel",
		"subtype": "noteOff",
		"noteNumber": 42,
		"velocity": 0,
		"time": 80820,
		"track": 5
	},
	{
		"deltaTime": 0,
		"channel": 9,
		"type": "channel",
		"noteNumber": 42,
		"velocity": 127,
		"subtype": "noteOn",
		"time": 80880,
		"track": 5
	},
	{
		"deltaTime": 0,
		"channel": 9,
		"type": "channel",
		"noteNumber": 36,
		"velocity": 127,
		"subtype": "noteOn",
		"time": 80880,
		"track": 5
	},
	{
		"deltaTime": 60,
		"channel": 9,
		"type": "channel",
		"noteNumber": 35,
		"velocity": 127,
		"subtype": "noteOn",
		"time": 80880,
		"track": 5
	},
	{
		"deltaTime": 0,
		"channel": 9,
		"type": "channel",
		"subtype": "noteOff",
		"noteNumber": 35,
		"velocity": 0,
		"time": 80940,
		"track": 5
	},
	{
		"deltaTime": 0,
		"channel": 9,
		"type": "channel",
		"subtype": "noteOff",
		"noteNumber": 36,
		"velocity": 0,
		"time": 80940,
		"track": 5
	},
	{
		"deltaTime": 60,
		"channel": 9,
		"type": "channel",
		"subtype": "noteOff",
		"noteNumber": 42,
		"velocity": 0,
		"time": 80940,
		"track": 5
	},
	{
		"deltaTime": 0,
		"channel": 2,
		"type": "channel",
		"subtype": "noteOff",
		"noteNumber": 42,
		"velocity": 0,
		"time": 81000,
		"track": 4
	},
	{
		"deltaTime": 0,
		"channel": 2,
		"type": "channel",
		"noteNumber": 61,
		"velocity": 127,
		"subtype": "noteOn",
		"time": 81000,
		"track": 4
	},
	{
		"deltaTime": 0,
		"channel": 2,
		"type": "channel",
		"noteNumber": 66,
		"velocity": 127,
		"subtype": "noteOn",
		"time": 81000,
		"track": 4
	},
	{
		"deltaTime": 0,
		"channel": 2,
		"type": "channel",
		"noteNumber": 70,
		"velocity": 127,
		"subtype": "noteOn",
		"time": 81000,
		"track": 4
	},
	{
		"deltaTime": 60,
		"channel": 9,
		"type": "channel",
		"noteNumber": 42,
		"velocity": 127,
		"subtype": "noteOn",
		"time": 81000,
		"track": 5
	},
	{
		"deltaTime": 60,
		"channel": 9,
		"type": "channel",
		"subtype": "noteOff",
		"noteNumber": 42,
		"velocity": 0,
		"time": 81060,
		"track": 5
	},
	{
		"deltaTime": 0,
		"channel": 9,
		"type": "channel",
		"noteNumber": 42,
		"velocity": 127,
		"subtype": "noteOn",
		"time": 81120,
		"track": 5
	},
	{
		"deltaTime": 0,
		"channel": 9,
		"type": "channel",
		"noteNumber": 38,
		"velocity": 127,
		"subtype": "noteOn",
		"time": 81120,
		"track": 5
	},
	{
		"deltaTime": 60,
		"channel": 9,
		"type": "channel",
		"noteNumber": 40,
		"velocity": 127,
		"subtype": "noteOn",
		"time": 81120,
		"track": 5
	},
	{
		"deltaTime": 0,
		"channel": 9,
		"type": "channel",
		"subtype": "noteOff",
		"noteNumber": 40,
		"velocity": 0,
		"time": 81180,
		"track": 5
	},
	{
		"deltaTime": 0,
		"channel": 9,
		"type": "channel",
		"subtype": "noteOff",
		"noteNumber": 38,
		"velocity": 0,
		"time": 81180,
		"track": 5
	},
	{
		"deltaTime": 60,
		"channel": 9,
		"type": "channel",
		"subtype": "noteOff",
		"noteNumber": 42,
		"velocity": 0,
		"time": 81180,
		"track": 5
	},
	{
		"deltaTime": 0,
		"channel": 2,
		"type": "channel",
		"subtype": "noteOff",
		"noteNumber": 70,
		"velocity": 0,
		"time": 81240,
		"track": 4
	},
	{
		"deltaTime": 0,
		"channel": 2,
		"type": "channel",
		"subtype": "noteOff",
		"noteNumber": 66,
		"velocity": 0,
		"time": 81240,
		"track": 4
	},
	{
		"deltaTime": 0,
		"channel": 2,
		"type": "channel",
		"subtype": "noteOff",
		"noteNumber": 61,
		"velocity": 0,
		"time": 81240,
		"track": 4
	},
	{
		"deltaTime": 0,
		"channel": 2,
		"type": "channel",
		"noteNumber": 61,
		"velocity": 127,
		"subtype": "noteOn",
		"time": 81240,
		"track": 4
	},
	{
		"deltaTime": 0,
		"channel": 2,
		"type": "channel",
		"noteNumber": 66,
		"velocity": 127,
		"subtype": "noteOn",
		"time": 81240,
		"track": 4
	},
	{
		"deltaTime": 0,
		"channel": 2,
		"type": "channel",
		"noteNumber": 70,
		"velocity": 127,
		"subtype": "noteOn",
		"time": 81240,
		"track": 4
	},
	{
		"deltaTime": 60,
		"channel": 9,
		"type": "channel",
		"noteNumber": 42,
		"velocity": 127,
		"subtype": "noteOn",
		"time": 81240,
		"track": 5
	},
	{
		"deltaTime": 60,
		"channel": 9,
		"type": "channel",
		"subtype": "noteOff",
		"noteNumber": 42,
		"velocity": 0,
		"time": 81300,
		"track": 5
	},
	{
		"deltaTime": 60,
		"channel": 9,
		"type": "channel",
		"noteNumber": 42,
		"velocity": 127,
		"subtype": "noteOn",
		"time": 81360,
		"track": 5
	},
	{
		"deltaTime": 60,
		"channel": 9,
		"type": "channel",
		"subtype": "noteOff",
		"noteNumber": 42,
		"velocity": 0,
		"time": 81420,
		"track": 5
	},
	{
		"deltaTime": 0,
		"channel": 9,
		"type": "channel",
		"noteNumber": 42,
		"velocity": 127,
		"subtype": "noteOn",
		"time": 81480,
		"track": 5
	},
	{
		"deltaTime": 0,
		"channel": 9,
		"type": "channel",
		"noteNumber": 36,
		"velocity": 127,
		"subtype": "noteOn",
		"time": 81480,
		"track": 5
	},
	{
		"deltaTime": 60,
		"channel": 9,
		"type": "channel",
		"noteNumber": 35,
		"velocity": 127,
		"subtype": "noteOn",
		"time": 81480,
		"track": 5
	},
	{
		"deltaTime": 0,
		"channel": 9,
		"type": "channel",
		"subtype": "noteOff",
		"noteNumber": 35,
		"velocity": 0,
		"time": 81540,
		"track": 5
	},
	{
		"deltaTime": 0,
		"channel": 9,
		"type": "channel",
		"subtype": "noteOff",
		"noteNumber": 36,
		"velocity": 0,
		"time": 81540,
		"track": 5
	},
	{
		"deltaTime": 60,
		"channel": 9,
		"type": "channel",
		"subtype": "noteOff",
		"noteNumber": 42,
		"velocity": 0,
		"time": 81540,
		"track": 5
	},
	{
		"deltaTime": 0,
		"channel": 0,
		"type": "channel",
		"subtype": "noteOff",
		"noteNumber": 42,
		"velocity": 0,
		"time": 81600,
		"track": 2
	},
	{
		"deltaTime": 0,
		"channel": 0,
		"type": "channel",
		"noteNumber": 35,
		"velocity": 127,
		"subtype": "noteOn",
		"time": 81600,
		"track": 2
	},
	{
		"deltaTime": 0,
		"channel": 2,
		"type": "channel",
		"subtype": "noteOff",
		"noteNumber": 70,
		"velocity": 0,
		"time": 81600,
		"track": 4
	},
	{
		"deltaTime": 0,
		"channel": 2,
		"type": "channel",
		"subtype": "noteOff",
		"noteNumber": 66,
		"velocity": 0,
		"time": 81600,
		"track": 4
	},
	{
		"deltaTime": 0,
		"channel": 2,
		"type": "channel",
		"subtype": "noteOff",
		"noteNumber": 61,
		"velocity": 0,
		"time": 81600,
		"track": 4
	},
	{
		"deltaTime": 0,
		"channel": 2,
		"type": "channel",
		"noteNumber": 47,
		"velocity": 127,
		"subtype": "noteOn",
		"time": 81600,
		"track": 4
	},
	{
		"deltaTime": 60,
		"channel": 9,
		"type": "channel",
		"noteNumber": 42,
		"velocity": 127,
		"subtype": "noteOn",
		"time": 81600,
		"track": 5
	},
	{
		"deltaTime": 60,
		"channel": 9,
		"type": "channel",
		"subtype": "noteOff",
		"noteNumber": 42,
		"velocity": 0,
		"time": 81660,
		"track": 5
	},
	{
		"deltaTime": 60,
		"channel": 9,
		"type": "channel",
		"noteNumber": 42,
		"velocity": 127,
		"subtype": "noteOn",
		"time": 81720,
		"track": 5
	},
	{
		"deltaTime": 60,
		"channel": 9,
		"type": "channel",
		"subtype": "noteOff",
		"noteNumber": 42,
		"velocity": 0,
		"time": 81780,
		"track": 5
	},
	{
		"deltaTime": 0,
		"channel": 9,
		"type": "channel",
		"noteNumber": 42,
		"velocity": 127,
		"subtype": "noteOn",
		"time": 81840,
		"track": 5
	},
	{
		"deltaTime": 0,
		"channel": 9,
		"type": "channel",
		"noteNumber": 36,
		"velocity": 127,
		"subtype": "noteOn",
		"time": 81840,
		"track": 5
	},
	{
		"deltaTime": 60,
		"channel": 9,
		"type": "channel",
		"noteNumber": 35,
		"velocity": 127,
		"subtype": "noteOn",
		"time": 81840,
		"track": 5
	},
	{
		"deltaTime": 0,
		"channel": 9,
		"type": "channel",
		"subtype": "noteOff",
		"noteNumber": 35,
		"velocity": 0,
		"time": 81900,
		"track": 5
	},
	{
		"deltaTime": 0,
		"channel": 9,
		"type": "channel",
		"subtype": "noteOff",
		"noteNumber": 36,
		"velocity": 0,
		"time": 81900,
		"track": 5
	},
	{
		"deltaTime": 60,
		"channel": 9,
		"type": "channel",
		"subtype": "noteOff",
		"noteNumber": 42,
		"velocity": 0,
		"time": 81900,
		"track": 5
	},
	{
		"deltaTime": 0,
		"channel": 2,
		"type": "channel",
		"subtype": "noteOff",
		"noteNumber": 47,
		"velocity": 0,
		"time": 81960,
		"track": 4
	},
	{
		"deltaTime": 0,
		"channel": 2,
		"type": "channel",
		"noteNumber": 61,
		"velocity": 127,
		"subtype": "noteOn",
		"time": 81960,
		"track": 4
	},
	{
		"deltaTime": 0,
		"channel": 2,
		"type": "channel",
		"noteNumber": 66,
		"velocity": 127,
		"subtype": "noteOn",
		"time": 81960,
		"track": 4
	},
	{
		"deltaTime": 0,
		"channel": 2,
		"type": "channel",
		"noteNumber": 70,
		"velocity": 127,
		"subtype": "noteOn",
		"time": 81960,
		"track": 4
	},
	{
		"deltaTime": 60,
		"channel": 9,
		"type": "channel",
		"noteNumber": 42,
		"velocity": 127,
		"subtype": "noteOn",
		"time": 81960,
		"track": 5
	},
	{
		"deltaTime": 60,
		"channel": 9,
		"type": "channel",
		"subtype": "noteOff",
		"noteNumber": 42,
		"velocity": 0,
		"time": 82020,
		"track": 5
	},
	{
		"deltaTime": 0,
		"channel": 0,
		"type": "channel",
		"subtype": "noteOff",
		"noteNumber": 35,
		"velocity": 0,
		"time": 82080,
		"track": 2
	},
	{
		"deltaTime": 0,
		"channel": 0,
		"type": "channel",
		"noteNumber": 34,
		"velocity": 127,
		"subtype": "noteOn",
		"time": 82080,
		"track": 2
	},
	{
		"deltaTime": 0,
		"channel": 9,
		"type": "channel",
		"noteNumber": 42,
		"velocity": 127,
		"subtype": "noteOn",
		"time": 82080,
		"track": 5
	},
	{
		"deltaTime": 0,
		"channel": 9,
		"type": "channel",
		"noteNumber": 40,
		"velocity": 127,
		"subtype": "noteOn",
		"time": 82080,
		"track": 5
	},
	{
		"deltaTime": 60,
		"channel": 9,
		"type": "channel",
		"noteNumber": 38,
		"velocity": 127,
		"subtype": "noteOn",
		"time": 82080,
		"track": 5
	},
	{
		"deltaTime": 0,
		"channel": 9,
		"type": "channel",
		"subtype": "noteOff",
		"noteNumber": 38,
		"velocity": 0,
		"time": 82140,
		"track": 5
	},
	{
		"deltaTime": 0,
		"channel": 9,
		"type": "channel",
		"subtype": "noteOff",
		"noteNumber": 40,
		"velocity": 0,
		"time": 82140,
		"track": 5
	},
	{
		"deltaTime": 60,
		"channel": 9,
		"type": "channel",
		"subtype": "noteOff",
		"noteNumber": 42,
		"velocity": 0,
		"time": 82140,
		"track": 5
	},
	{
		"deltaTime": 0,
		"channel": 2,
		"type": "channel",
		"subtype": "noteOff",
		"noteNumber": 70,
		"velocity": 0,
		"time": 82200,
		"track": 4
	},
	{
		"deltaTime": 0,
		"channel": 2,
		"type": "channel",
		"subtype": "noteOff",
		"noteNumber": 66,
		"velocity": 0,
		"time": 82200,
		"track": 4
	},
	{
		"deltaTime": 0,
		"channel": 2,
		"type": "channel",
		"subtype": "noteOff",
		"noteNumber": 61,
		"velocity": 0,
		"time": 82200,
		"track": 4
	},
	{
		"deltaTime": 0,
		"channel": 2,
		"type": "channel",
		"noteNumber": 61,
		"velocity": 127,
		"subtype": "noteOn",
		"time": 82200,
		"track": 4
	},
	{
		"deltaTime": 0,
		"channel": 2,
		"type": "channel",
		"noteNumber": 66,
		"velocity": 127,
		"subtype": "noteOn",
		"time": 82200,
		"track": 4
	},
	{
		"deltaTime": 0,
		"channel": 2,
		"type": "channel",
		"noteNumber": 71,
		"velocity": 127,
		"subtype": "noteOn",
		"time": 82200,
		"track": 4
	},
	{
		"deltaTime": 60,
		"channel": 9,
		"type": "channel",
		"noteNumber": 42,
		"velocity": 127,
		"subtype": "noteOn",
		"time": 82200,
		"track": 5
	},
	{
		"deltaTime": 60,
		"channel": 9,
		"type": "channel",
		"subtype": "noteOff",
		"noteNumber": 42,
		"velocity": 0,
		"time": 82260,
		"track": 5
	},
	{
		"deltaTime": 60,
		"channel": 9,
		"type": "channel",
		"noteNumber": 42,
		"velocity": 127,
		"subtype": "noteOn",
		"time": 82320,
		"track": 5
	},
	{
		"deltaTime": 60,
		"channel": 9,
		"type": "channel",
		"subtype": "noteOff",
		"noteNumber": 42,
		"velocity": 0,
		"time": 82380,
		"track": 5
	},
	{
		"deltaTime": 60,
		"channel": 9,
		"type": "channel",
		"noteNumber": 42,
		"velocity": 127,
		"subtype": "noteOn",
		"time": 82440,
		"track": 5
	},
	{
		"deltaTime": 60,
		"channel": 9,
		"type": "channel",
		"subtype": "noteOff",
		"noteNumber": 42,
		"velocity": 0,
		"time": 82500,
		"track": 5
	},
	{
		"deltaTime": 0,
		"channel": 0,
		"type": "channel",
		"subtype": "noteOff",
		"noteNumber": 34,
		"velocity": 0,
		"time": 82560,
		"track": 2
	},
	{
		"deltaTime": 0,
		"channel": 0,
		"type": "channel",
		"noteNumber": 32,
		"velocity": 127,
		"subtype": "noteOn",
		"time": 82560,
		"track": 2
	},
	{
		"deltaTime": 0,
		"channel": 2,
		"type": "channel",
		"subtype": "noteOff",
		"noteNumber": 71,
		"velocity": 0,
		"time": 82560,
		"track": 4
	},
	{
		"deltaTime": 0,
		"channel": 2,
		"type": "channel",
		"subtype": "noteOff",
		"noteNumber": 66,
		"velocity": 0,
		"time": 82560,
		"track": 4
	},
	{
		"deltaTime": 0,
		"channel": 2,
		"type": "channel",
		"subtype": "noteOff",
		"noteNumber": 61,
		"velocity": 0,
		"time": 82560,
		"track": 4
	},
	{
		"deltaTime": 0,
		"channel": 2,
		"type": "channel",
		"noteNumber": 44,
		"velocity": 127,
		"subtype": "noteOn",
		"time": 82560,
		"track": 4
	},
	{
		"deltaTime": 0,
		"channel": 9,
		"type": "channel",
		"noteNumber": 42,
		"velocity": 127,
		"subtype": "noteOn",
		"time": 82560,
		"track": 5
	},
	{
		"deltaTime": 0,
		"channel": 9,
		"type": "channel",
		"noteNumber": 35,
		"velocity": 127,
		"subtype": "noteOn",
		"time": 82560,
		"track": 5
	},
	{
		"deltaTime": 60,
		"channel": 9,
		"type": "channel",
		"noteNumber": 36,
		"velocity": 127,
		"subtype": "noteOn",
		"time": 82560,
		"track": 5
	},
	{
		"deltaTime": 0,
		"channel": 9,
		"type": "channel",
		"subtype": "noteOff",
		"noteNumber": 36,
		"velocity": 0,
		"time": 82620,
		"track": 5
	},
	{
		"deltaTime": 0,
		"channel": 9,
		"type": "channel",
		"subtype": "noteOff",
		"noteNumber": 35,
		"velocity": 0,
		"time": 82620,
		"track": 5
	},
	{
		"deltaTime": 60,
		"channel": 9,
		"type": "channel",
		"subtype": "noteOff",
		"noteNumber": 42,
		"velocity": 0,
		"time": 82620,
		"track": 5
	},
	{
		"deltaTime": 60,
		"channel": 9,
		"type": "channel",
		"noteNumber": 42,
		"velocity": 127,
		"subtype": "noteOn",
		"time": 82680,
		"track": 5
	},
	{
		"deltaTime": 60,
		"channel": 9,
		"type": "channel",
		"subtype": "noteOff",
		"noteNumber": 42,
		"velocity": 0,
		"time": 82740,
		"track": 5
	},
	{
		"deltaTime": 0,
		"channel": 9,
		"type": "channel",
		"noteNumber": 42,
		"velocity": 127,
		"subtype": "noteOn",
		"time": 82800,
		"track": 5
	},
	{
		"deltaTime": 0,
		"channel": 9,
		"type": "channel",
		"noteNumber": 36,
		"velocity": 127,
		"subtype": "noteOn",
		"time": 82800,
		"track": 5
	},
	{
		"deltaTime": 60,
		"channel": 9,
		"type": "channel",
		"noteNumber": 35,
		"velocity": 127,
		"subtype": "noteOn",
		"time": 82800,
		"track": 5
	},
	{
		"deltaTime": 0,
		"channel": 9,
		"type": "channel",
		"subtype": "noteOff",
		"noteNumber": 35,
		"velocity": 0,
		"time": 82860,
		"track": 5
	},
	{
		"deltaTime": 0,
		"channel": 9,
		"type": "channel",
		"subtype": "noteOff",
		"noteNumber": 36,
		"velocity": 0,
		"time": 82860,
		"track": 5
	},
	{
		"deltaTime": 60,
		"channel": 9,
		"type": "channel",
		"subtype": "noteOff",
		"noteNumber": 42,
		"velocity": 0,
		"time": 82860,
		"track": 5
	},
	{
		"deltaTime": 0,
		"channel": 2,
		"type": "channel",
		"subtype": "noteOff",
		"noteNumber": 44,
		"velocity": 0,
		"time": 82920,
		"track": 4
	},
	{
		"deltaTime": 0,
		"channel": 2,
		"type": "channel",
		"noteNumber": 59,
		"velocity": 127,
		"subtype": "noteOn",
		"time": 82920,
		"track": 4
	},
	{
		"deltaTime": 0,
		"channel": 2,
		"type": "channel",
		"noteNumber": 63,
		"velocity": 127,
		"subtype": "noteOn",
		"time": 82920,
		"track": 4
	},
	{
		"deltaTime": 0,
		"channel": 2,
		"type": "channel",
		"noteNumber": 68,
		"velocity": 127,
		"subtype": "noteOn",
		"time": 82920,
		"track": 4
	},
	{
		"deltaTime": 60,
		"channel": 9,
		"type": "channel",
		"noteNumber": 42,
		"velocity": 127,
		"subtype": "noteOn",
		"time": 82920,
		"track": 5
	},
	{
		"deltaTime": 60,
		"channel": 9,
		"type": "channel",
		"subtype": "noteOff",
		"noteNumber": 42,
		"velocity": 0,
		"time": 82980,
		"track": 5
	},
	{
		"deltaTime": 0,
		"channel": 9,
		"type": "channel",
		"noteNumber": 42,
		"velocity": 127,
		"subtype": "noteOn",
		"time": 83040,
		"track": 5
	},
	{
		"deltaTime": 0,
		"channel": 9,
		"type": "channel",
		"noteNumber": 38,
		"velocity": 127,
		"subtype": "noteOn",
		"time": 83040,
		"track": 5
	},
	{
		"deltaTime": 60,
		"channel": 9,
		"type": "channel",
		"noteNumber": 40,
		"velocity": 127,
		"subtype": "noteOn",
		"time": 83040,
		"track": 5
	},
	{
		"deltaTime": 0,
		"channel": 9,
		"type": "channel",
		"subtype": "noteOff",
		"noteNumber": 40,
		"velocity": 0,
		"time": 83100,
		"track": 5
	},
	{
		"deltaTime": 0,
		"channel": 9,
		"type": "channel",
		"subtype": "noteOff",
		"noteNumber": 38,
		"velocity": 0,
		"time": 83100,
		"track": 5
	},
	{
		"deltaTime": 60,
		"channel": 9,
		"type": "channel",
		"subtype": "noteOff",
		"noteNumber": 42,
		"velocity": 0,
		"time": 83100,
		"track": 5
	},
	{
		"deltaTime": 0,
		"channel": 2,
		"type": "channel",
		"subtype": "noteOff",
		"noteNumber": 68,
		"velocity": 0,
		"time": 83160,
		"track": 4
	},
	{
		"deltaTime": 0,
		"channel": 2,
		"type": "channel",
		"subtype": "noteOff",
		"noteNumber": 63,
		"velocity": 0,
		"time": 83160,
		"track": 4
	},
	{
		"deltaTime": 0,
		"channel": 2,
		"type": "channel",
		"subtype": "noteOff",
		"noteNumber": 59,
		"velocity": 0,
		"time": 83160,
		"track": 4
	},
	{
		"deltaTime": 0,
		"channel": 2,
		"type": "channel",
		"noteNumber": 59,
		"velocity": 127,
		"subtype": "noteOn",
		"time": 83160,
		"track": 4
	},
	{
		"deltaTime": 0,
		"channel": 2,
		"type": "channel",
		"noteNumber": 63,
		"velocity": 127,
		"subtype": "noteOn",
		"time": 83160,
		"track": 4
	},
	{
		"deltaTime": 0,
		"channel": 2,
		"type": "channel",
		"noteNumber": 68,
		"velocity": 127,
		"subtype": "noteOn",
		"time": 83160,
		"track": 4
	},
	{
		"deltaTime": 60,
		"channel": 9,
		"type": "channel",
		"noteNumber": 42,
		"velocity": 127,
		"subtype": "noteOn",
		"time": 83160,
		"track": 5
	},
	{
		"deltaTime": 60,
		"channel": 9,
		"type": "channel",
		"subtype": "noteOff",
		"noteNumber": 42,
		"velocity": 0,
		"time": 83220,
		"track": 5
	},
	{
		"deltaTime": 60,
		"channel": 9,
		"type": "channel",
		"noteNumber": 42,
		"velocity": 127,
		"subtype": "noteOn",
		"time": 83280,
		"track": 5
	},
	{
		"deltaTime": 60,
		"channel": 9,
		"type": "channel",
		"subtype": "noteOff",
		"noteNumber": 42,
		"velocity": 0,
		"time": 83340,
		"track": 5
	},
	{
		"deltaTime": 0,
		"channel": 9,
		"type": "channel",
		"noteNumber": 42,
		"velocity": 127,
		"subtype": "noteOn",
		"time": 83400,
		"track": 5
	},
	{
		"deltaTime": 0,
		"channel": 9,
		"type": "channel",
		"noteNumber": 36,
		"velocity": 127,
		"subtype": "noteOn",
		"time": 83400,
		"track": 5
	},
	{
		"deltaTime": 60,
		"channel": 9,
		"type": "channel",
		"noteNumber": 35,
		"velocity": 127,
		"subtype": "noteOn",
		"time": 83400,
		"track": 5
	},
	{
		"deltaTime": 0,
		"channel": 9,
		"type": "channel",
		"subtype": "noteOff",
		"noteNumber": 35,
		"velocity": 0,
		"time": 83460,
		"track": 5
	},
	{
		"deltaTime": 0,
		"channel": 9,
		"type": "channel",
		"subtype": "noteOff",
		"noteNumber": 36,
		"velocity": 0,
		"time": 83460,
		"track": 5
	},
	{
		"deltaTime": 60,
		"channel": 9,
		"type": "channel",
		"subtype": "noteOff",
		"noteNumber": 42,
		"velocity": 0,
		"time": 83460,
		"track": 5
	},
	{
		"deltaTime": 0,
		"channel": 0,
		"type": "channel",
		"subtype": "noteOff",
		"noteNumber": 32,
		"velocity": 0,
		"time": 83520,
		"track": 2
	},
	{
		"deltaTime": 0,
		"channel": 0,
		"type": "channel",
		"noteNumber": 40,
		"velocity": 127,
		"subtype": "noteOn",
		"time": 83520,
		"track": 2
	},
	{
		"deltaTime": 0,
		"channel": 2,
		"type": "channel",
		"subtype": "noteOff",
		"noteNumber": 68,
		"velocity": 0,
		"time": 83520,
		"track": 4
	},
	{
		"deltaTime": 0,
		"channel": 2,
		"type": "channel",
		"subtype": "noteOff",
		"noteNumber": 63,
		"velocity": 0,
		"time": 83520,
		"track": 4
	},
	{
		"deltaTime": 0,
		"channel": 2,
		"type": "channel",
		"subtype": "noteOff",
		"noteNumber": 59,
		"velocity": 0,
		"time": 83520,
		"track": 4
	},
	{
		"deltaTime": 0,
		"channel": 2,
		"type": "channel",
		"noteNumber": 40,
		"velocity": 127,
		"subtype": "noteOn",
		"time": 83520,
		"track": 4
	},
	{
		"deltaTime": 60,
		"channel": 9,
		"type": "channel",
		"noteNumber": 42,
		"velocity": 127,
		"subtype": "noteOn",
		"time": 83520,
		"track": 5
	},
	{
		"deltaTime": 60,
		"channel": 9,
		"type": "channel",
		"subtype": "noteOff",
		"noteNumber": 42,
		"velocity": 0,
		"time": 83580,
		"track": 5
	},
	{
		"deltaTime": 60,
		"channel": 9,
		"type": "channel",
		"noteNumber": 42,
		"velocity": 127,
		"subtype": "noteOn",
		"time": 83640,
		"track": 5
	},
	{
		"deltaTime": 60,
		"channel": 9,
		"type": "channel",
		"subtype": "noteOff",
		"noteNumber": 42,
		"velocity": 0,
		"time": 83700,
		"track": 5
	},
	{
		"deltaTime": 0,
		"channel": 9,
		"type": "channel",
		"noteNumber": 42,
		"velocity": 127,
		"subtype": "noteOn",
		"time": 83760,
		"track": 5
	},
	{
		"deltaTime": 0,
		"channel": 9,
		"type": "channel",
		"noteNumber": 36,
		"velocity": 127,
		"subtype": "noteOn",
		"time": 83760,
		"track": 5
	},
	{
		"deltaTime": 60,
		"channel": 9,
		"type": "channel",
		"noteNumber": 35,
		"velocity": 127,
		"subtype": "noteOn",
		"time": 83760,
		"track": 5
	},
	{
		"deltaTime": 0,
		"channel": 9,
		"type": "channel",
		"subtype": "noteOff",
		"noteNumber": 35,
		"velocity": 0,
		"time": 83820,
		"track": 5
	},
	{
		"deltaTime": 0,
		"channel": 9,
		"type": "channel",
		"subtype": "noteOff",
		"noteNumber": 36,
		"velocity": 0,
		"time": 83820,
		"track": 5
	},
	{
		"deltaTime": 60,
		"channel": 9,
		"type": "channel",
		"subtype": "noteOff",
		"noteNumber": 42,
		"velocity": 0,
		"time": 83820,
		"track": 5
	},
	{
		"deltaTime": 0,
		"channel": 2,
		"type": "channel",
		"subtype": "noteOff",
		"noteNumber": 40,
		"velocity": 0,
		"time": 83880,
		"track": 4
	},
	{
		"deltaTime": 0,
		"channel": 2,
		"type": "channel",
		"noteNumber": 59,
		"velocity": 127,
		"subtype": "noteOn",
		"time": 83880,
		"track": 4
	},
	{
		"deltaTime": 0,
		"channel": 2,
		"type": "channel",
		"noteNumber": 63,
		"velocity": 127,
		"subtype": "noteOn",
		"time": 83880,
		"track": 4
	},
	{
		"deltaTime": 0,
		"channel": 2,
		"type": "channel",
		"noteNumber": 68,
		"velocity": 127,
		"subtype": "noteOn",
		"time": 83880,
		"track": 4
	},
	{
		"deltaTime": 60,
		"channel": 9,
		"type": "channel",
		"noteNumber": 42,
		"velocity": 127,
		"subtype": "noteOn",
		"time": 83880,
		"track": 5
	},
	{
		"deltaTime": 60,
		"channel": 9,
		"type": "channel",
		"subtype": "noteOff",
		"noteNumber": 42,
		"velocity": 0,
		"time": 83940,
		"track": 5
	},
	{
		"deltaTime": 0,
		"channel": 9,
		"type": "channel",
		"noteNumber": 42,
		"velocity": 127,
		"subtype": "noteOn",
		"time": 84000,
		"track": 5
	},
	{
		"deltaTime": 0,
		"channel": 9,
		"type": "channel",
		"noteNumber": 40,
		"velocity": 127,
		"subtype": "noteOn",
		"time": 84000,
		"track": 5
	},
	{
		"deltaTime": 60,
		"channel": 9,
		"type": "channel",
		"noteNumber": 38,
		"velocity": 127,
		"subtype": "noteOn",
		"time": 84000,
		"track": 5
	},
	{
		"deltaTime": 0,
		"channel": 9,
		"type": "channel",
		"subtype": "noteOff",
		"noteNumber": 38,
		"velocity": 0,
		"time": 84060,
		"track": 5
	},
	{
		"deltaTime": 0,
		"channel": 9,
		"type": "channel",
		"subtype": "noteOff",
		"noteNumber": 40,
		"velocity": 0,
		"time": 84060,
		"track": 5
	},
	{
		"deltaTime": 60,
		"channel": 9,
		"type": "channel",
		"subtype": "noteOff",
		"noteNumber": 42,
		"velocity": 0,
		"time": 84060,
		"track": 5
	},
	{
		"deltaTime": 0,
		"channel": 2,
		"type": "channel",
		"subtype": "noteOff",
		"noteNumber": 68,
		"velocity": 0,
		"time": 84120,
		"track": 4
	},
	{
		"deltaTime": 0,
		"channel": 2,
		"type": "channel",
		"subtype": "noteOff",
		"noteNumber": 63,
		"velocity": 0,
		"time": 84120,
		"track": 4
	},
	{
		"deltaTime": 0,
		"channel": 2,
		"type": "channel",
		"subtype": "noteOff",
		"noteNumber": 59,
		"velocity": 0,
		"time": 84120,
		"track": 4
	},
	{
		"deltaTime": 0,
		"channel": 2,
		"type": "channel",
		"noteNumber": 59,
		"velocity": 127,
		"subtype": "noteOn",
		"time": 84120,
		"track": 4
	},
	{
		"deltaTime": 0,
		"channel": 2,
		"type": "channel",
		"noteNumber": 63,
		"velocity": 127,
		"subtype": "noteOn",
		"time": 84120,
		"track": 4
	},
	{
		"deltaTime": 0,
		"channel": 2,
		"type": "channel",
		"noteNumber": 68,
		"velocity": 127,
		"subtype": "noteOn",
		"time": 84120,
		"track": 4
	},
	{
		"deltaTime": 60,
		"channel": 9,
		"type": "channel",
		"noteNumber": 42,
		"velocity": 127,
		"subtype": "noteOn",
		"time": 84120,
		"track": 5
	},
	{
		"deltaTime": 60,
		"channel": 9,
		"type": "channel",
		"subtype": "noteOff",
		"noteNumber": 42,
		"velocity": 0,
		"time": 84180,
		"track": 5
	},
	{
		"deltaTime": 60,
		"channel": 9,
		"type": "channel",
		"noteNumber": 42,
		"velocity": 127,
		"subtype": "noteOn",
		"time": 84240,
		"track": 5
	},
	{
		"deltaTime": 60,
		"channel": 9,
		"type": "channel",
		"subtype": "noteOff",
		"noteNumber": 42,
		"velocity": 0,
		"time": 84300,
		"track": 5
	},
	{
		"deltaTime": 60,
		"channel": 9,
		"type": "channel",
		"noteNumber": 42,
		"velocity": 127,
		"subtype": "noteOn",
		"time": 84360,
		"track": 5
	},
	{
		"deltaTime": 60,
		"channel": 9,
		"type": "channel",
		"subtype": "noteOff",
		"noteNumber": 42,
		"velocity": 0,
		"time": 84420,
		"track": 5
	},
	{
		"deltaTime": 0,
		"channel": 0,
		"type": "channel",
		"subtype": "noteOff",
		"noteNumber": 40,
		"velocity": 0,
		"time": 84480,
		"track": 2
	},
	{
		"deltaTime": 0,
		"channel": 0,
		"type": "channel",
		"noteNumber": 42,
		"velocity": 127,
		"subtype": "noteOn",
		"time": 84480,
		"track": 2
	},
	{
		"deltaTime": 0,
		"channel": 2,
		"type": "channel",
		"subtype": "noteOff",
		"noteNumber": 68,
		"velocity": 0,
		"time": 84480,
		"track": 4
	},
	{
		"deltaTime": 0,
		"channel": 2,
		"type": "channel",
		"subtype": "noteOff",
		"noteNumber": 63,
		"velocity": 0,
		"time": 84480,
		"track": 4
	},
	{
		"deltaTime": 0,
		"channel": 2,
		"type": "channel",
		"subtype": "noteOff",
		"noteNumber": 59,
		"velocity": 0,
		"time": 84480,
		"track": 4
	},
	{
		"deltaTime": 0,
		"channel": 2,
		"type": "channel",
		"noteNumber": 42,
		"velocity": 127,
		"subtype": "noteOn",
		"time": 84480,
		"track": 4
	},
	{
		"deltaTime": 0,
		"channel": 9,
		"type": "channel",
		"noteNumber": 42,
		"velocity": 127,
		"subtype": "noteOn",
		"time": 84480,
		"track": 5
	},
	{
		"deltaTime": 0,
		"channel": 9,
		"type": "channel",
		"noteNumber": 35,
		"velocity": 127,
		"subtype": "noteOn",
		"time": 84480,
		"track": 5
	},
	{
		"deltaTime": 60,
		"channel": 9,
		"type": "channel",
		"noteNumber": 36,
		"velocity": 127,
		"subtype": "noteOn",
		"time": 84480,
		"track": 5
	},
	{
		"deltaTime": 0,
		"channel": 9,
		"type": "channel",
		"subtype": "noteOff",
		"noteNumber": 36,
		"velocity": 0,
		"time": 84540,
		"track": 5
	},
	{
		"deltaTime": 0,
		"channel": 9,
		"type": "channel",
		"subtype": "noteOff",
		"noteNumber": 35,
		"velocity": 0,
		"time": 84540,
		"track": 5
	},
	{
		"deltaTime": 60,
		"channel": 9,
		"type": "channel",
		"subtype": "noteOff",
		"noteNumber": 42,
		"velocity": 0,
		"time": 84540,
		"track": 5
	},
	{
		"deltaTime": 60,
		"channel": 9,
		"type": "channel",
		"noteNumber": 42,
		"velocity": 127,
		"subtype": "noteOn",
		"time": 84600,
		"track": 5
	},
	{
		"deltaTime": 60,
		"channel": 9,
		"type": "channel",
		"subtype": "noteOff",
		"noteNumber": 42,
		"velocity": 0,
		"time": 84660,
		"track": 5
	},
	{
		"deltaTime": 0,
		"channel": 9,
		"type": "channel",
		"noteNumber": 42,
		"velocity": 127,
		"subtype": "noteOn",
		"time": 84720,
		"track": 5
	},
	{
		"deltaTime": 0,
		"channel": 9,
		"type": "channel",
		"noteNumber": 36,
		"velocity": 127,
		"subtype": "noteOn",
		"time": 84720,
		"track": 5
	},
	{
		"deltaTime": 60,
		"channel": 9,
		"type": "channel",
		"noteNumber": 35,
		"velocity": 127,
		"subtype": "noteOn",
		"time": 84720,
		"track": 5
	},
	{
		"deltaTime": 0,
		"channel": 9,
		"type": "channel",
		"subtype": "noteOff",
		"noteNumber": 35,
		"velocity": 0,
		"time": 84780,
		"track": 5
	},
	{
		"deltaTime": 0,
		"channel": 9,
		"type": "channel",
		"subtype": "noteOff",
		"noteNumber": 36,
		"velocity": 0,
		"time": 84780,
		"track": 5
	},
	{
		"deltaTime": 60,
		"channel": 9,
		"type": "channel",
		"subtype": "noteOff",
		"noteNumber": 42,
		"velocity": 0,
		"time": 84780,
		"track": 5
	},
	{
		"deltaTime": 0,
		"channel": 2,
		"type": "channel",
		"subtype": "noteOff",
		"noteNumber": 42,
		"velocity": 0,
		"time": 84840,
		"track": 4
	},
	{
		"deltaTime": 0,
		"channel": 2,
		"type": "channel",
		"noteNumber": 61,
		"velocity": 127,
		"subtype": "noteOn",
		"time": 84840,
		"track": 4
	},
	{
		"deltaTime": 0,
		"channel": 2,
		"type": "channel",
		"noteNumber": 66,
		"velocity": 127,
		"subtype": "noteOn",
		"time": 84840,
		"track": 4
	},
	{
		"deltaTime": 0,
		"channel": 2,
		"type": "channel",
		"noteNumber": 70,
		"velocity": 127,
		"subtype": "noteOn",
		"time": 84840,
		"track": 4
	},
	{
		"deltaTime": 60,
		"channel": 9,
		"type": "channel",
		"noteNumber": 42,
		"velocity": 127,
		"subtype": "noteOn",
		"time": 84840,
		"track": 5
	},
	{
		"deltaTime": 60,
		"channel": 9,
		"type": "channel",
		"subtype": "noteOff",
		"noteNumber": 42,
		"velocity": 0,
		"time": 84900,
		"track": 5
	},
	{
		"deltaTime": 0,
		"channel": 9,
		"type": "channel",
		"noteNumber": 42,
		"velocity": 127,
		"subtype": "noteOn",
		"time": 84960,
		"track": 5
	},
	{
		"deltaTime": 0,
		"channel": 9,
		"type": "channel",
		"noteNumber": 38,
		"velocity": 127,
		"subtype": "noteOn",
		"time": 84960,
		"track": 5
	},
	{
		"deltaTime": 60,
		"channel": 9,
		"type": "channel",
		"noteNumber": 40,
		"velocity": 127,
		"subtype": "noteOn",
		"time": 84960,
		"track": 5
	},
	{
		"deltaTime": 0,
		"channel": 9,
		"type": "channel",
		"subtype": "noteOff",
		"noteNumber": 40,
		"velocity": 0,
		"time": 85020,
		"track": 5
	},
	{
		"deltaTime": 0,
		"channel": 9,
		"type": "channel",
		"subtype": "noteOff",
		"noteNumber": 38,
		"velocity": 0,
		"time": 85020,
		"track": 5
	},
	{
		"deltaTime": 60,
		"channel": 9,
		"type": "channel",
		"subtype": "noteOff",
		"noteNumber": 42,
		"velocity": 0,
		"time": 85020,
		"track": 5
	},
	{
		"deltaTime": 0,
		"channel": 2,
		"type": "channel",
		"subtype": "noteOff",
		"noteNumber": 70,
		"velocity": 0,
		"time": 85080,
		"track": 4
	},
	{
		"deltaTime": 0,
		"channel": 2,
		"type": "channel",
		"subtype": "noteOff",
		"noteNumber": 66,
		"velocity": 0,
		"time": 85080,
		"track": 4
	},
	{
		"deltaTime": 0,
		"channel": 2,
		"type": "channel",
		"subtype": "noteOff",
		"noteNumber": 61,
		"velocity": 0,
		"time": 85080,
		"track": 4
	},
	{
		"deltaTime": 0,
		"channel": 2,
		"type": "channel",
		"noteNumber": 61,
		"velocity": 127,
		"subtype": "noteOn",
		"time": 85080,
		"track": 4
	},
	{
		"deltaTime": 0,
		"channel": 2,
		"type": "channel",
		"noteNumber": 66,
		"velocity": 127,
		"subtype": "noteOn",
		"time": 85080,
		"track": 4
	},
	{
		"deltaTime": 0,
		"channel": 2,
		"type": "channel",
		"noteNumber": 70,
		"velocity": 127,
		"subtype": "noteOn",
		"time": 85080,
		"track": 4
	},
	{
		"deltaTime": 60,
		"channel": 9,
		"type": "channel",
		"noteNumber": 42,
		"velocity": 127,
		"subtype": "noteOn",
		"time": 85080,
		"track": 5
	},
	{
		"deltaTime": 60,
		"channel": 9,
		"type": "channel",
		"subtype": "noteOff",
		"noteNumber": 42,
		"velocity": 0,
		"time": 85140,
		"track": 5
	},
	{
		"deltaTime": 60,
		"channel": 9,
		"type": "channel",
		"noteNumber": 42,
		"velocity": 127,
		"subtype": "noteOn",
		"time": 85200,
		"track": 5
	},
	{
		"deltaTime": 60,
		"channel": 9,
		"type": "channel",
		"subtype": "noteOff",
		"noteNumber": 42,
		"velocity": 0,
		"time": 85260,
		"track": 5
	},
	{
		"deltaTime": 0,
		"channel": 9,
		"type": "channel",
		"noteNumber": 42,
		"velocity": 127,
		"subtype": "noteOn",
		"time": 85320,
		"track": 5
	},
	{
		"deltaTime": 0,
		"channel": 9,
		"type": "channel",
		"noteNumber": 36,
		"velocity": 127,
		"subtype": "noteOn",
		"time": 85320,
		"track": 5
	},
	{
		"deltaTime": 60,
		"channel": 9,
		"type": "channel",
		"noteNumber": 35,
		"velocity": 127,
		"subtype": "noteOn",
		"time": 85320,
		"track": 5
	},
	{
		"deltaTime": 0,
		"channel": 9,
		"type": "channel",
		"subtype": "noteOff",
		"noteNumber": 35,
		"velocity": 0,
		"time": 85380,
		"track": 5
	},
	{
		"deltaTime": 0,
		"channel": 9,
		"type": "channel",
		"subtype": "noteOff",
		"noteNumber": 36,
		"velocity": 0,
		"time": 85380,
		"track": 5
	},
	{
		"deltaTime": 60,
		"channel": 9,
		"type": "channel",
		"subtype": "noteOff",
		"noteNumber": 42,
		"velocity": 0,
		"time": 85380,
		"track": 5
	},
	{
		"deltaTime": 0,
		"channel": 0,
		"type": "channel",
		"subtype": "noteOff",
		"noteNumber": 42,
		"velocity": 0,
		"time": 85440,
		"track": 2
	},
	{
		"deltaTime": 0,
		"channel": 0,
		"type": "channel",
		"noteNumber": 35,
		"velocity": 127,
		"subtype": "noteOn",
		"time": 85440,
		"track": 2
	},
	{
		"deltaTime": 0,
		"channel": 2,
		"type": "channel",
		"subtype": "noteOff",
		"noteNumber": 70,
		"velocity": 0,
		"time": 85440,
		"track": 4
	},
	{
		"deltaTime": 0,
		"channel": 2,
		"type": "channel",
		"subtype": "noteOff",
		"noteNumber": 66,
		"velocity": 0,
		"time": 85440,
		"track": 4
	},
	{
		"deltaTime": 0,
		"channel": 2,
		"type": "channel",
		"subtype": "noteOff",
		"noteNumber": 61,
		"velocity": 0,
		"time": 85440,
		"track": 4
	},
	{
		"deltaTime": 0,
		"channel": 2,
		"type": "channel",
		"noteNumber": 47,
		"velocity": 127,
		"subtype": "noteOn",
		"time": 85440,
		"track": 4
	},
	{
		"deltaTime": 60,
		"channel": 9,
		"type": "channel",
		"noteNumber": 42,
		"velocity": 127,
		"subtype": "noteOn",
		"time": 85440,
		"track": 5
	},
	{
		"deltaTime": 60,
		"channel": 9,
		"type": "channel",
		"subtype": "noteOff",
		"noteNumber": 42,
		"velocity": 0,
		"time": 85500,
		"track": 5
	},
	{
		"deltaTime": 60,
		"channel": 9,
		"type": "channel",
		"noteNumber": 42,
		"velocity": 127,
		"subtype": "noteOn",
		"time": 85560,
		"track": 5
	},
	{
		"deltaTime": 60,
		"channel": 9,
		"type": "channel",
		"subtype": "noteOff",
		"noteNumber": 42,
		"velocity": 0,
		"time": 85620,
		"track": 5
	},
	{
		"deltaTime": 0,
		"channel": 9,
		"type": "channel",
		"noteNumber": 42,
		"velocity": 127,
		"subtype": "noteOn",
		"time": 85680,
		"track": 5
	},
	{
		"deltaTime": 0,
		"channel": 9,
		"type": "channel",
		"noteNumber": 36,
		"velocity": 127,
		"subtype": "noteOn",
		"time": 85680,
		"track": 5
	},
	{
		"deltaTime": 60,
		"channel": 9,
		"type": "channel",
		"noteNumber": 35,
		"velocity": 127,
		"subtype": "noteOn",
		"time": 85680,
		"track": 5
	},
	{
		"deltaTime": 0,
		"channel": 9,
		"type": "channel",
		"subtype": "noteOff",
		"noteNumber": 35,
		"velocity": 0,
		"time": 85740,
		"track": 5
	},
	{
		"deltaTime": 0,
		"channel": 9,
		"type": "channel",
		"subtype": "noteOff",
		"noteNumber": 36,
		"velocity": 0,
		"time": 85740,
		"track": 5
	},
	{
		"deltaTime": 60,
		"channel": 9,
		"type": "channel",
		"subtype": "noteOff",
		"noteNumber": 42,
		"velocity": 0,
		"time": 85740,
		"track": 5
	},
	{
		"deltaTime": 0,
		"channel": 2,
		"type": "channel",
		"subtype": "noteOff",
		"noteNumber": 47,
		"velocity": 0,
		"time": 85800,
		"track": 4
	},
	{
		"deltaTime": 0,
		"channel": 2,
		"type": "channel",
		"noteNumber": 61,
		"velocity": 127,
		"subtype": "noteOn",
		"time": 85800,
		"track": 4
	},
	{
		"deltaTime": 0,
		"channel": 2,
		"type": "channel",
		"noteNumber": 66,
		"velocity": 127,
		"subtype": "noteOn",
		"time": 85800,
		"track": 4
	},
	{
		"deltaTime": 0,
		"channel": 2,
		"type": "channel",
		"noteNumber": 70,
		"velocity": 127,
		"subtype": "noteOn",
		"time": 85800,
		"track": 4
	},
	{
		"deltaTime": 60,
		"channel": 9,
		"type": "channel",
		"noteNumber": 42,
		"velocity": 127,
		"subtype": "noteOn",
		"time": 85800,
		"track": 5
	},
	{
		"deltaTime": 60,
		"channel": 9,
		"type": "channel",
		"subtype": "noteOff",
		"noteNumber": 42,
		"velocity": 0,
		"time": 85860,
		"track": 5
	},
	{
		"deltaTime": 0,
		"channel": 0,
		"type": "channel",
		"subtype": "noteOff",
		"noteNumber": 35,
		"velocity": 0,
		"time": 85920,
		"track": 2
	},
	{
		"deltaTime": 0,
		"channel": 0,
		"type": "channel",
		"noteNumber": 34,
		"velocity": 127,
		"subtype": "noteOn",
		"time": 85920,
		"track": 2
	},
	{
		"deltaTime": 0,
		"channel": 9,
		"type": "channel",
		"noteNumber": 42,
		"velocity": 127,
		"subtype": "noteOn",
		"time": 85920,
		"track": 5
	},
	{
		"deltaTime": 0,
		"channel": 9,
		"type": "channel",
		"noteNumber": 40,
		"velocity": 127,
		"subtype": "noteOn",
		"time": 85920,
		"track": 5
	},
	{
		"deltaTime": 60,
		"channel": 9,
		"type": "channel",
		"noteNumber": 38,
		"velocity": 127,
		"subtype": "noteOn",
		"time": 85920,
		"track": 5
	},
	{
		"deltaTime": 0,
		"channel": 9,
		"type": "channel",
		"subtype": "noteOff",
		"noteNumber": 38,
		"velocity": 0,
		"time": 85980,
		"track": 5
	},
	{
		"deltaTime": 0,
		"channel": 9,
		"type": "channel",
		"subtype": "noteOff",
		"noteNumber": 40,
		"velocity": 0,
		"time": 85980,
		"track": 5
	},
	{
		"deltaTime": 60,
		"channel": 9,
		"type": "channel",
		"subtype": "noteOff",
		"noteNumber": 42,
		"velocity": 0,
		"time": 85980,
		"track": 5
	},
	{
		"deltaTime": 0,
		"channel": 2,
		"type": "channel",
		"subtype": "noteOff",
		"noteNumber": 70,
		"velocity": 0,
		"time": 86040,
		"track": 4
	},
	{
		"deltaTime": 0,
		"channel": 2,
		"type": "channel",
		"subtype": "noteOff",
		"noteNumber": 66,
		"velocity": 0,
		"time": 86040,
		"track": 4
	},
	{
		"deltaTime": 0,
		"channel": 2,
		"type": "channel",
		"subtype": "noteOff",
		"noteNumber": 61,
		"velocity": 0,
		"time": 86040,
		"track": 4
	},
	{
		"deltaTime": 0,
		"channel": 2,
		"type": "channel",
		"noteNumber": 61,
		"velocity": 127,
		"subtype": "noteOn",
		"time": 86040,
		"track": 4
	},
	{
		"deltaTime": 0,
		"channel": 2,
		"type": "channel",
		"noteNumber": 66,
		"velocity": 127,
		"subtype": "noteOn",
		"time": 86040,
		"track": 4
	},
	{
		"deltaTime": 0,
		"channel": 2,
		"type": "channel",
		"noteNumber": 71,
		"velocity": 127,
		"subtype": "noteOn",
		"time": 86040,
		"track": 4
	},
	{
		"deltaTime": 60,
		"channel": 9,
		"type": "channel",
		"noteNumber": 42,
		"velocity": 127,
		"subtype": "noteOn",
		"time": 86040,
		"track": 5
	},
	{
		"deltaTime": 60,
		"channel": 9,
		"type": "channel",
		"subtype": "noteOff",
		"noteNumber": 42,
		"velocity": 0,
		"time": 86100,
		"track": 5
	},
	{
		"deltaTime": 60,
		"channel": 9,
		"type": "channel",
		"noteNumber": 42,
		"velocity": 127,
		"subtype": "noteOn",
		"time": 86160,
		"track": 5
	},
	{
		"deltaTime": 60,
		"channel": 9,
		"type": "channel",
		"subtype": "noteOff",
		"noteNumber": 42,
		"velocity": 0,
		"time": 86220,
		"track": 5
	},
	{
		"deltaTime": 60,
		"channel": 9,
		"type": "channel",
		"noteNumber": 42,
		"velocity": 127,
		"subtype": "noteOn",
		"time": 86280,
		"track": 5
	},
	{
		"deltaTime": 60,
		"channel": 9,
		"type": "channel",
		"subtype": "noteOff",
		"noteNumber": 42,
		"velocity": 0,
		"time": 86340,
		"track": 5
	},
	{
		"deltaTime": 0,
		"channel": 0,
		"type": "channel",
		"subtype": "noteOff",
		"noteNumber": 34,
		"velocity": 0,
		"time": 86400,
		"track": 2
	},
	{
		"deltaTime": 0,
		"channel": 0,
		"type": "channel",
		"noteNumber": 32,
		"velocity": 127,
		"subtype": "noteOn",
		"time": 86400,
		"track": 2
	},
	{
		"deltaTime": 0,
		"channel": 2,
		"type": "channel",
		"subtype": "noteOff",
		"noteNumber": 71,
		"velocity": 0,
		"time": 86400,
		"track": 4
	},
	{
		"deltaTime": 0,
		"channel": 2,
		"type": "channel",
		"subtype": "noteOff",
		"noteNumber": 66,
		"velocity": 0,
		"time": 86400,
		"track": 4
	},
	{
		"deltaTime": 0,
		"channel": 2,
		"type": "channel",
		"subtype": "noteOff",
		"noteNumber": 61,
		"velocity": 0,
		"time": 86400,
		"track": 4
	},
	{
		"deltaTime": 0,
		"channel": 2,
		"type": "channel",
		"noteNumber": 44,
		"velocity": 127,
		"subtype": "noteOn",
		"time": 86400,
		"track": 4
	},
	{
		"deltaTime": 0,
		"channel": 9,
		"type": "channel",
		"noteNumber": 42,
		"velocity": 127,
		"subtype": "noteOn",
		"time": 86400,
		"track": 5
	},
	{
		"deltaTime": 0,
		"channel": 9,
		"type": "channel",
		"noteNumber": 35,
		"velocity": 127,
		"subtype": "noteOn",
		"time": 86400,
		"track": 5
	},
	{
		"deltaTime": 60,
		"channel": 9,
		"type": "channel",
		"noteNumber": 36,
		"velocity": 127,
		"subtype": "noteOn",
		"time": 86400,
		"track": 5
	},
	{
		"deltaTime": 0,
		"channel": 9,
		"type": "channel",
		"subtype": "noteOff",
		"noteNumber": 36,
		"velocity": 0,
		"time": 86460,
		"track": 5
	},
	{
		"deltaTime": 0,
		"channel": 9,
		"type": "channel",
		"subtype": "noteOff",
		"noteNumber": 35,
		"velocity": 0,
		"time": 86460,
		"track": 5
	},
	{
		"deltaTime": 60,
		"channel": 9,
		"type": "channel",
		"subtype": "noteOff",
		"noteNumber": 42,
		"velocity": 0,
		"time": 86460,
		"track": 5
	},
	{
		"deltaTime": 60,
		"channel": 9,
		"type": "channel",
		"noteNumber": 42,
		"velocity": 127,
		"subtype": "noteOn",
		"time": 86520,
		"track": 5
	},
	{
		"deltaTime": 60,
		"channel": 9,
		"type": "channel",
		"subtype": "noteOff",
		"noteNumber": 42,
		"velocity": 0,
		"time": 86580,
		"track": 5
	},
	{
		"deltaTime": 0,
		"channel": 9,
		"type": "channel",
		"noteNumber": 42,
		"velocity": 127,
		"subtype": "noteOn",
		"time": 86640,
		"track": 5
	},
	{
		"deltaTime": 0,
		"channel": 9,
		"type": "channel",
		"noteNumber": 36,
		"velocity": 127,
		"subtype": "noteOn",
		"time": 86640,
		"track": 5
	},
	{
		"deltaTime": 60,
		"channel": 9,
		"type": "channel",
		"noteNumber": 35,
		"velocity": 127,
		"subtype": "noteOn",
		"time": 86640,
		"track": 5
	},
	{
		"deltaTime": 0,
		"channel": 9,
		"type": "channel",
		"subtype": "noteOff",
		"noteNumber": 35,
		"velocity": 0,
		"time": 86700,
		"track": 5
	},
	{
		"deltaTime": 0,
		"channel": 9,
		"type": "channel",
		"subtype": "noteOff",
		"noteNumber": 36,
		"velocity": 0,
		"time": 86700,
		"track": 5
	},
	{
		"deltaTime": 60,
		"channel": 9,
		"type": "channel",
		"subtype": "noteOff",
		"noteNumber": 42,
		"velocity": 0,
		"time": 86700,
		"track": 5
	},
	{
		"deltaTime": 0,
		"channel": 2,
		"type": "channel",
		"subtype": "noteOff",
		"noteNumber": 44,
		"velocity": 0,
		"time": 86760,
		"track": 4
	},
	{
		"deltaTime": 0,
		"channel": 2,
		"type": "channel",
		"noteNumber": 59,
		"velocity": 127,
		"subtype": "noteOn",
		"time": 86760,
		"track": 4
	},
	{
		"deltaTime": 0,
		"channel": 2,
		"type": "channel",
		"noteNumber": 63,
		"velocity": 127,
		"subtype": "noteOn",
		"time": 86760,
		"track": 4
	},
	{
		"deltaTime": 0,
		"channel": 2,
		"type": "channel",
		"noteNumber": 68,
		"velocity": 127,
		"subtype": "noteOn",
		"time": 86760,
		"track": 4
	},
	{
		"deltaTime": 60,
		"channel": 9,
		"type": "channel",
		"noteNumber": 42,
		"velocity": 127,
		"subtype": "noteOn",
		"time": 86760,
		"track": 5
	},
	{
		"deltaTime": 60,
		"channel": 9,
		"type": "channel",
		"subtype": "noteOff",
		"noteNumber": 42,
		"velocity": 0,
		"time": 86820,
		"track": 5
	},
	{
		"deltaTime": 0,
		"channel": 9,
		"type": "channel",
		"noteNumber": 42,
		"velocity": 127,
		"subtype": "noteOn",
		"time": 86880,
		"track": 5
	},
	{
		"deltaTime": 0,
		"channel": 9,
		"type": "channel",
		"noteNumber": 38,
		"velocity": 127,
		"subtype": "noteOn",
		"time": 86880,
		"track": 5
	},
	{
		"deltaTime": 60,
		"channel": 9,
		"type": "channel",
		"noteNumber": 40,
		"velocity": 127,
		"subtype": "noteOn",
		"time": 86880,
		"track": 5
	},
	{
		"deltaTime": 0,
		"channel": 9,
		"type": "channel",
		"subtype": "noteOff",
		"noteNumber": 40,
		"velocity": 0,
		"time": 86940,
		"track": 5
	},
	{
		"deltaTime": 0,
		"channel": 9,
		"type": "channel",
		"subtype": "noteOff",
		"noteNumber": 38,
		"velocity": 0,
		"time": 86940,
		"track": 5
	},
	{
		"deltaTime": 60,
		"channel": 9,
		"type": "channel",
		"subtype": "noteOff",
		"noteNumber": 42,
		"velocity": 0,
		"time": 86940,
		"track": 5
	},
	{
		"deltaTime": 0,
		"channel": 2,
		"type": "channel",
		"subtype": "noteOff",
		"noteNumber": 68,
		"velocity": 0,
		"time": 87000,
		"track": 4
	},
	{
		"deltaTime": 0,
		"channel": 2,
		"type": "channel",
		"subtype": "noteOff",
		"noteNumber": 63,
		"velocity": 0,
		"time": 87000,
		"track": 4
	},
	{
		"deltaTime": 0,
		"channel": 2,
		"type": "channel",
		"subtype": "noteOff",
		"noteNumber": 59,
		"velocity": 0,
		"time": 87000,
		"track": 4
	},
	{
		"deltaTime": 0,
		"channel": 2,
		"type": "channel",
		"noteNumber": 59,
		"velocity": 127,
		"subtype": "noteOn",
		"time": 87000,
		"track": 4
	},
	{
		"deltaTime": 0,
		"channel": 2,
		"type": "channel",
		"noteNumber": 63,
		"velocity": 127,
		"subtype": "noteOn",
		"time": 87000,
		"track": 4
	},
	{
		"deltaTime": 0,
		"channel": 2,
		"type": "channel",
		"noteNumber": 68,
		"velocity": 127,
		"subtype": "noteOn",
		"time": 87000,
		"track": 4
	},
	{
		"deltaTime": 60,
		"channel": 9,
		"type": "channel",
		"noteNumber": 42,
		"velocity": 127,
		"subtype": "noteOn",
		"time": 87000,
		"track": 5
	},
	{
		"deltaTime": 60,
		"channel": 9,
		"type": "channel",
		"subtype": "noteOff",
		"noteNumber": 42,
		"velocity": 0,
		"time": 87060,
		"track": 5
	},
	{
		"deltaTime": 60,
		"channel": 9,
		"type": "channel",
		"noteNumber": 42,
		"velocity": 127,
		"subtype": "noteOn",
		"time": 87120,
		"track": 5
	},
	{
		"deltaTime": 60,
		"channel": 9,
		"type": "channel",
		"subtype": "noteOff",
		"noteNumber": 42,
		"velocity": 0,
		"time": 87180,
		"track": 5
	},
	{
		"deltaTime": 0,
		"channel": 9,
		"type": "channel",
		"noteNumber": 42,
		"velocity": 127,
		"subtype": "noteOn",
		"time": 87240,
		"track": 5
	},
	{
		"deltaTime": 0,
		"channel": 9,
		"type": "channel",
		"noteNumber": 36,
		"velocity": 127,
		"subtype": "noteOn",
		"time": 87240,
		"track": 5
	},
	{
		"deltaTime": 60,
		"channel": 9,
		"type": "channel",
		"noteNumber": 35,
		"velocity": 127,
		"subtype": "noteOn",
		"time": 87240,
		"track": 5
	},
	{
		"deltaTime": 0,
		"channel": 9,
		"type": "channel",
		"subtype": "noteOff",
		"noteNumber": 35,
		"velocity": 0,
		"time": 87300,
		"track": 5
	},
	{
		"deltaTime": 0,
		"channel": 9,
		"type": "channel",
		"subtype": "noteOff",
		"noteNumber": 36,
		"velocity": 0,
		"time": 87300,
		"track": 5
	},
	{
		"deltaTime": 60,
		"channel": 9,
		"type": "channel",
		"subtype": "noteOff",
		"noteNumber": 42,
		"velocity": 0,
		"time": 87300,
		"track": 5
	},
	{
		"deltaTime": 0,
		"channel": 0,
		"type": "channel",
		"subtype": "noteOff",
		"noteNumber": 32,
		"velocity": 0,
		"time": 87360,
		"track": 2
	},
	{
		"deltaTime": 0,
		"channel": 0,
		"type": "channel",
		"noteNumber": 40,
		"velocity": 127,
		"subtype": "noteOn",
		"time": 87360,
		"track": 2
	},
	{
		"deltaTime": 0,
		"channel": 2,
		"type": "channel",
		"subtype": "noteOff",
		"noteNumber": 68,
		"velocity": 0,
		"time": 87360,
		"track": 4
	},
	{
		"deltaTime": 0,
		"channel": 2,
		"type": "channel",
		"subtype": "noteOff",
		"noteNumber": 63,
		"velocity": 0,
		"time": 87360,
		"track": 4
	},
	{
		"deltaTime": 0,
		"channel": 2,
		"type": "channel",
		"subtype": "noteOff",
		"noteNumber": 59,
		"velocity": 0,
		"time": 87360,
		"track": 4
	},
	{
		"deltaTime": 0,
		"channel": 2,
		"type": "channel",
		"noteNumber": 40,
		"velocity": 127,
		"subtype": "noteOn",
		"time": 87360,
		"track": 4
	},
	{
		"deltaTime": 60,
		"channel": 9,
		"type": "channel",
		"noteNumber": 42,
		"velocity": 127,
		"subtype": "noteOn",
		"time": 87360,
		"track": 5
	},
	{
		"deltaTime": 60,
		"channel": 9,
		"type": "channel",
		"subtype": "noteOff",
		"noteNumber": 42,
		"velocity": 0,
		"time": 87420,
		"track": 5
	},
	{
		"deltaTime": 60,
		"channel": 9,
		"type": "channel",
		"noteNumber": 42,
		"velocity": 127,
		"subtype": "noteOn",
		"time": 87480,
		"track": 5
	},
	{
		"deltaTime": 60,
		"channel": 9,
		"type": "channel",
		"subtype": "noteOff",
		"noteNumber": 42,
		"velocity": 0,
		"time": 87540,
		"track": 5
	},
	{
		"deltaTime": 0,
		"channel": 9,
		"type": "channel",
		"noteNumber": 42,
		"velocity": 127,
		"subtype": "noteOn",
		"time": 87600,
		"track": 5
	},
	{
		"deltaTime": 0,
		"channel": 9,
		"type": "channel",
		"noteNumber": 36,
		"velocity": 127,
		"subtype": "noteOn",
		"time": 87600,
		"track": 5
	},
	{
		"deltaTime": 60,
		"channel": 9,
		"type": "channel",
		"noteNumber": 35,
		"velocity": 127,
		"subtype": "noteOn",
		"time": 87600,
		"track": 5
	},
	{
		"deltaTime": 0,
		"channel": 9,
		"type": "channel",
		"subtype": "noteOff",
		"noteNumber": 35,
		"velocity": 0,
		"time": 87660,
		"track": 5
	},
	{
		"deltaTime": 0,
		"channel": 9,
		"type": "channel",
		"subtype": "noteOff",
		"noteNumber": 36,
		"velocity": 0,
		"time": 87660,
		"track": 5
	},
	{
		"deltaTime": 60,
		"channel": 9,
		"type": "channel",
		"subtype": "noteOff",
		"noteNumber": 42,
		"velocity": 0,
		"time": 87660,
		"track": 5
	},
	{
		"deltaTime": 0,
		"channel": 2,
		"type": "channel",
		"subtype": "noteOff",
		"noteNumber": 40,
		"velocity": 0,
		"time": 87720,
		"track": 4
	},
	{
		"deltaTime": 0,
		"channel": 2,
		"type": "channel",
		"noteNumber": 59,
		"velocity": 127,
		"subtype": "noteOn",
		"time": 87720,
		"track": 4
	},
	{
		"deltaTime": 0,
		"channel": 2,
		"type": "channel",
		"noteNumber": 63,
		"velocity": 127,
		"subtype": "noteOn",
		"time": 87720,
		"track": 4
	},
	{
		"deltaTime": 0,
		"channel": 2,
		"type": "channel",
		"noteNumber": 68,
		"velocity": 127,
		"subtype": "noteOn",
		"time": 87720,
		"track": 4
	},
	{
		"deltaTime": 60,
		"channel": 9,
		"type": "channel",
		"noteNumber": 42,
		"velocity": 127,
		"subtype": "noteOn",
		"time": 87720,
		"track": 5
	},
	{
		"deltaTime": 60,
		"channel": 9,
		"type": "channel",
		"subtype": "noteOff",
		"noteNumber": 42,
		"velocity": 0,
		"time": 87780,
		"track": 5
	},
	{
		"deltaTime": 0,
		"channel": 9,
		"type": "channel",
		"noteNumber": 42,
		"velocity": 127,
		"subtype": "noteOn",
		"time": 87840,
		"track": 5
	},
	{
		"deltaTime": 0,
		"channel": 9,
		"type": "channel",
		"noteNumber": 40,
		"velocity": 127,
		"subtype": "noteOn",
		"time": 87840,
		"track": 5
	},
	{
		"deltaTime": 60,
		"channel": 9,
		"type": "channel",
		"noteNumber": 38,
		"velocity": 127,
		"subtype": "noteOn",
		"time": 87840,
		"track": 5
	},
	{
		"deltaTime": 0,
		"channel": 9,
		"type": "channel",
		"subtype": "noteOff",
		"noteNumber": 38,
		"velocity": 0,
		"time": 87900,
		"track": 5
	},
	{
		"deltaTime": 0,
		"channel": 9,
		"type": "channel",
		"subtype": "noteOff",
		"noteNumber": 40,
		"velocity": 0,
		"time": 87900,
		"track": 5
	},
	{
		"deltaTime": 60,
		"channel": 9,
		"type": "channel",
		"subtype": "noteOff",
		"noteNumber": 42,
		"velocity": 0,
		"time": 87900,
		"track": 5
	},
	{
		"deltaTime": 0,
		"channel": 2,
		"type": "channel",
		"subtype": "noteOff",
		"noteNumber": 68,
		"velocity": 0,
		"time": 87960,
		"track": 4
	},
	{
		"deltaTime": 0,
		"channel": 2,
		"type": "channel",
		"subtype": "noteOff",
		"noteNumber": 63,
		"velocity": 0,
		"time": 87960,
		"track": 4
	},
	{
		"deltaTime": 0,
		"channel": 2,
		"type": "channel",
		"subtype": "noteOff",
		"noteNumber": 59,
		"velocity": 0,
		"time": 87960,
		"track": 4
	},
	{
		"deltaTime": 0,
		"channel": 2,
		"type": "channel",
		"noteNumber": 59,
		"velocity": 127,
		"subtype": "noteOn",
		"time": 87960,
		"track": 4
	},
	{
		"deltaTime": 0,
		"channel": 2,
		"type": "channel",
		"noteNumber": 63,
		"velocity": 127,
		"subtype": "noteOn",
		"time": 87960,
		"track": 4
	},
	{
		"deltaTime": 0,
		"channel": 2,
		"type": "channel",
		"noteNumber": 68,
		"velocity": 127,
		"subtype": "noteOn",
		"time": 87960,
		"track": 4
	},
	{
		"deltaTime": 60,
		"channel": 9,
		"type": "channel",
		"noteNumber": 42,
		"velocity": 127,
		"subtype": "noteOn",
		"time": 87960,
		"track": 5
	},
	{
		"deltaTime": 60,
		"channel": 9,
		"type": "channel",
		"subtype": "noteOff",
		"noteNumber": 42,
		"velocity": 0,
		"time": 88020,
		"track": 5
	},
	{
		"deltaTime": 60,
		"channel": 9,
		"type": "channel",
		"noteNumber": 42,
		"velocity": 127,
		"subtype": "noteOn",
		"time": 88080,
		"track": 5
	},
	{
		"deltaTime": 60,
		"channel": 9,
		"type": "channel",
		"subtype": "noteOff",
		"noteNumber": 42,
		"velocity": 0,
		"time": 88140,
		"track": 5
	},
	{
		"deltaTime": 60,
		"channel": 9,
		"type": "channel",
		"noteNumber": 42,
		"velocity": 127,
		"subtype": "noteOn",
		"time": 88200,
		"track": 5
	},
	{
		"deltaTime": 60,
		"channel": 9,
		"type": "channel",
		"subtype": "noteOff",
		"noteNumber": 42,
		"velocity": 0,
		"time": 88260,
		"track": 5
	},
	{
		"deltaTime": 0,
		"channel": 0,
		"type": "channel",
		"subtype": "noteOff",
		"noteNumber": 40,
		"velocity": 0,
		"time": 88320,
		"track": 2
	},
	{
		"deltaTime": 0,
		"channel": 0,
		"type": "channel",
		"noteNumber": 42,
		"velocity": 127,
		"subtype": "noteOn",
		"time": 88320,
		"track": 2
	},
	{
		"deltaTime": 0,
		"channel": 2,
		"type": "channel",
		"subtype": "noteOff",
		"noteNumber": 68,
		"velocity": 0,
		"time": 88320,
		"track": 4
	},
	{
		"deltaTime": 0,
		"channel": 2,
		"type": "channel",
		"subtype": "noteOff",
		"noteNumber": 63,
		"velocity": 0,
		"time": 88320,
		"track": 4
	},
	{
		"deltaTime": 0,
		"channel": 2,
		"type": "channel",
		"subtype": "noteOff",
		"noteNumber": 59,
		"velocity": 0,
		"time": 88320,
		"track": 4
	},
	{
		"deltaTime": 0,
		"channel": 2,
		"type": "channel",
		"noteNumber": 42,
		"velocity": 127,
		"subtype": "noteOn",
		"time": 88320,
		"track": 4
	},
	{
		"deltaTime": 0,
		"channel": 9,
		"type": "channel",
		"noteNumber": 42,
		"velocity": 127,
		"subtype": "noteOn",
		"time": 88320,
		"track": 5
	},
	{
		"deltaTime": 0,
		"channel": 9,
		"type": "channel",
		"noteNumber": 35,
		"velocity": 127,
		"subtype": "noteOn",
		"time": 88320,
		"track": 5
	},
	{
		"deltaTime": 60,
		"channel": 9,
		"type": "channel",
		"noteNumber": 36,
		"velocity": 127,
		"subtype": "noteOn",
		"time": 88320,
		"track": 5
	},
	{
		"deltaTime": 0,
		"channel": 9,
		"type": "channel",
		"subtype": "noteOff",
		"noteNumber": 36,
		"velocity": 0,
		"time": 88380,
		"track": 5
	},
	{
		"deltaTime": 0,
		"channel": 9,
		"type": "channel",
		"subtype": "noteOff",
		"noteNumber": 35,
		"velocity": 0,
		"time": 88380,
		"track": 5
	},
	{
		"deltaTime": 60,
		"channel": 9,
		"type": "channel",
		"subtype": "noteOff",
		"noteNumber": 42,
		"velocity": 0,
		"time": 88380,
		"track": 5
	},
	{
		"deltaTime": 60,
		"channel": 9,
		"type": "channel",
		"noteNumber": 42,
		"velocity": 127,
		"subtype": "noteOn",
		"time": 88440,
		"track": 5
	},
	{
		"deltaTime": 60,
		"channel": 9,
		"type": "channel",
		"subtype": "noteOff",
		"noteNumber": 42,
		"velocity": 0,
		"time": 88500,
		"track": 5
	},
	{
		"deltaTime": 0,
		"channel": 9,
		"type": "channel",
		"noteNumber": 42,
		"velocity": 127,
		"subtype": "noteOn",
		"time": 88560,
		"track": 5
	},
	{
		"deltaTime": 0,
		"channel": 9,
		"type": "channel",
		"noteNumber": 36,
		"velocity": 127,
		"subtype": "noteOn",
		"time": 88560,
		"track": 5
	},
	{
		"deltaTime": 60,
		"channel": 9,
		"type": "channel",
		"noteNumber": 35,
		"velocity": 127,
		"subtype": "noteOn",
		"time": 88560,
		"track": 5
	},
	{
		"deltaTime": 0,
		"channel": 9,
		"type": "channel",
		"subtype": "noteOff",
		"noteNumber": 35,
		"velocity": 0,
		"time": 88620,
		"track": 5
	},
	{
		"deltaTime": 0,
		"channel": 9,
		"type": "channel",
		"subtype": "noteOff",
		"noteNumber": 36,
		"velocity": 0,
		"time": 88620,
		"track": 5
	},
	{
		"deltaTime": 60,
		"channel": 9,
		"type": "channel",
		"subtype": "noteOff",
		"noteNumber": 42,
		"velocity": 0,
		"time": 88620,
		"track": 5
	},
	{
		"deltaTime": 0,
		"channel": 2,
		"type": "channel",
		"subtype": "noteOff",
		"noteNumber": 42,
		"velocity": 0,
		"time": 88680,
		"track": 4
	},
	{
		"deltaTime": 0,
		"channel": 2,
		"type": "channel",
		"noteNumber": 61,
		"velocity": 127,
		"subtype": "noteOn",
		"time": 88680,
		"track": 4
	},
	{
		"deltaTime": 0,
		"channel": 2,
		"type": "channel",
		"noteNumber": 66,
		"velocity": 127,
		"subtype": "noteOn",
		"time": 88680,
		"track": 4
	},
	{
		"deltaTime": 0,
		"channel": 2,
		"type": "channel",
		"noteNumber": 70,
		"velocity": 127,
		"subtype": "noteOn",
		"time": 88680,
		"track": 4
	},
	{
		"deltaTime": 60,
		"channel": 9,
		"type": "channel",
		"noteNumber": 42,
		"velocity": 127,
		"subtype": "noteOn",
		"time": 88680,
		"track": 5
	},
	{
		"deltaTime": 60,
		"channel": 9,
		"type": "channel",
		"subtype": "noteOff",
		"noteNumber": 42,
		"velocity": 0,
		"time": 88740,
		"track": 5
	},
	{
		"deltaTime": 0,
		"channel": 9,
		"type": "channel",
		"noteNumber": 42,
		"velocity": 127,
		"subtype": "noteOn",
		"time": 88800,
		"track": 5
	},
	{
		"deltaTime": 0,
		"channel": 9,
		"type": "channel",
		"noteNumber": 38,
		"velocity": 127,
		"subtype": "noteOn",
		"time": 88800,
		"track": 5
	},
	{
		"deltaTime": 60,
		"channel": 9,
		"type": "channel",
		"noteNumber": 40,
		"velocity": 127,
		"subtype": "noteOn",
		"time": 88800,
		"track": 5
	},
	{
		"deltaTime": 0,
		"channel": 9,
		"type": "channel",
		"subtype": "noteOff",
		"noteNumber": 40,
		"velocity": 0,
		"time": 88860,
		"track": 5
	},
	{
		"deltaTime": 0,
		"channel": 9,
		"type": "channel",
		"subtype": "noteOff",
		"noteNumber": 38,
		"velocity": 0,
		"time": 88860,
		"track": 5
	},
	{
		"deltaTime": 60,
		"channel": 9,
		"type": "channel",
		"subtype": "noteOff",
		"noteNumber": 42,
		"velocity": 0,
		"time": 88860,
		"track": 5
	},
	{
		"deltaTime": 0,
		"channel": 2,
		"type": "channel",
		"subtype": "noteOff",
		"noteNumber": 70,
		"velocity": 0,
		"time": 88920,
		"track": 4
	},
	{
		"deltaTime": 0,
		"channel": 2,
		"type": "channel",
		"subtype": "noteOff",
		"noteNumber": 66,
		"velocity": 0,
		"time": 88920,
		"track": 4
	},
	{
		"deltaTime": 0,
		"channel": 2,
		"type": "channel",
		"subtype": "noteOff",
		"noteNumber": 61,
		"velocity": 0,
		"time": 88920,
		"track": 4
	},
	{
		"deltaTime": 0,
		"channel": 2,
		"type": "channel",
		"noteNumber": 61,
		"velocity": 127,
		"subtype": "noteOn",
		"time": 88920,
		"track": 4
	},
	{
		"deltaTime": 0,
		"channel": 2,
		"type": "channel",
		"noteNumber": 66,
		"velocity": 127,
		"subtype": "noteOn",
		"time": 88920,
		"track": 4
	},
	{
		"deltaTime": 0,
		"channel": 2,
		"type": "channel",
		"noteNumber": 70,
		"velocity": 127,
		"subtype": "noteOn",
		"time": 88920,
		"track": 4
	},
	{
		"deltaTime": 60,
		"channel": 9,
		"type": "channel",
		"noteNumber": 42,
		"velocity": 127,
		"subtype": "noteOn",
		"time": 88920,
		"track": 5
	},
	{
		"deltaTime": 60,
		"channel": 9,
		"type": "channel",
		"subtype": "noteOff",
		"noteNumber": 42,
		"velocity": 0,
		"time": 88980,
		"track": 5
	},
	{
		"deltaTime": 60,
		"channel": 9,
		"type": "channel",
		"noteNumber": 42,
		"velocity": 127,
		"subtype": "noteOn",
		"time": 89040,
		"track": 5
	},
	{
		"deltaTime": 60,
		"channel": 9,
		"type": "channel",
		"subtype": "noteOff",
		"noteNumber": 42,
		"velocity": 0,
		"time": 89100,
		"track": 5
	},
	{
		"deltaTime": 0,
		"channel": 9,
		"type": "channel",
		"noteNumber": 42,
		"velocity": 127,
		"subtype": "noteOn",
		"time": 89160,
		"track": 5
	},
	{
		"deltaTime": 0,
		"channel": 9,
		"type": "channel",
		"noteNumber": 36,
		"velocity": 127,
		"subtype": "noteOn",
		"time": 89160,
		"track": 5
	},
	{
		"deltaTime": 60,
		"channel": 9,
		"type": "channel",
		"noteNumber": 35,
		"velocity": 127,
		"subtype": "noteOn",
		"time": 89160,
		"track": 5
	},
	{
		"deltaTime": 0,
		"channel": 9,
		"type": "channel",
		"subtype": "noteOff",
		"noteNumber": 35,
		"velocity": 0,
		"time": 89220,
		"track": 5
	},
	{
		"deltaTime": 0,
		"channel": 9,
		"type": "channel",
		"subtype": "noteOff",
		"noteNumber": 36,
		"velocity": 0,
		"time": 89220,
		"track": 5
	},
	{
		"deltaTime": 60,
		"channel": 9,
		"type": "channel",
		"subtype": "noteOff",
		"noteNumber": 42,
		"velocity": 0,
		"time": 89220,
		"track": 5
	},
	{
		"deltaTime": 0,
		"channel": 0,
		"type": "channel",
		"subtype": "noteOff",
		"noteNumber": 42,
		"velocity": 0,
		"time": 89280,
		"track": 2
	},
	{
		"deltaTime": 0,
		"channel": 0,
		"type": "channel",
		"noteNumber": 35,
		"velocity": 127,
		"subtype": "noteOn",
		"time": 89280,
		"track": 2
	},
	{
		"deltaTime": 0,
		"channel": 2,
		"type": "channel",
		"subtype": "noteOff",
		"noteNumber": 70,
		"velocity": 0,
		"time": 89280,
		"track": 4
	},
	{
		"deltaTime": 0,
		"channel": 2,
		"type": "channel",
		"subtype": "noteOff",
		"noteNumber": 66,
		"velocity": 0,
		"time": 89280,
		"track": 4
	},
	{
		"deltaTime": 0,
		"channel": 2,
		"type": "channel",
		"subtype": "noteOff",
		"noteNumber": 61,
		"velocity": 0,
		"time": 89280,
		"track": 4
	},
	{
		"deltaTime": 0,
		"channel": 2,
		"type": "channel",
		"noteNumber": 47,
		"velocity": 127,
		"subtype": "noteOn",
		"time": 89280,
		"track": 4
	},
	{
		"deltaTime": 60,
		"channel": 9,
		"type": "channel",
		"noteNumber": 42,
		"velocity": 127,
		"subtype": "noteOn",
		"time": 89280,
		"track": 5
	},
	{
		"deltaTime": 60,
		"channel": 9,
		"type": "channel",
		"subtype": "noteOff",
		"noteNumber": 42,
		"velocity": 0,
		"time": 89340,
		"track": 5
	},
	{
		"deltaTime": 60,
		"channel": 9,
		"type": "channel",
		"noteNumber": 42,
		"velocity": 127,
		"subtype": "noteOn",
		"time": 89400,
		"track": 5
	},
	{
		"deltaTime": 60,
		"channel": 9,
		"type": "channel",
		"subtype": "noteOff",
		"noteNumber": 42,
		"velocity": 0,
		"time": 89460,
		"track": 5
	},
	{
		"deltaTime": 0,
		"channel": 9,
		"type": "channel",
		"noteNumber": 42,
		"velocity": 127,
		"subtype": "noteOn",
		"time": 89520,
		"track": 5
	},
	{
		"deltaTime": 0,
		"channel": 9,
		"type": "channel",
		"noteNumber": 36,
		"velocity": 127,
		"subtype": "noteOn",
		"time": 89520,
		"track": 5
	},
	{
		"deltaTime": 60,
		"channel": 9,
		"type": "channel",
		"noteNumber": 35,
		"velocity": 127,
		"subtype": "noteOn",
		"time": 89520,
		"track": 5
	},
	{
		"deltaTime": 0,
		"channel": 9,
		"type": "channel",
		"subtype": "noteOff",
		"noteNumber": 35,
		"velocity": 0,
		"time": 89580,
		"track": 5
	},
	{
		"deltaTime": 0,
		"channel": 9,
		"type": "channel",
		"subtype": "noteOff",
		"noteNumber": 36,
		"velocity": 0,
		"time": 89580,
		"track": 5
	},
	{
		"deltaTime": 60,
		"channel": 9,
		"type": "channel",
		"subtype": "noteOff",
		"noteNumber": 42,
		"velocity": 0,
		"time": 89580,
		"track": 5
	},
	{
		"deltaTime": 0,
		"channel": 2,
		"type": "channel",
		"subtype": "noteOff",
		"noteNumber": 47,
		"velocity": 0,
		"time": 89640,
		"track": 4
	},
	{
		"deltaTime": 0,
		"channel": 2,
		"type": "channel",
		"noteNumber": 61,
		"velocity": 127,
		"subtype": "noteOn",
		"time": 89640,
		"track": 4
	},
	{
		"deltaTime": 0,
		"channel": 2,
		"type": "channel",
		"noteNumber": 66,
		"velocity": 127,
		"subtype": "noteOn",
		"time": 89640,
		"track": 4
	},
	{
		"deltaTime": 0,
		"channel": 2,
		"type": "channel",
		"noteNumber": 70,
		"velocity": 127,
		"subtype": "noteOn",
		"time": 89640,
		"track": 4
	},
	{
		"deltaTime": 60,
		"channel": 9,
		"type": "channel",
		"noteNumber": 42,
		"velocity": 127,
		"subtype": "noteOn",
		"time": 89640,
		"track": 5
	},
	{
		"deltaTime": 60,
		"channel": 9,
		"type": "channel",
		"subtype": "noteOff",
		"noteNumber": 42,
		"velocity": 0,
		"time": 89700,
		"track": 5
	},
	{
		"deltaTime": 0,
		"channel": 0,
		"type": "channel",
		"subtype": "noteOff",
		"noteNumber": 35,
		"velocity": 0,
		"time": 89760,
		"track": 2
	},
	{
		"deltaTime": 0,
		"channel": 0,
		"type": "channel",
		"noteNumber": 34,
		"velocity": 127,
		"subtype": "noteOn",
		"time": 89760,
		"track": 2
	},
	{
		"deltaTime": 0,
		"channel": 9,
		"type": "channel",
		"noteNumber": 42,
		"velocity": 127,
		"subtype": "noteOn",
		"time": 89760,
		"track": 5
	},
	{
		"deltaTime": 0,
		"channel": 9,
		"type": "channel",
		"noteNumber": 40,
		"velocity": 127,
		"subtype": "noteOn",
		"time": 89760,
		"track": 5
	},
	{
		"deltaTime": 60,
		"channel": 9,
		"type": "channel",
		"noteNumber": 38,
		"velocity": 127,
		"subtype": "noteOn",
		"time": 89760,
		"track": 5
	},
	{
		"deltaTime": 0,
		"channel": 9,
		"type": "channel",
		"subtype": "noteOff",
		"noteNumber": 38,
		"velocity": 0,
		"time": 89820,
		"track": 5
	},
	{
		"deltaTime": 0,
		"channel": 9,
		"type": "channel",
		"subtype": "noteOff",
		"noteNumber": 40,
		"velocity": 0,
		"time": 89820,
		"track": 5
	},
	{
		"deltaTime": 60,
		"channel": 9,
		"type": "channel",
		"subtype": "noteOff",
		"noteNumber": 42,
		"velocity": 0,
		"time": 89820,
		"track": 5
	},
	{
		"deltaTime": 0,
		"channel": 2,
		"type": "channel",
		"subtype": "noteOff",
		"noteNumber": 70,
		"velocity": 0,
		"time": 89880,
		"track": 4
	},
	{
		"deltaTime": 0,
		"channel": 2,
		"type": "channel",
		"subtype": "noteOff",
		"noteNumber": 66,
		"velocity": 0,
		"time": 89880,
		"track": 4
	},
	{
		"deltaTime": 0,
		"channel": 2,
		"type": "channel",
		"subtype": "noteOff",
		"noteNumber": 61,
		"velocity": 0,
		"time": 89880,
		"track": 4
	},
	{
		"deltaTime": 0,
		"channel": 2,
		"type": "channel",
		"noteNumber": 61,
		"velocity": 127,
		"subtype": "noteOn",
		"time": 89880,
		"track": 4
	},
	{
		"deltaTime": 0,
		"channel": 2,
		"type": "channel",
		"noteNumber": 66,
		"velocity": 127,
		"subtype": "noteOn",
		"time": 89880,
		"track": 4
	},
	{
		"deltaTime": 0,
		"channel": 2,
		"type": "channel",
		"noteNumber": 71,
		"velocity": 127,
		"subtype": "noteOn",
		"time": 89880,
		"track": 4
	},
	{
		"deltaTime": 60,
		"channel": 9,
		"type": "channel",
		"noteNumber": 42,
		"velocity": 127,
		"subtype": "noteOn",
		"time": 89880,
		"track": 5
	},
	{
		"deltaTime": 60,
		"channel": 9,
		"type": "channel",
		"subtype": "noteOff",
		"noteNumber": 42,
		"velocity": 0,
		"time": 89940,
		"track": 5
	},
	{
		"deltaTime": 60,
		"channel": 9,
		"type": "channel",
		"noteNumber": 42,
		"velocity": 127,
		"subtype": "noteOn",
		"time": 90000,
		"track": 5
	},
	{
		"deltaTime": 60,
		"channel": 9,
		"type": "channel",
		"subtype": "noteOff",
		"noteNumber": 42,
		"velocity": 0,
		"time": 90060,
		"track": 5
	},
	{
		"deltaTime": 60,
		"channel": 9,
		"type": "channel",
		"noteNumber": 42,
		"velocity": 127,
		"subtype": "noteOn",
		"time": 90120,
		"track": 5
	},
	{
		"deltaTime": 60,
		"channel": 9,
		"type": "channel",
		"subtype": "noteOff",
		"noteNumber": 42,
		"velocity": 0,
		"time": 90180,
		"track": 5
	},
	{
		"deltaTime": 0,
		"channel": 0,
		"type": "channel",
		"subtype": "noteOff",
		"noteNumber": 34,
		"velocity": 0,
		"time": 90240,
		"track": 2
	},
	{
		"deltaTime": 0,
		"channel": 0,
		"type": "channel",
		"noteNumber": 32,
		"velocity": 127,
		"subtype": "noteOn",
		"time": 90240,
		"track": 2
	},
	{
		"deltaTime": 0,
		"channel": 2,
		"type": "channel",
		"subtype": "noteOff",
		"noteNumber": 71,
		"velocity": 0,
		"time": 90240,
		"track": 4
	},
	{
		"deltaTime": 0,
		"channel": 2,
		"type": "channel",
		"subtype": "noteOff",
		"noteNumber": 66,
		"velocity": 0,
		"time": 90240,
		"track": 4
	},
	{
		"deltaTime": 0,
		"channel": 2,
		"type": "channel",
		"subtype": "noteOff",
		"noteNumber": 61,
		"velocity": 0,
		"time": 90240,
		"track": 4
	},
	{
		"deltaTime": 0,
		"channel": 2,
		"type": "channel",
		"noteNumber": 44,
		"velocity": 127,
		"subtype": "noteOn",
		"time": 90240,
		"track": 4
	},
	{
		"deltaTime": 0,
		"channel": 9,
		"type": "channel",
		"noteNumber": 42,
		"velocity": 127,
		"subtype": "noteOn",
		"time": 90240,
		"track": 5
	},
	{
		"deltaTime": 0,
		"channel": 9,
		"type": "channel",
		"noteNumber": 35,
		"velocity": 127,
		"subtype": "noteOn",
		"time": 90240,
		"track": 5
	},
	{
		"deltaTime": 60,
		"channel": 9,
		"type": "channel",
		"noteNumber": 36,
		"velocity": 127,
		"subtype": "noteOn",
		"time": 90240,
		"track": 5
	},
	{
		"deltaTime": 0,
		"channel": 9,
		"type": "channel",
		"subtype": "noteOff",
		"noteNumber": 36,
		"velocity": 0,
		"time": 90300,
		"track": 5
	},
	{
		"deltaTime": 0,
		"channel": 9,
		"type": "channel",
		"subtype": "noteOff",
		"noteNumber": 35,
		"velocity": 0,
		"time": 90300,
		"track": 5
	},
	{
		"deltaTime": 60,
		"channel": 9,
		"type": "channel",
		"subtype": "noteOff",
		"noteNumber": 42,
		"velocity": 0,
		"time": 90300,
		"track": 5
	},
	{
		"deltaTime": 60,
		"channel": 9,
		"type": "channel",
		"noteNumber": 42,
		"velocity": 127,
		"subtype": "noteOn",
		"time": 90360,
		"track": 5
	},
	{
		"deltaTime": 60,
		"channel": 9,
		"type": "channel",
		"subtype": "noteOff",
		"noteNumber": 42,
		"velocity": 0,
		"time": 90420,
		"track": 5
	},
	{
		"deltaTime": 0,
		"channel": 9,
		"type": "channel",
		"noteNumber": 42,
		"velocity": 127,
		"subtype": "noteOn",
		"time": 90480,
		"track": 5
	},
	{
		"deltaTime": 0,
		"channel": 9,
		"type": "channel",
		"noteNumber": 36,
		"velocity": 127,
		"subtype": "noteOn",
		"time": 90480,
		"track": 5
	},
	{
		"deltaTime": 60,
		"channel": 9,
		"type": "channel",
		"noteNumber": 35,
		"velocity": 127,
		"subtype": "noteOn",
		"time": 90480,
		"track": 5
	},
	{
		"deltaTime": 0,
		"channel": 9,
		"type": "channel",
		"subtype": "noteOff",
		"noteNumber": 35,
		"velocity": 0,
		"time": 90540,
		"track": 5
	},
	{
		"deltaTime": 0,
		"channel": 9,
		"type": "channel",
		"subtype": "noteOff",
		"noteNumber": 36,
		"velocity": 0,
		"time": 90540,
		"track": 5
	},
	{
		"deltaTime": 60,
		"channel": 9,
		"type": "channel",
		"subtype": "noteOff",
		"noteNumber": 42,
		"velocity": 0,
		"time": 90540,
		"track": 5
	},
	{
		"deltaTime": 0,
		"channel": 2,
		"type": "channel",
		"subtype": "noteOff",
		"noteNumber": 44,
		"velocity": 0,
		"time": 90600,
		"track": 4
	},
	{
		"deltaTime": 0,
		"channel": 2,
		"type": "channel",
		"noteNumber": 59,
		"velocity": 127,
		"subtype": "noteOn",
		"time": 90600,
		"track": 4
	},
	{
		"deltaTime": 0,
		"channel": 2,
		"type": "channel",
		"noteNumber": 63,
		"velocity": 127,
		"subtype": "noteOn",
		"time": 90600,
		"track": 4
	},
	{
		"deltaTime": 0,
		"channel": 2,
		"type": "channel",
		"noteNumber": 68,
		"velocity": 127,
		"subtype": "noteOn",
		"time": 90600,
		"track": 4
	},
	{
		"deltaTime": 60,
		"channel": 9,
		"type": "channel",
		"noteNumber": 42,
		"velocity": 127,
		"subtype": "noteOn",
		"time": 90600,
		"track": 5
	},
	{
		"deltaTime": 60,
		"channel": 9,
		"type": "channel",
		"subtype": "noteOff",
		"noteNumber": 42,
		"velocity": 0,
		"time": 90660,
		"track": 5
	},
	{
		"deltaTime": 0,
		"channel": 9,
		"type": "channel",
		"noteNumber": 42,
		"velocity": 127,
		"subtype": "noteOn",
		"time": 90720,
		"track": 5
	},
	{
		"deltaTime": 0,
		"channel": 9,
		"type": "channel",
		"noteNumber": 38,
		"velocity": 127,
		"subtype": "noteOn",
		"time": 90720,
		"track": 5
	},
	{
		"deltaTime": 60,
		"channel": 9,
		"type": "channel",
		"noteNumber": 40,
		"velocity": 127,
		"subtype": "noteOn",
		"time": 90720,
		"track": 5
	},
	{
		"deltaTime": 0,
		"channel": 9,
		"type": "channel",
		"subtype": "noteOff",
		"noteNumber": 40,
		"velocity": 0,
		"time": 90780,
		"track": 5
	},
	{
		"deltaTime": 0,
		"channel": 9,
		"type": "channel",
		"subtype": "noteOff",
		"noteNumber": 38,
		"velocity": 0,
		"time": 90780,
		"track": 5
	},
	{
		"deltaTime": 60,
		"channel": 9,
		"type": "channel",
		"subtype": "noteOff",
		"noteNumber": 42,
		"velocity": 0,
		"time": 90780,
		"track": 5
	},
	{
		"deltaTime": 0,
		"channel": 2,
		"type": "channel",
		"subtype": "noteOff",
		"noteNumber": 68,
		"velocity": 0,
		"time": 90840,
		"track": 4
	},
	{
		"deltaTime": 0,
		"channel": 2,
		"type": "channel",
		"subtype": "noteOff",
		"noteNumber": 63,
		"velocity": 0,
		"time": 90840,
		"track": 4
	},
	{
		"deltaTime": 0,
		"channel": 2,
		"type": "channel",
		"subtype": "noteOff",
		"noteNumber": 59,
		"velocity": 0,
		"time": 90840,
		"track": 4
	},
	{
		"deltaTime": 0,
		"channel": 2,
		"type": "channel",
		"noteNumber": 59,
		"velocity": 127,
		"subtype": "noteOn",
		"time": 90840,
		"track": 4
	},
	{
		"deltaTime": 0,
		"channel": 2,
		"type": "channel",
		"noteNumber": 63,
		"velocity": 127,
		"subtype": "noteOn",
		"time": 90840,
		"track": 4
	},
	{
		"deltaTime": 0,
		"channel": 2,
		"type": "channel",
		"noteNumber": 68,
		"velocity": 127,
		"subtype": "noteOn",
		"time": 90840,
		"track": 4
	},
	{
		"deltaTime": 60,
		"channel": 9,
		"type": "channel",
		"noteNumber": 42,
		"velocity": 127,
		"subtype": "noteOn",
		"time": 90840,
		"track": 5
	},
	{
		"deltaTime": 60,
		"channel": 9,
		"type": "channel",
		"subtype": "noteOff",
		"noteNumber": 42,
		"velocity": 0,
		"time": 90900,
		"track": 5
	},
	{
		"deltaTime": 0,
		"channel": 0,
		"type": "channel",
		"subtype": "noteOff",
		"noteNumber": 32,
		"velocity": 0,
		"time": 90960,
		"track": 2
	},
	{
		"deltaTime": 0,
		"channel": 0,
		"type": "channel",
		"noteNumber": 32,
		"velocity": 127,
		"subtype": "noteOn",
		"time": 90960,
		"track": 2
	},
	{
		"deltaTime": 60,
		"channel": 9,
		"type": "channel",
		"noteNumber": 42,
		"velocity": 127,
		"subtype": "noteOn",
		"time": 90960,
		"track": 5
	},
	{
		"deltaTime": 60,
		"channel": 9,
		"type": "channel",
		"subtype": "noteOff",
		"noteNumber": 42,
		"velocity": 0,
		"time": 91020,
		"track": 5
	},
	{
		"deltaTime": 0,
		"channel": 9,
		"type": "channel",
		"noteNumber": 42,
		"velocity": 127,
		"subtype": "noteOn",
		"time": 91080,
		"track": 5
	},
	{
		"deltaTime": 0,
		"channel": 9,
		"type": "channel",
		"noteNumber": 36,
		"velocity": 127,
		"subtype": "noteOn",
		"time": 91080,
		"track": 5
	},
	{
		"deltaTime": 60,
		"channel": 9,
		"type": "channel",
		"noteNumber": 35,
		"velocity": 127,
		"subtype": "noteOn",
		"time": 91080,
		"track": 5
	},
	{
		"deltaTime": 0,
		"channel": 9,
		"type": "channel",
		"subtype": "noteOff",
		"noteNumber": 35,
		"velocity": 0,
		"time": 91140,
		"track": 5
	},
	{
		"deltaTime": 0,
		"channel": 9,
		"type": "channel",
		"subtype": "noteOff",
		"noteNumber": 36,
		"velocity": 0,
		"time": 91140,
		"track": 5
	},
	{
		"deltaTime": 60,
		"channel": 9,
		"type": "channel",
		"subtype": "noteOff",
		"noteNumber": 42,
		"velocity": 0,
		"time": 91140,
		"track": 5
	},
	{
		"deltaTime": 0,
		"channel": 0,
		"type": "channel",
		"subtype": "noteOff",
		"noteNumber": 32,
		"velocity": 0,
		"time": 91200,
		"track": 2
	},
	{
		"deltaTime": 0,
		"channel": 0,
		"type": "channel",
		"noteNumber": 40,
		"velocity": 127,
		"subtype": "noteOn",
		"time": 91200,
		"track": 2
	},
	{
		"deltaTime": 0,
		"channel": 2,
		"type": "channel",
		"subtype": "noteOff",
		"noteNumber": 68,
		"velocity": 0,
		"time": 91200,
		"track": 4
	},
	{
		"deltaTime": 0,
		"channel": 2,
		"type": "channel",
		"subtype": "noteOff",
		"noteNumber": 63,
		"velocity": 0,
		"time": 91200,
		"track": 4
	},
	{
		"deltaTime": 0,
		"channel": 2,
		"type": "channel",
		"subtype": "noteOff",
		"noteNumber": 59,
		"velocity": 0,
		"time": 91200,
		"track": 4
	},
	{
		"deltaTime": 0,
		"channel": 2,
		"type": "channel",
		"noteNumber": 40,
		"velocity": 127,
		"subtype": "noteOn",
		"time": 91200,
		"track": 4
	},
	{
		"deltaTime": 60,
		"channel": 9,
		"type": "channel",
		"noteNumber": 42,
		"velocity": 127,
		"subtype": "noteOn",
		"time": 91200,
		"track": 5
	},
	{
		"deltaTime": 60,
		"channel": 9,
		"type": "channel",
		"subtype": "noteOff",
		"noteNumber": 42,
		"velocity": 0,
		"time": 91260,
		"track": 5
	},
	{
		"deltaTime": 60,
		"channel": 9,
		"type": "channel",
		"noteNumber": 42,
		"velocity": 127,
		"subtype": "noteOn",
		"time": 91320,
		"track": 5
	},
	{
		"deltaTime": 60,
		"channel": 9,
		"type": "channel",
		"subtype": "noteOff",
		"noteNumber": 42,
		"velocity": 0,
		"time": 91380,
		"track": 5
	},
	{
		"deltaTime": 0,
		"channel": 9,
		"type": "channel",
		"noteNumber": 42,
		"velocity": 127,
		"subtype": "noteOn",
		"time": 91440,
		"track": 5
	},
	{
		"deltaTime": 0,
		"channel": 9,
		"type": "channel",
		"noteNumber": 36,
		"velocity": 127,
		"subtype": "noteOn",
		"time": 91440,
		"track": 5
	},
	{
		"deltaTime": 60,
		"channel": 9,
		"type": "channel",
		"noteNumber": 35,
		"velocity": 127,
		"subtype": "noteOn",
		"time": 91440,
		"track": 5
	},
	{
		"deltaTime": 0,
		"channel": 9,
		"type": "channel",
		"subtype": "noteOff",
		"noteNumber": 35,
		"velocity": 0,
		"time": 91500,
		"track": 5
	},
	{
		"deltaTime": 0,
		"channel": 9,
		"type": "channel",
		"subtype": "noteOff",
		"noteNumber": 36,
		"velocity": 0,
		"time": 91500,
		"track": 5
	},
	{
		"deltaTime": 60,
		"channel": 9,
		"type": "channel",
		"subtype": "noteOff",
		"noteNumber": 42,
		"velocity": 0,
		"time": 91500,
		"track": 5
	},
	{
		"deltaTime": 0,
		"channel": 2,
		"type": "channel",
		"subtype": "noteOff",
		"noteNumber": 40,
		"velocity": 0,
		"time": 91560,
		"track": 4
	},
	{
		"deltaTime": 0,
		"channel": 2,
		"type": "channel",
		"noteNumber": 59,
		"velocity": 127,
		"subtype": "noteOn",
		"time": 91560,
		"track": 4
	},
	{
		"deltaTime": 0,
		"channel": 2,
		"type": "channel",
		"noteNumber": 63,
		"velocity": 127,
		"subtype": "noteOn",
		"time": 91560,
		"track": 4
	},
	{
		"deltaTime": 0,
		"channel": 2,
		"type": "channel",
		"noteNumber": 68,
		"velocity": 127,
		"subtype": "noteOn",
		"time": 91560,
		"track": 4
	},
	{
		"deltaTime": 60,
		"channel": 9,
		"type": "channel",
		"noteNumber": 42,
		"velocity": 127,
		"subtype": "noteOn",
		"time": 91560,
		"track": 5
	},
	{
		"deltaTime": 60,
		"channel": 9,
		"type": "channel",
		"subtype": "noteOff",
		"noteNumber": 42,
		"velocity": 0,
		"time": 91620,
		"track": 5
	},
	{
		"deltaTime": 0,
		"channel": 9,
		"type": "channel",
		"noteNumber": 42,
		"velocity": 127,
		"subtype": "noteOn",
		"time": 91680,
		"track": 5
	},
	{
		"deltaTime": 0,
		"channel": 9,
		"type": "channel",
		"noteNumber": 40,
		"velocity": 127,
		"subtype": "noteOn",
		"time": 91680,
		"track": 5
	},
	{
		"deltaTime": 60,
		"channel": 9,
		"type": "channel",
		"noteNumber": 38,
		"velocity": 127,
		"subtype": "noteOn",
		"time": 91680,
		"track": 5
	},
	{
		"deltaTime": 0,
		"channel": 9,
		"type": "channel",
		"subtype": "noteOff",
		"noteNumber": 38,
		"velocity": 0,
		"time": 91740,
		"track": 5
	},
	{
		"deltaTime": 0,
		"channel": 9,
		"type": "channel",
		"subtype": "noteOff",
		"noteNumber": 40,
		"velocity": 0,
		"time": 91740,
		"track": 5
	},
	{
		"deltaTime": 60,
		"channel": 9,
		"type": "channel",
		"subtype": "noteOff",
		"noteNumber": 42,
		"velocity": 0,
		"time": 91740,
		"track": 5
	},
	{
		"deltaTime": 0,
		"channel": 2,
		"type": "channel",
		"subtype": "noteOff",
		"noteNumber": 68,
		"velocity": 0,
		"time": 91800,
		"track": 4
	},
	{
		"deltaTime": 0,
		"channel": 2,
		"type": "channel",
		"subtype": "noteOff",
		"noteNumber": 63,
		"velocity": 0,
		"time": 91800,
		"track": 4
	},
	{
		"deltaTime": 0,
		"channel": 2,
		"type": "channel",
		"subtype": "noteOff",
		"noteNumber": 59,
		"velocity": 0,
		"time": 91800,
		"track": 4
	},
	{
		"deltaTime": 0,
		"channel": 2,
		"type": "channel",
		"noteNumber": 59,
		"velocity": 127,
		"subtype": "noteOn",
		"time": 91800,
		"track": 4
	},
	{
		"deltaTime": 0,
		"channel": 2,
		"type": "channel",
		"noteNumber": 63,
		"velocity": 127,
		"subtype": "noteOn",
		"time": 91800,
		"track": 4
	},
	{
		"deltaTime": 0,
		"channel": 2,
		"type": "channel",
		"noteNumber": 68,
		"velocity": 127,
		"subtype": "noteOn",
		"time": 91800,
		"track": 4
	},
	{
		"deltaTime": 60,
		"channel": 9,
		"type": "channel",
		"noteNumber": 42,
		"velocity": 127,
		"subtype": "noteOn",
		"time": 91800,
		"track": 5
	},
	{
		"deltaTime": 60,
		"channel": 9,
		"type": "channel",
		"subtype": "noteOff",
		"noteNumber": 42,
		"velocity": 0,
		"time": 91860,
		"track": 5
	},
	{
		"deltaTime": 0,
		"channel": 0,
		"type": "channel",
		"subtype": "noteOff",
		"noteNumber": 40,
		"velocity": 0,
		"time": 91920,
		"track": 2
	},
	{
		"deltaTime": 0,
		"channel": 0,
		"type": "channel",
		"noteNumber": 40,
		"velocity": 127,
		"subtype": "noteOn",
		"time": 91920,
		"track": 2
	},
	{
		"deltaTime": 60,
		"channel": 9,
		"type": "channel",
		"noteNumber": 42,
		"velocity": 127,
		"subtype": "noteOn",
		"time": 91920,
		"track": 5
	},
	{
		"deltaTime": 60,
		"channel": 9,
		"type": "channel",
		"subtype": "noteOff",
		"noteNumber": 42,
		"velocity": 0,
		"time": 91980,
		"track": 5
	},
	{
		"deltaTime": 60,
		"channel": 9,
		"type": "channel",
		"noteNumber": 42,
		"velocity": 127,
		"subtype": "noteOn",
		"time": 92040,
		"track": 5
	},
	{
		"deltaTime": 60,
		"channel": 9,
		"type": "channel",
		"subtype": "noteOff",
		"noteNumber": 42,
		"velocity": 0,
		"time": 92100,
		"track": 5
	},
	{
		"deltaTime": 0,
		"channel": 0,
		"type": "channel",
		"subtype": "noteOff",
		"noteNumber": 40,
		"velocity": 0,
		"time": 92160,
		"track": 2
	},
	{
		"deltaTime": 0,
		"channel": 0,
		"type": "channel",
		"noteNumber": 41,
		"velocity": 127,
		"subtype": "noteOn",
		"time": 92160,
		"track": 2
	},
	{
		"deltaTime": 0,
		"channel": 2,
		"type": "channel",
		"subtype": "noteOff",
		"noteNumber": 68,
		"velocity": 0,
		"time": 92160,
		"track": 4
	},
	{
		"deltaTime": 0,
		"channel": 2,
		"type": "channel",
		"subtype": "noteOff",
		"noteNumber": 63,
		"velocity": 0,
		"time": 92160,
		"track": 4
	},
	{
		"deltaTime": 0,
		"channel": 2,
		"type": "channel",
		"subtype": "noteOff",
		"noteNumber": 59,
		"velocity": 0,
		"time": 92160,
		"track": 4
	},
	{
		"deltaTime": 0,
		"channel": 2,
		"type": "channel",
		"noteNumber": 41,
		"velocity": 127,
		"subtype": "noteOn",
		"time": 92160,
		"track": 4
	},
	{
		"deltaTime": 0,
		"channel": 9,
		"type": "channel",
		"noteNumber": 35,
		"velocity": 127,
		"subtype": "noteOn",
		"time": 92160,
		"track": 5
	},
	{
		"deltaTime": 60,
		"channel": 9,
		"type": "channel",
		"noteNumber": 36,
		"velocity": 127,
		"subtype": "noteOn",
		"time": 92160,
		"track": 5
	},
	{
		"deltaTime": 0,
		"channel": 9,
		"type": "channel",
		"subtype": "noteOff",
		"noteNumber": 36,
		"velocity": 0,
		"time": 92220,
		"track": 5
	},
	{
		"deltaTime": 180,
		"channel": 9,
		"type": "channel",
		"subtype": "noteOff",
		"noteNumber": 35,
		"velocity": 0,
		"time": 92220,
		"track": 5
	},
	{
		"deltaTime": 0,
		"channel": 9,
		"type": "channel",
		"noteNumber": 35,
		"velocity": 127,
		"subtype": "noteOn",
		"time": 92400,
		"track": 5
	},
	{
		"deltaTime": 60,
		"channel": 9,
		"type": "channel",
		"noteNumber": 36,
		"velocity": 127,
		"subtype": "noteOn",
		"time": 92400,
		"track": 5
	},
	{
		"deltaTime": 0,
		"channel": 9,
		"type": "channel",
		"subtype": "noteOff",
		"noteNumber": 36,
		"velocity": 0,
		"time": 92460,
		"track": 5
	},
	{
		"deltaTime": 60,
		"channel": 9,
		"type": "channel",
		"subtype": "noteOff",
		"noteNumber": 35,
		"velocity": 0,
		"time": 92460,
		"track": 5
	},
	{
		"deltaTime": 0,
		"channel": 2,
		"type": "channel",
		"subtype": "noteOff",
		"noteNumber": 41,
		"velocity": 0,
		"time": 92520,
		"track": 4
	},
	{
		"deltaTime": 0,
		"channel": 2,
		"type": "channel",
		"noteNumber": 59,
		"velocity": 127,
		"subtype": "noteOn",
		"time": 92520,
		"track": 4
	},
	{
		"deltaTime": 0,
		"channel": 2,
		"type": "channel",
		"noteNumber": 63,
		"velocity": 127,
		"subtype": "noteOn",
		"time": 92520,
		"track": 4
	},
	{
		"deltaTime": 120,
		"channel": 2,
		"type": "channel",
		"noteNumber": 68,
		"velocity": 127,
		"subtype": "noteOn",
		"time": 92520,
		"track": 4
	},
	{
		"deltaTime": 60,
		"channel": 9,
		"type": "channel",
		"noteNumber": 39,
		"velocity": 127,
		"subtype": "noteOn",
		"time": 92640,
		"track": 5
	},
	{
		"deltaTime": 60,
		"channel": 9,
		"type": "channel",
		"subtype": "noteOff",
		"noteNumber": 39,
		"velocity": 0,
		"time": 92700,
		"track": 5
	},
	{
		"deltaTime": 0,
		"channel": 2,
		"type": "channel",
		"subtype": "noteOff",
		"noteNumber": 68,
		"velocity": 0,
		"time": 92760,
		"track": 4
	},
	{
		"deltaTime": 0,
		"channel": 2,
		"type": "channel",
		"subtype": "noteOff",
		"noteNumber": 63,
		"velocity": 0,
		"time": 92760,
		"track": 4
	},
	{
		"deltaTime": 0,
		"channel": 2,
		"type": "channel",
		"subtype": "noteOff",
		"noteNumber": 59,
		"velocity": 0,
		"time": 92760,
		"track": 4
	},
	{
		"deltaTime": 0,
		"channel": 2,
		"type": "channel",
		"noteNumber": 59,
		"velocity": 127,
		"subtype": "noteOn",
		"time": 92760,
		"track": 4
	},
	{
		"deltaTime": 0,
		"channel": 2,
		"type": "channel",
		"noteNumber": 63,
		"velocity": 127,
		"subtype": "noteOn",
		"time": 92760,
		"track": 4
	},
	{
		"deltaTime": 120,
		"channel": 2,
		"type": "channel",
		"noteNumber": 68,
		"velocity": 127,
		"subtype": "noteOn",
		"time": 92760,
		"track": 4
	},
	{
		"deltaTime": 0,
		"channel": 0,
		"type": "channel",
		"subtype": "noteOff",
		"noteNumber": 41,
		"velocity": 0,
		"time": 92880,
		"track": 2
	},
	{
		"deltaTime": 120,
		"channel": 0,
		"type": "channel",
		"noteNumber": 41,
		"velocity": 127,
		"subtype": "noteOn",
		"time": 92880,
		"track": 2
	},
	{
		"deltaTime": 0,
		"channel": 9,
		"type": "channel",
		"noteNumber": 35,
		"velocity": 127,
		"subtype": "noteOn",
		"time": 93000,
		"track": 5
	},
	{
		"deltaTime": 60,
		"channel": 9,
		"type": "channel",
		"noteNumber": 36,
		"velocity": 127,
		"subtype": "noteOn",
		"time": 93000,
		"track": 5
	},
	{
		"deltaTime": 0,
		"channel": 9,
		"type": "channel",
		"subtype": "noteOff",
		"noteNumber": 36,
		"velocity": 0,
		"time": 93060,
		"track": 5
	},
	{
		"deltaTime": 60,
		"channel": 9,
		"type": "channel",
		"subtype": "noteOff",
		"noteNumber": 35,
		"velocity": 0,
		"time": 93060,
		"track": 5
	},
	{
		"deltaTime": 0,
		"channel": 0,
		"type": "channel",
		"subtype": "noteOff",
		"noteNumber": 41,
		"velocity": 0,
		"time": 93120,
		"track": 2
	},
	{
		"deltaTime": 0,
		"channel": 0,
		"type": "channel",
		"noteNumber": 40,
		"velocity": 127,
		"subtype": "noteOn",
		"time": 93120,
		"track": 2
	},
	{
		"deltaTime": 0,
		"channel": 2,
		"type": "channel",
		"subtype": "noteOff",
		"noteNumber": 68,
		"velocity": 0,
		"time": 93120,
		"track": 4
	},
	{
		"deltaTime": 0,
		"channel": 2,
		"type": "channel",
		"subtype": "noteOff",
		"noteNumber": 63,
		"velocity": 0,
		"time": 93120,
		"track": 4
	},
	{
		"deltaTime": 0,
		"channel": 2,
		"type": "channel",
		"subtype": "noteOff",
		"noteNumber": 59,
		"velocity": 0,
		"time": 93120,
		"track": 4
	},
	{
		"deltaTime": 240,
		"channel": 2,
		"type": "channel",
		"noteNumber": 40,
		"velocity": 127,
		"subtype": "noteOn",
		"time": 93120,
		"track": 4
	},
	{
		"deltaTime": 0,
		"channel": 9,
		"type": "channel",
		"noteNumber": 35,
		"velocity": 127,
		"subtype": "noteOn",
		"time": 93360,
		"track": 5
	},
	{
		"deltaTime": 60,
		"channel": 9,
		"type": "channel",
		"noteNumber": 36,
		"velocity": 127,
		"subtype": "noteOn",
		"time": 93360,
		"track": 5
	},
	{
		"deltaTime": 0,
		"channel": 9,
		"type": "channel",
		"subtype": "noteOff",
		"noteNumber": 36,
		"velocity": 0,
		"time": 93420,
		"track": 5
	},
	{
		"deltaTime": 60,
		"channel": 9,
		"type": "channel",
		"subtype": "noteOff",
		"noteNumber": 35,
		"velocity": 0,
		"time": 93420,
		"track": 5
	},
	{
		"deltaTime": 0,
		"channel": 2,
		"type": "channel",
		"subtype": "noteOff",
		"noteNumber": 40,
		"velocity": 0,
		"time": 93480,
		"track": 4
	},
	{
		"deltaTime": 0,
		"channel": 2,
		"type": "channel",
		"noteNumber": 59,
		"velocity": 127,
		"subtype": "noteOn",
		"time": 93480,
		"track": 4
	},
	{
		"deltaTime": 0,
		"channel": 2,
		"type": "channel",
		"noteNumber": 63,
		"velocity": 127,
		"subtype": "noteOn",
		"time": 93480,
		"track": 4
	},
	{
		"deltaTime": 120,
		"channel": 2,
		"type": "channel",
		"noteNumber": 68,
		"velocity": 127,
		"subtype": "noteOn",
		"time": 93480,
		"track": 4
	},
	{
		"deltaTime": 0,
		"channel": 0,
		"type": "channel",
		"subtype": "noteOff",
		"noteNumber": 40,
		"velocity": 0,
		"time": 93600,
		"track": 2
	},
	{
		"deltaTime": 0,
		"channel": 0,
		"type": "channel",
		"noteNumber": 35,
		"velocity": 127,
		"subtype": "noteOn",
		"time": 93600,
		"track": 2
	},
	{
		"deltaTime": 0,
		"channel": 9,
		"type": "channel",
		"noteNumber": 38,
		"velocity": 127,
		"subtype": "noteOn",
		"time": 93600,
		"track": 5
	},
	{
		"deltaTime": 60,
		"channel": 9,
		"type": "channel",
		"noteNumber": 40,
		"velocity": 127,
		"subtype": "noteOn",
		"time": 93600,
		"track": 5
	},
	{
		"deltaTime": 0,
		"channel": 9,
		"type": "channel",
		"subtype": "noteOff",
		"noteNumber": 40,
		"velocity": 0,
		"time": 93660,
		"track": 5
	},
	{
		"deltaTime": 60,
		"channel": 9,
		"type": "channel",
		"subtype": "noteOff",
		"noteNumber": 38,
		"velocity": 0,
		"time": 93660,
		"track": 5
	},
	{
		"deltaTime": 0,
		"channel": 2,
		"type": "channel",
		"subtype": "noteOff",
		"noteNumber": 68,
		"velocity": 0,
		"time": 93720,
		"track": 4
	},
	{
		"deltaTime": 0,
		"channel": 2,
		"type": "channel",
		"subtype": "noteOff",
		"noteNumber": 63,
		"velocity": 0,
		"time": 93720,
		"track": 4
	},
	{
		"deltaTime": 0,
		"channel": 2,
		"type": "channel",
		"subtype": "noteOff",
		"noteNumber": 59,
		"velocity": 0,
		"time": 93720,
		"track": 4
	},
	{
		"deltaTime": 0,
		"channel": 2,
		"type": "channel",
		"noteNumber": 59,
		"velocity": 127,
		"subtype": "noteOn",
		"time": 93720,
		"track": 4
	},
	{
		"deltaTime": 0,
		"channel": 2,
		"type": "channel",
		"noteNumber": 63,
		"velocity": 127,
		"subtype": "noteOn",
		"time": 93720,
		"track": 4
	},
	{
		"deltaTime": 120,
		"channel": 2,
		"type": "channel",
		"noteNumber": 68,
		"velocity": 127,
		"subtype": "noteOn",
		"time": 93720,
		"track": 4
	},
	{
		"deltaTime": 0,
		"channel": 0,
		"type": "channel",
		"subtype": "noteOff",
		"noteNumber": 35,
		"velocity": 0,
		"time": 93840,
		"track": 2
	},
	{
		"deltaTime": 0,
		"channel": 0,
		"type": "channel",
		"noteNumber": 34,
		"velocity": 127,
		"subtype": "noteOn",
		"time": 93840,
		"track": 2
	},
	{
		"deltaTime": 0,
		"channel": 9,
		"type": "channel",
		"noteNumber": 35,
		"velocity": 127,
		"subtype": "noteOn",
		"time": 93840,
		"track": 5
	},
	{
		"deltaTime": 60,
		"channel": 9,
		"type": "channel",
		"noteNumber": 36,
		"velocity": 127,
		"subtype": "noteOn",
		"time": 93840,
		"track": 5
	},
	{
		"deltaTime": 0,
		"channel": 9,
		"type": "channel",
		"subtype": "noteOff",
		"noteNumber": 36,
		"velocity": 0,
		"time": 93900,
		"track": 5
	},
	{
		"deltaTime": 180,
		"channel": 9,
		"type": "channel",
		"subtype": "noteOff",
		"noteNumber": 35,
		"velocity": 0,
		"time": 93900,
		"track": 5
	},
	{
		"deltaTime": 0,
		"channel": 0,
		"type": "channel",
		"subtype": "noteOff",
		"noteNumber": 34,
		"velocity": 0,
		"time": 94080,
		"track": 2
	},
	{
		"deltaTime": 0,
		"channel": 0,
		"type": "channel",
		"noteNumber": 32,
		"velocity": 127,
		"subtype": "noteOn",
		"time": 94080,
		"track": 2
	},
	{
		"deltaTime": 0,
		"channel": 2,
		"type": "channel",
		"subtype": "noteOff",
		"noteNumber": 68,
		"velocity": 0,
		"time": 94080,
		"track": 4
	},
	{
		"deltaTime": 0,
		"channel": 2,
		"type": "channel",
		"subtype": "noteOff",
		"noteNumber": 63,
		"velocity": 0,
		"time": 94080,
		"track": 4
	},
	{
		"deltaTime": 0,
		"channel": 2,
		"type": "channel",
		"subtype": "noteOff",
		"noteNumber": 59,
		"velocity": 0,
		"time": 94080,
		"track": 4
	},
	{
		"deltaTime": 0,
		"channel": 2,
		"type": "channel",
		"noteNumber": 44,
		"velocity": 127,
		"subtype": "noteOn",
		"time": 94080,
		"track": 4
	},
	{
		"deltaTime": 0,
		"channel": 9,
		"type": "channel",
		"noteNumber": 42,
		"velocity": 127,
		"subtype": "noteOn",
		"time": 94080,
		"track": 5
	},
	{
		"deltaTime": 0,
		"channel": 9,
		"type": "channel",
		"noteNumber": 35,
		"velocity": 127,
		"subtype": "noteOn",
		"time": 94080,
		"track": 5
	},
	{
		"deltaTime": 60,
		"channel": 9,
		"type": "channel",
		"noteNumber": 36,
		"velocity": 127,
		"subtype": "noteOn",
		"time": 94080,
		"track": 5
	},
	{
		"deltaTime": 0,
		"channel": 9,
		"type": "channel",
		"subtype": "noteOff",
		"noteNumber": 36,
		"velocity": 0,
		"time": 94140,
		"track": 5
	},
	{
		"deltaTime": 0,
		"channel": 9,
		"type": "channel",
		"subtype": "noteOff",
		"noteNumber": 35,
		"velocity": 0,
		"time": 94140,
		"track": 5
	},
	{
		"deltaTime": 60,
		"channel": 9,
		"type": "channel",
		"subtype": "noteOff",
		"noteNumber": 42,
		"velocity": 0,
		"time": 94140,
		"track": 5
	},
	{
		"deltaTime": 60,
		"channel": 9,
		"type": "channel",
		"noteNumber": 42,
		"velocity": 127,
		"subtype": "noteOn",
		"time": 94200,
		"track": 5
	},
	{
		"deltaTime": 60,
		"channel": 9,
		"type": "channel",
		"subtype": "noteOff",
		"noteNumber": 42,
		"velocity": 0,
		"time": 94260,
		"track": 5
	},
	{
		"deltaTime": 0,
		"channel": 9,
		"type": "channel",
		"noteNumber": 42,
		"velocity": 127,
		"subtype": "noteOn",
		"time": 94320,
		"track": 5
	},
	{
		"deltaTime": 0,
		"channel": 9,
		"type": "channel",
		"noteNumber": 36,
		"velocity": 127,
		"subtype": "noteOn",
		"time": 94320,
		"track": 5
	},
	{
		"deltaTime": 60,
		"channel": 9,
		"type": "channel",
		"noteNumber": 35,
		"velocity": 127,
		"subtype": "noteOn",
		"time": 94320,
		"track": 5
	},
	{
		"deltaTime": 0,
		"channel": 9,
		"type": "channel",
		"subtype": "noteOff",
		"noteNumber": 35,
		"velocity": 0,
		"time": 94380,
		"track": 5
	},
	{
		"deltaTime": 0,
		"channel": 9,
		"type": "channel",
		"subtype": "noteOff",
		"noteNumber": 36,
		"velocity": 0,
		"time": 94380,
		"track": 5
	},
	{
		"deltaTime": 60,
		"channel": 9,
		"type": "channel",
		"subtype": "noteOff",
		"noteNumber": 42,
		"velocity": 0,
		"time": 94380,
		"track": 5
	},
	{
		"deltaTime": 0,
		"channel": 2,
		"type": "channel",
		"subtype": "noteOff",
		"noteNumber": 44,
		"velocity": 0,
		"time": 94440,
		"track": 4
	},
	{
		"deltaTime": 0,
		"channel": 2,
		"type": "channel",
		"noteNumber": 59,
		"velocity": 127,
		"subtype": "noteOn",
		"time": 94440,
		"track": 4
	},
	{
		"deltaTime": 0,
		"channel": 2,
		"type": "channel",
		"noteNumber": 63,
		"velocity": 127,
		"subtype": "noteOn",
		"time": 94440,
		"track": 4
	},
	{
		"deltaTime": 0,
		"channel": 2,
		"type": "channel",
		"noteNumber": 68,
		"velocity": 127,
		"subtype": "noteOn",
		"time": 94440,
		"track": 4
	},
	{
		"deltaTime": 60,
		"channel": 9,
		"type": "channel",
		"noteNumber": 42,
		"velocity": 127,
		"subtype": "noteOn",
		"time": 94440,
		"track": 5
	},
	{
		"deltaTime": 60,
		"channel": 9,
		"type": "channel",
		"subtype": "noteOff",
		"noteNumber": 42,
		"velocity": 0,
		"time": 94500,
		"track": 5
	},
	{
		"deltaTime": 0,
		"channel": 9,
		"type": "channel",
		"noteNumber": 42,
		"velocity": 127,
		"subtype": "noteOn",
		"time": 94560,
		"track": 5
	},
	{
		"deltaTime": 0,
		"channel": 9,
		"type": "channel",
		"noteNumber": 38,
		"velocity": 127,
		"subtype": "noteOn",
		"time": 94560,
		"track": 5
	},
	{
		"deltaTime": 60,
		"channel": 9,
		"type": "channel",
		"noteNumber": 40,
		"velocity": 127,
		"subtype": "noteOn",
		"time": 94560,
		"track": 5
	},
	{
		"deltaTime": 0,
		"channel": 9,
		"type": "channel",
		"subtype": "noteOff",
		"noteNumber": 40,
		"velocity": 0,
		"time": 94620,
		"track": 5
	},
	{
		"deltaTime": 0,
		"channel": 9,
		"type": "channel",
		"subtype": "noteOff",
		"noteNumber": 38,
		"velocity": 0,
		"time": 94620,
		"track": 5
	},
	{
		"deltaTime": 60,
		"channel": 9,
		"type": "channel",
		"subtype": "noteOff",
		"noteNumber": 42,
		"velocity": 0,
		"time": 94620,
		"track": 5
	},
	{
		"deltaTime": 0,
		"channel": 2,
		"type": "channel",
		"subtype": "noteOff",
		"noteNumber": 68,
		"velocity": 0,
		"time": 94680,
		"track": 4
	},
	{
		"deltaTime": 0,
		"channel": 2,
		"type": "channel",
		"subtype": "noteOff",
		"noteNumber": 63,
		"velocity": 0,
		"time": 94680,
		"track": 4
	},
	{
		"deltaTime": 0,
		"channel": 2,
		"type": "channel",
		"subtype": "noteOff",
		"noteNumber": 59,
		"velocity": 0,
		"time": 94680,
		"track": 4
	},
	{
		"deltaTime": 0,
		"channel": 2,
		"type": "channel",
		"noteNumber": 59,
		"velocity": 127,
		"subtype": "noteOn",
		"time": 94680,
		"track": 4
	},
	{
		"deltaTime": 0,
		"channel": 2,
		"type": "channel",
		"noteNumber": 63,
		"velocity": 127,
		"subtype": "noteOn",
		"time": 94680,
		"track": 4
	},
	{
		"deltaTime": 0,
		"channel": 2,
		"type": "channel",
		"noteNumber": 68,
		"velocity": 127,
		"subtype": "noteOn",
		"time": 94680,
		"track": 4
	},
	{
		"deltaTime": 60,
		"channel": 9,
		"type": "channel",
		"noteNumber": 42,
		"velocity": 127,
		"subtype": "noteOn",
		"time": 94680,
		"track": 5
	},
	{
		"deltaTime": 60,
		"channel": 9,
		"type": "channel",
		"subtype": "noteOff",
		"noteNumber": 42,
		"velocity": 0,
		"time": 94740,
		"track": 5
	},
	{
		"deltaTime": 60,
		"channel": 9,
		"type": "channel",
		"noteNumber": 42,
		"velocity": 127,
		"subtype": "noteOn",
		"time": 94800,
		"track": 5
	},
	{
		"deltaTime": 60,
		"channel": 9,
		"type": "channel",
		"subtype": "noteOff",
		"noteNumber": 42,
		"velocity": 0,
		"time": 94860,
		"track": 5
	},
	{
		"deltaTime": 0,
		"channel": 9,
		"type": "channel",
		"noteNumber": 42,
		"velocity": 127,
		"subtype": "noteOn",
		"time": 94920,
		"track": 5
	},
	{
		"deltaTime": 0,
		"channel": 9,
		"type": "channel",
		"noteNumber": 36,
		"velocity": 127,
		"subtype": "noteOn",
		"time": 94920,
		"track": 5
	},
	{
		"deltaTime": 60,
		"channel": 9,
		"type": "channel",
		"noteNumber": 35,
		"velocity": 127,
		"subtype": "noteOn",
		"time": 94920,
		"track": 5
	},
	{
		"deltaTime": 0,
		"channel": 9,
		"type": "channel",
		"subtype": "noteOff",
		"noteNumber": 35,
		"velocity": 0,
		"time": 94980,
		"track": 5
	},
	{
		"deltaTime": 0,
		"channel": 9,
		"type": "channel",
		"subtype": "noteOff",
		"noteNumber": 36,
		"velocity": 0,
		"time": 94980,
		"track": 5
	},
	{
		"deltaTime": 60,
		"channel": 9,
		"type": "channel",
		"subtype": "noteOff",
		"noteNumber": 42,
		"velocity": 0,
		"time": 94980,
		"track": 5
	},
	{
		"deltaTime": 0,
		"channel": 0,
		"type": "channel",
		"subtype": "noteOff",
		"noteNumber": 32,
		"velocity": 0,
		"time": 95040,
		"track": 2
	},
	{
		"deltaTime": 0,
		"channel": 0,
		"type": "channel",
		"noteNumber": 40,
		"velocity": 127,
		"subtype": "noteOn",
		"time": 95040,
		"track": 2
	},
	{
		"deltaTime": 0,
		"channel": 2,
		"type": "channel",
		"subtype": "noteOff",
		"noteNumber": 68,
		"velocity": 0,
		"time": 95040,
		"track": 4
	},
	{
		"deltaTime": 0,
		"channel": 2,
		"type": "channel",
		"subtype": "noteOff",
		"noteNumber": 63,
		"velocity": 0,
		"time": 95040,
		"track": 4
	},
	{
		"deltaTime": 0,
		"channel": 2,
		"type": "channel",
		"subtype": "noteOff",
		"noteNumber": 59,
		"velocity": 0,
		"time": 95040,
		"track": 4
	},
	{
		"deltaTime": 0,
		"channel": 2,
		"type": "channel",
		"noteNumber": 40,
		"velocity": 127,
		"subtype": "noteOn",
		"time": 95040,
		"track": 4
	},
	{
		"deltaTime": 60,
		"channel": 9,
		"type": "channel",
		"noteNumber": 42,
		"velocity": 127,
		"subtype": "noteOn",
		"time": 95040,
		"track": 5
	},
	{
		"deltaTime": 60,
		"channel": 9,
		"type": "channel",
		"subtype": "noteOff",
		"noteNumber": 42,
		"velocity": 0,
		"time": 95100,
		"track": 5
	},
	{
		"deltaTime": 60,
		"channel": 9,
		"type": "channel",
		"noteNumber": 42,
		"velocity": 127,
		"subtype": "noteOn",
		"time": 95160,
		"track": 5
	},
	{
		"deltaTime": 60,
		"channel": 9,
		"type": "channel",
		"subtype": "noteOff",
		"noteNumber": 42,
		"velocity": 0,
		"time": 95220,
		"track": 5
	},
	{
		"deltaTime": 0,
		"channel": 9,
		"type": "channel",
		"noteNumber": 42,
		"velocity": 127,
		"subtype": "noteOn",
		"time": 95280,
		"track": 5
	},
	{
		"deltaTime": 0,
		"channel": 9,
		"type": "channel",
		"noteNumber": 36,
		"velocity": 127,
		"subtype": "noteOn",
		"time": 95280,
		"track": 5
	},
	{
		"deltaTime": 60,
		"channel": 9,
		"type": "channel",
		"noteNumber": 35,
		"velocity": 127,
		"subtype": "noteOn",
		"time": 95280,
		"track": 5
	},
	{
		"deltaTime": 0,
		"channel": 9,
		"type": "channel",
		"subtype": "noteOff",
		"noteNumber": 35,
		"velocity": 0,
		"time": 95340,
		"track": 5
	},
	{
		"deltaTime": 0,
		"channel": 9,
		"type": "channel",
		"subtype": "noteOff",
		"noteNumber": 36,
		"velocity": 0,
		"time": 95340,
		"track": 5
	},
	{
		"deltaTime": 60,
		"channel": 9,
		"type": "channel",
		"subtype": "noteOff",
		"noteNumber": 42,
		"velocity": 0,
		"time": 95340,
		"track": 5
	},
	{
		"deltaTime": 0,
		"channel": 2,
		"type": "channel",
		"subtype": "noteOff",
		"noteNumber": 40,
		"velocity": 0,
		"time": 95400,
		"track": 4
	},
	{
		"deltaTime": 0,
		"channel": 2,
		"type": "channel",
		"noteNumber": 59,
		"velocity": 127,
		"subtype": "noteOn",
		"time": 95400,
		"track": 4
	},
	{
		"deltaTime": 0,
		"channel": 2,
		"type": "channel",
		"noteNumber": 63,
		"velocity": 127,
		"subtype": "noteOn",
		"time": 95400,
		"track": 4
	},
	{
		"deltaTime": 0,
		"channel": 2,
		"type": "channel",
		"noteNumber": 68,
		"velocity": 127,
		"subtype": "noteOn",
		"time": 95400,
		"track": 4
	},
	{
		"deltaTime": 60,
		"channel": 9,
		"type": "channel",
		"noteNumber": 42,
		"velocity": 127,
		"subtype": "noteOn",
		"time": 95400,
		"track": 5
	},
	{
		"deltaTime": 60,
		"channel": 9,
		"type": "channel",
		"subtype": "noteOff",
		"noteNumber": 42,
		"velocity": 0,
		"time": 95460,
		"track": 5
	},
	{
		"deltaTime": 0,
		"channel": 9,
		"type": "channel",
		"noteNumber": 42,
		"velocity": 127,
		"subtype": "noteOn",
		"time": 95520,
		"track": 5
	},
	{
		"deltaTime": 0,
		"channel": 9,
		"type": "channel",
		"noteNumber": 40,
		"velocity": 127,
		"subtype": "noteOn",
		"time": 95520,
		"track": 5
	},
	{
		"deltaTime": 60,
		"channel": 9,
		"type": "channel",
		"noteNumber": 38,
		"velocity": 127,
		"subtype": "noteOn",
		"time": 95520,
		"track": 5
	},
	{
		"deltaTime": 0,
		"channel": 9,
		"type": "channel",
		"subtype": "noteOff",
		"noteNumber": 38,
		"velocity": 0,
		"time": 95580,
		"track": 5
	},
	{
		"deltaTime": 0,
		"channel": 9,
		"type": "channel",
		"subtype": "noteOff",
		"noteNumber": 40,
		"velocity": 0,
		"time": 95580,
		"track": 5
	},
	{
		"deltaTime": 60,
		"channel": 9,
		"type": "channel",
		"subtype": "noteOff",
		"noteNumber": 42,
		"velocity": 0,
		"time": 95580,
		"track": 5
	},
	{
		"deltaTime": 0,
		"channel": 2,
		"type": "channel",
		"subtype": "noteOff",
		"noteNumber": 68,
		"velocity": 0,
		"time": 95640,
		"track": 4
	},
	{
		"deltaTime": 0,
		"channel": 2,
		"type": "channel",
		"subtype": "noteOff",
		"noteNumber": 63,
		"velocity": 0,
		"time": 95640,
		"track": 4
	},
	{
		"deltaTime": 0,
		"channel": 2,
		"type": "channel",
		"subtype": "noteOff",
		"noteNumber": 59,
		"velocity": 0,
		"time": 95640,
		"track": 4
	},
	{
		"deltaTime": 0,
		"channel": 2,
		"type": "channel",
		"noteNumber": 59,
		"velocity": 127,
		"subtype": "noteOn",
		"time": 95640,
		"track": 4
	},
	{
		"deltaTime": 0,
		"channel": 2,
		"type": "channel",
		"noteNumber": 63,
		"velocity": 127,
		"subtype": "noteOn",
		"time": 95640,
		"track": 4
	},
	{
		"deltaTime": 0,
		"channel": 2,
		"type": "channel",
		"noteNumber": 68,
		"velocity": 127,
		"subtype": "noteOn",
		"time": 95640,
		"track": 4
	},
	{
		"deltaTime": 60,
		"channel": 9,
		"type": "channel",
		"noteNumber": 42,
		"velocity": 127,
		"subtype": "noteOn",
		"time": 95640,
		"track": 5
	},
	{
		"deltaTime": 60,
		"channel": 9,
		"type": "channel",
		"subtype": "noteOff",
		"noteNumber": 42,
		"velocity": 0,
		"time": 95700,
		"track": 5
	},
	{
		"deltaTime": 60,
		"channel": 9,
		"type": "channel",
		"noteNumber": 42,
		"velocity": 127,
		"subtype": "noteOn",
		"time": 95760,
		"track": 5
	},
	{
		"deltaTime": 60,
		"channel": 9,
		"type": "channel",
		"subtype": "noteOff",
		"noteNumber": 42,
		"velocity": 0,
		"time": 95820,
		"track": 5
	},
	{
		"deltaTime": 60,
		"channel": 9,
		"type": "channel",
		"noteNumber": 42,
		"velocity": 127,
		"subtype": "noteOn",
		"time": 95880,
		"track": 5
	},
	{
		"deltaTime": 60,
		"channel": 9,
		"type": "channel",
		"subtype": "noteOff",
		"noteNumber": 42,
		"velocity": 0,
		"time": 95940,
		"track": 5
	},
	{
		"deltaTime": 0,
		"channel": 0,
		"type": "channel",
		"subtype": "noteOff",
		"noteNumber": 40,
		"velocity": 0,
		"time": 96000,
		"track": 2
	},
	{
		"deltaTime": 0,
		"channel": 0,
		"type": "channel",
		"noteNumber": 42,
		"velocity": 127,
		"subtype": "noteOn",
		"time": 96000,
		"track": 2
	},
	{
		"deltaTime": 0,
		"channel": 2,
		"type": "channel",
		"subtype": "noteOff",
		"noteNumber": 68,
		"velocity": 0,
		"time": 96000,
		"track": 4
	},
	{
		"deltaTime": 0,
		"channel": 2,
		"type": "channel",
		"subtype": "noteOff",
		"noteNumber": 63,
		"velocity": 0,
		"time": 96000,
		"track": 4
	},
	{
		"deltaTime": 0,
		"channel": 2,
		"type": "channel",
		"subtype": "noteOff",
		"noteNumber": 59,
		"velocity": 0,
		"time": 96000,
		"track": 4
	},
	{
		"deltaTime": 0,
		"channel": 2,
		"type": "channel",
		"noteNumber": 42,
		"velocity": 127,
		"subtype": "noteOn",
		"time": 96000,
		"track": 4
	},
	{
		"deltaTime": 0,
		"channel": 9,
		"type": "channel",
		"noteNumber": 42,
		"velocity": 127,
		"subtype": "noteOn",
		"time": 96000,
		"track": 5
	},
	{
		"deltaTime": 0,
		"channel": 9,
		"type": "channel",
		"noteNumber": 35,
		"velocity": 127,
		"subtype": "noteOn",
		"time": 96000,
		"track": 5
	},
	{
		"deltaTime": 60,
		"channel": 9,
		"type": "channel",
		"noteNumber": 36,
		"velocity": 127,
		"subtype": "noteOn",
		"time": 96000,
		"track": 5
	},
	{
		"deltaTime": 0,
		"channel": 9,
		"type": "channel",
		"subtype": "noteOff",
		"noteNumber": 36,
		"velocity": 0,
		"time": 96060,
		"track": 5
	},
	{
		"deltaTime": 0,
		"channel": 9,
		"type": "channel",
		"subtype": "noteOff",
		"noteNumber": 35,
		"velocity": 0,
		"time": 96060,
		"track": 5
	},
	{
		"deltaTime": 60,
		"channel": 9,
		"type": "channel",
		"subtype": "noteOff",
		"noteNumber": 42,
		"velocity": 0,
		"time": 96060,
		"track": 5
	},
	{
		"deltaTime": 60,
		"channel": 9,
		"type": "channel",
		"noteNumber": 42,
		"velocity": 127,
		"subtype": "noteOn",
		"time": 96120,
		"track": 5
	},
	{
		"deltaTime": 60,
		"channel": 9,
		"type": "channel",
		"subtype": "noteOff",
		"noteNumber": 42,
		"velocity": 0,
		"time": 96180,
		"track": 5
	},
	{
		"deltaTime": 0,
		"channel": 9,
		"type": "channel",
		"noteNumber": 42,
		"velocity": 127,
		"subtype": "noteOn",
		"time": 96240,
		"track": 5
	},
	{
		"deltaTime": 0,
		"channel": 9,
		"type": "channel",
		"noteNumber": 36,
		"velocity": 127,
		"subtype": "noteOn",
		"time": 96240,
		"track": 5
	},
	{
		"deltaTime": 60,
		"channel": 9,
		"type": "channel",
		"noteNumber": 35,
		"velocity": 127,
		"subtype": "noteOn",
		"time": 96240,
		"track": 5
	},
	{
		"deltaTime": 0,
		"channel": 9,
		"type": "channel",
		"subtype": "noteOff",
		"noteNumber": 35,
		"velocity": 0,
		"time": 96300,
		"track": 5
	},
	{
		"deltaTime": 0,
		"channel": 9,
		"type": "channel",
		"subtype": "noteOff",
		"noteNumber": 36,
		"velocity": 0,
		"time": 96300,
		"track": 5
	},
	{
		"deltaTime": 60,
		"channel": 9,
		"type": "channel",
		"subtype": "noteOff",
		"noteNumber": 42,
		"velocity": 0,
		"time": 96300,
		"track": 5
	},
	{
		"deltaTime": 0,
		"channel": 2,
		"type": "channel",
		"subtype": "noteOff",
		"noteNumber": 42,
		"velocity": 0,
		"time": 96360,
		"track": 4
	},
	{
		"deltaTime": 0,
		"channel": 2,
		"type": "channel",
		"noteNumber": 61,
		"velocity": 127,
		"subtype": "noteOn",
		"time": 96360,
		"track": 4
	},
	{
		"deltaTime": 0,
		"channel": 2,
		"type": "channel",
		"noteNumber": 66,
		"velocity": 127,
		"subtype": "noteOn",
		"time": 96360,
		"track": 4
	},
	{
		"deltaTime": 0,
		"channel": 2,
		"type": "channel",
		"noteNumber": 70,
		"velocity": 127,
		"subtype": "noteOn",
		"time": 96360,
		"track": 4
	},
	{
		"deltaTime": 60,
		"channel": 9,
		"type": "channel",
		"noteNumber": 42,
		"velocity": 127,
		"subtype": "noteOn",
		"time": 96360,
		"track": 5
	},
	{
		"deltaTime": 60,
		"channel": 9,
		"type": "channel",
		"subtype": "noteOff",
		"noteNumber": 42,
		"velocity": 0,
		"time": 96420,
		"track": 5
	},
	{
		"deltaTime": 0,
		"channel": 9,
		"type": "channel",
		"noteNumber": 42,
		"velocity": 127,
		"subtype": "noteOn",
		"time": 96480,
		"track": 5
	},
	{
		"deltaTime": 0,
		"channel": 9,
		"type": "channel",
		"noteNumber": 38,
		"velocity": 127,
		"subtype": "noteOn",
		"time": 96480,
		"track": 5
	},
	{
		"deltaTime": 60,
		"channel": 9,
		"type": "channel",
		"noteNumber": 40,
		"velocity": 127,
		"subtype": "noteOn",
		"time": 96480,
		"track": 5
	},
	{
		"deltaTime": 0,
		"channel": 9,
		"type": "channel",
		"subtype": "noteOff",
		"noteNumber": 40,
		"velocity": 0,
		"time": 96540,
		"track": 5
	},
	{
		"deltaTime": 0,
		"channel": 9,
		"type": "channel",
		"subtype": "noteOff",
		"noteNumber": 38,
		"velocity": 0,
		"time": 96540,
		"track": 5
	},
	{
		"deltaTime": 60,
		"channel": 9,
		"type": "channel",
		"subtype": "noteOff",
		"noteNumber": 42,
		"velocity": 0,
		"time": 96540,
		"track": 5
	},
	{
		"deltaTime": 0,
		"channel": 2,
		"type": "channel",
		"subtype": "noteOff",
		"noteNumber": 70,
		"velocity": 0,
		"time": 96600,
		"track": 4
	},
	{
		"deltaTime": 0,
		"channel": 2,
		"type": "channel",
		"subtype": "noteOff",
		"noteNumber": 66,
		"velocity": 0,
		"time": 96600,
		"track": 4
	},
	{
		"deltaTime": 0,
		"channel": 2,
		"type": "channel",
		"subtype": "noteOff",
		"noteNumber": 61,
		"velocity": 0,
		"time": 96600,
		"track": 4
	},
	{
		"deltaTime": 0,
		"channel": 2,
		"type": "channel",
		"noteNumber": 61,
		"velocity": 127,
		"subtype": "noteOn",
		"time": 96600,
		"track": 4
	},
	{
		"deltaTime": 0,
		"channel": 2,
		"type": "channel",
		"noteNumber": 66,
		"velocity": 127,
		"subtype": "noteOn",
		"time": 96600,
		"track": 4
	},
	{
		"deltaTime": 0,
		"channel": 2,
		"type": "channel",
		"noteNumber": 70,
		"velocity": 127,
		"subtype": "noteOn",
		"time": 96600,
		"track": 4
	},
	{
		"deltaTime": 60,
		"channel": 9,
		"type": "channel",
		"noteNumber": 42,
		"velocity": 127,
		"subtype": "noteOn",
		"time": 96600,
		"track": 5
	},
	{
		"deltaTime": 60,
		"channel": 9,
		"type": "channel",
		"subtype": "noteOff",
		"noteNumber": 42,
		"velocity": 0,
		"time": 96660,
		"track": 5
	},
	{
		"deltaTime": 60,
		"channel": 9,
		"type": "channel",
		"noteNumber": 42,
		"velocity": 127,
		"subtype": "noteOn",
		"time": 96720,
		"track": 5
	},
	{
		"deltaTime": 60,
		"channel": 9,
		"type": "channel",
		"subtype": "noteOff",
		"noteNumber": 42,
		"velocity": 0,
		"time": 96780,
		"track": 5
	},
	{
		"deltaTime": 0,
		"channel": 9,
		"type": "channel",
		"noteNumber": 42,
		"velocity": 127,
		"subtype": "noteOn",
		"time": 96840,
		"track": 5
	},
	{
		"deltaTime": 0,
		"channel": 9,
		"type": "channel",
		"noteNumber": 36,
		"velocity": 127,
		"subtype": "noteOn",
		"time": 96840,
		"track": 5
	},
	{
		"deltaTime": 60,
		"channel": 9,
		"type": "channel",
		"noteNumber": 35,
		"velocity": 127,
		"subtype": "noteOn",
		"time": 96840,
		"track": 5
	},
	{
		"deltaTime": 0,
		"channel": 9,
		"type": "channel",
		"subtype": "noteOff",
		"noteNumber": 35,
		"velocity": 0,
		"time": 96900,
		"track": 5
	},
	{
		"deltaTime": 0,
		"channel": 9,
		"type": "channel",
		"subtype": "noteOff",
		"noteNumber": 36,
		"velocity": 0,
		"time": 96900,
		"track": 5
	},
	{
		"deltaTime": 60,
		"channel": 9,
		"type": "channel",
		"subtype": "noteOff",
		"noteNumber": 42,
		"velocity": 0,
		"time": 96900,
		"track": 5
	},
	{
		"deltaTime": 0,
		"channel": 0,
		"type": "channel",
		"subtype": "noteOff",
		"noteNumber": 42,
		"velocity": 0,
		"time": 96960,
		"track": 2
	},
	{
		"deltaTime": 0,
		"channel": 0,
		"type": "channel",
		"noteNumber": 35,
		"velocity": 127,
		"subtype": "noteOn",
		"time": 96960,
		"track": 2
	},
	{
		"deltaTime": 0,
		"channel": 2,
		"type": "channel",
		"subtype": "noteOff",
		"noteNumber": 70,
		"velocity": 0,
		"time": 96960,
		"track": 4
	},
	{
		"deltaTime": 0,
		"channel": 2,
		"type": "channel",
		"subtype": "noteOff",
		"noteNumber": 66,
		"velocity": 0,
		"time": 96960,
		"track": 4
	},
	{
		"deltaTime": 0,
		"channel": 2,
		"type": "channel",
		"subtype": "noteOff",
		"noteNumber": 61,
		"velocity": 0,
		"time": 96960,
		"track": 4
	},
	{
		"deltaTime": 0,
		"channel": 2,
		"type": "channel",
		"noteNumber": 47,
		"velocity": 127,
		"subtype": "noteOn",
		"time": 96960,
		"track": 4
	},
	{
		"deltaTime": 60,
		"channel": 9,
		"type": "channel",
		"noteNumber": 42,
		"velocity": 127,
		"subtype": "noteOn",
		"time": 96960,
		"track": 5
	},
	{
		"deltaTime": 60,
		"channel": 9,
		"type": "channel",
		"subtype": "noteOff",
		"noteNumber": 42,
		"velocity": 0,
		"time": 97020,
		"track": 5
	},
	{
		"deltaTime": 60,
		"channel": 9,
		"type": "channel",
		"noteNumber": 42,
		"velocity": 127,
		"subtype": "noteOn",
		"time": 97080,
		"track": 5
	},
	{
		"deltaTime": 60,
		"channel": 9,
		"type": "channel",
		"subtype": "noteOff",
		"noteNumber": 42,
		"velocity": 0,
		"time": 97140,
		"track": 5
	},
	{
		"deltaTime": 0,
		"channel": 9,
		"type": "channel",
		"noteNumber": 42,
		"velocity": 127,
		"subtype": "noteOn",
		"time": 97200,
		"track": 5
	},
	{
		"deltaTime": 0,
		"channel": 9,
		"type": "channel",
		"noteNumber": 36,
		"velocity": 127,
		"subtype": "noteOn",
		"time": 97200,
		"track": 5
	},
	{
		"deltaTime": 60,
		"channel": 9,
		"type": "channel",
		"noteNumber": 35,
		"velocity": 127,
		"subtype": "noteOn",
		"time": 97200,
		"track": 5
	},
	{
		"deltaTime": 0,
		"channel": 9,
		"type": "channel",
		"subtype": "noteOff",
		"noteNumber": 35,
		"velocity": 0,
		"time": 97260,
		"track": 5
	},
	{
		"deltaTime": 0,
		"channel": 9,
		"type": "channel",
		"subtype": "noteOff",
		"noteNumber": 36,
		"velocity": 0,
		"time": 97260,
		"track": 5
	},
	{
		"deltaTime": 60,
		"channel": 9,
		"type": "channel",
		"subtype": "noteOff",
		"noteNumber": 42,
		"velocity": 0,
		"time": 97260,
		"track": 5
	},
	{
		"deltaTime": 0,
		"channel": 2,
		"type": "channel",
		"subtype": "noteOff",
		"noteNumber": 47,
		"velocity": 0,
		"time": 97320,
		"track": 4
	},
	{
		"deltaTime": 0,
		"channel": 2,
		"type": "channel",
		"noteNumber": 61,
		"velocity": 127,
		"subtype": "noteOn",
		"time": 97320,
		"track": 4
	},
	{
		"deltaTime": 0,
		"channel": 2,
		"type": "channel",
		"noteNumber": 66,
		"velocity": 127,
		"subtype": "noteOn",
		"time": 97320,
		"track": 4
	},
	{
		"deltaTime": 0,
		"channel": 2,
		"type": "channel",
		"noteNumber": 70,
		"velocity": 127,
		"subtype": "noteOn",
		"time": 97320,
		"track": 4
	},
	{
		"deltaTime": 60,
		"channel": 9,
		"type": "channel",
		"noteNumber": 42,
		"velocity": 127,
		"subtype": "noteOn",
		"time": 97320,
		"track": 5
	},
	{
		"deltaTime": 60,
		"channel": 9,
		"type": "channel",
		"subtype": "noteOff",
		"noteNumber": 42,
		"velocity": 0,
		"time": 97380,
		"track": 5
	},
	{
		"deltaTime": 0,
		"channel": 0,
		"type": "channel",
		"subtype": "noteOff",
		"noteNumber": 35,
		"velocity": 0,
		"time": 97440,
		"track": 2
	},
	{
		"deltaTime": 0,
		"channel": 0,
		"type": "channel",
		"noteNumber": 34,
		"velocity": 127,
		"subtype": "noteOn",
		"time": 97440,
		"track": 2
	},
	{
		"deltaTime": 0,
		"channel": 9,
		"type": "channel",
		"noteNumber": 42,
		"velocity": 127,
		"subtype": "noteOn",
		"time": 97440,
		"track": 5
	},
	{
		"deltaTime": 0,
		"channel": 9,
		"type": "channel",
		"noteNumber": 40,
		"velocity": 127,
		"subtype": "noteOn",
		"time": 97440,
		"track": 5
	},
	{
		"deltaTime": 60,
		"channel": 9,
		"type": "channel",
		"noteNumber": 38,
		"velocity": 127,
		"subtype": "noteOn",
		"time": 97440,
		"track": 5
	},
	{
		"deltaTime": 0,
		"channel": 9,
		"type": "channel",
		"subtype": "noteOff",
		"noteNumber": 38,
		"velocity": 0,
		"time": 97500,
		"track": 5
	},
	{
		"deltaTime": 0,
		"channel": 9,
		"type": "channel",
		"subtype": "noteOff",
		"noteNumber": 40,
		"velocity": 0,
		"time": 97500,
		"track": 5
	},
	{
		"deltaTime": 60,
		"channel": 9,
		"type": "channel",
		"subtype": "noteOff",
		"noteNumber": 42,
		"velocity": 0,
		"time": 97500,
		"track": 5
	},
	{
		"deltaTime": 0,
		"channel": 2,
		"type": "channel",
		"subtype": "noteOff",
		"noteNumber": 70,
		"velocity": 0,
		"time": 97560,
		"track": 4
	},
	{
		"deltaTime": 0,
		"channel": 2,
		"type": "channel",
		"subtype": "noteOff",
		"noteNumber": 66,
		"velocity": 0,
		"time": 97560,
		"track": 4
	},
	{
		"deltaTime": 0,
		"channel": 2,
		"type": "channel",
		"subtype": "noteOff",
		"noteNumber": 61,
		"velocity": 0,
		"time": 97560,
		"track": 4
	},
	{
		"deltaTime": 0,
		"channel": 2,
		"type": "channel",
		"noteNumber": 61,
		"velocity": 127,
		"subtype": "noteOn",
		"time": 97560,
		"track": 4
	},
	{
		"deltaTime": 0,
		"channel": 2,
		"type": "channel",
		"noteNumber": 66,
		"velocity": 127,
		"subtype": "noteOn",
		"time": 97560,
		"track": 4
	},
	{
		"deltaTime": 0,
		"channel": 2,
		"type": "channel",
		"noteNumber": 71,
		"velocity": 127,
		"subtype": "noteOn",
		"time": 97560,
		"track": 4
	},
	{
		"deltaTime": 60,
		"channel": 9,
		"type": "channel",
		"noteNumber": 42,
		"velocity": 127,
		"subtype": "noteOn",
		"time": 97560,
		"track": 5
	},
	{
		"deltaTime": 60,
		"channel": 9,
		"type": "channel",
		"subtype": "noteOff",
		"noteNumber": 42,
		"velocity": 0,
		"time": 97620,
		"track": 5
	},
	{
		"deltaTime": 60,
		"channel": 9,
		"type": "channel",
		"noteNumber": 42,
		"velocity": 127,
		"subtype": "noteOn",
		"time": 97680,
		"track": 5
	},
	{
		"deltaTime": 60,
		"channel": 9,
		"type": "channel",
		"subtype": "noteOff",
		"noteNumber": 42,
		"velocity": 0,
		"time": 97740,
		"track": 5
	},
	{
		"deltaTime": 60,
		"channel": 9,
		"type": "channel",
		"noteNumber": 42,
		"velocity": 127,
		"subtype": "noteOn",
		"time": 97800,
		"track": 5
	},
	{
		"deltaTime": 60,
		"channel": 9,
		"type": "channel",
		"subtype": "noteOff",
		"noteNumber": 42,
		"velocity": 0,
		"time": 97860,
		"track": 5
	},
	{
		"deltaTime": 0,
		"channel": 0,
		"type": "channel",
		"subtype": "noteOff",
		"noteNumber": 34,
		"velocity": 0,
		"time": 97920,
		"track": 2
	},
	{
		"deltaTime": 0,
		"channel": 0,
		"type": "channel",
		"noteNumber": 32,
		"velocity": 127,
		"subtype": "noteOn",
		"time": 97920,
		"track": 2
	},
	{
		"deltaTime": 0,
		"channel": 2,
		"type": "channel",
		"subtype": "noteOff",
		"noteNumber": 71,
		"velocity": 0,
		"time": 97920,
		"track": 4
	},
	{
		"deltaTime": 0,
		"channel": 2,
		"type": "channel",
		"subtype": "noteOff",
		"noteNumber": 66,
		"velocity": 0,
		"time": 97920,
		"track": 4
	},
	{
		"deltaTime": 0,
		"channel": 2,
		"type": "channel",
		"subtype": "noteOff",
		"noteNumber": 61,
		"velocity": 0,
		"time": 97920,
		"track": 4
	},
	{
		"deltaTime": 0,
		"channel": 2,
		"type": "channel",
		"noteNumber": 44,
		"velocity": 127,
		"subtype": "noteOn",
		"time": 97920,
		"track": 4
	},
	{
		"deltaTime": 0,
		"channel": 9,
		"type": "channel",
		"noteNumber": 42,
		"velocity": 127,
		"subtype": "noteOn",
		"time": 97920,
		"track": 5
	},
	{
		"deltaTime": 0,
		"channel": 9,
		"type": "channel",
		"noteNumber": 35,
		"velocity": 127,
		"subtype": "noteOn",
		"time": 97920,
		"track": 5
	},
	{
		"deltaTime": 60,
		"channel": 9,
		"type": "channel",
		"noteNumber": 36,
		"velocity": 127,
		"subtype": "noteOn",
		"time": 97920,
		"track": 5
	},
	{
		"deltaTime": 0,
		"channel": 9,
		"type": "channel",
		"subtype": "noteOff",
		"noteNumber": 36,
		"velocity": 0,
		"time": 97980,
		"track": 5
	},
	{
		"deltaTime": 0,
		"channel": 9,
		"type": "channel",
		"subtype": "noteOff",
		"noteNumber": 35,
		"velocity": 0,
		"time": 97980,
		"track": 5
	},
	{
		"deltaTime": 60,
		"channel": 9,
		"type": "channel",
		"subtype": "noteOff",
		"noteNumber": 42,
		"velocity": 0,
		"time": 97980,
		"track": 5
	},
	{
		"deltaTime": 60,
		"channel": 9,
		"type": "channel",
		"noteNumber": 42,
		"velocity": 127,
		"subtype": "noteOn",
		"time": 98040,
		"track": 5
	},
	{
		"deltaTime": 60,
		"channel": 9,
		"type": "channel",
		"subtype": "noteOff",
		"noteNumber": 42,
		"velocity": 0,
		"time": 98100,
		"track": 5
	},
	{
		"deltaTime": 0,
		"channel": 9,
		"type": "channel",
		"noteNumber": 42,
		"velocity": 127,
		"subtype": "noteOn",
		"time": 98160,
		"track": 5
	},
	{
		"deltaTime": 0,
		"channel": 9,
		"type": "channel",
		"noteNumber": 36,
		"velocity": 127,
		"subtype": "noteOn",
		"time": 98160,
		"track": 5
	},
	{
		"deltaTime": 60,
		"channel": 9,
		"type": "channel",
		"noteNumber": 35,
		"velocity": 127,
		"subtype": "noteOn",
		"time": 98160,
		"track": 5
	},
	{
		"deltaTime": 0,
		"channel": 9,
		"type": "channel",
		"subtype": "noteOff",
		"noteNumber": 35,
		"velocity": 0,
		"time": 98220,
		"track": 5
	},
	{
		"deltaTime": 0,
		"channel": 9,
		"type": "channel",
		"subtype": "noteOff",
		"noteNumber": 36,
		"velocity": 0,
		"time": 98220,
		"track": 5
	},
	{
		"deltaTime": 60,
		"channel": 9,
		"type": "channel",
		"subtype": "noteOff",
		"noteNumber": 42,
		"velocity": 0,
		"time": 98220,
		"track": 5
	},
	{
		"deltaTime": 0,
		"channel": 2,
		"type": "channel",
		"subtype": "noteOff",
		"noteNumber": 44,
		"velocity": 0,
		"time": 98280,
		"track": 4
	},
	{
		"deltaTime": 0,
		"channel": 2,
		"type": "channel",
		"noteNumber": 59,
		"velocity": 127,
		"subtype": "noteOn",
		"time": 98280,
		"track": 4
	},
	{
		"deltaTime": 0,
		"channel": 2,
		"type": "channel",
		"noteNumber": 63,
		"velocity": 127,
		"subtype": "noteOn",
		"time": 98280,
		"track": 4
	},
	{
		"deltaTime": 0,
		"channel": 2,
		"type": "channel",
		"noteNumber": 68,
		"velocity": 127,
		"subtype": "noteOn",
		"time": 98280,
		"track": 4
	},
	{
		"deltaTime": 60,
		"channel": 9,
		"type": "channel",
		"noteNumber": 42,
		"velocity": 127,
		"subtype": "noteOn",
		"time": 98280,
		"track": 5
	},
	{
		"deltaTime": 60,
		"channel": 9,
		"type": "channel",
		"subtype": "noteOff",
		"noteNumber": 42,
		"velocity": 0,
		"time": 98340,
		"track": 5
	},
	{
		"deltaTime": 0,
		"channel": 9,
		"type": "channel",
		"noteNumber": 42,
		"velocity": 127,
		"subtype": "noteOn",
		"time": 98400,
		"track": 5
	},
	{
		"deltaTime": 0,
		"channel": 9,
		"type": "channel",
		"noteNumber": 38,
		"velocity": 127,
		"subtype": "noteOn",
		"time": 98400,
		"track": 5
	},
	{
		"deltaTime": 60,
		"channel": 9,
		"type": "channel",
		"noteNumber": 40,
		"velocity": 127,
		"subtype": "noteOn",
		"time": 98400,
		"track": 5
	},
	{
		"deltaTime": 0,
		"channel": 9,
		"type": "channel",
		"subtype": "noteOff",
		"noteNumber": 40,
		"velocity": 0,
		"time": 98460,
		"track": 5
	},
	{
		"deltaTime": 0,
		"channel": 9,
		"type": "channel",
		"subtype": "noteOff",
		"noteNumber": 38,
		"velocity": 0,
		"time": 98460,
		"track": 5
	},
	{
		"deltaTime": 60,
		"channel": 9,
		"type": "channel",
		"subtype": "noteOff",
		"noteNumber": 42,
		"velocity": 0,
		"time": 98460,
		"track": 5
	},
	{
		"deltaTime": 0,
		"channel": 2,
		"type": "channel",
		"subtype": "noteOff",
		"noteNumber": 68,
		"velocity": 0,
		"time": 98520,
		"track": 4
	},
	{
		"deltaTime": 0,
		"channel": 2,
		"type": "channel",
		"subtype": "noteOff",
		"noteNumber": 63,
		"velocity": 0,
		"time": 98520,
		"track": 4
	},
	{
		"deltaTime": 0,
		"channel": 2,
		"type": "channel",
		"subtype": "noteOff",
		"noteNumber": 59,
		"velocity": 0,
		"time": 98520,
		"track": 4
	},
	{
		"deltaTime": 0,
		"channel": 2,
		"type": "channel",
		"noteNumber": 59,
		"velocity": 127,
		"subtype": "noteOn",
		"time": 98520,
		"track": 4
	},
	{
		"deltaTime": 0,
		"channel": 2,
		"type": "channel",
		"noteNumber": 63,
		"velocity": 127,
		"subtype": "noteOn",
		"time": 98520,
		"track": 4
	},
	{
		"deltaTime": 0,
		"channel": 2,
		"type": "channel",
		"noteNumber": 68,
		"velocity": 127,
		"subtype": "noteOn",
		"time": 98520,
		"track": 4
	},
	{
		"deltaTime": 60,
		"channel": 9,
		"type": "channel",
		"noteNumber": 42,
		"velocity": 127,
		"subtype": "noteOn",
		"time": 98520,
		"track": 5
	},
	{
		"deltaTime": 60,
		"channel": 9,
		"type": "channel",
		"subtype": "noteOff",
		"noteNumber": 42,
		"velocity": 0,
		"time": 98580,
		"track": 5
	},
	{
		"deltaTime": 60,
		"channel": 9,
		"type": "channel",
		"noteNumber": 42,
		"velocity": 127,
		"subtype": "noteOn",
		"time": 98640,
		"track": 5
	},
	{
		"deltaTime": 60,
		"channel": 9,
		"type": "channel",
		"subtype": "noteOff",
		"noteNumber": 42,
		"velocity": 0,
		"time": 98700,
		"track": 5
	},
	{
		"deltaTime": 0,
		"channel": 9,
		"type": "channel",
		"noteNumber": 42,
		"velocity": 127,
		"subtype": "noteOn",
		"time": 98760,
		"track": 5
	},
	{
		"deltaTime": 0,
		"channel": 9,
		"type": "channel",
		"noteNumber": 36,
		"velocity": 127,
		"subtype": "noteOn",
		"time": 98760,
		"track": 5
	},
	{
		"deltaTime": 60,
		"channel": 9,
		"type": "channel",
		"noteNumber": 35,
		"velocity": 127,
		"subtype": "noteOn",
		"time": 98760,
		"track": 5
	},
	{
		"deltaTime": 0,
		"channel": 9,
		"type": "channel",
		"subtype": "noteOff",
		"noteNumber": 35,
		"velocity": 0,
		"time": 98820,
		"track": 5
	},
	{
		"deltaTime": 0,
		"channel": 9,
		"type": "channel",
		"subtype": "noteOff",
		"noteNumber": 36,
		"velocity": 0,
		"time": 98820,
		"track": 5
	},
	{
		"deltaTime": 60,
		"channel": 9,
		"type": "channel",
		"subtype": "noteOff",
		"noteNumber": 42,
		"velocity": 0,
		"time": 98820,
		"track": 5
	},
	{
		"deltaTime": 0,
		"channel": 0,
		"type": "channel",
		"subtype": "noteOff",
		"noteNumber": 32,
		"velocity": 0,
		"time": 98880,
		"track": 2
	},
	{
		"deltaTime": 0,
		"channel": 0,
		"type": "channel",
		"noteNumber": 40,
		"velocity": 127,
		"subtype": "noteOn",
		"time": 98880,
		"track": 2
	},
	{
		"deltaTime": 0,
		"channel": 2,
		"type": "channel",
		"subtype": "noteOff",
		"noteNumber": 68,
		"velocity": 0,
		"time": 98880,
		"track": 4
	},
	{
		"deltaTime": 0,
		"channel": 2,
		"type": "channel",
		"subtype": "noteOff",
		"noteNumber": 63,
		"velocity": 0,
		"time": 98880,
		"track": 4
	},
	{
		"deltaTime": 0,
		"channel": 2,
		"type": "channel",
		"subtype": "noteOff",
		"noteNumber": 59,
		"velocity": 0,
		"time": 98880,
		"track": 4
	},
	{
		"deltaTime": 0,
		"channel": 2,
		"type": "channel",
		"noteNumber": 40,
		"velocity": 127,
		"subtype": "noteOn",
		"time": 98880,
		"track": 4
	},
	{
		"deltaTime": 60,
		"channel": 9,
		"type": "channel",
		"noteNumber": 42,
		"velocity": 127,
		"subtype": "noteOn",
		"time": 98880,
		"track": 5
	},
	{
		"deltaTime": 60,
		"channel": 9,
		"type": "channel",
		"subtype": "noteOff",
		"noteNumber": 42,
		"velocity": 0,
		"time": 98940,
		"track": 5
	},
	{
		"deltaTime": 60,
		"channel": 9,
		"type": "channel",
		"noteNumber": 42,
		"velocity": 127,
		"subtype": "noteOn",
		"time": 99000,
		"track": 5
	},
	{
		"deltaTime": 60,
		"channel": 9,
		"type": "channel",
		"subtype": "noteOff",
		"noteNumber": 42,
		"velocity": 0,
		"time": 99060,
		"track": 5
	},
	{
		"deltaTime": 0,
		"channel": 9,
		"type": "channel",
		"noteNumber": 42,
		"velocity": 127,
		"subtype": "noteOn",
		"time": 99120,
		"track": 5
	},
	{
		"deltaTime": 0,
		"channel": 9,
		"type": "channel",
		"noteNumber": 36,
		"velocity": 127,
		"subtype": "noteOn",
		"time": 99120,
		"track": 5
	},
	{
		"deltaTime": 60,
		"channel": 9,
		"type": "channel",
		"noteNumber": 35,
		"velocity": 127,
		"subtype": "noteOn",
		"time": 99120,
		"track": 5
	},
	{
		"deltaTime": 0,
		"channel": 9,
		"type": "channel",
		"subtype": "noteOff",
		"noteNumber": 35,
		"velocity": 0,
		"time": 99180,
		"track": 5
	},
	{
		"deltaTime": 0,
		"channel": 9,
		"type": "channel",
		"subtype": "noteOff",
		"noteNumber": 36,
		"velocity": 0,
		"time": 99180,
		"track": 5
	},
	{
		"deltaTime": 60,
		"channel": 9,
		"type": "channel",
		"subtype": "noteOff",
		"noteNumber": 42,
		"velocity": 0,
		"time": 99180,
		"track": 5
	},
	{
		"deltaTime": 0,
		"channel": 2,
		"type": "channel",
		"subtype": "noteOff",
		"noteNumber": 40,
		"velocity": 0,
		"time": 99240,
		"track": 4
	},
	{
		"deltaTime": 0,
		"channel": 2,
		"type": "channel",
		"noteNumber": 59,
		"velocity": 127,
		"subtype": "noteOn",
		"time": 99240,
		"track": 4
	},
	{
		"deltaTime": 0,
		"channel": 2,
		"type": "channel",
		"noteNumber": 63,
		"velocity": 127,
		"subtype": "noteOn",
		"time": 99240,
		"track": 4
	},
	{
		"deltaTime": 0,
		"channel": 2,
		"type": "channel",
		"noteNumber": 68,
		"velocity": 127,
		"subtype": "noteOn",
		"time": 99240,
		"track": 4
	},
	{
		"deltaTime": 60,
		"channel": 9,
		"type": "channel",
		"noteNumber": 42,
		"velocity": 127,
		"subtype": "noteOn",
		"time": 99240,
		"track": 5
	},
	{
		"deltaTime": 60,
		"channel": 9,
		"type": "channel",
		"subtype": "noteOff",
		"noteNumber": 42,
		"velocity": 0,
		"time": 99300,
		"track": 5
	},
	{
		"deltaTime": 0,
		"channel": 9,
		"type": "channel",
		"noteNumber": 42,
		"velocity": 127,
		"subtype": "noteOn",
		"time": 99360,
		"track": 5
	},
	{
		"deltaTime": 0,
		"channel": 9,
		"type": "channel",
		"noteNumber": 40,
		"velocity": 127,
		"subtype": "noteOn",
		"time": 99360,
		"track": 5
	},
	{
		"deltaTime": 60,
		"channel": 9,
		"type": "channel",
		"noteNumber": 38,
		"velocity": 127,
		"subtype": "noteOn",
		"time": 99360,
		"track": 5
	},
	{
		"deltaTime": 0,
		"channel": 9,
		"type": "channel",
		"subtype": "noteOff",
		"noteNumber": 38,
		"velocity": 0,
		"time": 99420,
		"track": 5
	},
	{
		"deltaTime": 0,
		"channel": 9,
		"type": "channel",
		"subtype": "noteOff",
		"noteNumber": 40,
		"velocity": 0,
		"time": 99420,
		"track": 5
	},
	{
		"deltaTime": 60,
		"channel": 9,
		"type": "channel",
		"subtype": "noteOff",
		"noteNumber": 42,
		"velocity": 0,
		"time": 99420,
		"track": 5
	},
	{
		"deltaTime": 0,
		"channel": 2,
		"type": "channel",
		"subtype": "noteOff",
		"noteNumber": 68,
		"velocity": 0,
		"time": 99480,
		"track": 4
	},
	{
		"deltaTime": 0,
		"channel": 2,
		"type": "channel",
		"subtype": "noteOff",
		"noteNumber": 63,
		"velocity": 0,
		"time": 99480,
		"track": 4
	},
	{
		"deltaTime": 0,
		"channel": 2,
		"type": "channel",
		"subtype": "noteOff",
		"noteNumber": 59,
		"velocity": 0,
		"time": 99480,
		"track": 4
	},
	{
		"deltaTime": 0,
		"channel": 2,
		"type": "channel",
		"noteNumber": 59,
		"velocity": 127,
		"subtype": "noteOn",
		"time": 99480,
		"track": 4
	},
	{
		"deltaTime": 0,
		"channel": 2,
		"type": "channel",
		"noteNumber": 63,
		"velocity": 127,
		"subtype": "noteOn",
		"time": 99480,
		"track": 4
	},
	{
		"deltaTime": 0,
		"channel": 2,
		"type": "channel",
		"noteNumber": 68,
		"velocity": 127,
		"subtype": "noteOn",
		"time": 99480,
		"track": 4
	},
	{
		"deltaTime": 60,
		"channel": 9,
		"type": "channel",
		"noteNumber": 42,
		"velocity": 127,
		"subtype": "noteOn",
		"time": 99480,
		"track": 5
	},
	{
		"deltaTime": 60,
		"channel": 9,
		"type": "channel",
		"subtype": "noteOff",
		"noteNumber": 42,
		"velocity": 0,
		"time": 99540,
		"track": 5
	},
	{
		"deltaTime": 60,
		"channel": 9,
		"type": "channel",
		"noteNumber": 42,
		"velocity": 127,
		"subtype": "noteOn",
		"time": 99600,
		"track": 5
	},
	{
		"deltaTime": 60,
		"channel": 9,
		"type": "channel",
		"subtype": "noteOff",
		"noteNumber": 42,
		"velocity": 0,
		"time": 99660,
		"track": 5
	},
	{
		"deltaTime": 60,
		"channel": 9,
		"type": "channel",
		"noteNumber": 42,
		"velocity": 127,
		"subtype": "noteOn",
		"time": 99720,
		"track": 5
	},
	{
		"deltaTime": 60,
		"channel": 9,
		"type": "channel",
		"subtype": "noteOff",
		"noteNumber": 42,
		"velocity": 0,
		"time": 99780,
		"track": 5
	},
	{
		"deltaTime": 0,
		"channel": 0,
		"type": "channel",
		"subtype": "noteOff",
		"noteNumber": 40,
		"velocity": 0,
		"time": 99840,
		"track": 2
	},
	{
		"deltaTime": 0,
		"channel": 0,
		"type": "channel",
		"noteNumber": 42,
		"velocity": 127,
		"subtype": "noteOn",
		"time": 99840,
		"track": 2
	},
	{
		"deltaTime": 0,
		"channel": 2,
		"type": "channel",
		"subtype": "noteOff",
		"noteNumber": 68,
		"velocity": 0,
		"time": 99840,
		"track": 4
	},
	{
		"deltaTime": 0,
		"channel": 2,
		"type": "channel",
		"subtype": "noteOff",
		"noteNumber": 63,
		"velocity": 0,
		"time": 99840,
		"track": 4
	},
	{
		"deltaTime": 0,
		"channel": 2,
		"type": "channel",
		"subtype": "noteOff",
		"noteNumber": 59,
		"velocity": 0,
		"time": 99840,
		"track": 4
	},
	{
		"deltaTime": 0,
		"channel": 2,
		"type": "channel",
		"noteNumber": 42,
		"velocity": 127,
		"subtype": "noteOn",
		"time": 99840,
		"track": 4
	},
	{
		"deltaTime": 0,
		"channel": 9,
		"type": "channel",
		"noteNumber": 42,
		"velocity": 127,
		"subtype": "noteOn",
		"time": 99840,
		"track": 5
	},
	{
		"deltaTime": 0,
		"channel": 9,
		"type": "channel",
		"noteNumber": 35,
		"velocity": 127,
		"subtype": "noteOn",
		"time": 99840,
		"track": 5
	},
	{
		"deltaTime": 60,
		"channel": 9,
		"type": "channel",
		"noteNumber": 36,
		"velocity": 127,
		"subtype": "noteOn",
		"time": 99840,
		"track": 5
	},
	{
		"deltaTime": 0,
		"channel": 9,
		"type": "channel",
		"subtype": "noteOff",
		"noteNumber": 36,
		"velocity": 0,
		"time": 99900,
		"track": 5
	},
	{
		"deltaTime": 0,
		"channel": 9,
		"type": "channel",
		"subtype": "noteOff",
		"noteNumber": 35,
		"velocity": 0,
		"time": 99900,
		"track": 5
	},
	{
		"deltaTime": 60,
		"channel": 9,
		"type": "channel",
		"subtype": "noteOff",
		"noteNumber": 42,
		"velocity": 0,
		"time": 99900,
		"track": 5
	},
	{
		"deltaTime": 60,
		"channel": 9,
		"type": "channel",
		"noteNumber": 42,
		"velocity": 127,
		"subtype": "noteOn",
		"time": 99960,
		"track": 5
	},
	{
		"deltaTime": 60,
		"channel": 9,
		"type": "channel",
		"subtype": "noteOff",
		"noteNumber": 42,
		"velocity": 0,
		"time": 100020,
		"track": 5
	},
	{
		"deltaTime": 0,
		"channel": 9,
		"type": "channel",
		"noteNumber": 42,
		"velocity": 127,
		"subtype": "noteOn",
		"time": 100080,
		"track": 5
	},
	{
		"deltaTime": 0,
		"channel": 9,
		"type": "channel",
		"noteNumber": 36,
		"velocity": 127,
		"subtype": "noteOn",
		"time": 100080,
		"track": 5
	},
	{
		"deltaTime": 60,
		"channel": 9,
		"type": "channel",
		"noteNumber": 35,
		"velocity": 127,
		"subtype": "noteOn",
		"time": 100080,
		"track": 5
	},
	{
		"deltaTime": 0,
		"channel": 9,
		"type": "channel",
		"subtype": "noteOff",
		"noteNumber": 35,
		"velocity": 0,
		"time": 100140,
		"track": 5
	},
	{
		"deltaTime": 0,
		"channel": 9,
		"type": "channel",
		"subtype": "noteOff",
		"noteNumber": 36,
		"velocity": 0,
		"time": 100140,
		"track": 5
	},
	{
		"deltaTime": 60,
		"channel": 9,
		"type": "channel",
		"subtype": "noteOff",
		"noteNumber": 42,
		"velocity": 0,
		"time": 100140,
		"track": 5
	},
	{
		"deltaTime": 0,
		"channel": 2,
		"type": "channel",
		"subtype": "noteOff",
		"noteNumber": 42,
		"velocity": 0,
		"time": 100200,
		"track": 4
	},
	{
		"deltaTime": 0,
		"channel": 2,
		"type": "channel",
		"noteNumber": 61,
		"velocity": 127,
		"subtype": "noteOn",
		"time": 100200,
		"track": 4
	},
	{
		"deltaTime": 0,
		"channel": 2,
		"type": "channel",
		"noteNumber": 66,
		"velocity": 127,
		"subtype": "noteOn",
		"time": 100200,
		"track": 4
	},
	{
		"deltaTime": 0,
		"channel": 2,
		"type": "channel",
		"noteNumber": 70,
		"velocity": 127,
		"subtype": "noteOn",
		"time": 100200,
		"track": 4
	},
	{
		"deltaTime": 60,
		"channel": 9,
		"type": "channel",
		"noteNumber": 42,
		"velocity": 127,
		"subtype": "noteOn",
		"time": 100200,
		"track": 5
	},
	{
		"deltaTime": 60,
		"channel": 9,
		"type": "channel",
		"subtype": "noteOff",
		"noteNumber": 42,
		"velocity": 0,
		"time": 100260,
		"track": 5
	},
	{
		"deltaTime": 0,
		"channel": 9,
		"type": "channel",
		"noteNumber": 42,
		"velocity": 127,
		"subtype": "noteOn",
		"time": 100320,
		"track": 5
	},
	{
		"deltaTime": 0,
		"channel": 9,
		"type": "channel",
		"noteNumber": 38,
		"velocity": 127,
		"subtype": "noteOn",
		"time": 100320,
		"track": 5
	},
	{
		"deltaTime": 60,
		"channel": 9,
		"type": "channel",
		"noteNumber": 40,
		"velocity": 127,
		"subtype": "noteOn",
		"time": 100320,
		"track": 5
	},
	{
		"deltaTime": 0,
		"channel": 9,
		"type": "channel",
		"subtype": "noteOff",
		"noteNumber": 40,
		"velocity": 0,
		"time": 100380,
		"track": 5
	},
	{
		"deltaTime": 0,
		"channel": 9,
		"type": "channel",
		"subtype": "noteOff",
		"noteNumber": 38,
		"velocity": 0,
		"time": 100380,
		"track": 5
	},
	{
		"deltaTime": 60,
		"channel": 9,
		"type": "channel",
		"subtype": "noteOff",
		"noteNumber": 42,
		"velocity": 0,
		"time": 100380,
		"track": 5
	},
	{
		"deltaTime": 0,
		"channel": 2,
		"type": "channel",
		"subtype": "noteOff",
		"noteNumber": 70,
		"velocity": 0,
		"time": 100440,
		"track": 4
	},
	{
		"deltaTime": 0,
		"channel": 2,
		"type": "channel",
		"subtype": "noteOff",
		"noteNumber": 66,
		"velocity": 0,
		"time": 100440,
		"track": 4
	},
	{
		"deltaTime": 0,
		"channel": 2,
		"type": "channel",
		"subtype": "noteOff",
		"noteNumber": 61,
		"velocity": 0,
		"time": 100440,
		"track": 4
	},
	{
		"deltaTime": 0,
		"channel": 2,
		"type": "channel",
		"noteNumber": 61,
		"velocity": 127,
		"subtype": "noteOn",
		"time": 100440,
		"track": 4
	},
	{
		"deltaTime": 0,
		"channel": 2,
		"type": "channel",
		"noteNumber": 66,
		"velocity": 127,
		"subtype": "noteOn",
		"time": 100440,
		"track": 4
	},
	{
		"deltaTime": 0,
		"channel": 2,
		"type": "channel",
		"noteNumber": 70,
		"velocity": 127,
		"subtype": "noteOn",
		"time": 100440,
		"track": 4
	},
	{
		"deltaTime": 60,
		"channel": 9,
		"type": "channel",
		"noteNumber": 42,
		"velocity": 127,
		"subtype": "noteOn",
		"time": 100440,
		"track": 5
	},
	{
		"deltaTime": 60,
		"channel": 9,
		"type": "channel",
		"subtype": "noteOff",
		"noteNumber": 42,
		"velocity": 0,
		"time": 100500,
		"track": 5
	},
	{
		"deltaTime": 60,
		"channel": 9,
		"type": "channel",
		"noteNumber": 42,
		"velocity": 127,
		"subtype": "noteOn",
		"time": 100560,
		"track": 5
	},
	{
		"deltaTime": 60,
		"channel": 9,
		"type": "channel",
		"subtype": "noteOff",
		"noteNumber": 42,
		"velocity": 0,
		"time": 100620,
		"track": 5
	},
	{
		"deltaTime": 0,
		"channel": 9,
		"type": "channel",
		"noteNumber": 42,
		"velocity": 127,
		"subtype": "noteOn",
		"time": 100680,
		"track": 5
	},
	{
		"deltaTime": 0,
		"channel": 9,
		"type": "channel",
		"noteNumber": 36,
		"velocity": 127,
		"subtype": "noteOn",
		"time": 100680,
		"track": 5
	},
	{
		"deltaTime": 60,
		"channel": 9,
		"type": "channel",
		"noteNumber": 35,
		"velocity": 127,
		"subtype": "noteOn",
		"time": 100680,
		"track": 5
	},
	{
		"deltaTime": 0,
		"channel": 9,
		"type": "channel",
		"subtype": "noteOff",
		"noteNumber": 35,
		"velocity": 0,
		"time": 100740,
		"track": 5
	},
	{
		"deltaTime": 0,
		"channel": 9,
		"type": "channel",
		"subtype": "noteOff",
		"noteNumber": 36,
		"velocity": 0,
		"time": 100740,
		"track": 5
	},
	{
		"deltaTime": 60,
		"channel": 9,
		"type": "channel",
		"subtype": "noteOff",
		"noteNumber": 42,
		"velocity": 0,
		"time": 100740,
		"track": 5
	},
	{
		"deltaTime": 0,
		"channel": 0,
		"type": "channel",
		"subtype": "noteOff",
		"noteNumber": 42,
		"velocity": 0,
		"time": 100800,
		"track": 2
	},
	{
		"deltaTime": 0,
		"channel": 0,
		"type": "channel",
		"noteNumber": 35,
		"velocity": 127,
		"subtype": "noteOn",
		"time": 100800,
		"track": 2
	},
	{
		"deltaTime": 0,
		"channel": 2,
		"type": "channel",
		"subtype": "noteOff",
		"noteNumber": 70,
		"velocity": 0,
		"time": 100800,
		"track": 4
	},
	{
		"deltaTime": 0,
		"channel": 2,
		"type": "channel",
		"subtype": "noteOff",
		"noteNumber": 66,
		"velocity": 0,
		"time": 100800,
		"track": 4
	},
	{
		"deltaTime": 0,
		"channel": 2,
		"type": "channel",
		"subtype": "noteOff",
		"noteNumber": 61,
		"velocity": 0,
		"time": 100800,
		"track": 4
	},
	{
		"deltaTime": 0,
		"channel": 2,
		"type": "channel",
		"noteNumber": 47,
		"velocity": 127,
		"subtype": "noteOn",
		"time": 100800,
		"track": 4
	},
	{
		"deltaTime": 60,
		"channel": 9,
		"type": "channel",
		"noteNumber": 42,
		"velocity": 127,
		"subtype": "noteOn",
		"time": 100800,
		"track": 5
	},
	{
		"deltaTime": 60,
		"channel": 9,
		"type": "channel",
		"subtype": "noteOff",
		"noteNumber": 42,
		"velocity": 0,
		"time": 100860,
		"track": 5
	},
	{
		"deltaTime": 60,
		"channel": 9,
		"type": "channel",
		"noteNumber": 42,
		"velocity": 127,
		"subtype": "noteOn",
		"time": 100920,
		"track": 5
	},
	{
		"deltaTime": 60,
		"channel": 9,
		"type": "channel",
		"subtype": "noteOff",
		"noteNumber": 42,
		"velocity": 0,
		"time": 100980,
		"track": 5
	},
	{
		"deltaTime": 0,
		"channel": 9,
		"type": "channel",
		"noteNumber": 42,
		"velocity": 127,
		"subtype": "noteOn",
		"time": 101040,
		"track": 5
	},
	{
		"deltaTime": 0,
		"channel": 9,
		"type": "channel",
		"noteNumber": 36,
		"velocity": 127,
		"subtype": "noteOn",
		"time": 101040,
		"track": 5
	},
	{
		"deltaTime": 60,
		"channel": 9,
		"type": "channel",
		"noteNumber": 35,
		"velocity": 127,
		"subtype": "noteOn",
		"time": 101040,
		"track": 5
	},
	{
		"deltaTime": 0,
		"channel": 9,
		"type": "channel",
		"subtype": "noteOff",
		"noteNumber": 35,
		"velocity": 0,
		"time": 101100,
		"track": 5
	},
	{
		"deltaTime": 0,
		"channel": 9,
		"type": "channel",
		"subtype": "noteOff",
		"noteNumber": 36,
		"velocity": 0,
		"time": 101100,
		"track": 5
	},
	{
		"deltaTime": 60,
		"channel": 9,
		"type": "channel",
		"subtype": "noteOff",
		"noteNumber": 42,
		"velocity": 0,
		"time": 101100,
		"track": 5
	},
	{
		"deltaTime": 0,
		"channel": 2,
		"type": "channel",
		"subtype": "noteOff",
		"noteNumber": 47,
		"velocity": 0,
		"time": 101160,
		"track": 4
	},
	{
		"deltaTime": 0,
		"channel": 2,
		"type": "channel",
		"noteNumber": 61,
		"velocity": 127,
		"subtype": "noteOn",
		"time": 101160,
		"track": 4
	},
	{
		"deltaTime": 0,
		"channel": 2,
		"type": "channel",
		"noteNumber": 66,
		"velocity": 127,
		"subtype": "noteOn",
		"time": 101160,
		"track": 4
	},
	{
		"deltaTime": 0,
		"channel": 2,
		"type": "channel",
		"noteNumber": 70,
		"velocity": 127,
		"subtype": "noteOn",
		"time": 101160,
		"track": 4
	},
	{
		"deltaTime": 60,
		"channel": 9,
		"type": "channel",
		"noteNumber": 42,
		"velocity": 127,
		"subtype": "noteOn",
		"time": 101160,
		"track": 5
	},
	{
		"deltaTime": 60,
		"channel": 9,
		"type": "channel",
		"subtype": "noteOff",
		"noteNumber": 42,
		"velocity": 0,
		"time": 101220,
		"track": 5
	},
	{
		"deltaTime": 0,
		"channel": 0,
		"type": "channel",
		"subtype": "noteOff",
		"noteNumber": 35,
		"velocity": 0,
		"time": 101280,
		"track": 2
	},
	{
		"deltaTime": 0,
		"channel": 0,
		"type": "channel",
		"noteNumber": 34,
		"velocity": 127,
		"subtype": "noteOn",
		"time": 101280,
		"track": 2
	},
	{
		"deltaTime": 0,
		"channel": 9,
		"type": "channel",
		"noteNumber": 42,
		"velocity": 127,
		"subtype": "noteOn",
		"time": 101280,
		"track": 5
	},
	{
		"deltaTime": 0,
		"channel": 9,
		"type": "channel",
		"noteNumber": 40,
		"velocity": 127,
		"subtype": "noteOn",
		"time": 101280,
		"track": 5
	},
	{
		"deltaTime": 60,
		"channel": 9,
		"type": "channel",
		"noteNumber": 38,
		"velocity": 127,
		"subtype": "noteOn",
		"time": 101280,
		"track": 5
	},
	{
		"deltaTime": 0,
		"channel": 9,
		"type": "channel",
		"subtype": "noteOff",
		"noteNumber": 38,
		"velocity": 0,
		"time": 101340,
		"track": 5
	},
	{
		"deltaTime": 0,
		"channel": 9,
		"type": "channel",
		"subtype": "noteOff",
		"noteNumber": 40,
		"velocity": 0,
		"time": 101340,
		"track": 5
	},
	{
		"deltaTime": 60,
		"channel": 9,
		"type": "channel",
		"subtype": "noteOff",
		"noteNumber": 42,
		"velocity": 0,
		"time": 101340,
		"track": 5
	},
	{
		"deltaTime": 0,
		"channel": 2,
		"type": "channel",
		"subtype": "noteOff",
		"noteNumber": 70,
		"velocity": 0,
		"time": 101400,
		"track": 4
	},
	{
		"deltaTime": 0,
		"channel": 2,
		"type": "channel",
		"subtype": "noteOff",
		"noteNumber": 66,
		"velocity": 0,
		"time": 101400,
		"track": 4
	},
	{
		"deltaTime": 0,
		"channel": 2,
		"type": "channel",
		"subtype": "noteOff",
		"noteNumber": 61,
		"velocity": 0,
		"time": 101400,
		"track": 4
	},
	{
		"deltaTime": 0,
		"channel": 2,
		"type": "channel",
		"noteNumber": 61,
		"velocity": 127,
		"subtype": "noteOn",
		"time": 101400,
		"track": 4
	},
	{
		"deltaTime": 0,
		"channel": 2,
		"type": "channel",
		"noteNumber": 66,
		"velocity": 127,
		"subtype": "noteOn",
		"time": 101400,
		"track": 4
	},
	{
		"deltaTime": 0,
		"channel": 2,
		"type": "channel",
		"noteNumber": 71,
		"velocity": 127,
		"subtype": "noteOn",
		"time": 101400,
		"track": 4
	},
	{
		"deltaTime": 60,
		"channel": 9,
		"type": "channel",
		"noteNumber": 42,
		"velocity": 127,
		"subtype": "noteOn",
		"time": 101400,
		"track": 5
	},
	{
		"deltaTime": 60,
		"channel": 9,
		"type": "channel",
		"subtype": "noteOff",
		"noteNumber": 42,
		"velocity": 0,
		"time": 101460,
		"track": 5
	},
	{
		"deltaTime": 60,
		"channel": 9,
		"type": "channel",
		"noteNumber": 42,
		"velocity": 127,
		"subtype": "noteOn",
		"time": 101520,
		"track": 5
	},
	{
		"deltaTime": 60,
		"channel": 9,
		"type": "channel",
		"subtype": "noteOff",
		"noteNumber": 42,
		"velocity": 0,
		"time": 101580,
		"track": 5
	},
	{
		"deltaTime": 60,
		"channel": 9,
		"type": "channel",
		"noteNumber": 42,
		"velocity": 127,
		"subtype": "noteOn",
		"time": 101640,
		"track": 5
	},
	{
		"deltaTime": 60,
		"channel": 9,
		"type": "channel",
		"subtype": "noteOff",
		"noteNumber": 42,
		"velocity": 0,
		"time": 101700,
		"track": 5
	},
	{
		"deltaTime": 0,
		"channel": 0,
		"type": "channel",
		"subtype": "noteOff",
		"noteNumber": 34,
		"velocity": 0,
		"time": 101760,
		"track": 2
	},
	{
		"deltaTime": 0,
		"channel": 0,
		"type": "channel",
		"noteNumber": 32,
		"velocity": 127,
		"subtype": "noteOn",
		"time": 101760,
		"track": 2
	},
	{
		"deltaTime": 0,
		"channel": 2,
		"type": "channel",
		"subtype": "noteOff",
		"noteNumber": 71,
		"velocity": 0,
		"time": 101760,
		"track": 4
	},
	{
		"deltaTime": 0,
		"channel": 2,
		"type": "channel",
		"subtype": "noteOff",
		"noteNumber": 66,
		"velocity": 0,
		"time": 101760,
		"track": 4
	},
	{
		"deltaTime": 0,
		"channel": 2,
		"type": "channel",
		"subtype": "noteOff",
		"noteNumber": 61,
		"velocity": 0,
		"time": 101760,
		"track": 4
	},
	{
		"deltaTime": 0,
		"channel": 2,
		"type": "channel",
		"noteNumber": 44,
		"velocity": 127,
		"subtype": "noteOn",
		"time": 101760,
		"track": 4
	},
	{
		"deltaTime": 0,
		"channel": 9,
		"type": "channel",
		"noteNumber": 42,
		"velocity": 127,
		"subtype": "noteOn",
		"time": 101760,
		"track": 5
	},
	{
		"deltaTime": 0,
		"channel": 9,
		"type": "channel",
		"noteNumber": 35,
		"velocity": 127,
		"subtype": "noteOn",
		"time": 101760,
		"track": 5
	},
	{
		"deltaTime": 60,
		"channel": 9,
		"type": "channel",
		"noteNumber": 36,
		"velocity": 127,
		"subtype": "noteOn",
		"time": 101760,
		"track": 5
	},
	{
		"deltaTime": 0,
		"channel": 9,
		"type": "channel",
		"subtype": "noteOff",
		"noteNumber": 36,
		"velocity": 0,
		"time": 101820,
		"track": 5
	},
	{
		"deltaTime": 0,
		"channel": 9,
		"type": "channel",
		"subtype": "noteOff",
		"noteNumber": 35,
		"velocity": 0,
		"time": 101820,
		"track": 5
	},
	{
		"deltaTime": 60,
		"channel": 9,
		"type": "channel",
		"subtype": "noteOff",
		"noteNumber": 42,
		"velocity": 0,
		"time": 101820,
		"track": 5
	},
	{
		"deltaTime": 60,
		"channel": 9,
		"type": "channel",
		"noteNumber": 42,
		"velocity": 127,
		"subtype": "noteOn",
		"time": 101880,
		"track": 5
	},
	{
		"deltaTime": 60,
		"channel": 9,
		"type": "channel",
		"subtype": "noteOff",
		"noteNumber": 42,
		"velocity": 0,
		"time": 101940,
		"track": 5
	},
	{
		"deltaTime": 0,
		"channel": 9,
		"type": "channel",
		"noteNumber": 42,
		"velocity": 127,
		"subtype": "noteOn",
		"time": 102000,
		"track": 5
	},
	{
		"deltaTime": 0,
		"channel": 9,
		"type": "channel",
		"noteNumber": 36,
		"velocity": 127,
		"subtype": "noteOn",
		"time": 102000,
		"track": 5
	},
	{
		"deltaTime": 60,
		"channel": 9,
		"type": "channel",
		"noteNumber": 35,
		"velocity": 127,
		"subtype": "noteOn",
		"time": 102000,
		"track": 5
	},
	{
		"deltaTime": 0,
		"channel": 9,
		"type": "channel",
		"subtype": "noteOff",
		"noteNumber": 35,
		"velocity": 0,
		"time": 102060,
		"track": 5
	},
	{
		"deltaTime": 0,
		"channel": 9,
		"type": "channel",
		"subtype": "noteOff",
		"noteNumber": 36,
		"velocity": 0,
		"time": 102060,
		"track": 5
	},
	{
		"deltaTime": 60,
		"channel": 9,
		"type": "channel",
		"subtype": "noteOff",
		"noteNumber": 42,
		"velocity": 0,
		"time": 102060,
		"track": 5
	},
	{
		"deltaTime": 0,
		"channel": 2,
		"type": "channel",
		"subtype": "noteOff",
		"noteNumber": 44,
		"velocity": 0,
		"time": 102120,
		"track": 4
	},
	{
		"deltaTime": 0,
		"channel": 2,
		"type": "channel",
		"noteNumber": 59,
		"velocity": 127,
		"subtype": "noteOn",
		"time": 102120,
		"track": 4
	},
	{
		"deltaTime": 0,
		"channel": 2,
		"type": "channel",
		"noteNumber": 63,
		"velocity": 127,
		"subtype": "noteOn",
		"time": 102120,
		"track": 4
	},
	{
		"deltaTime": 0,
		"channel": 2,
		"type": "channel",
		"noteNumber": 68,
		"velocity": 127,
		"subtype": "noteOn",
		"time": 102120,
		"track": 4
	},
	{
		"deltaTime": 60,
		"channel": 9,
		"type": "channel",
		"noteNumber": 42,
		"velocity": 127,
		"subtype": "noteOn",
		"time": 102120,
		"track": 5
	},
	{
		"deltaTime": 60,
		"channel": 9,
		"type": "channel",
		"subtype": "noteOff",
		"noteNumber": 42,
		"velocity": 0,
		"time": 102180,
		"track": 5
	},
	{
		"deltaTime": 0,
		"channel": 9,
		"type": "channel",
		"noteNumber": 42,
		"velocity": 127,
		"subtype": "noteOn",
		"time": 102240,
		"track": 5
	},
	{
		"deltaTime": 0,
		"channel": 9,
		"type": "channel",
		"noteNumber": 38,
		"velocity": 127,
		"subtype": "noteOn",
		"time": 102240,
		"track": 5
	},
	{
		"deltaTime": 60,
		"channel": 9,
		"type": "channel",
		"noteNumber": 40,
		"velocity": 127,
		"subtype": "noteOn",
		"time": 102240,
		"track": 5
	},
	{
		"deltaTime": 0,
		"channel": 9,
		"type": "channel",
		"subtype": "noteOff",
		"noteNumber": 40,
		"velocity": 0,
		"time": 102300,
		"track": 5
	},
	{
		"deltaTime": 0,
		"channel": 9,
		"type": "channel",
		"subtype": "noteOff",
		"noteNumber": 38,
		"velocity": 0,
		"time": 102300,
		"track": 5
	},
	{
		"deltaTime": 60,
		"channel": 9,
		"type": "channel",
		"subtype": "noteOff",
		"noteNumber": 42,
		"velocity": 0,
		"time": 102300,
		"track": 5
	},
	{
		"deltaTime": 0,
		"channel": 2,
		"type": "channel",
		"subtype": "noteOff",
		"noteNumber": 68,
		"velocity": 0,
		"time": 102360,
		"track": 4
	},
	{
		"deltaTime": 0,
		"channel": 2,
		"type": "channel",
		"subtype": "noteOff",
		"noteNumber": 63,
		"velocity": 0,
		"time": 102360,
		"track": 4
	},
	{
		"deltaTime": 0,
		"channel": 2,
		"type": "channel",
		"subtype": "noteOff",
		"noteNumber": 59,
		"velocity": 0,
		"time": 102360,
		"track": 4
	},
	{
		"deltaTime": 0,
		"channel": 2,
		"type": "channel",
		"noteNumber": 59,
		"velocity": 127,
		"subtype": "noteOn",
		"time": 102360,
		"track": 4
	},
	{
		"deltaTime": 0,
		"channel": 2,
		"type": "channel",
		"noteNumber": 63,
		"velocity": 127,
		"subtype": "noteOn",
		"time": 102360,
		"track": 4
	},
	{
		"deltaTime": 0,
		"channel": 2,
		"type": "channel",
		"noteNumber": 68,
		"velocity": 127,
		"subtype": "noteOn",
		"time": 102360,
		"track": 4
	},
	{
		"deltaTime": 60,
		"channel": 9,
		"type": "channel",
		"noteNumber": 42,
		"velocity": 127,
		"subtype": "noteOn",
		"time": 102360,
		"track": 5
	},
	{
		"deltaTime": 60,
		"channel": 9,
		"type": "channel",
		"subtype": "noteOff",
		"noteNumber": 42,
		"velocity": 0,
		"time": 102420,
		"track": 5
	},
	{
		"deltaTime": 60,
		"channel": 9,
		"type": "channel",
		"noteNumber": 42,
		"velocity": 127,
		"subtype": "noteOn",
		"time": 102480,
		"track": 5
	},
	{
		"deltaTime": 60,
		"channel": 9,
		"type": "channel",
		"subtype": "noteOff",
		"noteNumber": 42,
		"velocity": 0,
		"time": 102540,
		"track": 5
	},
	{
		"deltaTime": 0,
		"channel": 9,
		"type": "channel",
		"noteNumber": 42,
		"velocity": 127,
		"subtype": "noteOn",
		"time": 102600,
		"track": 5
	},
	{
		"deltaTime": 0,
		"channel": 9,
		"type": "channel",
		"noteNumber": 36,
		"velocity": 127,
		"subtype": "noteOn",
		"time": 102600,
		"track": 5
	},
	{
		"deltaTime": 60,
		"channel": 9,
		"type": "channel",
		"noteNumber": 35,
		"velocity": 127,
		"subtype": "noteOn",
		"time": 102600,
		"track": 5
	},
	{
		"deltaTime": 0,
		"channel": 9,
		"type": "channel",
		"subtype": "noteOff",
		"noteNumber": 35,
		"velocity": 0,
		"time": 102660,
		"track": 5
	},
	{
		"deltaTime": 0,
		"channel": 9,
		"type": "channel",
		"subtype": "noteOff",
		"noteNumber": 36,
		"velocity": 0,
		"time": 102660,
		"track": 5
	},
	{
		"deltaTime": 60,
		"channel": 9,
		"type": "channel",
		"subtype": "noteOff",
		"noteNumber": 42,
		"velocity": 0,
		"time": 102660,
		"track": 5
	},
	{
		"deltaTime": 0,
		"channel": 0,
		"type": "channel",
		"subtype": "noteOff",
		"noteNumber": 32,
		"velocity": 0,
		"time": 102720,
		"track": 2
	},
	{
		"deltaTime": 0,
		"channel": 0,
		"type": "channel",
		"noteNumber": 40,
		"velocity": 127,
		"subtype": "noteOn",
		"time": 102720,
		"track": 2
	},
	{
		"deltaTime": 0,
		"channel": 2,
		"type": "channel",
		"subtype": "noteOff",
		"noteNumber": 68,
		"velocity": 0,
		"time": 102720,
		"track": 4
	},
	{
		"deltaTime": 0,
		"channel": 2,
		"type": "channel",
		"subtype": "noteOff",
		"noteNumber": 63,
		"velocity": 0,
		"time": 102720,
		"track": 4
	},
	{
		"deltaTime": 0,
		"channel": 2,
		"type": "channel",
		"subtype": "noteOff",
		"noteNumber": 59,
		"velocity": 0,
		"time": 102720,
		"track": 4
	},
	{
		"deltaTime": 0,
		"channel": 2,
		"type": "channel",
		"noteNumber": 40,
		"velocity": 127,
		"subtype": "noteOn",
		"time": 102720,
		"track": 4
	},
	{
		"deltaTime": 60,
		"channel": 9,
		"type": "channel",
		"noteNumber": 42,
		"velocity": 127,
		"subtype": "noteOn",
		"time": 102720,
		"track": 5
	},
	{
		"deltaTime": 60,
		"channel": 9,
		"type": "channel",
		"subtype": "noteOff",
		"noteNumber": 42,
		"velocity": 0,
		"time": 102780,
		"track": 5
	},
	{
		"deltaTime": 60,
		"channel": 9,
		"type": "channel",
		"noteNumber": 42,
		"velocity": 127,
		"subtype": "noteOn",
		"time": 102840,
		"track": 5
	},
	{
		"deltaTime": 60,
		"channel": 9,
		"type": "channel",
		"subtype": "noteOff",
		"noteNumber": 42,
		"velocity": 0,
		"time": 102900,
		"track": 5
	},
	{
		"deltaTime": 0,
		"channel": 9,
		"type": "channel",
		"noteNumber": 42,
		"velocity": 127,
		"subtype": "noteOn",
		"time": 102960,
		"track": 5
	},
	{
		"deltaTime": 0,
		"channel": 9,
		"type": "channel",
		"noteNumber": 36,
		"velocity": 127,
		"subtype": "noteOn",
		"time": 102960,
		"track": 5
	},
	{
		"deltaTime": 60,
		"channel": 9,
		"type": "channel",
		"noteNumber": 35,
		"velocity": 127,
		"subtype": "noteOn",
		"time": 102960,
		"track": 5
	},
	{
		"deltaTime": 0,
		"channel": 9,
		"type": "channel",
		"subtype": "noteOff",
		"noteNumber": 35,
		"velocity": 0,
		"time": 103020,
		"track": 5
	},
	{
		"deltaTime": 0,
		"channel": 9,
		"type": "channel",
		"subtype": "noteOff",
		"noteNumber": 36,
		"velocity": 0,
		"time": 103020,
		"track": 5
	},
	{
		"deltaTime": 60,
		"channel": 9,
		"type": "channel",
		"subtype": "noteOff",
		"noteNumber": 42,
		"velocity": 0,
		"time": 103020,
		"track": 5
	},
	{
		"deltaTime": 0,
		"channel": 2,
		"type": "channel",
		"subtype": "noteOff",
		"noteNumber": 40,
		"velocity": 0,
		"time": 103080,
		"track": 4
	},
	{
		"deltaTime": 0,
		"channel": 2,
		"type": "channel",
		"noteNumber": 59,
		"velocity": 127,
		"subtype": "noteOn",
		"time": 103080,
		"track": 4
	},
	{
		"deltaTime": 0,
		"channel": 2,
		"type": "channel",
		"noteNumber": 63,
		"velocity": 127,
		"subtype": "noteOn",
		"time": 103080,
		"track": 4
	},
	{
		"deltaTime": 0,
		"channel": 2,
		"type": "channel",
		"noteNumber": 68,
		"velocity": 127,
		"subtype": "noteOn",
		"time": 103080,
		"track": 4
	},
	{
		"deltaTime": 60,
		"channel": 9,
		"type": "channel",
		"noteNumber": 42,
		"velocity": 127,
		"subtype": "noteOn",
		"time": 103080,
		"track": 5
	},
	{
		"deltaTime": 60,
		"channel": 9,
		"type": "channel",
		"subtype": "noteOff",
		"noteNumber": 42,
		"velocity": 0,
		"time": 103140,
		"track": 5
	},
	{
		"deltaTime": 0,
		"channel": 9,
		"type": "channel",
		"noteNumber": 42,
		"velocity": 127,
		"subtype": "noteOn",
		"time": 103200,
		"track": 5
	},
	{
		"deltaTime": 0,
		"channel": 9,
		"type": "channel",
		"noteNumber": 40,
		"velocity": 127,
		"subtype": "noteOn",
		"time": 103200,
		"track": 5
	},
	{
		"deltaTime": 60,
		"channel": 9,
		"type": "channel",
		"noteNumber": 38,
		"velocity": 127,
		"subtype": "noteOn",
		"time": 103200,
		"track": 5
	},
	{
		"deltaTime": 0,
		"channel": 9,
		"type": "channel",
		"subtype": "noteOff",
		"noteNumber": 38,
		"velocity": 0,
		"time": 103260,
		"track": 5
	},
	{
		"deltaTime": 0,
		"channel": 9,
		"type": "channel",
		"subtype": "noteOff",
		"noteNumber": 40,
		"velocity": 0,
		"time": 103260,
		"track": 5
	},
	{
		"deltaTime": 60,
		"channel": 9,
		"type": "channel",
		"subtype": "noteOff",
		"noteNumber": 42,
		"velocity": 0,
		"time": 103260,
		"track": 5
	},
	{
		"deltaTime": 0,
		"channel": 2,
		"type": "channel",
		"subtype": "noteOff",
		"noteNumber": 68,
		"velocity": 0,
		"time": 103320,
		"track": 4
	},
	{
		"deltaTime": 0,
		"channel": 2,
		"type": "channel",
		"subtype": "noteOff",
		"noteNumber": 63,
		"velocity": 0,
		"time": 103320,
		"track": 4
	},
	{
		"deltaTime": 0,
		"channel": 2,
		"type": "channel",
		"subtype": "noteOff",
		"noteNumber": 59,
		"velocity": 0,
		"time": 103320,
		"track": 4
	},
	{
		"deltaTime": 0,
		"channel": 2,
		"type": "channel",
		"noteNumber": 59,
		"velocity": 127,
		"subtype": "noteOn",
		"time": 103320,
		"track": 4
	},
	{
		"deltaTime": 0,
		"channel": 2,
		"type": "channel",
		"noteNumber": 63,
		"velocity": 127,
		"subtype": "noteOn",
		"time": 103320,
		"track": 4
	},
	{
		"deltaTime": 0,
		"channel": 2,
		"type": "channel",
		"noteNumber": 68,
		"velocity": 127,
		"subtype": "noteOn",
		"time": 103320,
		"track": 4
	},
	{
		"deltaTime": 60,
		"channel": 9,
		"type": "channel",
		"noteNumber": 42,
		"velocity": 127,
		"subtype": "noteOn",
		"time": 103320,
		"track": 5
	},
	{
		"deltaTime": 60,
		"channel": 9,
		"type": "channel",
		"subtype": "noteOff",
		"noteNumber": 42,
		"velocity": 0,
		"time": 103380,
		"track": 5
	},
	{
		"deltaTime": 60,
		"channel": 9,
		"type": "channel",
		"noteNumber": 42,
		"velocity": 127,
		"subtype": "noteOn",
		"time": 103440,
		"track": 5
	},
	{
		"deltaTime": 60,
		"channel": 9,
		"type": "channel",
		"subtype": "noteOff",
		"noteNumber": 42,
		"velocity": 0,
		"time": 103500,
		"track": 5
	},
	{
		"deltaTime": 60,
		"channel": 9,
		"type": "channel",
		"noteNumber": 42,
		"velocity": 127,
		"subtype": "noteOn",
		"time": 103560,
		"track": 5
	},
	{
		"deltaTime": 60,
		"channel": 9,
		"type": "channel",
		"subtype": "noteOff",
		"noteNumber": 42,
		"velocity": 0,
		"time": 103620,
		"track": 5
	},
	{
		"deltaTime": 0,
		"channel": 0,
		"type": "channel",
		"subtype": "noteOff",
		"noteNumber": 40,
		"velocity": 0,
		"time": 103680,
		"track": 2
	},
	{
		"deltaTime": 0,
		"channel": 0,
		"type": "channel",
		"noteNumber": 42,
		"velocity": 127,
		"subtype": "noteOn",
		"time": 103680,
		"track": 2
	},
	{
		"deltaTime": 0,
		"channel": 2,
		"type": "channel",
		"subtype": "noteOff",
		"noteNumber": 68,
		"velocity": 0,
		"time": 103680,
		"track": 4
	},
	{
		"deltaTime": 0,
		"channel": 2,
		"type": "channel",
		"subtype": "noteOff",
		"noteNumber": 63,
		"velocity": 0,
		"time": 103680,
		"track": 4
	},
	{
		"deltaTime": 0,
		"channel": 2,
		"type": "channel",
		"subtype": "noteOff",
		"noteNumber": 59,
		"velocity": 0,
		"time": 103680,
		"track": 4
	},
	{
		"deltaTime": 0,
		"channel": 2,
		"type": "channel",
		"noteNumber": 42,
		"velocity": 127,
		"subtype": "noteOn",
		"time": 103680,
		"track": 4
	},
	{
		"deltaTime": 0,
		"channel": 9,
		"type": "channel",
		"noteNumber": 42,
		"velocity": 127,
		"subtype": "noteOn",
		"time": 103680,
		"track": 5
	},
	{
		"deltaTime": 0,
		"channel": 9,
		"type": "channel",
		"noteNumber": 35,
		"velocity": 127,
		"subtype": "noteOn",
		"time": 103680,
		"track": 5
	},
	{
		"deltaTime": 60,
		"channel": 9,
		"type": "channel",
		"noteNumber": 36,
		"velocity": 127,
		"subtype": "noteOn",
		"time": 103680,
		"track": 5
	},
	{
		"deltaTime": 0,
		"channel": 9,
		"type": "channel",
		"subtype": "noteOff",
		"noteNumber": 36,
		"velocity": 0,
		"time": 103740,
		"track": 5
	},
	{
		"deltaTime": 0,
		"channel": 9,
		"type": "channel",
		"subtype": "noteOff",
		"noteNumber": 35,
		"velocity": 0,
		"time": 103740,
		"track": 5
	},
	{
		"deltaTime": 60,
		"channel": 9,
		"type": "channel",
		"subtype": "noteOff",
		"noteNumber": 42,
		"velocity": 0,
		"time": 103740,
		"track": 5
	},
	{
		"deltaTime": 60,
		"channel": 9,
		"type": "channel",
		"noteNumber": 42,
		"velocity": 127,
		"subtype": "noteOn",
		"time": 103800,
		"track": 5
	},
	{
		"deltaTime": 60,
		"channel": 9,
		"type": "channel",
		"subtype": "noteOff",
		"noteNumber": 42,
		"velocity": 0,
		"time": 103860,
		"track": 5
	},
	{
		"deltaTime": 0,
		"channel": 9,
		"type": "channel",
		"noteNumber": 42,
		"velocity": 127,
		"subtype": "noteOn",
		"time": 103920,
		"track": 5
	},
	{
		"deltaTime": 0,
		"channel": 9,
		"type": "channel",
		"noteNumber": 36,
		"velocity": 127,
		"subtype": "noteOn",
		"time": 103920,
		"track": 5
	},
	{
		"deltaTime": 60,
		"channel": 9,
		"type": "channel",
		"noteNumber": 35,
		"velocity": 127,
		"subtype": "noteOn",
		"time": 103920,
		"track": 5
	},
	{
		"deltaTime": 0,
		"channel": 9,
		"type": "channel",
		"subtype": "noteOff",
		"noteNumber": 35,
		"velocity": 0,
		"time": 103980,
		"track": 5
	},
	{
		"deltaTime": 0,
		"channel": 9,
		"type": "channel",
		"subtype": "noteOff",
		"noteNumber": 36,
		"velocity": 0,
		"time": 103980,
		"track": 5
	},
	{
		"deltaTime": 60,
		"channel": 9,
		"type": "channel",
		"subtype": "noteOff",
		"noteNumber": 42,
		"velocity": 0,
		"time": 103980,
		"track": 5
	},
	{
		"deltaTime": 0,
		"channel": 2,
		"type": "channel",
		"subtype": "noteOff",
		"noteNumber": 42,
		"velocity": 0,
		"time": 104040,
		"track": 4
	},
	{
		"deltaTime": 0,
		"channel": 2,
		"type": "channel",
		"noteNumber": 61,
		"velocity": 127,
		"subtype": "noteOn",
		"time": 104040,
		"track": 4
	},
	{
		"deltaTime": 0,
		"channel": 2,
		"type": "channel",
		"noteNumber": 66,
		"velocity": 127,
		"subtype": "noteOn",
		"time": 104040,
		"track": 4
	},
	{
		"deltaTime": 0,
		"channel": 2,
		"type": "channel",
		"noteNumber": 70,
		"velocity": 127,
		"subtype": "noteOn",
		"time": 104040,
		"track": 4
	},
	{
		"deltaTime": 60,
		"channel": 9,
		"type": "channel",
		"noteNumber": 42,
		"velocity": 127,
		"subtype": "noteOn",
		"time": 104040,
		"track": 5
	},
	{
		"deltaTime": 60,
		"channel": 9,
		"type": "channel",
		"subtype": "noteOff",
		"noteNumber": 42,
		"velocity": 0,
		"time": 104100,
		"track": 5
	},
	{
		"deltaTime": 0,
		"channel": 9,
		"type": "channel",
		"noteNumber": 42,
		"velocity": 127,
		"subtype": "noteOn",
		"time": 104160,
		"track": 5
	},
	{
		"deltaTime": 0,
		"channel": 9,
		"type": "channel",
		"noteNumber": 38,
		"velocity": 127,
		"subtype": "noteOn",
		"time": 104160,
		"track": 5
	},
	{
		"deltaTime": 60,
		"channel": 9,
		"type": "channel",
		"noteNumber": 40,
		"velocity": 127,
		"subtype": "noteOn",
		"time": 104160,
		"track": 5
	},
	{
		"deltaTime": 0,
		"channel": 9,
		"type": "channel",
		"subtype": "noteOff",
		"noteNumber": 40,
		"velocity": 0,
		"time": 104220,
		"track": 5
	},
	{
		"deltaTime": 0,
		"channel": 9,
		"type": "channel",
		"subtype": "noteOff",
		"noteNumber": 38,
		"velocity": 0,
		"time": 104220,
		"track": 5
	},
	{
		"deltaTime": 60,
		"channel": 9,
		"type": "channel",
		"subtype": "noteOff",
		"noteNumber": 42,
		"velocity": 0,
		"time": 104220,
		"track": 5
	},
	{
		"deltaTime": 0,
		"channel": 2,
		"type": "channel",
		"subtype": "noteOff",
		"noteNumber": 70,
		"velocity": 0,
		"time": 104280,
		"track": 4
	},
	{
		"deltaTime": 0,
		"channel": 2,
		"type": "channel",
		"subtype": "noteOff",
		"noteNumber": 66,
		"velocity": 0,
		"time": 104280,
		"track": 4
	},
	{
		"deltaTime": 0,
		"channel": 2,
		"type": "channel",
		"subtype": "noteOff",
		"noteNumber": 61,
		"velocity": 0,
		"time": 104280,
		"track": 4
	},
	{
		"deltaTime": 0,
		"channel": 2,
		"type": "channel",
		"noteNumber": 61,
		"velocity": 127,
		"subtype": "noteOn",
		"time": 104280,
		"track": 4
	},
	{
		"deltaTime": 0,
		"channel": 2,
		"type": "channel",
		"noteNumber": 66,
		"velocity": 127,
		"subtype": "noteOn",
		"time": 104280,
		"track": 4
	},
	{
		"deltaTime": 0,
		"channel": 2,
		"type": "channel",
		"noteNumber": 70,
		"velocity": 127,
		"subtype": "noteOn",
		"time": 104280,
		"track": 4
	},
	{
		"deltaTime": 60,
		"channel": 9,
		"type": "channel",
		"noteNumber": 42,
		"velocity": 127,
		"subtype": "noteOn",
		"time": 104280,
		"track": 5
	},
	{
		"deltaTime": 60,
		"channel": 9,
		"type": "channel",
		"subtype": "noteOff",
		"noteNumber": 42,
		"velocity": 0,
		"time": 104340,
		"track": 5
	},
	{
		"deltaTime": 60,
		"channel": 9,
		"type": "channel",
		"noteNumber": 42,
		"velocity": 127,
		"subtype": "noteOn",
		"time": 104400,
		"track": 5
	},
	{
		"deltaTime": 60,
		"channel": 9,
		"type": "channel",
		"subtype": "noteOff",
		"noteNumber": 42,
		"velocity": 0,
		"time": 104460,
		"track": 5
	},
	{
		"deltaTime": 0,
		"channel": 9,
		"type": "channel",
		"noteNumber": 42,
		"velocity": 127,
		"subtype": "noteOn",
		"time": 104520,
		"track": 5
	},
	{
		"deltaTime": 0,
		"channel": 9,
		"type": "channel",
		"noteNumber": 36,
		"velocity": 127,
		"subtype": "noteOn",
		"time": 104520,
		"track": 5
	},
	{
		"deltaTime": 60,
		"channel": 9,
		"type": "channel",
		"noteNumber": 35,
		"velocity": 127,
		"subtype": "noteOn",
		"time": 104520,
		"track": 5
	},
	{
		"deltaTime": 0,
		"channel": 9,
		"type": "channel",
		"subtype": "noteOff",
		"noteNumber": 35,
		"velocity": 0,
		"time": 104580,
		"track": 5
	},
	{
		"deltaTime": 0,
		"channel": 9,
		"type": "channel",
		"subtype": "noteOff",
		"noteNumber": 36,
		"velocity": 0,
		"time": 104580,
		"track": 5
	},
	{
		"deltaTime": 60,
		"channel": 9,
		"type": "channel",
		"subtype": "noteOff",
		"noteNumber": 42,
		"velocity": 0,
		"time": 104580,
		"track": 5
	},
	{
		"deltaTime": 0,
		"channel": 0,
		"type": "channel",
		"subtype": "noteOff",
		"noteNumber": 42,
		"velocity": 0,
		"time": 104640,
		"track": 2
	},
	{
		"deltaTime": 0,
		"channel": 0,
		"type": "channel",
		"noteNumber": 35,
		"velocity": 127,
		"subtype": "noteOn",
		"time": 104640,
		"track": 2
	},
	{
		"deltaTime": 0,
		"channel": 2,
		"type": "channel",
		"subtype": "noteOff",
		"noteNumber": 70,
		"velocity": 0,
		"time": 104640,
		"track": 4
	},
	{
		"deltaTime": 0,
		"channel": 2,
		"type": "channel",
		"subtype": "noteOff",
		"noteNumber": 66,
		"velocity": 0,
		"time": 104640,
		"track": 4
	},
	{
		"deltaTime": 0,
		"channel": 2,
		"type": "channel",
		"subtype": "noteOff",
		"noteNumber": 61,
		"velocity": 0,
		"time": 104640,
		"track": 4
	},
	{
		"deltaTime": 0,
		"channel": 2,
		"type": "channel",
		"noteNumber": 47,
		"velocity": 127,
		"subtype": "noteOn",
		"time": 104640,
		"track": 4
	},
	{
		"deltaTime": 60,
		"channel": 9,
		"type": "channel",
		"noteNumber": 42,
		"velocity": 127,
		"subtype": "noteOn",
		"time": 104640,
		"track": 5
	},
	{
		"deltaTime": 60,
		"channel": 9,
		"type": "channel",
		"subtype": "noteOff",
		"noteNumber": 42,
		"velocity": 0,
		"time": 104700,
		"track": 5
	},
	{
		"deltaTime": 60,
		"channel": 9,
		"type": "channel",
		"noteNumber": 42,
		"velocity": 127,
		"subtype": "noteOn",
		"time": 104760,
		"track": 5
	},
	{
		"deltaTime": 60,
		"channel": 9,
		"type": "channel",
		"subtype": "noteOff",
		"noteNumber": 42,
		"velocity": 0,
		"time": 104820,
		"track": 5
	},
	{
		"deltaTime": 0,
		"channel": 9,
		"type": "channel",
		"noteNumber": 42,
		"velocity": 127,
		"subtype": "noteOn",
		"time": 104880,
		"track": 5
	},
	{
		"deltaTime": 0,
		"channel": 9,
		"type": "channel",
		"noteNumber": 36,
		"velocity": 127,
		"subtype": "noteOn",
		"time": 104880,
		"track": 5
	},
	{
		"deltaTime": 60,
		"channel": 9,
		"type": "channel",
		"noteNumber": 35,
		"velocity": 127,
		"subtype": "noteOn",
		"time": 104880,
		"track": 5
	},
	{
		"deltaTime": 0,
		"channel": 9,
		"type": "channel",
		"subtype": "noteOff",
		"noteNumber": 35,
		"velocity": 0,
		"time": 104940,
		"track": 5
	},
	{
		"deltaTime": 0,
		"channel": 9,
		"type": "channel",
		"subtype": "noteOff",
		"noteNumber": 36,
		"velocity": 0,
		"time": 104940,
		"track": 5
	},
	{
		"deltaTime": 60,
		"channel": 9,
		"type": "channel",
		"subtype": "noteOff",
		"noteNumber": 42,
		"velocity": 0,
		"time": 104940,
		"track": 5
	},
	{
		"deltaTime": 0,
		"channel": 2,
		"type": "channel",
		"subtype": "noteOff",
		"noteNumber": 47,
		"velocity": 0,
		"time": 105000,
		"track": 4
	},
	{
		"deltaTime": 0,
		"channel": 2,
		"type": "channel",
		"noteNumber": 61,
		"velocity": 127,
		"subtype": "noteOn",
		"time": 105000,
		"track": 4
	},
	{
		"deltaTime": 0,
		"channel": 2,
		"type": "channel",
		"noteNumber": 66,
		"velocity": 127,
		"subtype": "noteOn",
		"time": 105000,
		"track": 4
	},
	{
		"deltaTime": 0,
		"channel": 2,
		"type": "channel",
		"noteNumber": 70,
		"velocity": 127,
		"subtype": "noteOn",
		"time": 105000,
		"track": 4
	},
	{
		"deltaTime": 60,
		"channel": 9,
		"type": "channel",
		"noteNumber": 42,
		"velocity": 127,
		"subtype": "noteOn",
		"time": 105000,
		"track": 5
	},
	{
		"deltaTime": 60,
		"channel": 9,
		"type": "channel",
		"subtype": "noteOff",
		"noteNumber": 42,
		"velocity": 0,
		"time": 105060,
		"track": 5
	},
	{
		"deltaTime": 0,
		"channel": 0,
		"type": "channel",
		"subtype": "noteOff",
		"noteNumber": 35,
		"velocity": 0,
		"time": 105120,
		"track": 2
	},
	{
		"deltaTime": 0,
		"channel": 0,
		"type": "channel",
		"noteNumber": 34,
		"velocity": 127,
		"subtype": "noteOn",
		"time": 105120,
		"track": 2
	},
	{
		"deltaTime": 0,
		"channel": 9,
		"type": "channel",
		"noteNumber": 42,
		"velocity": 127,
		"subtype": "noteOn",
		"time": 105120,
		"track": 5
	},
	{
		"deltaTime": 0,
		"channel": 9,
		"type": "channel",
		"noteNumber": 40,
		"velocity": 127,
		"subtype": "noteOn",
		"time": 105120,
		"track": 5
	},
	{
		"deltaTime": 60,
		"channel": 9,
		"type": "channel",
		"noteNumber": 38,
		"velocity": 127,
		"subtype": "noteOn",
		"time": 105120,
		"track": 5
	},
	{
		"deltaTime": 0,
		"channel": 9,
		"type": "channel",
		"subtype": "noteOff",
		"noteNumber": 38,
		"velocity": 0,
		"time": 105180,
		"track": 5
	},
	{
		"deltaTime": 0,
		"channel": 9,
		"type": "channel",
		"subtype": "noteOff",
		"noteNumber": 40,
		"velocity": 0,
		"time": 105180,
		"track": 5
	},
	{
		"deltaTime": 60,
		"channel": 9,
		"type": "channel",
		"subtype": "noteOff",
		"noteNumber": 42,
		"velocity": 0,
		"time": 105180,
		"track": 5
	},
	{
		"deltaTime": 0,
		"channel": 2,
		"type": "channel",
		"subtype": "noteOff",
		"noteNumber": 70,
		"velocity": 0,
		"time": 105240,
		"track": 4
	},
	{
		"deltaTime": 0,
		"channel": 2,
		"type": "channel",
		"subtype": "noteOff",
		"noteNumber": 66,
		"velocity": 0,
		"time": 105240,
		"track": 4
	},
	{
		"deltaTime": 0,
		"channel": 2,
		"type": "channel",
		"subtype": "noteOff",
		"noteNumber": 61,
		"velocity": 0,
		"time": 105240,
		"track": 4
	},
	{
		"deltaTime": 0,
		"channel": 2,
		"type": "channel",
		"noteNumber": 61,
		"velocity": 127,
		"subtype": "noteOn",
		"time": 105240,
		"track": 4
	},
	{
		"deltaTime": 0,
		"channel": 2,
		"type": "channel",
		"noteNumber": 66,
		"velocity": 127,
		"subtype": "noteOn",
		"time": 105240,
		"track": 4
	},
	{
		"deltaTime": 0,
		"channel": 2,
		"type": "channel",
		"noteNumber": 71,
		"velocity": 127,
		"subtype": "noteOn",
		"time": 105240,
		"track": 4
	},
	{
		"deltaTime": 60,
		"channel": 9,
		"type": "channel",
		"noteNumber": 42,
		"velocity": 127,
		"subtype": "noteOn",
		"time": 105240,
		"track": 5
	},
	{
		"deltaTime": 60,
		"channel": 9,
		"type": "channel",
		"subtype": "noteOff",
		"noteNumber": 42,
		"velocity": 0,
		"time": 105300,
		"track": 5
	},
	{
		"deltaTime": 60,
		"channel": 9,
		"type": "channel",
		"noteNumber": 42,
		"velocity": 127,
		"subtype": "noteOn",
		"time": 105360,
		"track": 5
	},
	{
		"deltaTime": 60,
		"channel": 9,
		"type": "channel",
		"subtype": "noteOff",
		"noteNumber": 42,
		"velocity": 0,
		"time": 105420,
		"track": 5
	},
	{
		"deltaTime": 60,
		"channel": 9,
		"type": "channel",
		"noteNumber": 42,
		"velocity": 127,
		"subtype": "noteOn",
		"time": 105480,
		"track": 5
	},
	{
		"deltaTime": 60,
		"channel": 9,
		"type": "channel",
		"subtype": "noteOff",
		"noteNumber": 42,
		"velocity": 0,
		"time": 105540,
		"track": 5
	},
	{
		"deltaTime": 0,
		"channel": 0,
		"type": "channel",
		"subtype": "noteOff",
		"noteNumber": 34,
		"velocity": 0,
		"time": 105600,
		"track": 2
	},
	{
		"deltaTime": 0,
		"channel": 0,
		"type": "channel",
		"noteNumber": 32,
		"velocity": 127,
		"subtype": "noteOn",
		"time": 105600,
		"track": 2
	},
	{
		"deltaTime": 0,
		"channel": 2,
		"type": "channel",
		"subtype": "noteOff",
		"noteNumber": 71,
		"velocity": 0,
		"time": 105600,
		"track": 4
	},
	{
		"deltaTime": 0,
		"channel": 2,
		"type": "channel",
		"subtype": "noteOff",
		"noteNumber": 66,
		"velocity": 0,
		"time": 105600,
		"track": 4
	},
	{
		"deltaTime": 0,
		"channel": 2,
		"type": "channel",
		"subtype": "noteOff",
		"noteNumber": 61,
		"velocity": 0,
		"time": 105600,
		"track": 4
	},
	{
		"deltaTime": 0,
		"channel": 2,
		"type": "channel",
		"noteNumber": 44,
		"velocity": 127,
		"subtype": "noteOn",
		"time": 105600,
		"track": 4
	},
	{
		"deltaTime": 0,
		"channel": 9,
		"type": "channel",
		"noteNumber": 42,
		"velocity": 127,
		"subtype": "noteOn",
		"time": 105600,
		"track": 5
	},
	{
		"deltaTime": 0,
		"channel": 9,
		"type": "channel",
		"noteNumber": 35,
		"velocity": 127,
		"subtype": "noteOn",
		"time": 105600,
		"track": 5
	},
	{
		"deltaTime": 60,
		"channel": 9,
		"type": "channel",
		"noteNumber": 36,
		"velocity": 127,
		"subtype": "noteOn",
		"time": 105600,
		"track": 5
	},
	{
		"deltaTime": 0,
		"channel": 9,
		"type": "channel",
		"subtype": "noteOff",
		"noteNumber": 36,
		"velocity": 0,
		"time": 105660,
		"track": 5
	},
	{
		"deltaTime": 0,
		"channel": 9,
		"type": "channel",
		"subtype": "noteOff",
		"noteNumber": 35,
		"velocity": 0,
		"time": 105660,
		"track": 5
	},
	{
		"deltaTime": 60,
		"channel": 9,
		"type": "channel",
		"subtype": "noteOff",
		"noteNumber": 42,
		"velocity": 0,
		"time": 105660,
		"track": 5
	},
	{
		"deltaTime": 60,
		"channel": 9,
		"type": "channel",
		"noteNumber": 42,
		"velocity": 127,
		"subtype": "noteOn",
		"time": 105720,
		"track": 5
	},
	{
		"deltaTime": 60,
		"channel": 9,
		"type": "channel",
		"subtype": "noteOff",
		"noteNumber": 42,
		"velocity": 0,
		"time": 105780,
		"track": 5
	},
	{
		"deltaTime": 0,
		"channel": 9,
		"type": "channel",
		"noteNumber": 42,
		"velocity": 127,
		"subtype": "noteOn",
		"time": 105840,
		"track": 5
	},
	{
		"deltaTime": 0,
		"channel": 9,
		"type": "channel",
		"noteNumber": 36,
		"velocity": 127,
		"subtype": "noteOn",
		"time": 105840,
		"track": 5
	},
	{
		"deltaTime": 60,
		"channel": 9,
		"type": "channel",
		"noteNumber": 35,
		"velocity": 127,
		"subtype": "noteOn",
		"time": 105840,
		"track": 5
	},
	{
		"deltaTime": 0,
		"channel": 9,
		"type": "channel",
		"subtype": "noteOff",
		"noteNumber": 35,
		"velocity": 0,
		"time": 105900,
		"track": 5
	},
	{
		"deltaTime": 0,
		"channel": 9,
		"type": "channel",
		"subtype": "noteOff",
		"noteNumber": 36,
		"velocity": 0,
		"time": 105900,
		"track": 5
	},
	{
		"deltaTime": 60,
		"channel": 9,
		"type": "channel",
		"subtype": "noteOff",
		"noteNumber": 42,
		"velocity": 0,
		"time": 105900,
		"track": 5
	},
	{
		"deltaTime": 0,
		"channel": 2,
		"type": "channel",
		"subtype": "noteOff",
		"noteNumber": 44,
		"velocity": 0,
		"time": 105960,
		"track": 4
	},
	{
		"deltaTime": 0,
		"channel": 2,
		"type": "channel",
		"noteNumber": 59,
		"velocity": 127,
		"subtype": "noteOn",
		"time": 105960,
		"track": 4
	},
	{
		"deltaTime": 0,
		"channel": 2,
		"type": "channel",
		"noteNumber": 63,
		"velocity": 127,
		"subtype": "noteOn",
		"time": 105960,
		"track": 4
	},
	{
		"deltaTime": 0,
		"channel": 2,
		"type": "channel",
		"noteNumber": 68,
		"velocity": 127,
		"subtype": "noteOn",
		"time": 105960,
		"track": 4
	},
	{
		"deltaTime": 60,
		"channel": 9,
		"type": "channel",
		"noteNumber": 42,
		"velocity": 127,
		"subtype": "noteOn",
		"time": 105960,
		"track": 5
	},
	{
		"deltaTime": 60,
		"channel": 9,
		"type": "channel",
		"subtype": "noteOff",
		"noteNumber": 42,
		"velocity": 0,
		"time": 106020,
		"track": 5
	},
	{
		"deltaTime": 0,
		"channel": 9,
		"type": "channel",
		"noteNumber": 42,
		"velocity": 127,
		"subtype": "noteOn",
		"time": 106080,
		"track": 5
	},
	{
		"deltaTime": 0,
		"channel": 9,
		"type": "channel",
		"noteNumber": 38,
		"velocity": 127,
		"subtype": "noteOn",
		"time": 106080,
		"track": 5
	},
	{
		"deltaTime": 60,
		"channel": 9,
		"type": "channel",
		"noteNumber": 40,
		"velocity": 127,
		"subtype": "noteOn",
		"time": 106080,
		"track": 5
	},
	{
		"deltaTime": 0,
		"channel": 9,
		"type": "channel",
		"subtype": "noteOff",
		"noteNumber": 40,
		"velocity": 0,
		"time": 106140,
		"track": 5
	},
	{
		"deltaTime": 0,
		"channel": 9,
		"type": "channel",
		"subtype": "noteOff",
		"noteNumber": 38,
		"velocity": 0,
		"time": 106140,
		"track": 5
	},
	{
		"deltaTime": 60,
		"channel": 9,
		"type": "channel",
		"subtype": "noteOff",
		"noteNumber": 42,
		"velocity": 0,
		"time": 106140,
		"track": 5
	},
	{
		"deltaTime": 0,
		"channel": 2,
		"type": "channel",
		"subtype": "noteOff",
		"noteNumber": 68,
		"velocity": 0,
		"time": 106200,
		"track": 4
	},
	{
		"deltaTime": 0,
		"channel": 2,
		"type": "channel",
		"subtype": "noteOff",
		"noteNumber": 63,
		"velocity": 0,
		"time": 106200,
		"track": 4
	},
	{
		"deltaTime": 0,
		"channel": 2,
		"type": "channel",
		"subtype": "noteOff",
		"noteNumber": 59,
		"velocity": 0,
		"time": 106200,
		"track": 4
	},
	{
		"deltaTime": 0,
		"channel": 2,
		"type": "channel",
		"noteNumber": 59,
		"velocity": 127,
		"subtype": "noteOn",
		"time": 106200,
		"track": 4
	},
	{
		"deltaTime": 0,
		"channel": 2,
		"type": "channel",
		"noteNumber": 63,
		"velocity": 127,
		"subtype": "noteOn",
		"time": 106200,
		"track": 4
	},
	{
		"deltaTime": 0,
		"channel": 2,
		"type": "channel",
		"noteNumber": 68,
		"velocity": 127,
		"subtype": "noteOn",
		"time": 106200,
		"track": 4
	},
	{
		"deltaTime": 60,
		"channel": 9,
		"type": "channel",
		"noteNumber": 42,
		"velocity": 127,
		"subtype": "noteOn",
		"time": 106200,
		"track": 5
	},
	{
		"deltaTime": 60,
		"channel": 9,
		"type": "channel",
		"subtype": "noteOff",
		"noteNumber": 42,
		"velocity": 0,
		"time": 106260,
		"track": 5
	},
	{
		"deltaTime": 0,
		"channel": 0,
		"type": "channel",
		"subtype": "noteOff",
		"noteNumber": 32,
		"velocity": 0,
		"time": 106320,
		"track": 2
	},
	{
		"deltaTime": 0,
		"channel": 0,
		"type": "channel",
		"noteNumber": 32,
		"velocity": 127,
		"subtype": "noteOn",
		"time": 106320,
		"track": 2
	},
	{
		"deltaTime": 60,
		"channel": 9,
		"type": "channel",
		"noteNumber": 42,
		"velocity": 127,
		"subtype": "noteOn",
		"time": 106320,
		"track": 5
	},
	{
		"deltaTime": 60,
		"channel": 9,
		"type": "channel",
		"subtype": "noteOff",
		"noteNumber": 42,
		"velocity": 0,
		"time": 106380,
		"track": 5
	},
	{
		"deltaTime": 0,
		"channel": 9,
		"type": "channel",
		"noteNumber": 42,
		"velocity": 127,
		"subtype": "noteOn",
		"time": 106440,
		"track": 5
	},
	{
		"deltaTime": 0,
		"channel": 9,
		"type": "channel",
		"noteNumber": 36,
		"velocity": 127,
		"subtype": "noteOn",
		"time": 106440,
		"track": 5
	},
	{
		"deltaTime": 60,
		"channel": 9,
		"type": "channel",
		"noteNumber": 35,
		"velocity": 127,
		"subtype": "noteOn",
		"time": 106440,
		"track": 5
	},
	{
		"deltaTime": 0,
		"channel": 9,
		"type": "channel",
		"subtype": "noteOff",
		"noteNumber": 35,
		"velocity": 0,
		"time": 106500,
		"track": 5
	},
	{
		"deltaTime": 0,
		"channel": 9,
		"type": "channel",
		"subtype": "noteOff",
		"noteNumber": 36,
		"velocity": 0,
		"time": 106500,
		"track": 5
	},
	{
		"deltaTime": 60,
		"channel": 9,
		"type": "channel",
		"subtype": "noteOff",
		"noteNumber": 42,
		"velocity": 0,
		"time": 106500,
		"track": 5
	},
	{
		"deltaTime": 0,
		"channel": 0,
		"type": "channel",
		"subtype": "noteOff",
		"noteNumber": 32,
		"velocity": 0,
		"time": 106560,
		"track": 2
	},
	{
		"deltaTime": 0,
		"channel": 0,
		"type": "channel",
		"noteNumber": 40,
		"velocity": 127,
		"subtype": "noteOn",
		"time": 106560,
		"track": 2
	},
	{
		"deltaTime": 0,
		"channel": 2,
		"type": "channel",
		"subtype": "noteOff",
		"noteNumber": 68,
		"velocity": 0,
		"time": 106560,
		"track": 4
	},
	{
		"deltaTime": 0,
		"channel": 2,
		"type": "channel",
		"subtype": "noteOff",
		"noteNumber": 63,
		"velocity": 0,
		"time": 106560,
		"track": 4
	},
	{
		"deltaTime": 0,
		"channel": 2,
		"type": "channel",
		"subtype": "noteOff",
		"noteNumber": 59,
		"velocity": 0,
		"time": 106560,
		"track": 4
	},
	{
		"deltaTime": 0,
		"channel": 2,
		"type": "channel",
		"noteNumber": 40,
		"velocity": 127,
		"subtype": "noteOn",
		"time": 106560,
		"track": 4
	},
	{
		"deltaTime": 60,
		"channel": 9,
		"type": "channel",
		"noteNumber": 42,
		"velocity": 127,
		"subtype": "noteOn",
		"time": 106560,
		"track": 5
	},
	{
		"deltaTime": 60,
		"channel": 9,
		"type": "channel",
		"subtype": "noteOff",
		"noteNumber": 42,
		"velocity": 0,
		"time": 106620,
		"track": 5
	},
	{
		"deltaTime": 60,
		"channel": 9,
		"type": "channel",
		"noteNumber": 42,
		"velocity": 127,
		"subtype": "noteOn",
		"time": 106680,
		"track": 5
	},
	{
		"deltaTime": 60,
		"channel": 9,
		"type": "channel",
		"subtype": "noteOff",
		"noteNumber": 42,
		"velocity": 0,
		"time": 106740,
		"track": 5
	},
	{
		"deltaTime": 0,
		"channel": 9,
		"type": "channel",
		"noteNumber": 42,
		"velocity": 127,
		"subtype": "noteOn",
		"time": 106800,
		"track": 5
	},
	{
		"deltaTime": 0,
		"channel": 9,
		"type": "channel",
		"noteNumber": 36,
		"velocity": 127,
		"subtype": "noteOn",
		"time": 106800,
		"track": 5
	},
	{
		"deltaTime": 60,
		"channel": 9,
		"type": "channel",
		"noteNumber": 35,
		"velocity": 127,
		"subtype": "noteOn",
		"time": 106800,
		"track": 5
	},
	{
		"deltaTime": 0,
		"channel": 9,
		"type": "channel",
		"subtype": "noteOff",
		"noteNumber": 35,
		"velocity": 0,
		"time": 106860,
		"track": 5
	},
	{
		"deltaTime": 0,
		"channel": 9,
		"type": "channel",
		"subtype": "noteOff",
		"noteNumber": 36,
		"velocity": 0,
		"time": 106860,
		"track": 5
	},
	{
		"deltaTime": 60,
		"channel": 9,
		"type": "channel",
		"subtype": "noteOff",
		"noteNumber": 42,
		"velocity": 0,
		"time": 106860,
		"track": 5
	},
	{
		"deltaTime": 0,
		"channel": 2,
		"type": "channel",
		"subtype": "noteOff",
		"noteNumber": 40,
		"velocity": 0,
		"time": 106920,
		"track": 4
	},
	{
		"deltaTime": 0,
		"channel": 2,
		"type": "channel",
		"noteNumber": 59,
		"velocity": 127,
		"subtype": "noteOn",
		"time": 106920,
		"track": 4
	},
	{
		"deltaTime": 0,
		"channel": 2,
		"type": "channel",
		"noteNumber": 63,
		"velocity": 127,
		"subtype": "noteOn",
		"time": 106920,
		"track": 4
	},
	{
		"deltaTime": 0,
		"channel": 2,
		"type": "channel",
		"noteNumber": 68,
		"velocity": 127,
		"subtype": "noteOn",
		"time": 106920,
		"track": 4
	},
	{
		"deltaTime": 60,
		"channel": 9,
		"type": "channel",
		"noteNumber": 42,
		"velocity": 127,
		"subtype": "noteOn",
		"time": 106920,
		"track": 5
	},
	{
		"deltaTime": 60,
		"channel": 9,
		"type": "channel",
		"subtype": "noteOff",
		"noteNumber": 42,
		"velocity": 0,
		"time": 106980,
		"track": 5
	},
	{
		"deltaTime": 0,
		"channel": 9,
		"type": "channel",
		"noteNumber": 42,
		"velocity": 127,
		"subtype": "noteOn",
		"time": 107040,
		"track": 5
	},
	{
		"deltaTime": 0,
		"channel": 9,
		"type": "channel",
		"noteNumber": 40,
		"velocity": 127,
		"subtype": "noteOn",
		"time": 107040,
		"track": 5
	},
	{
		"deltaTime": 60,
		"channel": 9,
		"type": "channel",
		"noteNumber": 38,
		"velocity": 127,
		"subtype": "noteOn",
		"time": 107040,
		"track": 5
	},
	{
		"deltaTime": 0,
		"channel": 9,
		"type": "channel",
		"subtype": "noteOff",
		"noteNumber": 38,
		"velocity": 0,
		"time": 107100,
		"track": 5
	},
	{
		"deltaTime": 0,
		"channel": 9,
		"type": "channel",
		"subtype": "noteOff",
		"noteNumber": 40,
		"velocity": 0,
		"time": 107100,
		"track": 5
	},
	{
		"deltaTime": 60,
		"channel": 9,
		"type": "channel",
		"subtype": "noteOff",
		"noteNumber": 42,
		"velocity": 0,
		"time": 107100,
		"track": 5
	},
	{
		"deltaTime": 0,
		"channel": 2,
		"type": "channel",
		"subtype": "noteOff",
		"noteNumber": 68,
		"velocity": 0,
		"time": 107160,
		"track": 4
	},
	{
		"deltaTime": 0,
		"channel": 2,
		"type": "channel",
		"subtype": "noteOff",
		"noteNumber": 63,
		"velocity": 0,
		"time": 107160,
		"track": 4
	},
	{
		"deltaTime": 0,
		"channel": 2,
		"type": "channel",
		"subtype": "noteOff",
		"noteNumber": 59,
		"velocity": 0,
		"time": 107160,
		"track": 4
	},
	{
		"deltaTime": 0,
		"channel": 2,
		"type": "channel",
		"noteNumber": 59,
		"velocity": 127,
		"subtype": "noteOn",
		"time": 107160,
		"track": 4
	},
	{
		"deltaTime": 0,
		"channel": 2,
		"type": "channel",
		"noteNumber": 63,
		"velocity": 127,
		"subtype": "noteOn",
		"time": 107160,
		"track": 4
	},
	{
		"deltaTime": 0,
		"channel": 2,
		"type": "channel",
		"noteNumber": 68,
		"velocity": 127,
		"subtype": "noteOn",
		"time": 107160,
		"track": 4
	},
	{
		"deltaTime": 60,
		"channel": 9,
		"type": "channel",
		"noteNumber": 42,
		"velocity": 127,
		"subtype": "noteOn",
		"time": 107160,
		"track": 5
	},
	{
		"deltaTime": 60,
		"channel": 9,
		"type": "channel",
		"subtype": "noteOff",
		"noteNumber": 42,
		"velocity": 0,
		"time": 107220,
		"track": 5
	},
	{
		"deltaTime": 0,
		"channel": 0,
		"type": "channel",
		"subtype": "noteOff",
		"noteNumber": 40,
		"velocity": 0,
		"time": 107280,
		"track": 2
	},
	{
		"deltaTime": 0,
		"channel": 0,
		"type": "channel",
		"noteNumber": 40,
		"velocity": 127,
		"subtype": "noteOn",
		"time": 107280,
		"track": 2
	},
	{
		"deltaTime": 60,
		"channel": 9,
		"type": "channel",
		"noteNumber": 42,
		"velocity": 127,
		"subtype": "noteOn",
		"time": 107280,
		"track": 5
	},
	{
		"deltaTime": 60,
		"channel": 9,
		"type": "channel",
		"subtype": "noteOff",
		"noteNumber": 42,
		"velocity": 0,
		"time": 107340,
		"track": 5
	},
	{
		"deltaTime": 60,
		"channel": 9,
		"type": "channel",
		"noteNumber": 42,
		"velocity": 127,
		"subtype": "noteOn",
		"time": 107400,
		"track": 5
	},
	{
		"deltaTime": 60,
		"channel": 9,
		"type": "channel",
		"subtype": "noteOff",
		"noteNumber": 42,
		"velocity": 0,
		"time": 107460,
		"track": 5
	},
	{
		"deltaTime": 0,
		"channel": 0,
		"type": "channel",
		"subtype": "noteOff",
		"noteNumber": 40,
		"velocity": 0,
		"time": 107520,
		"track": 2
	},
	{
		"deltaTime": 0,
		"channel": 0,
		"type": "channel",
		"noteNumber": 41,
		"velocity": 127,
		"subtype": "noteOn",
		"time": 107520,
		"track": 2
	},
	{
		"deltaTime": 0,
		"channel": 2,
		"type": "channel",
		"subtype": "noteOff",
		"noteNumber": 68,
		"velocity": 0,
		"time": 107520,
		"track": 4
	},
	{
		"deltaTime": 0,
		"channel": 2,
		"type": "channel",
		"subtype": "noteOff",
		"noteNumber": 63,
		"velocity": 0,
		"time": 107520,
		"track": 4
	},
	{
		"deltaTime": 0,
		"channel": 2,
		"type": "channel",
		"subtype": "noteOff",
		"noteNumber": 59,
		"velocity": 0,
		"time": 107520,
		"track": 4
	},
	{
		"deltaTime": 0,
		"channel": 9,
		"type": "channel",
		"noteNumber": 35,
		"velocity": 127,
		"subtype": "noteOn",
		"time": 107520,
		"track": 5
	},
	{
		"deltaTime": 60,
		"channel": 9,
		"type": "channel",
		"noteNumber": 36,
		"velocity": 127,
		"subtype": "noteOn",
		"time": 107520,
		"track": 5
	},
	{
		"deltaTime": 0,
		"channel": 9,
		"type": "channel",
		"subtype": "noteOff",
		"noteNumber": 36,
		"velocity": 0,
		"time": 107580,
		"track": 5
	},
	{
		"deltaTime": 180,
		"channel": 9,
		"type": "channel",
		"subtype": "noteOff",
		"noteNumber": 35,
		"velocity": 0,
		"time": 107580,
		"track": 5
	},
	{
		"deltaTime": 0,
		"channel": 9,
		"type": "channel",
		"noteNumber": 35,
		"velocity": 127,
		"subtype": "noteOn",
		"time": 107760,
		"track": 5
	},
	{
		"deltaTime": 60,
		"channel": 9,
		"type": "channel",
		"noteNumber": 36,
		"velocity": 127,
		"subtype": "noteOn",
		"time": 107760,
		"track": 5
	},
	{
		"deltaTime": 0,
		"channel": 9,
		"type": "channel",
		"subtype": "noteOff",
		"noteNumber": 36,
		"velocity": 0,
		"time": 107820,
		"track": 5
	},
	{
		"deltaTime": 180,
		"channel": 9,
		"type": "channel",
		"subtype": "noteOff",
		"noteNumber": 35,
		"velocity": 0,
		"time": 107820,
		"track": 5
	},
	{
		"deltaTime": 60,
		"channel": 9,
		"type": "channel",
		"noteNumber": 39,
		"velocity": 127,
		"subtype": "noteOn",
		"time": 108000,
		"track": 5
	},
	{
		"deltaTime": 180,
		"channel": 9,
		"type": "channel",
		"subtype": "noteOff",
		"noteNumber": 39,
		"velocity": 0,
		"time": 108060,
		"track": 5
	},
	{
		"deltaTime": 0,
		"channel": 0,
		"type": "channel",
		"subtype": "noteOff",
		"noteNumber": 41,
		"velocity": 0,
		"time": 108240,
		"track": 2
	},
	{
		"deltaTime": 120,
		"channel": 0,
		"type": "channel",
		"noteNumber": 41,
		"velocity": 127,
		"subtype": "noteOn",
		"time": 108240,
		"track": 2
	},
	{
		"deltaTime": 0,
		"channel": 9,
		"type": "channel",
		"noteNumber": 35,
		"velocity": 127,
		"subtype": "noteOn",
		"time": 108360,
		"track": 5
	},
	{
		"deltaTime": 60,
		"channel": 9,
		"type": "channel",
		"noteNumber": 36,
		"velocity": 127,
		"subtype": "noteOn",
		"time": 108360,
		"track": 5
	},
	{
		"deltaTime": 0,
		"channel": 9,
		"type": "channel",
		"subtype": "noteOff",
		"noteNumber": 36,
		"velocity": 0,
		"time": 108420,
		"track": 5
	},
	{
		"deltaTime": 60,
		"channel": 9,
		"type": "channel",
		"subtype": "noteOff",
		"noteNumber": 35,
		"velocity": 0,
		"time": 108420,
		"track": 5
	},
	{
		"deltaTime": 0,
		"channel": 0,
		"type": "channel",
		"subtype": "noteOff",
		"noteNumber": 41,
		"velocity": 0,
		"time": 108480,
		"track": 2
	},
	{
		"deltaTime": 240,
		"channel": 0,
		"type": "channel",
		"noteNumber": 40,
		"velocity": 127,
		"subtype": "noteOn",
		"time": 108480,
		"track": 2
	},
	{
		"deltaTime": 0,
		"channel": 9,
		"type": "channel",
		"noteNumber": 35,
		"velocity": 127,
		"subtype": "noteOn",
		"time": 108720,
		"track": 5
	},
	{
		"deltaTime": 60,
		"channel": 9,
		"type": "channel",
		"noteNumber": 36,
		"velocity": 127,
		"subtype": "noteOn",
		"time": 108720,
		"track": 5
	},
	{
		"deltaTime": 0,
		"channel": 9,
		"type": "channel",
		"subtype": "noteOff",
		"noteNumber": 36,
		"velocity": 0,
		"time": 108780,
		"track": 5
	},
	{
		"deltaTime": 180,
		"channel": 9,
		"type": "channel",
		"subtype": "noteOff",
		"noteNumber": 35,
		"velocity": 0,
		"time": 108780,
		"track": 5
	},
	{
		"deltaTime": 0,
		"channel": 0,
		"type": "channel",
		"subtype": "noteOff",
		"noteNumber": 40,
		"velocity": 0,
		"time": 108960,
		"track": 2
	},
	{
		"deltaTime": 0,
		"channel": 0,
		"type": "channel",
		"noteNumber": 35,
		"velocity": 127,
		"subtype": "noteOn",
		"time": 108960,
		"track": 2
	},
	{
		"deltaTime": 0,
		"channel": 9,
		"type": "channel",
		"noteNumber": 38,
		"velocity": 127,
		"subtype": "noteOn",
		"time": 108960,
		"track": 5
	},
	{
		"deltaTime": 60,
		"channel": 9,
		"type": "channel",
		"noteNumber": 40,
		"velocity": 127,
		"subtype": "noteOn",
		"time": 108960,
		"track": 5
	},
	{
		"deltaTime": 0,
		"channel": 9,
		"type": "channel",
		"subtype": "noteOff",
		"noteNumber": 40,
		"velocity": 0,
		"time": 109020,
		"track": 5
	},
	{
		"deltaTime": 180,
		"channel": 9,
		"type": "channel",
		"subtype": "noteOff",
		"noteNumber": 38,
		"velocity": 0,
		"time": 109020,
		"track": 5
	},
	{
		"deltaTime": 0,
		"channel": 0,
		"type": "channel",
		"subtype": "noteOff",
		"noteNumber": 35,
		"velocity": 0,
		"time": 109200,
		"track": 2
	},
	{
		"deltaTime": 0,
		"channel": 0,
		"type": "channel",
		"noteNumber": 34,
		"velocity": 127,
		"subtype": "noteOn",
		"time": 109200,
		"track": 2
	},
	{
		"deltaTime": 0,
		"channel": 9,
		"type": "channel",
		"noteNumber": 35,
		"velocity": 127,
		"subtype": "noteOn",
		"time": 109200,
		"track": 5
	},
	{
		"deltaTime": 60,
		"channel": 9,
		"type": "channel",
		"noteNumber": 36,
		"velocity": 127,
		"subtype": "noteOn",
		"time": 109200,
		"track": 5
	},
	{
		"deltaTime": 0,
		"channel": 9,
		"type": "channel",
		"subtype": "noteOff",
		"noteNumber": 36,
		"velocity": 0,
		"time": 109260,
		"track": 5
	},
	{
		"deltaTime": 180,
		"channel": 9,
		"type": "channel",
		"subtype": "noteOff",
		"noteNumber": 35,
		"velocity": 0,
		"time": 109260,
		"track": 5
	},
	{
		"deltaTime": 0,
		"channel": 0,
		"type": "channel",
		"subtype": "noteOff",
		"noteNumber": 34,
		"velocity": 0,
		"time": 109440,
		"track": 2
	},
	{
		"deltaTime": 0,
		"channel": 0,
		"type": "channel",
		"noteNumber": 32,
		"velocity": 127,
		"subtype": "noteOn",
		"time": 109440,
		"track": 2
	},
	{
		"deltaTime": 0,
		"channel": 2,
		"type": "channel",
		"noteNumber": 44,
		"velocity": 127,
		"subtype": "noteOn",
		"time": 109440,
		"track": 4
	},
	{
		"deltaTime": 0,
		"channel": 2,
		"type": "channel",
		"noteNumber": 51,
		"velocity": 127,
		"subtype": "noteOn",
		"time": 109440,
		"track": 4
	},
	{
		"deltaTime": 0,
		"channel": 2,
		"type": "channel",
		"noteNumber": 56,
		"velocity": 127,
		"subtype": "noteOn",
		"time": 109440,
		"track": 4
	},
	{
		"deltaTime": 0,
		"channel": 2,
		"type": "channel",
		"noteNumber": 59,
		"velocity": 127,
		"subtype": "noteOn",
		"time": 109440,
		"track": 4
	},
	{
		"deltaTime": 0,
		"channel": 2,
		"type": "channel",
		"noteNumber": 63,
		"velocity": 127,
		"subtype": "noteOn",
		"time": 109440,
		"track": 4
	},
	{
		"deltaTime": 0,
		"channel": 9,
		"type": "channel",
		"noteNumber": 42,
		"velocity": 127,
		"subtype": "noteOn",
		"time": 109440,
		"track": 5
	},
	{
		"deltaTime": 0,
		"channel": 9,
		"type": "channel",
		"noteNumber": 35,
		"velocity": 127,
		"subtype": "noteOn",
		"time": 109440,
		"track": 5
	},
	{
		"deltaTime": 60,
		"channel": 9,
		"type": "channel",
		"noteNumber": 36,
		"velocity": 127,
		"subtype": "noteOn",
		"time": 109440,
		"track": 5
	},
	{
		"deltaTime": 0,
		"channel": 9,
		"type": "channel",
		"subtype": "noteOff",
		"noteNumber": 36,
		"velocity": 0,
		"time": 109500,
		"track": 5
	},
	{
		"deltaTime": 0,
		"channel": 9,
		"type": "channel",
		"subtype": "noteOff",
		"noteNumber": 35,
		"velocity": 0,
		"time": 109500,
		"track": 5
	},
	{
		"deltaTime": 60,
		"channel": 9,
		"type": "channel",
		"subtype": "noteOff",
		"noteNumber": 42,
		"velocity": 0,
		"time": 109500,
		"track": 5
	},
	{
		"deltaTime": 60,
		"channel": 9,
		"type": "channel",
		"noteNumber": 42,
		"velocity": 127,
		"subtype": "noteOn",
		"time": 109560,
		"track": 5
	},
	{
		"deltaTime": 60,
		"channel": 9,
		"type": "channel",
		"subtype": "noteOff",
		"noteNumber": 42,
		"velocity": 0,
		"time": 109620,
		"track": 5
	},
	{
		"deltaTime": 0,
		"channel": 9,
		"type": "channel",
		"noteNumber": 42,
		"velocity": 127,
		"subtype": "noteOn",
		"time": 109680,
		"track": 5
	},
	{
		"deltaTime": 0,
		"channel": 9,
		"type": "channel",
		"noteNumber": 36,
		"velocity": 127,
		"subtype": "noteOn",
		"time": 109680,
		"track": 5
	},
	{
		"deltaTime": 60,
		"channel": 9,
		"type": "channel",
		"noteNumber": 35,
		"velocity": 127,
		"subtype": "noteOn",
		"time": 109680,
		"track": 5
	},
	{
		"deltaTime": 0,
		"channel": 9,
		"type": "channel",
		"subtype": "noteOff",
		"noteNumber": 35,
		"velocity": 0,
		"time": 109740,
		"track": 5
	},
	{
		"deltaTime": 0,
		"channel": 9,
		"type": "channel",
		"subtype": "noteOff",
		"noteNumber": 36,
		"velocity": 0,
		"time": 109740,
		"track": 5
	},
	{
		"deltaTime": 60,
		"channel": 9,
		"type": "channel",
		"subtype": "noteOff",
		"noteNumber": 42,
		"velocity": 0,
		"time": 109740,
		"track": 5
	},
	{
		"deltaTime": 0,
		"channel": 1,
		"type": "channel",
		"noteNumber": 56,
		"velocity": 127,
		"subtype": "noteOn",
		"time": 109800,
		"track": 3
	},
	{
		"deltaTime": 0,
		"channel": 2,
		"type": "channel",
		"subtype": "noteOff",
		"noteNumber": 63,
		"velocity": 0,
		"time": 109800,
		"track": 4
	},
	{
		"deltaTime": 0,
		"channel": 2,
		"type": "channel",
		"subtype": "noteOff",
		"noteNumber": 59,
		"velocity": 0,
		"time": 109800,
		"track": 4
	},
	{
		"deltaTime": 0,
		"channel": 2,
		"type": "channel",
		"subtype": "noteOff",
		"noteNumber": 56,
		"velocity": 0,
		"time": 109800,
		"track": 4
	},
	{
		"deltaTime": 0,
		"channel": 2,
		"type": "channel",
		"subtype": "noteOff",
		"noteNumber": 51,
		"velocity": 0,
		"time": 109800,
		"track": 4
	},
	{
		"deltaTime": 0,
		"channel": 2,
		"type": "channel",
		"subtype": "noteOff",
		"noteNumber": 44,
		"velocity": 0,
		"time": 109800,
		"track": 4
	},
	{
		"deltaTime": 0,
		"channel": 2,
		"type": "channel",
		"noteNumber": 56,
		"velocity": 127,
		"subtype": "noteOn",
		"time": 109800,
		"track": 4
	},
	{
		"deltaTime": 0,
		"channel": 2,
		"type": "channel",
		"noteNumber": 59,
		"velocity": 127,
		"subtype": "noteOn",
		"time": 109800,
		"track": 4
	},
	{
		"deltaTime": 60,
		"channel": 9,
		"type": "channel",
		"noteNumber": 42,
		"velocity": 127,
		"subtype": "noteOn",
		"time": 109800,
		"track": 5
	},
	{
		"deltaTime": 60,
		"channel": 9,
		"type": "channel",
		"subtype": "noteOff",
		"noteNumber": 42,
		"velocity": 0,
		"time": 109860,
		"track": 5
	},
	{
		"deltaTime": 0,
		"channel": 1,
		"type": "channel",
		"subtype": "noteOff",
		"noteNumber": 56,
		"velocity": 0,
		"time": 109920,
		"track": 3
	},
	{
		"deltaTime": 0,
		"channel": 1,
		"type": "channel",
		"noteNumber": 63,
		"velocity": 127,
		"subtype": "noteOn",
		"time": 109920,
		"track": 3
	},
	{
		"deltaTime": 0,
		"channel": 2,
		"type": "channel",
		"subtype": "noteOff",
		"noteNumber": 59,
		"velocity": 0,
		"time": 109920,
		"track": 4
	},
	{
		"deltaTime": 0,
		"channel": 2,
		"type": "channel",
		"subtype": "noteOff",
		"noteNumber": 56,
		"velocity": 0,
		"time": 109920,
		"track": 4
	},
	{
		"deltaTime": 0,
		"channel": 2,
		"type": "channel",
		"noteNumber": 51,
		"velocity": 127,
		"subtype": "noteOn",
		"time": 109920,
		"track": 4
	},
	{
		"deltaTime": 0,
		"channel": 2,
		"type": "channel",
		"noteNumber": 59,
		"velocity": 127,
		"subtype": "noteOn",
		"time": 109920,
		"track": 4
	},
	{
		"deltaTime": 0,
		"channel": 2,
		"type": "channel",
		"noteNumber": 63,
		"velocity": 127,
		"subtype": "noteOn",
		"time": 109920,
		"track": 4
	},
	{
		"deltaTime": 0,
		"channel": 9,
		"type": "channel",
		"noteNumber": 42,
		"velocity": 127,
		"subtype": "noteOn",
		"time": 109920,
		"track": 5
	},
	{
		"deltaTime": 0,
		"channel": 9,
		"type": "channel",
		"noteNumber": 38,
		"velocity": 127,
		"subtype": "noteOn",
		"time": 109920,
		"track": 5
	},
	{
		"deltaTime": 60,
		"channel": 9,
		"type": "channel",
		"noteNumber": 40,
		"velocity": 127,
		"subtype": "noteOn",
		"time": 109920,
		"track": 5
	},
	{
		"deltaTime": 0,
		"channel": 9,
		"type": "channel",
		"subtype": "noteOff",
		"noteNumber": 40,
		"velocity": 0,
		"time": 109980,
		"track": 5
	},
	{
		"deltaTime": 0,
		"channel": 9,
		"type": "channel",
		"subtype": "noteOff",
		"noteNumber": 38,
		"velocity": 0,
		"time": 109980,
		"track": 5
	},
	{
		"deltaTime": 60,
		"channel": 9,
		"type": "channel",
		"subtype": "noteOff",
		"noteNumber": 42,
		"velocity": 0,
		"time": 109980,
		"track": 5
	},
	{
		"deltaTime": 60,
		"channel": 9,
		"type": "channel",
		"noteNumber": 42,
		"velocity": 127,
		"subtype": "noteOn",
		"time": 110040,
		"track": 5
	},
	{
		"deltaTime": 60,
		"channel": 9,
		"type": "channel",
		"subtype": "noteOff",
		"noteNumber": 42,
		"velocity": 0,
		"time": 110100,
		"track": 5
	},
	{
		"deltaTime": 0,
		"channel": 1,
		"type": "channel",
		"subtype": "noteOff",
		"noteNumber": 63,
		"velocity": 0,
		"time": 110160,
		"track": 3
	},
	{
		"deltaTime": 0,
		"channel": 1,
		"type": "channel",
		"noteNumber": 63,
		"velocity": 127,
		"subtype": "noteOn",
		"time": 110160,
		"track": 3
	},
	{
		"deltaTime": 60,
		"channel": 9,
		"type": "channel",
		"noteNumber": 42,
		"velocity": 127,
		"subtype": "noteOn",
		"time": 110160,
		"track": 5
	},
	{
		"deltaTime": 60,
		"channel": 9,
		"type": "channel",
		"subtype": "noteOff",
		"noteNumber": 42,
		"velocity": 0,
		"time": 110220,
		"track": 5
	},
	{
		"deltaTime": 0,
		"channel": 9,
		"type": "channel",
		"noteNumber": 42,
		"velocity": 127,
		"subtype": "noteOn",
		"time": 110280,
		"track": 5
	},
	{
		"deltaTime": 0,
		"channel": 9,
		"type": "channel",
		"noteNumber": 36,
		"velocity": 127,
		"subtype": "noteOn",
		"time": 110280,
		"track": 5
	},
	{
		"deltaTime": 60,
		"channel": 9,
		"type": "channel",
		"noteNumber": 35,
		"velocity": 127,
		"subtype": "noteOn",
		"time": 110280,
		"track": 5
	},
	{
		"deltaTime": 0,
		"channel": 9,
		"type": "channel",
		"subtype": "noteOff",
		"noteNumber": 35,
		"velocity": 0,
		"time": 110340,
		"track": 5
	},
	{
		"deltaTime": 0,
		"channel": 9,
		"type": "channel",
		"subtype": "noteOff",
		"noteNumber": 36,
		"velocity": 0,
		"time": 110340,
		"track": 5
	},
	{
		"deltaTime": 60,
		"channel": 9,
		"type": "channel",
		"subtype": "noteOff",
		"noteNumber": 42,
		"velocity": 0,
		"time": 110340,
		"track": 5
	},
	{
		"deltaTime": 0,
		"channel": 0,
		"type": "channel",
		"subtype": "noteOff",
		"noteNumber": 32,
		"velocity": 0,
		"time": 110400,
		"track": 2
	},
	{
		"deltaTime": 0,
		"channel": 0,
		"type": "channel",
		"noteNumber": 40,
		"velocity": 127,
		"subtype": "noteOn",
		"time": 110400,
		"track": 2
	},
	{
		"deltaTime": 0,
		"channel": 1,
		"type": "channel",
		"subtype": "noteOff",
		"noteNumber": 63,
		"velocity": 0,
		"time": 110400,
		"track": 3
	},
	{
		"deltaTime": 0,
		"channel": 1,
		"type": "channel",
		"noteNumber": 63,
		"velocity": 127,
		"subtype": "noteOn",
		"time": 110400,
		"track": 3
	},
	{
		"deltaTime": 0,
		"channel": 2,
		"type": "channel",
		"subtype": "noteOff",
		"noteNumber": 63,
		"velocity": 0,
		"time": 110400,
		"track": 4
	},
	{
		"deltaTime": 0,
		"channel": 2,
		"type": "channel",
		"subtype": "noteOff",
		"noteNumber": 59,
		"velocity": 0,
		"time": 110400,
		"track": 4
	},
	{
		"deltaTime": 0,
		"channel": 2,
		"type": "channel",
		"subtype": "noteOff",
		"noteNumber": 51,
		"velocity": 0,
		"time": 110400,
		"track": 4
	},
	{
		"deltaTime": 0,
		"channel": 2,
		"type": "channel",
		"noteNumber": 40,
		"velocity": 127,
		"subtype": "noteOn",
		"time": 110400,
		"track": 4
	},
	{
		"deltaTime": 0,
		"channel": 2,
		"type": "channel",
		"noteNumber": 47,
		"velocity": 127,
		"subtype": "noteOn",
		"time": 110400,
		"track": 4
	},
	{
		"deltaTime": 0,
		"channel": 2,
		"type": "channel",
		"noteNumber": 52,
		"velocity": 127,
		"subtype": "noteOn",
		"time": 110400,
		"track": 4
	},
	{
		"deltaTime": 0,
		"channel": 2,
		"type": "channel",
		"noteNumber": 56,
		"velocity": 127,
		"subtype": "noteOn",
		"time": 110400,
		"track": 4
	},
	{
		"deltaTime": 60,
		"channel": 9,
		"type": "channel",
		"noteNumber": 42,
		"velocity": 127,
		"subtype": "noteOn",
		"time": 110400,
		"track": 5
	},
	{
		"deltaTime": 60,
		"channel": 9,
		"type": "channel",
		"subtype": "noteOff",
		"noteNumber": 42,
		"velocity": 0,
		"time": 110460,
		"track": 5
	},
	{
		"deltaTime": 60,
		"channel": 9,
		"type": "channel",
		"noteNumber": 42,
		"velocity": 127,
		"subtype": "noteOn",
		"time": 110520,
		"track": 5
	},
	{
		"deltaTime": 60,
		"channel": 9,
		"type": "channel",
		"subtype": "noteOff",
		"noteNumber": 42,
		"velocity": 0,
		"time": 110580,
		"track": 5
	},
	{
		"deltaTime": 0,
		"channel": 1,
		"type": "channel",
		"subtype": "noteOff",
		"noteNumber": 63,
		"velocity": 0,
		"time": 110640,
		"track": 3
	},
	{
		"deltaTime": 0,
		"channel": 1,
		"type": "channel",
		"noteNumber": 64,
		"velocity": 127,
		"subtype": "noteOn",
		"time": 110640,
		"track": 3
	},
	{
		"deltaTime": 0,
		"channel": 9,
		"type": "channel",
		"noteNumber": 42,
		"velocity": 127,
		"subtype": "noteOn",
		"time": 110640,
		"track": 5
	},
	{
		"deltaTime": 0,
		"channel": 9,
		"type": "channel",
		"noteNumber": 36,
		"velocity": 127,
		"subtype": "noteOn",
		"time": 110640,
		"track": 5
	},
	{
		"deltaTime": 60,
		"channel": 9,
		"type": "channel",
		"noteNumber": 35,
		"velocity": 127,
		"subtype": "noteOn",
		"time": 110640,
		"track": 5
	},
	{
		"deltaTime": 0,
		"channel": 9,
		"type": "channel",
		"subtype": "noteOff",
		"noteNumber": 35,
		"velocity": 0,
		"time": 110700,
		"track": 5
	},
	{
		"deltaTime": 0,
		"channel": 9,
		"type": "channel",
		"subtype": "noteOff",
		"noteNumber": 36,
		"velocity": 0,
		"time": 110700,
		"track": 5
	},
	{
		"deltaTime": 60,
		"channel": 9,
		"type": "channel",
		"subtype": "noteOff",
		"noteNumber": 42,
		"velocity": 0,
		"time": 110700,
		"track": 5
	},
	{
		"deltaTime": 0,
		"channel": 1,
		"type": "channel",
		"subtype": "noteOff",
		"noteNumber": 64,
		"velocity": 0,
		"time": 110760,
		"track": 3
	},
	{
		"deltaTime": 0,
		"channel": 1,
		"type": "channel",
		"noteNumber": 61,
		"velocity": 127,
		"subtype": "noteOn",
		"time": 110760,
		"track": 3
	},
	{
		"deltaTime": 0,
		"channel": 2,
		"type": "channel",
		"subtype": "noteOff",
		"noteNumber": 56,
		"velocity": 0,
		"time": 110760,
		"track": 4
	},
	{
		"deltaTime": 0,
		"channel": 2,
		"type": "channel",
		"subtype": "noteOff",
		"noteNumber": 52,
		"velocity": 0,
		"time": 110760,
		"track": 4
	},
	{
		"deltaTime": 0,
		"channel": 2,
		"type": "channel",
		"subtype": "noteOff",
		"noteNumber": 47,
		"velocity": 0,
		"time": 110760,
		"track": 4
	},
	{
		"deltaTime": 0,
		"channel": 2,
		"type": "channel",
		"subtype": "noteOff",
		"noteNumber": 40,
		"velocity": 0,
		"time": 110760,
		"track": 4
	},
	{
		"deltaTime": 0,
		"channel": 2,
		"type": "channel",
		"noteNumber": 52,
		"velocity": 127,
		"subtype": "noteOn",
		"time": 110760,
		"track": 4
	},
	{
		"deltaTime": 0,
		"channel": 2,
		"type": "channel",
		"noteNumber": 56,
		"velocity": 127,
		"subtype": "noteOn",
		"time": 110760,
		"track": 4
	},
	{
		"deltaTime": 60,
		"channel": 9,
		"type": "channel",
		"noteNumber": 42,
		"velocity": 127,
		"subtype": "noteOn",
		"time": 110760,
		"track": 5
	},
	{
		"deltaTime": 60,
		"channel": 9,
		"type": "channel",
		"subtype": "noteOff",
		"noteNumber": 42,
		"velocity": 0,
		"time": 110820,
		"track": 5
	},
	{
		"deltaTime": 0,
		"channel": 2,
		"type": "channel",
		"subtype": "noteOff",
		"noteNumber": 56,
		"velocity": 0,
		"time": 110880,
		"track": 4
	},
	{
		"deltaTime": 0,
		"channel": 2,
		"type": "channel",
		"subtype": "noteOff",
		"noteNumber": 52,
		"velocity": 0,
		"time": 110880,
		"track": 4
	},
	{
		"deltaTime": 0,
		"channel": 2,
		"type": "channel",
		"noteNumber": 40,
		"velocity": 127,
		"subtype": "noteOn",
		"time": 110880,
		"track": 4
	},
	{
		"deltaTime": 0,
		"channel": 2,
		"type": "channel",
		"noteNumber": 52,
		"velocity": 127,
		"subtype": "noteOn",
		"time": 110880,
		"track": 4
	},
	{
		"deltaTime": 0,
		"channel": 2,
		"type": "channel",
		"noteNumber": 56,
		"velocity": 127,
		"subtype": "noteOn",
		"time": 110880,
		"track": 4
	},
	{
		"deltaTime": 0,
		"channel": 2,
		"type": "channel",
		"noteNumber": 59,
		"velocity": 127,
		"subtype": "noteOn",
		"time": 110880,
		"track": 4
	},
	{
		"deltaTime": 0,
		"channel": 9,
		"type": "channel",
		"noteNumber": 42,
		"velocity": 127,
		"subtype": "noteOn",
		"time": 110880,
		"track": 5
	},
	{
		"deltaTime": 0,
		"channel": 9,
		"type": "channel",
		"noteNumber": 40,
		"velocity": 127,
		"subtype": "noteOn",
		"time": 110880,
		"track": 5
	},
	{
		"deltaTime": 60,
		"channel": 9,
		"type": "channel",
		"noteNumber": 38,
		"velocity": 127,
		"subtype": "noteOn",
		"time": 110880,
		"track": 5
	},
	{
		"deltaTime": 0,
		"channel": 9,
		"type": "channel",
		"subtype": "noteOff",
		"noteNumber": 38,
		"velocity": 0,
		"time": 110940,
		"track": 5
	},
	{
		"deltaTime": 0,
		"channel": 9,
		"type": "channel",
		"subtype": "noteOff",
		"noteNumber": 40,
		"velocity": 0,
		"time": 110940,
		"track": 5
	},
	{
		"deltaTime": 60,
		"channel": 9,
		"type": "channel",
		"subtype": "noteOff",
		"noteNumber": 42,
		"velocity": 0,
		"time": 110940,
		"track": 5
	},
	{
		"deltaTime": 0,
		"channel": 1,
		"type": "channel",
		"subtype": "noteOff",
		"noteNumber": 61,
		"velocity": 0,
		"time": 111000,
		"track": 3
	},
	{
		"deltaTime": 0,
		"channel": 1,
		"type": "channel",
		"noteNumber": 59,
		"velocity": 127,
		"subtype": "noteOn",
		"time": 111000,
		"track": 3
	},
	{
		"deltaTime": 60,
		"channel": 9,
		"type": "channel",
		"noteNumber": 42,
		"velocity": 127,
		"subtype": "noteOn",
		"time": 111000,
		"track": 5
	},
	{
		"deltaTime": 60,
		"channel": 9,
		"type": "channel",
		"subtype": "noteOff",
		"noteNumber": 42,
		"velocity": 0,
		"time": 111060,
		"track": 5
	},
	{
		"deltaTime": 60,
		"channel": 9,
		"type": "channel",
		"noteNumber": 42,
		"velocity": 127,
		"subtype": "noteOn",
		"time": 111120,
		"track": 5
	},
	{
		"deltaTime": 60,
		"channel": 9,
		"type": "channel",
		"subtype": "noteOff",
		"noteNumber": 42,
		"velocity": 0,
		"time": 111180,
		"track": 5
	},
	{
		"deltaTime": 0,
		"channel": 1,
		"type": "channel",
		"subtype": "noteOff",
		"noteNumber": 59,
		"velocity": 0,
		"time": 111240,
		"track": 3
	},
	{
		"deltaTime": 0,
		"channel": 1,
		"type": "channel",
		"noteNumber": 63,
		"velocity": 127,
		"subtype": "noteOn",
		"time": 111240,
		"track": 3
	},
	{
		"deltaTime": 60,
		"channel": 9,
		"type": "channel",
		"noteNumber": 42,
		"velocity": 127,
		"subtype": "noteOn",
		"time": 111240,
		"track": 5
	},
	{
		"deltaTime": 60,
		"channel": 9,
		"type": "channel",
		"subtype": "noteOff",
		"noteNumber": 42,
		"velocity": 0,
		"time": 111300,
		"track": 5
	},
	{
		"deltaTime": 0,
		"channel": 0,
		"type": "channel",
		"subtype": "noteOff",
		"noteNumber": 40,
		"velocity": 0,
		"time": 111360,
		"track": 2
	},
	{
		"deltaTime": 0,
		"channel": 0,
		"type": "channel",
		"noteNumber": 42,
		"velocity": 127,
		"subtype": "noteOn",
		"time": 111360,
		"track": 2
	},
	{
		"deltaTime": 0,
		"channel": 1,
		"type": "channel",
		"subtype": "noteOff",
		"noteNumber": 63,
		"velocity": 0,
		"time": 111360,
		"track": 3
	},
	{
		"deltaTime": 0,
		"channel": 1,
		"type": "channel",
		"noteNumber": 59,
		"velocity": 127,
		"subtype": "noteOn",
		"time": 111360,
		"track": 3
	},
	{
		"deltaTime": 0,
		"channel": 2,
		"type": "channel",
		"subtype": "noteOff",
		"noteNumber": 59,
		"velocity": 0,
		"time": 111360,
		"track": 4
	},
	{
		"deltaTime": 0,
		"channel": 2,
		"type": "channel",
		"subtype": "noteOff",
		"noteNumber": 56,
		"velocity": 0,
		"time": 111360,
		"track": 4
	},
	{
		"deltaTime": 0,
		"channel": 2,
		"type": "channel",
		"subtype": "noteOff",
		"noteNumber": 52,
		"velocity": 0,
		"time": 111360,
		"track": 4
	},
	{
		"deltaTime": 0,
		"channel": 2,
		"type": "channel",
		"subtype": "noteOff",
		"noteNumber": 40,
		"velocity": 0,
		"time": 111360,
		"track": 4
	},
	{
		"deltaTime": 0,
		"channel": 2,
		"type": "channel",
		"noteNumber": 42,
		"velocity": 127,
		"subtype": "noteOn",
		"time": 111360,
		"track": 4
	},
	{
		"deltaTime": 0,
		"channel": 2,
		"type": "channel",
		"noteNumber": 49,
		"velocity": 127,
		"subtype": "noteOn",
		"time": 111360,
		"track": 4
	},
	{
		"deltaTime": 0,
		"channel": 2,
		"type": "channel",
		"noteNumber": 54,
		"velocity": 127,
		"subtype": "noteOn",
		"time": 111360,
		"track": 4
	},
	{
		"deltaTime": 0,
		"channel": 2,
		"type": "channel",
		"noteNumber": 58,
		"velocity": 127,
		"subtype": "noteOn",
		"time": 111360,
		"track": 4
	},
	{
		"deltaTime": 0,
		"channel": 9,
		"type": "channel",
		"noteNumber": 42,
		"velocity": 127,
		"subtype": "noteOn",
		"time": 111360,
		"track": 5
	},
	{
		"deltaTime": 0,
		"channel": 9,
		"type": "channel",
		"noteNumber": 35,
		"velocity": 127,
		"subtype": "noteOn",
		"time": 111360,
		"track": 5
	},
	{
		"deltaTime": 60,
		"channel": 9,
		"type": "channel",
		"noteNumber": 36,
		"velocity": 127,
		"subtype": "noteOn",
		"time": 111360,
		"track": 5
	},
	{
		"deltaTime": 0,
		"channel": 9,
		"type": "channel",
		"subtype": "noteOff",
		"noteNumber": 36,
		"velocity": 0,
		"time": 111420,
		"track": 5
	},
	{
		"deltaTime": 0,
		"channel": 9,
		"type": "channel",
		"subtype": "noteOff",
		"noteNumber": 35,
		"velocity": 0,
		"time": 111420,
		"track": 5
	},
	{
		"deltaTime": 60,
		"channel": 9,
		"type": "channel",
		"subtype": "noteOff",
		"noteNumber": 42,
		"velocity": 0,
		"time": 111420,
		"track": 5
	},
	{
		"deltaTime": 0,
		"channel": 1,
		"type": "channel",
		"subtype": "noteOff",
		"noteNumber": 59,
		"velocity": 0,
		"time": 111480,
		"track": 3
	},
	{
		"deltaTime": 0,
		"channel": 1,
		"type": "channel",
		"noteNumber": 61,
		"velocity": 127,
		"subtype": "noteOn",
		"time": 111480,
		"track": 3
	},
	{
		"deltaTime": 60,
		"channel": 9,
		"type": "channel",
		"noteNumber": 42,
		"velocity": 127,
		"subtype": "noteOn",
		"time": 111480,
		"track": 5
	},
	{
		"deltaTime": 60,
		"channel": 9,
		"type": "channel",
		"subtype": "noteOff",
		"noteNumber": 42,
		"velocity": 0,
		"time": 111540,
		"track": 5
	},
	{
		"deltaTime": 0,
		"channel": 9,
		"type": "channel",
		"noteNumber": 42,
		"velocity": 127,
		"subtype": "noteOn",
		"time": 111600,
		"track": 5
	},
	{
		"deltaTime": 0,
		"channel": 9,
		"type": "channel",
		"noteNumber": 36,
		"velocity": 127,
		"subtype": "noteOn",
		"time": 111600,
		"track": 5
	},
	{
		"deltaTime": 60,
		"channel": 9,
		"type": "channel",
		"noteNumber": 35,
		"velocity": 127,
		"subtype": "noteOn",
		"time": 111600,
		"track": 5
	},
	{
		"deltaTime": 0,
		"channel": 9,
		"type": "channel",
		"subtype": "noteOff",
		"noteNumber": 35,
		"velocity": 0,
		"time": 111660,
		"track": 5
	},
	{
		"deltaTime": 0,
		"channel": 9,
		"type": "channel",
		"subtype": "noteOff",
		"noteNumber": 36,
		"velocity": 0,
		"time": 111660,
		"track": 5
	},
	{
		"deltaTime": 60,
		"channel": 9,
		"type": "channel",
		"subtype": "noteOff",
		"noteNumber": 42,
		"velocity": 0,
		"time": 111660,
		"track": 5
	},
	{
		"deltaTime": 0,
		"channel": 2,
		"type": "channel",
		"subtype": "noteOff",
		"noteNumber": 58,
		"velocity": 0,
		"time": 111720,
		"track": 4
	},
	{
		"deltaTime": 0,
		"channel": 2,
		"type": "channel",
		"subtype": "noteOff",
		"noteNumber": 54,
		"velocity": 0,
		"time": 111720,
		"track": 4
	},
	{
		"deltaTime": 0,
		"channel": 2,
		"type": "channel",
		"subtype": "noteOff",
		"noteNumber": 49,
		"velocity": 0,
		"time": 111720,
		"track": 4
	},
	{
		"deltaTime": 0,
		"channel": 2,
		"type": "channel",
		"subtype": "noteOff",
		"noteNumber": 42,
		"velocity": 0,
		"time": 111720,
		"track": 4
	},
	{
		"deltaTime": 0,
		"channel": 2,
		"type": "channel",
		"noteNumber": 54,
		"velocity": 127,
		"subtype": "noteOn",
		"time": 111720,
		"track": 4
	},
	{
		"deltaTime": 0,
		"channel": 2,
		"type": "channel",
		"noteNumber": 58,
		"velocity": 127,
		"subtype": "noteOn",
		"time": 111720,
		"track": 4
	},
	{
		"deltaTime": 60,
		"channel": 9,
		"type": "channel",
		"noteNumber": 42,
		"velocity": 127,
		"subtype": "noteOn",
		"time": 111720,
		"track": 5
	},
	{
		"deltaTime": 60,
		"channel": 9,
		"type": "channel",
		"subtype": "noteOff",
		"noteNumber": 42,
		"velocity": 0,
		"time": 111780,
		"track": 5
	},
	{
		"deltaTime": 0,
		"channel": 2,
		"type": "channel",
		"subtype": "noteOff",
		"noteNumber": 58,
		"velocity": 0,
		"time": 111840,
		"track": 4
	},
	{
		"deltaTime": 0,
		"channel": 2,
		"type": "channel",
		"subtype": "noteOff",
		"noteNumber": 54,
		"velocity": 0,
		"time": 111840,
		"track": 4
	},
	{
		"deltaTime": 0,
		"channel": 2,
		"type": "channel",
		"noteNumber": 42,
		"velocity": 127,
		"subtype": "noteOn",
		"time": 111840,
		"track": 4
	},
	{
		"deltaTime": 0,
		"channel": 2,
		"type": "channel",
		"noteNumber": 49,
		"velocity": 127,
		"subtype": "noteOn",
		"time": 111840,
		"track": 4
	},
	{
		"deltaTime": 0,
		"channel": 2,
		"type": "channel",
		"noteNumber": 58,
		"velocity": 127,
		"subtype": "noteOn",
		"time": 111840,
		"track": 4
	},
	{
		"deltaTime": 0,
		"channel": 2,
		"type": "channel",
		"noteNumber": 61,
		"velocity": 127,
		"subtype": "noteOn",
		"time": 111840,
		"track": 4
	},
	{
		"deltaTime": 0,
		"channel": 9,
		"type": "channel",
		"noteNumber": 42,
		"velocity": 127,
		"subtype": "noteOn",
		"time": 111840,
		"track": 5
	},
	{
		"deltaTime": 0,
		"channel": 9,
		"type": "channel",
		"noteNumber": 38,
		"velocity": 127,
		"subtype": "noteOn",
		"time": 111840,
		"track": 5
	},
	{
		"deltaTime": 60,
		"channel": 9,
		"type": "channel",
		"noteNumber": 40,
		"velocity": 127,
		"subtype": "noteOn",
		"time": 111840,
		"track": 5
	},
	{
		"deltaTime": 0,
		"channel": 9,
		"type": "channel",
		"subtype": "noteOff",
		"noteNumber": 40,
		"velocity": 0,
		"time": 111900,
		"track": 5
	},
	{
		"deltaTime": 0,
		"channel": 9,
		"type": "channel",
		"subtype": "noteOff",
		"noteNumber": 38,
		"velocity": 0,
		"time": 111900,
		"track": 5
	},
	{
		"deltaTime": 60,
		"channel": 9,
		"type": "channel",
		"subtype": "noteOff",
		"noteNumber": 42,
		"velocity": 0,
		"time": 111900,
		"track": 5
	},
	{
		"deltaTime": 60,
		"channel": 9,
		"type": "channel",
		"noteNumber": 42,
		"velocity": 127,
		"subtype": "noteOn",
		"time": 111960,
		"track": 5
	},
	{
		"deltaTime": 60,
		"channel": 9,
		"type": "channel",
		"subtype": "noteOff",
		"noteNumber": 42,
		"velocity": 0,
		"time": 112020,
		"track": 5
	},
	{
		"deltaTime": 60,
		"channel": 9,
		"type": "channel",
		"noteNumber": 42,
		"velocity": 127,
		"subtype": "noteOn",
		"time": 112080,
		"track": 5
	},
	{
		"deltaTime": 60,
		"channel": 9,
		"type": "channel",
		"subtype": "noteOff",
		"noteNumber": 42,
		"velocity": 0,
		"time": 112140,
		"track": 5
	},
	{
		"deltaTime": 0,
		"channel": 1,
		"type": "channel",
		"subtype": "noteOff",
		"noteNumber": 61,
		"velocity": 0,
		"time": 112200,
		"track": 3
	},
	{
		"deltaTime": 0,
		"channel": 1,
		"type": "channel",
		"noteNumber": 58,
		"velocity": 127,
		"subtype": "noteOn",
		"time": 112200,
		"track": 3
	},
	{
		"deltaTime": 0,
		"channel": 9,
		"type": "channel",
		"noteNumber": 42,
		"velocity": 127,
		"subtype": "noteOn",
		"time": 112200,
		"track": 5
	},
	{
		"deltaTime": 0,
		"channel": 9,
		"type": "channel",
		"noteNumber": 36,
		"velocity": 127,
		"subtype": "noteOn",
		"time": 112200,
		"track": 5
	},
	{
		"deltaTime": 60,
		"channel": 9,
		"type": "channel",
		"noteNumber": 35,
		"velocity": 127,
		"subtype": "noteOn",
		"time": 112200,
		"track": 5
	},
	{
		"deltaTime": 0,
		"channel": 9,
		"type": "channel",
		"subtype": "noteOff",
		"noteNumber": 35,
		"velocity": 0,
		"time": 112260,
		"track": 5
	},
	{
		"deltaTime": 0,
		"channel": 9,
		"type": "channel",
		"subtype": "noteOff",
		"noteNumber": 36,
		"velocity": 0,
		"time": 112260,
		"track": 5
	},
	{
		"deltaTime": 60,
		"channel": 9,
		"type": "channel",
		"subtype": "noteOff",
		"noteNumber": 42,
		"velocity": 0,
		"time": 112260,
		"track": 5
	},
	{
		"deltaTime": 0,
		"channel": 0,
		"type": "channel",
		"subtype": "noteOff",
		"noteNumber": 42,
		"velocity": 0,
		"time": 112320,
		"track": 2
	},
	{
		"deltaTime": 0,
		"channel": 0,
		"type": "channel",
		"noteNumber": 35,
		"velocity": 127,
		"subtype": "noteOn",
		"time": 112320,
		"track": 2
	},
	{
		"deltaTime": 0,
		"channel": 1,
		"type": "channel",
		"subtype": "noteOff",
		"noteNumber": 58,
		"velocity": 0,
		"time": 112320,
		"track": 3
	},
	{
		"deltaTime": 0,
		"channel": 1,
		"type": "channel",
		"noteNumber": 59,
		"velocity": 127,
		"subtype": "noteOn",
		"time": 112320,
		"track": 3
	},
	{
		"deltaTime": 0,
		"channel": 2,
		"type": "channel",
		"subtype": "noteOff",
		"noteNumber": 61,
		"velocity": 0,
		"time": 112320,
		"track": 4
	},
	{
		"deltaTime": 0,
		"channel": 2,
		"type": "channel",
		"subtype": "noteOff",
		"noteNumber": 58,
		"velocity": 0,
		"time": 112320,
		"track": 4
	},
	{
		"deltaTime": 0,
		"channel": 2,
		"type": "channel",
		"subtype": "noteOff",
		"noteNumber": 49,
		"velocity": 0,
		"time": 112320,
		"track": 4
	},
	{
		"deltaTime": 0,
		"channel": 2,
		"type": "channel",
		"subtype": "noteOff",
		"noteNumber": 42,
		"velocity": 0,
		"time": 112320,
		"track": 4
	},
	{
		"deltaTime": 0,
		"channel": 2,
		"type": "channel",
		"noteNumber": 47,
		"velocity": 127,
		"subtype": "noteOn",
		"time": 112320,
		"track": 4
	},
	{
		"deltaTime": 0,
		"channel": 2,
		"type": "channel",
		"noteNumber": 54,
		"velocity": 127,
		"subtype": "noteOn",
		"time": 112320,
		"track": 4
	},
	{
		"deltaTime": 0,
		"channel": 2,
		"type": "channel",
		"noteNumber": 59,
		"velocity": 127,
		"subtype": "noteOn",
		"time": 112320,
		"track": 4
	},
	{
		"deltaTime": 0,
		"channel": 2,
		"type": "channel",
		"noteNumber": 66,
		"velocity": 127,
		"subtype": "noteOn",
		"time": 112320,
		"track": 4
	},
	{
		"deltaTime": 60,
		"channel": 9,
		"type": "channel",
		"noteNumber": 42,
		"velocity": 127,
		"subtype": "noteOn",
		"time": 112320,
		"track": 5
	},
	{
		"deltaTime": 60,
		"channel": 9,
		"type": "channel",
		"subtype": "noteOff",
		"noteNumber": 42,
		"velocity": 0,
		"time": 112380,
		"track": 5
	},
	{
		"deltaTime": 60,
		"channel": 9,
		"type": "channel",
		"noteNumber": 42,
		"velocity": 127,
		"subtype": "noteOn",
		"time": 112440,
		"track": 5
	},
	{
		"deltaTime": 60,
		"channel": 9,
		"type": "channel",
		"subtype": "noteOff",
		"noteNumber": 42,
		"velocity": 0,
		"time": 112500,
		"track": 5
	},
	{
		"deltaTime": 0,
		"channel": 1,
		"type": "channel",
		"subtype": "noteOff",
		"noteNumber": 59,
		"velocity": 0,
		"time": 112560,
		"track": 3
	},
	{
		"deltaTime": 0,
		"channel": 1,
		"type": "channel",
		"noteNumber": 63,
		"velocity": 127,
		"subtype": "noteOn",
		"time": 112560,
		"track": 3
	},
	{
		"deltaTime": 0,
		"channel": 2,
		"type": "channel",
		"subtype": "noteOff",
		"noteNumber": 66,
		"velocity": 0,
		"time": 112560,
		"track": 4
	},
	{
		"deltaTime": 0,
		"channel": 2,
		"type": "channel",
		"subtype": "noteOff",
		"noteNumber": 59,
		"velocity": 0,
		"time": 112560,
		"track": 4
	},
	{
		"deltaTime": 0,
		"channel": 2,
		"type": "channel",
		"subtype": "noteOff",
		"noteNumber": 54,
		"velocity": 0,
		"time": 112560,
		"track": 4
	},
	{
		"deltaTime": 0,
		"channel": 2,
		"type": "channel",
		"subtype": "noteOff",
		"noteNumber": 47,
		"velocity": 0,
		"time": 112560,
		"track": 4
	},
	{
		"deltaTime": 0,
		"channel": 2,
		"type": "channel",
		"noteNumber": 54,
		"velocity": 127,
		"subtype": "noteOn",
		"time": 112560,
		"track": 4
	},
	{
		"deltaTime": 0,
		"channel": 2,
		"type": "channel",
		"noteNumber": 59,
		"velocity": 127,
		"subtype": "noteOn",
		"time": 112560,
		"track": 4
	},
	{
		"deltaTime": 0,
		"channel": 2,
		"type": "channel",
		"noteNumber": 63,
		"velocity": 127,
		"subtype": "noteOn",
		"time": 112560,
		"track": 4
	},
	{
		"deltaTime": 0,
		"channel": 9,
		"type": "channel",
		"noteNumber": 42,
		"velocity": 127,
		"subtype": "noteOn",
		"time": 112560,
		"track": 5
	},
	{
		"deltaTime": 0,
		"channel": 9,
		"type": "channel",
		"noteNumber": 36,
		"velocity": 127,
		"subtype": "noteOn",
		"time": 112560,
		"track": 5
	},
	{
		"deltaTime": 60,
		"channel": 9,
		"type": "channel",
		"noteNumber": 35,
		"velocity": 127,
		"subtype": "noteOn",
		"time": 112560,
		"track": 5
	},
	{
		"deltaTime": 0,
		"channel": 9,
		"type": "channel",
		"subtype": "noteOff",
		"noteNumber": 35,
		"velocity": 0,
		"time": 112620,
		"track": 5
	},
	{
		"deltaTime": 0,
		"channel": 9,
		"type": "channel",
		"subtype": "noteOff",
		"noteNumber": 36,
		"velocity": 0,
		"time": 112620,
		"track": 5
	},
	{
		"deltaTime": 60,
		"channel": 9,
		"type": "channel",
		"subtype": "noteOff",
		"noteNumber": 42,
		"velocity": 0,
		"time": 112620,
		"track": 5
	},
	{
		"deltaTime": 0,
		"channel": 1,
		"type": "channel",
		"subtype": "noteOff",
		"noteNumber": 63,
		"velocity": 0,
		"time": 112680,
		"track": 3
	},
	{
		"deltaTime": 0,
		"channel": 1,
		"type": "channel",
		"noteNumber": 58,
		"velocity": 127,
		"subtype": "noteOn",
		"time": 112680,
		"track": 3
	},
	{
		"deltaTime": 60,
		"channel": 9,
		"type": "channel",
		"noteNumber": 42,
		"velocity": 127,
		"subtype": "noteOn",
		"time": 112680,
		"track": 5
	},
	{
		"deltaTime": 60,
		"channel": 9,
		"type": "channel",
		"subtype": "noteOff",
		"noteNumber": 42,
		"velocity": 0,
		"time": 112740,
		"track": 5
	},
	{
		"deltaTime": 0,
		"channel": 0,
		"type": "channel",
		"subtype": "noteOff",
		"noteNumber": 35,
		"velocity": 0,
		"time": 112800,
		"track": 2
	},
	{
		"deltaTime": 0,
		"channel": 0,
		"type": "channel",
		"noteNumber": 34,
		"velocity": 127,
		"subtype": "noteOn",
		"time": 112800,
		"track": 2
	},
	{
		"deltaTime": 0,
		"channel": 2,
		"type": "channel",
		"subtype": "noteOff",
		"noteNumber": 63,
		"velocity": 0,
		"time": 112800,
		"track": 4
	},
	{
		"deltaTime": 0,
		"channel": 2,
		"type": "channel",
		"subtype": "noteOff",
		"noteNumber": 59,
		"velocity": 0,
		"time": 112800,
		"track": 4
	},
	{
		"deltaTime": 0,
		"channel": 2,
		"type": "channel",
		"subtype": "noteOff",
		"noteNumber": 54,
		"velocity": 0,
		"time": 112800,
		"track": 4
	},
	{
		"deltaTime": 0,
		"channel": 2,
		"type": "channel",
		"noteNumber": 46,
		"velocity": 127,
		"subtype": "noteOn",
		"time": 112800,
		"track": 4
	},
	{
		"deltaTime": 0,
		"channel": 2,
		"type": "channel",
		"noteNumber": 54,
		"velocity": 127,
		"subtype": "noteOn",
		"time": 112800,
		"track": 4
	},
	{
		"deltaTime": 0,
		"channel": 9,
		"type": "channel",
		"noteNumber": 42,
		"velocity": 127,
		"subtype": "noteOn",
		"time": 112800,
		"track": 5
	},
	{
		"deltaTime": 0,
		"channel": 9,
		"type": "channel",
		"noteNumber": 40,
		"velocity": 127,
		"subtype": "noteOn",
		"time": 112800,
		"track": 5
	},
	{
		"deltaTime": 60,
		"channel": 9,
		"type": "channel",
		"noteNumber": 38,
		"velocity": 127,
		"subtype": "noteOn",
		"time": 112800,
		"track": 5
	},
	{
		"deltaTime": 0,
		"channel": 9,
		"type": "channel",
		"subtype": "noteOff",
		"noteNumber": 38,
		"velocity": 0,
		"time": 112860,
		"track": 5
	},
	{
		"deltaTime": 0,
		"channel": 9,
		"type": "channel",
		"subtype": "noteOff",
		"noteNumber": 40,
		"velocity": 0,
		"time": 112860,
		"track": 5
	},
	{
		"deltaTime": 60,
		"channel": 9,
		"type": "channel",
		"subtype": "noteOff",
		"noteNumber": 42,
		"velocity": 0,
		"time": 112860,
		"track": 5
	},
	{
		"deltaTime": 60,
		"channel": 9,
		"type": "channel",
		"noteNumber": 42,
		"velocity": 127,
		"subtype": "noteOn",
		"time": 112920,
		"track": 5
	},
	{
		"deltaTime": 60,
		"channel": 9,
		"type": "channel",
		"subtype": "noteOff",
		"noteNumber": 42,
		"velocity": 0,
		"time": 112980,
		"track": 5
	},
	{
		"deltaTime": 0,
		"channel": 1,
		"type": "channel",
		"subtype": "noteOff",
		"noteNumber": 58,
		"velocity": 0,
		"time": 113040,
		"track": 3
	},
	{
		"deltaTime": 0,
		"channel": 1,
		"type": "channel",
		"noteNumber": 63,
		"velocity": 127,
		"subtype": "noteOn",
		"time": 113040,
		"track": 3
	},
	{
		"deltaTime": 0,
		"channel": 2,
		"type": "channel",
		"subtype": "noteOff",
		"noteNumber": 54,
		"velocity": 0,
		"time": 113040,
		"track": 4
	},
	{
		"deltaTime": 0,
		"channel": 2,
		"type": "channel",
		"subtype": "noteOff",
		"noteNumber": 46,
		"velocity": 0,
		"time": 113040,
		"track": 4
	},
	{
		"deltaTime": 0,
		"channel": 2,
		"type": "channel",
		"noteNumber": 54,
		"velocity": 127,
		"subtype": "noteOn",
		"time": 113040,
		"track": 4
	},
	{
		"deltaTime": 0,
		"channel": 2,
		"type": "channel",
		"noteNumber": 59,
		"velocity": 127,
		"subtype": "noteOn",
		"time": 113040,
		"track": 4
	},
	{
		"deltaTime": 0,
		"channel": 2,
		"type": "channel",
		"noteNumber": 63,
		"velocity": 127,
		"subtype": "noteOn",
		"time": 113040,
		"track": 4
	},
	{
		"deltaTime": 60,
		"channel": 9,
		"type": "channel",
		"noteNumber": 42,
		"velocity": 127,
		"subtype": "noteOn",
		"time": 113040,
		"track": 5
	},
	{
		"deltaTime": 60,
		"channel": 9,
		"type": "channel",
		"subtype": "noteOff",
		"noteNumber": 42,
		"velocity": 0,
		"time": 113100,
		"track": 5
	},
	{
		"deltaTime": 0,
		"channel": 1,
		"type": "channel",
		"subtype": "noteOff",
		"noteNumber": 63,
		"velocity": 0,
		"time": 113160,
		"track": 3
	},
	{
		"deltaTime": 0,
		"channel": 1,
		"type": "channel",
		"noteNumber": 56,
		"velocity": 127,
		"subtype": "noteOn",
		"time": 113160,
		"track": 3
	},
	{
		"deltaTime": 60,
		"channel": 9,
		"type": "channel",
		"noteNumber": 42,
		"velocity": 127,
		"subtype": "noteOn",
		"time": 113160,
		"track": 5
	},
	{
		"deltaTime": 60,
		"channel": 9,
		"type": "channel",
		"subtype": "noteOff",
		"noteNumber": 42,
		"velocity": 0,
		"time": 113220,
		"track": 5
	},
	{
		"deltaTime": 0,
		"channel": 0,
		"type": "channel",
		"subtype": "noteOff",
		"noteNumber": 34,
		"velocity": 0,
		"time": 113280,
		"track": 2
	},
	{
		"deltaTime": 0,
		"channel": 0,
		"type": "channel",
		"noteNumber": 32,
		"velocity": 127,
		"subtype": "noteOn",
		"time": 113280,
		"track": 2
	},
	{
		"deltaTime": 0,
		"channel": 2,
		"type": "channel",
		"subtype": "noteOff",
		"noteNumber": 63,
		"velocity": 0,
		"time": 113280,
		"track": 4
	},
	{
		"deltaTime": 0,
		"channel": 2,
		"type": "channel",
		"subtype": "noteOff",
		"noteNumber": 59,
		"velocity": 0,
		"time": 113280,
		"track": 4
	},
	{
		"deltaTime": 0,
		"channel": 2,
		"type": "channel",
		"subtype": "noteOff",
		"noteNumber": 54,
		"velocity": 0,
		"time": 113280,
		"track": 4
	},
	{
		"deltaTime": 0,
		"channel": 2,
		"type": "channel",
		"noteNumber": 44,
		"velocity": 127,
		"subtype": "noteOn",
		"time": 113280,
		"track": 4
	},
	{
		"deltaTime": 0,
		"channel": 2,
		"type": "channel",
		"noteNumber": 51,
		"velocity": 127,
		"subtype": "noteOn",
		"time": 113280,
		"track": 4
	},
	{
		"deltaTime": 0,
		"channel": 2,
		"type": "channel",
		"noteNumber": 56,
		"velocity": 127,
		"subtype": "noteOn",
		"time": 113280,
		"track": 4
	},
	{
		"deltaTime": 0,
		"channel": 2,
		"type": "channel",
		"noteNumber": 59,
		"velocity": 127,
		"subtype": "noteOn",
		"time": 113280,
		"track": 4
	},
	{
		"deltaTime": 0,
		"channel": 2,
		"type": "channel",
		"noteNumber": 63,
		"velocity": 127,
		"subtype": "noteOn",
		"time": 113280,
		"track": 4
	},
	{
		"deltaTime": 0,
		"channel": 9,
		"type": "channel",
		"noteNumber": 42,
		"velocity": 127,
		"subtype": "noteOn",
		"time": 113280,
		"track": 5
	},
	{
		"deltaTime": 0,
		"channel": 9,
		"type": "channel",
		"noteNumber": 35,
		"velocity": 127,
		"subtype": "noteOn",
		"time": 113280,
		"track": 5
	},
	{
		"deltaTime": 60,
		"channel": 9,
		"type": "channel",
		"noteNumber": 36,
		"velocity": 127,
		"subtype": "noteOn",
		"time": 113280,
		"track": 5
	},
	{
		"deltaTime": 0,
		"channel": 9,
		"type": "channel",
		"subtype": "noteOff",
		"noteNumber": 36,
		"velocity": 0,
		"time": 113340,
		"track": 5
	},
	{
		"deltaTime": 0,
		"channel": 9,
		"type": "channel",
		"subtype": "noteOff",
		"noteNumber": 35,
		"velocity": 0,
		"time": 113340,
		"track": 5
	},
	{
		"deltaTime": 60,
		"channel": 9,
		"type": "channel",
		"subtype": "noteOff",
		"noteNumber": 42,
		"velocity": 0,
		"time": 113340,
		"track": 5
	},
	{
		"deltaTime": 60,
		"channel": 9,
		"type": "channel",
		"noteNumber": 42,
		"velocity": 127,
		"subtype": "noteOn",
		"time": 113400,
		"track": 5
	},
	{
		"deltaTime": 60,
		"channel": 9,
		"type": "channel",
		"subtype": "noteOff",
		"noteNumber": 42,
		"velocity": 0,
		"time": 113460,
		"track": 5
	},
	{
		"deltaTime": 0,
		"channel": 1,
		"type": "channel",
		"subtype": "noteOff",
		"noteNumber": 56,
		"velocity": 0,
		"time": 113520,
		"track": 3
	},
	{
		"deltaTime": 0,
		"channel": 9,
		"type": "channel",
		"noteNumber": 42,
		"velocity": 127,
		"subtype": "noteOn",
		"time": 113520,
		"track": 5
	},
	{
		"deltaTime": 0,
		"channel": 9,
		"type": "channel",
		"noteNumber": 36,
		"velocity": 127,
		"subtype": "noteOn",
		"time": 113520,
		"track": 5
	},
	{
		"deltaTime": 60,
		"channel": 9,
		"type": "channel",
		"noteNumber": 35,
		"velocity": 127,
		"subtype": "noteOn",
		"time": 113520,
		"track": 5
	},
	{
		"deltaTime": 0,
		"channel": 9,
		"type": "channel",
		"subtype": "noteOff",
		"noteNumber": 35,
		"velocity": 0,
		"time": 113580,
		"track": 5
	},
	{
		"deltaTime": 0,
		"channel": 9,
		"type": "channel",
		"subtype": "noteOff",
		"noteNumber": 36,
		"velocity": 0,
		"time": 113580,
		"track": 5
	},
	{
		"deltaTime": 60,
		"channel": 9,
		"type": "channel",
		"subtype": "noteOff",
		"noteNumber": 42,
		"velocity": 0,
		"time": 113580,
		"track": 5
	},
	{
		"deltaTime": 0,
		"channel": 1,
		"type": "channel",
		"noteNumber": 56,
		"velocity": 127,
		"subtype": "noteOn",
		"time": 113640,
		"track": 3
	},
	{
		"deltaTime": 0,
		"channel": 2,
		"type": "channel",
		"subtype": "noteOff",
		"noteNumber": 63,
		"velocity": 0,
		"time": 113640,
		"track": 4
	},
	{
		"deltaTime": 0,
		"channel": 2,
		"type": "channel",
		"subtype": "noteOff",
		"noteNumber": 59,
		"velocity": 0,
		"time": 113640,
		"track": 4
	},
	{
		"deltaTime": 0,
		"channel": 2,
		"type": "channel",
		"subtype": "noteOff",
		"noteNumber": 56,
		"velocity": 0,
		"time": 113640,
		"track": 4
	},
	{
		"deltaTime": 0,
		"channel": 2,
		"type": "channel",
		"subtype": "noteOff",
		"noteNumber": 51,
		"velocity": 0,
		"time": 113640,
		"track": 4
	},
	{
		"deltaTime": 0,
		"channel": 2,
		"type": "channel",
		"subtype": "noteOff",
		"noteNumber": 44,
		"velocity": 0,
		"time": 113640,
		"track": 4
	},
	{
		"deltaTime": 0,
		"channel": 2,
		"type": "channel",
		"noteNumber": 56,
		"velocity": 127,
		"subtype": "noteOn",
		"time": 113640,
		"track": 4
	},
	{
		"deltaTime": 0,
		"channel": 2,
		"type": "channel",
		"noteNumber": 59,
		"velocity": 127,
		"subtype": "noteOn",
		"time": 113640,
		"track": 4
	},
	{
		"deltaTime": 60,
		"channel": 9,
		"type": "channel",
		"noteNumber": 42,
		"velocity": 127,
		"subtype": "noteOn",
		"time": 113640,
		"track": 5
	},
	{
		"deltaTime": 60,
		"channel": 9,
		"type": "channel",
		"subtype": "noteOff",
		"noteNumber": 42,
		"velocity": 0,
		"time": 113700,
		"track": 5
	},
	{
		"deltaTime": 0,
		"channel": 1,
		"type": "channel",
		"subtype": "noteOff",
		"noteNumber": 56,
		"velocity": 0,
		"time": 113760,
		"track": 3
	},
	{
		"deltaTime": 0,
		"channel": 1,
		"type": "channel",
		"noteNumber": 63,
		"velocity": 127,
		"subtype": "noteOn",
		"time": 113760,
		"track": 3
	},
	{
		"deltaTime": 0,
		"channel": 2,
		"type": "channel",
		"subtype": "noteOff",
		"noteNumber": 59,
		"velocity": 0,
		"time": 113760,
		"track": 4
	},
	{
		"deltaTime": 0,
		"channel": 2,
		"type": "channel",
		"subtype": "noteOff",
		"noteNumber": 56,
		"velocity": 0,
		"time": 113760,
		"track": 4
	},
	{
		"deltaTime": 0,
		"channel": 2,
		"type": "channel",
		"noteNumber": 51,
		"velocity": 127,
		"subtype": "noteOn",
		"time": 113760,
		"track": 4
	},
	{
		"deltaTime": 0,
		"channel": 2,
		"type": "channel",
		"noteNumber": 59,
		"velocity": 127,
		"subtype": "noteOn",
		"time": 113760,
		"track": 4
	},
	{
		"deltaTime": 0,
		"channel": 2,
		"type": "channel",
		"noteNumber": 63,
		"velocity": 127,
		"subtype": "noteOn",
		"time": 113760,
		"track": 4
	},
	{
		"deltaTime": 0,
		"channel": 9,
		"type": "channel",
		"noteNumber": 42,
		"velocity": 127,
		"subtype": "noteOn",
		"time": 113760,
		"track": 5
	},
	{
		"deltaTime": 0,
		"channel": 9,
		"type": "channel",
		"noteNumber": 38,
		"velocity": 127,
		"subtype": "noteOn",
		"time": 113760,
		"track": 5
	},
	{
		"deltaTime": 60,
		"channel": 9,
		"type": "channel",
		"noteNumber": 40,
		"velocity": 127,
		"subtype": "noteOn",
		"time": 113760,
		"track": 5
	},
	{
		"deltaTime": 0,
		"channel": 9,
		"type": "channel",
		"subtype": "noteOff",
		"noteNumber": 40,
		"velocity": 0,
		"time": 113820,
		"track": 5
	},
	{
		"deltaTime": 0,
		"channel": 9,
		"type": "channel",
		"subtype": "noteOff",
		"noteNumber": 38,
		"velocity": 0,
		"time": 113820,
		"track": 5
	},
	{
		"deltaTime": 60,
		"channel": 9,
		"type": "channel",
		"subtype": "noteOff",
		"noteNumber": 42,
		"velocity": 0,
		"time": 113820,
		"track": 5
	},
	{
		"deltaTime": 0,
		"channel": 1,
		"type": "channel",
		"subtype": "noteOff",
		"noteNumber": 63,
		"velocity": 0,
		"time": 113880,
		"track": 3
	},
	{
		"deltaTime": 0,
		"channel": 1,
		"type": "channel",
		"noteNumber": 63,
		"velocity": 127,
		"subtype": "noteOn",
		"time": 113880,
		"track": 3
	},
	{
		"deltaTime": 60,
		"channel": 9,
		"type": "channel",
		"noteNumber": 42,
		"velocity": 127,
		"subtype": "noteOn",
		"time": 113880,
		"track": 5
	},
	{
		"deltaTime": 60,
		"channel": 9,
		"type": "channel",
		"subtype": "noteOff",
		"noteNumber": 42,
		"velocity": 0,
		"time": 113940,
		"track": 5
	},
	{
		"deltaTime": 60,
		"channel": 9,
		"type": "channel",
		"noteNumber": 42,
		"velocity": 127,
		"subtype": "noteOn",
		"time": 114000,
		"track": 5
	},
	{
		"deltaTime": 60,
		"channel": 9,
		"type": "channel",
		"subtype": "noteOff",
		"noteNumber": 42,
		"velocity": 0,
		"time": 114060,
		"track": 5
	},
	{
		"deltaTime": 0,
		"channel": 1,
		"type": "channel",
		"subtype": "noteOff",
		"noteNumber": 63,
		"velocity": 0,
		"time": 114120,
		"track": 3
	},
	{
		"deltaTime": 0,
		"channel": 1,
		"type": "channel",
		"noteNumber": 63,
		"velocity": 127,
		"subtype": "noteOn",
		"time": 114120,
		"track": 3
	},
	{
		"deltaTime": 0,
		"channel": 9,
		"type": "channel",
		"noteNumber": 42,
		"velocity": 127,
		"subtype": "noteOn",
		"time": 114120,
		"track": 5
	},
	{
		"deltaTime": 0,
		"channel": 9,
		"type": "channel",
		"noteNumber": 36,
		"velocity": 127,
		"subtype": "noteOn",
		"time": 114120,
		"track": 5
	},
	{
		"deltaTime": 60,
		"channel": 9,
		"type": "channel",
		"noteNumber": 35,
		"velocity": 127,
		"subtype": "noteOn",
		"time": 114120,
		"track": 5
	},
	{
		"deltaTime": 0,
		"channel": 9,
		"type": "channel",
		"subtype": "noteOff",
		"noteNumber": 35,
		"velocity": 0,
		"time": 114180,
		"track": 5
	},
	{
		"deltaTime": 0,
		"channel": 9,
		"type": "channel",
		"subtype": "noteOff",
		"noteNumber": 36,
		"velocity": 0,
		"time": 114180,
		"track": 5
	},
	{
		"deltaTime": 60,
		"channel": 9,
		"type": "channel",
		"subtype": "noteOff",
		"noteNumber": 42,
		"velocity": 0,
		"time": 114180,
		"track": 5
	},
	{
		"deltaTime": 0,
		"channel": 0,
		"type": "channel",
		"subtype": "noteOff",
		"noteNumber": 32,
		"velocity": 0,
		"time": 114240,
		"track": 2
	},
	{
		"deltaTime": 0,
		"channel": 0,
		"type": "channel",
		"noteNumber": 40,
		"velocity": 127,
		"subtype": "noteOn",
		"time": 114240,
		"track": 2
	},
	{
		"deltaTime": 0,
		"channel": 2,
		"type": "channel",
		"subtype": "noteOff",
		"noteNumber": 63,
		"velocity": 0,
		"time": 114240,
		"track": 4
	},
	{
		"deltaTime": 0,
		"channel": 2,
		"type": "channel",
		"subtype": "noteOff",
		"noteNumber": 59,
		"velocity": 0,
		"time": 114240,
		"track": 4
	},
	{
		"deltaTime": 0,
		"channel": 2,
		"type": "channel",
		"subtype": "noteOff",
		"noteNumber": 51,
		"velocity": 0,
		"time": 114240,
		"track": 4
	},
	{
		"deltaTime": 0,
		"channel": 2,
		"type": "channel",
		"noteNumber": 40,
		"velocity": 127,
		"subtype": "noteOn",
		"time": 114240,
		"track": 4
	},
	{
		"deltaTime": 0,
		"channel": 2,
		"type": "channel",
		"noteNumber": 47,
		"velocity": 127,
		"subtype": "noteOn",
		"time": 114240,
		"track": 4
	},
	{
		"deltaTime": 0,
		"channel": 2,
		"type": "channel",
		"noteNumber": 52,
		"velocity": 127,
		"subtype": "noteOn",
		"time": 114240,
		"track": 4
	},
	{
		"deltaTime": 0,
		"channel": 2,
		"type": "channel",
		"noteNumber": 56,
		"velocity": 127,
		"subtype": "noteOn",
		"time": 114240,
		"track": 4
	},
	{
		"deltaTime": 60,
		"channel": 9,
		"type": "channel",
		"noteNumber": 42,
		"velocity": 127,
		"subtype": "noteOn",
		"time": 114240,
		"track": 5
	},
	{
		"deltaTime": 60,
		"channel": 9,
		"type": "channel",
		"subtype": "noteOff",
		"noteNumber": 42,
		"velocity": 0,
		"time": 114300,
		"track": 5
	},
	{
		"deltaTime": 0,
		"channel": 1,
		"type": "channel",
		"subtype": "noteOff",
		"noteNumber": 63,
		"velocity": 0,
		"time": 114360,
		"track": 3
	},
	{
		"deltaTime": 0,
		"channel": 1,
		"type": "channel",
		"noteNumber": 64,
		"velocity": 127,
		"subtype": "noteOn",
		"time": 114360,
		"track": 3
	},
	{
		"deltaTime": 60,
		"channel": 9,
		"type": "channel",
		"noteNumber": 42,
		"velocity": 127,
		"subtype": "noteOn",
		"time": 114360,
		"track": 5
	},
	{
		"deltaTime": 60,
		"channel": 9,
		"type": "channel",
		"subtype": "noteOff",
		"noteNumber": 42,
		"velocity": 0,
		"time": 114420,
		"track": 5
	},
	{
		"deltaTime": 0,
		"channel": 9,
		"type": "channel",
		"noteNumber": 42,
		"velocity": 127,
		"subtype": "noteOn",
		"time": 114480,
		"track": 5
	},
	{
		"deltaTime": 0,
		"channel": 9,
		"type": "channel",
		"noteNumber": 36,
		"velocity": 127,
		"subtype": "noteOn",
		"time": 114480,
		"track": 5
	},
	{
		"deltaTime": 60,
		"channel": 9,
		"type": "channel",
		"noteNumber": 35,
		"velocity": 127,
		"subtype": "noteOn",
		"time": 114480,
		"track": 5
	},
	{
		"deltaTime": 0,
		"channel": 9,
		"type": "channel",
		"subtype": "noteOff",
		"noteNumber": 35,
		"velocity": 0,
		"time": 114540,
		"track": 5
	},
	{
		"deltaTime": 0,
		"channel": 9,
		"type": "channel",
		"subtype": "noteOff",
		"noteNumber": 36,
		"velocity": 0,
		"time": 114540,
		"track": 5
	},
	{
		"deltaTime": 60,
		"channel": 9,
		"type": "channel",
		"subtype": "noteOff",
		"noteNumber": 42,
		"velocity": 0,
		"time": 114540,
		"track": 5
	},
	{
		"deltaTime": 0,
		"channel": 1,
		"type": "channel",
		"subtype": "noteOff",
		"noteNumber": 64,
		"velocity": 0,
		"time": 114600,
		"track": 3
	},
	{
		"deltaTime": 0,
		"channel": 1,
		"type": "channel",
		"noteNumber": 61,
		"velocity": 127,
		"subtype": "noteOn",
		"time": 114600,
		"track": 3
	},
	{
		"deltaTime": 0,
		"channel": 2,
		"type": "channel",
		"subtype": "noteOff",
		"noteNumber": 56,
		"velocity": 0,
		"time": 114600,
		"track": 4
	},
	{
		"deltaTime": 0,
		"channel": 2,
		"type": "channel",
		"subtype": "noteOff",
		"noteNumber": 52,
		"velocity": 0,
		"time": 114600,
		"track": 4
	},
	{
		"deltaTime": 0,
		"channel": 2,
		"type": "channel",
		"subtype": "noteOff",
		"noteNumber": 47,
		"velocity": 0,
		"time": 114600,
		"track": 4
	},
	{
		"deltaTime": 0,
		"channel": 2,
		"type": "channel",
		"subtype": "noteOff",
		"noteNumber": 40,
		"velocity": 0,
		"time": 114600,
		"track": 4
	},
	{
		"deltaTime": 0,
		"channel": 2,
		"type": "channel",
		"noteNumber": 52,
		"velocity": 127,
		"subtype": "noteOn",
		"time": 114600,
		"track": 4
	},
	{
		"deltaTime": 0,
		"channel": 2,
		"type": "channel",
		"noteNumber": 56,
		"velocity": 127,
		"subtype": "noteOn",
		"time": 114600,
		"track": 4
	},
	{
		"deltaTime": 60,
		"channel": 9,
		"type": "channel",
		"noteNumber": 42,
		"velocity": 127,
		"subtype": "noteOn",
		"time": 114600,
		"track": 5
	},
	{
		"deltaTime": 60,
		"channel": 9,
		"type": "channel",
		"subtype": "noteOff",
		"noteNumber": 42,
		"velocity": 0,
		"time": 114660,
		"track": 5
	},
	{
		"deltaTime": 0,
		"channel": 2,
		"type": "channel",
		"subtype": "noteOff",
		"noteNumber": 56,
		"velocity": 0,
		"time": 114720,
		"track": 4
	},
	{
		"deltaTime": 0,
		"channel": 2,
		"type": "channel",
		"subtype": "noteOff",
		"noteNumber": 52,
		"velocity": 0,
		"time": 114720,
		"track": 4
	},
	{
		"deltaTime": 0,
		"channel": 2,
		"type": "channel",
		"noteNumber": 40,
		"velocity": 127,
		"subtype": "noteOn",
		"time": 114720,
		"track": 4
	},
	{
		"deltaTime": 0,
		"channel": 2,
		"type": "channel",
		"noteNumber": 52,
		"velocity": 127,
		"subtype": "noteOn",
		"time": 114720,
		"track": 4
	},
	{
		"deltaTime": 0,
		"channel": 2,
		"type": "channel",
		"noteNumber": 56,
		"velocity": 127,
		"subtype": "noteOn",
		"time": 114720,
		"track": 4
	},
	{
		"deltaTime": 0,
		"channel": 2,
		"type": "channel",
		"noteNumber": 59,
		"velocity": 127,
		"subtype": "noteOn",
		"time": 114720,
		"track": 4
	},
	{
		"deltaTime": 0,
		"channel": 9,
		"type": "channel",
		"noteNumber": 42,
		"velocity": 127,
		"subtype": "noteOn",
		"time": 114720,
		"track": 5
	},
	{
		"deltaTime": 0,
		"channel": 9,
		"type": "channel",
		"noteNumber": 40,
		"velocity": 127,
		"subtype": "noteOn",
		"time": 114720,
		"track": 5
	},
	{
		"deltaTime": 60,
		"channel": 9,
		"type": "channel",
		"noteNumber": 38,
		"velocity": 127,
		"subtype": "noteOn",
		"time": 114720,
		"track": 5
	},
	{
		"deltaTime": 0,
		"channel": 9,
		"type": "channel",
		"subtype": "noteOff",
		"noteNumber": 38,
		"velocity": 0,
		"time": 114780,
		"track": 5
	},
	{
		"deltaTime": 0,
		"channel": 9,
		"type": "channel",
		"subtype": "noteOff",
		"noteNumber": 40,
		"velocity": 0,
		"time": 114780,
		"track": 5
	},
	{
		"deltaTime": 60,
		"channel": 9,
		"type": "channel",
		"subtype": "noteOff",
		"noteNumber": 42,
		"velocity": 0,
		"time": 114780,
		"track": 5
	},
	{
		"deltaTime": 0,
		"channel": 1,
		"type": "channel",
		"subtype": "noteOff",
		"noteNumber": 61,
		"velocity": 0,
		"time": 114840,
		"track": 3
	},
	{
		"deltaTime": 0,
		"channel": 1,
		"type": "channel",
		"noteNumber": 59,
		"velocity": 127,
		"subtype": "noteOn",
		"time": 114840,
		"track": 3
	},
	{
		"deltaTime": 60,
		"channel": 9,
		"type": "channel",
		"noteNumber": 42,
		"velocity": 127,
		"subtype": "noteOn",
		"time": 114840,
		"track": 5
	},
	{
		"deltaTime": 60,
		"channel": 9,
		"type": "channel",
		"subtype": "noteOff",
		"noteNumber": 42,
		"velocity": 0,
		"time": 114900,
		"track": 5
	},
	{
		"deltaTime": 60,
		"channel": 9,
		"type": "channel",
		"noteNumber": 42,
		"velocity": 127,
		"subtype": "noteOn",
		"time": 114960,
		"track": 5
	},
	{
		"deltaTime": 60,
		"channel": 9,
		"type": "channel",
		"subtype": "noteOff",
		"noteNumber": 42,
		"velocity": 0,
		"time": 115020,
		"track": 5
	},
	{
		"deltaTime": 0,
		"channel": 1,
		"type": "channel",
		"subtype": "noteOff",
		"noteNumber": 59,
		"velocity": 0,
		"time": 115080,
		"track": 3
	},
	{
		"deltaTime": 0,
		"channel": 1,
		"type": "channel",
		"noteNumber": 63,
		"velocity": 127,
		"subtype": "noteOn",
		"time": 115080,
		"track": 3
	},
	{
		"deltaTime": 60,
		"channel": 9,
		"type": "channel",
		"noteNumber": 42,
		"velocity": 127,
		"subtype": "noteOn",
		"time": 115080,
		"track": 5
	},
	{
		"deltaTime": 60,
		"channel": 9,
		"type": "channel",
		"subtype": "noteOff",
		"noteNumber": 42,
		"velocity": 0,
		"time": 115140,
		"track": 5
	},
	{
		"deltaTime": 0,
		"channel": 0,
		"type": "channel",
		"subtype": "noteOff",
		"noteNumber": 40,
		"velocity": 0,
		"time": 115200,
		"track": 2
	},
	{
		"deltaTime": 0,
		"channel": 0,
		"type": "channel",
		"noteNumber": 42,
		"velocity": 127,
		"subtype": "noteOn",
		"time": 115200,
		"track": 2
	},
	{
		"deltaTime": 0,
		"channel": 2,
		"type": "channel",
		"subtype": "noteOff",
		"noteNumber": 59,
		"velocity": 0,
		"time": 115200,
		"track": 4
	},
	{
		"deltaTime": 0,
		"channel": 2,
		"type": "channel",
		"subtype": "noteOff",
		"noteNumber": 56,
		"velocity": 0,
		"time": 115200,
		"track": 4
	},
	{
		"deltaTime": 0,
		"channel": 2,
		"type": "channel",
		"subtype": "noteOff",
		"noteNumber": 52,
		"velocity": 0,
		"time": 115200,
		"track": 4
	},
	{
		"deltaTime": 0,
		"channel": 2,
		"type": "channel",
		"subtype": "noteOff",
		"noteNumber": 40,
		"velocity": 0,
		"time": 115200,
		"track": 4
	},
	{
		"deltaTime": 0,
		"channel": 2,
		"type": "channel",
		"noteNumber": 42,
		"velocity": 127,
		"subtype": "noteOn",
		"time": 115200,
		"track": 4
	},
	{
		"deltaTime": 0,
		"channel": 2,
		"type": "channel",
		"noteNumber": 49,
		"velocity": 127,
		"subtype": "noteOn",
		"time": 115200,
		"track": 4
	},
	{
		"deltaTime": 0,
		"channel": 2,
		"type": "channel",
		"noteNumber": 54,
		"velocity": 127,
		"subtype": "noteOn",
		"time": 115200,
		"track": 4
	},
	{
		"deltaTime": 0,
		"channel": 2,
		"type": "channel",
		"noteNumber": 58,
		"velocity": 127,
		"subtype": "noteOn",
		"time": 115200,
		"track": 4
	},
	{
		"deltaTime": 0,
		"channel": 9,
		"type": "channel",
		"noteNumber": 42,
		"velocity": 127,
		"subtype": "noteOn",
		"time": 115200,
		"track": 5
	},
	{
		"deltaTime": 0,
		"channel": 9,
		"type": "channel",
		"noteNumber": 35,
		"velocity": 127,
		"subtype": "noteOn",
		"time": 115200,
		"track": 5
	},
	{
		"deltaTime": 60,
		"channel": 9,
		"type": "channel",
		"noteNumber": 36,
		"velocity": 127,
		"subtype": "noteOn",
		"time": 115200,
		"track": 5
	},
	{
		"deltaTime": 0,
		"channel": 9,
		"type": "channel",
		"subtype": "noteOff",
		"noteNumber": 36,
		"velocity": 0,
		"time": 115260,
		"track": 5
	},
	{
		"deltaTime": 0,
		"channel": 9,
		"type": "channel",
		"subtype": "noteOff",
		"noteNumber": 35,
		"velocity": 0,
		"time": 115260,
		"track": 5
	},
	{
		"deltaTime": 60,
		"channel": 9,
		"type": "channel",
		"subtype": "noteOff",
		"noteNumber": 42,
		"velocity": 0,
		"time": 115260,
		"track": 5
	},
	{
		"deltaTime": 60,
		"channel": 9,
		"type": "channel",
		"noteNumber": 42,
		"velocity": 127,
		"subtype": "noteOn",
		"time": 115320,
		"track": 5
	},
	{
		"deltaTime": 60,
		"channel": 9,
		"type": "channel",
		"subtype": "noteOff",
		"noteNumber": 42,
		"velocity": 0,
		"time": 115380,
		"track": 5
	},
	{
		"deltaTime": 0,
		"channel": 1,
		"type": "channel",
		"subtype": "noteOff",
		"noteNumber": 63,
		"velocity": 0,
		"time": 115440,
		"track": 3
	},
	{
		"deltaTime": 0,
		"channel": 1,
		"type": "channel",
		"noteNumber": 61,
		"velocity": 127,
		"subtype": "noteOn",
		"time": 115440,
		"track": 3
	},
	{
		"deltaTime": 0,
		"channel": 9,
		"type": "channel",
		"noteNumber": 42,
		"velocity": 127,
		"subtype": "noteOn",
		"time": 115440,
		"track": 5
	},
	{
		"deltaTime": 0,
		"channel": 9,
		"type": "channel",
		"noteNumber": 36,
		"velocity": 127,
		"subtype": "noteOn",
		"time": 115440,
		"track": 5
	},
	{
		"deltaTime": 60,
		"channel": 9,
		"type": "channel",
		"noteNumber": 35,
		"velocity": 127,
		"subtype": "noteOn",
		"time": 115440,
		"track": 5
	},
	{
		"deltaTime": 0,
		"channel": 9,
		"type": "channel",
		"subtype": "noteOff",
		"noteNumber": 35,
		"velocity": 0,
		"time": 115500,
		"track": 5
	},
	{
		"deltaTime": 0,
		"channel": 9,
		"type": "channel",
		"subtype": "noteOff",
		"noteNumber": 36,
		"velocity": 0,
		"time": 115500,
		"track": 5
	},
	{
		"deltaTime": 60,
		"channel": 9,
		"type": "channel",
		"subtype": "noteOff",
		"noteNumber": 42,
		"velocity": 0,
		"time": 115500,
		"track": 5
	},
	{
		"deltaTime": 0,
		"channel": 2,
		"type": "channel",
		"subtype": "noteOff",
		"noteNumber": 58,
		"velocity": 0,
		"time": 115560,
		"track": 4
	},
	{
		"deltaTime": 0,
		"channel": 2,
		"type": "channel",
		"subtype": "noteOff",
		"noteNumber": 54,
		"velocity": 0,
		"time": 115560,
		"track": 4
	},
	{
		"deltaTime": 0,
		"channel": 2,
		"type": "channel",
		"subtype": "noteOff",
		"noteNumber": 49,
		"velocity": 0,
		"time": 115560,
		"track": 4
	},
	{
		"deltaTime": 0,
		"channel": 2,
		"type": "channel",
		"subtype": "noteOff",
		"noteNumber": 42,
		"velocity": 0,
		"time": 115560,
		"track": 4
	},
	{
		"deltaTime": 0,
		"channel": 2,
		"type": "channel",
		"noteNumber": 54,
		"velocity": 127,
		"subtype": "noteOn",
		"time": 115560,
		"track": 4
	},
	{
		"deltaTime": 0,
		"channel": 2,
		"type": "channel",
		"noteNumber": 58,
		"velocity": 127,
		"subtype": "noteOn",
		"time": 115560,
		"track": 4
	},
	{
		"deltaTime": 60,
		"channel": 9,
		"type": "channel",
		"noteNumber": 42,
		"velocity": 127,
		"subtype": "noteOn",
		"time": 115560,
		"track": 5
	},
	{
		"deltaTime": 60,
		"channel": 9,
		"type": "channel",
		"subtype": "noteOff",
		"noteNumber": 42,
		"velocity": 0,
		"time": 115620,
		"track": 5
	},
	{
		"deltaTime": 0,
		"channel": 2,
		"type": "channel",
		"subtype": "noteOff",
		"noteNumber": 58,
		"velocity": 0,
		"time": 115680,
		"track": 4
	},
	{
		"deltaTime": 0,
		"channel": 2,
		"type": "channel",
		"subtype": "noteOff",
		"noteNumber": 54,
		"velocity": 0,
		"time": 115680,
		"track": 4
	},
	{
		"deltaTime": 0,
		"channel": 2,
		"type": "channel",
		"noteNumber": 42,
		"velocity": 127,
		"subtype": "noteOn",
		"time": 115680,
		"track": 4
	},
	{
		"deltaTime": 0,
		"channel": 2,
		"type": "channel",
		"noteNumber": 49,
		"velocity": 127,
		"subtype": "noteOn",
		"time": 115680,
		"track": 4
	},
	{
		"deltaTime": 0,
		"channel": 2,
		"type": "channel",
		"noteNumber": 58,
		"velocity": 127,
		"subtype": "noteOn",
		"time": 115680,
		"track": 4
	},
	{
		"deltaTime": 0,
		"channel": 2,
		"type": "channel",
		"noteNumber": 61,
		"velocity": 127,
		"subtype": "noteOn",
		"time": 115680,
		"track": 4
	},
	{
		"deltaTime": 0,
		"channel": 9,
		"type": "channel",
		"noteNumber": 42,
		"velocity": 127,
		"subtype": "noteOn",
		"time": 115680,
		"track": 5
	},
	{
		"deltaTime": 0,
		"channel": 9,
		"type": "channel",
		"noteNumber": 38,
		"velocity": 127,
		"subtype": "noteOn",
		"time": 115680,
		"track": 5
	},
	{
		"deltaTime": 60,
		"channel": 9,
		"type": "channel",
		"noteNumber": 40,
		"velocity": 127,
		"subtype": "noteOn",
		"time": 115680,
		"track": 5
	},
	{
		"deltaTime": 0,
		"channel": 9,
		"type": "channel",
		"subtype": "noteOff",
		"noteNumber": 40,
		"velocity": 0,
		"time": 115740,
		"track": 5
	},
	{
		"deltaTime": 0,
		"channel": 9,
		"type": "channel",
		"subtype": "noteOff",
		"noteNumber": 38,
		"velocity": 0,
		"time": 115740,
		"track": 5
	},
	{
		"deltaTime": 60,
		"channel": 9,
		"type": "channel",
		"subtype": "noteOff",
		"noteNumber": 42,
		"velocity": 0,
		"time": 115740,
		"track": 5
	},
	{
		"deltaTime": 60,
		"channel": 9,
		"type": "channel",
		"noteNumber": 42,
		"velocity": 127,
		"subtype": "noteOn",
		"time": 115800,
		"track": 5
	},
	{
		"deltaTime": 60,
		"channel": 9,
		"type": "channel",
		"subtype": "noteOff",
		"noteNumber": 42,
		"velocity": 0,
		"time": 115860,
		"track": 5
	},
	{
		"deltaTime": 0,
		"channel": 1,
		"type": "channel",
		"subtype": "noteOff",
		"noteNumber": 61,
		"velocity": 0,
		"time": 115920,
		"track": 3
	},
	{
		"deltaTime": 60,
		"channel": 9,
		"type": "channel",
		"noteNumber": 42,
		"velocity": 127,
		"subtype": "noteOn",
		"time": 115920,
		"track": 5
	},
	{
		"deltaTime": 60,
		"channel": 9,
		"type": "channel",
		"subtype": "noteOff",
		"noteNumber": 42,
		"velocity": 0,
		"time": 115980,
		"track": 5
	},
	{
		"deltaTime": 0,
		"channel": 1,
		"type": "channel",
		"noteNumber": 59,
		"velocity": 127,
		"subtype": "noteOn",
		"time": 116040,
		"track": 3
	},
	{
		"deltaTime": 0,
		"channel": 9,
		"type": "channel",
		"noteNumber": 42,
		"velocity": 127,
		"subtype": "noteOn",
		"time": 116040,
		"track": 5
	},
	{
		"deltaTime": 0,
		"channel": 9,
		"type": "channel",
		"noteNumber": 36,
		"velocity": 127,
		"subtype": "noteOn",
		"time": 116040,
		"track": 5
	},
	{
		"deltaTime": 60,
		"channel": 9,
		"type": "channel",
		"noteNumber": 35,
		"velocity": 127,
		"subtype": "noteOn",
		"time": 116040,
		"track": 5
	},
	{
		"deltaTime": 0,
		"channel": 9,
		"type": "channel",
		"subtype": "noteOff",
		"noteNumber": 35,
		"velocity": 0,
		"time": 116100,
		"track": 5
	},
	{
		"deltaTime": 0,
		"channel": 9,
		"type": "channel",
		"subtype": "noteOff",
		"noteNumber": 36,
		"velocity": 0,
		"time": 116100,
		"track": 5
	},
	{
		"deltaTime": 60,
		"channel": 9,
		"type": "channel",
		"subtype": "noteOff",
		"noteNumber": 42,
		"velocity": 0,
		"time": 116100,
		"track": 5
	},
	{
		"deltaTime": 0,
		"channel": 0,
		"type": "channel",
		"subtype": "noteOff",
		"noteNumber": 42,
		"velocity": 0,
		"time": 116160,
		"track": 2
	},
	{
		"deltaTime": 0,
		"channel": 0,
		"type": "channel",
		"noteNumber": 35,
		"velocity": 127,
		"subtype": "noteOn",
		"time": 116160,
		"track": 2
	},
	{
		"deltaTime": 0,
		"channel": 1,
		"type": "channel",
		"subtype": "noteOff",
		"noteNumber": 59,
		"velocity": 0,
		"time": 116160,
		"track": 3
	},
	{
		"deltaTime": 0,
		"channel": 1,
		"type": "channel",
		"noteNumber": 66,
		"velocity": 127,
		"subtype": "noteOn",
		"time": 116160,
		"track": 3
	},
	{
		"deltaTime": 0,
		"channel": 2,
		"type": "channel",
		"subtype": "noteOff",
		"noteNumber": 61,
		"velocity": 0,
		"time": 116160,
		"track": 4
	},
	{
		"deltaTime": 0,
		"channel": 2,
		"type": "channel",
		"subtype": "noteOff",
		"noteNumber": 58,
		"velocity": 0,
		"time": 116160,
		"track": 4
	},
	{
		"deltaTime": 0,
		"channel": 2,
		"type": "channel",
		"subtype": "noteOff",
		"noteNumber": 49,
		"velocity": 0,
		"time": 116160,
		"track": 4
	},
	{
		"deltaTime": 0,
		"channel": 2,
		"type": "channel",
		"subtype": "noteOff",
		"noteNumber": 42,
		"velocity": 0,
		"time": 116160,
		"track": 4
	},
	{
		"deltaTime": 0,
		"channel": 2,
		"type": "channel",
		"noteNumber": 47,
		"velocity": 127,
		"subtype": "noteOn",
		"time": 116160,
		"track": 4
	},
	{
		"deltaTime": 0,
		"channel": 2,
		"type": "channel",
		"noteNumber": 54,
		"velocity": 127,
		"subtype": "noteOn",
		"time": 116160,
		"track": 4
	},
	{
		"deltaTime": 0,
		"channel": 2,
		"type": "channel",
		"noteNumber": 59,
		"velocity": 127,
		"subtype": "noteOn",
		"time": 116160,
		"track": 4
	},
	{
		"deltaTime": 0,
		"channel": 2,
		"type": "channel",
		"noteNumber": 66,
		"velocity": 127,
		"subtype": "noteOn",
		"time": 116160,
		"track": 4
	},
	{
		"deltaTime": 60,
		"channel": 9,
		"type": "channel",
		"noteNumber": 42,
		"velocity": 127,
		"subtype": "noteOn",
		"time": 116160,
		"track": 5
	},
	{
		"deltaTime": 60,
		"channel": 9,
		"type": "channel",
		"subtype": "noteOff",
		"noteNumber": 42,
		"velocity": 0,
		"time": 116220,
		"track": 5
	},
	{
		"deltaTime": 60,
		"channel": 9,
		"type": "channel",
		"noteNumber": 42,
		"velocity": 127,
		"subtype": "noteOn",
		"time": 116280,
		"track": 5
	},
	{
		"deltaTime": 60,
		"channel": 9,
		"type": "channel",
		"subtype": "noteOff",
		"noteNumber": 42,
		"velocity": 0,
		"time": 116340,
		"track": 5
	},
	{
		"deltaTime": 0,
		"channel": 1,
		"type": "channel",
		"subtype": "noteOff",
		"noteNumber": 66,
		"velocity": 0,
		"time": 116400,
		"track": 3
	},
	{
		"deltaTime": 0,
		"channel": 1,
		"type": "channel",
		"noteNumber": 68,
		"velocity": 127,
		"subtype": "noteOn",
		"time": 116400,
		"track": 3
	},
	{
		"deltaTime": 0,
		"channel": 2,
		"type": "channel",
		"subtype": "noteOff",
		"noteNumber": 66,
		"velocity": 0,
		"time": 116400,
		"track": 4
	},
	{
		"deltaTime": 0,
		"channel": 2,
		"type": "channel",
		"subtype": "noteOff",
		"noteNumber": 59,
		"velocity": 0,
		"time": 116400,
		"track": 4
	},
	{
		"deltaTime": 0,
		"channel": 2,
		"type": "channel",
		"subtype": "noteOff",
		"noteNumber": 54,
		"velocity": 0,
		"time": 116400,
		"track": 4
	},
	{
		"deltaTime": 0,
		"channel": 2,
		"type": "channel",
		"subtype": "noteOff",
		"noteNumber": 47,
		"velocity": 0,
		"time": 116400,
		"track": 4
	},
	{
		"deltaTime": 0,
		"channel": 2,
		"type": "channel",
		"noteNumber": 54,
		"velocity": 127,
		"subtype": "noteOn",
		"time": 116400,
		"track": 4
	},
	{
		"deltaTime": 0,
		"channel": 2,
		"type": "channel",
		"noteNumber": 59,
		"velocity": 127,
		"subtype": "noteOn",
		"time": 116400,
		"track": 4
	},
	{
		"deltaTime": 0,
		"channel": 2,
		"type": "channel",
		"noteNumber": 63,
		"velocity": 127,
		"subtype": "noteOn",
		"time": 116400,
		"track": 4
	},
	{
		"deltaTime": 0,
		"channel": 9,
		"type": "channel",
		"noteNumber": 42,
		"velocity": 127,
		"subtype": "noteOn",
		"time": 116400,
		"track": 5
	},
	{
		"deltaTime": 0,
		"channel": 9,
		"type": "channel",
		"noteNumber": 36,
		"velocity": 127,
		"subtype": "noteOn",
		"time": 116400,
		"track": 5
	},
	{
		"deltaTime": 60,
		"channel": 9,
		"type": "channel",
		"noteNumber": 35,
		"velocity": 127,
		"subtype": "noteOn",
		"time": 116400,
		"track": 5
	},
	{
		"deltaTime": 0,
		"channel": 9,
		"type": "channel",
		"subtype": "noteOff",
		"noteNumber": 35,
		"velocity": 0,
		"time": 116460,
		"track": 5
	},
	{
		"deltaTime": 0,
		"channel": 9,
		"type": "channel",
		"subtype": "noteOff",
		"noteNumber": 36,
		"velocity": 0,
		"time": 116460,
		"track": 5
	},
	{
		"deltaTime": 60,
		"channel": 9,
		"type": "channel",
		"subtype": "noteOff",
		"noteNumber": 42,
		"velocity": 0,
		"time": 116460,
		"track": 5
	},
	{
		"deltaTime": 60,
		"channel": 9,
		"type": "channel",
		"noteNumber": 42,
		"velocity": 127,
		"subtype": "noteOn",
		"time": 116520,
		"track": 5
	},
	{
		"deltaTime": 60,
		"channel": 9,
		"type": "channel",
		"subtype": "noteOff",
		"noteNumber": 42,
		"velocity": 0,
		"time": 116580,
		"track": 5
	},
	{
		"deltaTime": 0,
		"channel": 0,
		"type": "channel",
		"subtype": "noteOff",
		"noteNumber": 35,
		"velocity": 0,
		"time": 116640,
		"track": 2
	},
	{
		"deltaTime": 0,
		"channel": 0,
		"type": "channel",
		"noteNumber": 34,
		"velocity": 127,
		"subtype": "noteOn",
		"time": 116640,
		"track": 2
	},
	{
		"deltaTime": 0,
		"channel": 1,
		"type": "channel",
		"subtype": "noteOff",
		"noteNumber": 68,
		"velocity": 0,
		"time": 116640,
		"track": 3
	},
	{
		"deltaTime": 0,
		"channel": 1,
		"type": "channel",
		"noteNumber": 63,
		"velocity": 127,
		"subtype": "noteOn",
		"time": 116640,
		"track": 3
	},
	{
		"deltaTime": 0,
		"channel": 2,
		"type": "channel",
		"subtype": "noteOff",
		"noteNumber": 63,
		"velocity": 0,
		"time": 116640,
		"track": 4
	},
	{
		"deltaTime": 0,
		"channel": 2,
		"type": "channel",
		"subtype": "noteOff",
		"noteNumber": 59,
		"velocity": 0,
		"time": 116640,
		"track": 4
	},
	{
		"deltaTime": 0,
		"channel": 2,
		"type": "channel",
		"subtype": "noteOff",
		"noteNumber": 54,
		"velocity": 0,
		"time": 116640,
		"track": 4
	},
	{
		"deltaTime": 0,
		"channel": 2,
		"type": "channel",
		"noteNumber": 46,
		"velocity": 127,
		"subtype": "noteOn",
		"time": 116640,
		"track": 4
	},
	{
		"deltaTime": 0,
		"channel": 2,
		"type": "channel",
		"noteNumber": 54,
		"velocity": 127,
		"subtype": "noteOn",
		"time": 116640,
		"track": 4
	},
	{
		"deltaTime": 0,
		"channel": 9,
		"type": "channel",
		"noteNumber": 42,
		"velocity": 127,
		"subtype": "noteOn",
		"time": 116640,
		"track": 5
	},
	{
		"deltaTime": 0,
		"channel": 9,
		"type": "channel",
		"noteNumber": 40,
		"velocity": 127,
		"subtype": "noteOn",
		"time": 116640,
		"track": 5
	},
	{
		"deltaTime": 60,
		"channel": 9,
		"type": "channel",
		"noteNumber": 38,
		"velocity": 127,
		"subtype": "noteOn",
		"time": 116640,
		"track": 5
	},
	{
		"deltaTime": 0,
		"channel": 9,
		"type": "channel",
		"subtype": "noteOff",
		"noteNumber": 38,
		"velocity": 0,
		"time": 116700,
		"track": 5
	},
	{
		"deltaTime": 0,
		"channel": 9,
		"type": "channel",
		"subtype": "noteOff",
		"noteNumber": 40,
		"velocity": 0,
		"time": 116700,
		"track": 5
	},
	{
		"deltaTime": 60,
		"channel": 9,
		"type": "channel",
		"subtype": "noteOff",
		"noteNumber": 42,
		"velocity": 0,
		"time": 116700,
		"track": 5
	},
	{
		"deltaTime": 60,
		"channel": 9,
		"type": "channel",
		"noteNumber": 42,
		"velocity": 127,
		"subtype": "noteOn",
		"time": 116760,
		"track": 5
	},
	{
		"deltaTime": 60,
		"channel": 9,
		"type": "channel",
		"subtype": "noteOff",
		"noteNumber": 42,
		"velocity": 0,
		"time": 116820,
		"track": 5
	},
	{
		"deltaTime": 0,
		"channel": 1,
		"type": "channel",
		"subtype": "noteOff",
		"noteNumber": 63,
		"velocity": 0,
		"time": 116880,
		"track": 3
	},
	{
		"deltaTime": 0,
		"channel": 1,
		"type": "channel",
		"noteNumber": 61,
		"velocity": 127,
		"subtype": "noteOn",
		"time": 116880,
		"track": 3
	},
	{
		"deltaTime": 0,
		"channel": 2,
		"type": "channel",
		"subtype": "noteOff",
		"noteNumber": 54,
		"velocity": 0,
		"time": 116880,
		"track": 4
	},
	{
		"deltaTime": 0,
		"channel": 2,
		"type": "channel",
		"subtype": "noteOff",
		"noteNumber": 46,
		"velocity": 0,
		"time": 116880,
		"track": 4
	},
	{
		"deltaTime": 0,
		"channel": 2,
		"type": "channel",
		"noteNumber": 54,
		"velocity": 127,
		"subtype": "noteOn",
		"time": 116880,
		"track": 4
	},
	{
		"deltaTime": 0,
		"channel": 2,
		"type": "channel",
		"noteNumber": 59,
		"velocity": 127,
		"subtype": "noteOn",
		"time": 116880,
		"track": 4
	},
	{
		"deltaTime": 0,
		"channel": 2,
		"type": "channel",
		"noteNumber": 63,
		"velocity": 127,
		"subtype": "noteOn",
		"time": 116880,
		"track": 4
	},
	{
		"deltaTime": 60,
		"channel": 9,
		"type": "channel",
		"noteNumber": 42,
		"velocity": 127,
		"subtype": "noteOn",
		"time": 116880,
		"track": 5
	},
	{
		"deltaTime": 60,
		"channel": 9,
		"type": "channel",
		"subtype": "noteOff",
		"noteNumber": 42,
		"velocity": 0,
		"time": 116940,
		"track": 5
	},
	{
		"deltaTime": 0,
		"channel": 1,
		"type": "channel",
		"subtype": "noteOff",
		"noteNumber": 61,
		"velocity": 0,
		"time": 117000,
		"track": 3
	},
	{
		"deltaTime": 0,
		"channel": 1,
		"type": "channel",
		"noteNumber": 63,
		"velocity": 127,
		"subtype": "noteOn",
		"time": 117000,
		"track": 3
	},
	{
		"deltaTime": 60,
		"channel": 9,
		"type": "channel",
		"noteNumber": 42,
		"velocity": 127,
		"subtype": "noteOn",
		"time": 117000,
		"track": 5
	},
	{
		"deltaTime": 60,
		"channel": 9,
		"type": "channel",
		"subtype": "noteOff",
		"noteNumber": 42,
		"velocity": 0,
		"time": 117060,
		"track": 5
	},
	{
		"deltaTime": 0,
		"channel": 0,
		"type": "channel",
		"subtype": "noteOff",
		"noteNumber": 34,
		"velocity": 0,
		"time": 117120,
		"track": 2
	},
	{
		"deltaTime": 0,
		"channel": 0,
		"type": "channel",
		"noteNumber": 32,
		"velocity": 127,
		"subtype": "noteOn",
		"time": 117120,
		"track": 2
	},
	{
		"deltaTime": 0,
		"channel": 2,
		"type": "channel",
		"subtype": "noteOff",
		"noteNumber": 63,
		"velocity": 0,
		"time": 117120,
		"track": 4
	},
	{
		"deltaTime": 0,
		"channel": 2,
		"type": "channel",
		"subtype": "noteOff",
		"noteNumber": 59,
		"velocity": 0,
		"time": 117120,
		"track": 4
	},
	{
		"deltaTime": 0,
		"channel": 2,
		"type": "channel",
		"subtype": "noteOff",
		"noteNumber": 54,
		"velocity": 0,
		"time": 117120,
		"track": 4
	},
	{
		"deltaTime": 0,
		"channel": 2,
		"type": "channel",
		"noteNumber": 44,
		"velocity": 127,
		"subtype": "noteOn",
		"time": 117120,
		"track": 4
	},
	{
		"deltaTime": 0,
		"channel": 2,
		"type": "channel",
		"noteNumber": 51,
		"velocity": 127,
		"subtype": "noteOn",
		"time": 117120,
		"track": 4
	},
	{
		"deltaTime": 0,
		"channel": 2,
		"type": "channel",
		"noteNumber": 56,
		"velocity": 127,
		"subtype": "noteOn",
		"time": 117120,
		"track": 4
	},
	{
		"deltaTime": 0,
		"channel": 2,
		"type": "channel",
		"noteNumber": 59,
		"velocity": 127,
		"subtype": "noteOn",
		"time": 117120,
		"track": 4
	},
	{
		"deltaTime": 0,
		"channel": 2,
		"type": "channel",
		"noteNumber": 63,
		"velocity": 127,
		"subtype": "noteOn",
		"time": 117120,
		"track": 4
	},
	{
		"deltaTime": 0,
		"channel": 9,
		"type": "channel",
		"noteNumber": 42,
		"velocity": 127,
		"subtype": "noteOn",
		"time": 117120,
		"track": 5
	},
	{
		"deltaTime": 0,
		"channel": 9,
		"type": "channel",
		"noteNumber": 35,
		"velocity": 127,
		"subtype": "noteOn",
		"time": 117120,
		"track": 5
	},
	{
		"deltaTime": 60,
		"channel": 9,
		"type": "channel",
		"noteNumber": 36,
		"velocity": 127,
		"subtype": "noteOn",
		"time": 117120,
		"track": 5
	},
	{
		"deltaTime": 0,
		"channel": 9,
		"type": "channel",
		"subtype": "noteOff",
		"noteNumber": 36,
		"velocity": 0,
		"time": 117180,
		"track": 5
	},
	{
		"deltaTime": 0,
		"channel": 9,
		"type": "channel",
		"subtype": "noteOff",
		"noteNumber": 35,
		"velocity": 0,
		"time": 117180,
		"track": 5
	},
	{
		"deltaTime": 60,
		"channel": 9,
		"type": "channel",
		"subtype": "noteOff",
		"noteNumber": 42,
		"velocity": 0,
		"time": 117180,
		"track": 5
	},
	{
		"deltaTime": 60,
		"channel": 9,
		"type": "channel",
		"noteNumber": 42,
		"velocity": 127,
		"subtype": "noteOn",
		"time": 117240,
		"track": 5
	},
	{
		"deltaTime": 60,
		"channel": 9,
		"type": "channel",
		"subtype": "noteOff",
		"noteNumber": 42,
		"velocity": 0,
		"time": 117300,
		"track": 5
	},
	{
		"deltaTime": 0,
		"channel": 1,
		"type": "channel",
		"subtype": "noteOff",
		"noteNumber": 63,
		"velocity": 0,
		"time": 117360,
		"track": 3
	},
	{
		"deltaTime": 0,
		"channel": 9,
		"type": "channel",
		"noteNumber": 42,
		"velocity": 127,
		"subtype": "noteOn",
		"time": 117360,
		"track": 5
	},
	{
		"deltaTime": 0,
		"channel": 9,
		"type": "channel",
		"noteNumber": 36,
		"velocity": 127,
		"subtype": "noteOn",
		"time": 117360,
		"track": 5
	},
	{
		"deltaTime": 60,
		"channel": 9,
		"type": "channel",
		"noteNumber": 35,
		"velocity": 127,
		"subtype": "noteOn",
		"time": 117360,
		"track": 5
	},
	{
		"deltaTime": 0,
		"channel": 9,
		"type": "channel",
		"subtype": "noteOff",
		"noteNumber": 35,
		"velocity": 0,
		"time": 117420,
		"track": 5
	},
	{
		"deltaTime": 0,
		"channel": 9,
		"type": "channel",
		"subtype": "noteOff",
		"noteNumber": 36,
		"velocity": 0,
		"time": 117420,
		"track": 5
	},
	{
		"deltaTime": 60,
		"channel": 9,
		"type": "channel",
		"subtype": "noteOff",
		"noteNumber": 42,
		"velocity": 0,
		"time": 117420,
		"track": 5
	},
	{
		"deltaTime": 0,
		"channel": 2,
		"type": "channel",
		"subtype": "noteOff",
		"noteNumber": 63,
		"velocity": 0,
		"time": 117480,
		"track": 4
	},
	{
		"deltaTime": 0,
		"channel": 2,
		"type": "channel",
		"subtype": "noteOff",
		"noteNumber": 59,
		"velocity": 0,
		"time": 117480,
		"track": 4
	},
	{
		"deltaTime": 0,
		"channel": 2,
		"type": "channel",
		"subtype": "noteOff",
		"noteNumber": 56,
		"velocity": 0,
		"time": 117480,
		"track": 4
	},
	{
		"deltaTime": 0,
		"channel": 2,
		"type": "channel",
		"subtype": "noteOff",
		"noteNumber": 51,
		"velocity": 0,
		"time": 117480,
		"track": 4
	},
	{
		"deltaTime": 0,
		"channel": 2,
		"type": "channel",
		"subtype": "noteOff",
		"noteNumber": 44,
		"velocity": 0,
		"time": 117480,
		"track": 4
	},
	{
		"deltaTime": 0,
		"channel": 2,
		"type": "channel",
		"noteNumber": 56,
		"velocity": 127,
		"subtype": "noteOn",
		"time": 117480,
		"track": 4
	},
	{
		"deltaTime": 0,
		"channel": 2,
		"type": "channel",
		"noteNumber": 59,
		"velocity": 127,
		"subtype": "noteOn",
		"time": 117480,
		"track": 4
	},
	{
		"deltaTime": 60,
		"channel": 9,
		"type": "channel",
		"noteNumber": 42,
		"velocity": 127,
		"subtype": "noteOn",
		"time": 117480,
		"track": 5
	},
	{
		"deltaTime": 60,
		"channel": 9,
		"type": "channel",
		"subtype": "noteOff",
		"noteNumber": 42,
		"velocity": 0,
		"time": 117540,
		"track": 5
	},
	{
		"deltaTime": 0,
		"channel": 1,
		"type": "channel",
		"noteNumber": 66,
		"velocity": 127,
		"subtype": "noteOn",
		"time": 117600,
		"track": 3
	},
	{
		"deltaTime": 0,
		"channel": 2,
		"type": "channel",
		"subtype": "noteOff",
		"noteNumber": 59,
		"velocity": 0,
		"time": 117600,
		"track": 4
	},
	{
		"deltaTime": 0,
		"channel": 2,
		"type": "channel",
		"subtype": "noteOff",
		"noteNumber": 56,
		"velocity": 0,
		"time": 117600,
		"track": 4
	},
	{
		"deltaTime": 0,
		"channel": 2,
		"type": "channel",
		"noteNumber": 51,
		"velocity": 127,
		"subtype": "noteOn",
		"time": 117600,
		"track": 4
	},
	{
		"deltaTime": 0,
		"channel": 2,
		"type": "channel",
		"noteNumber": 59,
		"velocity": 127,
		"subtype": "noteOn",
		"time": 117600,
		"track": 4
	},
	{
		"deltaTime": 0,
		"channel": 2,
		"type": "channel",
		"noteNumber": 63,
		"velocity": 127,
		"subtype": "noteOn",
		"time": 117600,
		"track": 4
	},
	{
		"deltaTime": 0,
		"channel": 9,
		"type": "channel",
		"noteNumber": 42,
		"velocity": 127,
		"subtype": "noteOn",
		"time": 117600,
		"track": 5
	},
	{
		"deltaTime": 0,
		"channel": 9,
		"type": "channel",
		"noteNumber": 38,
		"velocity": 127,
		"subtype": "noteOn",
		"time": 117600,
		"track": 5
	},
	{
		"deltaTime": 60,
		"channel": 9,
		"type": "channel",
		"noteNumber": 40,
		"velocity": 127,
		"subtype": "noteOn",
		"time": 117600,
		"track": 5
	},
	{
		"deltaTime": 0,
		"channel": 9,
		"type": "channel",
		"subtype": "noteOff",
		"noteNumber": 40,
		"velocity": 0,
		"time": 117660,
		"track": 5
	},
	{
		"deltaTime": 0,
		"channel": 9,
		"type": "channel",
		"subtype": "noteOff",
		"noteNumber": 38,
		"velocity": 0,
		"time": 117660,
		"track": 5
	},
	{
		"deltaTime": 60,
		"channel": 9,
		"type": "channel",
		"subtype": "noteOff",
		"noteNumber": 42,
		"velocity": 0,
		"time": 117660,
		"track": 5
	},
	{
		"deltaTime": 0,
		"channel": 1,
		"type": "channel",
		"subtype": "noteOff",
		"noteNumber": 66,
		"velocity": 0,
		"time": 117720,
		"track": 3
	},
	{
		"deltaTime": 0,
		"channel": 1,
		"type": "channel",
		"noteNumber": 66,
		"velocity": 127,
		"subtype": "noteOn",
		"time": 117720,
		"track": 3
	},
	{
		"deltaTime": 60,
		"channel": 9,
		"type": "channel",
		"noteNumber": 42,
		"velocity": 127,
		"subtype": "noteOn",
		"time": 117720,
		"track": 5
	},
	{
		"deltaTime": 60,
		"channel": 9,
		"type": "channel",
		"subtype": "noteOff",
		"noteNumber": 42,
		"velocity": 0,
		"time": 117780,
		"track": 5
	},
	{
		"deltaTime": 60,
		"channel": 9,
		"type": "channel",
		"noteNumber": 42,
		"velocity": 127,
		"subtype": "noteOn",
		"time": 117840,
		"track": 5
	},
	{
		"deltaTime": 60,
		"channel": 9,
		"type": "channel",
		"subtype": "noteOff",
		"noteNumber": 42,
		"velocity": 0,
		"time": 117900,
		"track": 5
	},
	{
		"deltaTime": 0,
		"channel": 1,
		"type": "channel",
		"subtype": "noteOff",
		"noteNumber": 66,
		"velocity": 0,
		"time": 117960,
		"track": 3
	},
	{
		"deltaTime": 0,
		"channel": 1,
		"type": "channel",
		"noteNumber": 66,
		"velocity": 127,
		"subtype": "noteOn",
		"time": 117960,
		"track": 3
	},
	{
		"deltaTime": 0,
		"channel": 9,
		"type": "channel",
		"noteNumber": 42,
		"velocity": 127,
		"subtype": "noteOn",
		"time": 117960,
		"track": 5
	},
	{
		"deltaTime": 0,
		"channel": 9,
		"type": "channel",
		"noteNumber": 36,
		"velocity": 127,
		"subtype": "noteOn",
		"time": 117960,
		"track": 5
	},
	{
		"deltaTime": 60,
		"channel": 9,
		"type": "channel",
		"noteNumber": 35,
		"velocity": 127,
		"subtype": "noteOn",
		"time": 117960,
		"track": 5
	},
	{
		"deltaTime": 0,
		"channel": 9,
		"type": "channel",
		"subtype": "noteOff",
		"noteNumber": 35,
		"velocity": 0,
		"time": 118020,
		"track": 5
	},
	{
		"deltaTime": 0,
		"channel": 9,
		"type": "channel",
		"subtype": "noteOff",
		"noteNumber": 36,
		"velocity": 0,
		"time": 118020,
		"track": 5
	},
	{
		"deltaTime": 60,
		"channel": 9,
		"type": "channel",
		"subtype": "noteOff",
		"noteNumber": 42,
		"velocity": 0,
		"time": 118020,
		"track": 5
	},
	{
		"deltaTime": 0,
		"channel": 0,
		"type": "channel",
		"subtype": "noteOff",
		"noteNumber": 32,
		"velocity": 0,
		"time": 118080,
		"track": 2
	},
	{
		"deltaTime": 0,
		"channel": 0,
		"type": "channel",
		"noteNumber": 40,
		"velocity": 127,
		"subtype": "noteOn",
		"time": 118080,
		"track": 2
	},
	{
		"deltaTime": 0,
		"channel": 2,
		"type": "channel",
		"subtype": "noteOff",
		"noteNumber": 63,
		"velocity": 0,
		"time": 118080,
		"track": 4
	},
	{
		"deltaTime": 0,
		"channel": 2,
		"type": "channel",
		"subtype": "noteOff",
		"noteNumber": 59,
		"velocity": 0,
		"time": 118080,
		"track": 4
	},
	{
		"deltaTime": 0,
		"channel": 2,
		"type": "channel",
		"subtype": "noteOff",
		"noteNumber": 51,
		"velocity": 0,
		"time": 118080,
		"track": 4
	},
	{
		"deltaTime": 0,
		"channel": 2,
		"type": "channel",
		"noteNumber": 40,
		"velocity": 127,
		"subtype": "noteOn",
		"time": 118080,
		"track": 4
	},
	{
		"deltaTime": 0,
		"channel": 2,
		"type": "channel",
		"noteNumber": 47,
		"velocity": 127,
		"subtype": "noteOn",
		"time": 118080,
		"track": 4
	},
	{
		"deltaTime": 0,
		"channel": 2,
		"type": "channel",
		"noteNumber": 52,
		"velocity": 127,
		"subtype": "noteOn",
		"time": 118080,
		"track": 4
	},
	{
		"deltaTime": 0,
		"channel": 2,
		"type": "channel",
		"noteNumber": 56,
		"velocity": 127,
		"subtype": "noteOn",
		"time": 118080,
		"track": 4
	},
	{
		"deltaTime": 60,
		"channel": 9,
		"type": "channel",
		"noteNumber": 42,
		"velocity": 127,
		"subtype": "noteOn",
		"time": 118080,
		"track": 5
	},
	{
		"deltaTime": 60,
		"channel": 9,
		"type": "channel",
		"subtype": "noteOff",
		"noteNumber": 42,
		"velocity": 0,
		"time": 118140,
		"track": 5
	},
	{
		"deltaTime": 0,
		"channel": 1,
		"type": "channel",
		"subtype": "noteOff",
		"noteNumber": 66,
		"velocity": 0,
		"time": 118200,
		"track": 3
	},
	{
		"deltaTime": 0,
		"channel": 1,
		"type": "channel",
		"noteNumber": 66,
		"velocity": 127,
		"subtype": "noteOn",
		"time": 118200,
		"track": 3
	},
	{
		"deltaTime": 60,
		"channel": 9,
		"type": "channel",
		"noteNumber": 42,
		"velocity": 127,
		"subtype": "noteOn",
		"time": 118200,
		"track": 5
	},
	{
		"deltaTime": 60,
		"channel": 9,
		"type": "channel",
		"subtype": "noteOff",
		"noteNumber": 42,
		"velocity": 0,
		"time": 118260,
		"track": 5
	},
	{
		"deltaTime": 0,
		"channel": 1,
		"type": "channel",
		"subtype": "noteOff",
		"noteNumber": 66,
		"velocity": 0,
		"time": 118320,
		"track": 3
	},
	{
		"deltaTime": 0,
		"channel": 1,
		"type": "channel",
		"noteNumber": 68,
		"velocity": 127,
		"subtype": "noteOn",
		"time": 118320,
		"track": 3
	},
	{
		"deltaTime": 0,
		"channel": 9,
		"type": "channel",
		"noteNumber": 42,
		"velocity": 127,
		"subtype": "noteOn",
		"time": 118320,
		"track": 5
	},
	{
		"deltaTime": 0,
		"channel": 9,
		"type": "channel",
		"noteNumber": 36,
		"velocity": 127,
		"subtype": "noteOn",
		"time": 118320,
		"track": 5
	},
	{
		"deltaTime": 60,
		"channel": 9,
		"type": "channel",
		"noteNumber": 35,
		"velocity": 127,
		"subtype": "noteOn",
		"time": 118320,
		"track": 5
	},
	{
		"deltaTime": 0,
		"channel": 9,
		"type": "channel",
		"subtype": "noteOff",
		"noteNumber": 35,
		"velocity": 0,
		"time": 118380,
		"track": 5
	},
	{
		"deltaTime": 0,
		"channel": 9,
		"type": "channel",
		"subtype": "noteOff",
		"noteNumber": 36,
		"velocity": 0,
		"time": 118380,
		"track": 5
	},
	{
		"deltaTime": 60,
		"channel": 9,
		"type": "channel",
		"subtype": "noteOff",
		"noteNumber": 42,
		"velocity": 0,
		"time": 118380,
		"track": 5
	},
	{
		"deltaTime": 0,
		"channel": 1,
		"type": "channel",
		"subtype": "noteOff",
		"noteNumber": 68,
		"velocity": 0,
		"time": 118440,
		"track": 3
	},
	{
		"deltaTime": 0,
		"channel": 1,
		"type": "channel",
		"noteNumber": 61,
		"velocity": 127,
		"subtype": "noteOn",
		"time": 118440,
		"track": 3
	},
	{
		"deltaTime": 0,
		"channel": 2,
		"type": "channel",
		"subtype": "noteOff",
		"noteNumber": 56,
		"velocity": 0,
		"time": 118440,
		"track": 4
	},
	{
		"deltaTime": 0,
		"channel": 2,
		"type": "channel",
		"subtype": "noteOff",
		"noteNumber": 52,
		"velocity": 0,
		"time": 118440,
		"track": 4
	},
	{
		"deltaTime": 0,
		"channel": 2,
		"type": "channel",
		"subtype": "noteOff",
		"noteNumber": 47,
		"velocity": 0,
		"time": 118440,
		"track": 4
	},
	{
		"deltaTime": 0,
		"channel": 2,
		"type": "channel",
		"subtype": "noteOff",
		"noteNumber": 40,
		"velocity": 0,
		"time": 118440,
		"track": 4
	},
	{
		"deltaTime": 0,
		"channel": 2,
		"type": "channel",
		"noteNumber": 52,
		"velocity": 127,
		"subtype": "noteOn",
		"time": 118440,
		"track": 4
	},
	{
		"deltaTime": 0,
		"channel": 2,
		"type": "channel",
		"noteNumber": 56,
		"velocity": 127,
		"subtype": "noteOn",
		"time": 118440,
		"track": 4
	},
	{
		"deltaTime": 60,
		"channel": 9,
		"type": "channel",
		"noteNumber": 42,
		"velocity": 127,
		"subtype": "noteOn",
		"time": 118440,
		"track": 5
	},
	{
		"deltaTime": 60,
		"channel": 9,
		"type": "channel",
		"subtype": "noteOff",
		"noteNumber": 42,
		"velocity": 0,
		"time": 118500,
		"track": 5
	},
	{
		"deltaTime": 0,
		"channel": 2,
		"type": "channel",
		"subtype": "noteOff",
		"noteNumber": 56,
		"velocity": 0,
		"time": 118560,
		"track": 4
	},
	{
		"deltaTime": 0,
		"channel": 2,
		"type": "channel",
		"subtype": "noteOff",
		"noteNumber": 52,
		"velocity": 0,
		"time": 118560,
		"track": 4
	},
	{
		"deltaTime": 0,
		"channel": 2,
		"type": "channel",
		"noteNumber": 40,
		"velocity": 127,
		"subtype": "noteOn",
		"time": 118560,
		"track": 4
	},
	{
		"deltaTime": 0,
		"channel": 2,
		"type": "channel",
		"noteNumber": 52,
		"velocity": 127,
		"subtype": "noteOn",
		"time": 118560,
		"track": 4
	},
	{
		"deltaTime": 0,
		"channel": 2,
		"type": "channel",
		"noteNumber": 56,
		"velocity": 127,
		"subtype": "noteOn",
		"time": 118560,
		"track": 4
	},
	{
		"deltaTime": 0,
		"channel": 2,
		"type": "channel",
		"noteNumber": 59,
		"velocity": 127,
		"subtype": "noteOn",
		"time": 118560,
		"track": 4
	},
	{
		"deltaTime": 0,
		"channel": 9,
		"type": "channel",
		"noteNumber": 42,
		"velocity": 127,
		"subtype": "noteOn",
		"time": 118560,
		"track": 5
	},
	{
		"deltaTime": 0,
		"channel": 9,
		"type": "channel",
		"noteNumber": 40,
		"velocity": 127,
		"subtype": "noteOn",
		"time": 118560,
		"track": 5
	},
	{
		"deltaTime": 60,
		"channel": 9,
		"type": "channel",
		"noteNumber": 38,
		"velocity": 127,
		"subtype": "noteOn",
		"time": 118560,
		"track": 5
	},
	{
		"deltaTime": 0,
		"channel": 9,
		"type": "channel",
		"subtype": "noteOff",
		"noteNumber": 38,
		"velocity": 0,
		"time": 118620,
		"track": 5
	},
	{
		"deltaTime": 0,
		"channel": 9,
		"type": "channel",
		"subtype": "noteOff",
		"noteNumber": 40,
		"velocity": 0,
		"time": 118620,
		"track": 5
	},
	{
		"deltaTime": 60,
		"channel": 9,
		"type": "channel",
		"subtype": "noteOff",
		"noteNumber": 42,
		"velocity": 0,
		"time": 118620,
		"track": 5
	},
	{
		"deltaTime": 0,
		"channel": 1,
		"type": "channel",
		"subtype": "noteOff",
		"noteNumber": 61,
		"velocity": 0,
		"time": 118680,
		"track": 3
	},
	{
		"deltaTime": 0,
		"channel": 1,
		"type": "channel",
		"noteNumber": 61,
		"velocity": 127,
		"subtype": "noteOn",
		"time": 118680,
		"track": 3
	},
	{
		"deltaTime": 60,
		"channel": 9,
		"type": "channel",
		"noteNumber": 42,
		"velocity": 127,
		"subtype": "noteOn",
		"time": 118680,
		"track": 5
	},
	{
		"deltaTime": 60,
		"channel": 9,
		"type": "channel",
		"subtype": "noteOff",
		"noteNumber": 42,
		"velocity": 0,
		"time": 118740,
		"track": 5
	},
	{
		"deltaTime": 0,
		"channel": 1,
		"type": "channel",
		"subtype": "noteOff",
		"noteNumber": 61,
		"velocity": 0,
		"time": 118800,
		"track": 3
	},
	{
		"deltaTime": 0,
		"channel": 1,
		"type": "channel",
		"noteNumber": 59,
		"velocity": 127,
		"subtype": "noteOn",
		"time": 118800,
		"track": 3
	},
	{
		"deltaTime": 60,
		"channel": 9,
		"type": "channel",
		"noteNumber": 42,
		"velocity": 127,
		"subtype": "noteOn",
		"time": 118800,
		"track": 5
	},
	{
		"deltaTime": 60,
		"channel": 9,
		"type": "channel",
		"subtype": "noteOff",
		"noteNumber": 42,
		"velocity": 0,
		"time": 118860,
		"track": 5
	},
	{
		"deltaTime": 0,
		"channel": 1,
		"type": "channel",
		"subtype": "noteOff",
		"noteNumber": 59,
		"velocity": 0,
		"time": 118920,
		"track": 3
	},
	{
		"deltaTime": 0,
		"channel": 1,
		"type": "channel",
		"noteNumber": 63,
		"velocity": 127,
		"subtype": "noteOn",
		"time": 118920,
		"track": 3
	},
	{
		"deltaTime": 60,
		"channel": 9,
		"type": "channel",
		"noteNumber": 42,
		"velocity": 127,
		"subtype": "noteOn",
		"time": 118920,
		"track": 5
	},
	{
		"deltaTime": 60,
		"channel": 9,
		"type": "channel",
		"subtype": "noteOff",
		"noteNumber": 42,
		"velocity": 0,
		"time": 118980,
		"track": 5
	},
	{
		"deltaTime": 0,
		"channel": 0,
		"type": "channel",
		"subtype": "noteOff",
		"noteNumber": 40,
		"velocity": 0,
		"time": 119040,
		"track": 2
	},
	{
		"deltaTime": 0,
		"channel": 0,
		"type": "channel",
		"noteNumber": 42,
		"velocity": 127,
		"subtype": "noteOn",
		"time": 119040,
		"track": 2
	},
	{
		"deltaTime": 0,
		"channel": 2,
		"type": "channel",
		"subtype": "noteOff",
		"noteNumber": 59,
		"velocity": 0,
		"time": 119040,
		"track": 4
	},
	{
		"deltaTime": 0,
		"channel": 2,
		"type": "channel",
		"subtype": "noteOff",
		"noteNumber": 56,
		"velocity": 0,
		"time": 119040,
		"track": 4
	},
	{
		"deltaTime": 0,
		"channel": 2,
		"type": "channel",
		"subtype": "noteOff",
		"noteNumber": 52,
		"velocity": 0,
		"time": 119040,
		"track": 4
	},
	{
		"deltaTime": 0,
		"channel": 2,
		"type": "channel",
		"subtype": "noteOff",
		"noteNumber": 40,
		"velocity": 0,
		"time": 119040,
		"track": 4
	},
	{
		"deltaTime": 0,
		"channel": 2,
		"type": "channel",
		"noteNumber": 42,
		"velocity": 127,
		"subtype": "noteOn",
		"time": 119040,
		"track": 4
	},
	{
		"deltaTime": 0,
		"channel": 2,
		"type": "channel",
		"noteNumber": 49,
		"velocity": 127,
		"subtype": "noteOn",
		"time": 119040,
		"track": 4
	},
	{
		"deltaTime": 0,
		"channel": 2,
		"type": "channel",
		"noteNumber": 54,
		"velocity": 127,
		"subtype": "noteOn",
		"time": 119040,
		"track": 4
	},
	{
		"deltaTime": 0,
		"channel": 2,
		"type": "channel",
		"noteNumber": 58,
		"velocity": 127,
		"subtype": "noteOn",
		"time": 119040,
		"track": 4
	},
	{
		"deltaTime": 0,
		"channel": 9,
		"type": "channel",
		"noteNumber": 42,
		"velocity": 127,
		"subtype": "noteOn",
		"time": 119040,
		"track": 5
	},
	{
		"deltaTime": 0,
		"channel": 9,
		"type": "channel",
		"noteNumber": 35,
		"velocity": 127,
		"subtype": "noteOn",
		"time": 119040,
		"track": 5
	},
	{
		"deltaTime": 60,
		"channel": 9,
		"type": "channel",
		"noteNumber": 36,
		"velocity": 127,
		"subtype": "noteOn",
		"time": 119040,
		"track": 5
	},
	{
		"deltaTime": 0,
		"channel": 9,
		"type": "channel",
		"subtype": "noteOff",
		"noteNumber": 36,
		"velocity": 0,
		"time": 119100,
		"track": 5
	},
	{
		"deltaTime": 0,
		"channel": 9,
		"type": "channel",
		"subtype": "noteOff",
		"noteNumber": 35,
		"velocity": 0,
		"time": 119100,
		"track": 5
	},
	{
		"deltaTime": 60,
		"channel": 9,
		"type": "channel",
		"subtype": "noteOff",
		"noteNumber": 42,
		"velocity": 0,
		"time": 119100,
		"track": 5
	},
	{
		"deltaTime": 0,
		"channel": 1,
		"type": "channel",
		"subtype": "noteOff",
		"noteNumber": 63,
		"velocity": 0,
		"time": 119160,
		"track": 3
	},
	{
		"deltaTime": 0,
		"channel": 1,
		"type": "channel",
		"noteNumber": 61,
		"velocity": 127,
		"subtype": "noteOn",
		"time": 119160,
		"track": 3
	},
	{
		"deltaTime": 60,
		"channel": 9,
		"type": "channel",
		"noteNumber": 42,
		"velocity": 127,
		"subtype": "noteOn",
		"time": 119160,
		"track": 5
	},
	{
		"deltaTime": 60,
		"channel": 9,
		"type": "channel",
		"subtype": "noteOff",
		"noteNumber": 42,
		"velocity": 0,
		"time": 119220,
		"track": 5
	},
	{
		"deltaTime": 0,
		"channel": 9,
		"type": "channel",
		"noteNumber": 42,
		"velocity": 127,
		"subtype": "noteOn",
		"time": 119280,
		"track": 5
	},
	{
		"deltaTime": 0,
		"channel": 9,
		"type": "channel",
		"noteNumber": 36,
		"velocity": 127,
		"subtype": "noteOn",
		"time": 119280,
		"track": 5
	},
	{
		"deltaTime": 60,
		"channel": 9,
		"type": "channel",
		"noteNumber": 35,
		"velocity": 127,
		"subtype": "noteOn",
		"time": 119280,
		"track": 5
	},
	{
		"deltaTime": 0,
		"channel": 9,
		"type": "channel",
		"subtype": "noteOff",
		"noteNumber": 35,
		"velocity": 0,
		"time": 119340,
		"track": 5
	},
	{
		"deltaTime": 0,
		"channel": 9,
		"type": "channel",
		"subtype": "noteOff",
		"noteNumber": 36,
		"velocity": 0,
		"time": 119340,
		"track": 5
	},
	{
		"deltaTime": 60,
		"channel": 9,
		"type": "channel",
		"subtype": "noteOff",
		"noteNumber": 42,
		"velocity": 0,
		"time": 119340,
		"track": 5
	},
	{
		"deltaTime": 0,
		"channel": 1,
		"type": "channel",
		"subtype": "noteOff",
		"noteNumber": 61,
		"velocity": 0,
		"time": 119400,
		"track": 3
	},
	{
		"deltaTime": 0,
		"channel": 1,
		"type": "channel",
		"noteNumber": 61,
		"velocity": 127,
		"subtype": "noteOn",
		"time": 119400,
		"track": 3
	},
	{
		"deltaTime": 0,
		"channel": 2,
		"type": "channel",
		"subtype": "noteOff",
		"noteNumber": 58,
		"velocity": 0,
		"time": 119400,
		"track": 4
	},
	{
		"deltaTime": 0,
		"channel": 2,
		"type": "channel",
		"subtype": "noteOff",
		"noteNumber": 54,
		"velocity": 0,
		"time": 119400,
		"track": 4
	},
	{
		"deltaTime": 0,
		"channel": 2,
		"type": "channel",
		"subtype": "noteOff",
		"noteNumber": 49,
		"velocity": 0,
		"time": 119400,
		"track": 4
	},
	{
		"deltaTime": 0,
		"channel": 2,
		"type": "channel",
		"subtype": "noteOff",
		"noteNumber": 42,
		"velocity": 0,
		"time": 119400,
		"track": 4
	},
	{
		"deltaTime": 0,
		"channel": 2,
		"type": "channel",
		"noteNumber": 54,
		"velocity": 127,
		"subtype": "noteOn",
		"time": 119400,
		"track": 4
	},
	{
		"deltaTime": 0,
		"channel": 2,
		"type": "channel",
		"noteNumber": 58,
		"velocity": 127,
		"subtype": "noteOn",
		"time": 119400,
		"track": 4
	},
	{
		"deltaTime": 60,
		"channel": 9,
		"type": "channel",
		"noteNumber": 42,
		"velocity": 127,
		"subtype": "noteOn",
		"time": 119400,
		"track": 5
	},
	{
		"deltaTime": 60,
		"channel": 9,
		"type": "channel",
		"subtype": "noteOff",
		"noteNumber": 42,
		"velocity": 0,
		"time": 119460,
		"track": 5
	},
	{
		"deltaTime": 0,
		"channel": 2,
		"type": "channel",
		"subtype": "noteOff",
		"noteNumber": 58,
		"velocity": 0,
		"time": 119520,
		"track": 4
	},
	{
		"deltaTime": 0,
		"channel": 2,
		"type": "channel",
		"subtype": "noteOff",
		"noteNumber": 54,
		"velocity": 0,
		"time": 119520,
		"track": 4
	},
	{
		"deltaTime": 0,
		"channel": 2,
		"type": "channel",
		"noteNumber": 42,
		"velocity": 127,
		"subtype": "noteOn",
		"time": 119520,
		"track": 4
	},
	{
		"deltaTime": 0,
		"channel": 2,
		"type": "channel",
		"noteNumber": 49,
		"velocity": 127,
		"subtype": "noteOn",
		"time": 119520,
		"track": 4
	},
	{
		"deltaTime": 0,
		"channel": 2,
		"type": "channel",
		"noteNumber": 58,
		"velocity": 127,
		"subtype": "noteOn",
		"time": 119520,
		"track": 4
	},
	{
		"deltaTime": 0,
		"channel": 2,
		"type": "channel",
		"noteNumber": 61,
		"velocity": 127,
		"subtype": "noteOn",
		"time": 119520,
		"track": 4
	},
	{
		"deltaTime": 0,
		"channel": 9,
		"type": "channel",
		"noteNumber": 42,
		"velocity": 127,
		"subtype": "noteOn",
		"time": 119520,
		"track": 5
	},
	{
		"deltaTime": 0,
		"channel": 9,
		"type": "channel",
		"noteNumber": 38,
		"velocity": 127,
		"subtype": "noteOn",
		"time": 119520,
		"track": 5
	},
	{
		"deltaTime": 60,
		"channel": 9,
		"type": "channel",
		"noteNumber": 40,
		"velocity": 127,
		"subtype": "noteOn",
		"time": 119520,
		"track": 5
	},
	{
		"deltaTime": 0,
		"channel": 9,
		"type": "channel",
		"subtype": "noteOff",
		"noteNumber": 40,
		"velocity": 0,
		"time": 119580,
		"track": 5
	},
	{
		"deltaTime": 0,
		"channel": 9,
		"type": "channel",
		"subtype": "noteOff",
		"noteNumber": 38,
		"velocity": 0,
		"time": 119580,
		"track": 5
	},
	{
		"deltaTime": 60,
		"channel": 9,
		"type": "channel",
		"subtype": "noteOff",
		"noteNumber": 42,
		"velocity": 0,
		"time": 119580,
		"track": 5
	},
	{
		"deltaTime": 0,
		"channel": 1,
		"type": "channel",
		"subtype": "noteOff",
		"noteNumber": 61,
		"velocity": 0,
		"time": 119640,
		"track": 3
	},
	{
		"deltaTime": 60,
		"channel": 9,
		"type": "channel",
		"noteNumber": 42,
		"velocity": 127,
		"subtype": "noteOn",
		"time": 119640,
		"track": 5
	},
	{
		"deltaTime": 60,
		"channel": 9,
		"type": "channel",
		"subtype": "noteOff",
		"noteNumber": 42,
		"velocity": 0,
		"time": 119700,
		"track": 5
	},
	{
		"deltaTime": 0,
		"channel": 1,
		"type": "channel",
		"noteNumber": 59,
		"velocity": 127,
		"subtype": "noteOn",
		"time": 119760,
		"track": 3
	},
	{
		"deltaTime": 60,
		"channel": 9,
		"type": "channel",
		"noteNumber": 42,
		"velocity": 127,
		"subtype": "noteOn",
		"time": 119760,
		"track": 5
	},
	{
		"deltaTime": 60,
		"channel": 9,
		"type": "channel",
		"subtype": "noteOff",
		"noteNumber": 42,
		"velocity": 0,
		"time": 119820,
		"track": 5
	},
	{
		"deltaTime": 0,
		"channel": 1,
		"type": "channel",
		"subtype": "noteOff",
		"noteNumber": 59,
		"velocity": 0,
		"time": 119880,
		"track": 3
	},
	{
		"deltaTime": 0,
		"channel": 1,
		"type": "channel",
		"noteNumber": 61,
		"velocity": 127,
		"subtype": "noteOn",
		"time": 119880,
		"track": 3
	},
	{
		"deltaTime": 0,
		"channel": 9,
		"type": "channel",
		"noteNumber": 42,
		"velocity": 127,
		"subtype": "noteOn",
		"time": 119880,
		"track": 5
	},
	{
		"deltaTime": 0,
		"channel": 9,
		"type": "channel",
		"noteNumber": 36,
		"velocity": 127,
		"subtype": "noteOn",
		"time": 119880,
		"track": 5
	},
	{
		"deltaTime": 60,
		"channel": 9,
		"type": "channel",
		"noteNumber": 35,
		"velocity": 127,
		"subtype": "noteOn",
		"time": 119880,
		"track": 5
	},
	{
		"deltaTime": 0,
		"channel": 9,
		"type": "channel",
		"subtype": "noteOff",
		"noteNumber": 35,
		"velocity": 0,
		"time": 119940,
		"track": 5
	},
	{
		"deltaTime": 0,
		"channel": 9,
		"type": "channel",
		"subtype": "noteOff",
		"noteNumber": 36,
		"velocity": 0,
		"time": 119940,
		"track": 5
	},
	{
		"deltaTime": 60,
		"channel": 9,
		"type": "channel",
		"subtype": "noteOff",
		"noteNumber": 42,
		"velocity": 0,
		"time": 119940,
		"track": 5
	},
	{
		"deltaTime": 0,
		"channel": 0,
		"type": "channel",
		"subtype": "noteOff",
		"noteNumber": 42,
		"velocity": 0,
		"time": 120000,
		"track": 2
	},
	{
		"deltaTime": 0,
		"channel": 0,
		"type": "channel",
		"noteNumber": 35,
		"velocity": 127,
		"subtype": "noteOn",
		"time": 120000,
		"track": 2
	},
	{
		"deltaTime": 0,
		"channel": 1,
		"type": "channel",
		"subtype": "noteOff",
		"noteNumber": 61,
		"velocity": 0,
		"time": 120000,
		"track": 3
	},
	{
		"deltaTime": 0,
		"channel": 1,
		"type": "channel",
		"noteNumber": 63,
		"velocity": 127,
		"subtype": "noteOn",
		"time": 120000,
		"track": 3
	},
	{
		"deltaTime": 0,
		"channel": 2,
		"type": "channel",
		"subtype": "noteOff",
		"noteNumber": 61,
		"velocity": 0,
		"time": 120000,
		"track": 4
	},
	{
		"deltaTime": 0,
		"channel": 2,
		"type": "channel",
		"subtype": "noteOff",
		"noteNumber": 58,
		"velocity": 0,
		"time": 120000,
		"track": 4
	},
	{
		"deltaTime": 0,
		"channel": 2,
		"type": "channel",
		"subtype": "noteOff",
		"noteNumber": 49,
		"velocity": 0,
		"time": 120000,
		"track": 4
	},
	{
		"deltaTime": 0,
		"channel": 2,
		"type": "channel",
		"subtype": "noteOff",
		"noteNumber": 42,
		"velocity": 0,
		"time": 120000,
		"track": 4
	},
	{
		"deltaTime": 0,
		"channel": 2,
		"type": "channel",
		"noteNumber": 47,
		"velocity": 127,
		"subtype": "noteOn",
		"time": 120000,
		"track": 4
	},
	{
		"deltaTime": 0,
		"channel": 2,
		"type": "channel",
		"noteNumber": 54,
		"velocity": 127,
		"subtype": "noteOn",
		"time": 120000,
		"track": 4
	},
	{
		"deltaTime": 0,
		"channel": 2,
		"type": "channel",
		"noteNumber": 59,
		"velocity": 127,
		"subtype": "noteOn",
		"time": 120000,
		"track": 4
	},
	{
		"deltaTime": 0,
		"channel": 2,
		"type": "channel",
		"noteNumber": 66,
		"velocity": 127,
		"subtype": "noteOn",
		"time": 120000,
		"track": 4
	},
	{
		"deltaTime": 60,
		"channel": 9,
		"type": "channel",
		"noteNumber": 42,
		"velocity": 127,
		"subtype": "noteOn",
		"time": 120000,
		"track": 5
	},
	{
		"deltaTime": 60,
		"channel": 9,
		"type": "channel",
		"subtype": "noteOff",
		"noteNumber": 42,
		"velocity": 0,
		"time": 120060,
		"track": 5
	},
	{
		"deltaTime": 60,
		"channel": 9,
		"type": "channel",
		"noteNumber": 42,
		"velocity": 127,
		"subtype": "noteOn",
		"time": 120120,
		"track": 5
	},
	{
		"deltaTime": 60,
		"channel": 9,
		"type": "channel",
		"subtype": "noteOff",
		"noteNumber": 42,
		"velocity": 0,
		"time": 120180,
		"track": 5
	},
	{
		"deltaTime": 0,
		"channel": 1,
		"type": "channel",
		"subtype": "noteOff",
		"noteNumber": 63,
		"velocity": 0,
		"time": 120240,
		"track": 3
	},
	{
		"deltaTime": 0,
		"channel": 1,
		"type": "channel",
		"noteNumber": 64,
		"velocity": 127,
		"subtype": "noteOn",
		"time": 120240,
		"track": 3
	},
	{
		"deltaTime": 0,
		"channel": 2,
		"type": "channel",
		"subtype": "noteOff",
		"noteNumber": 66,
		"velocity": 0,
		"time": 120240,
		"track": 4
	},
	{
		"deltaTime": 0,
		"channel": 2,
		"type": "channel",
		"subtype": "noteOff",
		"noteNumber": 59,
		"velocity": 0,
		"time": 120240,
		"track": 4
	},
	{
		"deltaTime": 0,
		"channel": 2,
		"type": "channel",
		"subtype": "noteOff",
		"noteNumber": 54,
		"velocity": 0,
		"time": 120240,
		"track": 4
	},
	{
		"deltaTime": 0,
		"channel": 2,
		"type": "channel",
		"subtype": "noteOff",
		"noteNumber": 47,
		"velocity": 0,
		"time": 120240,
		"track": 4
	},
	{
		"deltaTime": 0,
		"channel": 2,
		"type": "channel",
		"noteNumber": 54,
		"velocity": 127,
		"subtype": "noteOn",
		"time": 120240,
		"track": 4
	},
	{
		"deltaTime": 0,
		"channel": 2,
		"type": "channel",
		"noteNumber": 59,
		"velocity": 127,
		"subtype": "noteOn",
		"time": 120240,
		"track": 4
	},
	{
		"deltaTime": 0,
		"channel": 2,
		"type": "channel",
		"noteNumber": 63,
		"velocity": 127,
		"subtype": "noteOn",
		"time": 120240,
		"track": 4
	},
	{
		"deltaTime": 0,
		"channel": 9,
		"type": "channel",
		"noteNumber": 42,
		"velocity": 127,
		"subtype": "noteOn",
		"time": 120240,
		"track": 5
	},
	{
		"deltaTime": 0,
		"channel": 9,
		"type": "channel",
		"noteNumber": 36,
		"velocity": 127,
		"subtype": "noteOn",
		"time": 120240,
		"track": 5
	},
	{
		"deltaTime": 60,
		"channel": 9,
		"type": "channel",
		"noteNumber": 35,
		"velocity": 127,
		"subtype": "noteOn",
		"time": 120240,
		"track": 5
	},
	{
		"deltaTime": 0,
		"channel": 9,
		"type": "channel",
		"subtype": "noteOff",
		"noteNumber": 35,
		"velocity": 0,
		"time": 120300,
		"track": 5
	},
	{
		"deltaTime": 0,
		"channel": 9,
		"type": "channel",
		"subtype": "noteOff",
		"noteNumber": 36,
		"velocity": 0,
		"time": 120300,
		"track": 5
	},
	{
		"deltaTime": 60,
		"channel": 9,
		"type": "channel",
		"subtype": "noteOff",
		"noteNumber": 42,
		"velocity": 0,
		"time": 120300,
		"track": 5
	},
	{
		"deltaTime": 0,
		"channel": 1,
		"type": "channel",
		"subtype": "noteOff",
		"noteNumber": 64,
		"velocity": 0,
		"time": 120360,
		"track": 3
	},
	{
		"deltaTime": 0,
		"channel": 1,
		"type": "channel",
		"noteNumber": 63,
		"velocity": 127,
		"subtype": "noteOn",
		"time": 120360,
		"track": 3
	},
	{
		"deltaTime": 60,
		"channel": 9,
		"type": "channel",
		"noteNumber": 42,
		"velocity": 127,
		"subtype": "noteOn",
		"time": 120360,
		"track": 5
	},
	{
		"deltaTime": 60,
		"channel": 9,
		"type": "channel",
		"subtype": "noteOff",
		"noteNumber": 42,
		"velocity": 0,
		"time": 120420,
		"track": 5
	},
	{
		"deltaTime": 0,
		"channel": 0,
		"type": "channel",
		"subtype": "noteOff",
		"noteNumber": 35,
		"velocity": 0,
		"time": 120480,
		"track": 2
	},
	{
		"deltaTime": 0,
		"channel": 0,
		"type": "channel",
		"noteNumber": 34,
		"velocity": 127,
		"subtype": "noteOn",
		"time": 120480,
		"track": 2
	},
	{
		"deltaTime": 0,
		"channel": 2,
		"type": "channel",
		"subtype": "noteOff",
		"noteNumber": 63,
		"velocity": 0,
		"time": 120480,
		"track": 4
	},
	{
		"deltaTime": 0,
		"channel": 2,
		"type": "channel",
		"subtype": "noteOff",
		"noteNumber": 59,
		"velocity": 0,
		"time": 120480,
		"track": 4
	},
	{
		"deltaTime": 0,
		"channel": 2,
		"type": "channel",
		"subtype": "noteOff",
		"noteNumber": 54,
		"velocity": 0,
		"time": 120480,
		"track": 4
	},
	{
		"deltaTime": 0,
		"channel": 2,
		"type": "channel",
		"noteNumber": 46,
		"velocity": 127,
		"subtype": "noteOn",
		"time": 120480,
		"track": 4
	},
	{
		"deltaTime": 0,
		"channel": 2,
		"type": "channel",
		"noteNumber": 54,
		"velocity": 127,
		"subtype": "noteOn",
		"time": 120480,
		"track": 4
	},
	{
		"deltaTime": 0,
		"channel": 9,
		"type": "channel",
		"noteNumber": 42,
		"velocity": 127,
		"subtype": "noteOn",
		"time": 120480,
		"track": 5
	},
	{
		"deltaTime": 0,
		"channel": 9,
		"type": "channel",
		"noteNumber": 40,
		"velocity": 127,
		"subtype": "noteOn",
		"time": 120480,
		"track": 5
	},
	{
		"deltaTime": 60,
		"channel": 9,
		"type": "channel",
		"noteNumber": 38,
		"velocity": 127,
		"subtype": "noteOn",
		"time": 120480,
		"track": 5
	},
	{
		"deltaTime": 0,
		"channel": 9,
		"type": "channel",
		"subtype": "noteOff",
		"noteNumber": 38,
		"velocity": 0,
		"time": 120540,
		"track": 5
	},
	{
		"deltaTime": 0,
		"channel": 9,
		"type": "channel",
		"subtype": "noteOff",
		"noteNumber": 40,
		"velocity": 0,
		"time": 120540,
		"track": 5
	},
	{
		"deltaTime": 60,
		"channel": 9,
		"type": "channel",
		"subtype": "noteOff",
		"noteNumber": 42,
		"velocity": 0,
		"time": 120540,
		"track": 5
	},
	{
		"deltaTime": 0,
		"channel": 1,
		"type": "channel",
		"subtype": "noteOff",
		"noteNumber": 63,
		"velocity": 0,
		"time": 120600,
		"track": 3
	},
	{
		"deltaTime": 0,
		"channel": 1,
		"type": "channel",
		"noteNumber": 63,
		"velocity": 127,
		"subtype": "noteOn",
		"time": 120600,
		"track": 3
	},
	{
		"deltaTime": 60,
		"channel": 9,
		"type": "channel",
		"noteNumber": 42,
		"velocity": 127,
		"subtype": "noteOn",
		"time": 120600,
		"track": 5
	},
	{
		"deltaTime": 60,
		"channel": 9,
		"type": "channel",
		"subtype": "noteOff",
		"noteNumber": 42,
		"velocity": 0,
		"time": 120660,
		"track": 5
	},
	{
		"deltaTime": 0,
		"channel": 1,
		"type": "channel",
		"subtype": "noteOff",
		"noteNumber": 63,
		"velocity": 0,
		"time": 120720,
		"track": 3
	},
	{
		"deltaTime": 0,
		"channel": 1,
		"type": "channel",
		"noteNumber": 61,
		"velocity": 127,
		"subtype": "noteOn",
		"time": 120720,
		"track": 3
	},
	{
		"deltaTime": 0,
		"channel": 2,
		"type": "channel",
		"subtype": "noteOff",
		"noteNumber": 54,
		"velocity": 0,
		"time": 120720,
		"track": 4
	},
	{
		"deltaTime": 0,
		"channel": 2,
		"type": "channel",
		"subtype": "noteOff",
		"noteNumber": 46,
		"velocity": 0,
		"time": 120720,
		"track": 4
	},
	{
		"deltaTime": 0,
		"channel": 2,
		"type": "channel",
		"noteNumber": 54,
		"velocity": 127,
		"subtype": "noteOn",
		"time": 120720,
		"track": 4
	},
	{
		"deltaTime": 0,
		"channel": 2,
		"type": "channel",
		"noteNumber": 59,
		"velocity": 127,
		"subtype": "noteOn",
		"time": 120720,
		"track": 4
	},
	{
		"deltaTime": 0,
		"channel": 2,
		"type": "channel",
		"noteNumber": 63,
		"velocity": 127,
		"subtype": "noteOn",
		"time": 120720,
		"track": 4
	},
	{
		"deltaTime": 60,
		"channel": 9,
		"type": "channel",
		"noteNumber": 42,
		"velocity": 127,
		"subtype": "noteOn",
		"time": 120720,
		"track": 5
	},
	{
		"deltaTime": 60,
		"channel": 9,
		"type": "channel",
		"subtype": "noteOff",
		"noteNumber": 42,
		"velocity": 0,
		"time": 120780,
		"track": 5
	},
	{
		"deltaTime": 0,
		"channel": 1,
		"type": "channel",
		"subtype": "noteOff",
		"noteNumber": 61,
		"velocity": 0,
		"time": 120840,
		"track": 3
	},
	{
		"deltaTime": 0,
		"channel": 1,
		"type": "channel",
		"noteNumber": 63,
		"velocity": 127,
		"subtype": "noteOn",
		"time": 120840,
		"track": 3
	},
	{
		"deltaTime": 60,
		"channel": 9,
		"type": "channel",
		"noteNumber": 42,
		"velocity": 127,
		"subtype": "noteOn",
		"time": 120840,
		"track": 5
	},
	{
		"deltaTime": 60,
		"channel": 9,
		"type": "channel",
		"subtype": "noteOff",
		"noteNumber": 42,
		"velocity": 0,
		"time": 120900,
		"track": 5
	},
	{
		"deltaTime": 0,
		"channel": 0,
		"type": "channel",
		"subtype": "noteOff",
		"noteNumber": 34,
		"velocity": 0,
		"time": 120960,
		"track": 2
	},
	{
		"deltaTime": 0,
		"channel": 0,
		"type": "channel",
		"noteNumber": 32,
		"velocity": 127,
		"subtype": "noteOn",
		"time": 120960,
		"track": 2
	},
	{
		"deltaTime": 0,
		"channel": 2,
		"type": "channel",
		"subtype": "noteOff",
		"noteNumber": 63,
		"velocity": 0,
		"time": 120960,
		"track": 4
	},
	{
		"deltaTime": 0,
		"channel": 2,
		"type": "channel",
		"subtype": "noteOff",
		"noteNumber": 59,
		"velocity": 0,
		"time": 120960,
		"track": 4
	},
	{
		"deltaTime": 0,
		"channel": 2,
		"type": "channel",
		"subtype": "noteOff",
		"noteNumber": 54,
		"velocity": 0,
		"time": 120960,
		"track": 4
	},
	{
		"deltaTime": 0,
		"channel": 2,
		"type": "channel",
		"noteNumber": 44,
		"velocity": 127,
		"subtype": "noteOn",
		"time": 120960,
		"track": 4
	},
	{
		"deltaTime": 0,
		"channel": 2,
		"type": "channel",
		"noteNumber": 51,
		"velocity": 127,
		"subtype": "noteOn",
		"time": 120960,
		"track": 4
	},
	{
		"deltaTime": 0,
		"channel": 2,
		"type": "channel",
		"noteNumber": 56,
		"velocity": 127,
		"subtype": "noteOn",
		"time": 120960,
		"track": 4
	},
	{
		"deltaTime": 0,
		"channel": 2,
		"type": "channel",
		"noteNumber": 59,
		"velocity": 127,
		"subtype": "noteOn",
		"time": 120960,
		"track": 4
	},
	{
		"deltaTime": 0,
		"channel": 2,
		"type": "channel",
		"noteNumber": 63,
		"velocity": 127,
		"subtype": "noteOn",
		"time": 120960,
		"track": 4
	},
	{
		"deltaTime": 0,
		"channel": 9,
		"type": "channel",
		"noteNumber": 42,
		"velocity": 127,
		"subtype": "noteOn",
		"time": 120960,
		"track": 5
	},
	{
		"deltaTime": 0,
		"channel": 9,
		"type": "channel",
		"noteNumber": 35,
		"velocity": 127,
		"subtype": "noteOn",
		"time": 120960,
		"track": 5
	},
	{
		"deltaTime": 60,
		"channel": 9,
		"type": "channel",
		"noteNumber": 36,
		"velocity": 127,
		"subtype": "noteOn",
		"time": 120960,
		"track": 5
	},
	{
		"deltaTime": 0,
		"channel": 9,
		"type": "channel",
		"subtype": "noteOff",
		"noteNumber": 36,
		"velocity": 0,
		"time": 121020,
		"track": 5
	},
	{
		"deltaTime": 0,
		"channel": 9,
		"type": "channel",
		"subtype": "noteOff",
		"noteNumber": 35,
		"velocity": 0,
		"time": 121020,
		"track": 5
	},
	{
		"deltaTime": 60,
		"channel": 9,
		"type": "channel",
		"subtype": "noteOff",
		"noteNumber": 42,
		"velocity": 0,
		"time": 121020,
		"track": 5
	},
	{
		"deltaTime": 60,
		"channel": 9,
		"type": "channel",
		"noteNumber": 42,
		"velocity": 127,
		"subtype": "noteOn",
		"time": 121080,
		"track": 5
	},
	{
		"deltaTime": 60,
		"channel": 9,
		"type": "channel",
		"subtype": "noteOff",
		"noteNumber": 42,
		"velocity": 0,
		"time": 121140,
		"track": 5
	},
	{
		"deltaTime": 0,
		"channel": 1,
		"type": "channel",
		"subtype": "noteOff",
		"noteNumber": 63,
		"velocity": 0,
		"time": 121200,
		"track": 3
	},
	{
		"deltaTime": 0,
		"channel": 9,
		"type": "channel",
		"noteNumber": 42,
		"velocity": 127,
		"subtype": "noteOn",
		"time": 121200,
		"track": 5
	},
	{
		"deltaTime": 0,
		"channel": 9,
		"type": "channel",
		"noteNumber": 36,
		"velocity": 127,
		"subtype": "noteOn",
		"time": 121200,
		"track": 5
	},
	{
		"deltaTime": 60,
		"channel": 9,
		"type": "channel",
		"noteNumber": 35,
		"velocity": 127,
		"subtype": "noteOn",
		"time": 121200,
		"track": 5
	},
	{
		"deltaTime": 0,
		"channel": 9,
		"type": "channel",
		"subtype": "noteOff",
		"noteNumber": 35,
		"velocity": 0,
		"time": 121260,
		"track": 5
	},
	{
		"deltaTime": 0,
		"channel": 9,
		"type": "channel",
		"subtype": "noteOff",
		"noteNumber": 36,
		"velocity": 0,
		"time": 121260,
		"track": 5
	},
	{
		"deltaTime": 60,
		"channel": 9,
		"type": "channel",
		"subtype": "noteOff",
		"noteNumber": 42,
		"velocity": 0,
		"time": 121260,
		"track": 5
	},
	{
		"deltaTime": 0,
		"channel": 2,
		"type": "channel",
		"subtype": "noteOff",
		"noteNumber": 63,
		"velocity": 0,
		"time": 121320,
		"track": 4
	},
	{
		"deltaTime": 0,
		"channel": 2,
		"type": "channel",
		"subtype": "noteOff",
		"noteNumber": 59,
		"velocity": 0,
		"time": 121320,
		"track": 4
	},
	{
		"deltaTime": 0,
		"channel": 2,
		"type": "channel",
		"subtype": "noteOff",
		"noteNumber": 56,
		"velocity": 0,
		"time": 121320,
		"track": 4
	},
	{
		"deltaTime": 0,
		"channel": 2,
		"type": "channel",
		"subtype": "noteOff",
		"noteNumber": 51,
		"velocity": 0,
		"time": 121320,
		"track": 4
	},
	{
		"deltaTime": 0,
		"channel": 2,
		"type": "channel",
		"subtype": "noteOff",
		"noteNumber": 44,
		"velocity": 0,
		"time": 121320,
		"track": 4
	},
	{
		"deltaTime": 0,
		"channel": 2,
		"type": "channel",
		"noteNumber": 56,
		"velocity": 127,
		"subtype": "noteOn",
		"time": 121320,
		"track": 4
	},
	{
		"deltaTime": 0,
		"channel": 2,
		"type": "channel",
		"noteNumber": 59,
		"velocity": 127,
		"subtype": "noteOn",
		"time": 121320,
		"track": 4
	},
	{
		"deltaTime": 60,
		"channel": 9,
		"type": "channel",
		"noteNumber": 42,
		"velocity": 127,
		"subtype": "noteOn",
		"time": 121320,
		"track": 5
	},
	{
		"deltaTime": 60,
		"channel": 9,
		"type": "channel",
		"subtype": "noteOff",
		"noteNumber": 42,
		"velocity": 0,
		"time": 121380,
		"track": 5
	},
	{
		"deltaTime": 0,
		"channel": 1,
		"type": "channel",
		"noteNumber": 56,
		"velocity": 127,
		"subtype": "noteOn",
		"time": 121440,
		"track": 3
	},
	{
		"deltaTime": 0,
		"channel": 2,
		"type": "channel",
		"subtype": "noteOff",
		"noteNumber": 59,
		"velocity": 0,
		"time": 121440,
		"track": 4
	},
	{
		"deltaTime": 0,
		"channel": 2,
		"type": "channel",
		"subtype": "noteOff",
		"noteNumber": 56,
		"velocity": 0,
		"time": 121440,
		"track": 4
	},
	{
		"deltaTime": 0,
		"channel": 2,
		"type": "channel",
		"noteNumber": 51,
		"velocity": 127,
		"subtype": "noteOn",
		"time": 121440,
		"track": 4
	},
	{
		"deltaTime": 0,
		"channel": 2,
		"type": "channel",
		"noteNumber": 59,
		"velocity": 127,
		"subtype": "noteOn",
		"time": 121440,
		"track": 4
	},
	{
		"deltaTime": 0,
		"channel": 2,
		"type": "channel",
		"noteNumber": 63,
		"velocity": 127,
		"subtype": "noteOn",
		"time": 121440,
		"track": 4
	},
	{
		"deltaTime": 0,
		"channel": 9,
		"type": "channel",
		"noteNumber": 42,
		"velocity": 127,
		"subtype": "noteOn",
		"time": 121440,
		"track": 5
	},
	{
		"deltaTime": 0,
		"channel": 9,
		"type": "channel",
		"noteNumber": 38,
		"velocity": 127,
		"subtype": "noteOn",
		"time": 121440,
		"track": 5
	},
	{
		"deltaTime": 60,
		"channel": 9,
		"type": "channel",
		"noteNumber": 40,
		"velocity": 127,
		"subtype": "noteOn",
		"time": 121440,
		"track": 5
	},
	{
		"deltaTime": 0,
		"channel": 9,
		"type": "channel",
		"subtype": "noteOff",
		"noteNumber": 40,
		"velocity": 0,
		"time": 121500,
		"track": 5
	},
	{
		"deltaTime": 0,
		"channel": 9,
		"type": "channel",
		"subtype": "noteOff",
		"noteNumber": 38,
		"velocity": 0,
		"time": 121500,
		"track": 5
	},
	{
		"deltaTime": 60,
		"channel": 9,
		"type": "channel",
		"subtype": "noteOff",
		"noteNumber": 42,
		"velocity": 0,
		"time": 121500,
		"track": 5
	},
	{
		"deltaTime": 60,
		"channel": 9,
		"type": "channel",
		"noteNumber": 42,
		"velocity": 127,
		"subtype": "noteOn",
		"time": 121560,
		"track": 5
	},
	{
		"deltaTime": 60,
		"channel": 9,
		"type": "channel",
		"subtype": "noteOff",
		"noteNumber": 42,
		"velocity": 0,
		"time": 121620,
		"track": 5
	},
	{
		"deltaTime": 0,
		"channel": 0,
		"type": "channel",
		"subtype": "noteOff",
		"noteNumber": 32,
		"velocity": 0,
		"time": 121680,
		"track": 2
	},
	{
		"deltaTime": 0,
		"channel": 0,
		"type": "channel",
		"noteNumber": 32,
		"velocity": 127,
		"subtype": "noteOn",
		"time": 121680,
		"track": 2
	},
	{
		"deltaTime": 0,
		"channel": 1,
		"type": "channel",
		"subtype": "noteOff",
		"noteNumber": 56,
		"velocity": 0,
		"time": 121680,
		"track": 3
	},
	{
		"deltaTime": 0,
		"channel": 1,
		"type": "channel",
		"noteNumber": 63,
		"velocity": 127,
		"subtype": "noteOn",
		"time": 121680,
		"track": 3
	},
	{
		"deltaTime": 60,
		"channel": 9,
		"type": "channel",
		"noteNumber": 42,
		"velocity": 127,
		"subtype": "noteOn",
		"time": 121680,
		"track": 5
	},
	{
		"deltaTime": 60,
		"channel": 9,
		"type": "channel",
		"subtype": "noteOff",
		"noteNumber": 42,
		"velocity": 0,
		"time": 121740,
		"track": 5
	},
	{
		"deltaTime": 0,
		"channel": 1,
		"type": "channel",
		"subtype": "noteOff",
		"noteNumber": 63,
		"velocity": 0,
		"time": 121800,
		"track": 3
	},
	{
		"deltaTime": 0,
		"channel": 1,
		"type": "channel",
		"noteNumber": 61,
		"velocity": 127,
		"subtype": "noteOn",
		"time": 121800,
		"track": 3
	},
	{
		"deltaTime": 0,
		"channel": 9,
		"type": "channel",
		"noteNumber": 42,
		"velocity": 127,
		"subtype": "noteOn",
		"time": 121800,
		"track": 5
	},
	{
		"deltaTime": 0,
		"channel": 9,
		"type": "channel",
		"noteNumber": 36,
		"velocity": 127,
		"subtype": "noteOn",
		"time": 121800,
		"track": 5
	},
	{
		"deltaTime": 60,
		"channel": 9,
		"type": "channel",
		"noteNumber": 35,
		"velocity": 127,
		"subtype": "noteOn",
		"time": 121800,
		"track": 5
	},
	{
		"deltaTime": 0,
		"channel": 9,
		"type": "channel",
		"subtype": "noteOff",
		"noteNumber": 35,
		"velocity": 0,
		"time": 121860,
		"track": 5
	},
	{
		"deltaTime": 0,
		"channel": 9,
		"type": "channel",
		"subtype": "noteOff",
		"noteNumber": 36,
		"velocity": 0,
		"time": 121860,
		"track": 5
	},
	{
		"deltaTime": 60,
		"channel": 9,
		"type": "channel",
		"subtype": "noteOff",
		"noteNumber": 42,
		"velocity": 0,
		"time": 121860,
		"track": 5
	},
	{
		"deltaTime": 0,
		"channel": 0,
		"type": "channel",
		"subtype": "noteOff",
		"noteNumber": 32,
		"velocity": 0,
		"time": 121920,
		"track": 2
	},
	{
		"deltaTime": 0,
		"channel": 0,
		"type": "channel",
		"noteNumber": 40,
		"velocity": 127,
		"subtype": "noteOn",
		"time": 121920,
		"track": 2
	},
	{
		"deltaTime": 0,
		"channel": 2,
		"type": "channel",
		"subtype": "noteOff",
		"noteNumber": 63,
		"velocity": 0,
		"time": 121920,
		"track": 4
	},
	{
		"deltaTime": 0,
		"channel": 2,
		"type": "channel",
		"subtype": "noteOff",
		"noteNumber": 59,
		"velocity": 0,
		"time": 121920,
		"track": 4
	},
	{
		"deltaTime": 0,
		"channel": 2,
		"type": "channel",
		"subtype": "noteOff",
		"noteNumber": 51,
		"velocity": 0,
		"time": 121920,
		"track": 4
	},
	{
		"deltaTime": 0,
		"channel": 2,
		"type": "channel",
		"noteNumber": 40,
		"velocity": 127,
		"subtype": "noteOn",
		"time": 121920,
		"track": 4
	},
	{
		"deltaTime": 0,
		"channel": 2,
		"type": "channel",
		"noteNumber": 47,
		"velocity": 127,
		"subtype": "noteOn",
		"time": 121920,
		"track": 4
	},
	{
		"deltaTime": 0,
		"channel": 2,
		"type": "channel",
		"noteNumber": 52,
		"velocity": 127,
		"subtype": "noteOn",
		"time": 121920,
		"track": 4
	},
	{
		"deltaTime": 0,
		"channel": 2,
		"type": "channel",
		"noteNumber": 56,
		"velocity": 127,
		"subtype": "noteOn",
		"time": 121920,
		"track": 4
	},
	{
		"deltaTime": 60,
		"channel": 9,
		"type": "channel",
		"noteNumber": 42,
		"velocity": 127,
		"subtype": "noteOn",
		"time": 121920,
		"track": 5
	},
	{
		"deltaTime": 60,
		"channel": 9,
		"type": "channel",
		"subtype": "noteOff",
		"noteNumber": 42,
		"velocity": 0,
		"time": 121980,
		"track": 5
	},
	{
		"deltaTime": 60,
		"channel": 9,
		"type": "channel",
		"noteNumber": 42,
		"velocity": 127,
		"subtype": "noteOn",
		"time": 122040,
		"track": 5
	},
	{
		"deltaTime": 60,
		"channel": 9,
		"type": "channel",
		"subtype": "noteOff",
		"noteNumber": 42,
		"velocity": 0,
		"time": 122100,
		"track": 5
	},
	{
		"deltaTime": 0,
		"channel": 9,
		"type": "channel",
		"noteNumber": 42,
		"velocity": 127,
		"subtype": "noteOn",
		"time": 122160,
		"track": 5
	},
	{
		"deltaTime": 0,
		"channel": 9,
		"type": "channel",
		"noteNumber": 36,
		"velocity": 127,
		"subtype": "noteOn",
		"time": 122160,
		"track": 5
	},
	{
		"deltaTime": 60,
		"channel": 9,
		"type": "channel",
		"noteNumber": 35,
		"velocity": 127,
		"subtype": "noteOn",
		"time": 122160,
		"track": 5
	},
	{
		"deltaTime": 0,
		"channel": 9,
		"type": "channel",
		"subtype": "noteOff",
		"noteNumber": 35,
		"velocity": 0,
		"time": 122220,
		"track": 5
	},
	{
		"deltaTime": 0,
		"channel": 9,
		"type": "channel",
		"subtype": "noteOff",
		"noteNumber": 36,
		"velocity": 0,
		"time": 122220,
		"track": 5
	},
	{
		"deltaTime": 60,
		"channel": 9,
		"type": "channel",
		"subtype": "noteOff",
		"noteNumber": 42,
		"velocity": 0,
		"time": 122220,
		"track": 5
	},
	{
		"deltaTime": 0,
		"channel": 1,
		"type": "channel",
		"subtype": "noteOff",
		"noteNumber": 61,
		"velocity": 0,
		"time": 122280,
		"track": 3
	},
	{
		"deltaTime": 0,
		"channel": 1,
		"type": "channel",
		"noteNumber": 63,
		"velocity": 127,
		"subtype": "noteOn",
		"time": 122280,
		"track": 3
	},
	{
		"deltaTime": 0,
		"channel": 2,
		"type": "channel",
		"subtype": "noteOff",
		"noteNumber": 56,
		"velocity": 0,
		"time": 122280,
		"track": 4
	},
	{
		"deltaTime": 0,
		"channel": 2,
		"type": "channel",
		"subtype": "noteOff",
		"noteNumber": 52,
		"velocity": 0,
		"time": 122280,
		"track": 4
	},
	{
		"deltaTime": 0,
		"channel": 2,
		"type": "channel",
		"subtype": "noteOff",
		"noteNumber": 47,
		"velocity": 0,
		"time": 122280,
		"track": 4
	},
	{
		"deltaTime": 0,
		"channel": 2,
		"type": "channel",
		"subtype": "noteOff",
		"noteNumber": 40,
		"velocity": 0,
		"time": 122280,
		"track": 4
	},
	{
		"deltaTime": 0,
		"channel": 2,
		"type": "channel",
		"noteNumber": 52,
		"velocity": 127,
		"subtype": "noteOn",
		"time": 122280,
		"track": 4
	},
	{
		"deltaTime": 0,
		"channel": 2,
		"type": "channel",
		"noteNumber": 56,
		"velocity": 127,
		"subtype": "noteOn",
		"time": 122280,
		"track": 4
	},
	{
		"deltaTime": 60,
		"channel": 9,
		"type": "channel",
		"noteNumber": 42,
		"velocity": 127,
		"subtype": "noteOn",
		"time": 122280,
		"track": 5
	},
	{
		"deltaTime": 60,
		"channel": 9,
		"type": "channel",
		"subtype": "noteOff",
		"noteNumber": 42,
		"velocity": 0,
		"time": 122340,
		"track": 5
	},
	{
		"deltaTime": 0,
		"channel": 1,
		"type": "channel",
		"subtype": "noteOff",
		"noteNumber": 63,
		"velocity": 0,
		"time": 122400,
		"track": 3
	},
	{
		"deltaTime": 0,
		"channel": 1,
		"type": "channel",
		"noteNumber": 59,
		"velocity": 127,
		"subtype": "noteOn",
		"time": 122400,
		"track": 3
	},
	{
		"deltaTime": 0,
		"channel": 2,
		"type": "channel",
		"subtype": "noteOff",
		"noteNumber": 56,
		"velocity": 0,
		"time": 122400,
		"track": 4
	},
	{
		"deltaTime": 0,
		"channel": 2,
		"type": "channel",
		"subtype": "noteOff",
		"noteNumber": 52,
		"velocity": 0,
		"time": 122400,
		"track": 4
	},
	{
		"deltaTime": 0,
		"channel": 2,
		"type": "channel",
		"noteNumber": 40,
		"velocity": 127,
		"subtype": "noteOn",
		"time": 122400,
		"track": 4
	},
	{
		"deltaTime": 0,
		"channel": 2,
		"type": "channel",
		"noteNumber": 52,
		"velocity": 127,
		"subtype": "noteOn",
		"time": 122400,
		"track": 4
	},
	{
		"deltaTime": 0,
		"channel": 2,
		"type": "channel",
		"noteNumber": 56,
		"velocity": 127,
		"subtype": "noteOn",
		"time": 122400,
		"track": 4
	},
	{
		"deltaTime": 0,
		"channel": 2,
		"type": "channel",
		"noteNumber": 59,
		"velocity": 127,
		"subtype": "noteOn",
		"time": 122400,
		"track": 4
	},
	{
		"deltaTime": 0,
		"channel": 9,
		"type": "channel",
		"noteNumber": 42,
		"velocity": 127,
		"subtype": "noteOn",
		"time": 122400,
		"track": 5
	},
	{
		"deltaTime": 0,
		"channel": 9,
		"type": "channel",
		"noteNumber": 40,
		"velocity": 127,
		"subtype": "noteOn",
		"time": 122400,
		"track": 5
	},
	{
		"deltaTime": 60,
		"channel": 9,
		"type": "channel",
		"noteNumber": 38,
		"velocity": 127,
		"subtype": "noteOn",
		"time": 122400,
		"track": 5
	},
	{
		"deltaTime": 0,
		"channel": 9,
		"type": "channel",
		"subtype": "noteOff",
		"noteNumber": 38,
		"velocity": 0,
		"time": 122460,
		"track": 5
	},
	{
		"deltaTime": 0,
		"channel": 9,
		"type": "channel",
		"subtype": "noteOff",
		"noteNumber": 40,
		"velocity": 0,
		"time": 122460,
		"track": 5
	},
	{
		"deltaTime": 60,
		"channel": 9,
		"type": "channel",
		"subtype": "noteOff",
		"noteNumber": 42,
		"velocity": 0,
		"time": 122460,
		"track": 5
	},
	{
		"deltaTime": 60,
		"channel": 9,
		"type": "channel",
		"noteNumber": 42,
		"velocity": 127,
		"subtype": "noteOn",
		"time": 122520,
		"track": 5
	},
	{
		"deltaTime": 60,
		"channel": 9,
		"type": "channel",
		"subtype": "noteOff",
		"noteNumber": 42,
		"velocity": 0,
		"time": 122580,
		"track": 5
	},
	{
		"deltaTime": 0,
		"channel": 0,
		"type": "channel",
		"subtype": "noteOff",
		"noteNumber": 40,
		"velocity": 0,
		"time": 122640,
		"track": 2
	},
	{
		"deltaTime": 0,
		"channel": 0,
		"type": "channel",
		"noteNumber": 40,
		"velocity": 127,
		"subtype": "noteOn",
		"time": 122640,
		"track": 2
	},
	{
		"deltaTime": 0,
		"channel": 1,
		"type": "channel",
		"subtype": "noteOff",
		"noteNumber": 59,
		"velocity": 0,
		"time": 122640,
		"track": 3
	},
	{
		"deltaTime": 0,
		"channel": 1,
		"type": "channel",
		"noteNumber": 56,
		"velocity": 127,
		"subtype": "noteOn",
		"time": 122640,
		"track": 3
	},
	{
		"deltaTime": 60,
		"channel": 9,
		"type": "channel",
		"noteNumber": 42,
		"velocity": 127,
		"subtype": "noteOn",
		"time": 122640,
		"track": 5
	},
	{
		"deltaTime": 60,
		"channel": 9,
		"type": "channel",
		"subtype": "noteOff",
		"noteNumber": 42,
		"velocity": 0,
		"time": 122700,
		"track": 5
	},
	{
		"deltaTime": 0,
		"channel": 1,
		"type": "channel",
		"subtype": "noteOff",
		"noteNumber": 56,
		"velocity": 0,
		"time": 122760,
		"track": 3
	},
	{
		"deltaTime": 0,
		"channel": 1,
		"type": "channel",
		"noteNumber": 59,
		"velocity": 127,
		"subtype": "noteOn",
		"time": 122760,
		"track": 3
	},
	{
		"deltaTime": 60,
		"channel": 9,
		"type": "channel",
		"noteNumber": 42,
		"velocity": 127,
		"subtype": "noteOn",
		"time": 122760,
		"track": 5
	},
	{
		"deltaTime": 60,
		"channel": 9,
		"type": "channel",
		"subtype": "noteOff",
		"noteNumber": 42,
		"velocity": 0,
		"time": 122820,
		"track": 5
	},
	{
		"deltaTime": 0,
		"channel": 0,
		"type": "channel",
		"subtype": "noteOff",
		"noteNumber": 40,
		"velocity": 0,
		"time": 122880,
		"track": 2
	},
	{
		"deltaTime": 0,
		"channel": 0,
		"type": "channel",
		"noteNumber": 41,
		"velocity": 127,
		"subtype": "noteOn",
		"time": 122880,
		"track": 2
	},
	{
		"deltaTime": 0,
		"channel": 1,
		"type": "channel",
		"subtype": "noteOff",
		"noteNumber": 59,
		"velocity": 0,
		"time": 122880,
		"track": 3
	},
	{
		"deltaTime": 0,
		"channel": 1,
		"type": "channel",
		"noteNumber": 63,
		"velocity": 127,
		"subtype": "noteOn",
		"time": 122880,
		"track": 3
	},
	{
		"deltaTime": 0,
		"channel": 2,
		"type": "channel",
		"subtype": "noteOff",
		"noteNumber": 59,
		"velocity": 0,
		"time": 122880,
		"track": 4
	},
	{
		"deltaTime": 0,
		"channel": 2,
		"type": "channel",
		"subtype": "noteOff",
		"noteNumber": 56,
		"velocity": 0,
		"time": 122880,
		"track": 4
	},
	{
		"deltaTime": 0,
		"channel": 2,
		"type": "channel",
		"subtype": "noteOff",
		"noteNumber": 52,
		"velocity": 0,
		"time": 122880,
		"track": 4
	},
	{
		"deltaTime": 0,
		"channel": 2,
		"type": "channel",
		"subtype": "noteOff",
		"noteNumber": 40,
		"velocity": 0,
		"time": 122880,
		"track": 4
	},
	{
		"deltaTime": 0,
		"channel": 9,
		"type": "channel",
		"noteNumber": 35,
		"velocity": 127,
		"subtype": "noteOn",
		"time": 122880,
		"track": 5
	},
	{
		"deltaTime": 60,
		"channel": 9,
		"type": "channel",
		"noteNumber": 36,
		"velocity": 127,
		"subtype": "noteOn",
		"time": 122880,
		"track": 5
	},
	{
		"deltaTime": 0,
		"channel": 9,
		"type": "channel",
		"subtype": "noteOff",
		"noteNumber": 36,
		"velocity": 0,
		"time": 122940,
		"track": 5
	},
	{
		"deltaTime": 180,
		"channel": 9,
		"type": "channel",
		"subtype": "noteOff",
		"noteNumber": 35,
		"velocity": 0,
		"time": 122940,
		"track": 5
	},
	{
		"deltaTime": 0,
		"channel": 1,
		"type": "channel",
		"subtype": "noteOff",
		"noteNumber": 63,
		"velocity": 0,
		"time": 123120,
		"track": 3
	},
	{
		"deltaTime": 0,
		"channel": 1,
		"type": "channel",
		"noteNumber": 59,
		"velocity": 127,
		"subtype": "noteOn",
		"time": 123120,
		"track": 3
	},
	{
		"deltaTime": 0,
		"channel": 9,
		"type": "channel",
		"noteNumber": 35,
		"velocity": 127,
		"subtype": "noteOn",
		"time": 123120,
		"track": 5
	},
	{
		"deltaTime": 60,
		"channel": 9,
		"type": "channel",
		"noteNumber": 36,
		"velocity": 127,
		"subtype": "noteOn",
		"time": 123120,
		"track": 5
	},
	{
		"deltaTime": 0,
		"channel": 9,
		"type": "channel",
		"subtype": "noteOff",
		"noteNumber": 36,
		"velocity": 0,
		"time": 123180,
		"track": 5
	},
	{
		"deltaTime": 60,
		"channel": 9,
		"type": "channel",
		"subtype": "noteOff",
		"noteNumber": 35,
		"velocity": 0,
		"time": 123180,
		"track": 5
	},
	{
		"deltaTime": 0,
		"channel": 1,
		"type": "channel",
		"subtype": "noteOff",
		"noteNumber": 59,
		"velocity": 0,
		"time": 123240,
		"track": 3
	},
	{
		"deltaTime": 120,
		"channel": 1,
		"type": "channel",
		"noteNumber": 61,
		"velocity": 127,
		"subtype": "noteOn",
		"time": 123240,
		"track": 3
	},
	{
		"deltaTime": 60,
		"channel": 9,
		"type": "channel",
		"noteNumber": 39,
		"velocity": 127,
		"subtype": "noteOn",
		"time": 123360,
		"track": 5
	},
	{
		"deltaTime": 180,
		"channel": 9,
		"type": "channel",
		"subtype": "noteOff",
		"noteNumber": 39,
		"velocity": 0,
		"time": 123420,
		"track": 5
	},
	{
		"deltaTime": 0,
		"channel": 0,
		"type": "channel",
		"subtype": "noteOff",
		"noteNumber": 41,
		"velocity": 0,
		"time": 123600,
		"track": 2
	},
	{
		"deltaTime": 120,
		"channel": 0,
		"type": "channel",
		"noteNumber": 41,
		"velocity": 127,
		"subtype": "noteOn",
		"time": 123600,
		"track": 2
	},
	{
		"deltaTime": 0,
		"channel": 1,
		"type": "channel",
		"subtype": "noteOff",
		"noteNumber": 61,
		"velocity": 0,
		"time": 123720,
		"track": 3
	},
	{
		"deltaTime": 0,
		"channel": 1,
		"type": "channel",
		"noteNumber": 56,
		"velocity": 127,
		"subtype": "noteOn",
		"time": 123720,
		"track": 3
	},
	{
		"deltaTime": 0,
		"channel": 9,
		"type": "channel",
		"noteNumber": 35,
		"velocity": 127,
		"subtype": "noteOn",
		"time": 123720,
		"track": 5
	},
	{
		"deltaTime": 60,
		"channel": 9,
		"type": "channel",
		"noteNumber": 36,
		"velocity": 127,
		"subtype": "noteOn",
		"time": 123720,
		"track": 5
	},
	{
		"deltaTime": 0,
		"channel": 9,
		"type": "channel",
		"subtype": "noteOff",
		"noteNumber": 36,
		"velocity": 0,
		"time": 123780,
		"track": 5
	},
	{
		"deltaTime": 60,
		"channel": 9,
		"type": "channel",
		"subtype": "noteOff",
		"noteNumber": 35,
		"velocity": 0,
		"time": 123780,
		"track": 5
	},
	{
		"deltaTime": 0,
		"channel": 0,
		"type": "channel",
		"subtype": "noteOff",
		"noteNumber": 41,
		"velocity": 0,
		"time": 123840,
		"track": 2
	},
	{
		"deltaTime": 0,
		"channel": 0,
		"type": "channel",
		"noteNumber": 40,
		"velocity": 127,
		"subtype": "noteOn",
		"time": 123840,
		"track": 2
	},
	{
		"deltaTime": 0,
		"channel": 1,
		"type": "channel",
		"subtype": "noteOff",
		"noteNumber": 56,
		"velocity": 0,
		"time": 123840,
		"track": 3
	},
	{
		"deltaTime": 240,
		"channel": 1,
		"type": "channel",
		"noteNumber": 63,
		"velocity": 127,
		"subtype": "noteOn",
		"time": 123840,
		"track": 3
	},
	{
		"deltaTime": 0,
		"channel": 1,
		"type": "channel",
		"subtype": "noteOff",
		"noteNumber": 63,
		"velocity": 0,
		"time": 124080,
		"track": 3
	},
	{
		"deltaTime": 0,
		"channel": 1,
		"type": "channel",
		"noteNumber": 59,
		"velocity": 127,
		"subtype": "noteOn",
		"time": 124080,
		"track": 3
	},
	{
		"deltaTime": 0,
		"channel": 9,
		"type": "channel",
		"noteNumber": 35,
		"velocity": 127,
		"subtype": "noteOn",
		"time": 124080,
		"track": 5
	},
	{
		"deltaTime": 60,
		"channel": 9,
		"type": "channel",
		"noteNumber": 36,
		"velocity": 127,
		"subtype": "noteOn",
		"time": 124080,
		"track": 5
	},
	{
		"deltaTime": 0,
		"channel": 9,
		"type": "channel",
		"subtype": "noteOff",
		"noteNumber": 36,
		"velocity": 0,
		"time": 124140,
		"track": 5
	},
	{
		"deltaTime": 180,
		"channel": 9,
		"type": "channel",
		"subtype": "noteOff",
		"noteNumber": 35,
		"velocity": 0,
		"time": 124140,
		"track": 5
	},
	{
		"deltaTime": 0,
		"channel": 0,
		"type": "channel",
		"subtype": "noteOff",
		"noteNumber": 40,
		"velocity": 0,
		"time": 124320,
		"track": 2
	},
	{
		"deltaTime": 0,
		"channel": 0,
		"type": "channel",
		"noteNumber": 35,
		"velocity": 127,
		"subtype": "noteOn",
		"time": 124320,
		"track": 2
	},
	{
		"deltaTime": 0,
		"channel": 1,
		"type": "channel",
		"subtype": "noteOff",
		"noteNumber": 59,
		"velocity": 0,
		"time": 124320,
		"track": 3
	},
	{
		"deltaTime": 0,
		"channel": 1,
		"type": "channel",
		"noteNumber": 61,
		"velocity": 127,
		"subtype": "noteOn",
		"time": 124320,
		"track": 3
	},
	{
		"deltaTime": 0,
		"channel": 9,
		"type": "channel",
		"noteNumber": 38,
		"velocity": 127,
		"subtype": "noteOn",
		"time": 124320,
		"track": 5
	},
	{
		"deltaTime": 60,
		"channel": 9,
		"type": "channel",
		"noteNumber": 40,
		"velocity": 127,
		"subtype": "noteOn",
		"time": 124320,
		"track": 5
	},
	{
		"deltaTime": 0,
		"channel": 9,
		"type": "channel",
		"subtype": "noteOff",
		"noteNumber": 40,
		"velocity": 0,
		"time": 124380,
		"track": 5
	},
	{
		"deltaTime": 180,
		"channel": 9,
		"type": "channel",
		"subtype": "noteOff",
		"noteNumber": 38,
		"velocity": 0,
		"time": 124380,
		"track": 5
	},
	{
		"deltaTime": 0,
		"channel": 0,
		"type": "channel",
		"subtype": "noteOff",
		"noteNumber": 35,
		"velocity": 0,
		"time": 124560,
		"track": 2
	},
	{
		"deltaTime": 0,
		"channel": 0,
		"type": "channel",
		"noteNumber": 34,
		"velocity": 127,
		"subtype": "noteOn",
		"time": 124560,
		"track": 2
	},
	{
		"deltaTime": 0,
		"channel": 1,
		"type": "channel",
		"subtype": "noteOff",
		"noteNumber": 61,
		"velocity": 0,
		"time": 124560,
		"track": 3
	},
	{
		"deltaTime": 0,
		"channel": 1,
		"type": "channel",
		"noteNumber": 59,
		"velocity": 127,
		"subtype": "noteOn",
		"time": 124560,
		"track": 3
	},
	{
		"deltaTime": 0,
		"channel": 9,
		"type": "channel",
		"noteNumber": 35,
		"velocity": 127,
		"subtype": "noteOn",
		"time": 124560,
		"track": 5
	},
	{
		"deltaTime": 60,
		"channel": 9,
		"type": "channel",
		"noteNumber": 36,
		"velocity": 127,
		"subtype": "noteOn",
		"time": 124560,
		"track": 5
	},
	{
		"deltaTime": 0,
		"channel": 9,
		"type": "channel",
		"subtype": "noteOff",
		"noteNumber": 36,
		"velocity": 0,
		"time": 124620,
		"track": 5
	},
	{
		"deltaTime": 180,
		"channel": 9,
		"type": "channel",
		"subtype": "noteOff",
		"noteNumber": 35,
		"velocity": 0,
		"time": 124620,
		"track": 5
	},
	{
		"deltaTime": 0,
		"channel": 0,
		"type": "channel",
		"subtype": "noteOff",
		"noteNumber": 34,
		"velocity": 0,
		"time": 124800,
		"track": 2
	},
	{
		"deltaTime": 0,
		"channel": 0,
		"type": "channel",
		"noteNumber": 32,
		"velocity": 127,
		"subtype": "noteOn",
		"time": 124800,
		"track": 2
	},
	{
		"deltaTime": 0,
		"channel": 1,
		"type": "channel",
		"subtype": "noteOff",
		"noteNumber": 59,
		"velocity": 0,
		"time": 124800,
		"track": 3
	},
	{
		"deltaTime": 0,
		"channel": 2,
		"type": "channel",
		"noteNumber": 44,
		"velocity": 127,
		"subtype": "noteOn",
		"time": 124800,
		"track": 4
	},
	{
		"deltaTime": 0,
		"channel": 9,
		"type": "channel",
		"noteNumber": 42,
		"velocity": 127,
		"subtype": "noteOn",
		"time": 124800,
		"track": 5
	},
	{
		"deltaTime": 0,
		"channel": 9,
		"type": "channel",
		"noteNumber": 35,
		"velocity": 127,
		"subtype": "noteOn",
		"time": 124800,
		"track": 5
	},
	{
		"deltaTime": 60,
		"channel": 9,
		"type": "channel",
		"noteNumber": 36,
		"velocity": 127,
		"subtype": "noteOn",
		"time": 124800,
		"track": 5
	},
	{
		"deltaTime": 0,
		"channel": 9,
		"type": "channel",
		"subtype": "noteOff",
		"noteNumber": 36,
		"velocity": 0,
		"time": 124860,
		"track": 5
	},
	{
		"deltaTime": 0,
		"channel": 9,
		"type": "channel",
		"subtype": "noteOff",
		"noteNumber": 35,
		"velocity": 0,
		"time": 124860,
		"track": 5
	},
	{
		"deltaTime": 60,
		"channel": 9,
		"type": "channel",
		"subtype": "noteOff",
		"noteNumber": 42,
		"velocity": 0,
		"time": 124860,
		"track": 5
	},
	{
		"deltaTime": 60,
		"channel": 9,
		"type": "channel",
		"noteNumber": 42,
		"velocity": 127,
		"subtype": "noteOn",
		"time": 124920,
		"track": 5
	},
	{
		"deltaTime": 60,
		"channel": 9,
		"type": "channel",
		"subtype": "noteOff",
		"noteNumber": 42,
		"velocity": 0,
		"time": 124980,
		"track": 5
	},
	{
		"deltaTime": 0,
		"channel": 9,
		"type": "channel",
		"noteNumber": 42,
		"velocity": 127,
		"subtype": "noteOn",
		"time": 125040,
		"track": 5
	},
	{
		"deltaTime": 0,
		"channel": 9,
		"type": "channel",
		"noteNumber": 36,
		"velocity": 127,
		"subtype": "noteOn",
		"time": 125040,
		"track": 5
	},
	{
		"deltaTime": 60,
		"channel": 9,
		"type": "channel",
		"noteNumber": 35,
		"velocity": 127,
		"subtype": "noteOn",
		"time": 125040,
		"track": 5
	},
	{
		"deltaTime": 0,
		"channel": 9,
		"type": "channel",
		"subtype": "noteOff",
		"noteNumber": 35,
		"velocity": 0,
		"time": 125100,
		"track": 5
	},
	{
		"deltaTime": 0,
		"channel": 9,
		"type": "channel",
		"subtype": "noteOff",
		"noteNumber": 36,
		"velocity": 0,
		"time": 125100,
		"track": 5
	},
	{
		"deltaTime": 60,
		"channel": 9,
		"type": "channel",
		"subtype": "noteOff",
		"noteNumber": 42,
		"velocity": 0,
		"time": 125100,
		"track": 5
	},
	{
		"deltaTime": 0,
		"channel": 2,
		"type": "channel",
		"subtype": "noteOff",
		"noteNumber": 44,
		"velocity": 0,
		"time": 125160,
		"track": 4
	},
	{
		"deltaTime": 0,
		"channel": 2,
		"type": "channel",
		"noteNumber": 59,
		"velocity": 127,
		"subtype": "noteOn",
		"time": 125160,
		"track": 4
	},
	{
		"deltaTime": 0,
		"channel": 2,
		"type": "channel",
		"noteNumber": 63,
		"velocity": 127,
		"subtype": "noteOn",
		"time": 125160,
		"track": 4
	},
	{
		"deltaTime": 0,
		"channel": 2,
		"type": "channel",
		"noteNumber": 68,
		"velocity": 127,
		"subtype": "noteOn",
		"time": 125160,
		"track": 4
	},
	{
		"deltaTime": 60,
		"channel": 9,
		"type": "channel",
		"noteNumber": 42,
		"velocity": 127,
		"subtype": "noteOn",
		"time": 125160,
		"track": 5
	},
	{
		"deltaTime": 60,
		"channel": 9,
		"type": "channel",
		"subtype": "noteOff",
		"noteNumber": 42,
		"velocity": 0,
		"time": 125220,
		"track": 5
	},
	{
		"deltaTime": 0,
		"channel": 9,
		"type": "channel",
		"noteNumber": 42,
		"velocity": 127,
		"subtype": "noteOn",
		"time": 125280,
		"track": 5
	},
	{
		"deltaTime": 0,
		"channel": 9,
		"type": "channel",
		"noteNumber": 38,
		"velocity": 127,
		"subtype": "noteOn",
		"time": 125280,
		"track": 5
	},
	{
		"deltaTime": 60,
		"channel": 9,
		"type": "channel",
		"noteNumber": 40,
		"velocity": 127,
		"subtype": "noteOn",
		"time": 125280,
		"track": 5
	},
	{
		"deltaTime": 0,
		"channel": 9,
		"type": "channel",
		"subtype": "noteOff",
		"noteNumber": 40,
		"velocity": 0,
		"time": 125340,
		"track": 5
	},
	{
		"deltaTime": 0,
		"channel": 9,
		"type": "channel",
		"subtype": "noteOff",
		"noteNumber": 38,
		"velocity": 0,
		"time": 125340,
		"track": 5
	},
	{
		"deltaTime": 60,
		"channel": 9,
		"type": "channel",
		"subtype": "noteOff",
		"noteNumber": 42,
		"velocity": 0,
		"time": 125340,
		"track": 5
	},
	{
		"deltaTime": 0,
		"channel": 2,
		"type": "channel",
		"subtype": "noteOff",
		"noteNumber": 68,
		"velocity": 0,
		"time": 125400,
		"track": 4
	},
	{
		"deltaTime": 0,
		"channel": 2,
		"type": "channel",
		"subtype": "noteOff",
		"noteNumber": 63,
		"velocity": 0,
		"time": 125400,
		"track": 4
	},
	{
		"deltaTime": 0,
		"channel": 2,
		"type": "channel",
		"subtype": "noteOff",
		"noteNumber": 59,
		"velocity": 0,
		"time": 125400,
		"track": 4
	},
	{
		"deltaTime": 0,
		"channel": 2,
		"type": "channel",
		"noteNumber": 59,
		"velocity": 127,
		"subtype": "noteOn",
		"time": 125400,
		"track": 4
	},
	{
		"deltaTime": 0,
		"channel": 2,
		"type": "channel",
		"noteNumber": 63,
		"velocity": 127,
		"subtype": "noteOn",
		"time": 125400,
		"track": 4
	},
	{
		"deltaTime": 0,
		"channel": 2,
		"type": "channel",
		"noteNumber": 68,
		"velocity": 127,
		"subtype": "noteOn",
		"time": 125400,
		"track": 4
	},
	{
		"deltaTime": 60,
		"channel": 9,
		"type": "channel",
		"noteNumber": 42,
		"velocity": 127,
		"subtype": "noteOn",
		"time": 125400,
		"track": 5
	},
	{
		"deltaTime": 60,
		"channel": 9,
		"type": "channel",
		"subtype": "noteOff",
		"noteNumber": 42,
		"velocity": 0,
		"time": 125460,
		"track": 5
	},
	{
		"deltaTime": 60,
		"channel": 9,
		"type": "channel",
		"noteNumber": 42,
		"velocity": 127,
		"subtype": "noteOn",
		"time": 125520,
		"track": 5
	},
	{
		"deltaTime": 60,
		"channel": 9,
		"type": "channel",
		"subtype": "noteOff",
		"noteNumber": 42,
		"velocity": 0,
		"time": 125580,
		"track": 5
	},
	{
		"deltaTime": 0,
		"channel": 9,
		"type": "channel",
		"noteNumber": 42,
		"velocity": 127,
		"subtype": "noteOn",
		"time": 125640,
		"track": 5
	},
	{
		"deltaTime": 0,
		"channel": 9,
		"type": "channel",
		"noteNumber": 36,
		"velocity": 127,
		"subtype": "noteOn",
		"time": 125640,
		"track": 5
	},
	{
		"deltaTime": 60,
		"channel": 9,
		"type": "channel",
		"noteNumber": 35,
		"velocity": 127,
		"subtype": "noteOn",
		"time": 125640,
		"track": 5
	},
	{
		"deltaTime": 0,
		"channel": 9,
		"type": "channel",
		"subtype": "noteOff",
		"noteNumber": 35,
		"velocity": 0,
		"time": 125700,
		"track": 5
	},
	{
		"deltaTime": 0,
		"channel": 9,
		"type": "channel",
		"subtype": "noteOff",
		"noteNumber": 36,
		"velocity": 0,
		"time": 125700,
		"track": 5
	},
	{
		"deltaTime": 60,
		"channel": 9,
		"type": "channel",
		"subtype": "noteOff",
		"noteNumber": 42,
		"velocity": 0,
		"time": 125700,
		"track": 5
	},
	{
		"deltaTime": 0,
		"channel": 0,
		"type": "channel",
		"subtype": "noteOff",
		"noteNumber": 32,
		"velocity": 0,
		"time": 125760,
		"track": 2
	},
	{
		"deltaTime": 0,
		"channel": 0,
		"type": "channel",
		"noteNumber": 40,
		"velocity": 127,
		"subtype": "noteOn",
		"time": 125760,
		"track": 2
	},
	{
		"deltaTime": 0,
		"channel": 2,
		"type": "channel",
		"subtype": "noteOff",
		"noteNumber": 68,
		"velocity": 0,
		"time": 125760,
		"track": 4
	},
	{
		"deltaTime": 0,
		"channel": 2,
		"type": "channel",
		"subtype": "noteOff",
		"noteNumber": 63,
		"velocity": 0,
		"time": 125760,
		"track": 4
	},
	{
		"deltaTime": 0,
		"channel": 2,
		"type": "channel",
		"subtype": "noteOff",
		"noteNumber": 59,
		"velocity": 0,
		"time": 125760,
		"track": 4
	},
	{
		"deltaTime": 0,
		"channel": 2,
		"type": "channel",
		"noteNumber": 40,
		"velocity": 127,
		"subtype": "noteOn",
		"time": 125760,
		"track": 4
	},
	{
		"deltaTime": 60,
		"channel": 9,
		"type": "channel",
		"noteNumber": 42,
		"velocity": 127,
		"subtype": "noteOn",
		"time": 125760,
		"track": 5
	},
	{
		"deltaTime": 60,
		"channel": 9,
		"type": "channel",
		"subtype": "noteOff",
		"noteNumber": 42,
		"velocity": 0,
		"time": 125820,
		"track": 5
	},
	{
		"deltaTime": 60,
		"channel": 9,
		"type": "channel",
		"noteNumber": 42,
		"velocity": 127,
		"subtype": "noteOn",
		"time": 125880,
		"track": 5
	},
	{
		"deltaTime": 60,
		"channel": 9,
		"type": "channel",
		"subtype": "noteOff",
		"noteNumber": 42,
		"velocity": 0,
		"time": 125940,
		"track": 5
	},
	{
		"deltaTime": 0,
		"channel": 9,
		"type": "channel",
		"noteNumber": 42,
		"velocity": 127,
		"subtype": "noteOn",
		"time": 126000,
		"track": 5
	},
	{
		"deltaTime": 0,
		"channel": 9,
		"type": "channel",
		"noteNumber": 36,
		"velocity": 127,
		"subtype": "noteOn",
		"time": 126000,
		"track": 5
	},
	{
		"deltaTime": 60,
		"channel": 9,
		"type": "channel",
		"noteNumber": 35,
		"velocity": 127,
		"subtype": "noteOn",
		"time": 126000,
		"track": 5
	},
	{
		"deltaTime": 0,
		"channel": 9,
		"type": "channel",
		"subtype": "noteOff",
		"noteNumber": 35,
		"velocity": 0,
		"time": 126060,
		"track": 5
	},
	{
		"deltaTime": 0,
		"channel": 9,
		"type": "channel",
		"subtype": "noteOff",
		"noteNumber": 36,
		"velocity": 0,
		"time": 126060,
		"track": 5
	},
	{
		"deltaTime": 60,
		"channel": 9,
		"type": "channel",
		"subtype": "noteOff",
		"noteNumber": 42,
		"velocity": 0,
		"time": 126060,
		"track": 5
	},
	{
		"deltaTime": 0,
		"channel": 2,
		"type": "channel",
		"subtype": "noteOff",
		"noteNumber": 40,
		"velocity": 0,
		"time": 126120,
		"track": 4
	},
	{
		"deltaTime": 0,
		"channel": 2,
		"type": "channel",
		"noteNumber": 59,
		"velocity": 127,
		"subtype": "noteOn",
		"time": 126120,
		"track": 4
	},
	{
		"deltaTime": 0,
		"channel": 2,
		"type": "channel",
		"noteNumber": 63,
		"velocity": 127,
		"subtype": "noteOn",
		"time": 126120,
		"track": 4
	},
	{
		"deltaTime": 0,
		"channel": 2,
		"type": "channel",
		"noteNumber": 68,
		"velocity": 127,
		"subtype": "noteOn",
		"time": 126120,
		"track": 4
	},
	{
		"deltaTime": 60,
		"channel": 9,
		"type": "channel",
		"noteNumber": 42,
		"velocity": 127,
		"subtype": "noteOn",
		"time": 126120,
		"track": 5
	},
	{
		"deltaTime": 60,
		"channel": 9,
		"type": "channel",
		"subtype": "noteOff",
		"noteNumber": 42,
		"velocity": 0,
		"time": 126180,
		"track": 5
	},
	{
		"deltaTime": 0,
		"channel": 9,
		"type": "channel",
		"noteNumber": 42,
		"velocity": 127,
		"subtype": "noteOn",
		"time": 126240,
		"track": 5
	},
	{
		"deltaTime": 0,
		"channel": 9,
		"type": "channel",
		"noteNumber": 40,
		"velocity": 127,
		"subtype": "noteOn",
		"time": 126240,
		"track": 5
	},
	{
		"deltaTime": 60,
		"channel": 9,
		"type": "channel",
		"noteNumber": 38,
		"velocity": 127,
		"subtype": "noteOn",
		"time": 126240,
		"track": 5
	},
	{
		"deltaTime": 0,
		"channel": 9,
		"type": "channel",
		"subtype": "noteOff",
		"noteNumber": 38,
		"velocity": 0,
		"time": 126300,
		"track": 5
	},
	{
		"deltaTime": 0,
		"channel": 9,
		"type": "channel",
		"subtype": "noteOff",
		"noteNumber": 40,
		"velocity": 0,
		"time": 126300,
		"track": 5
	},
	{
		"deltaTime": 60,
		"channel": 9,
		"type": "channel",
		"subtype": "noteOff",
		"noteNumber": 42,
		"velocity": 0,
		"time": 126300,
		"track": 5
	},
	{
		"deltaTime": 0,
		"channel": 2,
		"type": "channel",
		"subtype": "noteOff",
		"noteNumber": 68,
		"velocity": 0,
		"time": 126360,
		"track": 4
	},
	{
		"deltaTime": 0,
		"channel": 2,
		"type": "channel",
		"subtype": "noteOff",
		"noteNumber": 63,
		"velocity": 0,
		"time": 126360,
		"track": 4
	},
	{
		"deltaTime": 0,
		"channel": 2,
		"type": "channel",
		"subtype": "noteOff",
		"noteNumber": 59,
		"velocity": 0,
		"time": 126360,
		"track": 4
	},
	{
		"deltaTime": 0,
		"channel": 2,
		"type": "channel",
		"noteNumber": 59,
		"velocity": 127,
		"subtype": "noteOn",
		"time": 126360,
		"track": 4
	},
	{
		"deltaTime": 0,
		"channel": 2,
		"type": "channel",
		"noteNumber": 63,
		"velocity": 127,
		"subtype": "noteOn",
		"time": 126360,
		"track": 4
	},
	{
		"deltaTime": 0,
		"channel": 2,
		"type": "channel",
		"noteNumber": 68,
		"velocity": 127,
		"subtype": "noteOn",
		"time": 126360,
		"track": 4
	},
	{
		"deltaTime": 60,
		"channel": 9,
		"type": "channel",
		"noteNumber": 42,
		"velocity": 127,
		"subtype": "noteOn",
		"time": 126360,
		"track": 5
	},
	{
		"deltaTime": 60,
		"channel": 9,
		"type": "channel",
		"subtype": "noteOff",
		"noteNumber": 42,
		"velocity": 0,
		"time": 126420,
		"track": 5
	},
	{
		"deltaTime": 60,
		"channel": 9,
		"type": "channel",
		"noteNumber": 42,
		"velocity": 127,
		"subtype": "noteOn",
		"time": 126480,
		"track": 5
	},
	{
		"deltaTime": 60,
		"channel": 9,
		"type": "channel",
		"subtype": "noteOff",
		"noteNumber": 42,
		"velocity": 0,
		"time": 126540,
		"track": 5
	},
	{
		"deltaTime": 60,
		"channel": 9,
		"type": "channel",
		"noteNumber": 42,
		"velocity": 127,
		"subtype": "noteOn",
		"time": 126600,
		"track": 5
	},
	{
		"deltaTime": 60,
		"channel": 9,
		"type": "channel",
		"subtype": "noteOff",
		"noteNumber": 42,
		"velocity": 0,
		"time": 126660,
		"track": 5
	},
	{
		"deltaTime": 0,
		"channel": 0,
		"type": "channel",
		"subtype": "noteOff",
		"noteNumber": 40,
		"velocity": 0,
		"time": 126720,
		"track": 2
	},
	{
		"deltaTime": 0,
		"channel": 0,
		"type": "channel",
		"noteNumber": 42,
		"velocity": 127,
		"subtype": "noteOn",
		"time": 126720,
		"track": 2
	},
	{
		"deltaTime": 0,
		"channel": 2,
		"type": "channel",
		"subtype": "noteOff",
		"noteNumber": 68,
		"velocity": 0,
		"time": 126720,
		"track": 4
	},
	{
		"deltaTime": 0,
		"channel": 2,
		"type": "channel",
		"subtype": "noteOff",
		"noteNumber": 63,
		"velocity": 0,
		"time": 126720,
		"track": 4
	},
	{
		"deltaTime": 0,
		"channel": 2,
		"type": "channel",
		"subtype": "noteOff",
		"noteNumber": 59,
		"velocity": 0,
		"time": 126720,
		"track": 4
	},
	{
		"deltaTime": 0,
		"channel": 2,
		"type": "channel",
		"noteNumber": 42,
		"velocity": 127,
		"subtype": "noteOn",
		"time": 126720,
		"track": 4
	},
	{
		"deltaTime": 0,
		"channel": 9,
		"type": "channel",
		"noteNumber": 42,
		"velocity": 127,
		"subtype": "noteOn",
		"time": 126720,
		"track": 5
	},
	{
		"deltaTime": 0,
		"channel": 9,
		"type": "channel",
		"noteNumber": 35,
		"velocity": 127,
		"subtype": "noteOn",
		"time": 126720,
		"track": 5
	},
	{
		"deltaTime": 60,
		"channel": 9,
		"type": "channel",
		"noteNumber": 36,
		"velocity": 127,
		"subtype": "noteOn",
		"time": 126720,
		"track": 5
	},
	{
		"deltaTime": 0,
		"channel": 9,
		"type": "channel",
		"subtype": "noteOff",
		"noteNumber": 36,
		"velocity": 0,
		"time": 126780,
		"track": 5
	},
	{
		"deltaTime": 0,
		"channel": 9,
		"type": "channel",
		"subtype": "noteOff",
		"noteNumber": 35,
		"velocity": 0,
		"time": 126780,
		"track": 5
	},
	{
		"deltaTime": 60,
		"channel": 9,
		"type": "channel",
		"subtype": "noteOff",
		"noteNumber": 42,
		"velocity": 0,
		"time": 126780,
		"track": 5
	},
	{
		"deltaTime": 60,
		"channel": 9,
		"type": "channel",
		"noteNumber": 42,
		"velocity": 127,
		"subtype": "noteOn",
		"time": 126840,
		"track": 5
	},
	{
		"deltaTime": 60,
		"channel": 9,
		"type": "channel",
		"subtype": "noteOff",
		"noteNumber": 42,
		"velocity": 0,
		"time": 126900,
		"track": 5
	},
	{
		"deltaTime": 0,
		"channel": 9,
		"type": "channel",
		"noteNumber": 42,
		"velocity": 127,
		"subtype": "noteOn",
		"time": 126960,
		"track": 5
	},
	{
		"deltaTime": 0,
		"channel": 9,
		"type": "channel",
		"noteNumber": 36,
		"velocity": 127,
		"subtype": "noteOn",
		"time": 126960,
		"track": 5
	},
	{
		"deltaTime": 60,
		"channel": 9,
		"type": "channel",
		"noteNumber": 35,
		"velocity": 127,
		"subtype": "noteOn",
		"time": 126960,
		"track": 5
	},
	{
		"deltaTime": 0,
		"channel": 9,
		"type": "channel",
		"subtype": "noteOff",
		"noteNumber": 35,
		"velocity": 0,
		"time": 127020,
		"track": 5
	},
	{
		"deltaTime": 0,
		"channel": 9,
		"type": "channel",
		"subtype": "noteOff",
		"noteNumber": 36,
		"velocity": 0,
		"time": 127020,
		"track": 5
	},
	{
		"deltaTime": 60,
		"channel": 9,
		"type": "channel",
		"subtype": "noteOff",
		"noteNumber": 42,
		"velocity": 0,
		"time": 127020,
		"track": 5
	},
	{
		"deltaTime": 0,
		"channel": 2,
		"type": "channel",
		"subtype": "noteOff",
		"noteNumber": 42,
		"velocity": 0,
		"time": 127080,
		"track": 4
	},
	{
		"deltaTime": 0,
		"channel": 2,
		"type": "channel",
		"noteNumber": 61,
		"velocity": 127,
		"subtype": "noteOn",
		"time": 127080,
		"track": 4
	},
	{
		"deltaTime": 0,
		"channel": 2,
		"type": "channel",
		"noteNumber": 66,
		"velocity": 127,
		"subtype": "noteOn",
		"time": 127080,
		"track": 4
	},
	{
		"deltaTime": 0,
		"channel": 2,
		"type": "channel",
		"noteNumber": 70,
		"velocity": 127,
		"subtype": "noteOn",
		"time": 127080,
		"track": 4
	},
	{
		"deltaTime": 60,
		"channel": 9,
		"type": "channel",
		"noteNumber": 42,
		"velocity": 127,
		"subtype": "noteOn",
		"time": 127080,
		"track": 5
	},
	{
		"deltaTime": 60,
		"channel": 9,
		"type": "channel",
		"subtype": "noteOff",
		"noteNumber": 42,
		"velocity": 0,
		"time": 127140,
		"track": 5
	},
	{
		"deltaTime": 0,
		"channel": 9,
		"type": "channel",
		"noteNumber": 42,
		"velocity": 127,
		"subtype": "noteOn",
		"time": 127200,
		"track": 5
	},
	{
		"deltaTime": 0,
		"channel": 9,
		"type": "channel",
		"noteNumber": 38,
		"velocity": 127,
		"subtype": "noteOn",
		"time": 127200,
		"track": 5
	},
	{
		"deltaTime": 60,
		"channel": 9,
		"type": "channel",
		"noteNumber": 40,
		"velocity": 127,
		"subtype": "noteOn",
		"time": 127200,
		"track": 5
	},
	{
		"deltaTime": 0,
		"channel": 9,
		"type": "channel",
		"subtype": "noteOff",
		"noteNumber": 40,
		"velocity": 0,
		"time": 127260,
		"track": 5
	},
	{
		"deltaTime": 0,
		"channel": 9,
		"type": "channel",
		"subtype": "noteOff",
		"noteNumber": 38,
		"velocity": 0,
		"time": 127260,
		"track": 5
	},
	{
		"deltaTime": 60,
		"channel": 9,
		"type": "channel",
		"subtype": "noteOff",
		"noteNumber": 42,
		"velocity": 0,
		"time": 127260,
		"track": 5
	},
	{
		"deltaTime": 0,
		"channel": 2,
		"type": "channel",
		"subtype": "noteOff",
		"noteNumber": 70,
		"velocity": 0,
		"time": 127320,
		"track": 4
	},
	{
		"deltaTime": 0,
		"channel": 2,
		"type": "channel",
		"subtype": "noteOff",
		"noteNumber": 66,
		"velocity": 0,
		"time": 127320,
		"track": 4
	},
	{
		"deltaTime": 0,
		"channel": 2,
		"type": "channel",
		"subtype": "noteOff",
		"noteNumber": 61,
		"velocity": 0,
		"time": 127320,
		"track": 4
	},
	{
		"deltaTime": 0,
		"channel": 2,
		"type": "channel",
		"noteNumber": 61,
		"velocity": 127,
		"subtype": "noteOn",
		"time": 127320,
		"track": 4
	},
	{
		"deltaTime": 0,
		"channel": 2,
		"type": "channel",
		"noteNumber": 66,
		"velocity": 127,
		"subtype": "noteOn",
		"time": 127320,
		"track": 4
	},
	{
		"deltaTime": 0,
		"channel": 2,
		"type": "channel",
		"noteNumber": 70,
		"velocity": 127,
		"subtype": "noteOn",
		"time": 127320,
		"track": 4
	},
	{
		"deltaTime": 60,
		"channel": 9,
		"type": "channel",
		"noteNumber": 42,
		"velocity": 127,
		"subtype": "noteOn",
		"time": 127320,
		"track": 5
	},
	{
		"deltaTime": 60,
		"channel": 9,
		"type": "channel",
		"subtype": "noteOff",
		"noteNumber": 42,
		"velocity": 0,
		"time": 127380,
		"track": 5
	},
	{
		"deltaTime": 60,
		"channel": 9,
		"type": "channel",
		"noteNumber": 42,
		"velocity": 127,
		"subtype": "noteOn",
		"time": 127440,
		"track": 5
	},
	{
		"deltaTime": 60,
		"channel": 9,
		"type": "channel",
		"subtype": "noteOff",
		"noteNumber": 42,
		"velocity": 0,
		"time": 127500,
		"track": 5
	},
	{
		"deltaTime": 0,
		"channel": 9,
		"type": "channel",
		"noteNumber": 42,
		"velocity": 127,
		"subtype": "noteOn",
		"time": 127560,
		"track": 5
	},
	{
		"deltaTime": 0,
		"channel": 9,
		"type": "channel",
		"noteNumber": 36,
		"velocity": 127,
		"subtype": "noteOn",
		"time": 127560,
		"track": 5
	},
	{
		"deltaTime": 60,
		"channel": 9,
		"type": "channel",
		"noteNumber": 35,
		"velocity": 127,
		"subtype": "noteOn",
		"time": 127560,
		"track": 5
	},
	{
		"deltaTime": 0,
		"channel": 9,
		"type": "channel",
		"subtype": "noteOff",
		"noteNumber": 35,
		"velocity": 0,
		"time": 127620,
		"track": 5
	},
	{
		"deltaTime": 0,
		"channel": 9,
		"type": "channel",
		"subtype": "noteOff",
		"noteNumber": 36,
		"velocity": 0,
		"time": 127620,
		"track": 5
	},
	{
		"deltaTime": 60,
		"channel": 9,
		"type": "channel",
		"subtype": "noteOff",
		"noteNumber": 42,
		"velocity": 0,
		"time": 127620,
		"track": 5
	},
	{
		"deltaTime": 0,
		"channel": 0,
		"type": "channel",
		"subtype": "noteOff",
		"noteNumber": 42,
		"velocity": 0,
		"time": 127680,
		"track": 2
	},
	{
		"deltaTime": 0,
		"channel": 0,
		"type": "channel",
		"noteNumber": 35,
		"velocity": 127,
		"subtype": "noteOn",
		"time": 127680,
		"track": 2
	},
	{
		"deltaTime": 0,
		"channel": 2,
		"type": "channel",
		"subtype": "noteOff",
		"noteNumber": 70,
		"velocity": 0,
		"time": 127680,
		"track": 4
	},
	{
		"deltaTime": 0,
		"channel": 2,
		"type": "channel",
		"subtype": "noteOff",
		"noteNumber": 66,
		"velocity": 0,
		"time": 127680,
		"track": 4
	},
	{
		"deltaTime": 0,
		"channel": 2,
		"type": "channel",
		"subtype": "noteOff",
		"noteNumber": 61,
		"velocity": 0,
		"time": 127680,
		"track": 4
	},
	{
		"deltaTime": 0,
		"channel": 2,
		"type": "channel",
		"noteNumber": 47,
		"velocity": 127,
		"subtype": "noteOn",
		"time": 127680,
		"track": 4
	},
	{
		"deltaTime": 60,
		"channel": 9,
		"type": "channel",
		"noteNumber": 42,
		"velocity": 127,
		"subtype": "noteOn",
		"time": 127680,
		"track": 5
	},
	{
		"deltaTime": 60,
		"channel": 9,
		"type": "channel",
		"subtype": "noteOff",
		"noteNumber": 42,
		"velocity": 0,
		"time": 127740,
		"track": 5
	},
	{
		"deltaTime": 60,
		"channel": 9,
		"type": "channel",
		"noteNumber": 42,
		"velocity": 127,
		"subtype": "noteOn",
		"time": 127800,
		"track": 5
	},
	{
		"deltaTime": 60,
		"channel": 9,
		"type": "channel",
		"subtype": "noteOff",
		"noteNumber": 42,
		"velocity": 0,
		"time": 127860,
		"track": 5
	},
	{
		"deltaTime": 0,
		"channel": 9,
		"type": "channel",
		"noteNumber": 42,
		"velocity": 127,
		"subtype": "noteOn",
		"time": 127920,
		"track": 5
	},
	{
		"deltaTime": 0,
		"channel": 9,
		"type": "channel",
		"noteNumber": 36,
		"velocity": 127,
		"subtype": "noteOn",
		"time": 127920,
		"track": 5
	},
	{
		"deltaTime": 60,
		"channel": 9,
		"type": "channel",
		"noteNumber": 35,
		"velocity": 127,
		"subtype": "noteOn",
		"time": 127920,
		"track": 5
	},
	{
		"deltaTime": 0,
		"channel": 9,
		"type": "channel",
		"subtype": "noteOff",
		"noteNumber": 35,
		"velocity": 0,
		"time": 127980,
		"track": 5
	},
	{
		"deltaTime": 0,
		"channel": 9,
		"type": "channel",
		"subtype": "noteOff",
		"noteNumber": 36,
		"velocity": 0,
		"time": 127980,
		"track": 5
	},
	{
		"deltaTime": 60,
		"channel": 9,
		"type": "channel",
		"subtype": "noteOff",
		"noteNumber": 42,
		"velocity": 0,
		"time": 127980,
		"track": 5
	},
	{
		"deltaTime": 0,
		"channel": 2,
		"type": "channel",
		"subtype": "noteOff",
		"noteNumber": 47,
		"velocity": 0,
		"time": 128040,
		"track": 4
	},
	{
		"deltaTime": 0,
		"channel": 2,
		"type": "channel",
		"noteNumber": 61,
		"velocity": 127,
		"subtype": "noteOn",
		"time": 128040,
		"track": 4
	},
	{
		"deltaTime": 0,
		"channel": 2,
		"type": "channel",
		"noteNumber": 66,
		"velocity": 127,
		"subtype": "noteOn",
		"time": 128040,
		"track": 4
	},
	{
		"deltaTime": 0,
		"channel": 2,
		"type": "channel",
		"noteNumber": 70,
		"velocity": 127,
		"subtype": "noteOn",
		"time": 128040,
		"track": 4
	},
	{
		"deltaTime": 60,
		"channel": 9,
		"type": "channel",
		"noteNumber": 42,
		"velocity": 127,
		"subtype": "noteOn",
		"time": 128040,
		"track": 5
	},
	{
		"deltaTime": 60,
		"channel": 9,
		"type": "channel",
		"subtype": "noteOff",
		"noteNumber": 42,
		"velocity": 0,
		"time": 128100,
		"track": 5
	},
	{
		"deltaTime": 0,
		"channel": 0,
		"type": "channel",
		"subtype": "noteOff",
		"noteNumber": 35,
		"velocity": 0,
		"time": 128160,
		"track": 2
	},
	{
		"deltaTime": 0,
		"channel": 0,
		"type": "channel",
		"noteNumber": 34,
		"velocity": 127,
		"subtype": "noteOn",
		"time": 128160,
		"track": 2
	},
	{
		"deltaTime": 0,
		"channel": 9,
		"type": "channel",
		"noteNumber": 42,
		"velocity": 127,
		"subtype": "noteOn",
		"time": 128160,
		"track": 5
	},
	{
		"deltaTime": 0,
		"channel": 9,
		"type": "channel",
		"noteNumber": 40,
		"velocity": 127,
		"subtype": "noteOn",
		"time": 128160,
		"track": 5
	},
	{
		"deltaTime": 60,
		"channel": 9,
		"type": "channel",
		"noteNumber": 38,
		"velocity": 127,
		"subtype": "noteOn",
		"time": 128160,
		"track": 5
	},
	{
		"deltaTime": 0,
		"channel": 9,
		"type": "channel",
		"subtype": "noteOff",
		"noteNumber": 38,
		"velocity": 0,
		"time": 128220,
		"track": 5
	},
	{
		"deltaTime": 0,
		"channel": 9,
		"type": "channel",
		"subtype": "noteOff",
		"noteNumber": 40,
		"velocity": 0,
		"time": 128220,
		"track": 5
	},
	{
		"deltaTime": 60,
		"channel": 9,
		"type": "channel",
		"subtype": "noteOff",
		"noteNumber": 42,
		"velocity": 0,
		"time": 128220,
		"track": 5
	},
	{
		"deltaTime": 0,
		"channel": 2,
		"type": "channel",
		"subtype": "noteOff",
		"noteNumber": 70,
		"velocity": 0,
		"time": 128280,
		"track": 4
	},
	{
		"deltaTime": 0,
		"channel": 2,
		"type": "channel",
		"subtype": "noteOff",
		"noteNumber": 66,
		"velocity": 0,
		"time": 128280,
		"track": 4
	},
	{
		"deltaTime": 0,
		"channel": 2,
		"type": "channel",
		"subtype": "noteOff",
		"noteNumber": 61,
		"velocity": 0,
		"time": 128280,
		"track": 4
	},
	{
		"deltaTime": 0,
		"channel": 2,
		"type": "channel",
		"noteNumber": 61,
		"velocity": 127,
		"subtype": "noteOn",
		"time": 128280,
		"track": 4
	},
	{
		"deltaTime": 0,
		"channel": 2,
		"type": "channel",
		"noteNumber": 66,
		"velocity": 127,
		"subtype": "noteOn",
		"time": 128280,
		"track": 4
	},
	{
		"deltaTime": 0,
		"channel": 2,
		"type": "channel",
		"noteNumber": 71,
		"velocity": 127,
		"subtype": "noteOn",
		"time": 128280,
		"track": 4
	},
	{
		"deltaTime": 60,
		"channel": 9,
		"type": "channel",
		"noteNumber": 42,
		"velocity": 127,
		"subtype": "noteOn",
		"time": 128280,
		"track": 5
	},
	{
		"deltaTime": 60,
		"channel": 9,
		"type": "channel",
		"subtype": "noteOff",
		"noteNumber": 42,
		"velocity": 0,
		"time": 128340,
		"track": 5
	},
	{
		"deltaTime": 60,
		"channel": 9,
		"type": "channel",
		"noteNumber": 42,
		"velocity": 127,
		"subtype": "noteOn",
		"time": 128400,
		"track": 5
	},
	{
		"deltaTime": 60,
		"channel": 9,
		"type": "channel",
		"subtype": "noteOff",
		"noteNumber": 42,
		"velocity": 0,
		"time": 128460,
		"track": 5
	},
	{
		"deltaTime": 60,
		"channel": 9,
		"type": "channel",
		"noteNumber": 42,
		"velocity": 127,
		"subtype": "noteOn",
		"time": 128520,
		"track": 5
	},
	{
		"deltaTime": 60,
		"channel": 9,
		"type": "channel",
		"subtype": "noteOff",
		"noteNumber": 42,
		"velocity": 0,
		"time": 128580,
		"track": 5
	},
	{
		"deltaTime": 0,
		"channel": 0,
		"type": "channel",
		"subtype": "noteOff",
		"noteNumber": 34,
		"velocity": 0,
		"time": 128640,
		"track": 2
	},
	{
		"deltaTime": 0,
		"channel": 0,
		"type": "channel",
		"noteNumber": 32,
		"velocity": 127,
		"subtype": "noteOn",
		"time": 128640,
		"track": 2
	},
	{
		"deltaTime": 0,
		"channel": 2,
		"type": "channel",
		"subtype": "noteOff",
		"noteNumber": 71,
		"velocity": 0,
		"time": 128640,
		"track": 4
	},
	{
		"deltaTime": 0,
		"channel": 2,
		"type": "channel",
		"subtype": "noteOff",
		"noteNumber": 66,
		"velocity": 0,
		"time": 128640,
		"track": 4
	},
	{
		"deltaTime": 0,
		"channel": 2,
		"type": "channel",
		"subtype": "noteOff",
		"noteNumber": 61,
		"velocity": 0,
		"time": 128640,
		"track": 4
	},
	{
		"deltaTime": 0,
		"channel": 2,
		"type": "channel",
		"noteNumber": 44,
		"velocity": 127,
		"subtype": "noteOn",
		"time": 128640,
		"track": 4
	},
	{
		"deltaTime": 0,
		"channel": 9,
		"type": "channel",
		"noteNumber": 42,
		"velocity": 127,
		"subtype": "noteOn",
		"time": 128640,
		"track": 5
	},
	{
		"deltaTime": 0,
		"channel": 9,
		"type": "channel",
		"noteNumber": 35,
		"velocity": 127,
		"subtype": "noteOn",
		"time": 128640,
		"track": 5
	},
	{
		"deltaTime": 60,
		"channel": 9,
		"type": "channel",
		"noteNumber": 36,
		"velocity": 127,
		"subtype": "noteOn",
		"time": 128640,
		"track": 5
	},
	{
		"deltaTime": 0,
		"channel": 9,
		"type": "channel",
		"subtype": "noteOff",
		"noteNumber": 36,
		"velocity": 0,
		"time": 128700,
		"track": 5
	},
	{
		"deltaTime": 0,
		"channel": 9,
		"type": "channel",
		"subtype": "noteOff",
		"noteNumber": 35,
		"velocity": 0,
		"time": 128700,
		"track": 5
	},
	{
		"deltaTime": 60,
		"channel": 9,
		"type": "channel",
		"subtype": "noteOff",
		"noteNumber": 42,
		"velocity": 0,
		"time": 128700,
		"track": 5
	},
	{
		"deltaTime": 60,
		"channel": 9,
		"type": "channel",
		"noteNumber": 42,
		"velocity": 127,
		"subtype": "noteOn",
		"time": 128760,
		"track": 5
	},
	{
		"deltaTime": 60,
		"channel": 9,
		"type": "channel",
		"subtype": "noteOff",
		"noteNumber": 42,
		"velocity": 0,
		"time": 128820,
		"track": 5
	},
	{
		"deltaTime": 0,
		"channel": 9,
		"type": "channel",
		"noteNumber": 42,
		"velocity": 127,
		"subtype": "noteOn",
		"time": 128880,
		"track": 5
	},
	{
		"deltaTime": 0,
		"channel": 9,
		"type": "channel",
		"noteNumber": 36,
		"velocity": 127,
		"subtype": "noteOn",
		"time": 128880,
		"track": 5
	},
	{
		"deltaTime": 60,
		"channel": 9,
		"type": "channel",
		"noteNumber": 35,
		"velocity": 127,
		"subtype": "noteOn",
		"time": 128880,
		"track": 5
	},
	{
		"deltaTime": 0,
		"channel": 9,
		"type": "channel",
		"subtype": "noteOff",
		"noteNumber": 35,
		"velocity": 0,
		"time": 128940,
		"track": 5
	},
	{
		"deltaTime": 0,
		"channel": 9,
		"type": "channel",
		"subtype": "noteOff",
		"noteNumber": 36,
		"velocity": 0,
		"time": 128940,
		"track": 5
	},
	{
		"deltaTime": 60,
		"channel": 9,
		"type": "channel",
		"subtype": "noteOff",
		"noteNumber": 42,
		"velocity": 0,
		"time": 128940,
		"track": 5
	},
	{
		"deltaTime": 0,
		"channel": 2,
		"type": "channel",
		"subtype": "noteOff",
		"noteNumber": 44,
		"velocity": 0,
		"time": 129000,
		"track": 4
	},
	{
		"deltaTime": 0,
		"channel": 2,
		"type": "channel",
		"noteNumber": 59,
		"velocity": 127,
		"subtype": "noteOn",
		"time": 129000,
		"track": 4
	},
	{
		"deltaTime": 0,
		"channel": 2,
		"type": "channel",
		"noteNumber": 63,
		"velocity": 127,
		"subtype": "noteOn",
		"time": 129000,
		"track": 4
	},
	{
		"deltaTime": 0,
		"channel": 2,
		"type": "channel",
		"noteNumber": 68,
		"velocity": 127,
		"subtype": "noteOn",
		"time": 129000,
		"track": 4
	},
	{
		"deltaTime": 60,
		"channel": 9,
		"type": "channel",
		"noteNumber": 42,
		"velocity": 127,
		"subtype": "noteOn",
		"time": 129000,
		"track": 5
	},
	{
		"deltaTime": 60,
		"channel": 9,
		"type": "channel",
		"subtype": "noteOff",
		"noteNumber": 42,
		"velocity": 0,
		"time": 129060,
		"track": 5
	},
	{
		"deltaTime": 0,
		"channel": 9,
		"type": "channel",
		"noteNumber": 42,
		"velocity": 127,
		"subtype": "noteOn",
		"time": 129120,
		"track": 5
	},
	{
		"deltaTime": 0,
		"channel": 9,
		"type": "channel",
		"noteNumber": 38,
		"velocity": 127,
		"subtype": "noteOn",
		"time": 129120,
		"track": 5
	},
	{
		"deltaTime": 60,
		"channel": 9,
		"type": "channel",
		"noteNumber": 40,
		"velocity": 127,
		"subtype": "noteOn",
		"time": 129120,
		"track": 5
	},
	{
		"deltaTime": 0,
		"channel": 9,
		"type": "channel",
		"subtype": "noteOff",
		"noteNumber": 40,
		"velocity": 0,
		"time": 129180,
		"track": 5
	},
	{
		"deltaTime": 0,
		"channel": 9,
		"type": "channel",
		"subtype": "noteOff",
		"noteNumber": 38,
		"velocity": 0,
		"time": 129180,
		"track": 5
	},
	{
		"deltaTime": 60,
		"channel": 9,
		"type": "channel",
		"subtype": "noteOff",
		"noteNumber": 42,
		"velocity": 0,
		"time": 129180,
		"track": 5
	},
	{
		"deltaTime": 0,
		"channel": 2,
		"type": "channel",
		"subtype": "noteOff",
		"noteNumber": 68,
		"velocity": 0,
		"time": 129240,
		"track": 4
	},
	{
		"deltaTime": 0,
		"channel": 2,
		"type": "channel",
		"subtype": "noteOff",
		"noteNumber": 63,
		"velocity": 0,
		"time": 129240,
		"track": 4
	},
	{
		"deltaTime": 0,
		"channel": 2,
		"type": "channel",
		"subtype": "noteOff",
		"noteNumber": 59,
		"velocity": 0,
		"time": 129240,
		"track": 4
	},
	{
		"deltaTime": 0,
		"channel": 2,
		"type": "channel",
		"noteNumber": 59,
		"velocity": 127,
		"subtype": "noteOn",
		"time": 129240,
		"track": 4
	},
	{
		"deltaTime": 0,
		"channel": 2,
		"type": "channel",
		"noteNumber": 63,
		"velocity": 127,
		"subtype": "noteOn",
		"time": 129240,
		"track": 4
	},
	{
		"deltaTime": 0,
		"channel": 2,
		"type": "channel",
		"noteNumber": 68,
		"velocity": 127,
		"subtype": "noteOn",
		"time": 129240,
		"track": 4
	},
	{
		"deltaTime": 60,
		"channel": 9,
		"type": "channel",
		"noteNumber": 42,
		"velocity": 127,
		"subtype": "noteOn",
		"time": 129240,
		"track": 5
	},
	{
		"deltaTime": 60,
		"channel": 9,
		"type": "channel",
		"subtype": "noteOff",
		"noteNumber": 42,
		"velocity": 0,
		"time": 129300,
		"track": 5
	},
	{
		"deltaTime": 60,
		"channel": 9,
		"type": "channel",
		"noteNumber": 42,
		"velocity": 127,
		"subtype": "noteOn",
		"time": 129360,
		"track": 5
	},
	{
		"deltaTime": 60,
		"channel": 9,
		"type": "channel",
		"subtype": "noteOff",
		"noteNumber": 42,
		"velocity": 0,
		"time": 129420,
		"track": 5
	},
	{
		"deltaTime": 0,
		"channel": 9,
		"type": "channel",
		"noteNumber": 42,
		"velocity": 127,
		"subtype": "noteOn",
		"time": 129480,
		"track": 5
	},
	{
		"deltaTime": 0,
		"channel": 9,
		"type": "channel",
		"noteNumber": 36,
		"velocity": 127,
		"subtype": "noteOn",
		"time": 129480,
		"track": 5
	},
	{
		"deltaTime": 60,
		"channel": 9,
		"type": "channel",
		"noteNumber": 35,
		"velocity": 127,
		"subtype": "noteOn",
		"time": 129480,
		"track": 5
	},
	{
		"deltaTime": 0,
		"channel": 9,
		"type": "channel",
		"subtype": "noteOff",
		"noteNumber": 35,
		"velocity": 0,
		"time": 129540,
		"track": 5
	},
	{
		"deltaTime": 0,
		"channel": 9,
		"type": "channel",
		"subtype": "noteOff",
		"noteNumber": 36,
		"velocity": 0,
		"time": 129540,
		"track": 5
	},
	{
		"deltaTime": 60,
		"channel": 9,
		"type": "channel",
		"subtype": "noteOff",
		"noteNumber": 42,
		"velocity": 0,
		"time": 129540,
		"track": 5
	},
	{
		"deltaTime": 0,
		"channel": 0,
		"type": "channel",
		"subtype": "noteOff",
		"noteNumber": 32,
		"velocity": 0,
		"time": 129600,
		"track": 2
	},
	{
		"deltaTime": 0,
		"channel": 0,
		"type": "channel",
		"noteNumber": 40,
		"velocity": 127,
		"subtype": "noteOn",
		"time": 129600,
		"track": 2
	},
	{
		"deltaTime": 0,
		"channel": 2,
		"type": "channel",
		"subtype": "noteOff",
		"noteNumber": 68,
		"velocity": 0,
		"time": 129600,
		"track": 4
	},
	{
		"deltaTime": 0,
		"channel": 2,
		"type": "channel",
		"subtype": "noteOff",
		"noteNumber": 63,
		"velocity": 0,
		"time": 129600,
		"track": 4
	},
	{
		"deltaTime": 0,
		"channel": 2,
		"type": "channel",
		"subtype": "noteOff",
		"noteNumber": 59,
		"velocity": 0,
		"time": 129600,
		"track": 4
	},
	{
		"deltaTime": 0,
		"channel": 2,
		"type": "channel",
		"noteNumber": 40,
		"velocity": 127,
		"subtype": "noteOn",
		"time": 129600,
		"track": 4
	},
	{
		"deltaTime": 60,
		"channel": 9,
		"type": "channel",
		"noteNumber": 42,
		"velocity": 127,
		"subtype": "noteOn",
		"time": 129600,
		"track": 5
	},
	{
		"deltaTime": 60,
		"channel": 9,
		"type": "channel",
		"subtype": "noteOff",
		"noteNumber": 42,
		"velocity": 0,
		"time": 129660,
		"track": 5
	},
	{
		"deltaTime": 60,
		"channel": 9,
		"type": "channel",
		"noteNumber": 42,
		"velocity": 127,
		"subtype": "noteOn",
		"time": 129720,
		"track": 5
	},
	{
		"deltaTime": 60,
		"channel": 9,
		"type": "channel",
		"subtype": "noteOff",
		"noteNumber": 42,
		"velocity": 0,
		"time": 129780,
		"track": 5
	},
	{
		"deltaTime": 0,
		"channel": 9,
		"type": "channel",
		"noteNumber": 42,
		"velocity": 127,
		"subtype": "noteOn",
		"time": 129840,
		"track": 5
	},
	{
		"deltaTime": 0,
		"channel": 9,
		"type": "channel",
		"noteNumber": 36,
		"velocity": 127,
		"subtype": "noteOn",
		"time": 129840,
		"track": 5
	},
	{
		"deltaTime": 60,
		"channel": 9,
		"type": "channel",
		"noteNumber": 35,
		"velocity": 127,
		"subtype": "noteOn",
		"time": 129840,
		"track": 5
	},
	{
		"deltaTime": 0,
		"channel": 9,
		"type": "channel",
		"subtype": "noteOff",
		"noteNumber": 35,
		"velocity": 0,
		"time": 129900,
		"track": 5
	},
	{
		"deltaTime": 0,
		"channel": 9,
		"type": "channel",
		"subtype": "noteOff",
		"noteNumber": 36,
		"velocity": 0,
		"time": 129900,
		"track": 5
	},
	{
		"deltaTime": 60,
		"channel": 9,
		"type": "channel",
		"subtype": "noteOff",
		"noteNumber": 42,
		"velocity": 0,
		"time": 129900,
		"track": 5
	},
	{
		"deltaTime": 0,
		"channel": 2,
		"type": "channel",
		"subtype": "noteOff",
		"noteNumber": 40,
		"velocity": 0,
		"time": 129960,
		"track": 4
	},
	{
		"deltaTime": 0,
		"channel": 2,
		"type": "channel",
		"noteNumber": 59,
		"velocity": 127,
		"subtype": "noteOn",
		"time": 129960,
		"track": 4
	},
	{
		"deltaTime": 0,
		"channel": 2,
		"type": "channel",
		"noteNumber": 63,
		"velocity": 127,
		"subtype": "noteOn",
		"time": 129960,
		"track": 4
	},
	{
		"deltaTime": 0,
		"channel": 2,
		"type": "channel",
		"noteNumber": 68,
		"velocity": 127,
		"subtype": "noteOn",
		"time": 129960,
		"track": 4
	},
	{
		"deltaTime": 60,
		"channel": 9,
		"type": "channel",
		"noteNumber": 42,
		"velocity": 127,
		"subtype": "noteOn",
		"time": 129960,
		"track": 5
	},
	{
		"deltaTime": 60,
		"channel": 9,
		"type": "channel",
		"subtype": "noteOff",
		"noteNumber": 42,
		"velocity": 0,
		"time": 130020,
		"track": 5
	},
	{
		"deltaTime": 0,
		"channel": 9,
		"type": "channel",
		"noteNumber": 42,
		"velocity": 127,
		"subtype": "noteOn",
		"time": 130080,
		"track": 5
	},
	{
		"deltaTime": 0,
		"channel": 9,
		"type": "channel",
		"noteNumber": 40,
		"velocity": 127,
		"subtype": "noteOn",
		"time": 130080,
		"track": 5
	},
	{
		"deltaTime": 60,
		"channel": 9,
		"type": "channel",
		"noteNumber": 38,
		"velocity": 127,
		"subtype": "noteOn",
		"time": 130080,
		"track": 5
	},
	{
		"deltaTime": 0,
		"channel": 9,
		"type": "channel",
		"subtype": "noteOff",
		"noteNumber": 38,
		"velocity": 0,
		"time": 130140,
		"track": 5
	},
	{
		"deltaTime": 0,
		"channel": 9,
		"type": "channel",
		"subtype": "noteOff",
		"noteNumber": 40,
		"velocity": 0,
		"time": 130140,
		"track": 5
	},
	{
		"deltaTime": 60,
		"channel": 9,
		"type": "channel",
		"subtype": "noteOff",
		"noteNumber": 42,
		"velocity": 0,
		"time": 130140,
		"track": 5
	},
	{
		"deltaTime": 0,
		"channel": 2,
		"type": "channel",
		"subtype": "noteOff",
		"noteNumber": 68,
		"velocity": 0,
		"time": 130200,
		"track": 4
	},
	{
		"deltaTime": 0,
		"channel": 2,
		"type": "channel",
		"subtype": "noteOff",
		"noteNumber": 63,
		"velocity": 0,
		"time": 130200,
		"track": 4
	},
	{
		"deltaTime": 0,
		"channel": 2,
		"type": "channel",
		"subtype": "noteOff",
		"noteNumber": 59,
		"velocity": 0,
		"time": 130200,
		"track": 4
	},
	{
		"deltaTime": 0,
		"channel": 2,
		"type": "channel",
		"noteNumber": 59,
		"velocity": 127,
		"subtype": "noteOn",
		"time": 130200,
		"track": 4
	},
	{
		"deltaTime": 0,
		"channel": 2,
		"type": "channel",
		"noteNumber": 63,
		"velocity": 127,
		"subtype": "noteOn",
		"time": 130200,
		"track": 4
	},
	{
		"deltaTime": 0,
		"channel": 2,
		"type": "channel",
		"noteNumber": 68,
		"velocity": 127,
		"subtype": "noteOn",
		"time": 130200,
		"track": 4
	},
	{
		"deltaTime": 60,
		"channel": 9,
		"type": "channel",
		"noteNumber": 42,
		"velocity": 127,
		"subtype": "noteOn",
		"time": 130200,
		"track": 5
	},
	{
		"deltaTime": 60,
		"channel": 9,
		"type": "channel",
		"subtype": "noteOff",
		"noteNumber": 42,
		"velocity": 0,
		"time": 130260,
		"track": 5
	},
	{
		"deltaTime": 60,
		"channel": 9,
		"type": "channel",
		"noteNumber": 42,
		"velocity": 127,
		"subtype": "noteOn",
		"time": 130320,
		"track": 5
	},
	{
		"deltaTime": 60,
		"channel": 9,
		"type": "channel",
		"subtype": "noteOff",
		"noteNumber": 42,
		"velocity": 0,
		"time": 130380,
		"track": 5
	},
	{
		"deltaTime": 60,
		"channel": 9,
		"type": "channel",
		"noteNumber": 42,
		"velocity": 127,
		"subtype": "noteOn",
		"time": 130440,
		"track": 5
	},
	{
		"deltaTime": 60,
		"channel": 9,
		"type": "channel",
		"subtype": "noteOff",
		"noteNumber": 42,
		"velocity": 0,
		"time": 130500,
		"track": 5
	},
	{
		"deltaTime": 0,
		"channel": 0,
		"type": "channel",
		"subtype": "noteOff",
		"noteNumber": 40,
		"velocity": 0,
		"time": 130560,
		"track": 2
	},
	{
		"deltaTime": 0,
		"channel": 0,
		"type": "channel",
		"noteNumber": 42,
		"velocity": 127,
		"subtype": "noteOn",
		"time": 130560,
		"track": 2
	},
	{
		"deltaTime": 0,
		"channel": 2,
		"type": "channel",
		"subtype": "noteOff",
		"noteNumber": 68,
		"velocity": 0,
		"time": 130560,
		"track": 4
	},
	{
		"deltaTime": 0,
		"channel": 2,
		"type": "channel",
		"subtype": "noteOff",
		"noteNumber": 63,
		"velocity": 0,
		"time": 130560,
		"track": 4
	},
	{
		"deltaTime": 0,
		"channel": 2,
		"type": "channel",
		"subtype": "noteOff",
		"noteNumber": 59,
		"velocity": 0,
		"time": 130560,
		"track": 4
	},
	{
		"deltaTime": 0,
		"channel": 2,
		"type": "channel",
		"noteNumber": 42,
		"velocity": 127,
		"subtype": "noteOn",
		"time": 130560,
		"track": 4
	},
	{
		"deltaTime": 0,
		"channel": 9,
		"type": "channel",
		"noteNumber": 42,
		"velocity": 127,
		"subtype": "noteOn",
		"time": 130560,
		"track": 5
	},
	{
		"deltaTime": 0,
		"channel": 9,
		"type": "channel",
		"noteNumber": 35,
		"velocity": 127,
		"subtype": "noteOn",
		"time": 130560,
		"track": 5
	},
	{
		"deltaTime": 60,
		"channel": 9,
		"type": "channel",
		"noteNumber": 36,
		"velocity": 127,
		"subtype": "noteOn",
		"time": 130560,
		"track": 5
	},
	{
		"deltaTime": 0,
		"channel": 9,
		"type": "channel",
		"subtype": "noteOff",
		"noteNumber": 36,
		"velocity": 0,
		"time": 130620,
		"track": 5
	},
	{
		"deltaTime": 0,
		"channel": 9,
		"type": "channel",
		"subtype": "noteOff",
		"noteNumber": 35,
		"velocity": 0,
		"time": 130620,
		"track": 5
	},
	{
		"deltaTime": 60,
		"channel": 9,
		"type": "channel",
		"subtype": "noteOff",
		"noteNumber": 42,
		"velocity": 0,
		"time": 130620,
		"track": 5
	},
	{
		"deltaTime": 60,
		"channel": 9,
		"type": "channel",
		"noteNumber": 42,
		"velocity": 127,
		"subtype": "noteOn",
		"time": 130680,
		"track": 5
	},
	{
		"deltaTime": 60,
		"channel": 9,
		"type": "channel",
		"subtype": "noteOff",
		"noteNumber": 42,
		"velocity": 0,
		"time": 130740,
		"track": 5
	},
	{
		"deltaTime": 0,
		"channel": 9,
		"type": "channel",
		"noteNumber": 42,
		"velocity": 127,
		"subtype": "noteOn",
		"time": 130800,
		"track": 5
	},
	{
		"deltaTime": 0,
		"channel": 9,
		"type": "channel",
		"noteNumber": 36,
		"velocity": 127,
		"subtype": "noteOn",
		"time": 130800,
		"track": 5
	},
	{
		"deltaTime": 60,
		"channel": 9,
		"type": "channel",
		"noteNumber": 35,
		"velocity": 127,
		"subtype": "noteOn",
		"time": 130800,
		"track": 5
	},
	{
		"deltaTime": 0,
		"channel": 9,
		"type": "channel",
		"subtype": "noteOff",
		"noteNumber": 35,
		"velocity": 0,
		"time": 130860,
		"track": 5
	},
	{
		"deltaTime": 0,
		"channel": 9,
		"type": "channel",
		"subtype": "noteOff",
		"noteNumber": 36,
		"velocity": 0,
		"time": 130860,
		"track": 5
	},
	{
		"deltaTime": 60,
		"channel": 9,
		"type": "channel",
		"subtype": "noteOff",
		"noteNumber": 42,
		"velocity": 0,
		"time": 130860,
		"track": 5
	},
	{
		"deltaTime": 0,
		"channel": 2,
		"type": "channel",
		"subtype": "noteOff",
		"noteNumber": 42,
		"velocity": 0,
		"time": 130920,
		"track": 4
	},
	{
		"deltaTime": 0,
		"channel": 2,
		"type": "channel",
		"noteNumber": 61,
		"velocity": 127,
		"subtype": "noteOn",
		"time": 130920,
		"track": 4
	},
	{
		"deltaTime": 0,
		"channel": 2,
		"type": "channel",
		"noteNumber": 66,
		"velocity": 127,
		"subtype": "noteOn",
		"time": 130920,
		"track": 4
	},
	{
		"deltaTime": 0,
		"channel": 2,
		"type": "channel",
		"noteNumber": 70,
		"velocity": 127,
		"subtype": "noteOn",
		"time": 130920,
		"track": 4
	},
	{
		"deltaTime": 60,
		"channel": 9,
		"type": "channel",
		"noteNumber": 42,
		"velocity": 127,
		"subtype": "noteOn",
		"time": 130920,
		"track": 5
	},
	{
		"deltaTime": 60,
		"channel": 9,
		"type": "channel",
		"subtype": "noteOff",
		"noteNumber": 42,
		"velocity": 0,
		"time": 130980,
		"track": 5
	},
	{
		"deltaTime": 0,
		"channel": 9,
		"type": "channel",
		"noteNumber": 42,
		"velocity": 127,
		"subtype": "noteOn",
		"time": 131040,
		"track": 5
	},
	{
		"deltaTime": 0,
		"channel": 9,
		"type": "channel",
		"noteNumber": 38,
		"velocity": 127,
		"subtype": "noteOn",
		"time": 131040,
		"track": 5
	},
	{
		"deltaTime": 60,
		"channel": 9,
		"type": "channel",
		"noteNumber": 40,
		"velocity": 127,
		"subtype": "noteOn",
		"time": 131040,
		"track": 5
	},
	{
		"deltaTime": 0,
		"channel": 9,
		"type": "channel",
		"subtype": "noteOff",
		"noteNumber": 40,
		"velocity": 0,
		"time": 131100,
		"track": 5
	},
	{
		"deltaTime": 0,
		"channel": 9,
		"type": "channel",
		"subtype": "noteOff",
		"noteNumber": 38,
		"velocity": 0,
		"time": 131100,
		"track": 5
	},
	{
		"deltaTime": 60,
		"channel": 9,
		"type": "channel",
		"subtype": "noteOff",
		"noteNumber": 42,
		"velocity": 0,
		"time": 131100,
		"track": 5
	},
	{
		"deltaTime": 0,
		"channel": 2,
		"type": "channel",
		"subtype": "noteOff",
		"noteNumber": 70,
		"velocity": 0,
		"time": 131160,
		"track": 4
	},
	{
		"deltaTime": 0,
		"channel": 2,
		"type": "channel",
		"subtype": "noteOff",
		"noteNumber": 66,
		"velocity": 0,
		"time": 131160,
		"track": 4
	},
	{
		"deltaTime": 0,
		"channel": 2,
		"type": "channel",
		"subtype": "noteOff",
		"noteNumber": 61,
		"velocity": 0,
		"time": 131160,
		"track": 4
	},
	{
		"deltaTime": 0,
		"channel": 2,
		"type": "channel",
		"noteNumber": 61,
		"velocity": 127,
		"subtype": "noteOn",
		"time": 131160,
		"track": 4
	},
	{
		"deltaTime": 0,
		"channel": 2,
		"type": "channel",
		"noteNumber": 66,
		"velocity": 127,
		"subtype": "noteOn",
		"time": 131160,
		"track": 4
	},
	{
		"deltaTime": 0,
		"channel": 2,
		"type": "channel",
		"noteNumber": 70,
		"velocity": 127,
		"subtype": "noteOn",
		"time": 131160,
		"track": 4
	},
	{
		"deltaTime": 60,
		"channel": 9,
		"type": "channel",
		"noteNumber": 42,
		"velocity": 127,
		"subtype": "noteOn",
		"time": 131160,
		"track": 5
	},
	{
		"deltaTime": 60,
		"channel": 9,
		"type": "channel",
		"subtype": "noteOff",
		"noteNumber": 42,
		"velocity": 0,
		"time": 131220,
		"track": 5
	},
	{
		"deltaTime": 60,
		"channel": 9,
		"type": "channel",
		"noteNumber": 42,
		"velocity": 127,
		"subtype": "noteOn",
		"time": 131280,
		"track": 5
	},
	{
		"deltaTime": 60,
		"channel": 9,
		"type": "channel",
		"subtype": "noteOff",
		"noteNumber": 42,
		"velocity": 0,
		"time": 131340,
		"track": 5
	},
	{
		"deltaTime": 0,
		"channel": 9,
		"type": "channel",
		"noteNumber": 42,
		"velocity": 127,
		"subtype": "noteOn",
		"time": 131400,
		"track": 5
	},
	{
		"deltaTime": 0,
		"channel": 9,
		"type": "channel",
		"noteNumber": 36,
		"velocity": 127,
		"subtype": "noteOn",
		"time": 131400,
		"track": 5
	},
	{
		"deltaTime": 60,
		"channel": 9,
		"type": "channel",
		"noteNumber": 35,
		"velocity": 127,
		"subtype": "noteOn",
		"time": 131400,
		"track": 5
	},
	{
		"deltaTime": 0,
		"channel": 9,
		"type": "channel",
		"subtype": "noteOff",
		"noteNumber": 35,
		"velocity": 0,
		"time": 131460,
		"track": 5
	},
	{
		"deltaTime": 0,
		"channel": 9,
		"type": "channel",
		"subtype": "noteOff",
		"noteNumber": 36,
		"velocity": 0,
		"time": 131460,
		"track": 5
	},
	{
		"deltaTime": 60,
		"channel": 9,
		"type": "channel",
		"subtype": "noteOff",
		"noteNumber": 42,
		"velocity": 0,
		"time": 131460,
		"track": 5
	},
	{
		"deltaTime": 0,
		"channel": 0,
		"type": "channel",
		"subtype": "noteOff",
		"noteNumber": 42,
		"velocity": 0,
		"time": 131520,
		"track": 2
	},
	{
		"deltaTime": 0,
		"channel": 0,
		"type": "channel",
		"noteNumber": 35,
		"velocity": 127,
		"subtype": "noteOn",
		"time": 131520,
		"track": 2
	},
	{
		"deltaTime": 0,
		"channel": 2,
		"type": "channel",
		"subtype": "noteOff",
		"noteNumber": 70,
		"velocity": 0,
		"time": 131520,
		"track": 4
	},
	{
		"deltaTime": 0,
		"channel": 2,
		"type": "channel",
		"subtype": "noteOff",
		"noteNumber": 66,
		"velocity": 0,
		"time": 131520,
		"track": 4
	},
	{
		"deltaTime": 0,
		"channel": 2,
		"type": "channel",
		"subtype": "noteOff",
		"noteNumber": 61,
		"velocity": 0,
		"time": 131520,
		"track": 4
	},
	{
		"deltaTime": 0,
		"channel": 2,
		"type": "channel",
		"noteNumber": 47,
		"velocity": 127,
		"subtype": "noteOn",
		"time": 131520,
		"track": 4
	},
	{
		"deltaTime": 60,
		"channel": 9,
		"type": "channel",
		"noteNumber": 42,
		"velocity": 127,
		"subtype": "noteOn",
		"time": 131520,
		"track": 5
	},
	{
		"deltaTime": 60,
		"channel": 9,
		"type": "channel",
		"subtype": "noteOff",
		"noteNumber": 42,
		"velocity": 0,
		"time": 131580,
		"track": 5
	},
	{
		"deltaTime": 60,
		"channel": 9,
		"type": "channel",
		"noteNumber": 42,
		"velocity": 127,
		"subtype": "noteOn",
		"time": 131640,
		"track": 5
	},
	{
		"deltaTime": 60,
		"channel": 9,
		"type": "channel",
		"subtype": "noteOff",
		"noteNumber": 42,
		"velocity": 0,
		"time": 131700,
		"track": 5
	},
	{
		"deltaTime": 0,
		"channel": 9,
		"type": "channel",
		"noteNumber": 42,
		"velocity": 127,
		"subtype": "noteOn",
		"time": 131760,
		"track": 5
	},
	{
		"deltaTime": 0,
		"channel": 9,
		"type": "channel",
		"noteNumber": 36,
		"velocity": 127,
		"subtype": "noteOn",
		"time": 131760,
		"track": 5
	},
	{
		"deltaTime": 60,
		"channel": 9,
		"type": "channel",
		"noteNumber": 35,
		"velocity": 127,
		"subtype": "noteOn",
		"time": 131760,
		"track": 5
	},
	{
		"deltaTime": 0,
		"channel": 9,
		"type": "channel",
		"subtype": "noteOff",
		"noteNumber": 35,
		"velocity": 0,
		"time": 131820,
		"track": 5
	},
	{
		"deltaTime": 0,
		"channel": 9,
		"type": "channel",
		"subtype": "noteOff",
		"noteNumber": 36,
		"velocity": 0,
		"time": 131820,
		"track": 5
	},
	{
		"deltaTime": 60,
		"channel": 9,
		"type": "channel",
		"subtype": "noteOff",
		"noteNumber": 42,
		"velocity": 0,
		"time": 131820,
		"track": 5
	},
	{
		"deltaTime": 0,
		"channel": 2,
		"type": "channel",
		"subtype": "noteOff",
		"noteNumber": 47,
		"velocity": 0,
		"time": 131880,
		"track": 4
	},
	{
		"deltaTime": 0,
		"channel": 2,
		"type": "channel",
		"noteNumber": 61,
		"velocity": 127,
		"subtype": "noteOn",
		"time": 131880,
		"track": 4
	},
	{
		"deltaTime": 0,
		"channel": 2,
		"type": "channel",
		"noteNumber": 66,
		"velocity": 127,
		"subtype": "noteOn",
		"time": 131880,
		"track": 4
	},
	{
		"deltaTime": 0,
		"channel": 2,
		"type": "channel",
		"noteNumber": 70,
		"velocity": 127,
		"subtype": "noteOn",
		"time": 131880,
		"track": 4
	},
	{
		"deltaTime": 60,
		"channel": 9,
		"type": "channel",
		"noteNumber": 42,
		"velocity": 127,
		"subtype": "noteOn",
		"time": 131880,
		"track": 5
	},
	{
		"deltaTime": 60,
		"channel": 9,
		"type": "channel",
		"subtype": "noteOff",
		"noteNumber": 42,
		"velocity": 0,
		"time": 131940,
		"track": 5
	},
	{
		"deltaTime": 0,
		"channel": 0,
		"type": "channel",
		"subtype": "noteOff",
		"noteNumber": 35,
		"velocity": 0,
		"time": 132000,
		"track": 2
	},
	{
		"deltaTime": 0,
		"channel": 0,
		"type": "channel",
		"noteNumber": 34,
		"velocity": 127,
		"subtype": "noteOn",
		"time": 132000,
		"track": 2
	},
	{
		"deltaTime": 0,
		"channel": 9,
		"type": "channel",
		"noteNumber": 42,
		"velocity": 127,
		"subtype": "noteOn",
		"time": 132000,
		"track": 5
	},
	{
		"deltaTime": 0,
		"channel": 9,
		"type": "channel",
		"noteNumber": 40,
		"velocity": 127,
		"subtype": "noteOn",
		"time": 132000,
		"track": 5
	},
	{
		"deltaTime": 60,
		"channel": 9,
		"type": "channel",
		"noteNumber": 38,
		"velocity": 127,
		"subtype": "noteOn",
		"time": 132000,
		"track": 5
	},
	{
		"deltaTime": 0,
		"channel": 9,
		"type": "channel",
		"subtype": "noteOff",
		"noteNumber": 38,
		"velocity": 0,
		"time": 132060,
		"track": 5
	},
	{
		"deltaTime": 0,
		"channel": 9,
		"type": "channel",
		"subtype": "noteOff",
		"noteNumber": 40,
		"velocity": 0,
		"time": 132060,
		"track": 5
	},
	{
		"deltaTime": 60,
		"channel": 9,
		"type": "channel",
		"subtype": "noteOff",
		"noteNumber": 42,
		"velocity": 0,
		"time": 132060,
		"track": 5
	},
	{
		"deltaTime": 0,
		"channel": 2,
		"type": "channel",
		"subtype": "noteOff",
		"noteNumber": 70,
		"velocity": 0,
		"time": 132120,
		"track": 4
	},
	{
		"deltaTime": 0,
		"channel": 2,
		"type": "channel",
		"subtype": "noteOff",
		"noteNumber": 66,
		"velocity": 0,
		"time": 132120,
		"track": 4
	},
	{
		"deltaTime": 0,
		"channel": 2,
		"type": "channel",
		"subtype": "noteOff",
		"noteNumber": 61,
		"velocity": 0,
		"time": 132120,
		"track": 4
	},
	{
		"deltaTime": 0,
		"channel": 2,
		"type": "channel",
		"noteNumber": 61,
		"velocity": 127,
		"subtype": "noteOn",
		"time": 132120,
		"track": 4
	},
	{
		"deltaTime": 0,
		"channel": 2,
		"type": "channel",
		"noteNumber": 66,
		"velocity": 127,
		"subtype": "noteOn",
		"time": 132120,
		"track": 4
	},
	{
		"deltaTime": 0,
		"channel": 2,
		"type": "channel",
		"noteNumber": 71,
		"velocity": 127,
		"subtype": "noteOn",
		"time": 132120,
		"track": 4
	},
	{
		"deltaTime": 60,
		"channel": 9,
		"type": "channel",
		"noteNumber": 42,
		"velocity": 127,
		"subtype": "noteOn",
		"time": 132120,
		"track": 5
	},
	{
		"deltaTime": 60,
		"channel": 9,
		"type": "channel",
		"subtype": "noteOff",
		"noteNumber": 42,
		"velocity": 0,
		"time": 132180,
		"track": 5
	},
	{
		"deltaTime": 60,
		"channel": 9,
		"type": "channel",
		"noteNumber": 42,
		"velocity": 127,
		"subtype": "noteOn",
		"time": 132240,
		"track": 5
	},
	{
		"deltaTime": 60,
		"channel": 9,
		"type": "channel",
		"subtype": "noteOff",
		"noteNumber": 42,
		"velocity": 0,
		"time": 132300,
		"track": 5
	},
	{
		"deltaTime": 60,
		"channel": 9,
		"type": "channel",
		"noteNumber": 42,
		"velocity": 127,
		"subtype": "noteOn",
		"time": 132360,
		"track": 5
	},
	{
		"deltaTime": 60,
		"channel": 9,
		"type": "channel",
		"subtype": "noteOff",
		"noteNumber": 42,
		"velocity": 0,
		"time": 132420,
		"track": 5
	},
	{
		"deltaTime": 0,
		"channel": 0,
		"type": "channel",
		"subtype": "noteOff",
		"noteNumber": 34,
		"velocity": 0,
		"time": 132480,
		"track": 2
	},
	{
		"deltaTime": 0,
		"channel": 0,
		"type": "channel",
		"noteNumber": 32,
		"velocity": 127,
		"subtype": "noteOn",
		"time": 132480,
		"track": 2
	},
	{
		"deltaTime": 0,
		"channel": 2,
		"type": "channel",
		"subtype": "noteOff",
		"noteNumber": 71,
		"velocity": 0,
		"time": 132480,
		"track": 4
	},
	{
		"deltaTime": 0,
		"channel": 2,
		"type": "channel",
		"subtype": "noteOff",
		"noteNumber": 66,
		"velocity": 0,
		"time": 132480,
		"track": 4
	},
	{
		"deltaTime": 0,
		"channel": 2,
		"type": "channel",
		"subtype": "noteOff",
		"noteNumber": 61,
		"velocity": 0,
		"time": 132480,
		"track": 4
	},
	{
		"deltaTime": 0,
		"channel": 2,
		"type": "channel",
		"noteNumber": 44,
		"velocity": 127,
		"subtype": "noteOn",
		"time": 132480,
		"track": 4
	},
	{
		"deltaTime": 0,
		"channel": 9,
		"type": "channel",
		"noteNumber": 42,
		"velocity": 127,
		"subtype": "noteOn",
		"time": 132480,
		"track": 5
	},
	{
		"deltaTime": 0,
		"channel": 9,
		"type": "channel",
		"noteNumber": 35,
		"velocity": 127,
		"subtype": "noteOn",
		"time": 132480,
		"track": 5
	},
	{
		"deltaTime": 60,
		"channel": 9,
		"type": "channel",
		"noteNumber": 36,
		"velocity": 127,
		"subtype": "noteOn",
		"time": 132480,
		"track": 5
	},
	{
		"deltaTime": 0,
		"channel": 9,
		"type": "channel",
		"subtype": "noteOff",
		"noteNumber": 36,
		"velocity": 0,
		"time": 132540,
		"track": 5
	},
	{
		"deltaTime": 0,
		"channel": 9,
		"type": "channel",
		"subtype": "noteOff",
		"noteNumber": 35,
		"velocity": 0,
		"time": 132540,
		"track": 5
	},
	{
		"deltaTime": 60,
		"channel": 9,
		"type": "channel",
		"subtype": "noteOff",
		"noteNumber": 42,
		"velocity": 0,
		"time": 132540,
		"track": 5
	},
	{
		"deltaTime": 60,
		"channel": 9,
		"type": "channel",
		"noteNumber": 42,
		"velocity": 127,
		"subtype": "noteOn",
		"time": 132600,
		"track": 5
	},
	{
		"deltaTime": 60,
		"channel": 9,
		"type": "channel",
		"subtype": "noteOff",
		"noteNumber": 42,
		"velocity": 0,
		"time": 132660,
		"track": 5
	},
	{
		"deltaTime": 0,
		"channel": 9,
		"type": "channel",
		"noteNumber": 42,
		"velocity": 127,
		"subtype": "noteOn",
		"time": 132720,
		"track": 5
	},
	{
		"deltaTime": 0,
		"channel": 9,
		"type": "channel",
		"noteNumber": 36,
		"velocity": 127,
		"subtype": "noteOn",
		"time": 132720,
		"track": 5
	},
	{
		"deltaTime": 60,
		"channel": 9,
		"type": "channel",
		"noteNumber": 35,
		"velocity": 127,
		"subtype": "noteOn",
		"time": 132720,
		"track": 5
	},
	{
		"deltaTime": 0,
		"channel": 9,
		"type": "channel",
		"subtype": "noteOff",
		"noteNumber": 35,
		"velocity": 0,
		"time": 132780,
		"track": 5
	},
	{
		"deltaTime": 0,
		"channel": 9,
		"type": "channel",
		"subtype": "noteOff",
		"noteNumber": 36,
		"velocity": 0,
		"time": 132780,
		"track": 5
	},
	{
		"deltaTime": 60,
		"channel": 9,
		"type": "channel",
		"subtype": "noteOff",
		"noteNumber": 42,
		"velocity": 0,
		"time": 132780,
		"track": 5
	},
	{
		"deltaTime": 0,
		"channel": 2,
		"type": "channel",
		"subtype": "noteOff",
		"noteNumber": 44,
		"velocity": 0,
		"time": 132840,
		"track": 4
	},
	{
		"deltaTime": 0,
		"channel": 2,
		"type": "channel",
		"noteNumber": 59,
		"velocity": 127,
		"subtype": "noteOn",
		"time": 132840,
		"track": 4
	},
	{
		"deltaTime": 0,
		"channel": 2,
		"type": "channel",
		"noteNumber": 63,
		"velocity": 127,
		"subtype": "noteOn",
		"time": 132840,
		"track": 4
	},
	{
		"deltaTime": 0,
		"channel": 2,
		"type": "channel",
		"noteNumber": 68,
		"velocity": 127,
		"subtype": "noteOn",
		"time": 132840,
		"track": 4
	},
	{
		"deltaTime": 60,
		"channel": 9,
		"type": "channel",
		"noteNumber": 42,
		"velocity": 127,
		"subtype": "noteOn",
		"time": 132840,
		"track": 5
	},
	{
		"deltaTime": 60,
		"channel": 9,
		"type": "channel",
		"subtype": "noteOff",
		"noteNumber": 42,
		"velocity": 0,
		"time": 132900,
		"track": 5
	},
	{
		"deltaTime": 0,
		"channel": 9,
		"type": "channel",
		"noteNumber": 42,
		"velocity": 127,
		"subtype": "noteOn",
		"time": 132960,
		"track": 5
	},
	{
		"deltaTime": 0,
		"channel": 9,
		"type": "channel",
		"noteNumber": 38,
		"velocity": 127,
		"subtype": "noteOn",
		"time": 132960,
		"track": 5
	},
	{
		"deltaTime": 60,
		"channel": 9,
		"type": "channel",
		"noteNumber": 40,
		"velocity": 127,
		"subtype": "noteOn",
		"time": 132960,
		"track": 5
	},
	{
		"deltaTime": 0,
		"channel": 9,
		"type": "channel",
		"subtype": "noteOff",
		"noteNumber": 40,
		"velocity": 0,
		"time": 133020,
		"track": 5
	},
	{
		"deltaTime": 0,
		"channel": 9,
		"type": "channel",
		"subtype": "noteOff",
		"noteNumber": 38,
		"velocity": 0,
		"time": 133020,
		"track": 5
	},
	{
		"deltaTime": 60,
		"channel": 9,
		"type": "channel",
		"subtype": "noteOff",
		"noteNumber": 42,
		"velocity": 0,
		"time": 133020,
		"track": 5
	},
	{
		"deltaTime": 0,
		"channel": 2,
		"type": "channel",
		"subtype": "noteOff",
		"noteNumber": 68,
		"velocity": 0,
		"time": 133080,
		"track": 4
	},
	{
		"deltaTime": 0,
		"channel": 2,
		"type": "channel",
		"subtype": "noteOff",
		"noteNumber": 63,
		"velocity": 0,
		"time": 133080,
		"track": 4
	},
	{
		"deltaTime": 0,
		"channel": 2,
		"type": "channel",
		"subtype": "noteOff",
		"noteNumber": 59,
		"velocity": 0,
		"time": 133080,
		"track": 4
	},
	{
		"deltaTime": 0,
		"channel": 2,
		"type": "channel",
		"noteNumber": 59,
		"velocity": 127,
		"subtype": "noteOn",
		"time": 133080,
		"track": 4
	},
	{
		"deltaTime": 0,
		"channel": 2,
		"type": "channel",
		"noteNumber": 63,
		"velocity": 127,
		"subtype": "noteOn",
		"time": 133080,
		"track": 4
	},
	{
		"deltaTime": 0,
		"channel": 2,
		"type": "channel",
		"noteNumber": 68,
		"velocity": 127,
		"subtype": "noteOn",
		"time": 133080,
		"track": 4
	},
	{
		"deltaTime": 60,
		"channel": 9,
		"type": "channel",
		"noteNumber": 42,
		"velocity": 127,
		"subtype": "noteOn",
		"time": 133080,
		"track": 5
	},
	{
		"deltaTime": 60,
		"channel": 9,
		"type": "channel",
		"subtype": "noteOff",
		"noteNumber": 42,
		"velocity": 0,
		"time": 133140,
		"track": 5
	},
	{
		"deltaTime": 60,
		"channel": 9,
		"type": "channel",
		"noteNumber": 42,
		"velocity": 127,
		"subtype": "noteOn",
		"time": 133200,
		"track": 5
	},
	{
		"deltaTime": 60,
		"channel": 9,
		"type": "channel",
		"subtype": "noteOff",
		"noteNumber": 42,
		"velocity": 0,
		"time": 133260,
		"track": 5
	},
	{
		"deltaTime": 0,
		"channel": 9,
		"type": "channel",
		"noteNumber": 42,
		"velocity": 127,
		"subtype": "noteOn",
		"time": 133320,
		"track": 5
	},
	{
		"deltaTime": 0,
		"channel": 9,
		"type": "channel",
		"noteNumber": 36,
		"velocity": 127,
		"subtype": "noteOn",
		"time": 133320,
		"track": 5
	},
	{
		"deltaTime": 60,
		"channel": 9,
		"type": "channel",
		"noteNumber": 35,
		"velocity": 127,
		"subtype": "noteOn",
		"time": 133320,
		"track": 5
	},
	{
		"deltaTime": 0,
		"channel": 9,
		"type": "channel",
		"subtype": "noteOff",
		"noteNumber": 35,
		"velocity": 0,
		"time": 133380,
		"track": 5
	},
	{
		"deltaTime": 0,
		"channel": 9,
		"type": "channel",
		"subtype": "noteOff",
		"noteNumber": 36,
		"velocity": 0,
		"time": 133380,
		"track": 5
	},
	{
		"deltaTime": 60,
		"channel": 9,
		"type": "channel",
		"subtype": "noteOff",
		"noteNumber": 42,
		"velocity": 0,
		"time": 133380,
		"track": 5
	},
	{
		"deltaTime": 0,
		"channel": 0,
		"type": "channel",
		"subtype": "noteOff",
		"noteNumber": 32,
		"velocity": 0,
		"time": 133440,
		"track": 2
	},
	{
		"deltaTime": 0,
		"channel": 0,
		"type": "channel",
		"noteNumber": 40,
		"velocity": 127,
		"subtype": "noteOn",
		"time": 133440,
		"track": 2
	},
	{
		"deltaTime": 0,
		"channel": 2,
		"type": "channel",
		"subtype": "noteOff",
		"noteNumber": 68,
		"velocity": 0,
		"time": 133440,
		"track": 4
	},
	{
		"deltaTime": 0,
		"channel": 2,
		"type": "channel",
		"subtype": "noteOff",
		"noteNumber": 63,
		"velocity": 0,
		"time": 133440,
		"track": 4
	},
	{
		"deltaTime": 0,
		"channel": 2,
		"type": "channel",
		"subtype": "noteOff",
		"noteNumber": 59,
		"velocity": 0,
		"time": 133440,
		"track": 4
	},
	{
		"deltaTime": 0,
		"channel": 2,
		"type": "channel",
		"noteNumber": 40,
		"velocity": 127,
		"subtype": "noteOn",
		"time": 133440,
		"track": 4
	},
	{
		"deltaTime": 60,
		"channel": 9,
		"type": "channel",
		"noteNumber": 42,
		"velocity": 127,
		"subtype": "noteOn",
		"time": 133440,
		"track": 5
	},
	{
		"deltaTime": 60,
		"channel": 9,
		"type": "channel",
		"subtype": "noteOff",
		"noteNumber": 42,
		"velocity": 0,
		"time": 133500,
		"track": 5
	},
	{
		"deltaTime": 60,
		"channel": 9,
		"type": "channel",
		"noteNumber": 42,
		"velocity": 127,
		"subtype": "noteOn",
		"time": 133560,
		"track": 5
	},
	{
		"deltaTime": 60,
		"channel": 9,
		"type": "channel",
		"subtype": "noteOff",
		"noteNumber": 42,
		"velocity": 0,
		"time": 133620,
		"track": 5
	},
	{
		"deltaTime": 0,
		"channel": 9,
		"type": "channel",
		"noteNumber": 42,
		"velocity": 127,
		"subtype": "noteOn",
		"time": 133680,
		"track": 5
	},
	{
		"deltaTime": 0,
		"channel": 9,
		"type": "channel",
		"noteNumber": 36,
		"velocity": 127,
		"subtype": "noteOn",
		"time": 133680,
		"track": 5
	},
	{
		"deltaTime": 60,
		"channel": 9,
		"type": "channel",
		"noteNumber": 35,
		"velocity": 127,
		"subtype": "noteOn",
		"time": 133680,
		"track": 5
	},
	{
		"deltaTime": 0,
		"channel": 9,
		"type": "channel",
		"subtype": "noteOff",
		"noteNumber": 35,
		"velocity": 0,
		"time": 133740,
		"track": 5
	},
	{
		"deltaTime": 0,
		"channel": 9,
		"type": "channel",
		"subtype": "noteOff",
		"noteNumber": 36,
		"velocity": 0,
		"time": 133740,
		"track": 5
	},
	{
		"deltaTime": 60,
		"channel": 9,
		"type": "channel",
		"subtype": "noteOff",
		"noteNumber": 42,
		"velocity": 0,
		"time": 133740,
		"track": 5
	},
	{
		"deltaTime": 0,
		"channel": 2,
		"type": "channel",
		"subtype": "noteOff",
		"noteNumber": 40,
		"velocity": 0,
		"time": 133800,
		"track": 4
	},
	{
		"deltaTime": 0,
		"channel": 2,
		"type": "channel",
		"noteNumber": 59,
		"velocity": 127,
		"subtype": "noteOn",
		"time": 133800,
		"track": 4
	},
	{
		"deltaTime": 0,
		"channel": 2,
		"type": "channel",
		"noteNumber": 63,
		"velocity": 127,
		"subtype": "noteOn",
		"time": 133800,
		"track": 4
	},
	{
		"deltaTime": 0,
		"channel": 2,
		"type": "channel",
		"noteNumber": 68,
		"velocity": 127,
		"subtype": "noteOn",
		"time": 133800,
		"track": 4
	},
	{
		"deltaTime": 60,
		"channel": 9,
		"type": "channel",
		"noteNumber": 42,
		"velocity": 127,
		"subtype": "noteOn",
		"time": 133800,
		"track": 5
	},
	{
		"deltaTime": 60,
		"channel": 9,
		"type": "channel",
		"subtype": "noteOff",
		"noteNumber": 42,
		"velocity": 0,
		"time": 133860,
		"track": 5
	},
	{
		"deltaTime": 0,
		"channel": 9,
		"type": "channel",
		"noteNumber": 42,
		"velocity": 127,
		"subtype": "noteOn",
		"time": 133920,
		"track": 5
	},
	{
		"deltaTime": 0,
		"channel": 9,
		"type": "channel",
		"noteNumber": 40,
		"velocity": 127,
		"subtype": "noteOn",
		"time": 133920,
		"track": 5
	},
	{
		"deltaTime": 60,
		"channel": 9,
		"type": "channel",
		"noteNumber": 38,
		"velocity": 127,
		"subtype": "noteOn",
		"time": 133920,
		"track": 5
	},
	{
		"deltaTime": 0,
		"channel": 9,
		"type": "channel",
		"subtype": "noteOff",
		"noteNumber": 38,
		"velocity": 0,
		"time": 133980,
		"track": 5
	},
	{
		"deltaTime": 0,
		"channel": 9,
		"type": "channel",
		"subtype": "noteOff",
		"noteNumber": 40,
		"velocity": 0,
		"time": 133980,
		"track": 5
	},
	{
		"deltaTime": 60,
		"channel": 9,
		"type": "channel",
		"subtype": "noteOff",
		"noteNumber": 42,
		"velocity": 0,
		"time": 133980,
		"track": 5
	},
	{
		"deltaTime": 0,
		"channel": 2,
		"type": "channel",
		"subtype": "noteOff",
		"noteNumber": 68,
		"velocity": 0,
		"time": 134040,
		"track": 4
	},
	{
		"deltaTime": 0,
		"channel": 2,
		"type": "channel",
		"subtype": "noteOff",
		"noteNumber": 63,
		"velocity": 0,
		"time": 134040,
		"track": 4
	},
	{
		"deltaTime": 0,
		"channel": 2,
		"type": "channel",
		"subtype": "noteOff",
		"noteNumber": 59,
		"velocity": 0,
		"time": 134040,
		"track": 4
	},
	{
		"deltaTime": 0,
		"channel": 2,
		"type": "channel",
		"noteNumber": 59,
		"velocity": 127,
		"subtype": "noteOn",
		"time": 134040,
		"track": 4
	},
	{
		"deltaTime": 0,
		"channel": 2,
		"type": "channel",
		"noteNumber": 63,
		"velocity": 127,
		"subtype": "noteOn",
		"time": 134040,
		"track": 4
	},
	{
		"deltaTime": 0,
		"channel": 2,
		"type": "channel",
		"noteNumber": 68,
		"velocity": 127,
		"subtype": "noteOn",
		"time": 134040,
		"track": 4
	},
	{
		"deltaTime": 60,
		"channel": 9,
		"type": "channel",
		"noteNumber": 42,
		"velocity": 127,
		"subtype": "noteOn",
		"time": 134040,
		"track": 5
	},
	{
		"deltaTime": 60,
		"channel": 9,
		"type": "channel",
		"subtype": "noteOff",
		"noteNumber": 42,
		"velocity": 0,
		"time": 134100,
		"track": 5
	},
	{
		"deltaTime": 60,
		"channel": 9,
		"type": "channel",
		"noteNumber": 42,
		"velocity": 127,
		"subtype": "noteOn",
		"time": 134160,
		"track": 5
	},
	{
		"deltaTime": 60,
		"channel": 9,
		"type": "channel",
		"subtype": "noteOff",
		"noteNumber": 42,
		"velocity": 0,
		"time": 134220,
		"track": 5
	},
	{
		"deltaTime": 60,
		"channel": 9,
		"type": "channel",
		"noteNumber": 42,
		"velocity": 127,
		"subtype": "noteOn",
		"time": 134280,
		"track": 5
	},
	{
		"deltaTime": 60,
		"channel": 9,
		"type": "channel",
		"subtype": "noteOff",
		"noteNumber": 42,
		"velocity": 0,
		"time": 134340,
		"track": 5
	},
	{
		"deltaTime": 0,
		"channel": 0,
		"type": "channel",
		"subtype": "noteOff",
		"noteNumber": 40,
		"velocity": 0,
		"time": 134400,
		"track": 2
	},
	{
		"deltaTime": 0,
		"channel": 0,
		"type": "channel",
		"noteNumber": 42,
		"velocity": 127,
		"subtype": "noteOn",
		"time": 134400,
		"track": 2
	},
	{
		"deltaTime": 0,
		"channel": 2,
		"type": "channel",
		"subtype": "noteOff",
		"noteNumber": 68,
		"velocity": 0,
		"time": 134400,
		"track": 4
	},
	{
		"deltaTime": 0,
		"channel": 2,
		"type": "channel",
		"subtype": "noteOff",
		"noteNumber": 63,
		"velocity": 0,
		"time": 134400,
		"track": 4
	},
	{
		"deltaTime": 0,
		"channel": 2,
		"type": "channel",
		"subtype": "noteOff",
		"noteNumber": 59,
		"velocity": 0,
		"time": 134400,
		"track": 4
	},
	{
		"deltaTime": 0,
		"channel": 2,
		"type": "channel",
		"noteNumber": 42,
		"velocity": 127,
		"subtype": "noteOn",
		"time": 134400,
		"track": 4
	},
	{
		"deltaTime": 0,
		"channel": 9,
		"type": "channel",
		"noteNumber": 42,
		"velocity": 127,
		"subtype": "noteOn",
		"time": 134400,
		"track": 5
	},
	{
		"deltaTime": 0,
		"channel": 9,
		"type": "channel",
		"noteNumber": 35,
		"velocity": 127,
		"subtype": "noteOn",
		"time": 134400,
		"track": 5
	},
	{
		"deltaTime": 60,
		"channel": 9,
		"type": "channel",
		"noteNumber": 36,
		"velocity": 127,
		"subtype": "noteOn",
		"time": 134400,
		"track": 5
	},
	{
		"deltaTime": 0,
		"channel": 9,
		"type": "channel",
		"subtype": "noteOff",
		"noteNumber": 36,
		"velocity": 0,
		"time": 134460,
		"track": 5
	},
	{
		"deltaTime": 0,
		"channel": 9,
		"type": "channel",
		"subtype": "noteOff",
		"noteNumber": 35,
		"velocity": 0,
		"time": 134460,
		"track": 5
	},
	{
		"deltaTime": 60,
		"channel": 9,
		"type": "channel",
		"subtype": "noteOff",
		"noteNumber": 42,
		"velocity": 0,
		"time": 134460,
		"track": 5
	},
	{
		"deltaTime": 60,
		"channel": 9,
		"type": "channel",
		"noteNumber": 42,
		"velocity": 127,
		"subtype": "noteOn",
		"time": 134520,
		"track": 5
	},
	{
		"deltaTime": 60,
		"channel": 9,
		"type": "channel",
		"subtype": "noteOff",
		"noteNumber": 42,
		"velocity": 0,
		"time": 134580,
		"track": 5
	},
	{
		"deltaTime": 0,
		"channel": 9,
		"type": "channel",
		"noteNumber": 42,
		"velocity": 127,
		"subtype": "noteOn",
		"time": 134640,
		"track": 5
	},
	{
		"deltaTime": 0,
		"channel": 9,
		"type": "channel",
		"noteNumber": 36,
		"velocity": 127,
		"subtype": "noteOn",
		"time": 134640,
		"track": 5
	},
	{
		"deltaTime": 60,
		"channel": 9,
		"type": "channel",
		"noteNumber": 35,
		"velocity": 127,
		"subtype": "noteOn",
		"time": 134640,
		"track": 5
	},
	{
		"deltaTime": 0,
		"channel": 9,
		"type": "channel",
		"subtype": "noteOff",
		"noteNumber": 35,
		"velocity": 0,
		"time": 134700,
		"track": 5
	},
	{
		"deltaTime": 0,
		"channel": 9,
		"type": "channel",
		"subtype": "noteOff",
		"noteNumber": 36,
		"velocity": 0,
		"time": 134700,
		"track": 5
	},
	{
		"deltaTime": 60,
		"channel": 9,
		"type": "channel",
		"subtype": "noteOff",
		"noteNumber": 42,
		"velocity": 0,
		"time": 134700,
		"track": 5
	},
	{
		"deltaTime": 0,
		"channel": 2,
		"type": "channel",
		"subtype": "noteOff",
		"noteNumber": 42,
		"velocity": 0,
		"time": 134760,
		"track": 4
	},
	{
		"deltaTime": 0,
		"channel": 2,
		"type": "channel",
		"noteNumber": 61,
		"velocity": 127,
		"subtype": "noteOn",
		"time": 134760,
		"track": 4
	},
	{
		"deltaTime": 0,
		"channel": 2,
		"type": "channel",
		"noteNumber": 66,
		"velocity": 127,
		"subtype": "noteOn",
		"time": 134760,
		"track": 4
	},
	{
		"deltaTime": 0,
		"channel": 2,
		"type": "channel",
		"noteNumber": 70,
		"velocity": 127,
		"subtype": "noteOn",
		"time": 134760,
		"track": 4
	},
	{
		"deltaTime": 60,
		"channel": 9,
		"type": "channel",
		"noteNumber": 42,
		"velocity": 127,
		"subtype": "noteOn",
		"time": 134760,
		"track": 5
	},
	{
		"deltaTime": 60,
		"channel": 9,
		"type": "channel",
		"subtype": "noteOff",
		"noteNumber": 42,
		"velocity": 0,
		"time": 134820,
		"track": 5
	},
	{
		"deltaTime": 0,
		"channel": 9,
		"type": "channel",
		"noteNumber": 42,
		"velocity": 127,
		"subtype": "noteOn",
		"time": 134880,
		"track": 5
	},
	{
		"deltaTime": 0,
		"channel": 9,
		"type": "channel",
		"noteNumber": 38,
		"velocity": 127,
		"subtype": "noteOn",
		"time": 134880,
		"track": 5
	},
	{
		"deltaTime": 60,
		"channel": 9,
		"type": "channel",
		"noteNumber": 40,
		"velocity": 127,
		"subtype": "noteOn",
		"time": 134880,
		"track": 5
	},
	{
		"deltaTime": 0,
		"channel": 9,
		"type": "channel",
		"subtype": "noteOff",
		"noteNumber": 40,
		"velocity": 0,
		"time": 134940,
		"track": 5
	},
	{
		"deltaTime": 0,
		"channel": 9,
		"type": "channel",
		"subtype": "noteOff",
		"noteNumber": 38,
		"velocity": 0,
		"time": 134940,
		"track": 5
	},
	{
		"deltaTime": 60,
		"channel": 9,
		"type": "channel",
		"subtype": "noteOff",
		"noteNumber": 42,
		"velocity": 0,
		"time": 134940,
		"track": 5
	},
	{
		"deltaTime": 0,
		"channel": 2,
		"type": "channel",
		"subtype": "noteOff",
		"noteNumber": 70,
		"velocity": 0,
		"time": 135000,
		"track": 4
	},
	{
		"deltaTime": 0,
		"channel": 2,
		"type": "channel",
		"subtype": "noteOff",
		"noteNumber": 66,
		"velocity": 0,
		"time": 135000,
		"track": 4
	},
	{
		"deltaTime": 0,
		"channel": 2,
		"type": "channel",
		"subtype": "noteOff",
		"noteNumber": 61,
		"velocity": 0,
		"time": 135000,
		"track": 4
	},
	{
		"deltaTime": 0,
		"channel": 2,
		"type": "channel",
		"noteNumber": 61,
		"velocity": 127,
		"subtype": "noteOn",
		"time": 135000,
		"track": 4
	},
	{
		"deltaTime": 0,
		"channel": 2,
		"type": "channel",
		"noteNumber": 66,
		"velocity": 127,
		"subtype": "noteOn",
		"time": 135000,
		"track": 4
	},
	{
		"deltaTime": 0,
		"channel": 2,
		"type": "channel",
		"noteNumber": 70,
		"velocity": 127,
		"subtype": "noteOn",
		"time": 135000,
		"track": 4
	},
	{
		"deltaTime": 60,
		"channel": 9,
		"type": "channel",
		"noteNumber": 42,
		"velocity": 127,
		"subtype": "noteOn",
		"time": 135000,
		"track": 5
	},
	{
		"deltaTime": 60,
		"channel": 9,
		"type": "channel",
		"subtype": "noteOff",
		"noteNumber": 42,
		"velocity": 0,
		"time": 135060,
		"track": 5
	},
	{
		"deltaTime": 60,
		"channel": 9,
		"type": "channel",
		"noteNumber": 42,
		"velocity": 127,
		"subtype": "noteOn",
		"time": 135120,
		"track": 5
	},
	{
		"deltaTime": 60,
		"channel": 9,
		"type": "channel",
		"subtype": "noteOff",
		"noteNumber": 42,
		"velocity": 0,
		"time": 135180,
		"track": 5
	},
	{
		"deltaTime": 0,
		"channel": 9,
		"type": "channel",
		"noteNumber": 42,
		"velocity": 127,
		"subtype": "noteOn",
		"time": 135240,
		"track": 5
	},
	{
		"deltaTime": 0,
		"channel": 9,
		"type": "channel",
		"noteNumber": 36,
		"velocity": 127,
		"subtype": "noteOn",
		"time": 135240,
		"track": 5
	},
	{
		"deltaTime": 60,
		"channel": 9,
		"type": "channel",
		"noteNumber": 35,
		"velocity": 127,
		"subtype": "noteOn",
		"time": 135240,
		"track": 5
	},
	{
		"deltaTime": 0,
		"channel": 9,
		"type": "channel",
		"subtype": "noteOff",
		"noteNumber": 35,
		"velocity": 0,
		"time": 135300,
		"track": 5
	},
	{
		"deltaTime": 0,
		"channel": 9,
		"type": "channel",
		"subtype": "noteOff",
		"noteNumber": 36,
		"velocity": 0,
		"time": 135300,
		"track": 5
	},
	{
		"deltaTime": 60,
		"channel": 9,
		"type": "channel",
		"subtype": "noteOff",
		"noteNumber": 42,
		"velocity": 0,
		"time": 135300,
		"track": 5
	},
	{
		"deltaTime": 0,
		"channel": 0,
		"type": "channel",
		"subtype": "noteOff",
		"noteNumber": 42,
		"velocity": 0,
		"time": 135360,
		"track": 2
	},
	{
		"deltaTime": 0,
		"channel": 0,
		"type": "channel",
		"noteNumber": 35,
		"velocity": 127,
		"subtype": "noteOn",
		"time": 135360,
		"track": 2
	},
	{
		"deltaTime": 0,
		"channel": 2,
		"type": "channel",
		"subtype": "noteOff",
		"noteNumber": 70,
		"velocity": 0,
		"time": 135360,
		"track": 4
	},
	{
		"deltaTime": 0,
		"channel": 2,
		"type": "channel",
		"subtype": "noteOff",
		"noteNumber": 66,
		"velocity": 0,
		"time": 135360,
		"track": 4
	},
	{
		"deltaTime": 0,
		"channel": 2,
		"type": "channel",
		"subtype": "noteOff",
		"noteNumber": 61,
		"velocity": 0,
		"time": 135360,
		"track": 4
	},
	{
		"deltaTime": 0,
		"channel": 2,
		"type": "channel",
		"noteNumber": 47,
		"velocity": 127,
		"subtype": "noteOn",
		"time": 135360,
		"track": 4
	},
	{
		"deltaTime": 60,
		"channel": 9,
		"type": "channel",
		"noteNumber": 42,
		"velocity": 127,
		"subtype": "noteOn",
		"time": 135360,
		"track": 5
	},
	{
		"deltaTime": 60,
		"channel": 9,
		"type": "channel",
		"subtype": "noteOff",
		"noteNumber": 42,
		"velocity": 0,
		"time": 135420,
		"track": 5
	},
	{
		"deltaTime": 60,
		"channel": 9,
		"type": "channel",
		"noteNumber": 42,
		"velocity": 127,
		"subtype": "noteOn",
		"time": 135480,
		"track": 5
	},
	{
		"deltaTime": 60,
		"channel": 9,
		"type": "channel",
		"subtype": "noteOff",
		"noteNumber": 42,
		"velocity": 0,
		"time": 135540,
		"track": 5
	},
	{
		"deltaTime": 0,
		"channel": 9,
		"type": "channel",
		"noteNumber": 42,
		"velocity": 127,
		"subtype": "noteOn",
		"time": 135600,
		"track": 5
	},
	{
		"deltaTime": 0,
		"channel": 9,
		"type": "channel",
		"noteNumber": 36,
		"velocity": 127,
		"subtype": "noteOn",
		"time": 135600,
		"track": 5
	},
	{
		"deltaTime": 60,
		"channel": 9,
		"type": "channel",
		"noteNumber": 35,
		"velocity": 127,
		"subtype": "noteOn",
		"time": 135600,
		"track": 5
	},
	{
		"deltaTime": 0,
		"channel": 9,
		"type": "channel",
		"subtype": "noteOff",
		"noteNumber": 35,
		"velocity": 0,
		"time": 135660,
		"track": 5
	},
	{
		"deltaTime": 0,
		"channel": 9,
		"type": "channel",
		"subtype": "noteOff",
		"noteNumber": 36,
		"velocity": 0,
		"time": 135660,
		"track": 5
	},
	{
		"deltaTime": 60,
		"channel": 9,
		"type": "channel",
		"subtype": "noteOff",
		"noteNumber": 42,
		"velocity": 0,
		"time": 135660,
		"track": 5
	},
	{
		"deltaTime": 0,
		"channel": 2,
		"type": "channel",
		"subtype": "noteOff",
		"noteNumber": 47,
		"velocity": 0,
		"time": 135720,
		"track": 4
	},
	{
		"deltaTime": 0,
		"channel": 2,
		"type": "channel",
		"noteNumber": 61,
		"velocity": 127,
		"subtype": "noteOn",
		"time": 135720,
		"track": 4
	},
	{
		"deltaTime": 0,
		"channel": 2,
		"type": "channel",
		"noteNumber": 66,
		"velocity": 127,
		"subtype": "noteOn",
		"time": 135720,
		"track": 4
	},
	{
		"deltaTime": 0,
		"channel": 2,
		"type": "channel",
		"noteNumber": 70,
		"velocity": 127,
		"subtype": "noteOn",
		"time": 135720,
		"track": 4
	},
	{
		"deltaTime": 60,
		"channel": 9,
		"type": "channel",
		"noteNumber": 42,
		"velocity": 127,
		"subtype": "noteOn",
		"time": 135720,
		"track": 5
	},
	{
		"deltaTime": 60,
		"channel": 9,
		"type": "channel",
		"subtype": "noteOff",
		"noteNumber": 42,
		"velocity": 0,
		"time": 135780,
		"track": 5
	},
	{
		"deltaTime": 0,
		"channel": 0,
		"type": "channel",
		"subtype": "noteOff",
		"noteNumber": 35,
		"velocity": 0,
		"time": 135840,
		"track": 2
	},
	{
		"deltaTime": 0,
		"channel": 0,
		"type": "channel",
		"noteNumber": 34,
		"velocity": 127,
		"subtype": "noteOn",
		"time": 135840,
		"track": 2
	},
	{
		"deltaTime": 0,
		"channel": 9,
		"type": "channel",
		"noteNumber": 42,
		"velocity": 127,
		"subtype": "noteOn",
		"time": 135840,
		"track": 5
	},
	{
		"deltaTime": 0,
		"channel": 9,
		"type": "channel",
		"noteNumber": 40,
		"velocity": 127,
		"subtype": "noteOn",
		"time": 135840,
		"track": 5
	},
	{
		"deltaTime": 60,
		"channel": 9,
		"type": "channel",
		"noteNumber": 38,
		"velocity": 127,
		"subtype": "noteOn",
		"time": 135840,
		"track": 5
	},
	{
		"deltaTime": 0,
		"channel": 9,
		"type": "channel",
		"subtype": "noteOff",
		"noteNumber": 38,
		"velocity": 0,
		"time": 135900,
		"track": 5
	},
	{
		"deltaTime": 0,
		"channel": 9,
		"type": "channel",
		"subtype": "noteOff",
		"noteNumber": 40,
		"velocity": 0,
		"time": 135900,
		"track": 5
	},
	{
		"deltaTime": 60,
		"channel": 9,
		"type": "channel",
		"subtype": "noteOff",
		"noteNumber": 42,
		"velocity": 0,
		"time": 135900,
		"track": 5
	},
	{
		"deltaTime": 0,
		"channel": 2,
		"type": "channel",
		"subtype": "noteOff",
		"noteNumber": 70,
		"velocity": 0,
		"time": 135960,
		"track": 4
	},
	{
		"deltaTime": 0,
		"channel": 2,
		"type": "channel",
		"subtype": "noteOff",
		"noteNumber": 66,
		"velocity": 0,
		"time": 135960,
		"track": 4
	},
	{
		"deltaTime": 0,
		"channel": 2,
		"type": "channel",
		"subtype": "noteOff",
		"noteNumber": 61,
		"velocity": 0,
		"time": 135960,
		"track": 4
	},
	{
		"deltaTime": 0,
		"channel": 2,
		"type": "channel",
		"noteNumber": 61,
		"velocity": 127,
		"subtype": "noteOn",
		"time": 135960,
		"track": 4
	},
	{
		"deltaTime": 0,
		"channel": 2,
		"type": "channel",
		"noteNumber": 66,
		"velocity": 127,
		"subtype": "noteOn",
		"time": 135960,
		"track": 4
	},
	{
		"deltaTime": 0,
		"channel": 2,
		"type": "channel",
		"noteNumber": 71,
		"velocity": 127,
		"subtype": "noteOn",
		"time": 135960,
		"track": 4
	},
	{
		"deltaTime": 60,
		"channel": 9,
		"type": "channel",
		"noteNumber": 42,
		"velocity": 127,
		"subtype": "noteOn",
		"time": 135960,
		"track": 5
	},
	{
		"deltaTime": 60,
		"channel": 9,
		"type": "channel",
		"subtype": "noteOff",
		"noteNumber": 42,
		"velocity": 0,
		"time": 136020,
		"track": 5
	},
	{
		"deltaTime": 60,
		"channel": 9,
		"type": "channel",
		"noteNumber": 42,
		"velocity": 127,
		"subtype": "noteOn",
		"time": 136080,
		"track": 5
	},
	{
		"deltaTime": 60,
		"channel": 9,
		"type": "channel",
		"subtype": "noteOff",
		"noteNumber": 42,
		"velocity": 0,
		"time": 136140,
		"track": 5
	},
	{
		"deltaTime": 60,
		"channel": 9,
		"type": "channel",
		"noteNumber": 42,
		"velocity": 127,
		"subtype": "noteOn",
		"time": 136200,
		"track": 5
	},
	{
		"deltaTime": 60,
		"channel": 9,
		"type": "channel",
		"subtype": "noteOff",
		"noteNumber": 42,
		"velocity": 0,
		"time": 136260,
		"track": 5
	},
	{
		"deltaTime": 0,
		"channel": 0,
		"type": "channel",
		"subtype": "noteOff",
		"noteNumber": 34,
		"velocity": 0,
		"time": 136320,
		"track": 2
	},
	{
		"deltaTime": 0,
		"channel": 0,
		"type": "channel",
		"noteNumber": 32,
		"velocity": 127,
		"subtype": "noteOn",
		"time": 136320,
		"track": 2
	},
	{
		"deltaTime": 0,
		"channel": 2,
		"type": "channel",
		"subtype": "noteOff",
		"noteNumber": 71,
		"velocity": 0,
		"time": 136320,
		"track": 4
	},
	{
		"deltaTime": 0,
		"channel": 2,
		"type": "channel",
		"subtype": "noteOff",
		"noteNumber": 66,
		"velocity": 0,
		"time": 136320,
		"track": 4
	},
	{
		"deltaTime": 0,
		"channel": 2,
		"type": "channel",
		"subtype": "noteOff",
		"noteNumber": 61,
		"velocity": 0,
		"time": 136320,
		"track": 4
	},
	{
		"deltaTime": 0,
		"channel": 2,
		"type": "channel",
		"noteNumber": 44,
		"velocity": 127,
		"subtype": "noteOn",
		"time": 136320,
		"track": 4
	},
	{
		"deltaTime": 0,
		"channel": 9,
		"type": "channel",
		"noteNumber": 42,
		"velocity": 127,
		"subtype": "noteOn",
		"time": 136320,
		"track": 5
	},
	{
		"deltaTime": 0,
		"channel": 9,
		"type": "channel",
		"noteNumber": 35,
		"velocity": 127,
		"subtype": "noteOn",
		"time": 136320,
		"track": 5
	},
	{
		"deltaTime": 60,
		"channel": 9,
		"type": "channel",
		"noteNumber": 36,
		"velocity": 127,
		"subtype": "noteOn",
		"time": 136320,
		"track": 5
	},
	{
		"deltaTime": 0,
		"channel": 9,
		"type": "channel",
		"subtype": "noteOff",
		"noteNumber": 36,
		"velocity": 0,
		"time": 136380,
		"track": 5
	},
	{
		"deltaTime": 0,
		"channel": 9,
		"type": "channel",
		"subtype": "noteOff",
		"noteNumber": 35,
		"velocity": 0,
		"time": 136380,
		"track": 5
	},
	{
		"deltaTime": 60,
		"channel": 9,
		"type": "channel",
		"subtype": "noteOff",
		"noteNumber": 42,
		"velocity": 0,
		"time": 136380,
		"track": 5
	},
	{
		"deltaTime": 60,
		"channel": 9,
		"type": "channel",
		"noteNumber": 42,
		"velocity": 127,
		"subtype": "noteOn",
		"time": 136440,
		"track": 5
	},
	{
		"deltaTime": 60,
		"channel": 9,
		"type": "channel",
		"subtype": "noteOff",
		"noteNumber": 42,
		"velocity": 0,
		"time": 136500,
		"track": 5
	},
	{
		"deltaTime": 0,
		"channel": 9,
		"type": "channel",
		"noteNumber": 42,
		"velocity": 127,
		"subtype": "noteOn",
		"time": 136560,
		"track": 5
	},
	{
		"deltaTime": 0,
		"channel": 9,
		"type": "channel",
		"noteNumber": 36,
		"velocity": 127,
		"subtype": "noteOn",
		"time": 136560,
		"track": 5
	},
	{
		"deltaTime": 60,
		"channel": 9,
		"type": "channel",
		"noteNumber": 35,
		"velocity": 127,
		"subtype": "noteOn",
		"time": 136560,
		"track": 5
	},
	{
		"deltaTime": 0,
		"channel": 9,
		"type": "channel",
		"subtype": "noteOff",
		"noteNumber": 35,
		"velocity": 0,
		"time": 136620,
		"track": 5
	},
	{
		"deltaTime": 0,
		"channel": 9,
		"type": "channel",
		"subtype": "noteOff",
		"noteNumber": 36,
		"velocity": 0,
		"time": 136620,
		"track": 5
	},
	{
		"deltaTime": 60,
		"channel": 9,
		"type": "channel",
		"subtype": "noteOff",
		"noteNumber": 42,
		"velocity": 0,
		"time": 136620,
		"track": 5
	},
	{
		"deltaTime": 0,
		"channel": 2,
		"type": "channel",
		"subtype": "noteOff",
		"noteNumber": 44,
		"velocity": 0,
		"time": 136680,
		"track": 4
	},
	{
		"deltaTime": 0,
		"channel": 2,
		"type": "channel",
		"noteNumber": 59,
		"velocity": 127,
		"subtype": "noteOn",
		"time": 136680,
		"track": 4
	},
	{
		"deltaTime": 0,
		"channel": 2,
		"type": "channel",
		"noteNumber": 63,
		"velocity": 127,
		"subtype": "noteOn",
		"time": 136680,
		"track": 4
	},
	{
		"deltaTime": 0,
		"channel": 2,
		"type": "channel",
		"noteNumber": 68,
		"velocity": 127,
		"subtype": "noteOn",
		"time": 136680,
		"track": 4
	},
	{
		"deltaTime": 60,
		"channel": 9,
		"type": "channel",
		"noteNumber": 42,
		"velocity": 127,
		"subtype": "noteOn",
		"time": 136680,
		"track": 5
	},
	{
		"deltaTime": 60,
		"channel": 9,
		"type": "channel",
		"subtype": "noteOff",
		"noteNumber": 42,
		"velocity": 0,
		"time": 136740,
		"track": 5
	},
	{
		"deltaTime": 0,
		"channel": 9,
		"type": "channel",
		"noteNumber": 42,
		"velocity": 127,
		"subtype": "noteOn",
		"time": 136800,
		"track": 5
	},
	{
		"deltaTime": 0,
		"channel": 9,
		"type": "channel",
		"noteNumber": 38,
		"velocity": 127,
		"subtype": "noteOn",
		"time": 136800,
		"track": 5
	},
	{
		"deltaTime": 60,
		"channel": 9,
		"type": "channel",
		"noteNumber": 40,
		"velocity": 127,
		"subtype": "noteOn",
		"time": 136800,
		"track": 5
	},
	{
		"deltaTime": 0,
		"channel": 9,
		"type": "channel",
		"subtype": "noteOff",
		"noteNumber": 40,
		"velocity": 0,
		"time": 136860,
		"track": 5
	},
	{
		"deltaTime": 0,
		"channel": 9,
		"type": "channel",
		"subtype": "noteOff",
		"noteNumber": 38,
		"velocity": 0,
		"time": 136860,
		"track": 5
	},
	{
		"deltaTime": 60,
		"channel": 9,
		"type": "channel",
		"subtype": "noteOff",
		"noteNumber": 42,
		"velocity": 0,
		"time": 136860,
		"track": 5
	},
	{
		"deltaTime": 0,
		"channel": 2,
		"type": "channel",
		"subtype": "noteOff",
		"noteNumber": 68,
		"velocity": 0,
		"time": 136920,
		"track": 4
	},
	{
		"deltaTime": 0,
		"channel": 2,
		"type": "channel",
		"subtype": "noteOff",
		"noteNumber": 63,
		"velocity": 0,
		"time": 136920,
		"track": 4
	},
	{
		"deltaTime": 0,
		"channel": 2,
		"type": "channel",
		"subtype": "noteOff",
		"noteNumber": 59,
		"velocity": 0,
		"time": 136920,
		"track": 4
	},
	{
		"deltaTime": 0,
		"channel": 2,
		"type": "channel",
		"noteNumber": 59,
		"velocity": 127,
		"subtype": "noteOn",
		"time": 136920,
		"track": 4
	},
	{
		"deltaTime": 0,
		"channel": 2,
		"type": "channel",
		"noteNumber": 63,
		"velocity": 127,
		"subtype": "noteOn",
		"time": 136920,
		"track": 4
	},
	{
		"deltaTime": 0,
		"channel": 2,
		"type": "channel",
		"noteNumber": 68,
		"velocity": 127,
		"subtype": "noteOn",
		"time": 136920,
		"track": 4
	},
	{
		"deltaTime": 60,
		"channel": 9,
		"type": "channel",
		"noteNumber": 42,
		"velocity": 127,
		"subtype": "noteOn",
		"time": 136920,
		"track": 5
	},
	{
		"deltaTime": 60,
		"channel": 9,
		"type": "channel",
		"subtype": "noteOff",
		"noteNumber": 42,
		"velocity": 0,
		"time": 136980,
		"track": 5
	},
	{
		"deltaTime": 0,
		"channel": 0,
		"type": "channel",
		"subtype": "noteOff",
		"noteNumber": 32,
		"velocity": 0,
		"time": 137040,
		"track": 2
	},
	{
		"deltaTime": 0,
		"channel": 0,
		"type": "channel",
		"noteNumber": 32,
		"velocity": 127,
		"subtype": "noteOn",
		"time": 137040,
		"track": 2
	},
	{
		"deltaTime": 60,
		"channel": 9,
		"type": "channel",
		"noteNumber": 42,
		"velocity": 127,
		"subtype": "noteOn",
		"time": 137040,
		"track": 5
	},
	{
		"deltaTime": 60,
		"channel": 9,
		"type": "channel",
		"subtype": "noteOff",
		"noteNumber": 42,
		"velocity": 0,
		"time": 137100,
		"track": 5
	},
	{
		"deltaTime": 0,
		"channel": 9,
		"type": "channel",
		"noteNumber": 42,
		"velocity": 127,
		"subtype": "noteOn",
		"time": 137160,
		"track": 5
	},
	{
		"deltaTime": 0,
		"channel": 9,
		"type": "channel",
		"noteNumber": 36,
		"velocity": 127,
		"subtype": "noteOn",
		"time": 137160,
		"track": 5
	},
	{
		"deltaTime": 60,
		"channel": 9,
		"type": "channel",
		"noteNumber": 35,
		"velocity": 127,
		"subtype": "noteOn",
		"time": 137160,
		"track": 5
	},
	{
		"deltaTime": 0,
		"channel": 9,
		"type": "channel",
		"subtype": "noteOff",
		"noteNumber": 35,
		"velocity": 0,
		"time": 137220,
		"track": 5
	},
	{
		"deltaTime": 0,
		"channel": 9,
		"type": "channel",
		"subtype": "noteOff",
		"noteNumber": 36,
		"velocity": 0,
		"time": 137220,
		"track": 5
	},
	{
		"deltaTime": 60,
		"channel": 9,
		"type": "channel",
		"subtype": "noteOff",
		"noteNumber": 42,
		"velocity": 0,
		"time": 137220,
		"track": 5
	},
	{
		"deltaTime": 0,
		"channel": 0,
		"type": "channel",
		"subtype": "noteOff",
		"noteNumber": 32,
		"velocity": 0,
		"time": 137280,
		"track": 2
	},
	{
		"deltaTime": 0,
		"channel": 0,
		"type": "channel",
		"noteNumber": 40,
		"velocity": 127,
		"subtype": "noteOn",
		"time": 137280,
		"track": 2
	},
	{
		"deltaTime": 0,
		"channel": 2,
		"type": "channel",
		"subtype": "noteOff",
		"noteNumber": 68,
		"velocity": 0,
		"time": 137280,
		"track": 4
	},
	{
		"deltaTime": 0,
		"channel": 2,
		"type": "channel",
		"subtype": "noteOff",
		"noteNumber": 63,
		"velocity": 0,
		"time": 137280,
		"track": 4
	},
	{
		"deltaTime": 0,
		"channel": 2,
		"type": "channel",
		"subtype": "noteOff",
		"noteNumber": 59,
		"velocity": 0,
		"time": 137280,
		"track": 4
	},
	{
		"deltaTime": 0,
		"channel": 2,
		"type": "channel",
		"noteNumber": 40,
		"velocity": 127,
		"subtype": "noteOn",
		"time": 137280,
		"track": 4
	},
	{
		"deltaTime": 60,
		"channel": 9,
		"type": "channel",
		"noteNumber": 42,
		"velocity": 127,
		"subtype": "noteOn",
		"time": 137280,
		"track": 5
	},
	{
		"deltaTime": 60,
		"channel": 9,
		"type": "channel",
		"subtype": "noteOff",
		"noteNumber": 42,
		"velocity": 0,
		"time": 137340,
		"track": 5
	},
	{
		"deltaTime": 60,
		"channel": 9,
		"type": "channel",
		"noteNumber": 42,
		"velocity": 127,
		"subtype": "noteOn",
		"time": 137400,
		"track": 5
	},
	{
		"deltaTime": 60,
		"channel": 9,
		"type": "channel",
		"subtype": "noteOff",
		"noteNumber": 42,
		"velocity": 0,
		"time": 137460,
		"track": 5
	},
	{
		"deltaTime": 0,
		"channel": 9,
		"type": "channel",
		"noteNumber": 42,
		"velocity": 127,
		"subtype": "noteOn",
		"time": 137520,
		"track": 5
	},
	{
		"deltaTime": 0,
		"channel": 9,
		"type": "channel",
		"noteNumber": 36,
		"velocity": 127,
		"subtype": "noteOn",
		"time": 137520,
		"track": 5
	},
	{
		"deltaTime": 60,
		"channel": 9,
		"type": "channel",
		"noteNumber": 35,
		"velocity": 127,
		"subtype": "noteOn",
		"time": 137520,
		"track": 5
	},
	{
		"deltaTime": 0,
		"channel": 9,
		"type": "channel",
		"subtype": "noteOff",
		"noteNumber": 35,
		"velocity": 0,
		"time": 137580,
		"track": 5
	},
	{
		"deltaTime": 0,
		"channel": 9,
		"type": "channel",
		"subtype": "noteOff",
		"noteNumber": 36,
		"velocity": 0,
		"time": 137580,
		"track": 5
	},
	{
		"deltaTime": 60,
		"channel": 9,
		"type": "channel",
		"subtype": "noteOff",
		"noteNumber": 42,
		"velocity": 0,
		"time": 137580,
		"track": 5
	},
	{
		"deltaTime": 0,
		"channel": 2,
		"type": "channel",
		"subtype": "noteOff",
		"noteNumber": 40,
		"velocity": 0,
		"time": 137640,
		"track": 4
	},
	{
		"deltaTime": 0,
		"channel": 2,
		"type": "channel",
		"noteNumber": 59,
		"velocity": 127,
		"subtype": "noteOn",
		"time": 137640,
		"track": 4
	},
	{
		"deltaTime": 0,
		"channel": 2,
		"type": "channel",
		"noteNumber": 63,
		"velocity": 127,
		"subtype": "noteOn",
		"time": 137640,
		"track": 4
	},
	{
		"deltaTime": 0,
		"channel": 2,
		"type": "channel",
		"noteNumber": 68,
		"velocity": 127,
		"subtype": "noteOn",
		"time": 137640,
		"track": 4
	},
	{
		"deltaTime": 60,
		"channel": 9,
		"type": "channel",
		"noteNumber": 42,
		"velocity": 127,
		"subtype": "noteOn",
		"time": 137640,
		"track": 5
	},
	{
		"deltaTime": 60,
		"channel": 9,
		"type": "channel",
		"subtype": "noteOff",
		"noteNumber": 42,
		"velocity": 0,
		"time": 137700,
		"track": 5
	},
	{
		"deltaTime": 0,
		"channel": 9,
		"type": "channel",
		"noteNumber": 42,
		"velocity": 127,
		"subtype": "noteOn",
		"time": 137760,
		"track": 5
	},
	{
		"deltaTime": 0,
		"channel": 9,
		"type": "channel",
		"noteNumber": 40,
		"velocity": 127,
		"subtype": "noteOn",
		"time": 137760,
		"track": 5
	},
	{
		"deltaTime": 60,
		"channel": 9,
		"type": "channel",
		"noteNumber": 38,
		"velocity": 127,
		"subtype": "noteOn",
		"time": 137760,
		"track": 5
	},
	{
		"deltaTime": 0,
		"channel": 9,
		"type": "channel",
		"subtype": "noteOff",
		"noteNumber": 38,
		"velocity": 0,
		"time": 137820,
		"track": 5
	},
	{
		"deltaTime": 0,
		"channel": 9,
		"type": "channel",
		"subtype": "noteOff",
		"noteNumber": 40,
		"velocity": 0,
		"time": 137820,
		"track": 5
	},
	{
		"deltaTime": 60,
		"channel": 9,
		"type": "channel",
		"subtype": "noteOff",
		"noteNumber": 42,
		"velocity": 0,
		"time": 137820,
		"track": 5
	},
	{
		"deltaTime": 0,
		"channel": 2,
		"type": "channel",
		"subtype": "noteOff",
		"noteNumber": 68,
		"velocity": 0,
		"time": 137880,
		"track": 4
	},
	{
		"deltaTime": 0,
		"channel": 2,
		"type": "channel",
		"subtype": "noteOff",
		"noteNumber": 63,
		"velocity": 0,
		"time": 137880,
		"track": 4
	},
	{
		"deltaTime": 0,
		"channel": 2,
		"type": "channel",
		"subtype": "noteOff",
		"noteNumber": 59,
		"velocity": 0,
		"time": 137880,
		"track": 4
	},
	{
		"deltaTime": 0,
		"channel": 2,
		"type": "channel",
		"noteNumber": 59,
		"velocity": 127,
		"subtype": "noteOn",
		"time": 137880,
		"track": 4
	},
	{
		"deltaTime": 0,
		"channel": 2,
		"type": "channel",
		"noteNumber": 63,
		"velocity": 127,
		"subtype": "noteOn",
		"time": 137880,
		"track": 4
	},
	{
		"deltaTime": 0,
		"channel": 2,
		"type": "channel",
		"noteNumber": 68,
		"velocity": 127,
		"subtype": "noteOn",
		"time": 137880,
		"track": 4
	},
	{
		"deltaTime": 60,
		"channel": 9,
		"type": "channel",
		"noteNumber": 42,
		"velocity": 127,
		"subtype": "noteOn",
		"time": 137880,
		"track": 5
	},
	{
		"deltaTime": 60,
		"channel": 9,
		"type": "channel",
		"subtype": "noteOff",
		"noteNumber": 42,
		"velocity": 0,
		"time": 137940,
		"track": 5
	},
	{
		"deltaTime": 0,
		"channel": 0,
		"type": "channel",
		"subtype": "noteOff",
		"noteNumber": 40,
		"velocity": 0,
		"time": 138000,
		"track": 2
	},
	{
		"deltaTime": 0,
		"channel": 0,
		"type": "channel",
		"noteNumber": 40,
		"velocity": 127,
		"subtype": "noteOn",
		"time": 138000,
		"track": 2
	},
	{
		"deltaTime": 60,
		"channel": 9,
		"type": "channel",
		"noteNumber": 42,
		"velocity": 127,
		"subtype": "noteOn",
		"time": 138000,
		"track": 5
	},
	{
		"deltaTime": 60,
		"channel": 9,
		"type": "channel",
		"subtype": "noteOff",
		"noteNumber": 42,
		"velocity": 0,
		"time": 138060,
		"track": 5
	},
	{
		"deltaTime": 60,
		"channel": 9,
		"type": "channel",
		"noteNumber": 42,
		"velocity": 127,
		"subtype": "noteOn",
		"time": 138120,
		"track": 5
	},
	{
		"deltaTime": 60,
		"channel": 9,
		"type": "channel",
		"subtype": "noteOff",
		"noteNumber": 42,
		"velocity": 0,
		"time": 138180,
		"track": 5
	},
	{
		"deltaTime": 0,
		"channel": 0,
		"type": "channel",
		"subtype": "noteOff",
		"noteNumber": 40,
		"velocity": 0,
		"time": 138240,
		"track": 2
	},
	{
		"deltaTime": 0,
		"channel": 0,
		"type": "channel",
		"noteNumber": 41,
		"velocity": 127,
		"subtype": "noteOn",
		"time": 138240,
		"track": 2
	},
	{
		"deltaTime": 0,
		"channel": 2,
		"type": "channel",
		"subtype": "noteOff",
		"noteNumber": 68,
		"velocity": 0,
		"time": 138240,
		"track": 4
	},
	{
		"deltaTime": 0,
		"channel": 2,
		"type": "channel",
		"subtype": "noteOff",
		"noteNumber": 63,
		"velocity": 0,
		"time": 138240,
		"track": 4
	},
	{
		"deltaTime": 0,
		"channel": 2,
		"type": "channel",
		"subtype": "noteOff",
		"noteNumber": 59,
		"velocity": 0,
		"time": 138240,
		"track": 4
	},
	{
		"deltaTime": 0,
		"channel": 2,
		"type": "channel",
		"noteNumber": 41,
		"velocity": 127,
		"subtype": "noteOn",
		"time": 138240,
		"track": 4
	},
	{
		"deltaTime": 0,
		"channel": 9,
		"type": "channel",
		"noteNumber": 35,
		"velocity": 127,
		"subtype": "noteOn",
		"time": 138240,
		"track": 5
	},
	{
		"deltaTime": 60,
		"channel": 9,
		"type": "channel",
		"noteNumber": 36,
		"velocity": 127,
		"subtype": "noteOn",
		"time": 138240,
		"track": 5
	},
	{
		"deltaTime": 0,
		"channel": 9,
		"type": "channel",
		"subtype": "noteOff",
		"noteNumber": 36,
		"velocity": 0,
		"time": 138300,
		"track": 5
	},
	{
		"deltaTime": 180,
		"channel": 9,
		"type": "channel",
		"subtype": "noteOff",
		"noteNumber": 35,
		"velocity": 0,
		"time": 138300,
		"track": 5
	},
	{
		"deltaTime": 0,
		"channel": 9,
		"type": "channel",
		"noteNumber": 35,
		"velocity": 127,
		"subtype": "noteOn",
		"time": 138480,
		"track": 5
	},
	{
		"deltaTime": 60,
		"channel": 9,
		"type": "channel",
		"noteNumber": 36,
		"velocity": 127,
		"subtype": "noteOn",
		"time": 138480,
		"track": 5
	},
	{
		"deltaTime": 0,
		"channel": 9,
		"type": "channel",
		"subtype": "noteOff",
		"noteNumber": 36,
		"velocity": 0,
		"time": 138540,
		"track": 5
	},
	{
		"deltaTime": 60,
		"channel": 9,
		"type": "channel",
		"subtype": "noteOff",
		"noteNumber": 35,
		"velocity": 0,
		"time": 138540,
		"track": 5
	},
	{
		"deltaTime": 0,
		"channel": 2,
		"type": "channel",
		"subtype": "noteOff",
		"noteNumber": 41,
		"velocity": 0,
		"time": 138600,
		"track": 4
	},
	{
		"deltaTime": 0,
		"channel": 2,
		"type": "channel",
		"noteNumber": 59,
		"velocity": 127,
		"subtype": "noteOn",
		"time": 138600,
		"track": 4
	},
	{
		"deltaTime": 0,
		"channel": 2,
		"type": "channel",
		"noteNumber": 63,
		"velocity": 127,
		"subtype": "noteOn",
		"time": 138600,
		"track": 4
	},
	{
		"deltaTime": 120,
		"channel": 2,
		"type": "channel",
		"noteNumber": 68,
		"velocity": 127,
		"subtype": "noteOn",
		"time": 138600,
		"track": 4
	},
	{
		"deltaTime": 60,
		"channel": 9,
		"type": "channel",
		"noteNumber": 39,
		"velocity": 127,
		"subtype": "noteOn",
		"time": 138720,
		"track": 5
	},
	{
		"deltaTime": 60,
		"channel": 9,
		"type": "channel",
		"subtype": "noteOff",
		"noteNumber": 39,
		"velocity": 0,
		"time": 138780,
		"track": 5
	},
	{
		"deltaTime": 0,
		"channel": 2,
		"type": "channel",
		"subtype": "noteOff",
		"noteNumber": 68,
		"velocity": 0,
		"time": 138840,
		"track": 4
	},
	{
		"deltaTime": 0,
		"channel": 2,
		"type": "channel",
		"subtype": "noteOff",
		"noteNumber": 63,
		"velocity": 0,
		"time": 138840,
		"track": 4
	},
	{
		"deltaTime": 0,
		"channel": 2,
		"type": "channel",
		"subtype": "noteOff",
		"noteNumber": 59,
		"velocity": 0,
		"time": 138840,
		"track": 4
	},
	{
		"deltaTime": 0,
		"channel": 2,
		"type": "channel",
		"noteNumber": 59,
		"velocity": 127,
		"subtype": "noteOn",
		"time": 138840,
		"track": 4
	},
	{
		"deltaTime": 0,
		"channel": 2,
		"type": "channel",
		"noteNumber": 63,
		"velocity": 127,
		"subtype": "noteOn",
		"time": 138840,
		"track": 4
	},
	{
		"deltaTime": 120,
		"channel": 2,
		"type": "channel",
		"noteNumber": 68,
		"velocity": 127,
		"subtype": "noteOn",
		"time": 138840,
		"track": 4
	},
	{
		"deltaTime": 0,
		"channel": 0,
		"type": "channel",
		"subtype": "noteOff",
		"noteNumber": 41,
		"velocity": 0,
		"time": 138960,
		"track": 2
	},
	{
		"deltaTime": 120,
		"channel": 0,
		"type": "channel",
		"noteNumber": 41,
		"velocity": 127,
		"subtype": "noteOn",
		"time": 138960,
		"track": 2
	},
	{
		"deltaTime": 0,
		"channel": 9,
		"type": "channel",
		"noteNumber": 35,
		"velocity": 127,
		"subtype": "noteOn",
		"time": 139080,
		"track": 5
	},
	{
		"deltaTime": 60,
		"channel": 9,
		"type": "channel",
		"noteNumber": 36,
		"velocity": 127,
		"subtype": "noteOn",
		"time": 139080,
		"track": 5
	},
	{
		"deltaTime": 0,
		"channel": 9,
		"type": "channel",
		"subtype": "noteOff",
		"noteNumber": 36,
		"velocity": 0,
		"time": 139140,
		"track": 5
	},
	{
		"deltaTime": 60,
		"channel": 9,
		"type": "channel",
		"subtype": "noteOff",
		"noteNumber": 35,
		"velocity": 0,
		"time": 139140,
		"track": 5
	},
	{
		"deltaTime": 0,
		"channel": 0,
		"type": "channel",
		"subtype": "noteOff",
		"noteNumber": 41,
		"velocity": 0,
		"time": 139200,
		"track": 2
	},
	{
		"deltaTime": 0,
		"channel": 0,
		"type": "channel",
		"noteNumber": 40,
		"velocity": 127,
		"subtype": "noteOn",
		"time": 139200,
		"track": 2
	},
	{
		"deltaTime": 0,
		"channel": 2,
		"type": "channel",
		"subtype": "noteOff",
		"noteNumber": 68,
		"velocity": 0,
		"time": 139200,
		"track": 4
	},
	{
		"deltaTime": 0,
		"channel": 2,
		"type": "channel",
		"subtype": "noteOff",
		"noteNumber": 63,
		"velocity": 0,
		"time": 139200,
		"track": 4
	},
	{
		"deltaTime": 0,
		"channel": 2,
		"type": "channel",
		"subtype": "noteOff",
		"noteNumber": 59,
		"velocity": 0,
		"time": 139200,
		"track": 4
	},
	{
		"deltaTime": 240,
		"channel": 2,
		"type": "channel",
		"noteNumber": 40,
		"velocity": 127,
		"subtype": "noteOn",
		"time": 139200,
		"track": 4
	},
	{
		"deltaTime": 0,
		"channel": 9,
		"type": "channel",
		"noteNumber": 35,
		"velocity": 127,
		"subtype": "noteOn",
		"time": 139440,
		"track": 5
	},
	{
		"deltaTime": 60,
		"channel": 9,
		"type": "channel",
		"noteNumber": 36,
		"velocity": 127,
		"subtype": "noteOn",
		"time": 139440,
		"track": 5
	},
	{
		"deltaTime": 0,
		"channel": 9,
		"type": "channel",
		"subtype": "noteOff",
		"noteNumber": 36,
		"velocity": 0,
		"time": 139500,
		"track": 5
	},
	{
		"deltaTime": 60,
		"channel": 9,
		"type": "channel",
		"subtype": "noteOff",
		"noteNumber": 35,
		"velocity": 0,
		"time": 139500,
		"track": 5
	},
	{
		"deltaTime": 0,
		"channel": 2,
		"type": "channel",
		"subtype": "noteOff",
		"noteNumber": 40,
		"velocity": 0,
		"time": 139560,
		"track": 4
	},
	{
		"deltaTime": 0,
		"channel": 2,
		"type": "channel",
		"noteNumber": 59,
		"velocity": 127,
		"subtype": "noteOn",
		"time": 139560,
		"track": 4
	},
	{
		"deltaTime": 0,
		"channel": 2,
		"type": "channel",
		"noteNumber": 63,
		"velocity": 127,
		"subtype": "noteOn",
		"time": 139560,
		"track": 4
	},
	{
		"deltaTime": 120,
		"channel": 2,
		"type": "channel",
		"noteNumber": 68,
		"velocity": 127,
		"subtype": "noteOn",
		"time": 139560,
		"track": 4
	},
	{
		"deltaTime": 0,
		"channel": 0,
		"type": "channel",
		"subtype": "noteOff",
		"noteNumber": 40,
		"velocity": 0,
		"time": 139680,
		"track": 2
	},
	{
		"deltaTime": 0,
		"channel": 0,
		"type": "channel",
		"noteNumber": 35,
		"velocity": 127,
		"subtype": "noteOn",
		"time": 139680,
		"track": 2
	},
	{
		"deltaTime": 0,
		"channel": 9,
		"type": "channel",
		"noteNumber": 38,
		"velocity": 127,
		"subtype": "noteOn",
		"time": 139680,
		"track": 5
	},
	{
		"deltaTime": 60,
		"channel": 9,
		"type": "channel",
		"noteNumber": 40,
		"velocity": 127,
		"subtype": "noteOn",
		"time": 139680,
		"track": 5
	},
	{
		"deltaTime": 0,
		"channel": 9,
		"type": "channel",
		"subtype": "noteOff",
		"noteNumber": 40,
		"velocity": 0,
		"time": 139740,
		"track": 5
	},
	{
		"deltaTime": 60,
		"channel": 9,
		"type": "channel",
		"subtype": "noteOff",
		"noteNumber": 38,
		"velocity": 0,
		"time": 139740,
		"track": 5
	},
	{
		"deltaTime": 0,
		"channel": 2,
		"type": "channel",
		"subtype": "noteOff",
		"noteNumber": 68,
		"velocity": 0,
		"time": 139800,
		"track": 4
	},
	{
		"deltaTime": 0,
		"channel": 2,
		"type": "channel",
		"subtype": "noteOff",
		"noteNumber": 63,
		"velocity": 0,
		"time": 139800,
		"track": 4
	},
	{
		"deltaTime": 0,
		"channel": 2,
		"type": "channel",
		"subtype": "noteOff",
		"noteNumber": 59,
		"velocity": 0,
		"time": 139800,
		"track": 4
	},
	{
		"deltaTime": 0,
		"channel": 2,
		"type": "channel",
		"noteNumber": 59,
		"velocity": 127,
		"subtype": "noteOn",
		"time": 139800,
		"track": 4
	},
	{
		"deltaTime": 0,
		"channel": 2,
		"type": "channel",
		"noteNumber": 63,
		"velocity": 127,
		"subtype": "noteOn",
		"time": 139800,
		"track": 4
	},
	{
		"deltaTime": 120,
		"channel": 2,
		"type": "channel",
		"noteNumber": 68,
		"velocity": 127,
		"subtype": "noteOn",
		"time": 139800,
		"track": 4
	},
	{
		"deltaTime": 0,
		"channel": 0,
		"type": "channel",
		"subtype": "noteOff",
		"noteNumber": 35,
		"velocity": 0,
		"time": 139920,
		"track": 2
	},
	{
		"deltaTime": 0,
		"channel": 0,
		"type": "channel",
		"noteNumber": 34,
		"velocity": 127,
		"subtype": "noteOn",
		"time": 139920,
		"track": 2
	},
	{
		"deltaTime": 0,
		"channel": 9,
		"type": "channel",
		"noteNumber": 35,
		"velocity": 127,
		"subtype": "noteOn",
		"time": 139920,
		"track": 5
	},
	{
		"deltaTime": 60,
		"channel": 9,
		"type": "channel",
		"noteNumber": 36,
		"velocity": 127,
		"subtype": "noteOn",
		"time": 139920,
		"track": 5
	},
	{
		"deltaTime": 0,
		"channel": 9,
		"type": "channel",
		"subtype": "noteOff",
		"noteNumber": 36,
		"velocity": 0,
		"time": 139980,
		"track": 5
	},
	{
		"deltaTime": 180,
		"channel": 9,
		"type": "channel",
		"subtype": "noteOff",
		"noteNumber": 35,
		"velocity": 0,
		"time": 139980,
		"track": 5
	},
	{
		"deltaTime": 0,
		"channel": 0,
		"type": "channel",
		"subtype": "noteOff",
		"noteNumber": 34,
		"velocity": 0,
		"time": 140160,
		"track": 2
	},
	{
		"deltaTime": 0,
		"channel": 0,
		"type": "channel",
		"noteNumber": 32,
		"velocity": 127,
		"subtype": "noteOn",
		"time": 140160,
		"track": 2
	},
	{
		"deltaTime": 0,
		"channel": 2,
		"type": "channel",
		"subtype": "noteOff",
		"noteNumber": 68,
		"velocity": 0,
		"time": 140160,
		"track": 4
	},
	{
		"deltaTime": 0,
		"channel": 2,
		"type": "channel",
		"subtype": "noteOff",
		"noteNumber": 63,
		"velocity": 0,
		"time": 140160,
		"track": 4
	},
	{
		"deltaTime": 0,
		"channel": 2,
		"type": "channel",
		"subtype": "noteOff",
		"noteNumber": 59,
		"velocity": 0,
		"time": 140160,
		"track": 4
	},
	{
		"deltaTime": 0,
		"channel": 2,
		"type": "channel",
		"noteNumber": 44,
		"velocity": 127,
		"subtype": "noteOn",
		"time": 140160,
		"track": 4
	},
	{
		"deltaTime": 0,
		"channel": 9,
		"type": "channel",
		"noteNumber": 42,
		"velocity": 127,
		"subtype": "noteOn",
		"time": 140160,
		"track": 5
	},
	{
		"deltaTime": 0,
		"channel": 9,
		"type": "channel",
		"noteNumber": 35,
		"velocity": 127,
		"subtype": "noteOn",
		"time": 140160,
		"track": 5
	},
	{
		"deltaTime": 60,
		"channel": 9,
		"type": "channel",
		"noteNumber": 36,
		"velocity": 127,
		"subtype": "noteOn",
		"time": 140160,
		"track": 5
	},
	{
		"deltaTime": 0,
		"channel": 9,
		"type": "channel",
		"subtype": "noteOff",
		"noteNumber": 36,
		"velocity": 0,
		"time": 140220,
		"track": 5
	},
	{
		"deltaTime": 0,
		"channel": 9,
		"type": "channel",
		"subtype": "noteOff",
		"noteNumber": 35,
		"velocity": 0,
		"time": 140220,
		"track": 5
	},
	{
		"deltaTime": 60,
		"channel": 9,
		"type": "channel",
		"subtype": "noteOff",
		"noteNumber": 42,
		"velocity": 0,
		"time": 140220,
		"track": 5
	},
	{
		"deltaTime": 60,
		"channel": 9,
		"type": "channel",
		"noteNumber": 42,
		"velocity": 127,
		"subtype": "noteOn",
		"time": 140280,
		"track": 5
	},
	{
		"deltaTime": 60,
		"channel": 9,
		"type": "channel",
		"subtype": "noteOff",
		"noteNumber": 42,
		"velocity": 0,
		"time": 140340,
		"track": 5
	},
	{
		"deltaTime": 0,
		"channel": 9,
		"type": "channel",
		"noteNumber": 42,
		"velocity": 127,
		"subtype": "noteOn",
		"time": 140400,
		"track": 5
	},
	{
		"deltaTime": 0,
		"channel": 9,
		"type": "channel",
		"noteNumber": 36,
		"velocity": 127,
		"subtype": "noteOn",
		"time": 140400,
		"track": 5
	},
	{
		"deltaTime": 60,
		"channel": 9,
		"type": "channel",
		"noteNumber": 35,
		"velocity": 127,
		"subtype": "noteOn",
		"time": 140400,
		"track": 5
	},
	{
		"deltaTime": 0,
		"channel": 9,
		"type": "channel",
		"subtype": "noteOff",
		"noteNumber": 35,
		"velocity": 0,
		"time": 140460,
		"track": 5
	},
	{
		"deltaTime": 0,
		"channel": 9,
		"type": "channel",
		"subtype": "noteOff",
		"noteNumber": 36,
		"velocity": 0,
		"time": 140460,
		"track": 5
	},
	{
		"deltaTime": 60,
		"channel": 9,
		"type": "channel",
		"subtype": "noteOff",
		"noteNumber": 42,
		"velocity": 0,
		"time": 140460,
		"track": 5
	},
	{
		"deltaTime": 0,
		"channel": 2,
		"type": "channel",
		"subtype": "noteOff",
		"noteNumber": 44,
		"velocity": 0,
		"time": 140520,
		"track": 4
	},
	{
		"deltaTime": 0,
		"channel": 2,
		"type": "channel",
		"noteNumber": 59,
		"velocity": 127,
		"subtype": "noteOn",
		"time": 140520,
		"track": 4
	},
	{
		"deltaTime": 0,
		"channel": 2,
		"type": "channel",
		"noteNumber": 63,
		"velocity": 127,
		"subtype": "noteOn",
		"time": 140520,
		"track": 4
	},
	{
		"deltaTime": 0,
		"channel": 2,
		"type": "channel",
		"noteNumber": 68,
		"velocity": 127,
		"subtype": "noteOn",
		"time": 140520,
		"track": 4
	},
	{
		"deltaTime": 60,
		"channel": 9,
		"type": "channel",
		"noteNumber": 42,
		"velocity": 127,
		"subtype": "noteOn",
		"time": 140520,
		"track": 5
	},
	{
		"deltaTime": 60,
		"channel": 9,
		"type": "channel",
		"subtype": "noteOff",
		"noteNumber": 42,
		"velocity": 0,
		"time": 140580,
		"track": 5
	},
	{
		"deltaTime": 0,
		"channel": 9,
		"type": "channel",
		"noteNumber": 42,
		"velocity": 127,
		"subtype": "noteOn",
		"time": 140640,
		"track": 5
	},
	{
		"deltaTime": 0,
		"channel": 9,
		"type": "channel",
		"noteNumber": 38,
		"velocity": 127,
		"subtype": "noteOn",
		"time": 140640,
		"track": 5
	},
	{
		"deltaTime": 60,
		"channel": 9,
		"type": "channel",
		"noteNumber": 40,
		"velocity": 127,
		"subtype": "noteOn",
		"time": 140640,
		"track": 5
	},
	{
		"deltaTime": 0,
		"channel": 9,
		"type": "channel",
		"subtype": "noteOff",
		"noteNumber": 40,
		"velocity": 0,
		"time": 140700,
		"track": 5
	},
	{
		"deltaTime": 0,
		"channel": 9,
		"type": "channel",
		"subtype": "noteOff",
		"noteNumber": 38,
		"velocity": 0,
		"time": 140700,
		"track": 5
	},
	{
		"deltaTime": 60,
		"channel": 9,
		"type": "channel",
		"subtype": "noteOff",
		"noteNumber": 42,
		"velocity": 0,
		"time": 140700,
		"track": 5
	},
	{
		"deltaTime": 0,
		"channel": 2,
		"type": "channel",
		"subtype": "noteOff",
		"noteNumber": 68,
		"velocity": 0,
		"time": 140760,
		"track": 4
	},
	{
		"deltaTime": 0,
		"channel": 2,
		"type": "channel",
		"subtype": "noteOff",
		"noteNumber": 63,
		"velocity": 0,
		"time": 140760,
		"track": 4
	},
	{
		"deltaTime": 0,
		"channel": 2,
		"type": "channel",
		"subtype": "noteOff",
		"noteNumber": 59,
		"velocity": 0,
		"time": 140760,
		"track": 4
	},
	{
		"deltaTime": 0,
		"channel": 2,
		"type": "channel",
		"noteNumber": 59,
		"velocity": 127,
		"subtype": "noteOn",
		"time": 140760,
		"track": 4
	},
	{
		"deltaTime": 0,
		"channel": 2,
		"type": "channel",
		"noteNumber": 63,
		"velocity": 127,
		"subtype": "noteOn",
		"time": 140760,
		"track": 4
	},
	{
		"deltaTime": 0,
		"channel": 2,
		"type": "channel",
		"noteNumber": 68,
		"velocity": 127,
		"subtype": "noteOn",
		"time": 140760,
		"track": 4
	},
	{
		"deltaTime": 60,
		"channel": 9,
		"type": "channel",
		"noteNumber": 42,
		"velocity": 127,
		"subtype": "noteOn",
		"time": 140760,
		"track": 5
	},
	{
		"deltaTime": 60,
		"channel": 9,
		"type": "channel",
		"subtype": "noteOff",
		"noteNumber": 42,
		"velocity": 0,
		"time": 140820,
		"track": 5
	},
	{
		"deltaTime": 60,
		"channel": 9,
		"type": "channel",
		"noteNumber": 42,
		"velocity": 127,
		"subtype": "noteOn",
		"time": 140880,
		"track": 5
	},
	{
		"deltaTime": 60,
		"channel": 9,
		"type": "channel",
		"subtype": "noteOff",
		"noteNumber": 42,
		"velocity": 0,
		"time": 140940,
		"track": 5
	},
	{
		"deltaTime": 0,
		"channel": 9,
		"type": "channel",
		"noteNumber": 42,
		"velocity": 127,
		"subtype": "noteOn",
		"time": 141000,
		"track": 5
	},
	{
		"deltaTime": 0,
		"channel": 9,
		"type": "channel",
		"noteNumber": 36,
		"velocity": 127,
		"subtype": "noteOn",
		"time": 141000,
		"track": 5
	},
	{
		"deltaTime": 60,
		"channel": 9,
		"type": "channel",
		"noteNumber": 35,
		"velocity": 127,
		"subtype": "noteOn",
		"time": 141000,
		"track": 5
	},
	{
		"deltaTime": 0,
		"channel": 9,
		"type": "channel",
		"subtype": "noteOff",
		"noteNumber": 35,
		"velocity": 0,
		"time": 141060,
		"track": 5
	},
	{
		"deltaTime": 0,
		"channel": 9,
		"type": "channel",
		"subtype": "noteOff",
		"noteNumber": 36,
		"velocity": 0,
		"time": 141060,
		"track": 5
	},
	{
		"deltaTime": 60,
		"channel": 9,
		"type": "channel",
		"subtype": "noteOff",
		"noteNumber": 42,
		"velocity": 0,
		"time": 141060,
		"track": 5
	},
	{
		"deltaTime": 0,
		"channel": 0,
		"type": "channel",
		"subtype": "noteOff",
		"noteNumber": 32,
		"velocity": 0,
		"time": 141120,
		"track": 2
	},
	{
		"deltaTime": 0,
		"channel": 0,
		"type": "channel",
		"noteNumber": 40,
		"velocity": 127,
		"subtype": "noteOn",
		"time": 141120,
		"track": 2
	},
	{
		"deltaTime": 0,
		"channel": 2,
		"type": "channel",
		"subtype": "noteOff",
		"noteNumber": 68,
		"velocity": 0,
		"time": 141120,
		"track": 4
	},
	{
		"deltaTime": 0,
		"channel": 2,
		"type": "channel",
		"subtype": "noteOff",
		"noteNumber": 63,
		"velocity": 0,
		"time": 141120,
		"track": 4
	},
	{
		"deltaTime": 0,
		"channel": 2,
		"type": "channel",
		"subtype": "noteOff",
		"noteNumber": 59,
		"velocity": 0,
		"time": 141120,
		"track": 4
	},
	{
		"deltaTime": 0,
		"channel": 2,
		"type": "channel",
		"noteNumber": 40,
		"velocity": 127,
		"subtype": "noteOn",
		"time": 141120,
		"track": 4
	},
	{
		"deltaTime": 60,
		"channel": 9,
		"type": "channel",
		"noteNumber": 42,
		"velocity": 127,
		"subtype": "noteOn",
		"time": 141120,
		"track": 5
	},
	{
		"deltaTime": 60,
		"channel": 9,
		"type": "channel",
		"subtype": "noteOff",
		"noteNumber": 42,
		"velocity": 0,
		"time": 141180,
		"track": 5
	},
	{
		"deltaTime": 60,
		"channel": 9,
		"type": "channel",
		"noteNumber": 42,
		"velocity": 127,
		"subtype": "noteOn",
		"time": 141240,
		"track": 5
	},
	{
		"deltaTime": 60,
		"channel": 9,
		"type": "channel",
		"subtype": "noteOff",
		"noteNumber": 42,
		"velocity": 0,
		"time": 141300,
		"track": 5
	},
	{
		"deltaTime": 0,
		"channel": 9,
		"type": "channel",
		"noteNumber": 42,
		"velocity": 127,
		"subtype": "noteOn",
		"time": 141360,
		"track": 5
	},
	{
		"deltaTime": 0,
		"channel": 9,
		"type": "channel",
		"noteNumber": 36,
		"velocity": 127,
		"subtype": "noteOn",
		"time": 141360,
		"track": 5
	},
	{
		"deltaTime": 60,
		"channel": 9,
		"type": "channel",
		"noteNumber": 35,
		"velocity": 127,
		"subtype": "noteOn",
		"time": 141360,
		"track": 5
	},
	{
		"deltaTime": 0,
		"channel": 9,
		"type": "channel",
		"subtype": "noteOff",
		"noteNumber": 35,
		"velocity": 0,
		"time": 141420,
		"track": 5
	},
	{
		"deltaTime": 0,
		"channel": 9,
		"type": "channel",
		"subtype": "noteOff",
		"noteNumber": 36,
		"velocity": 0,
		"time": 141420,
		"track": 5
	},
	{
		"deltaTime": 60,
		"channel": 9,
		"type": "channel",
		"subtype": "noteOff",
		"noteNumber": 42,
		"velocity": 0,
		"time": 141420,
		"track": 5
	},
	{
		"deltaTime": 0,
		"channel": 2,
		"type": "channel",
		"subtype": "noteOff",
		"noteNumber": 40,
		"velocity": 0,
		"time": 141480,
		"track": 4
	},
	{
		"deltaTime": 0,
		"channel": 2,
		"type": "channel",
		"noteNumber": 59,
		"velocity": 127,
		"subtype": "noteOn",
		"time": 141480,
		"track": 4
	},
	{
		"deltaTime": 0,
		"channel": 2,
		"type": "channel",
		"noteNumber": 63,
		"velocity": 127,
		"subtype": "noteOn",
		"time": 141480,
		"track": 4
	},
	{
		"deltaTime": 0,
		"channel": 2,
		"type": "channel",
		"noteNumber": 68,
		"velocity": 127,
		"subtype": "noteOn",
		"time": 141480,
		"track": 4
	},
	{
		"deltaTime": 60,
		"channel": 9,
		"type": "channel",
		"noteNumber": 42,
		"velocity": 127,
		"subtype": "noteOn",
		"time": 141480,
		"track": 5
	},
	{
		"deltaTime": 60,
		"channel": 9,
		"type": "channel",
		"subtype": "noteOff",
		"noteNumber": 42,
		"velocity": 0,
		"time": 141540,
		"track": 5
	},
	{
		"deltaTime": 0,
		"channel": 9,
		"type": "channel",
		"noteNumber": 42,
		"velocity": 127,
		"subtype": "noteOn",
		"time": 141600,
		"track": 5
	},
	{
		"deltaTime": 0,
		"channel": 9,
		"type": "channel",
		"noteNumber": 40,
		"velocity": 127,
		"subtype": "noteOn",
		"time": 141600,
		"track": 5
	},
	{
		"deltaTime": 60,
		"channel": 9,
		"type": "channel",
		"noteNumber": 38,
		"velocity": 127,
		"subtype": "noteOn",
		"time": 141600,
		"track": 5
	},
	{
		"deltaTime": 0,
		"channel": 9,
		"type": "channel",
		"subtype": "noteOff",
		"noteNumber": 38,
		"velocity": 0,
		"time": 141660,
		"track": 5
	},
	{
		"deltaTime": 0,
		"channel": 9,
		"type": "channel",
		"subtype": "noteOff",
		"noteNumber": 40,
		"velocity": 0,
		"time": 141660,
		"track": 5
	},
	{
		"deltaTime": 60,
		"channel": 9,
		"type": "channel",
		"subtype": "noteOff",
		"noteNumber": 42,
		"velocity": 0,
		"time": 141660,
		"track": 5
	},
	{
		"deltaTime": 0,
		"channel": 2,
		"type": "channel",
		"subtype": "noteOff",
		"noteNumber": 68,
		"velocity": 0,
		"time": 141720,
		"track": 4
	},
	{
		"deltaTime": 0,
		"channel": 2,
		"type": "channel",
		"subtype": "noteOff",
		"noteNumber": 63,
		"velocity": 0,
		"time": 141720,
		"track": 4
	},
	{
		"deltaTime": 0,
		"channel": 2,
		"type": "channel",
		"subtype": "noteOff",
		"noteNumber": 59,
		"velocity": 0,
		"time": 141720,
		"track": 4
	},
	{
		"deltaTime": 0,
		"channel": 2,
		"type": "channel",
		"noteNumber": 59,
		"velocity": 127,
		"subtype": "noteOn",
		"time": 141720,
		"track": 4
	},
	{
		"deltaTime": 0,
		"channel": 2,
		"type": "channel",
		"noteNumber": 63,
		"velocity": 127,
		"subtype": "noteOn",
		"time": 141720,
		"track": 4
	},
	{
		"deltaTime": 0,
		"channel": 2,
		"type": "channel",
		"noteNumber": 68,
		"velocity": 127,
		"subtype": "noteOn",
		"time": 141720,
		"track": 4
	},
	{
		"deltaTime": 60,
		"channel": 9,
		"type": "channel",
		"noteNumber": 42,
		"velocity": 127,
		"subtype": "noteOn",
		"time": 141720,
		"track": 5
	},
	{
		"deltaTime": 60,
		"channel": 9,
		"type": "channel",
		"subtype": "noteOff",
		"noteNumber": 42,
		"velocity": 0,
		"time": 141780,
		"track": 5
	},
	{
		"deltaTime": 60,
		"channel": 9,
		"type": "channel",
		"noteNumber": 42,
		"velocity": 127,
		"subtype": "noteOn",
		"time": 141840,
		"track": 5
	},
	{
		"deltaTime": 60,
		"channel": 9,
		"type": "channel",
		"subtype": "noteOff",
		"noteNumber": 42,
		"velocity": 0,
		"time": 141900,
		"track": 5
	},
	{
		"deltaTime": 60,
		"channel": 9,
		"type": "channel",
		"noteNumber": 42,
		"velocity": 127,
		"subtype": "noteOn",
		"time": 141960,
		"track": 5
	},
	{
		"deltaTime": 60,
		"channel": 9,
		"type": "channel",
		"subtype": "noteOff",
		"noteNumber": 42,
		"velocity": 0,
		"time": 142020,
		"track": 5
	},
	{
		"deltaTime": 0,
		"channel": 0,
		"type": "channel",
		"subtype": "noteOff",
		"noteNumber": 40,
		"velocity": 0,
		"time": 142080,
		"track": 2
	},
	{
		"deltaTime": 0,
		"channel": 0,
		"type": "channel",
		"noteNumber": 42,
		"velocity": 127,
		"subtype": "noteOn",
		"time": 142080,
		"track": 2
	},
	{
		"deltaTime": 0,
		"channel": 2,
		"type": "channel",
		"subtype": "noteOff",
		"noteNumber": 68,
		"velocity": 0,
		"time": 142080,
		"track": 4
	},
	{
		"deltaTime": 0,
		"channel": 2,
		"type": "channel",
		"subtype": "noteOff",
		"noteNumber": 63,
		"velocity": 0,
		"time": 142080,
		"track": 4
	},
	{
		"deltaTime": 0,
		"channel": 2,
		"type": "channel",
		"subtype": "noteOff",
		"noteNumber": 59,
		"velocity": 0,
		"time": 142080,
		"track": 4
	},
	{
		"deltaTime": 0,
		"channel": 2,
		"type": "channel",
		"noteNumber": 42,
		"velocity": 127,
		"subtype": "noteOn",
		"time": 142080,
		"track": 4
	},
	{
		"deltaTime": 0,
		"channel": 9,
		"type": "channel",
		"noteNumber": 42,
		"velocity": 127,
		"subtype": "noteOn",
		"time": 142080,
		"track": 5
	},
	{
		"deltaTime": 0,
		"channel": 9,
		"type": "channel",
		"noteNumber": 35,
		"velocity": 127,
		"subtype": "noteOn",
		"time": 142080,
		"track": 5
	},
	{
		"deltaTime": 60,
		"channel": 9,
		"type": "channel",
		"noteNumber": 36,
		"velocity": 127,
		"subtype": "noteOn",
		"time": 142080,
		"track": 5
	},
	{
		"deltaTime": 0,
		"channel": 9,
		"type": "channel",
		"subtype": "noteOff",
		"noteNumber": 36,
		"velocity": 0,
		"time": 142140,
		"track": 5
	},
	{
		"deltaTime": 0,
		"channel": 9,
		"type": "channel",
		"subtype": "noteOff",
		"noteNumber": 35,
		"velocity": 0,
		"time": 142140,
		"track": 5
	},
	{
		"deltaTime": 60,
		"channel": 9,
		"type": "channel",
		"subtype": "noteOff",
		"noteNumber": 42,
		"velocity": 0,
		"time": 142140,
		"track": 5
	},
	{
		"deltaTime": 60,
		"channel": 9,
		"type": "channel",
		"noteNumber": 42,
		"velocity": 127,
		"subtype": "noteOn",
		"time": 142200,
		"track": 5
	},
	{
		"deltaTime": 60,
		"channel": 9,
		"type": "channel",
		"subtype": "noteOff",
		"noteNumber": 42,
		"velocity": 0,
		"time": 142260,
		"track": 5
	},
	{
		"deltaTime": 0,
		"channel": 9,
		"type": "channel",
		"noteNumber": 42,
		"velocity": 127,
		"subtype": "noteOn",
		"time": 142320,
		"track": 5
	},
	{
		"deltaTime": 0,
		"channel": 9,
		"type": "channel",
		"noteNumber": 36,
		"velocity": 127,
		"subtype": "noteOn",
		"time": 142320,
		"track": 5
	},
	{
		"deltaTime": 60,
		"channel": 9,
		"type": "channel",
		"noteNumber": 35,
		"velocity": 127,
		"subtype": "noteOn",
		"time": 142320,
		"track": 5
	},
	{
		"deltaTime": 0,
		"channel": 9,
		"type": "channel",
		"subtype": "noteOff",
		"noteNumber": 35,
		"velocity": 0,
		"time": 142380,
		"track": 5
	},
	{
		"deltaTime": 0,
		"channel": 9,
		"type": "channel",
		"subtype": "noteOff",
		"noteNumber": 36,
		"velocity": 0,
		"time": 142380,
		"track": 5
	},
	{
		"deltaTime": 60,
		"channel": 9,
		"type": "channel",
		"subtype": "noteOff",
		"noteNumber": 42,
		"velocity": 0,
		"time": 142380,
		"track": 5
	},
	{
		"deltaTime": 0,
		"channel": 2,
		"type": "channel",
		"subtype": "noteOff",
		"noteNumber": 42,
		"velocity": 0,
		"time": 142440,
		"track": 4
	},
	{
		"deltaTime": 0,
		"channel": 2,
		"type": "channel",
		"noteNumber": 61,
		"velocity": 127,
		"subtype": "noteOn",
		"time": 142440,
		"track": 4
	},
	{
		"deltaTime": 0,
		"channel": 2,
		"type": "channel",
		"noteNumber": 66,
		"velocity": 127,
		"subtype": "noteOn",
		"time": 142440,
		"track": 4
	},
	{
		"deltaTime": 0,
		"channel": 2,
		"type": "channel",
		"noteNumber": 70,
		"velocity": 127,
		"subtype": "noteOn",
		"time": 142440,
		"track": 4
	},
	{
		"deltaTime": 60,
		"channel": 9,
		"type": "channel",
		"noteNumber": 42,
		"velocity": 127,
		"subtype": "noteOn",
		"time": 142440,
		"track": 5
	},
	{
		"deltaTime": 60,
		"channel": 9,
		"type": "channel",
		"subtype": "noteOff",
		"noteNumber": 42,
		"velocity": 0,
		"time": 142500,
		"track": 5
	},
	{
		"deltaTime": 0,
		"channel": 9,
		"type": "channel",
		"noteNumber": 42,
		"velocity": 127,
		"subtype": "noteOn",
		"time": 142560,
		"track": 5
	},
	{
		"deltaTime": 0,
		"channel": 9,
		"type": "channel",
		"noteNumber": 38,
		"velocity": 127,
		"subtype": "noteOn",
		"time": 142560,
		"track": 5
	},
	{
		"deltaTime": 60,
		"channel": 9,
		"type": "channel",
		"noteNumber": 40,
		"velocity": 127,
		"subtype": "noteOn",
		"time": 142560,
		"track": 5
	},
	{
		"deltaTime": 0,
		"channel": 9,
		"type": "channel",
		"subtype": "noteOff",
		"noteNumber": 40,
		"velocity": 0,
		"time": 142620,
		"track": 5
	},
	{
		"deltaTime": 0,
		"channel": 9,
		"type": "channel",
		"subtype": "noteOff",
		"noteNumber": 38,
		"velocity": 0,
		"time": 142620,
		"track": 5
	},
	{
		"deltaTime": 60,
		"channel": 9,
		"type": "channel",
		"subtype": "noteOff",
		"noteNumber": 42,
		"velocity": 0,
		"time": 142620,
		"track": 5
	},
	{
		"deltaTime": 0,
		"channel": 2,
		"type": "channel",
		"subtype": "noteOff",
		"noteNumber": 70,
		"velocity": 0,
		"time": 142680,
		"track": 4
	},
	{
		"deltaTime": 0,
		"channel": 2,
		"type": "channel",
		"subtype": "noteOff",
		"noteNumber": 66,
		"velocity": 0,
		"time": 142680,
		"track": 4
	},
	{
		"deltaTime": 0,
		"channel": 2,
		"type": "channel",
		"subtype": "noteOff",
		"noteNumber": 61,
		"velocity": 0,
		"time": 142680,
		"track": 4
	},
	{
		"deltaTime": 0,
		"channel": 2,
		"type": "channel",
		"noteNumber": 61,
		"velocity": 127,
		"subtype": "noteOn",
		"time": 142680,
		"track": 4
	},
	{
		"deltaTime": 0,
		"channel": 2,
		"type": "channel",
		"noteNumber": 66,
		"velocity": 127,
		"subtype": "noteOn",
		"time": 142680,
		"track": 4
	},
	{
		"deltaTime": 0,
		"channel": 2,
		"type": "channel",
		"noteNumber": 70,
		"velocity": 127,
		"subtype": "noteOn",
		"time": 142680,
		"track": 4
	},
	{
		"deltaTime": 60,
		"channel": 9,
		"type": "channel",
		"noteNumber": 42,
		"velocity": 127,
		"subtype": "noteOn",
		"time": 142680,
		"track": 5
	},
	{
		"deltaTime": 60,
		"channel": 9,
		"type": "channel",
		"subtype": "noteOff",
		"noteNumber": 42,
		"velocity": 0,
		"time": 142740,
		"track": 5
	},
	{
		"deltaTime": 60,
		"channel": 9,
		"type": "channel",
		"noteNumber": 42,
		"velocity": 127,
		"subtype": "noteOn",
		"time": 142800,
		"track": 5
	},
	{
		"deltaTime": 60,
		"channel": 9,
		"type": "channel",
		"subtype": "noteOff",
		"noteNumber": 42,
		"velocity": 0,
		"time": 142860,
		"track": 5
	},
	{
		"deltaTime": 0,
		"channel": 9,
		"type": "channel",
		"noteNumber": 42,
		"velocity": 127,
		"subtype": "noteOn",
		"time": 142920,
		"track": 5
	},
	{
		"deltaTime": 0,
		"channel": 9,
		"type": "channel",
		"noteNumber": 36,
		"velocity": 127,
		"subtype": "noteOn",
		"time": 142920,
		"track": 5
	},
	{
		"deltaTime": 60,
		"channel": 9,
		"type": "channel",
		"noteNumber": 35,
		"velocity": 127,
		"subtype": "noteOn",
		"time": 142920,
		"track": 5
	},
	{
		"deltaTime": 0,
		"channel": 9,
		"type": "channel",
		"subtype": "noteOff",
		"noteNumber": 35,
		"velocity": 0,
		"time": 142980,
		"track": 5
	},
	{
		"deltaTime": 0,
		"channel": 9,
		"type": "channel",
		"subtype": "noteOff",
		"noteNumber": 36,
		"velocity": 0,
		"time": 142980,
		"track": 5
	},
	{
		"deltaTime": 60,
		"channel": 9,
		"type": "channel",
		"subtype": "noteOff",
		"noteNumber": 42,
		"velocity": 0,
		"time": 142980,
		"track": 5
	},
	{
		"deltaTime": 0,
		"channel": 0,
		"type": "channel",
		"subtype": "noteOff",
		"noteNumber": 42,
		"velocity": 0,
		"time": 143040,
		"track": 2
	},
	{
		"deltaTime": 0,
		"channel": 0,
		"type": "channel",
		"noteNumber": 35,
		"velocity": 127,
		"subtype": "noteOn",
		"time": 143040,
		"track": 2
	},
	{
		"deltaTime": 0,
		"channel": 2,
		"type": "channel",
		"subtype": "noteOff",
		"noteNumber": 70,
		"velocity": 0,
		"time": 143040,
		"track": 4
	},
	{
		"deltaTime": 0,
		"channel": 2,
		"type": "channel",
		"subtype": "noteOff",
		"noteNumber": 66,
		"velocity": 0,
		"time": 143040,
		"track": 4
	},
	{
		"deltaTime": 0,
		"channel": 2,
		"type": "channel",
		"subtype": "noteOff",
		"noteNumber": 61,
		"velocity": 0,
		"time": 143040,
		"track": 4
	},
	{
		"deltaTime": 0,
		"channel": 2,
		"type": "channel",
		"noteNumber": 47,
		"velocity": 127,
		"subtype": "noteOn",
		"time": 143040,
		"track": 4
	},
	{
		"deltaTime": 60,
		"channel": 9,
		"type": "channel",
		"noteNumber": 42,
		"velocity": 127,
		"subtype": "noteOn",
		"time": 143040,
		"track": 5
	},
	{
		"deltaTime": 60,
		"channel": 9,
		"type": "channel",
		"subtype": "noteOff",
		"noteNumber": 42,
		"velocity": 0,
		"time": 143100,
		"track": 5
	},
	{
		"deltaTime": 60,
		"channel": 9,
		"type": "channel",
		"noteNumber": 42,
		"velocity": 127,
		"subtype": "noteOn",
		"time": 143160,
		"track": 5
	},
	{
		"deltaTime": 60,
		"channel": 9,
		"type": "channel",
		"subtype": "noteOff",
		"noteNumber": 42,
		"velocity": 0,
		"time": 143220,
		"track": 5
	},
	{
		"deltaTime": 0,
		"channel": 9,
		"type": "channel",
		"noteNumber": 42,
		"velocity": 127,
		"subtype": "noteOn",
		"time": 143280,
		"track": 5
	},
	{
		"deltaTime": 0,
		"channel": 9,
		"type": "channel",
		"noteNumber": 36,
		"velocity": 127,
		"subtype": "noteOn",
		"time": 143280,
		"track": 5
	},
	{
		"deltaTime": 60,
		"channel": 9,
		"type": "channel",
		"noteNumber": 35,
		"velocity": 127,
		"subtype": "noteOn",
		"time": 143280,
		"track": 5
	},
	{
		"deltaTime": 0,
		"channel": 9,
		"type": "channel",
		"subtype": "noteOff",
		"noteNumber": 35,
		"velocity": 0,
		"time": 143340,
		"track": 5
	},
	{
		"deltaTime": 0,
		"channel": 9,
		"type": "channel",
		"subtype": "noteOff",
		"noteNumber": 36,
		"velocity": 0,
		"time": 143340,
		"track": 5
	},
	{
		"deltaTime": 60,
		"channel": 9,
		"type": "channel",
		"subtype": "noteOff",
		"noteNumber": 42,
		"velocity": 0,
		"time": 143340,
		"track": 5
	},
	{
		"deltaTime": 0,
		"channel": 2,
		"type": "channel",
		"subtype": "noteOff",
		"noteNumber": 47,
		"velocity": 0,
		"time": 143400,
		"track": 4
	},
	{
		"deltaTime": 0,
		"channel": 2,
		"type": "channel",
		"noteNumber": 61,
		"velocity": 127,
		"subtype": "noteOn",
		"time": 143400,
		"track": 4
	},
	{
		"deltaTime": 0,
		"channel": 2,
		"type": "channel",
		"noteNumber": 66,
		"velocity": 127,
		"subtype": "noteOn",
		"time": 143400,
		"track": 4
	},
	{
		"deltaTime": 0,
		"channel": 2,
		"type": "channel",
		"noteNumber": 70,
		"velocity": 127,
		"subtype": "noteOn",
		"time": 143400,
		"track": 4
	},
	{
		"deltaTime": 60,
		"channel": 9,
		"type": "channel",
		"noteNumber": 42,
		"velocity": 127,
		"subtype": "noteOn",
		"time": 143400,
		"track": 5
	},
	{
		"deltaTime": 60,
		"channel": 9,
		"type": "channel",
		"subtype": "noteOff",
		"noteNumber": 42,
		"velocity": 0,
		"time": 143460,
		"track": 5
	},
	{
		"deltaTime": 0,
		"channel": 0,
		"type": "channel",
		"subtype": "noteOff",
		"noteNumber": 35,
		"velocity": 0,
		"time": 143520,
		"track": 2
	},
	{
		"deltaTime": 0,
		"channel": 0,
		"type": "channel",
		"noteNumber": 34,
		"velocity": 127,
		"subtype": "noteOn",
		"time": 143520,
		"track": 2
	},
	{
		"deltaTime": 0,
		"channel": 9,
		"type": "channel",
		"noteNumber": 42,
		"velocity": 127,
		"subtype": "noteOn",
		"time": 143520,
		"track": 5
	},
	{
		"deltaTime": 0,
		"channel": 9,
		"type": "channel",
		"noteNumber": 40,
		"velocity": 127,
		"subtype": "noteOn",
		"time": 143520,
		"track": 5
	},
	{
		"deltaTime": 60,
		"channel": 9,
		"type": "channel",
		"noteNumber": 38,
		"velocity": 127,
		"subtype": "noteOn",
		"time": 143520,
		"track": 5
	},
	{
		"deltaTime": 0,
		"channel": 9,
		"type": "channel",
		"subtype": "noteOff",
		"noteNumber": 38,
		"velocity": 0,
		"time": 143580,
		"track": 5
	},
	{
		"deltaTime": 0,
		"channel": 9,
		"type": "channel",
		"subtype": "noteOff",
		"noteNumber": 40,
		"velocity": 0,
		"time": 143580,
		"track": 5
	},
	{
		"deltaTime": 60,
		"channel": 9,
		"type": "channel",
		"subtype": "noteOff",
		"noteNumber": 42,
		"velocity": 0,
		"time": 143580,
		"track": 5
	},
	{
		"deltaTime": 0,
		"channel": 2,
		"type": "channel",
		"subtype": "noteOff",
		"noteNumber": 70,
		"velocity": 0,
		"time": 143640,
		"track": 4
	},
	{
		"deltaTime": 0,
		"channel": 2,
		"type": "channel",
		"subtype": "noteOff",
		"noteNumber": 66,
		"velocity": 0,
		"time": 143640,
		"track": 4
	},
	{
		"deltaTime": 0,
		"channel": 2,
		"type": "channel",
		"subtype": "noteOff",
		"noteNumber": 61,
		"velocity": 0,
		"time": 143640,
		"track": 4
	},
	{
		"deltaTime": 0,
		"channel": 2,
		"type": "channel",
		"noteNumber": 61,
		"velocity": 127,
		"subtype": "noteOn",
		"time": 143640,
		"track": 4
	},
	{
		"deltaTime": 0,
		"channel": 2,
		"type": "channel",
		"noteNumber": 66,
		"velocity": 127,
		"subtype": "noteOn",
		"time": 143640,
		"track": 4
	},
	{
		"deltaTime": 0,
		"channel": 2,
		"type": "channel",
		"noteNumber": 71,
		"velocity": 127,
		"subtype": "noteOn",
		"time": 143640,
		"track": 4
	},
	{
		"deltaTime": 60,
		"channel": 9,
		"type": "channel",
		"noteNumber": 42,
		"velocity": 127,
		"subtype": "noteOn",
		"time": 143640,
		"track": 5
	},
	{
		"deltaTime": 60,
		"channel": 9,
		"type": "channel",
		"subtype": "noteOff",
		"noteNumber": 42,
		"velocity": 0,
		"time": 143700,
		"track": 5
	},
	{
		"deltaTime": 60,
		"channel": 9,
		"type": "channel",
		"noteNumber": 42,
		"velocity": 127,
		"subtype": "noteOn",
		"time": 143760,
		"track": 5
	},
	{
		"deltaTime": 60,
		"channel": 9,
		"type": "channel",
		"subtype": "noteOff",
		"noteNumber": 42,
		"velocity": 0,
		"time": 143820,
		"track": 5
	},
	{
		"deltaTime": 60,
		"channel": 9,
		"type": "channel",
		"noteNumber": 42,
		"velocity": 127,
		"subtype": "noteOn",
		"time": 143880,
		"track": 5
	},
	{
		"deltaTime": 60,
		"channel": 9,
		"type": "channel",
		"subtype": "noteOff",
		"noteNumber": 42,
		"velocity": 0,
		"time": 143940,
		"track": 5
	},
	{
		"deltaTime": 0,
		"channel": 0,
		"type": "channel",
		"subtype": "noteOff",
		"noteNumber": 34,
		"velocity": 0,
		"time": 144000,
		"track": 2
	},
	{
		"deltaTime": 0,
		"channel": 0,
		"type": "channel",
		"noteNumber": 32,
		"velocity": 127,
		"subtype": "noteOn",
		"time": 144000,
		"track": 2
	},
	{
		"deltaTime": 0,
		"channel": 2,
		"type": "channel",
		"subtype": "noteOff",
		"noteNumber": 71,
		"velocity": 0,
		"time": 144000,
		"track": 4
	},
	{
		"deltaTime": 0,
		"channel": 2,
		"type": "channel",
		"subtype": "noteOff",
		"noteNumber": 66,
		"velocity": 0,
		"time": 144000,
		"track": 4
	},
	{
		"deltaTime": 0,
		"channel": 2,
		"type": "channel",
		"subtype": "noteOff",
		"noteNumber": 61,
		"velocity": 0,
		"time": 144000,
		"track": 4
	},
	{
		"deltaTime": 0,
		"channel": 2,
		"type": "channel",
		"noteNumber": 44,
		"velocity": 127,
		"subtype": "noteOn",
		"time": 144000,
		"track": 4
	},
	{
		"deltaTime": 0,
		"channel": 9,
		"type": "channel",
		"noteNumber": 42,
		"velocity": 127,
		"subtype": "noteOn",
		"time": 144000,
		"track": 5
	},
	{
		"deltaTime": 0,
		"channel": 9,
		"type": "channel",
		"noteNumber": 35,
		"velocity": 127,
		"subtype": "noteOn",
		"time": 144000,
		"track": 5
	},
	{
		"deltaTime": 60,
		"channel": 9,
		"type": "channel",
		"noteNumber": 36,
		"velocity": 127,
		"subtype": "noteOn",
		"time": 144000,
		"track": 5
	},
	{
		"deltaTime": 0,
		"channel": 9,
		"type": "channel",
		"subtype": "noteOff",
		"noteNumber": 36,
		"velocity": 0,
		"time": 144060,
		"track": 5
	},
	{
		"deltaTime": 0,
		"channel": 9,
		"type": "channel",
		"subtype": "noteOff",
		"noteNumber": 35,
		"velocity": 0,
		"time": 144060,
		"track": 5
	},
	{
		"deltaTime": 60,
		"channel": 9,
		"type": "channel",
		"subtype": "noteOff",
		"noteNumber": 42,
		"velocity": 0,
		"time": 144060,
		"track": 5
	},
	{
		"deltaTime": 60,
		"channel": 9,
		"type": "channel",
		"noteNumber": 42,
		"velocity": 127,
		"subtype": "noteOn",
		"time": 144120,
		"track": 5
	},
	{
		"deltaTime": 60,
		"channel": 9,
		"type": "channel",
		"subtype": "noteOff",
		"noteNumber": 42,
		"velocity": 0,
		"time": 144180,
		"track": 5
	},
	{
		"deltaTime": 0,
		"channel": 9,
		"type": "channel",
		"noteNumber": 42,
		"velocity": 127,
		"subtype": "noteOn",
		"time": 144240,
		"track": 5
	},
	{
		"deltaTime": 0,
		"channel": 9,
		"type": "channel",
		"noteNumber": 36,
		"velocity": 127,
		"subtype": "noteOn",
		"time": 144240,
		"track": 5
	},
	{
		"deltaTime": 60,
		"channel": 9,
		"type": "channel",
		"noteNumber": 35,
		"velocity": 127,
		"subtype": "noteOn",
		"time": 144240,
		"track": 5
	},
	{
		"deltaTime": 0,
		"channel": 9,
		"type": "channel",
		"subtype": "noteOff",
		"noteNumber": 35,
		"velocity": 0,
		"time": 144300,
		"track": 5
	},
	{
		"deltaTime": 0,
		"channel": 9,
		"type": "channel",
		"subtype": "noteOff",
		"noteNumber": 36,
		"velocity": 0,
		"time": 144300,
		"track": 5
	},
	{
		"deltaTime": 60,
		"channel": 9,
		"type": "channel",
		"subtype": "noteOff",
		"noteNumber": 42,
		"velocity": 0,
		"time": 144300,
		"track": 5
	},
	{
		"deltaTime": 0,
		"channel": 2,
		"type": "channel",
		"subtype": "noteOff",
		"noteNumber": 44,
		"velocity": 0,
		"time": 144360,
		"track": 4
	},
	{
		"deltaTime": 0,
		"channel": 2,
		"type": "channel",
		"noteNumber": 59,
		"velocity": 127,
		"subtype": "noteOn",
		"time": 144360,
		"track": 4
	},
	{
		"deltaTime": 0,
		"channel": 2,
		"type": "channel",
		"noteNumber": 63,
		"velocity": 127,
		"subtype": "noteOn",
		"time": 144360,
		"track": 4
	},
	{
		"deltaTime": 0,
		"channel": 2,
		"type": "channel",
		"noteNumber": 68,
		"velocity": 127,
		"subtype": "noteOn",
		"time": 144360,
		"track": 4
	},
	{
		"deltaTime": 60,
		"channel": 9,
		"type": "channel",
		"noteNumber": 42,
		"velocity": 127,
		"subtype": "noteOn",
		"time": 144360,
		"track": 5
	},
	{
		"deltaTime": 60,
		"channel": 9,
		"type": "channel",
		"subtype": "noteOff",
		"noteNumber": 42,
		"velocity": 0,
		"time": 144420,
		"track": 5
	},
	{
		"deltaTime": 0,
		"channel": 9,
		"type": "channel",
		"noteNumber": 42,
		"velocity": 127,
		"subtype": "noteOn",
		"time": 144480,
		"track": 5
	},
	{
		"deltaTime": 0,
		"channel": 9,
		"type": "channel",
		"noteNumber": 38,
		"velocity": 127,
		"subtype": "noteOn",
		"time": 144480,
		"track": 5
	},
	{
		"deltaTime": 60,
		"channel": 9,
		"type": "channel",
		"noteNumber": 40,
		"velocity": 127,
		"subtype": "noteOn",
		"time": 144480,
		"track": 5
	},
	{
		"deltaTime": 0,
		"channel": 9,
		"type": "channel",
		"subtype": "noteOff",
		"noteNumber": 40,
		"velocity": 0,
		"time": 144540,
		"track": 5
	},
	{
		"deltaTime": 0,
		"channel": 9,
		"type": "channel",
		"subtype": "noteOff",
		"noteNumber": 38,
		"velocity": 0,
		"time": 144540,
		"track": 5
	},
	{
		"deltaTime": 60,
		"channel": 9,
		"type": "channel",
		"subtype": "noteOff",
		"noteNumber": 42,
		"velocity": 0,
		"time": 144540,
		"track": 5
	},
	{
		"deltaTime": 0,
		"channel": 2,
		"type": "channel",
		"subtype": "noteOff",
		"noteNumber": 68,
		"velocity": 0,
		"time": 144600,
		"track": 4
	},
	{
		"deltaTime": 0,
		"channel": 2,
		"type": "channel",
		"subtype": "noteOff",
		"noteNumber": 63,
		"velocity": 0,
		"time": 144600,
		"track": 4
	},
	{
		"deltaTime": 0,
		"channel": 2,
		"type": "channel",
		"subtype": "noteOff",
		"noteNumber": 59,
		"velocity": 0,
		"time": 144600,
		"track": 4
	},
	{
		"deltaTime": 0,
		"channel": 2,
		"type": "channel",
		"noteNumber": 59,
		"velocity": 127,
		"subtype": "noteOn",
		"time": 144600,
		"track": 4
	},
	{
		"deltaTime": 0,
		"channel": 2,
		"type": "channel",
		"noteNumber": 63,
		"velocity": 127,
		"subtype": "noteOn",
		"time": 144600,
		"track": 4
	},
	{
		"deltaTime": 0,
		"channel": 2,
		"type": "channel",
		"noteNumber": 68,
		"velocity": 127,
		"subtype": "noteOn",
		"time": 144600,
		"track": 4
	},
	{
		"deltaTime": 60,
		"channel": 9,
		"type": "channel",
		"noteNumber": 42,
		"velocity": 127,
		"subtype": "noteOn",
		"time": 144600,
		"track": 5
	},
	{
		"deltaTime": 60,
		"channel": 9,
		"type": "channel",
		"subtype": "noteOff",
		"noteNumber": 42,
		"velocity": 0,
		"time": 144660,
		"track": 5
	},
	{
		"deltaTime": 60,
		"channel": 9,
		"type": "channel",
		"noteNumber": 42,
		"velocity": 127,
		"subtype": "noteOn",
		"time": 144720,
		"track": 5
	},
	{
		"deltaTime": 60,
		"channel": 9,
		"type": "channel",
		"subtype": "noteOff",
		"noteNumber": 42,
		"velocity": 0,
		"time": 144780,
		"track": 5
	},
	{
		"deltaTime": 0,
		"channel": 9,
		"type": "channel",
		"noteNumber": 42,
		"velocity": 127,
		"subtype": "noteOn",
		"time": 144840,
		"track": 5
	},
	{
		"deltaTime": 0,
		"channel": 9,
		"type": "channel",
		"noteNumber": 36,
		"velocity": 127,
		"subtype": "noteOn",
		"time": 144840,
		"track": 5
	},
	{
		"deltaTime": 60,
		"channel": 9,
		"type": "channel",
		"noteNumber": 35,
		"velocity": 127,
		"subtype": "noteOn",
		"time": 144840,
		"track": 5
	},
	{
		"deltaTime": 0,
		"channel": 9,
		"type": "channel",
		"subtype": "noteOff",
		"noteNumber": 35,
		"velocity": 0,
		"time": 144900,
		"track": 5
	},
	{
		"deltaTime": 0,
		"channel": 9,
		"type": "channel",
		"subtype": "noteOff",
		"noteNumber": 36,
		"velocity": 0,
		"time": 144900,
		"track": 5
	},
	{
		"deltaTime": 60,
		"channel": 9,
		"type": "channel",
		"subtype": "noteOff",
		"noteNumber": 42,
		"velocity": 0,
		"time": 144900,
		"track": 5
	},
	{
		"deltaTime": 0,
		"channel": 0,
		"type": "channel",
		"subtype": "noteOff",
		"noteNumber": 32,
		"velocity": 0,
		"time": 144960,
		"track": 2
	},
	{
		"deltaTime": 0,
		"channel": 0,
		"type": "channel",
		"noteNumber": 40,
		"velocity": 127,
		"subtype": "noteOn",
		"time": 144960,
		"track": 2
	},
	{
		"deltaTime": 0,
		"channel": 2,
		"type": "channel",
		"subtype": "noteOff",
		"noteNumber": 68,
		"velocity": 0,
		"time": 144960,
		"track": 4
	},
	{
		"deltaTime": 0,
		"channel": 2,
		"type": "channel",
		"subtype": "noteOff",
		"noteNumber": 63,
		"velocity": 0,
		"time": 144960,
		"track": 4
	},
	{
		"deltaTime": 0,
		"channel": 2,
		"type": "channel",
		"subtype": "noteOff",
		"noteNumber": 59,
		"velocity": 0,
		"time": 144960,
		"track": 4
	},
	{
		"deltaTime": 0,
		"channel": 2,
		"type": "channel",
		"noteNumber": 40,
		"velocity": 127,
		"subtype": "noteOn",
		"time": 144960,
		"track": 4
	},
	{
		"deltaTime": 60,
		"channel": 9,
		"type": "channel",
		"noteNumber": 42,
		"velocity": 127,
		"subtype": "noteOn",
		"time": 144960,
		"track": 5
	},
	{
		"deltaTime": 60,
		"channel": 9,
		"type": "channel",
		"subtype": "noteOff",
		"noteNumber": 42,
		"velocity": 0,
		"time": 145020,
		"track": 5
	},
	{
		"deltaTime": 60,
		"channel": 9,
		"type": "channel",
		"noteNumber": 42,
		"velocity": 127,
		"subtype": "noteOn",
		"time": 145080,
		"track": 5
	},
	{
		"deltaTime": 60,
		"channel": 9,
		"type": "channel",
		"subtype": "noteOff",
		"noteNumber": 42,
		"velocity": 0,
		"time": 145140,
		"track": 5
	},
	{
		"deltaTime": 0,
		"channel": 9,
		"type": "channel",
		"noteNumber": 42,
		"velocity": 127,
		"subtype": "noteOn",
		"time": 145200,
		"track": 5
	},
	{
		"deltaTime": 0,
		"channel": 9,
		"type": "channel",
		"noteNumber": 36,
		"velocity": 127,
		"subtype": "noteOn",
		"time": 145200,
		"track": 5
	},
	{
		"deltaTime": 60,
		"channel": 9,
		"type": "channel",
		"noteNumber": 35,
		"velocity": 127,
		"subtype": "noteOn",
		"time": 145200,
		"track": 5
	},
	{
		"deltaTime": 0,
		"channel": 9,
		"type": "channel",
		"subtype": "noteOff",
		"noteNumber": 35,
		"velocity": 0,
		"time": 145260,
		"track": 5
	},
	{
		"deltaTime": 0,
		"channel": 9,
		"type": "channel",
		"subtype": "noteOff",
		"noteNumber": 36,
		"velocity": 0,
		"time": 145260,
		"track": 5
	},
	{
		"deltaTime": 60,
		"channel": 9,
		"type": "channel",
		"subtype": "noteOff",
		"noteNumber": 42,
		"velocity": 0,
		"time": 145260,
		"track": 5
	},
	{
		"deltaTime": 0,
		"channel": 2,
		"type": "channel",
		"subtype": "noteOff",
		"noteNumber": 40,
		"velocity": 0,
		"time": 145320,
		"track": 4
	},
	{
		"deltaTime": 0,
		"channel": 2,
		"type": "channel",
		"noteNumber": 59,
		"velocity": 127,
		"subtype": "noteOn",
		"time": 145320,
		"track": 4
	},
	{
		"deltaTime": 0,
		"channel": 2,
		"type": "channel",
		"noteNumber": 63,
		"velocity": 127,
		"subtype": "noteOn",
		"time": 145320,
		"track": 4
	},
	{
		"deltaTime": 0,
		"channel": 2,
		"type": "channel",
		"noteNumber": 68,
		"velocity": 127,
		"subtype": "noteOn",
		"time": 145320,
		"track": 4
	},
	{
		"deltaTime": 60,
		"channel": 9,
		"type": "channel",
		"noteNumber": 42,
		"velocity": 127,
		"subtype": "noteOn",
		"time": 145320,
		"track": 5
	},
	{
		"deltaTime": 60,
		"channel": 9,
		"type": "channel",
		"subtype": "noteOff",
		"noteNumber": 42,
		"velocity": 0,
		"time": 145380,
		"track": 5
	},
	{
		"deltaTime": 0,
		"channel": 9,
		"type": "channel",
		"noteNumber": 42,
		"velocity": 127,
		"subtype": "noteOn",
		"time": 145440,
		"track": 5
	},
	{
		"deltaTime": 0,
		"channel": 9,
		"type": "channel",
		"noteNumber": 40,
		"velocity": 127,
		"subtype": "noteOn",
		"time": 145440,
		"track": 5
	},
	{
		"deltaTime": 60,
		"channel": 9,
		"type": "channel",
		"noteNumber": 38,
		"velocity": 127,
		"subtype": "noteOn",
		"time": 145440,
		"track": 5
	},
	{
		"deltaTime": 0,
		"channel": 9,
		"type": "channel",
		"subtype": "noteOff",
		"noteNumber": 38,
		"velocity": 0,
		"time": 145500,
		"track": 5
	},
	{
		"deltaTime": 0,
		"channel": 9,
		"type": "channel",
		"subtype": "noteOff",
		"noteNumber": 40,
		"velocity": 0,
		"time": 145500,
		"track": 5
	},
	{
		"deltaTime": 60,
		"channel": 9,
		"type": "channel",
		"subtype": "noteOff",
		"noteNumber": 42,
		"velocity": 0,
		"time": 145500,
		"track": 5
	},
	{
		"deltaTime": 0,
		"channel": 2,
		"type": "channel",
		"subtype": "noteOff",
		"noteNumber": 68,
		"velocity": 0,
		"time": 145560,
		"track": 4
	},
	{
		"deltaTime": 0,
		"channel": 2,
		"type": "channel",
		"subtype": "noteOff",
		"noteNumber": 63,
		"velocity": 0,
		"time": 145560,
		"track": 4
	},
	{
		"deltaTime": 0,
		"channel": 2,
		"type": "channel",
		"subtype": "noteOff",
		"noteNumber": 59,
		"velocity": 0,
		"time": 145560,
		"track": 4
	},
	{
		"deltaTime": 0,
		"channel": 2,
		"type": "channel",
		"noteNumber": 59,
		"velocity": 127,
		"subtype": "noteOn",
		"time": 145560,
		"track": 4
	},
	{
		"deltaTime": 0,
		"channel": 2,
		"type": "channel",
		"noteNumber": 63,
		"velocity": 127,
		"subtype": "noteOn",
		"time": 145560,
		"track": 4
	},
	{
		"deltaTime": 0,
		"channel": 2,
		"type": "channel",
		"noteNumber": 68,
		"velocity": 127,
		"subtype": "noteOn",
		"time": 145560,
		"track": 4
	},
	{
		"deltaTime": 60,
		"channel": 9,
		"type": "channel",
		"noteNumber": 42,
		"velocity": 127,
		"subtype": "noteOn",
		"time": 145560,
		"track": 5
	},
	{
		"deltaTime": 60,
		"channel": 9,
		"type": "channel",
		"subtype": "noteOff",
		"noteNumber": 42,
		"velocity": 0,
		"time": 145620,
		"track": 5
	},
	{
		"deltaTime": 60,
		"channel": 9,
		"type": "channel",
		"noteNumber": 42,
		"velocity": 127,
		"subtype": "noteOn",
		"time": 145680,
		"track": 5
	},
	{
		"deltaTime": 60,
		"channel": 9,
		"type": "channel",
		"subtype": "noteOff",
		"noteNumber": 42,
		"velocity": 0,
		"time": 145740,
		"track": 5
	},
	{
		"deltaTime": 60,
		"channel": 9,
		"type": "channel",
		"noteNumber": 42,
		"velocity": 127,
		"subtype": "noteOn",
		"time": 145800,
		"track": 5
	},
	{
		"deltaTime": 60,
		"channel": 9,
		"type": "channel",
		"subtype": "noteOff",
		"noteNumber": 42,
		"velocity": 0,
		"time": 145860,
		"track": 5
	},
	{
		"deltaTime": 0,
		"channel": 0,
		"type": "channel",
		"subtype": "noteOff",
		"noteNumber": 40,
		"velocity": 0,
		"time": 145920,
		"track": 2
	},
	{
		"deltaTime": 0,
		"channel": 0,
		"type": "channel",
		"noteNumber": 42,
		"velocity": 127,
		"subtype": "noteOn",
		"time": 145920,
		"track": 2
	},
	{
		"deltaTime": 0,
		"channel": 2,
		"type": "channel",
		"subtype": "noteOff",
		"noteNumber": 68,
		"velocity": 0,
		"time": 145920,
		"track": 4
	},
	{
		"deltaTime": 0,
		"channel": 2,
		"type": "channel",
		"subtype": "noteOff",
		"noteNumber": 63,
		"velocity": 0,
		"time": 145920,
		"track": 4
	},
	{
		"deltaTime": 0,
		"channel": 2,
		"type": "channel",
		"subtype": "noteOff",
		"noteNumber": 59,
		"velocity": 0,
		"time": 145920,
		"track": 4
	},
	{
		"deltaTime": 0,
		"channel": 2,
		"type": "channel",
		"noteNumber": 42,
		"velocity": 127,
		"subtype": "noteOn",
		"time": 145920,
		"track": 4
	},
	{
		"deltaTime": 0,
		"channel": 9,
		"type": "channel",
		"noteNumber": 42,
		"velocity": 127,
		"subtype": "noteOn",
		"time": 145920,
		"track": 5
	},
	{
		"deltaTime": 0,
		"channel": 9,
		"type": "channel",
		"noteNumber": 35,
		"velocity": 127,
		"subtype": "noteOn",
		"time": 145920,
		"track": 5
	},
	{
		"deltaTime": 60,
		"channel": 9,
		"type": "channel",
		"noteNumber": 36,
		"velocity": 127,
		"subtype": "noteOn",
		"time": 145920,
		"track": 5
	},
	{
		"deltaTime": 0,
		"channel": 9,
		"type": "channel",
		"subtype": "noteOff",
		"noteNumber": 36,
		"velocity": 0,
		"time": 145980,
		"track": 5
	},
	{
		"deltaTime": 0,
		"channel": 9,
		"type": "channel",
		"subtype": "noteOff",
		"noteNumber": 35,
		"velocity": 0,
		"time": 145980,
		"track": 5
	},
	{
		"deltaTime": 60,
		"channel": 9,
		"type": "channel",
		"subtype": "noteOff",
		"noteNumber": 42,
		"velocity": 0,
		"time": 145980,
		"track": 5
	},
	{
		"deltaTime": 60,
		"channel": 9,
		"type": "channel",
		"noteNumber": 42,
		"velocity": 127,
		"subtype": "noteOn",
		"time": 146040,
		"track": 5
	},
	{
		"deltaTime": 60,
		"channel": 9,
		"type": "channel",
		"subtype": "noteOff",
		"noteNumber": 42,
		"velocity": 0,
		"time": 146100,
		"track": 5
	},
	{
		"deltaTime": 0,
		"channel": 9,
		"type": "channel",
		"noteNumber": 42,
		"velocity": 127,
		"subtype": "noteOn",
		"time": 146160,
		"track": 5
	},
	{
		"deltaTime": 0,
		"channel": 9,
		"type": "channel",
		"noteNumber": 36,
		"velocity": 127,
		"subtype": "noteOn",
		"time": 146160,
		"track": 5
	},
	{
		"deltaTime": 60,
		"channel": 9,
		"type": "channel",
		"noteNumber": 35,
		"velocity": 127,
		"subtype": "noteOn",
		"time": 146160,
		"track": 5
	},
	{
		"deltaTime": 0,
		"channel": 9,
		"type": "channel",
		"subtype": "noteOff",
		"noteNumber": 35,
		"velocity": 0,
		"time": 146220,
		"track": 5
	},
	{
		"deltaTime": 0,
		"channel": 9,
		"type": "channel",
		"subtype": "noteOff",
		"noteNumber": 36,
		"velocity": 0,
		"time": 146220,
		"track": 5
	},
	{
		"deltaTime": 60,
		"channel": 9,
		"type": "channel",
		"subtype": "noteOff",
		"noteNumber": 42,
		"velocity": 0,
		"time": 146220,
		"track": 5
	},
	{
		"deltaTime": 0,
		"channel": 2,
		"type": "channel",
		"subtype": "noteOff",
		"noteNumber": 42,
		"velocity": 0,
		"time": 146280,
		"track": 4
	},
	{
		"deltaTime": 0,
		"channel": 2,
		"type": "channel",
		"noteNumber": 61,
		"velocity": 127,
		"subtype": "noteOn",
		"time": 146280,
		"track": 4
	},
	{
		"deltaTime": 0,
		"channel": 2,
		"type": "channel",
		"noteNumber": 66,
		"velocity": 127,
		"subtype": "noteOn",
		"time": 146280,
		"track": 4
	},
	{
		"deltaTime": 0,
		"channel": 2,
		"type": "channel",
		"noteNumber": 70,
		"velocity": 127,
		"subtype": "noteOn",
		"time": 146280,
		"track": 4
	},
	{
		"deltaTime": 60,
		"channel": 9,
		"type": "channel",
		"noteNumber": 42,
		"velocity": 127,
		"subtype": "noteOn",
		"time": 146280,
		"track": 5
	},
	{
		"deltaTime": 60,
		"channel": 9,
		"type": "channel",
		"subtype": "noteOff",
		"noteNumber": 42,
		"velocity": 0,
		"time": 146340,
		"track": 5
	},
	{
		"deltaTime": 0,
		"channel": 9,
		"type": "channel",
		"noteNumber": 42,
		"velocity": 127,
		"subtype": "noteOn",
		"time": 146400,
		"track": 5
	},
	{
		"deltaTime": 0,
		"channel": 9,
		"type": "channel",
		"noteNumber": 38,
		"velocity": 127,
		"subtype": "noteOn",
		"time": 146400,
		"track": 5
	},
	{
		"deltaTime": 60,
		"channel": 9,
		"type": "channel",
		"noteNumber": 40,
		"velocity": 127,
		"subtype": "noteOn",
		"time": 146400,
		"track": 5
	},
	{
		"deltaTime": 0,
		"channel": 9,
		"type": "channel",
		"subtype": "noteOff",
		"noteNumber": 40,
		"velocity": 0,
		"time": 146460,
		"track": 5
	},
	{
		"deltaTime": 0,
		"channel": 9,
		"type": "channel",
		"subtype": "noteOff",
		"noteNumber": 38,
		"velocity": 0,
		"time": 146460,
		"track": 5
	},
	{
		"deltaTime": 60,
		"channel": 9,
		"type": "channel",
		"subtype": "noteOff",
		"noteNumber": 42,
		"velocity": 0,
		"time": 146460,
		"track": 5
	},
	{
		"deltaTime": 0,
		"channel": 2,
		"type": "channel",
		"subtype": "noteOff",
		"noteNumber": 70,
		"velocity": 0,
		"time": 146520,
		"track": 4
	},
	{
		"deltaTime": 0,
		"channel": 2,
		"type": "channel",
		"subtype": "noteOff",
		"noteNumber": 66,
		"velocity": 0,
		"time": 146520,
		"track": 4
	},
	{
		"deltaTime": 0,
		"channel": 2,
		"type": "channel",
		"subtype": "noteOff",
		"noteNumber": 61,
		"velocity": 0,
		"time": 146520,
		"track": 4
	},
	{
		"deltaTime": 0,
		"channel": 2,
		"type": "channel",
		"noteNumber": 61,
		"velocity": 127,
		"subtype": "noteOn",
		"time": 146520,
		"track": 4
	},
	{
		"deltaTime": 0,
		"channel": 2,
		"type": "channel",
		"noteNumber": 66,
		"velocity": 127,
		"subtype": "noteOn",
		"time": 146520,
		"track": 4
	},
	{
		"deltaTime": 0,
		"channel": 2,
		"type": "channel",
		"noteNumber": 70,
		"velocity": 127,
		"subtype": "noteOn",
		"time": 146520,
		"track": 4
	},
	{
		"deltaTime": 60,
		"channel": 9,
		"type": "channel",
		"noteNumber": 42,
		"velocity": 127,
		"subtype": "noteOn",
		"time": 146520,
		"track": 5
	},
	{
		"deltaTime": 60,
		"channel": 9,
		"type": "channel",
		"subtype": "noteOff",
		"noteNumber": 42,
		"velocity": 0,
		"time": 146580,
		"track": 5
	},
	{
		"deltaTime": 60,
		"channel": 9,
		"type": "channel",
		"noteNumber": 42,
		"velocity": 127,
		"subtype": "noteOn",
		"time": 146640,
		"track": 5
	},
	{
		"deltaTime": 60,
		"channel": 9,
		"type": "channel",
		"subtype": "noteOff",
		"noteNumber": 42,
		"velocity": 0,
		"time": 146700,
		"track": 5
	},
	{
		"deltaTime": 0,
		"channel": 9,
		"type": "channel",
		"noteNumber": 42,
		"velocity": 127,
		"subtype": "noteOn",
		"time": 146760,
		"track": 5
	},
	{
		"deltaTime": 0,
		"channel": 9,
		"type": "channel",
		"noteNumber": 36,
		"velocity": 127,
		"subtype": "noteOn",
		"time": 146760,
		"track": 5
	},
	{
		"deltaTime": 60,
		"channel": 9,
		"type": "channel",
		"noteNumber": 35,
		"velocity": 127,
		"subtype": "noteOn",
		"time": 146760,
		"track": 5
	},
	{
		"deltaTime": 0,
		"channel": 9,
		"type": "channel",
		"subtype": "noteOff",
		"noteNumber": 35,
		"velocity": 0,
		"time": 146820,
		"track": 5
	},
	{
		"deltaTime": 0,
		"channel": 9,
		"type": "channel",
		"subtype": "noteOff",
		"noteNumber": 36,
		"velocity": 0,
		"time": 146820,
		"track": 5
	},
	{
		"deltaTime": 60,
		"channel": 9,
		"type": "channel",
		"subtype": "noteOff",
		"noteNumber": 42,
		"velocity": 0,
		"time": 146820,
		"track": 5
	},
	{
		"deltaTime": 0,
		"channel": 0,
		"type": "channel",
		"subtype": "noteOff",
		"noteNumber": 42,
		"velocity": 0,
		"time": 146880,
		"track": 2
	},
	{
		"deltaTime": 0,
		"channel": 0,
		"type": "channel",
		"noteNumber": 35,
		"velocity": 127,
		"subtype": "noteOn",
		"time": 146880,
		"track": 2
	},
	{
		"deltaTime": 0,
		"channel": 2,
		"type": "channel",
		"subtype": "noteOff",
		"noteNumber": 70,
		"velocity": 0,
		"time": 146880,
		"track": 4
	},
	{
		"deltaTime": 0,
		"channel": 2,
		"type": "channel",
		"subtype": "noteOff",
		"noteNumber": 66,
		"velocity": 0,
		"time": 146880,
		"track": 4
	},
	{
		"deltaTime": 0,
		"channel": 2,
		"type": "channel",
		"subtype": "noteOff",
		"noteNumber": 61,
		"velocity": 0,
		"time": 146880,
		"track": 4
	},
	{
		"deltaTime": 0,
		"channel": 2,
		"type": "channel",
		"noteNumber": 47,
		"velocity": 127,
		"subtype": "noteOn",
		"time": 146880,
		"track": 4
	},
	{
		"deltaTime": 60,
		"channel": 9,
		"type": "channel",
		"noteNumber": 42,
		"velocity": 127,
		"subtype": "noteOn",
		"time": 146880,
		"track": 5
	},
	{
		"deltaTime": 60,
		"channel": 9,
		"type": "channel",
		"subtype": "noteOff",
		"noteNumber": 42,
		"velocity": 0,
		"time": 146940,
		"track": 5
	},
	{
		"deltaTime": 60,
		"channel": 9,
		"type": "channel",
		"noteNumber": 42,
		"velocity": 127,
		"subtype": "noteOn",
		"time": 147000,
		"track": 5
	},
	{
		"deltaTime": 60,
		"channel": 9,
		"type": "channel",
		"subtype": "noteOff",
		"noteNumber": 42,
		"velocity": 0,
		"time": 147060,
		"track": 5
	},
	{
		"deltaTime": 0,
		"channel": 9,
		"type": "channel",
		"noteNumber": 42,
		"velocity": 127,
		"subtype": "noteOn",
		"time": 147120,
		"track": 5
	},
	{
		"deltaTime": 0,
		"channel": 9,
		"type": "channel",
		"noteNumber": 36,
		"velocity": 127,
		"subtype": "noteOn",
		"time": 147120,
		"track": 5
	},
	{
		"deltaTime": 60,
		"channel": 9,
		"type": "channel",
		"noteNumber": 35,
		"velocity": 127,
		"subtype": "noteOn",
		"time": 147120,
		"track": 5
	},
	{
		"deltaTime": 0,
		"channel": 9,
		"type": "channel",
		"subtype": "noteOff",
		"noteNumber": 35,
		"velocity": 0,
		"time": 147180,
		"track": 5
	},
	{
		"deltaTime": 0,
		"channel": 9,
		"type": "channel",
		"subtype": "noteOff",
		"noteNumber": 36,
		"velocity": 0,
		"time": 147180,
		"track": 5
	},
	{
		"deltaTime": 60,
		"channel": 9,
		"type": "channel",
		"subtype": "noteOff",
		"noteNumber": 42,
		"velocity": 0,
		"time": 147180,
		"track": 5
	},
	{
		"deltaTime": 0,
		"channel": 2,
		"type": "channel",
		"subtype": "noteOff",
		"noteNumber": 47,
		"velocity": 0,
		"time": 147240,
		"track": 4
	},
	{
		"deltaTime": 0,
		"channel": 2,
		"type": "channel",
		"noteNumber": 61,
		"velocity": 127,
		"subtype": "noteOn",
		"time": 147240,
		"track": 4
	},
	{
		"deltaTime": 0,
		"channel": 2,
		"type": "channel",
		"noteNumber": 66,
		"velocity": 127,
		"subtype": "noteOn",
		"time": 147240,
		"track": 4
	},
	{
		"deltaTime": 0,
		"channel": 2,
		"type": "channel",
		"noteNumber": 70,
		"velocity": 127,
		"subtype": "noteOn",
		"time": 147240,
		"track": 4
	},
	{
		"deltaTime": 60,
		"channel": 9,
		"type": "channel",
		"noteNumber": 42,
		"velocity": 127,
		"subtype": "noteOn",
		"time": 147240,
		"track": 5
	},
	{
		"deltaTime": 60,
		"channel": 9,
		"type": "channel",
		"subtype": "noteOff",
		"noteNumber": 42,
		"velocity": 0,
		"time": 147300,
		"track": 5
	},
	{
		"deltaTime": 0,
		"channel": 0,
		"type": "channel",
		"subtype": "noteOff",
		"noteNumber": 35,
		"velocity": 0,
		"time": 147360,
		"track": 2
	},
	{
		"deltaTime": 0,
		"channel": 0,
		"type": "channel",
		"noteNumber": 34,
		"velocity": 127,
		"subtype": "noteOn",
		"time": 147360,
		"track": 2
	},
	{
		"deltaTime": 0,
		"channel": 9,
		"type": "channel",
		"noteNumber": 42,
		"velocity": 127,
		"subtype": "noteOn",
		"time": 147360,
		"track": 5
	},
	{
		"deltaTime": 0,
		"channel": 9,
		"type": "channel",
		"noteNumber": 40,
		"velocity": 127,
		"subtype": "noteOn",
		"time": 147360,
		"track": 5
	},
	{
		"deltaTime": 60,
		"channel": 9,
		"type": "channel",
		"noteNumber": 38,
		"velocity": 127,
		"subtype": "noteOn",
		"time": 147360,
		"track": 5
	},
	{
		"deltaTime": 0,
		"channel": 9,
		"type": "channel",
		"subtype": "noteOff",
		"noteNumber": 38,
		"velocity": 0,
		"time": 147420,
		"track": 5
	},
	{
		"deltaTime": 0,
		"channel": 9,
		"type": "channel",
		"subtype": "noteOff",
		"noteNumber": 40,
		"velocity": 0,
		"time": 147420,
		"track": 5
	},
	{
		"deltaTime": 60,
		"channel": 9,
		"type": "channel",
		"subtype": "noteOff",
		"noteNumber": 42,
		"velocity": 0,
		"time": 147420,
		"track": 5
	},
	{
		"deltaTime": 0,
		"channel": 2,
		"type": "channel",
		"subtype": "noteOff",
		"noteNumber": 70,
		"velocity": 0,
		"time": 147480,
		"track": 4
	},
	{
		"deltaTime": 0,
		"channel": 2,
		"type": "channel",
		"subtype": "noteOff",
		"noteNumber": 66,
		"velocity": 0,
		"time": 147480,
		"track": 4
	},
	{
		"deltaTime": 0,
		"channel": 2,
		"type": "channel",
		"subtype": "noteOff",
		"noteNumber": 61,
		"velocity": 0,
		"time": 147480,
		"track": 4
	},
	{
		"deltaTime": 0,
		"channel": 2,
		"type": "channel",
		"noteNumber": 61,
		"velocity": 127,
		"subtype": "noteOn",
		"time": 147480,
		"track": 4
	},
	{
		"deltaTime": 0,
		"channel": 2,
		"type": "channel",
		"noteNumber": 66,
		"velocity": 127,
		"subtype": "noteOn",
		"time": 147480,
		"track": 4
	},
	{
		"deltaTime": 0,
		"channel": 2,
		"type": "channel",
		"noteNumber": 71,
		"velocity": 127,
		"subtype": "noteOn",
		"time": 147480,
		"track": 4
	},
	{
		"deltaTime": 60,
		"channel": 9,
		"type": "channel",
		"noteNumber": 42,
		"velocity": 127,
		"subtype": "noteOn",
		"time": 147480,
		"track": 5
	},
	{
		"deltaTime": 60,
		"channel": 9,
		"type": "channel",
		"subtype": "noteOff",
		"noteNumber": 42,
		"velocity": 0,
		"time": 147540,
		"track": 5
	},
	{
		"deltaTime": 60,
		"channel": 9,
		"type": "channel",
		"noteNumber": 42,
		"velocity": 127,
		"subtype": "noteOn",
		"time": 147600,
		"track": 5
	},
	{
		"deltaTime": 60,
		"channel": 9,
		"type": "channel",
		"subtype": "noteOff",
		"noteNumber": 42,
		"velocity": 0,
		"time": 147660,
		"track": 5
	},
	{
		"deltaTime": 60,
		"channel": 9,
		"type": "channel",
		"noteNumber": 42,
		"velocity": 127,
		"subtype": "noteOn",
		"time": 147720,
		"track": 5
	},
	{
		"deltaTime": 60,
		"channel": 9,
		"type": "channel",
		"subtype": "noteOff",
		"noteNumber": 42,
		"velocity": 0,
		"time": 147780,
		"track": 5
	},
	{
		"deltaTime": 0,
		"channel": 0,
		"type": "channel",
		"subtype": "noteOff",
		"noteNumber": 34,
		"velocity": 0,
		"time": 147840,
		"track": 2
	},
	{
		"deltaTime": 0,
		"channel": 0,
		"type": "channel",
		"noteNumber": 32,
		"velocity": 127,
		"subtype": "noteOn",
		"time": 147840,
		"track": 2
	},
	{
		"deltaTime": 0,
		"channel": 2,
		"type": "channel",
		"subtype": "noteOff",
		"noteNumber": 71,
		"velocity": 0,
		"time": 147840,
		"track": 4
	},
	{
		"deltaTime": 0,
		"channel": 2,
		"type": "channel",
		"subtype": "noteOff",
		"noteNumber": 66,
		"velocity": 0,
		"time": 147840,
		"track": 4
	},
	{
		"deltaTime": 0,
		"channel": 2,
		"type": "channel",
		"subtype": "noteOff",
		"noteNumber": 61,
		"velocity": 0,
		"time": 147840,
		"track": 4
	},
	{
		"deltaTime": 0,
		"channel": 2,
		"type": "channel",
		"noteNumber": 44,
		"velocity": 127,
		"subtype": "noteOn",
		"time": 147840,
		"track": 4
	},
	{
		"deltaTime": 0,
		"channel": 9,
		"type": "channel",
		"noteNumber": 42,
		"velocity": 127,
		"subtype": "noteOn",
		"time": 147840,
		"track": 5
	},
	{
		"deltaTime": 0,
		"channel": 9,
		"type": "channel",
		"noteNumber": 35,
		"velocity": 127,
		"subtype": "noteOn",
		"time": 147840,
		"track": 5
	},
	{
		"deltaTime": 60,
		"channel": 9,
		"type": "channel",
		"noteNumber": 36,
		"velocity": 127,
		"subtype": "noteOn",
		"time": 147840,
		"track": 5
	},
	{
		"deltaTime": 0,
		"channel": 9,
		"type": "channel",
		"subtype": "noteOff",
		"noteNumber": 36,
		"velocity": 0,
		"time": 147900,
		"track": 5
	},
	{
		"deltaTime": 0,
		"channel": 9,
		"type": "channel",
		"subtype": "noteOff",
		"noteNumber": 35,
		"velocity": 0,
		"time": 147900,
		"track": 5
	},
	{
		"deltaTime": 60,
		"channel": 9,
		"type": "channel",
		"subtype": "noteOff",
		"noteNumber": 42,
		"velocity": 0,
		"time": 147900,
		"track": 5
	},
	{
		"deltaTime": 60,
		"channel": 9,
		"type": "channel",
		"noteNumber": 42,
		"velocity": 127,
		"subtype": "noteOn",
		"time": 147960,
		"track": 5
	},
	{
		"deltaTime": 60,
		"channel": 9,
		"type": "channel",
		"subtype": "noteOff",
		"noteNumber": 42,
		"velocity": 0,
		"time": 148020,
		"track": 5
	},
	{
		"deltaTime": 0,
		"channel": 9,
		"type": "channel",
		"noteNumber": 42,
		"velocity": 127,
		"subtype": "noteOn",
		"time": 148080,
		"track": 5
	},
	{
		"deltaTime": 0,
		"channel": 9,
		"type": "channel",
		"noteNumber": 36,
		"velocity": 127,
		"subtype": "noteOn",
		"time": 148080,
		"track": 5
	},
	{
		"deltaTime": 60,
		"channel": 9,
		"type": "channel",
		"noteNumber": 35,
		"velocity": 127,
		"subtype": "noteOn",
		"time": 148080,
		"track": 5
	},
	{
		"deltaTime": 0,
		"channel": 9,
		"type": "channel",
		"subtype": "noteOff",
		"noteNumber": 35,
		"velocity": 0,
		"time": 148140,
		"track": 5
	},
	{
		"deltaTime": 0,
		"channel": 9,
		"type": "channel",
		"subtype": "noteOff",
		"noteNumber": 36,
		"velocity": 0,
		"time": 148140,
		"track": 5
	},
	{
		"deltaTime": 60,
		"channel": 9,
		"type": "channel",
		"subtype": "noteOff",
		"noteNumber": 42,
		"velocity": 0,
		"time": 148140,
		"track": 5
	},
	{
		"deltaTime": 0,
		"channel": 2,
		"type": "channel",
		"subtype": "noteOff",
		"noteNumber": 44,
		"velocity": 0,
		"time": 148200,
		"track": 4
	},
	{
		"deltaTime": 0,
		"channel": 2,
		"type": "channel",
		"noteNumber": 59,
		"velocity": 127,
		"subtype": "noteOn",
		"time": 148200,
		"track": 4
	},
	{
		"deltaTime": 0,
		"channel": 2,
		"type": "channel",
		"noteNumber": 63,
		"velocity": 127,
		"subtype": "noteOn",
		"time": 148200,
		"track": 4
	},
	{
		"deltaTime": 0,
		"channel": 2,
		"type": "channel",
		"noteNumber": 68,
		"velocity": 127,
		"subtype": "noteOn",
		"time": 148200,
		"track": 4
	},
	{
		"deltaTime": 60,
		"channel": 9,
		"type": "channel",
		"noteNumber": 42,
		"velocity": 127,
		"subtype": "noteOn",
		"time": 148200,
		"track": 5
	},
	{
		"deltaTime": 60,
		"channel": 9,
		"type": "channel",
		"subtype": "noteOff",
		"noteNumber": 42,
		"velocity": 0,
		"time": 148260,
		"track": 5
	},
	{
		"deltaTime": 0,
		"channel": 9,
		"type": "channel",
		"noteNumber": 42,
		"velocity": 127,
		"subtype": "noteOn",
		"time": 148320,
		"track": 5
	},
	{
		"deltaTime": 0,
		"channel": 9,
		"type": "channel",
		"noteNumber": 38,
		"velocity": 127,
		"subtype": "noteOn",
		"time": 148320,
		"track": 5
	},
	{
		"deltaTime": 60,
		"channel": 9,
		"type": "channel",
		"noteNumber": 40,
		"velocity": 127,
		"subtype": "noteOn",
		"time": 148320,
		"track": 5
	},
	{
		"deltaTime": 0,
		"channel": 9,
		"type": "channel",
		"subtype": "noteOff",
		"noteNumber": 40,
		"velocity": 0,
		"time": 148380,
		"track": 5
	},
	{
		"deltaTime": 0,
		"channel": 9,
		"type": "channel",
		"subtype": "noteOff",
		"noteNumber": 38,
		"velocity": 0,
		"time": 148380,
		"track": 5
	},
	{
		"deltaTime": 60,
		"channel": 9,
		"type": "channel",
		"subtype": "noteOff",
		"noteNumber": 42,
		"velocity": 0,
		"time": 148380,
		"track": 5
	},
	{
		"deltaTime": 0,
		"channel": 2,
		"type": "channel",
		"subtype": "noteOff",
		"noteNumber": 68,
		"velocity": 0,
		"time": 148440,
		"track": 4
	},
	{
		"deltaTime": 0,
		"channel": 2,
		"type": "channel",
		"subtype": "noteOff",
		"noteNumber": 63,
		"velocity": 0,
		"time": 148440,
		"track": 4
	},
	{
		"deltaTime": 0,
		"channel": 2,
		"type": "channel",
		"subtype": "noteOff",
		"noteNumber": 59,
		"velocity": 0,
		"time": 148440,
		"track": 4
	},
	{
		"deltaTime": 0,
		"channel": 2,
		"type": "channel",
		"noteNumber": 59,
		"velocity": 127,
		"subtype": "noteOn",
		"time": 148440,
		"track": 4
	},
	{
		"deltaTime": 0,
		"channel": 2,
		"type": "channel",
		"noteNumber": 63,
		"velocity": 127,
		"subtype": "noteOn",
		"time": 148440,
		"track": 4
	},
	{
		"deltaTime": 0,
		"channel": 2,
		"type": "channel",
		"noteNumber": 68,
		"velocity": 127,
		"subtype": "noteOn",
		"time": 148440,
		"track": 4
	},
	{
		"deltaTime": 60,
		"channel": 9,
		"type": "channel",
		"noteNumber": 42,
		"velocity": 127,
		"subtype": "noteOn",
		"time": 148440,
		"track": 5
	},
	{
		"deltaTime": 60,
		"channel": 9,
		"type": "channel",
		"subtype": "noteOff",
		"noteNumber": 42,
		"velocity": 0,
		"time": 148500,
		"track": 5
	},
	{
		"deltaTime": 60,
		"channel": 9,
		"type": "channel",
		"noteNumber": 42,
		"velocity": 127,
		"subtype": "noteOn",
		"time": 148560,
		"track": 5
	},
	{
		"deltaTime": 60,
		"channel": 9,
		"type": "channel",
		"subtype": "noteOff",
		"noteNumber": 42,
		"velocity": 0,
		"time": 148620,
		"track": 5
	},
	{
		"deltaTime": 0,
		"channel": 9,
		"type": "channel",
		"noteNumber": 42,
		"velocity": 127,
		"subtype": "noteOn",
		"time": 148680,
		"track": 5
	},
	{
		"deltaTime": 0,
		"channel": 9,
		"type": "channel",
		"noteNumber": 36,
		"velocity": 127,
		"subtype": "noteOn",
		"time": 148680,
		"track": 5
	},
	{
		"deltaTime": 60,
		"channel": 9,
		"type": "channel",
		"noteNumber": 35,
		"velocity": 127,
		"subtype": "noteOn",
		"time": 148680,
		"track": 5
	},
	{
		"deltaTime": 0,
		"channel": 9,
		"type": "channel",
		"subtype": "noteOff",
		"noteNumber": 35,
		"velocity": 0,
		"time": 148740,
		"track": 5
	},
	{
		"deltaTime": 0,
		"channel": 9,
		"type": "channel",
		"subtype": "noteOff",
		"noteNumber": 36,
		"velocity": 0,
		"time": 148740,
		"track": 5
	},
	{
		"deltaTime": 60,
		"channel": 9,
		"type": "channel",
		"subtype": "noteOff",
		"noteNumber": 42,
		"velocity": 0,
		"time": 148740,
		"track": 5
	},
	{
		"deltaTime": 0,
		"channel": 0,
		"type": "channel",
		"subtype": "noteOff",
		"noteNumber": 32,
		"velocity": 0,
		"time": 148800,
		"track": 2
	},
	{
		"deltaTime": 0,
		"channel": 0,
		"type": "channel",
		"noteNumber": 40,
		"velocity": 127,
		"subtype": "noteOn",
		"time": 148800,
		"track": 2
	},
	{
		"deltaTime": 0,
		"channel": 2,
		"type": "channel",
		"subtype": "noteOff",
		"noteNumber": 68,
		"velocity": 0,
		"time": 148800,
		"track": 4
	},
	{
		"deltaTime": 0,
		"channel": 2,
		"type": "channel",
		"subtype": "noteOff",
		"noteNumber": 63,
		"velocity": 0,
		"time": 148800,
		"track": 4
	},
	{
		"deltaTime": 0,
		"channel": 2,
		"type": "channel",
		"subtype": "noteOff",
		"noteNumber": 59,
		"velocity": 0,
		"time": 148800,
		"track": 4
	},
	{
		"deltaTime": 0,
		"channel": 2,
		"type": "channel",
		"noteNumber": 40,
		"velocity": 127,
		"subtype": "noteOn",
		"time": 148800,
		"track": 4
	},
	{
		"deltaTime": 60,
		"channel": 9,
		"type": "channel",
		"noteNumber": 42,
		"velocity": 127,
		"subtype": "noteOn",
		"time": 148800,
		"track": 5
	},
	{
		"deltaTime": 60,
		"channel": 9,
		"type": "channel",
		"subtype": "noteOff",
		"noteNumber": 42,
		"velocity": 0,
		"time": 148860,
		"track": 5
	},
	{
		"deltaTime": 60,
		"channel": 9,
		"type": "channel",
		"noteNumber": 42,
		"velocity": 127,
		"subtype": "noteOn",
		"time": 148920,
		"track": 5
	},
	{
		"deltaTime": 60,
		"channel": 9,
		"type": "channel",
		"subtype": "noteOff",
		"noteNumber": 42,
		"velocity": 0,
		"time": 148980,
		"track": 5
	},
	{
		"deltaTime": 0,
		"channel": 9,
		"type": "channel",
		"noteNumber": 42,
		"velocity": 127,
		"subtype": "noteOn",
		"time": 149040,
		"track": 5
	},
	{
		"deltaTime": 0,
		"channel": 9,
		"type": "channel",
		"noteNumber": 36,
		"velocity": 127,
		"subtype": "noteOn",
		"time": 149040,
		"track": 5
	},
	{
		"deltaTime": 60,
		"channel": 9,
		"type": "channel",
		"noteNumber": 35,
		"velocity": 127,
		"subtype": "noteOn",
		"time": 149040,
		"track": 5
	},
	{
		"deltaTime": 0,
		"channel": 9,
		"type": "channel",
		"subtype": "noteOff",
		"noteNumber": 35,
		"velocity": 0,
		"time": 149100,
		"track": 5
	},
	{
		"deltaTime": 0,
		"channel": 9,
		"type": "channel",
		"subtype": "noteOff",
		"noteNumber": 36,
		"velocity": 0,
		"time": 149100,
		"track": 5
	},
	{
		"deltaTime": 60,
		"channel": 9,
		"type": "channel",
		"subtype": "noteOff",
		"noteNumber": 42,
		"velocity": 0,
		"time": 149100,
		"track": 5
	},
	{
		"deltaTime": 0,
		"channel": 2,
		"type": "channel",
		"subtype": "noteOff",
		"noteNumber": 40,
		"velocity": 0,
		"time": 149160,
		"track": 4
	},
	{
		"deltaTime": 0,
		"channel": 2,
		"type": "channel",
		"noteNumber": 59,
		"velocity": 127,
		"subtype": "noteOn",
		"time": 149160,
		"track": 4
	},
	{
		"deltaTime": 0,
		"channel": 2,
		"type": "channel",
		"noteNumber": 63,
		"velocity": 127,
		"subtype": "noteOn",
		"time": 149160,
		"track": 4
	},
	{
		"deltaTime": 0,
		"channel": 2,
		"type": "channel",
		"noteNumber": 68,
		"velocity": 127,
		"subtype": "noteOn",
		"time": 149160,
		"track": 4
	},
	{
		"deltaTime": 60,
		"channel": 9,
		"type": "channel",
		"noteNumber": 42,
		"velocity": 127,
		"subtype": "noteOn",
		"time": 149160,
		"track": 5
	},
	{
		"deltaTime": 60,
		"channel": 9,
		"type": "channel",
		"subtype": "noteOff",
		"noteNumber": 42,
		"velocity": 0,
		"time": 149220,
		"track": 5
	},
	{
		"deltaTime": 0,
		"channel": 9,
		"type": "channel",
		"noteNumber": 42,
		"velocity": 127,
		"subtype": "noteOn",
		"time": 149280,
		"track": 5
	},
	{
		"deltaTime": 0,
		"channel": 9,
		"type": "channel",
		"noteNumber": 40,
		"velocity": 127,
		"subtype": "noteOn",
		"time": 149280,
		"track": 5
	},
	{
		"deltaTime": 60,
		"channel": 9,
		"type": "channel",
		"noteNumber": 38,
		"velocity": 127,
		"subtype": "noteOn",
		"time": 149280,
		"track": 5
	},
	{
		"deltaTime": 0,
		"channel": 9,
		"type": "channel",
		"subtype": "noteOff",
		"noteNumber": 38,
		"velocity": 0,
		"time": 149340,
		"track": 5
	},
	{
		"deltaTime": 0,
		"channel": 9,
		"type": "channel",
		"subtype": "noteOff",
		"noteNumber": 40,
		"velocity": 0,
		"time": 149340,
		"track": 5
	},
	{
		"deltaTime": 60,
		"channel": 9,
		"type": "channel",
		"subtype": "noteOff",
		"noteNumber": 42,
		"velocity": 0,
		"time": 149340,
		"track": 5
	},
	{
		"deltaTime": 0,
		"channel": 2,
		"type": "channel",
		"subtype": "noteOff",
		"noteNumber": 68,
		"velocity": 0,
		"time": 149400,
		"track": 4
	},
	{
		"deltaTime": 0,
		"channel": 2,
		"type": "channel",
		"subtype": "noteOff",
		"noteNumber": 63,
		"velocity": 0,
		"time": 149400,
		"track": 4
	},
	{
		"deltaTime": 0,
		"channel": 2,
		"type": "channel",
		"subtype": "noteOff",
		"noteNumber": 59,
		"velocity": 0,
		"time": 149400,
		"track": 4
	},
	{
		"deltaTime": 0,
		"channel": 2,
		"type": "channel",
		"noteNumber": 59,
		"velocity": 127,
		"subtype": "noteOn",
		"time": 149400,
		"track": 4
	},
	{
		"deltaTime": 0,
		"channel": 2,
		"type": "channel",
		"noteNumber": 63,
		"velocity": 127,
		"subtype": "noteOn",
		"time": 149400,
		"track": 4
	},
	{
		"deltaTime": 0,
		"channel": 2,
		"type": "channel",
		"noteNumber": 68,
		"velocity": 127,
		"subtype": "noteOn",
		"time": 149400,
		"track": 4
	},
	{
		"deltaTime": 60,
		"channel": 9,
		"type": "channel",
		"noteNumber": 42,
		"velocity": 127,
		"subtype": "noteOn",
		"time": 149400,
		"track": 5
	},
	{
		"deltaTime": 60,
		"channel": 9,
		"type": "channel",
		"subtype": "noteOff",
		"noteNumber": 42,
		"velocity": 0,
		"time": 149460,
		"track": 5
	},
	{
		"deltaTime": 60,
		"channel": 9,
		"type": "channel",
		"noteNumber": 42,
		"velocity": 127,
		"subtype": "noteOn",
		"time": 149520,
		"track": 5
	},
	{
		"deltaTime": 60,
		"channel": 9,
		"type": "channel",
		"subtype": "noteOff",
		"noteNumber": 42,
		"velocity": 0,
		"time": 149580,
		"track": 5
	},
	{
		"deltaTime": 60,
		"channel": 9,
		"type": "channel",
		"noteNumber": 42,
		"velocity": 127,
		"subtype": "noteOn",
		"time": 149640,
		"track": 5
	},
	{
		"deltaTime": 60,
		"channel": 9,
		"type": "channel",
		"subtype": "noteOff",
		"noteNumber": 42,
		"velocity": 0,
		"time": 149700,
		"track": 5
	},
	{
		"deltaTime": 0,
		"channel": 0,
		"type": "channel",
		"subtype": "noteOff",
		"noteNumber": 40,
		"velocity": 0,
		"time": 149760,
		"track": 2
	},
	{
		"deltaTime": 0,
		"channel": 0,
		"type": "channel",
		"noteNumber": 42,
		"velocity": 127,
		"subtype": "noteOn",
		"time": 149760,
		"track": 2
	},
	{
		"deltaTime": 0,
		"channel": 2,
		"type": "channel",
		"subtype": "noteOff",
		"noteNumber": 68,
		"velocity": 0,
		"time": 149760,
		"track": 4
	},
	{
		"deltaTime": 0,
		"channel": 2,
		"type": "channel",
		"subtype": "noteOff",
		"noteNumber": 63,
		"velocity": 0,
		"time": 149760,
		"track": 4
	},
	{
		"deltaTime": 0,
		"channel": 2,
		"type": "channel",
		"subtype": "noteOff",
		"noteNumber": 59,
		"velocity": 0,
		"time": 149760,
		"track": 4
	},
	{
		"deltaTime": 0,
		"channel": 2,
		"type": "channel",
		"noteNumber": 42,
		"velocity": 127,
		"subtype": "noteOn",
		"time": 149760,
		"track": 4
	},
	{
		"deltaTime": 0,
		"channel": 9,
		"type": "channel",
		"noteNumber": 42,
		"velocity": 127,
		"subtype": "noteOn",
		"time": 149760,
		"track": 5
	},
	{
		"deltaTime": 0,
		"channel": 9,
		"type": "channel",
		"noteNumber": 35,
		"velocity": 127,
		"subtype": "noteOn",
		"time": 149760,
		"track": 5
	},
	{
		"deltaTime": 60,
		"channel": 9,
		"type": "channel",
		"noteNumber": 36,
		"velocity": 127,
		"subtype": "noteOn",
		"time": 149760,
		"track": 5
	},
	{
		"deltaTime": 0,
		"channel": 9,
		"type": "channel",
		"subtype": "noteOff",
		"noteNumber": 36,
		"velocity": 0,
		"time": 149820,
		"track": 5
	},
	{
		"deltaTime": 0,
		"channel": 9,
		"type": "channel",
		"subtype": "noteOff",
		"noteNumber": 35,
		"velocity": 0,
		"time": 149820,
		"track": 5
	},
	{
		"deltaTime": 60,
		"channel": 9,
		"type": "channel",
		"subtype": "noteOff",
		"noteNumber": 42,
		"velocity": 0,
		"time": 149820,
		"track": 5
	},
	{
		"deltaTime": 60,
		"channel": 9,
		"type": "channel",
		"noteNumber": 42,
		"velocity": 127,
		"subtype": "noteOn",
		"time": 149880,
		"track": 5
	},
	{
		"deltaTime": 60,
		"channel": 9,
		"type": "channel",
		"subtype": "noteOff",
		"noteNumber": 42,
		"velocity": 0,
		"time": 149940,
		"track": 5
	},
	{
		"deltaTime": 0,
		"channel": 9,
		"type": "channel",
		"noteNumber": 42,
		"velocity": 127,
		"subtype": "noteOn",
		"time": 150000,
		"track": 5
	},
	{
		"deltaTime": 0,
		"channel": 9,
		"type": "channel",
		"noteNumber": 36,
		"velocity": 127,
		"subtype": "noteOn",
		"time": 150000,
		"track": 5
	},
	{
		"deltaTime": 60,
		"channel": 9,
		"type": "channel",
		"noteNumber": 35,
		"velocity": 127,
		"subtype": "noteOn",
		"time": 150000,
		"track": 5
	},
	{
		"deltaTime": 0,
		"channel": 9,
		"type": "channel",
		"subtype": "noteOff",
		"noteNumber": 35,
		"velocity": 0,
		"time": 150060,
		"track": 5
	},
	{
		"deltaTime": 0,
		"channel": 9,
		"type": "channel",
		"subtype": "noteOff",
		"noteNumber": 36,
		"velocity": 0,
		"time": 150060,
		"track": 5
	},
	{
		"deltaTime": 60,
		"channel": 9,
		"type": "channel",
		"subtype": "noteOff",
		"noteNumber": 42,
		"velocity": 0,
		"time": 150060,
		"track": 5
	},
	{
		"deltaTime": 0,
		"channel": 2,
		"type": "channel",
		"subtype": "noteOff",
		"noteNumber": 42,
		"velocity": 0,
		"time": 150120,
		"track": 4
	},
	{
		"deltaTime": 0,
		"channel": 2,
		"type": "channel",
		"noteNumber": 61,
		"velocity": 127,
		"subtype": "noteOn",
		"time": 150120,
		"track": 4
	},
	{
		"deltaTime": 0,
		"channel": 2,
		"type": "channel",
		"noteNumber": 66,
		"velocity": 127,
		"subtype": "noteOn",
		"time": 150120,
		"track": 4
	},
	{
		"deltaTime": 0,
		"channel": 2,
		"type": "channel",
		"noteNumber": 70,
		"velocity": 127,
		"subtype": "noteOn",
		"time": 150120,
		"track": 4
	},
	{
		"deltaTime": 60,
		"channel": 9,
		"type": "channel",
		"noteNumber": 42,
		"velocity": 127,
		"subtype": "noteOn",
		"time": 150120,
		"track": 5
	},
	{
		"deltaTime": 60,
		"channel": 9,
		"type": "channel",
		"subtype": "noteOff",
		"noteNumber": 42,
		"velocity": 0,
		"time": 150180,
		"track": 5
	},
	{
		"deltaTime": 0,
		"channel": 9,
		"type": "channel",
		"noteNumber": 42,
		"velocity": 127,
		"subtype": "noteOn",
		"time": 150240,
		"track": 5
	},
	{
		"deltaTime": 0,
		"channel": 9,
		"type": "channel",
		"noteNumber": 38,
		"velocity": 127,
		"subtype": "noteOn",
		"time": 150240,
		"track": 5
	},
	{
		"deltaTime": 60,
		"channel": 9,
		"type": "channel",
		"noteNumber": 40,
		"velocity": 127,
		"subtype": "noteOn",
		"time": 150240,
		"track": 5
	},
	{
		"deltaTime": 0,
		"channel": 9,
		"type": "channel",
		"subtype": "noteOff",
		"noteNumber": 40,
		"velocity": 0,
		"time": 150300,
		"track": 5
	},
	{
		"deltaTime": 0,
		"channel": 9,
		"type": "channel",
		"subtype": "noteOff",
		"noteNumber": 38,
		"velocity": 0,
		"time": 150300,
		"track": 5
	},
	{
		"deltaTime": 60,
		"channel": 9,
		"type": "channel",
		"subtype": "noteOff",
		"noteNumber": 42,
		"velocity": 0,
		"time": 150300,
		"track": 5
	},
	{
		"deltaTime": 0,
		"channel": 2,
		"type": "channel",
		"subtype": "noteOff",
		"noteNumber": 70,
		"velocity": 0,
		"time": 150360,
		"track": 4
	},
	{
		"deltaTime": 0,
		"channel": 2,
		"type": "channel",
		"subtype": "noteOff",
		"noteNumber": 66,
		"velocity": 0,
		"time": 150360,
		"track": 4
	},
	{
		"deltaTime": 0,
		"channel": 2,
		"type": "channel",
		"subtype": "noteOff",
		"noteNumber": 61,
		"velocity": 0,
		"time": 150360,
		"track": 4
	},
	{
		"deltaTime": 0,
		"channel": 2,
		"type": "channel",
		"noteNumber": 61,
		"velocity": 127,
		"subtype": "noteOn",
		"time": 150360,
		"track": 4
	},
	{
		"deltaTime": 0,
		"channel": 2,
		"type": "channel",
		"noteNumber": 66,
		"velocity": 127,
		"subtype": "noteOn",
		"time": 150360,
		"track": 4
	},
	{
		"deltaTime": 0,
		"channel": 2,
		"type": "channel",
		"noteNumber": 70,
		"velocity": 127,
		"subtype": "noteOn",
		"time": 150360,
		"track": 4
	},
	{
		"deltaTime": 60,
		"channel": 9,
		"type": "channel",
		"noteNumber": 42,
		"velocity": 127,
		"subtype": "noteOn",
		"time": 150360,
		"track": 5
	},
	{
		"deltaTime": 60,
		"channel": 9,
		"type": "channel",
		"subtype": "noteOff",
		"noteNumber": 42,
		"velocity": 0,
		"time": 150420,
		"track": 5
	},
	{
		"deltaTime": 60,
		"channel": 9,
		"type": "channel",
		"noteNumber": 42,
		"velocity": 127,
		"subtype": "noteOn",
		"time": 150480,
		"track": 5
	},
	{
		"deltaTime": 60,
		"channel": 9,
		"type": "channel",
		"subtype": "noteOff",
		"noteNumber": 42,
		"velocity": 0,
		"time": 150540,
		"track": 5
	},
	{
		"deltaTime": 0,
		"channel": 9,
		"type": "channel",
		"noteNumber": 42,
		"velocity": 127,
		"subtype": "noteOn",
		"time": 150600,
		"track": 5
	},
	{
		"deltaTime": 0,
		"channel": 9,
		"type": "channel",
		"noteNumber": 36,
		"velocity": 127,
		"subtype": "noteOn",
		"time": 150600,
		"track": 5
	},
	{
		"deltaTime": 60,
		"channel": 9,
		"type": "channel",
		"noteNumber": 35,
		"velocity": 127,
		"subtype": "noteOn",
		"time": 150600,
		"track": 5
	},
	{
		"deltaTime": 0,
		"channel": 9,
		"type": "channel",
		"subtype": "noteOff",
		"noteNumber": 35,
		"velocity": 0,
		"time": 150660,
		"track": 5
	},
	{
		"deltaTime": 0,
		"channel": 9,
		"type": "channel",
		"subtype": "noteOff",
		"noteNumber": 36,
		"velocity": 0,
		"time": 150660,
		"track": 5
	},
	{
		"deltaTime": 60,
		"channel": 9,
		"type": "channel",
		"subtype": "noteOff",
		"noteNumber": 42,
		"velocity": 0,
		"time": 150660,
		"track": 5
	},
	{
		"deltaTime": 0,
		"channel": 0,
		"type": "channel",
		"subtype": "noteOff",
		"noteNumber": 42,
		"velocity": 0,
		"time": 150720,
		"track": 2
	},
	{
		"deltaTime": 0,
		"channel": 0,
		"type": "channel",
		"noteNumber": 35,
		"velocity": 127,
		"subtype": "noteOn",
		"time": 150720,
		"track": 2
	},
	{
		"deltaTime": 0,
		"channel": 2,
		"type": "channel",
		"subtype": "noteOff",
		"noteNumber": 70,
		"velocity": 0,
		"time": 150720,
		"track": 4
	},
	{
		"deltaTime": 0,
		"channel": 2,
		"type": "channel",
		"subtype": "noteOff",
		"noteNumber": 66,
		"velocity": 0,
		"time": 150720,
		"track": 4
	},
	{
		"deltaTime": 0,
		"channel": 2,
		"type": "channel",
		"subtype": "noteOff",
		"noteNumber": 61,
		"velocity": 0,
		"time": 150720,
		"track": 4
	},
	{
		"deltaTime": 0,
		"channel": 2,
		"type": "channel",
		"noteNumber": 47,
		"velocity": 127,
		"subtype": "noteOn",
		"time": 150720,
		"track": 4
	},
	{
		"deltaTime": 60,
		"channel": 9,
		"type": "channel",
		"noteNumber": 42,
		"velocity": 127,
		"subtype": "noteOn",
		"time": 150720,
		"track": 5
	},
	{
		"deltaTime": 60,
		"channel": 9,
		"type": "channel",
		"subtype": "noteOff",
		"noteNumber": 42,
		"velocity": 0,
		"time": 150780,
		"track": 5
	},
	{
		"deltaTime": 60,
		"channel": 9,
		"type": "channel",
		"noteNumber": 42,
		"velocity": 127,
		"subtype": "noteOn",
		"time": 150840,
		"track": 5
	},
	{
		"deltaTime": 60,
		"channel": 9,
		"type": "channel",
		"subtype": "noteOff",
		"noteNumber": 42,
		"velocity": 0,
		"time": 150900,
		"track": 5
	},
	{
		"deltaTime": 0,
		"channel": 9,
		"type": "channel",
		"noteNumber": 42,
		"velocity": 127,
		"subtype": "noteOn",
		"time": 150960,
		"track": 5
	},
	{
		"deltaTime": 0,
		"channel": 9,
		"type": "channel",
		"noteNumber": 36,
		"velocity": 127,
		"subtype": "noteOn",
		"time": 150960,
		"track": 5
	},
	{
		"deltaTime": 60,
		"channel": 9,
		"type": "channel",
		"noteNumber": 35,
		"velocity": 127,
		"subtype": "noteOn",
		"time": 150960,
		"track": 5
	},
	{
		"deltaTime": 0,
		"channel": 9,
		"type": "channel",
		"subtype": "noteOff",
		"noteNumber": 35,
		"velocity": 0,
		"time": 151020,
		"track": 5
	},
	{
		"deltaTime": 0,
		"channel": 9,
		"type": "channel",
		"subtype": "noteOff",
		"noteNumber": 36,
		"velocity": 0,
		"time": 151020,
		"track": 5
	},
	{
		"deltaTime": 60,
		"channel": 9,
		"type": "channel",
		"subtype": "noteOff",
		"noteNumber": 42,
		"velocity": 0,
		"time": 151020,
		"track": 5
	},
	{
		"deltaTime": 0,
		"channel": 2,
		"type": "channel",
		"subtype": "noteOff",
		"noteNumber": 47,
		"velocity": 0,
		"time": 151080,
		"track": 4
	},
	{
		"deltaTime": 0,
		"channel": 2,
		"type": "channel",
		"noteNumber": 61,
		"velocity": 127,
		"subtype": "noteOn",
		"time": 151080,
		"track": 4
	},
	{
		"deltaTime": 0,
		"channel": 2,
		"type": "channel",
		"noteNumber": 66,
		"velocity": 127,
		"subtype": "noteOn",
		"time": 151080,
		"track": 4
	},
	{
		"deltaTime": 0,
		"channel": 2,
		"type": "channel",
		"noteNumber": 70,
		"velocity": 127,
		"subtype": "noteOn",
		"time": 151080,
		"track": 4
	},
	{
		"deltaTime": 60,
		"channel": 9,
		"type": "channel",
		"noteNumber": 42,
		"velocity": 127,
		"subtype": "noteOn",
		"time": 151080,
		"track": 5
	},
	{
		"deltaTime": 60,
		"channel": 9,
		"type": "channel",
		"subtype": "noteOff",
		"noteNumber": 42,
		"velocity": 0,
		"time": 151140,
		"track": 5
	},
	{
		"deltaTime": 0,
		"channel": 0,
		"type": "channel",
		"subtype": "noteOff",
		"noteNumber": 35,
		"velocity": 0,
		"time": 151200,
		"track": 2
	},
	{
		"deltaTime": 0,
		"channel": 0,
		"type": "channel",
		"noteNumber": 34,
		"velocity": 127,
		"subtype": "noteOn",
		"time": 151200,
		"track": 2
	},
	{
		"deltaTime": 0,
		"channel": 9,
		"type": "channel",
		"noteNumber": 42,
		"velocity": 127,
		"subtype": "noteOn",
		"time": 151200,
		"track": 5
	},
	{
		"deltaTime": 0,
		"channel": 9,
		"type": "channel",
		"noteNumber": 40,
		"velocity": 127,
		"subtype": "noteOn",
		"time": 151200,
		"track": 5
	},
	{
		"deltaTime": 60,
		"channel": 9,
		"type": "channel",
		"noteNumber": 38,
		"velocity": 127,
		"subtype": "noteOn",
		"time": 151200,
		"track": 5
	},
	{
		"deltaTime": 0,
		"channel": 9,
		"type": "channel",
		"subtype": "noteOff",
		"noteNumber": 38,
		"velocity": 0,
		"time": 151260,
		"track": 5
	},
	{
		"deltaTime": 0,
		"channel": 9,
		"type": "channel",
		"subtype": "noteOff",
		"noteNumber": 40,
		"velocity": 0,
		"time": 151260,
		"track": 5
	},
	{
		"deltaTime": 60,
		"channel": 9,
		"type": "channel",
		"subtype": "noteOff",
		"noteNumber": 42,
		"velocity": 0,
		"time": 151260,
		"track": 5
	},
	{
		"deltaTime": 0,
		"channel": 2,
		"type": "channel",
		"subtype": "noteOff",
		"noteNumber": 70,
		"velocity": 0,
		"time": 151320,
		"track": 4
	},
	{
		"deltaTime": 0,
		"channel": 2,
		"type": "channel",
		"subtype": "noteOff",
		"noteNumber": 66,
		"velocity": 0,
		"time": 151320,
		"track": 4
	},
	{
		"deltaTime": 0,
		"channel": 2,
		"type": "channel",
		"subtype": "noteOff",
		"noteNumber": 61,
		"velocity": 0,
		"time": 151320,
		"track": 4
	},
	{
		"deltaTime": 0,
		"channel": 2,
		"type": "channel",
		"noteNumber": 61,
		"velocity": 127,
		"subtype": "noteOn",
		"time": 151320,
		"track": 4
	},
	{
		"deltaTime": 0,
		"channel": 2,
		"type": "channel",
		"noteNumber": 66,
		"velocity": 127,
		"subtype": "noteOn",
		"time": 151320,
		"track": 4
	},
	{
		"deltaTime": 0,
		"channel": 2,
		"type": "channel",
		"noteNumber": 71,
		"velocity": 127,
		"subtype": "noteOn",
		"time": 151320,
		"track": 4
	},
	{
		"deltaTime": 60,
		"channel": 9,
		"type": "channel",
		"noteNumber": 42,
		"velocity": 127,
		"subtype": "noteOn",
		"time": 151320,
		"track": 5
	},
	{
		"deltaTime": 60,
		"channel": 9,
		"type": "channel",
		"subtype": "noteOff",
		"noteNumber": 42,
		"velocity": 0,
		"time": 151380,
		"track": 5
	},
	{
		"deltaTime": 60,
		"channel": 9,
		"type": "channel",
		"noteNumber": 42,
		"velocity": 127,
		"subtype": "noteOn",
		"time": 151440,
		"track": 5
	},
	{
		"deltaTime": 60,
		"channel": 9,
		"type": "channel",
		"subtype": "noteOff",
		"noteNumber": 42,
		"velocity": 0,
		"time": 151500,
		"track": 5
	},
	{
		"deltaTime": 60,
		"channel": 9,
		"type": "channel",
		"noteNumber": 42,
		"velocity": 127,
		"subtype": "noteOn",
		"time": 151560,
		"track": 5
	},
	{
		"deltaTime": 60,
		"channel": 9,
		"type": "channel",
		"subtype": "noteOff",
		"noteNumber": 42,
		"velocity": 0,
		"time": 151620,
		"track": 5
	},
	{
		"deltaTime": 0,
		"channel": 0,
		"type": "channel",
		"subtype": "noteOff",
		"noteNumber": 34,
		"velocity": 0,
		"time": 151680,
		"track": 2
	},
	{
		"deltaTime": 0,
		"channel": 0,
		"type": "channel",
		"noteNumber": 32,
		"velocity": 127,
		"subtype": "noteOn",
		"time": 151680,
		"track": 2
	},
	{
		"deltaTime": 0,
		"channel": 2,
		"type": "channel",
		"subtype": "noteOff",
		"noteNumber": 71,
		"velocity": 0,
		"time": 151680,
		"track": 4
	},
	{
		"deltaTime": 0,
		"channel": 2,
		"type": "channel",
		"subtype": "noteOff",
		"noteNumber": 66,
		"velocity": 0,
		"time": 151680,
		"track": 4
	},
	{
		"deltaTime": 0,
		"channel": 2,
		"type": "channel",
		"subtype": "noteOff",
		"noteNumber": 61,
		"velocity": 0,
		"time": 151680,
		"track": 4
	},
	{
		"deltaTime": 0,
		"channel": 2,
		"type": "channel",
		"noteNumber": 44,
		"velocity": 127,
		"subtype": "noteOn",
		"time": 151680,
		"track": 4
	},
	{
		"deltaTime": 0,
		"channel": 9,
		"type": "channel",
		"noteNumber": 42,
		"velocity": 127,
		"subtype": "noteOn",
		"time": 151680,
		"track": 5
	},
	{
		"deltaTime": 0,
		"channel": 9,
		"type": "channel",
		"noteNumber": 35,
		"velocity": 127,
		"subtype": "noteOn",
		"time": 151680,
		"track": 5
	},
	{
		"deltaTime": 60,
		"channel": 9,
		"type": "channel",
		"noteNumber": 36,
		"velocity": 127,
		"subtype": "noteOn",
		"time": 151680,
		"track": 5
	},
	{
		"deltaTime": 0,
		"channel": 9,
		"type": "channel",
		"subtype": "noteOff",
		"noteNumber": 36,
		"velocity": 0,
		"time": 151740,
		"track": 5
	},
	{
		"deltaTime": 0,
		"channel": 9,
		"type": "channel",
		"subtype": "noteOff",
		"noteNumber": 35,
		"velocity": 0,
		"time": 151740,
		"track": 5
	},
	{
		"deltaTime": 60,
		"channel": 9,
		"type": "channel",
		"subtype": "noteOff",
		"noteNumber": 42,
		"velocity": 0,
		"time": 151740,
		"track": 5
	},
	{
		"deltaTime": 60,
		"channel": 9,
		"type": "channel",
		"noteNumber": 42,
		"velocity": 127,
		"subtype": "noteOn",
		"time": 151800,
		"track": 5
	},
	{
		"deltaTime": 60,
		"channel": 9,
		"type": "channel",
		"subtype": "noteOff",
		"noteNumber": 42,
		"velocity": 0,
		"time": 151860,
		"track": 5
	},
	{
		"deltaTime": 0,
		"channel": 9,
		"type": "channel",
		"noteNumber": 42,
		"velocity": 127,
		"subtype": "noteOn",
		"time": 151920,
		"track": 5
	},
	{
		"deltaTime": 0,
		"channel": 9,
		"type": "channel",
		"noteNumber": 36,
		"velocity": 127,
		"subtype": "noteOn",
		"time": 151920,
		"track": 5
	},
	{
		"deltaTime": 60,
		"channel": 9,
		"type": "channel",
		"noteNumber": 35,
		"velocity": 127,
		"subtype": "noteOn",
		"time": 151920,
		"track": 5
	},
	{
		"deltaTime": 0,
		"channel": 9,
		"type": "channel",
		"subtype": "noteOff",
		"noteNumber": 35,
		"velocity": 0,
		"time": 151980,
		"track": 5
	},
	{
		"deltaTime": 0,
		"channel": 9,
		"type": "channel",
		"subtype": "noteOff",
		"noteNumber": 36,
		"velocity": 0,
		"time": 151980,
		"track": 5
	},
	{
		"deltaTime": 60,
		"channel": 9,
		"type": "channel",
		"subtype": "noteOff",
		"noteNumber": 42,
		"velocity": 0,
		"time": 151980,
		"track": 5
	},
	{
		"deltaTime": 0,
		"channel": 2,
		"type": "channel",
		"subtype": "noteOff",
		"noteNumber": 44,
		"velocity": 0,
		"time": 152040,
		"track": 4
	},
	{
		"deltaTime": 0,
		"channel": 2,
		"type": "channel",
		"noteNumber": 59,
		"velocity": 127,
		"subtype": "noteOn",
		"time": 152040,
		"track": 4
	},
	{
		"deltaTime": 0,
		"channel": 2,
		"type": "channel",
		"noteNumber": 63,
		"velocity": 127,
		"subtype": "noteOn",
		"time": 152040,
		"track": 4
	},
	{
		"deltaTime": 0,
		"channel": 2,
		"type": "channel",
		"noteNumber": 68,
		"velocity": 127,
		"subtype": "noteOn",
		"time": 152040,
		"track": 4
	},
	{
		"deltaTime": 60,
		"channel": 9,
		"type": "channel",
		"noteNumber": 42,
		"velocity": 127,
		"subtype": "noteOn",
		"time": 152040,
		"track": 5
	},
	{
		"deltaTime": 60,
		"channel": 9,
		"type": "channel",
		"subtype": "noteOff",
		"noteNumber": 42,
		"velocity": 0,
		"time": 152100,
		"track": 5
	},
	{
		"deltaTime": 0,
		"channel": 9,
		"type": "channel",
		"noteNumber": 42,
		"velocity": 127,
		"subtype": "noteOn",
		"time": 152160,
		"track": 5
	},
	{
		"deltaTime": 0,
		"channel": 9,
		"type": "channel",
		"noteNumber": 38,
		"velocity": 127,
		"subtype": "noteOn",
		"time": 152160,
		"track": 5
	},
	{
		"deltaTime": 60,
		"channel": 9,
		"type": "channel",
		"noteNumber": 40,
		"velocity": 127,
		"subtype": "noteOn",
		"time": 152160,
		"track": 5
	},
	{
		"deltaTime": 0,
		"channel": 9,
		"type": "channel",
		"subtype": "noteOff",
		"noteNumber": 40,
		"velocity": 0,
		"time": 152220,
		"track": 5
	},
	{
		"deltaTime": 0,
		"channel": 9,
		"type": "channel",
		"subtype": "noteOff",
		"noteNumber": 38,
		"velocity": 0,
		"time": 152220,
		"track": 5
	},
	{
		"deltaTime": 60,
		"channel": 9,
		"type": "channel",
		"subtype": "noteOff",
		"noteNumber": 42,
		"velocity": 0,
		"time": 152220,
		"track": 5
	},
	{
		"deltaTime": 0,
		"channel": 2,
		"type": "channel",
		"subtype": "noteOff",
		"noteNumber": 68,
		"velocity": 0,
		"time": 152280,
		"track": 4
	},
	{
		"deltaTime": 0,
		"channel": 2,
		"type": "channel",
		"subtype": "noteOff",
		"noteNumber": 63,
		"velocity": 0,
		"time": 152280,
		"track": 4
	},
	{
		"deltaTime": 0,
		"channel": 2,
		"type": "channel",
		"subtype": "noteOff",
		"noteNumber": 59,
		"velocity": 0,
		"time": 152280,
		"track": 4
	},
	{
		"deltaTime": 0,
		"channel": 2,
		"type": "channel",
		"noteNumber": 59,
		"velocity": 127,
		"subtype": "noteOn",
		"time": 152280,
		"track": 4
	},
	{
		"deltaTime": 0,
		"channel": 2,
		"type": "channel",
		"noteNumber": 63,
		"velocity": 127,
		"subtype": "noteOn",
		"time": 152280,
		"track": 4
	},
	{
		"deltaTime": 0,
		"channel": 2,
		"type": "channel",
		"noteNumber": 68,
		"velocity": 127,
		"subtype": "noteOn",
		"time": 152280,
		"track": 4
	},
	{
		"deltaTime": 60,
		"channel": 9,
		"type": "channel",
		"noteNumber": 42,
		"velocity": 127,
		"subtype": "noteOn",
		"time": 152280,
		"track": 5
	},
	{
		"deltaTime": 60,
		"channel": 9,
		"type": "channel",
		"subtype": "noteOff",
		"noteNumber": 42,
		"velocity": 0,
		"time": 152340,
		"track": 5
	},
	{
		"deltaTime": 0,
		"channel": 0,
		"type": "channel",
		"subtype": "noteOff",
		"noteNumber": 32,
		"velocity": 0,
		"time": 152400,
		"track": 2
	},
	{
		"deltaTime": 0,
		"channel": 0,
		"type": "channel",
		"noteNumber": 32,
		"velocity": 127,
		"subtype": "noteOn",
		"time": 152400,
		"track": 2
	},
	{
		"deltaTime": 60,
		"channel": 9,
		"type": "channel",
		"noteNumber": 42,
		"velocity": 127,
		"subtype": "noteOn",
		"time": 152400,
		"track": 5
	},
	{
		"deltaTime": 60,
		"channel": 9,
		"type": "channel",
		"subtype": "noteOff",
		"noteNumber": 42,
		"velocity": 0,
		"time": 152460,
		"track": 5
	},
	{
		"deltaTime": 0,
		"channel": 9,
		"type": "channel",
		"noteNumber": 42,
		"velocity": 127,
		"subtype": "noteOn",
		"time": 152520,
		"track": 5
	},
	{
		"deltaTime": 0,
		"channel": 9,
		"type": "channel",
		"noteNumber": 36,
		"velocity": 127,
		"subtype": "noteOn",
		"time": 152520,
		"track": 5
	},
	{
		"deltaTime": 60,
		"channel": 9,
		"type": "channel",
		"noteNumber": 35,
		"velocity": 127,
		"subtype": "noteOn",
		"time": 152520,
		"track": 5
	},
	{
		"deltaTime": 0,
		"channel": 9,
		"type": "channel",
		"subtype": "noteOff",
		"noteNumber": 35,
		"velocity": 0,
		"time": 152580,
		"track": 5
	},
	{
		"deltaTime": 0,
		"channel": 9,
		"type": "channel",
		"subtype": "noteOff",
		"noteNumber": 36,
		"velocity": 0,
		"time": 152580,
		"track": 5
	},
	{
		"deltaTime": 60,
		"channel": 9,
		"type": "channel",
		"subtype": "noteOff",
		"noteNumber": 42,
		"velocity": 0,
		"time": 152580,
		"track": 5
	},
	{
		"deltaTime": 0,
		"channel": 0,
		"type": "channel",
		"subtype": "noteOff",
		"noteNumber": 32,
		"velocity": 0,
		"time": 152640,
		"track": 2
	},
	{
		"deltaTime": 0,
		"channel": 0,
		"type": "channel",
		"noteNumber": 40,
		"velocity": 127,
		"subtype": "noteOn",
		"time": 152640,
		"track": 2
	},
	{
		"deltaTime": 0,
		"channel": 2,
		"type": "channel",
		"subtype": "noteOff",
		"noteNumber": 68,
		"velocity": 0,
		"time": 152640,
		"track": 4
	},
	{
		"deltaTime": 0,
		"channel": 2,
		"type": "channel",
		"subtype": "noteOff",
		"noteNumber": 63,
		"velocity": 0,
		"time": 152640,
		"track": 4
	},
	{
		"deltaTime": 0,
		"channel": 2,
		"type": "channel",
		"subtype": "noteOff",
		"noteNumber": 59,
		"velocity": 0,
		"time": 152640,
		"track": 4
	},
	{
		"deltaTime": 0,
		"channel": 2,
		"type": "channel",
		"noteNumber": 40,
		"velocity": 127,
		"subtype": "noteOn",
		"time": 152640,
		"track": 4
	},
	{
		"deltaTime": 60,
		"channel": 9,
		"type": "channel",
		"noteNumber": 42,
		"velocity": 127,
		"subtype": "noteOn",
		"time": 152640,
		"track": 5
	},
	{
		"deltaTime": 60,
		"channel": 9,
		"type": "channel",
		"subtype": "noteOff",
		"noteNumber": 42,
		"velocity": 0,
		"time": 152700,
		"track": 5
	},
	{
		"deltaTime": 60,
		"channel": 9,
		"type": "channel",
		"noteNumber": 42,
		"velocity": 127,
		"subtype": "noteOn",
		"time": 152760,
		"track": 5
	},
	{
		"deltaTime": 60,
		"channel": 9,
		"type": "channel",
		"subtype": "noteOff",
		"noteNumber": 42,
		"velocity": 0,
		"time": 152820,
		"track": 5
	},
	{
		"deltaTime": 0,
		"channel": 9,
		"type": "channel",
		"noteNumber": 42,
		"velocity": 127,
		"subtype": "noteOn",
		"time": 152880,
		"track": 5
	},
	{
		"deltaTime": 0,
		"channel": 9,
		"type": "channel",
		"noteNumber": 36,
		"velocity": 127,
		"subtype": "noteOn",
		"time": 152880,
		"track": 5
	},
	{
		"deltaTime": 60,
		"channel": 9,
		"type": "channel",
		"noteNumber": 35,
		"velocity": 127,
		"subtype": "noteOn",
		"time": 152880,
		"track": 5
	},
	{
		"deltaTime": 0,
		"channel": 9,
		"type": "channel",
		"subtype": "noteOff",
		"noteNumber": 35,
		"velocity": 0,
		"time": 152940,
		"track": 5
	},
	{
		"deltaTime": 0,
		"channel": 9,
		"type": "channel",
		"subtype": "noteOff",
		"noteNumber": 36,
		"velocity": 0,
		"time": 152940,
		"track": 5
	},
	{
		"deltaTime": 60,
		"channel": 9,
		"type": "channel",
		"subtype": "noteOff",
		"noteNumber": 42,
		"velocity": 0,
		"time": 152940,
		"track": 5
	},
	{
		"deltaTime": 0,
		"channel": 2,
		"type": "channel",
		"subtype": "noteOff",
		"noteNumber": 40,
		"velocity": 0,
		"time": 153000,
		"track": 4
	},
	{
		"deltaTime": 0,
		"channel": 2,
		"type": "channel",
		"noteNumber": 59,
		"velocity": 127,
		"subtype": "noteOn",
		"time": 153000,
		"track": 4
	},
	{
		"deltaTime": 0,
		"channel": 2,
		"type": "channel",
		"noteNumber": 63,
		"velocity": 127,
		"subtype": "noteOn",
		"time": 153000,
		"track": 4
	},
	{
		"deltaTime": 0,
		"channel": 2,
		"type": "channel",
		"noteNumber": 68,
		"velocity": 127,
		"subtype": "noteOn",
		"time": 153000,
		"track": 4
	},
	{
		"deltaTime": 60,
		"channel": 9,
		"type": "channel",
		"noteNumber": 42,
		"velocity": 127,
		"subtype": "noteOn",
		"time": 153000,
		"track": 5
	},
	{
		"deltaTime": 60,
		"channel": 9,
		"type": "channel",
		"subtype": "noteOff",
		"noteNumber": 42,
		"velocity": 0,
		"time": 153060,
		"track": 5
	},
	{
		"deltaTime": 0,
		"channel": 9,
		"type": "channel",
		"noteNumber": 42,
		"velocity": 127,
		"subtype": "noteOn",
		"time": 153120,
		"track": 5
	},
	{
		"deltaTime": 0,
		"channel": 9,
		"type": "channel",
		"noteNumber": 40,
		"velocity": 127,
		"subtype": "noteOn",
		"time": 153120,
		"track": 5
	},
	{
		"deltaTime": 60,
		"channel": 9,
		"type": "channel",
		"noteNumber": 38,
		"velocity": 127,
		"subtype": "noteOn",
		"time": 153120,
		"track": 5
	},
	{
		"deltaTime": 0,
		"channel": 9,
		"type": "channel",
		"subtype": "noteOff",
		"noteNumber": 38,
		"velocity": 0,
		"time": 153180,
		"track": 5
	},
	{
		"deltaTime": 0,
		"channel": 9,
		"type": "channel",
		"subtype": "noteOff",
		"noteNumber": 40,
		"velocity": 0,
		"time": 153180,
		"track": 5
	},
	{
		"deltaTime": 60,
		"channel": 9,
		"type": "channel",
		"subtype": "noteOff",
		"noteNumber": 42,
		"velocity": 0,
		"time": 153180,
		"track": 5
	},
	{
		"deltaTime": 0,
		"channel": 2,
		"type": "channel",
		"subtype": "noteOff",
		"noteNumber": 68,
		"velocity": 0,
		"time": 153240,
		"track": 4
	},
	{
		"deltaTime": 0,
		"channel": 2,
		"type": "channel",
		"subtype": "noteOff",
		"noteNumber": 63,
		"velocity": 0,
		"time": 153240,
		"track": 4
	},
	{
		"deltaTime": 0,
		"channel": 2,
		"type": "channel",
		"subtype": "noteOff",
		"noteNumber": 59,
		"velocity": 0,
		"time": 153240,
		"track": 4
	},
	{
		"deltaTime": 0,
		"channel": 2,
		"type": "channel",
		"noteNumber": 59,
		"velocity": 127,
		"subtype": "noteOn",
		"time": 153240,
		"track": 4
	},
	{
		"deltaTime": 0,
		"channel": 2,
		"type": "channel",
		"noteNumber": 63,
		"velocity": 127,
		"subtype": "noteOn",
		"time": 153240,
		"track": 4
	},
	{
		"deltaTime": 0,
		"channel": 2,
		"type": "channel",
		"noteNumber": 68,
		"velocity": 127,
		"subtype": "noteOn",
		"time": 153240,
		"track": 4
	},
	{
		"deltaTime": 60,
		"channel": 9,
		"type": "channel",
		"noteNumber": 42,
		"velocity": 127,
		"subtype": "noteOn",
		"time": 153240,
		"track": 5
	},
	{
		"deltaTime": 60,
		"channel": 9,
		"type": "channel",
		"subtype": "noteOff",
		"noteNumber": 42,
		"velocity": 0,
		"time": 153300,
		"track": 5
	},
	{
		"deltaTime": 0,
		"channel": 0,
		"type": "channel",
		"subtype": "noteOff",
		"noteNumber": 40,
		"velocity": 0,
		"time": 153360,
		"track": 2
	},
	{
		"deltaTime": 0,
		"channel": 0,
		"type": "channel",
		"noteNumber": 40,
		"velocity": 127,
		"subtype": "noteOn",
		"time": 153360,
		"track": 2
	},
	{
		"deltaTime": 60,
		"channel": 9,
		"type": "channel",
		"noteNumber": 42,
		"velocity": 127,
		"subtype": "noteOn",
		"time": 153360,
		"track": 5
	},
	{
		"deltaTime": 60,
		"channel": 9,
		"type": "channel",
		"subtype": "noteOff",
		"noteNumber": 42,
		"velocity": 0,
		"time": 153420,
		"track": 5
	},
	{
		"deltaTime": 60,
		"channel": 9,
		"type": "channel",
		"noteNumber": 42,
		"velocity": 127,
		"subtype": "noteOn",
		"time": 153480,
		"track": 5
	},
	{
		"deltaTime": 60,
		"channel": 9,
		"type": "channel",
		"subtype": "noteOff",
		"noteNumber": 42,
		"velocity": 0,
		"time": 153540,
		"track": 5
	},
	{
		"deltaTime": 0,
		"channel": 0,
		"type": "channel",
		"subtype": "noteOff",
		"noteNumber": 40,
		"velocity": 0,
		"time": 153600,
		"track": 2
	},
	{
		"deltaTime": 0,
		"channel": 0,
		"type": "channel",
		"noteNumber": 41,
		"velocity": 127,
		"subtype": "noteOn",
		"time": 153600,
		"track": 2
	},
	{
		"deltaTime": 0,
		"channel": 2,
		"type": "channel",
		"subtype": "noteOff",
		"noteNumber": 68,
		"velocity": 0,
		"time": 153600,
		"track": 4
	},
	{
		"deltaTime": 0,
		"channel": 2,
		"type": "channel",
		"subtype": "noteOff",
		"noteNumber": 63,
		"velocity": 0,
		"time": 153600,
		"track": 4
	},
	{
		"deltaTime": 0,
		"channel": 2,
		"type": "channel",
		"subtype": "noteOff",
		"noteNumber": 59,
		"velocity": 0,
		"time": 153600,
		"track": 4
	},
	{
		"deltaTime": 0,
		"channel": 9,
		"type": "channel",
		"noteNumber": 35,
		"velocity": 127,
		"subtype": "noteOn",
		"time": 153600,
		"track": 5
	},
	{
		"deltaTime": 60,
		"channel": 9,
		"type": "channel",
		"noteNumber": 36,
		"velocity": 127,
		"subtype": "noteOn",
		"time": 153600,
		"track": 5
	},
	{
		"deltaTime": 0,
		"channel": 9,
		"type": "channel",
		"subtype": "noteOff",
		"noteNumber": 36,
		"velocity": 0,
		"time": 153660,
		"track": 5
	},
	{
		"deltaTime": 180,
		"channel": 9,
		"type": "channel",
		"subtype": "noteOff",
		"noteNumber": 35,
		"velocity": 0,
		"time": 153660,
		"track": 5
	},
	{
		"deltaTime": 0,
		"channel": 9,
		"type": "channel",
		"noteNumber": 35,
		"velocity": 127,
		"subtype": "noteOn",
		"time": 153840,
		"track": 5
	},
	{
		"deltaTime": 60,
		"channel": 9,
		"type": "channel",
		"noteNumber": 36,
		"velocity": 127,
		"subtype": "noteOn",
		"time": 153840,
		"track": 5
	},
	{
		"deltaTime": 0,
		"channel": 9,
		"type": "channel",
		"subtype": "noteOff",
		"noteNumber": 36,
		"velocity": 0,
		"time": 153900,
		"track": 5
	},
	{
		"deltaTime": 180,
		"channel": 9,
		"type": "channel",
		"subtype": "noteOff",
		"noteNumber": 35,
		"velocity": 0,
		"time": 153900,
		"track": 5
	},
	{
		"deltaTime": 60,
		"channel": 9,
		"type": "channel",
		"noteNumber": 39,
		"velocity": 127,
		"subtype": "noteOn",
		"time": 154080,
		"track": 5
	},
	{
		"deltaTime": 180,
		"channel": 9,
		"type": "channel",
		"subtype": "noteOff",
		"noteNumber": 39,
		"velocity": 0,
		"time": 154140,
		"track": 5
	},
	{
		"deltaTime": 0,
		"channel": 0,
		"type": "channel",
		"subtype": "noteOff",
		"noteNumber": 41,
		"velocity": 0,
		"time": 154320,
		"track": 2
	},
	{
		"deltaTime": 120,
		"channel": 0,
		"type": "channel",
		"noteNumber": 41,
		"velocity": 127,
		"subtype": "noteOn",
		"time": 154320,
		"track": 2
	},
	{
		"deltaTime": 0,
		"channel": 9,
		"type": "channel",
		"noteNumber": 35,
		"velocity": 127,
		"subtype": "noteOn",
		"time": 154440,
		"track": 5
	},
	{
		"deltaTime": 60,
		"channel": 9,
		"type": "channel",
		"noteNumber": 36,
		"velocity": 127,
		"subtype": "noteOn",
		"time": 154440,
		"track": 5
	},
	{
		"deltaTime": 0,
		"channel": 9,
		"type": "channel",
		"subtype": "noteOff",
		"noteNumber": 36,
		"velocity": 0,
		"time": 154500,
		"track": 5
	},
	{
		"deltaTime": 60,
		"channel": 9,
		"type": "channel",
		"subtype": "noteOff",
		"noteNumber": 35,
		"velocity": 0,
		"time": 154500,
		"track": 5
	},
	{
		"deltaTime": 0,
		"channel": 0,
		"type": "channel",
		"subtype": "noteOff",
		"noteNumber": 41,
		"velocity": 0,
		"time": 154560,
		"track": 2
	},
	{
		"deltaTime": 240,
		"channel": 0,
		"type": "channel",
		"noteNumber": 40,
		"velocity": 127,
		"subtype": "noteOn",
		"time": 154560,
		"track": 2
	},
	{
		"deltaTime": 0,
		"channel": 9,
		"type": "channel",
		"noteNumber": 35,
		"velocity": 127,
		"subtype": "noteOn",
		"time": 154800,
		"track": 5
	},
	{
		"deltaTime": 60,
		"channel": 9,
		"type": "channel",
		"noteNumber": 36,
		"velocity": 127,
		"subtype": "noteOn",
		"time": 154800,
		"track": 5
	},
	{
		"deltaTime": 0,
		"channel": 9,
		"type": "channel",
		"subtype": "noteOff",
		"noteNumber": 36,
		"velocity": 0,
		"time": 154860,
		"track": 5
	},
	{
		"deltaTime": 180,
		"channel": 9,
		"type": "channel",
		"subtype": "noteOff",
		"noteNumber": 35,
		"velocity": 0,
		"time": 154860,
		"track": 5
	},
	{
		"deltaTime": 0,
		"channel": 0,
		"type": "channel",
		"subtype": "noteOff",
		"noteNumber": 40,
		"velocity": 0,
		"time": 155040,
		"track": 2
	},
	{
		"deltaTime": 0,
		"channel": 0,
		"type": "channel",
		"noteNumber": 35,
		"velocity": 127,
		"subtype": "noteOn",
		"time": 155040,
		"track": 2
	},
	{
		"deltaTime": 0,
		"channel": 9,
		"type": "channel",
		"noteNumber": 38,
		"velocity": 127,
		"subtype": "noteOn",
		"time": 155040,
		"track": 5
	},
	{
		"deltaTime": 60,
		"channel": 9,
		"type": "channel",
		"noteNumber": 40,
		"velocity": 127,
		"subtype": "noteOn",
		"time": 155040,
		"track": 5
	},
	{
		"deltaTime": 0,
		"channel": 9,
		"type": "channel",
		"subtype": "noteOff",
		"noteNumber": 40,
		"velocity": 0,
		"time": 155100,
		"track": 5
	},
	{
		"deltaTime": 180,
		"channel": 9,
		"type": "channel",
		"subtype": "noteOff",
		"noteNumber": 38,
		"velocity": 0,
		"time": 155100,
		"track": 5
	},
	{
		"deltaTime": 0,
		"channel": 0,
		"type": "channel",
		"subtype": "noteOff",
		"noteNumber": 35,
		"velocity": 0,
		"time": 155280,
		"track": 2
	},
	{
		"deltaTime": 0,
		"channel": 0,
		"type": "channel",
		"noteNumber": 34,
		"velocity": 127,
		"subtype": "noteOn",
		"time": 155280,
		"track": 2
	},
	{
		"deltaTime": 0,
		"channel": 9,
		"type": "channel",
		"noteNumber": 35,
		"velocity": 127,
		"subtype": "noteOn",
		"time": 155280,
		"track": 5
	},
	{
		"deltaTime": 60,
		"channel": 9,
		"type": "channel",
		"noteNumber": 36,
		"velocity": 127,
		"subtype": "noteOn",
		"time": 155280,
		"track": 5
	},
	{
		"deltaTime": 0,
		"channel": 9,
		"type": "channel",
		"subtype": "noteOff",
		"noteNumber": 36,
		"velocity": 0,
		"time": 155340,
		"track": 5
	},
	{
		"deltaTime": 180,
		"channel": 9,
		"type": "channel",
		"subtype": "noteOff",
		"noteNumber": 35,
		"velocity": 0,
		"time": 155340,
		"track": 5
	},
	{
		"deltaTime": 0,
		"channel": 0,
		"type": "channel",
		"subtype": "noteOff",
		"noteNumber": 34,
		"velocity": 0,
		"time": 155520,
		"track": 2
	},
	{
		"deltaTime": 0,
		"channel": 0,
		"type": "channel",
		"noteNumber": 32,
		"velocity": 127,
		"subtype": "noteOn",
		"time": 155520,
		"track": 2
	},
	{
		"deltaTime": 0,
		"channel": 2,
		"type": "channel",
		"noteNumber": 44,
		"velocity": 127,
		"subtype": "noteOn",
		"time": 155520,
		"track": 4
	},
	{
		"deltaTime": 0,
		"channel": 9,
		"type": "channel",
		"noteNumber": 42,
		"velocity": 127,
		"subtype": "noteOn",
		"time": 155520,
		"track": 5
	},
	{
		"deltaTime": 0,
		"channel": 9,
		"type": "channel",
		"noteNumber": 35,
		"velocity": 127,
		"subtype": "noteOn",
		"time": 155520,
		"track": 5
	},
	{
		"deltaTime": 60,
		"channel": 9,
		"type": "channel",
		"noteNumber": 36,
		"velocity": 127,
		"subtype": "noteOn",
		"time": 155520,
		"track": 5
	},
	{
		"deltaTime": 0,
		"channel": 9,
		"type": "channel",
		"subtype": "noteOff",
		"noteNumber": 36,
		"velocity": 0,
		"time": 155580,
		"track": 5
	},
	{
		"deltaTime": 0,
		"channel": 9,
		"type": "channel",
		"subtype": "noteOff",
		"noteNumber": 35,
		"velocity": 0,
		"time": 155580,
		"track": 5
	},
	{
		"deltaTime": 60,
		"channel": 9,
		"type": "channel",
		"subtype": "noteOff",
		"noteNumber": 42,
		"velocity": 0,
		"time": 155580,
		"track": 5
	},
	{
		"deltaTime": 60,
		"channel": 9,
		"type": "channel",
		"noteNumber": 42,
		"velocity": 127,
		"subtype": "noteOn",
		"time": 155640,
		"track": 5
	},
	{
		"deltaTime": 60,
		"channel": 9,
		"type": "channel",
		"subtype": "noteOff",
		"noteNumber": 42,
		"velocity": 0,
		"time": 155700,
		"track": 5
	},
	{
		"deltaTime": 0,
		"channel": 9,
		"type": "channel",
		"noteNumber": 42,
		"velocity": 127,
		"subtype": "noteOn",
		"time": 155760,
		"track": 5
	},
	{
		"deltaTime": 0,
		"channel": 9,
		"type": "channel",
		"noteNumber": 36,
		"velocity": 127,
		"subtype": "noteOn",
		"time": 155760,
		"track": 5
	},
	{
		"deltaTime": 60,
		"channel": 9,
		"type": "channel",
		"noteNumber": 35,
		"velocity": 127,
		"subtype": "noteOn",
		"time": 155760,
		"track": 5
	},
	{
		"deltaTime": 0,
		"channel": 9,
		"type": "channel",
		"subtype": "noteOff",
		"noteNumber": 35,
		"velocity": 0,
		"time": 155820,
		"track": 5
	},
	{
		"deltaTime": 0,
		"channel": 9,
		"type": "channel",
		"subtype": "noteOff",
		"noteNumber": 36,
		"velocity": 0,
		"time": 155820,
		"track": 5
	},
	{
		"deltaTime": 60,
		"channel": 9,
		"type": "channel",
		"subtype": "noteOff",
		"noteNumber": 42,
		"velocity": 0,
		"time": 155820,
		"track": 5
	},
	{
		"deltaTime": 0,
		"channel": 2,
		"type": "channel",
		"subtype": "noteOff",
		"noteNumber": 44,
		"velocity": 0,
		"time": 155880,
		"track": 4
	},
	{
		"deltaTime": 0,
		"channel": 2,
		"type": "channel",
		"noteNumber": 59,
		"velocity": 127,
		"subtype": "noteOn",
		"time": 155880,
		"track": 4
	},
	{
		"deltaTime": 0,
		"channel": 2,
		"type": "channel",
		"noteNumber": 63,
		"velocity": 127,
		"subtype": "noteOn",
		"time": 155880,
		"track": 4
	},
	{
		"deltaTime": 0,
		"channel": 2,
		"type": "channel",
		"noteNumber": 68,
		"velocity": 127,
		"subtype": "noteOn",
		"time": 155880,
		"track": 4
	},
	{
		"deltaTime": 60,
		"channel": 9,
		"type": "channel",
		"noteNumber": 42,
		"velocity": 127,
		"subtype": "noteOn",
		"time": 155880,
		"track": 5
	},
	{
		"deltaTime": 60,
		"channel": 9,
		"type": "channel",
		"subtype": "noteOff",
		"noteNumber": 42,
		"velocity": 0,
		"time": 155940,
		"track": 5
	},
	{
		"deltaTime": 0,
		"channel": 9,
		"type": "channel",
		"noteNumber": 42,
		"velocity": 127,
		"subtype": "noteOn",
		"time": 156000,
		"track": 5
	},
	{
		"deltaTime": 0,
		"channel": 9,
		"type": "channel",
		"noteNumber": 38,
		"velocity": 127,
		"subtype": "noteOn",
		"time": 156000,
		"track": 5
	},
	{
		"deltaTime": 60,
		"channel": 9,
		"type": "channel",
		"noteNumber": 40,
		"velocity": 127,
		"subtype": "noteOn",
		"time": 156000,
		"track": 5
	},
	{
		"deltaTime": 0,
		"channel": 9,
		"type": "channel",
		"subtype": "noteOff",
		"noteNumber": 40,
		"velocity": 0,
		"time": 156060,
		"track": 5
	},
	{
		"deltaTime": 0,
		"channel": 9,
		"type": "channel",
		"subtype": "noteOff",
		"noteNumber": 38,
		"velocity": 0,
		"time": 156060,
		"track": 5
	},
	{
		"deltaTime": 60,
		"channel": 9,
		"type": "channel",
		"subtype": "noteOff",
		"noteNumber": 42,
		"velocity": 0,
		"time": 156060,
		"track": 5
	},
	{
		"deltaTime": 0,
		"channel": 2,
		"type": "channel",
		"subtype": "noteOff",
		"noteNumber": 68,
		"velocity": 0,
		"time": 156120,
		"track": 4
	},
	{
		"deltaTime": 0,
		"channel": 2,
		"type": "channel",
		"subtype": "noteOff",
		"noteNumber": 63,
		"velocity": 0,
		"time": 156120,
		"track": 4
	},
	{
		"deltaTime": 0,
		"channel": 2,
		"type": "channel",
		"subtype": "noteOff",
		"noteNumber": 59,
		"velocity": 0,
		"time": 156120,
		"track": 4
	},
	{
		"deltaTime": 0,
		"channel": 2,
		"type": "channel",
		"noteNumber": 59,
		"velocity": 127,
		"subtype": "noteOn",
		"time": 156120,
		"track": 4
	},
	{
		"deltaTime": 0,
		"channel": 2,
		"type": "channel",
		"noteNumber": 63,
		"velocity": 127,
		"subtype": "noteOn",
		"time": 156120,
		"track": 4
	},
	{
		"deltaTime": 0,
		"channel": 2,
		"type": "channel",
		"noteNumber": 68,
		"velocity": 127,
		"subtype": "noteOn",
		"time": 156120,
		"track": 4
	},
	{
		"deltaTime": 60,
		"channel": 9,
		"type": "channel",
		"noteNumber": 42,
		"velocity": 127,
		"subtype": "noteOn",
		"time": 156120,
		"track": 5
	},
	{
		"deltaTime": 60,
		"channel": 9,
		"type": "channel",
		"subtype": "noteOff",
		"noteNumber": 42,
		"velocity": 0,
		"time": 156180,
		"track": 5
	},
	{
		"deltaTime": 60,
		"channel": 9,
		"type": "channel",
		"noteNumber": 42,
		"velocity": 127,
		"subtype": "noteOn",
		"time": 156240,
		"track": 5
	},
	{
		"deltaTime": 60,
		"channel": 9,
		"type": "channel",
		"subtype": "noteOff",
		"noteNumber": 42,
		"velocity": 0,
		"time": 156300,
		"track": 5
	},
	{
		"deltaTime": 0,
		"channel": 9,
		"type": "channel",
		"noteNumber": 42,
		"velocity": 127,
		"subtype": "noteOn",
		"time": 156360,
		"track": 5
	},
	{
		"deltaTime": 0,
		"channel": 9,
		"type": "channel",
		"noteNumber": 36,
		"velocity": 127,
		"subtype": "noteOn",
		"time": 156360,
		"track": 5
	},
	{
		"deltaTime": 60,
		"channel": 9,
		"type": "channel",
		"noteNumber": 35,
		"velocity": 127,
		"subtype": "noteOn",
		"time": 156360,
		"track": 5
	},
	{
		"deltaTime": 0,
		"channel": 9,
		"type": "channel",
		"subtype": "noteOff",
		"noteNumber": 35,
		"velocity": 0,
		"time": 156420,
		"track": 5
	},
	{
		"deltaTime": 0,
		"channel": 9,
		"type": "channel",
		"subtype": "noteOff",
		"noteNumber": 36,
		"velocity": 0,
		"time": 156420,
		"track": 5
	},
	{
		"deltaTime": 60,
		"channel": 9,
		"type": "channel",
		"subtype": "noteOff",
		"noteNumber": 42,
		"velocity": 0,
		"time": 156420,
		"track": 5
	},
	{
		"deltaTime": 0,
		"channel": 0,
		"type": "channel",
		"subtype": "noteOff",
		"noteNumber": 32,
		"velocity": 0,
		"time": 156480,
		"track": 2
	},
	{
		"deltaTime": 0,
		"channel": 0,
		"type": "channel",
		"noteNumber": 40,
		"velocity": 127,
		"subtype": "noteOn",
		"time": 156480,
		"track": 2
	},
	{
		"deltaTime": 0,
		"channel": 2,
		"type": "channel",
		"subtype": "noteOff",
		"noteNumber": 68,
		"velocity": 0,
		"time": 156480,
		"track": 4
	},
	{
		"deltaTime": 0,
		"channel": 2,
		"type": "channel",
		"subtype": "noteOff",
		"noteNumber": 63,
		"velocity": 0,
		"time": 156480,
		"track": 4
	},
	{
		"deltaTime": 0,
		"channel": 2,
		"type": "channel",
		"subtype": "noteOff",
		"noteNumber": 59,
		"velocity": 0,
		"time": 156480,
		"track": 4
	},
	{
		"deltaTime": 0,
		"channel": 2,
		"type": "channel",
		"noteNumber": 40,
		"velocity": 127,
		"subtype": "noteOn",
		"time": 156480,
		"track": 4
	},
	{
		"deltaTime": 60,
		"channel": 9,
		"type": "channel",
		"noteNumber": 42,
		"velocity": 127,
		"subtype": "noteOn",
		"time": 156480,
		"track": 5
	},
	{
		"deltaTime": 60,
		"channel": 9,
		"type": "channel",
		"subtype": "noteOff",
		"noteNumber": 42,
		"velocity": 0,
		"time": 156540,
		"track": 5
	},
	{
		"deltaTime": 60,
		"channel": 9,
		"type": "channel",
		"noteNumber": 42,
		"velocity": 127,
		"subtype": "noteOn",
		"time": 156600,
		"track": 5
	},
	{
		"deltaTime": 60,
		"channel": 9,
		"type": "channel",
		"subtype": "noteOff",
		"noteNumber": 42,
		"velocity": 0,
		"time": 156660,
		"track": 5
	},
	{
		"deltaTime": 0,
		"channel": 9,
		"type": "channel",
		"noteNumber": 42,
		"velocity": 127,
		"subtype": "noteOn",
		"time": 156720,
		"track": 5
	},
	{
		"deltaTime": 0,
		"channel": 9,
		"type": "channel",
		"noteNumber": 36,
		"velocity": 127,
		"subtype": "noteOn",
		"time": 156720,
		"track": 5
	},
	{
		"deltaTime": 60,
		"channel": 9,
		"type": "channel",
		"noteNumber": 35,
		"velocity": 127,
		"subtype": "noteOn",
		"time": 156720,
		"track": 5
	},
	{
		"deltaTime": 0,
		"channel": 9,
		"type": "channel",
		"subtype": "noteOff",
		"noteNumber": 35,
		"velocity": 0,
		"time": 156780,
		"track": 5
	},
	{
		"deltaTime": 0,
		"channel": 9,
		"type": "channel",
		"subtype": "noteOff",
		"noteNumber": 36,
		"velocity": 0,
		"time": 156780,
		"track": 5
	},
	{
		"deltaTime": 60,
		"channel": 9,
		"type": "channel",
		"subtype": "noteOff",
		"noteNumber": 42,
		"velocity": 0,
		"time": 156780,
		"track": 5
	},
	{
		"deltaTime": 0,
		"channel": 2,
		"type": "channel",
		"subtype": "noteOff",
		"noteNumber": 40,
		"velocity": 0,
		"time": 156840,
		"track": 4
	},
	{
		"deltaTime": 0,
		"channel": 2,
		"type": "channel",
		"noteNumber": 59,
		"velocity": 127,
		"subtype": "noteOn",
		"time": 156840,
		"track": 4
	},
	{
		"deltaTime": 0,
		"channel": 2,
		"type": "channel",
		"noteNumber": 63,
		"velocity": 127,
		"subtype": "noteOn",
		"time": 156840,
		"track": 4
	},
	{
		"deltaTime": 0,
		"channel": 2,
		"type": "channel",
		"noteNumber": 68,
		"velocity": 127,
		"subtype": "noteOn",
		"time": 156840,
		"track": 4
	},
	{
		"deltaTime": 60,
		"channel": 9,
		"type": "channel",
		"noteNumber": 42,
		"velocity": 127,
		"subtype": "noteOn",
		"time": 156840,
		"track": 5
	},
	{
		"deltaTime": 60,
		"channel": 9,
		"type": "channel",
		"subtype": "noteOff",
		"noteNumber": 42,
		"velocity": 0,
		"time": 156900,
		"track": 5
	},
	{
		"deltaTime": 0,
		"channel": 9,
		"type": "channel",
		"noteNumber": 42,
		"velocity": 127,
		"subtype": "noteOn",
		"time": 156960,
		"track": 5
	},
	{
		"deltaTime": 0,
		"channel": 9,
		"type": "channel",
		"noteNumber": 40,
		"velocity": 127,
		"subtype": "noteOn",
		"time": 156960,
		"track": 5
	},
	{
		"deltaTime": 60,
		"channel": 9,
		"type": "channel",
		"noteNumber": 38,
		"velocity": 127,
		"subtype": "noteOn",
		"time": 156960,
		"track": 5
	},
	{
		"deltaTime": 0,
		"channel": 9,
		"type": "channel",
		"subtype": "noteOff",
		"noteNumber": 38,
		"velocity": 0,
		"time": 157020,
		"track": 5
	},
	{
		"deltaTime": 0,
		"channel": 9,
		"type": "channel",
		"subtype": "noteOff",
		"noteNumber": 40,
		"velocity": 0,
		"time": 157020,
		"track": 5
	},
	{
		"deltaTime": 60,
		"channel": 9,
		"type": "channel",
		"subtype": "noteOff",
		"noteNumber": 42,
		"velocity": 0,
		"time": 157020,
		"track": 5
	},
	{
		"deltaTime": 0,
		"channel": 2,
		"type": "channel",
		"subtype": "noteOff",
		"noteNumber": 68,
		"velocity": 0,
		"time": 157080,
		"track": 4
	},
	{
		"deltaTime": 0,
		"channel": 2,
		"type": "channel",
		"subtype": "noteOff",
		"noteNumber": 63,
		"velocity": 0,
		"time": 157080,
		"track": 4
	},
	{
		"deltaTime": 0,
		"channel": 2,
		"type": "channel",
		"subtype": "noteOff",
		"noteNumber": 59,
		"velocity": 0,
		"time": 157080,
		"track": 4
	},
	{
		"deltaTime": 0,
		"channel": 2,
		"type": "channel",
		"noteNumber": 59,
		"velocity": 127,
		"subtype": "noteOn",
		"time": 157080,
		"track": 4
	},
	{
		"deltaTime": 0,
		"channel": 2,
		"type": "channel",
		"noteNumber": 63,
		"velocity": 127,
		"subtype": "noteOn",
		"time": 157080,
		"track": 4
	},
	{
		"deltaTime": 0,
		"channel": 2,
		"type": "channel",
		"noteNumber": 68,
		"velocity": 127,
		"subtype": "noteOn",
		"time": 157080,
		"track": 4
	},
	{
		"deltaTime": 60,
		"channel": 9,
		"type": "channel",
		"noteNumber": 42,
		"velocity": 127,
		"subtype": "noteOn",
		"time": 157080,
		"track": 5
	},
	{
		"deltaTime": 60,
		"channel": 9,
		"type": "channel",
		"subtype": "noteOff",
		"noteNumber": 42,
		"velocity": 0,
		"time": 157140,
		"track": 5
	},
	{
		"deltaTime": 60,
		"channel": 9,
		"type": "channel",
		"noteNumber": 42,
		"velocity": 127,
		"subtype": "noteOn",
		"time": 157200,
		"track": 5
	},
	{
		"deltaTime": 60,
		"channel": 9,
		"type": "channel",
		"subtype": "noteOff",
		"noteNumber": 42,
		"velocity": 0,
		"time": 157260,
		"track": 5
	},
	{
		"deltaTime": 60,
		"channel": 9,
		"type": "channel",
		"noteNumber": 42,
		"velocity": 127,
		"subtype": "noteOn",
		"time": 157320,
		"track": 5
	},
	{
		"deltaTime": 60,
		"channel": 9,
		"type": "channel",
		"subtype": "noteOff",
		"noteNumber": 42,
		"velocity": 0,
		"time": 157380,
		"track": 5
	},
	{
		"deltaTime": 0,
		"channel": 0,
		"type": "channel",
		"subtype": "noteOff",
		"noteNumber": 40,
		"velocity": 0,
		"time": 157440,
		"track": 2
	},
	{
		"deltaTime": 0,
		"channel": 0,
		"type": "channel",
		"noteNumber": 42,
		"velocity": 127,
		"subtype": "noteOn",
		"time": 157440,
		"track": 2
	},
	{
		"deltaTime": 0,
		"channel": 2,
		"type": "channel",
		"subtype": "noteOff",
		"noteNumber": 68,
		"velocity": 0,
		"time": 157440,
		"track": 4
	},
	{
		"deltaTime": 0,
		"channel": 2,
		"type": "channel",
		"subtype": "noteOff",
		"noteNumber": 63,
		"velocity": 0,
		"time": 157440,
		"track": 4
	},
	{
		"deltaTime": 0,
		"channel": 2,
		"type": "channel",
		"subtype": "noteOff",
		"noteNumber": 59,
		"velocity": 0,
		"time": 157440,
		"track": 4
	},
	{
		"deltaTime": 0,
		"channel": 2,
		"type": "channel",
		"noteNumber": 42,
		"velocity": 127,
		"subtype": "noteOn",
		"time": 157440,
		"track": 4
	},
	{
		"deltaTime": 0,
		"channel": 9,
		"type": "channel",
		"noteNumber": 42,
		"velocity": 127,
		"subtype": "noteOn",
		"time": 157440,
		"track": 5
	},
	{
		"deltaTime": 0,
		"channel": 9,
		"type": "channel",
		"noteNumber": 35,
		"velocity": 127,
		"subtype": "noteOn",
		"time": 157440,
		"track": 5
	},
	{
		"deltaTime": 60,
		"channel": 9,
		"type": "channel",
		"noteNumber": 36,
		"velocity": 127,
		"subtype": "noteOn",
		"time": 157440,
		"track": 5
	},
	{
		"deltaTime": 0,
		"channel": 9,
		"type": "channel",
		"subtype": "noteOff",
		"noteNumber": 36,
		"velocity": 0,
		"time": 157500,
		"track": 5
	},
	{
		"deltaTime": 0,
		"channel": 9,
		"type": "channel",
		"subtype": "noteOff",
		"noteNumber": 35,
		"velocity": 0,
		"time": 157500,
		"track": 5
	},
	{
		"deltaTime": 60,
		"channel": 9,
		"type": "channel",
		"subtype": "noteOff",
		"noteNumber": 42,
		"velocity": 0,
		"time": 157500,
		"track": 5
	},
	{
		"deltaTime": 60,
		"channel": 9,
		"type": "channel",
		"noteNumber": 42,
		"velocity": 127,
		"subtype": "noteOn",
		"time": 157560,
		"track": 5
	},
	{
		"deltaTime": 60,
		"channel": 9,
		"type": "channel",
		"subtype": "noteOff",
		"noteNumber": 42,
		"velocity": 0,
		"time": 157620,
		"track": 5
	},
	{
		"deltaTime": 0,
		"channel": 9,
		"type": "channel",
		"noteNumber": 42,
		"velocity": 127,
		"subtype": "noteOn",
		"time": 157680,
		"track": 5
	},
	{
		"deltaTime": 0,
		"channel": 9,
		"type": "channel",
		"noteNumber": 36,
		"velocity": 127,
		"subtype": "noteOn",
		"time": 157680,
		"track": 5
	},
	{
		"deltaTime": 60,
		"channel": 9,
		"type": "channel",
		"noteNumber": 35,
		"velocity": 127,
		"subtype": "noteOn",
		"time": 157680,
		"track": 5
	},
	{
		"deltaTime": 0,
		"channel": 9,
		"type": "channel",
		"subtype": "noteOff",
		"noteNumber": 35,
		"velocity": 0,
		"time": 157740,
		"track": 5
	},
	{
		"deltaTime": 0,
		"channel": 9,
		"type": "channel",
		"subtype": "noteOff",
		"noteNumber": 36,
		"velocity": 0,
		"time": 157740,
		"track": 5
	},
	{
		"deltaTime": 60,
		"channel": 9,
		"type": "channel",
		"subtype": "noteOff",
		"noteNumber": 42,
		"velocity": 0,
		"time": 157740,
		"track": 5
	},
	{
		"deltaTime": 0,
		"channel": 2,
		"type": "channel",
		"subtype": "noteOff",
		"noteNumber": 42,
		"velocity": 0,
		"time": 157800,
		"track": 4
	},
	{
		"deltaTime": 0,
		"channel": 2,
		"type": "channel",
		"noteNumber": 61,
		"velocity": 127,
		"subtype": "noteOn",
		"time": 157800,
		"track": 4
	},
	{
		"deltaTime": 0,
		"channel": 2,
		"type": "channel",
		"noteNumber": 66,
		"velocity": 127,
		"subtype": "noteOn",
		"time": 157800,
		"track": 4
	},
	{
		"deltaTime": 0,
		"channel": 2,
		"type": "channel",
		"noteNumber": 70,
		"velocity": 127,
		"subtype": "noteOn",
		"time": 157800,
		"track": 4
	},
	{
		"deltaTime": 60,
		"channel": 9,
		"type": "channel",
		"noteNumber": 42,
		"velocity": 127,
		"subtype": "noteOn",
		"time": 157800,
		"track": 5
	},
	{
		"deltaTime": 60,
		"channel": 9,
		"type": "channel",
		"subtype": "noteOff",
		"noteNumber": 42,
		"velocity": 0,
		"time": 157860,
		"track": 5
	},
	{
		"deltaTime": 0,
		"channel": 9,
		"type": "channel",
		"noteNumber": 42,
		"velocity": 127,
		"subtype": "noteOn",
		"time": 157920,
		"track": 5
	},
	{
		"deltaTime": 0,
		"channel": 9,
		"type": "channel",
		"noteNumber": 38,
		"velocity": 127,
		"subtype": "noteOn",
		"time": 157920,
		"track": 5
	},
	{
		"deltaTime": 60,
		"channel": 9,
		"type": "channel",
		"noteNumber": 40,
		"velocity": 127,
		"subtype": "noteOn",
		"time": 157920,
		"track": 5
	},
	{
		"deltaTime": 0,
		"channel": 9,
		"type": "channel",
		"subtype": "noteOff",
		"noteNumber": 40,
		"velocity": 0,
		"time": 157980,
		"track": 5
	},
	{
		"deltaTime": 0,
		"channel": 9,
		"type": "channel",
		"subtype": "noteOff",
		"noteNumber": 38,
		"velocity": 0,
		"time": 157980,
		"track": 5
	},
	{
		"deltaTime": 60,
		"channel": 9,
		"type": "channel",
		"subtype": "noteOff",
		"noteNumber": 42,
		"velocity": 0,
		"time": 157980,
		"track": 5
	},
	{
		"deltaTime": 0,
		"channel": 2,
		"type": "channel",
		"subtype": "noteOff",
		"noteNumber": 70,
		"velocity": 0,
		"time": 158040,
		"track": 4
	},
	{
		"deltaTime": 0,
		"channel": 2,
		"type": "channel",
		"subtype": "noteOff",
		"noteNumber": 66,
		"velocity": 0,
		"time": 158040,
		"track": 4
	},
	{
		"deltaTime": 0,
		"channel": 2,
		"type": "channel",
		"subtype": "noteOff",
		"noteNumber": 61,
		"velocity": 0,
		"time": 158040,
		"track": 4
	},
	{
		"deltaTime": 0,
		"channel": 2,
		"type": "channel",
		"noteNumber": 61,
		"velocity": 127,
		"subtype": "noteOn",
		"time": 158040,
		"track": 4
	},
	{
		"deltaTime": 0,
		"channel": 2,
		"type": "channel",
		"noteNumber": 66,
		"velocity": 127,
		"subtype": "noteOn",
		"time": 158040,
		"track": 4
	},
	{
		"deltaTime": 0,
		"channel": 2,
		"type": "channel",
		"noteNumber": 70,
		"velocity": 127,
		"subtype": "noteOn",
		"time": 158040,
		"track": 4
	},
	{
		"deltaTime": 60,
		"channel": 9,
		"type": "channel",
		"noteNumber": 42,
		"velocity": 127,
		"subtype": "noteOn",
		"time": 158040,
		"track": 5
	},
	{
		"deltaTime": 60,
		"channel": 9,
		"type": "channel",
		"subtype": "noteOff",
		"noteNumber": 42,
		"velocity": 0,
		"time": 158100,
		"track": 5
	},
	{
		"deltaTime": 60,
		"channel": 9,
		"type": "channel",
		"noteNumber": 42,
		"velocity": 127,
		"subtype": "noteOn",
		"time": 158160,
		"track": 5
	},
	{
		"deltaTime": 60,
		"channel": 9,
		"type": "channel",
		"subtype": "noteOff",
		"noteNumber": 42,
		"velocity": 0,
		"time": 158220,
		"track": 5
	},
	{
		"deltaTime": 0,
		"channel": 9,
		"type": "channel",
		"noteNumber": 42,
		"velocity": 127,
		"subtype": "noteOn",
		"time": 158280,
		"track": 5
	},
	{
		"deltaTime": 0,
		"channel": 9,
		"type": "channel",
		"noteNumber": 36,
		"velocity": 127,
		"subtype": "noteOn",
		"time": 158280,
		"track": 5
	},
	{
		"deltaTime": 60,
		"channel": 9,
		"type": "channel",
		"noteNumber": 35,
		"velocity": 127,
		"subtype": "noteOn",
		"time": 158280,
		"track": 5
	},
	{
		"deltaTime": 0,
		"channel": 9,
		"type": "channel",
		"subtype": "noteOff",
		"noteNumber": 35,
		"velocity": 0,
		"time": 158340,
		"track": 5
	},
	{
		"deltaTime": 0,
		"channel": 9,
		"type": "channel",
		"subtype": "noteOff",
		"noteNumber": 36,
		"velocity": 0,
		"time": 158340,
		"track": 5
	},
	{
		"deltaTime": 60,
		"channel": 9,
		"type": "channel",
		"subtype": "noteOff",
		"noteNumber": 42,
		"velocity": 0,
		"time": 158340,
		"track": 5
	},
	{
		"deltaTime": 0,
		"channel": 0,
		"type": "channel",
		"subtype": "noteOff",
		"noteNumber": 42,
		"velocity": 0,
		"time": 158400,
		"track": 2
	},
	{
		"deltaTime": 0,
		"channel": 0,
		"type": "channel",
		"noteNumber": 35,
		"velocity": 127,
		"subtype": "noteOn",
		"time": 158400,
		"track": 2
	},
	{
		"deltaTime": 0,
		"channel": 2,
		"type": "channel",
		"subtype": "noteOff",
		"noteNumber": 70,
		"velocity": 0,
		"time": 158400,
		"track": 4
	},
	{
		"deltaTime": 0,
		"channel": 2,
		"type": "channel",
		"subtype": "noteOff",
		"noteNumber": 66,
		"velocity": 0,
		"time": 158400,
		"track": 4
	},
	{
		"deltaTime": 0,
		"channel": 2,
		"type": "channel",
		"subtype": "noteOff",
		"noteNumber": 61,
		"velocity": 0,
		"time": 158400,
		"track": 4
	},
	{
		"deltaTime": 0,
		"channel": 2,
		"type": "channel",
		"noteNumber": 47,
		"velocity": 127,
		"subtype": "noteOn",
		"time": 158400,
		"track": 4
	},
	{
		"deltaTime": 60,
		"channel": 9,
		"type": "channel",
		"noteNumber": 42,
		"velocity": 127,
		"subtype": "noteOn",
		"time": 158400,
		"track": 5
	},
	{
		"deltaTime": 60,
		"channel": 9,
		"type": "channel",
		"subtype": "noteOff",
		"noteNumber": 42,
		"velocity": 0,
		"time": 158460,
		"track": 5
	},
	{
		"deltaTime": 60,
		"channel": 9,
		"type": "channel",
		"noteNumber": 42,
		"velocity": 127,
		"subtype": "noteOn",
		"time": 158520,
		"track": 5
	},
	{
		"deltaTime": 60,
		"channel": 9,
		"type": "channel",
		"subtype": "noteOff",
		"noteNumber": 42,
		"velocity": 0,
		"time": 158580,
		"track": 5
	},
	{
		"deltaTime": 0,
		"channel": 9,
		"type": "channel",
		"noteNumber": 42,
		"velocity": 127,
		"subtype": "noteOn",
		"time": 158640,
		"track": 5
	},
	{
		"deltaTime": 0,
		"channel": 9,
		"type": "channel",
		"noteNumber": 36,
		"velocity": 127,
		"subtype": "noteOn",
		"time": 158640,
		"track": 5
	},
	{
		"deltaTime": 60,
		"channel": 9,
		"type": "channel",
		"noteNumber": 35,
		"velocity": 127,
		"subtype": "noteOn",
		"time": 158640,
		"track": 5
	},
	{
		"deltaTime": 0,
		"channel": 9,
		"type": "channel",
		"subtype": "noteOff",
		"noteNumber": 35,
		"velocity": 0,
		"time": 158700,
		"track": 5
	},
	{
		"deltaTime": 0,
		"channel": 9,
		"type": "channel",
		"subtype": "noteOff",
		"noteNumber": 36,
		"velocity": 0,
		"time": 158700,
		"track": 5
	},
	{
		"deltaTime": 60,
		"channel": 9,
		"type": "channel",
		"subtype": "noteOff",
		"noteNumber": 42,
		"velocity": 0,
		"time": 158700,
		"track": 5
	},
	{
		"deltaTime": 0,
		"channel": 2,
		"type": "channel",
		"subtype": "noteOff",
		"noteNumber": 47,
		"velocity": 0,
		"time": 158760,
		"track": 4
	},
	{
		"deltaTime": 0,
		"channel": 2,
		"type": "channel",
		"noteNumber": 61,
		"velocity": 127,
		"subtype": "noteOn",
		"time": 158760,
		"track": 4
	},
	{
		"deltaTime": 0,
		"channel": 2,
		"type": "channel",
		"noteNumber": 66,
		"velocity": 127,
		"subtype": "noteOn",
		"time": 158760,
		"track": 4
	},
	{
		"deltaTime": 0,
		"channel": 2,
		"type": "channel",
		"noteNumber": 70,
		"velocity": 127,
		"subtype": "noteOn",
		"time": 158760,
		"track": 4
	},
	{
		"deltaTime": 60,
		"channel": 9,
		"type": "channel",
		"noteNumber": 42,
		"velocity": 127,
		"subtype": "noteOn",
		"time": 158760,
		"track": 5
	},
	{
		"deltaTime": 60,
		"channel": 9,
		"type": "channel",
		"subtype": "noteOff",
		"noteNumber": 42,
		"velocity": 0,
		"time": 158820,
		"track": 5
	},
	{
		"deltaTime": 0,
		"channel": 0,
		"type": "channel",
		"subtype": "noteOff",
		"noteNumber": 35,
		"velocity": 0,
		"time": 158880,
		"track": 2
	},
	{
		"deltaTime": 0,
		"channel": 0,
		"type": "channel",
		"noteNumber": 34,
		"velocity": 127,
		"subtype": "noteOn",
		"time": 158880,
		"track": 2
	},
	{
		"deltaTime": 0,
		"channel": 9,
		"type": "channel",
		"noteNumber": 42,
		"velocity": 127,
		"subtype": "noteOn",
		"time": 158880,
		"track": 5
	},
	{
		"deltaTime": 0,
		"channel": 9,
		"type": "channel",
		"noteNumber": 40,
		"velocity": 127,
		"subtype": "noteOn",
		"time": 158880,
		"track": 5
	},
	{
		"deltaTime": 60,
		"channel": 9,
		"type": "channel",
		"noteNumber": 38,
		"velocity": 127,
		"subtype": "noteOn",
		"time": 158880,
		"track": 5
	},
	{
		"deltaTime": 0,
		"channel": 9,
		"type": "channel",
		"subtype": "noteOff",
		"noteNumber": 38,
		"velocity": 0,
		"time": 158940,
		"track": 5
	},
	{
		"deltaTime": 0,
		"channel": 9,
		"type": "channel",
		"subtype": "noteOff",
		"noteNumber": 40,
		"velocity": 0,
		"time": 158940,
		"track": 5
	},
	{
		"deltaTime": 60,
		"channel": 9,
		"type": "channel",
		"subtype": "noteOff",
		"noteNumber": 42,
		"velocity": 0,
		"time": 158940,
		"track": 5
	},
	{
		"deltaTime": 0,
		"channel": 2,
		"type": "channel",
		"subtype": "noteOff",
		"noteNumber": 70,
		"velocity": 0,
		"time": 159000,
		"track": 4
	},
	{
		"deltaTime": 0,
		"channel": 2,
		"type": "channel",
		"subtype": "noteOff",
		"noteNumber": 66,
		"velocity": 0,
		"time": 159000,
		"track": 4
	},
	{
		"deltaTime": 0,
		"channel": 2,
		"type": "channel",
		"subtype": "noteOff",
		"noteNumber": 61,
		"velocity": 0,
		"time": 159000,
		"track": 4
	},
	{
		"deltaTime": 0,
		"channel": 2,
		"type": "channel",
		"noteNumber": 61,
		"velocity": 127,
		"subtype": "noteOn",
		"time": 159000,
		"track": 4
	},
	{
		"deltaTime": 0,
		"channel": 2,
		"type": "channel",
		"noteNumber": 66,
		"velocity": 127,
		"subtype": "noteOn",
		"time": 159000,
		"track": 4
	},
	{
		"deltaTime": 0,
		"channel": 2,
		"type": "channel",
		"noteNumber": 71,
		"velocity": 127,
		"subtype": "noteOn",
		"time": 159000,
		"track": 4
	},
	{
		"deltaTime": 60,
		"channel": 9,
		"type": "channel",
		"noteNumber": 42,
		"velocity": 127,
		"subtype": "noteOn",
		"time": 159000,
		"track": 5
	},
	{
		"deltaTime": 60,
		"channel": 9,
		"type": "channel",
		"subtype": "noteOff",
		"noteNumber": 42,
		"velocity": 0,
		"time": 159060,
		"track": 5
	},
	{
		"deltaTime": 60,
		"channel": 9,
		"type": "channel",
		"noteNumber": 42,
		"velocity": 127,
		"subtype": "noteOn",
		"time": 159120,
		"track": 5
	},
	{
		"deltaTime": 60,
		"channel": 9,
		"type": "channel",
		"subtype": "noteOff",
		"noteNumber": 42,
		"velocity": 0,
		"time": 159180,
		"track": 5
	},
	{
		"deltaTime": 60,
		"channel": 9,
		"type": "channel",
		"noteNumber": 42,
		"velocity": 127,
		"subtype": "noteOn",
		"time": 159240,
		"track": 5
	},
	{
		"deltaTime": 60,
		"channel": 9,
		"type": "channel",
		"subtype": "noteOff",
		"noteNumber": 42,
		"velocity": 0,
		"time": 159300,
		"track": 5
	},
	{
		"deltaTime": 0,
		"channel": 0,
		"type": "channel",
		"subtype": "noteOff",
		"noteNumber": 34,
		"velocity": 0,
		"time": 159360,
		"track": 2
	},
	{
		"deltaTime": 0,
		"channel": 0,
		"type": "channel",
		"noteNumber": 32,
		"velocity": 127,
		"subtype": "noteOn",
		"time": 159360,
		"track": 2
	},
	{
		"deltaTime": 0,
		"channel": 2,
		"type": "channel",
		"subtype": "noteOff",
		"noteNumber": 71,
		"velocity": 0,
		"time": 159360,
		"track": 4
	},
	{
		"deltaTime": 0,
		"channel": 2,
		"type": "channel",
		"subtype": "noteOff",
		"noteNumber": 66,
		"velocity": 0,
		"time": 159360,
		"track": 4
	},
	{
		"deltaTime": 0,
		"channel": 2,
		"type": "channel",
		"subtype": "noteOff",
		"noteNumber": 61,
		"velocity": 0,
		"time": 159360,
		"track": 4
	},
	{
		"deltaTime": 0,
		"channel": 2,
		"type": "channel",
		"noteNumber": 44,
		"velocity": 127,
		"subtype": "noteOn",
		"time": 159360,
		"track": 4
	},
	{
		"deltaTime": 0,
		"channel": 9,
		"type": "channel",
		"noteNumber": 42,
		"velocity": 127,
		"subtype": "noteOn",
		"time": 159360,
		"track": 5
	},
	{
		"deltaTime": 0,
		"channel": 9,
		"type": "channel",
		"noteNumber": 35,
		"velocity": 127,
		"subtype": "noteOn",
		"time": 159360,
		"track": 5
	},
	{
		"deltaTime": 60,
		"channel": 9,
		"type": "channel",
		"noteNumber": 36,
		"velocity": 127,
		"subtype": "noteOn",
		"time": 159360,
		"track": 5
	},
	{
		"deltaTime": 0,
		"channel": 9,
		"type": "channel",
		"subtype": "noteOff",
		"noteNumber": 36,
		"velocity": 0,
		"time": 159420,
		"track": 5
	},
	{
		"deltaTime": 0,
		"channel": 9,
		"type": "channel",
		"subtype": "noteOff",
		"noteNumber": 35,
		"velocity": 0,
		"time": 159420,
		"track": 5
	},
	{
		"deltaTime": 60,
		"channel": 9,
		"type": "channel",
		"subtype": "noteOff",
		"noteNumber": 42,
		"velocity": 0,
		"time": 159420,
		"track": 5
	},
	{
		"deltaTime": 60,
		"channel": 9,
		"type": "channel",
		"noteNumber": 42,
		"velocity": 127,
		"subtype": "noteOn",
		"time": 159480,
		"track": 5
	},
	{
		"deltaTime": 60,
		"channel": 9,
		"type": "channel",
		"subtype": "noteOff",
		"noteNumber": 42,
		"velocity": 0,
		"time": 159540,
		"track": 5
	},
	{
		"deltaTime": 0,
		"channel": 9,
		"type": "channel",
		"noteNumber": 42,
		"velocity": 127,
		"subtype": "noteOn",
		"time": 159600,
		"track": 5
	},
	{
		"deltaTime": 0,
		"channel": 9,
		"type": "channel",
		"noteNumber": 36,
		"velocity": 127,
		"subtype": "noteOn",
		"time": 159600,
		"track": 5
	},
	{
		"deltaTime": 60,
		"channel": 9,
		"type": "channel",
		"noteNumber": 35,
		"velocity": 127,
		"subtype": "noteOn",
		"time": 159600,
		"track": 5
	},
	{
		"deltaTime": 0,
		"channel": 9,
		"type": "channel",
		"subtype": "noteOff",
		"noteNumber": 35,
		"velocity": 0,
		"time": 159660,
		"track": 5
	},
	{
		"deltaTime": 0,
		"channel": 9,
		"type": "channel",
		"subtype": "noteOff",
		"noteNumber": 36,
		"velocity": 0,
		"time": 159660,
		"track": 5
	},
	{
		"deltaTime": 60,
		"channel": 9,
		"type": "channel",
		"subtype": "noteOff",
		"noteNumber": 42,
		"velocity": 0,
		"time": 159660,
		"track": 5
	},
	{
		"deltaTime": 0,
		"channel": 2,
		"type": "channel",
		"subtype": "noteOff",
		"noteNumber": 44,
		"velocity": 0,
		"time": 159720,
		"track": 4
	},
	{
		"deltaTime": 0,
		"channel": 2,
		"type": "channel",
		"noteNumber": 59,
		"velocity": 127,
		"subtype": "noteOn",
		"time": 159720,
		"track": 4
	},
	{
		"deltaTime": 0,
		"channel": 2,
		"type": "channel",
		"noteNumber": 63,
		"velocity": 127,
		"subtype": "noteOn",
		"time": 159720,
		"track": 4
	},
	{
		"deltaTime": 0,
		"channel": 2,
		"type": "channel",
		"noteNumber": 68,
		"velocity": 127,
		"subtype": "noteOn",
		"time": 159720,
		"track": 4
	},
	{
		"deltaTime": 60,
		"channel": 9,
		"type": "channel",
		"noteNumber": 42,
		"velocity": 127,
		"subtype": "noteOn",
		"time": 159720,
		"track": 5
	},
	{
		"deltaTime": 60,
		"channel": 9,
		"type": "channel",
		"subtype": "noteOff",
		"noteNumber": 42,
		"velocity": 0,
		"time": 159780,
		"track": 5
	},
	{
		"deltaTime": 0,
		"channel": 9,
		"type": "channel",
		"noteNumber": 42,
		"velocity": 127,
		"subtype": "noteOn",
		"time": 159840,
		"track": 5
	},
	{
		"deltaTime": 0,
		"channel": 9,
		"type": "channel",
		"noteNumber": 38,
		"velocity": 127,
		"subtype": "noteOn",
		"time": 159840,
		"track": 5
	},
	{
		"deltaTime": 60,
		"channel": 9,
		"type": "channel",
		"noteNumber": 40,
		"velocity": 127,
		"subtype": "noteOn",
		"time": 159840,
		"track": 5
	},
	{
		"deltaTime": 0,
		"channel": 9,
		"type": "channel",
		"subtype": "noteOff",
		"noteNumber": 40,
		"velocity": 0,
		"time": 159900,
		"track": 5
	},
	{
		"deltaTime": 0,
		"channel": 9,
		"type": "channel",
		"subtype": "noteOff",
		"noteNumber": 38,
		"velocity": 0,
		"time": 159900,
		"track": 5
	},
	{
		"deltaTime": 60,
		"channel": 9,
		"type": "channel",
		"subtype": "noteOff",
		"noteNumber": 42,
		"velocity": 0,
		"time": 159900,
		"track": 5
	},
	{
		"deltaTime": 0,
		"channel": 2,
		"type": "channel",
		"subtype": "noteOff",
		"noteNumber": 68,
		"velocity": 0,
		"time": 159960,
		"track": 4
	},
	{
		"deltaTime": 0,
		"channel": 2,
		"type": "channel",
		"subtype": "noteOff",
		"noteNumber": 63,
		"velocity": 0,
		"time": 159960,
		"track": 4
	},
	{
		"deltaTime": 0,
		"channel": 2,
		"type": "channel",
		"subtype": "noteOff",
		"noteNumber": 59,
		"velocity": 0,
		"time": 159960,
		"track": 4
	},
	{
		"deltaTime": 0,
		"channel": 2,
		"type": "channel",
		"noteNumber": 59,
		"velocity": 127,
		"subtype": "noteOn",
		"time": 159960,
		"track": 4
	},
	{
		"deltaTime": 0,
		"channel": 2,
		"type": "channel",
		"noteNumber": 63,
		"velocity": 127,
		"subtype": "noteOn",
		"time": 159960,
		"track": 4
	},
	{
		"deltaTime": 0,
		"channel": 2,
		"type": "channel",
		"noteNumber": 68,
		"velocity": 127,
		"subtype": "noteOn",
		"time": 159960,
		"track": 4
	},
	{
		"deltaTime": 60,
		"channel": 9,
		"type": "channel",
		"noteNumber": 42,
		"velocity": 127,
		"subtype": "noteOn",
		"time": 159960,
		"track": 5
	},
	{
		"deltaTime": 60,
		"channel": 9,
		"type": "channel",
		"subtype": "noteOff",
		"noteNumber": 42,
		"velocity": 0,
		"time": 160020,
		"track": 5
	},
	{
		"deltaTime": 60,
		"channel": 9,
		"type": "channel",
		"noteNumber": 42,
		"velocity": 127,
		"subtype": "noteOn",
		"time": 160080,
		"track": 5
	},
	{
		"deltaTime": 60,
		"channel": 9,
		"type": "channel",
		"subtype": "noteOff",
		"noteNumber": 42,
		"velocity": 0,
		"time": 160140,
		"track": 5
	},
	{
		"deltaTime": 0,
		"channel": 9,
		"type": "channel",
		"noteNumber": 42,
		"velocity": 127,
		"subtype": "noteOn",
		"time": 160200,
		"track": 5
	},
	{
		"deltaTime": 0,
		"channel": 9,
		"type": "channel",
		"noteNumber": 36,
		"velocity": 127,
		"subtype": "noteOn",
		"time": 160200,
		"track": 5
	},
	{
		"deltaTime": 60,
		"channel": 9,
		"type": "channel",
		"noteNumber": 35,
		"velocity": 127,
		"subtype": "noteOn",
		"time": 160200,
		"track": 5
	},
	{
		"deltaTime": 0,
		"channel": 9,
		"type": "channel",
		"subtype": "noteOff",
		"noteNumber": 35,
		"velocity": 0,
		"time": 160260,
		"track": 5
	},
	{
		"deltaTime": 0,
		"channel": 9,
		"type": "channel",
		"subtype": "noteOff",
		"noteNumber": 36,
		"velocity": 0,
		"time": 160260,
		"track": 5
	},
	{
		"deltaTime": 60,
		"channel": 9,
		"type": "channel",
		"subtype": "noteOff",
		"noteNumber": 42,
		"velocity": 0,
		"time": 160260,
		"track": 5
	},
	{
		"deltaTime": 0,
		"channel": 0,
		"type": "channel",
		"subtype": "noteOff",
		"noteNumber": 32,
		"velocity": 0,
		"time": 160320,
		"track": 2
	},
	{
		"deltaTime": 0,
		"channel": 0,
		"type": "channel",
		"noteNumber": 40,
		"velocity": 127,
		"subtype": "noteOn",
		"time": 160320,
		"track": 2
	},
	{
		"deltaTime": 0,
		"channel": 2,
		"type": "channel",
		"subtype": "noteOff",
		"noteNumber": 68,
		"velocity": 0,
		"time": 160320,
		"track": 4
	},
	{
		"deltaTime": 0,
		"channel": 2,
		"type": "channel",
		"subtype": "noteOff",
		"noteNumber": 63,
		"velocity": 0,
		"time": 160320,
		"track": 4
	},
	{
		"deltaTime": 0,
		"channel": 2,
		"type": "channel",
		"subtype": "noteOff",
		"noteNumber": 59,
		"velocity": 0,
		"time": 160320,
		"track": 4
	},
	{
		"deltaTime": 0,
		"channel": 2,
		"type": "channel",
		"noteNumber": 40,
		"velocity": 127,
		"subtype": "noteOn",
		"time": 160320,
		"track": 4
	},
	{
		"deltaTime": 60,
		"channel": 9,
		"type": "channel",
		"noteNumber": 42,
		"velocity": 127,
		"subtype": "noteOn",
		"time": 160320,
		"track": 5
	},
	{
		"deltaTime": 60,
		"channel": 9,
		"type": "channel",
		"subtype": "noteOff",
		"noteNumber": 42,
		"velocity": 0,
		"time": 160380,
		"track": 5
	},
	{
		"deltaTime": 60,
		"channel": 9,
		"type": "channel",
		"noteNumber": 42,
		"velocity": 127,
		"subtype": "noteOn",
		"time": 160440,
		"track": 5
	},
	{
		"deltaTime": 60,
		"channel": 9,
		"type": "channel",
		"subtype": "noteOff",
		"noteNumber": 42,
		"velocity": 0,
		"time": 160500,
		"track": 5
	},
	{
		"deltaTime": 0,
		"channel": 9,
		"type": "channel",
		"noteNumber": 42,
		"velocity": 127,
		"subtype": "noteOn",
		"time": 160560,
		"track": 5
	},
	{
		"deltaTime": 0,
		"channel": 9,
		"type": "channel",
		"noteNumber": 36,
		"velocity": 127,
		"subtype": "noteOn",
		"time": 160560,
		"track": 5
	},
	{
		"deltaTime": 60,
		"channel": 9,
		"type": "channel",
		"noteNumber": 35,
		"velocity": 127,
		"subtype": "noteOn",
		"time": 160560,
		"track": 5
	},
	{
		"deltaTime": 0,
		"channel": 9,
		"type": "channel",
		"subtype": "noteOff",
		"noteNumber": 35,
		"velocity": 0,
		"time": 160620,
		"track": 5
	},
	{
		"deltaTime": 0,
		"channel": 9,
		"type": "channel",
		"subtype": "noteOff",
		"noteNumber": 36,
		"velocity": 0,
		"time": 160620,
		"track": 5
	},
	{
		"deltaTime": 60,
		"channel": 9,
		"type": "channel",
		"subtype": "noteOff",
		"noteNumber": 42,
		"velocity": 0,
		"time": 160620,
		"track": 5
	},
	{
		"deltaTime": 0,
		"channel": 2,
		"type": "channel",
		"subtype": "noteOff",
		"noteNumber": 40,
		"velocity": 0,
		"time": 160680,
		"track": 4
	},
	{
		"deltaTime": 0,
		"channel": 2,
		"type": "channel",
		"noteNumber": 59,
		"velocity": 127,
		"subtype": "noteOn",
		"time": 160680,
		"track": 4
	},
	{
		"deltaTime": 0,
		"channel": 2,
		"type": "channel",
		"noteNumber": 63,
		"velocity": 127,
		"subtype": "noteOn",
		"time": 160680,
		"track": 4
	},
	{
		"deltaTime": 0,
		"channel": 2,
		"type": "channel",
		"noteNumber": 68,
		"velocity": 127,
		"subtype": "noteOn",
		"time": 160680,
		"track": 4
	},
	{
		"deltaTime": 60,
		"channel": 9,
		"type": "channel",
		"noteNumber": 42,
		"velocity": 127,
		"subtype": "noteOn",
		"time": 160680,
		"track": 5
	},
	{
		"deltaTime": 60,
		"channel": 9,
		"type": "channel",
		"subtype": "noteOff",
		"noteNumber": 42,
		"velocity": 0,
		"time": 160740,
		"track": 5
	},
	{
		"deltaTime": 0,
		"channel": 9,
		"type": "channel",
		"noteNumber": 42,
		"velocity": 127,
		"subtype": "noteOn",
		"time": 160800,
		"track": 5
	},
	{
		"deltaTime": 0,
		"channel": 9,
		"type": "channel",
		"noteNumber": 40,
		"velocity": 127,
		"subtype": "noteOn",
		"time": 160800,
		"track": 5
	},
	{
		"deltaTime": 60,
		"channel": 9,
		"type": "channel",
		"noteNumber": 38,
		"velocity": 127,
		"subtype": "noteOn",
		"time": 160800,
		"track": 5
	},
	{
		"deltaTime": 0,
		"channel": 9,
		"type": "channel",
		"subtype": "noteOff",
		"noteNumber": 38,
		"velocity": 0,
		"time": 160860,
		"track": 5
	},
	{
		"deltaTime": 0,
		"channel": 9,
		"type": "channel",
		"subtype": "noteOff",
		"noteNumber": 40,
		"velocity": 0,
		"time": 160860,
		"track": 5
	},
	{
		"deltaTime": 60,
		"channel": 9,
		"type": "channel",
		"subtype": "noteOff",
		"noteNumber": 42,
		"velocity": 0,
		"time": 160860,
		"track": 5
	},
	{
		"deltaTime": 0,
		"channel": 2,
		"type": "channel",
		"subtype": "noteOff",
		"noteNumber": 68,
		"velocity": 0,
		"time": 160920,
		"track": 4
	},
	{
		"deltaTime": 0,
		"channel": 2,
		"type": "channel",
		"subtype": "noteOff",
		"noteNumber": 63,
		"velocity": 0,
		"time": 160920,
		"track": 4
	},
	{
		"deltaTime": 0,
		"channel": 2,
		"type": "channel",
		"subtype": "noteOff",
		"noteNumber": 59,
		"velocity": 0,
		"time": 160920,
		"track": 4
	},
	{
		"deltaTime": 0,
		"channel": 2,
		"type": "channel",
		"noteNumber": 59,
		"velocity": 127,
		"subtype": "noteOn",
		"time": 160920,
		"track": 4
	},
	{
		"deltaTime": 0,
		"channel": 2,
		"type": "channel",
		"noteNumber": 63,
		"velocity": 127,
		"subtype": "noteOn",
		"time": 160920,
		"track": 4
	},
	{
		"deltaTime": 0,
		"channel": 2,
		"type": "channel",
		"noteNumber": 68,
		"velocity": 127,
		"subtype": "noteOn",
		"time": 160920,
		"track": 4
	},
	{
		"deltaTime": 60,
		"channel": 9,
		"type": "channel",
		"noteNumber": 42,
		"velocity": 127,
		"subtype": "noteOn",
		"time": 160920,
		"track": 5
	},
	{
		"deltaTime": 60,
		"channel": 9,
		"type": "channel",
		"subtype": "noteOff",
		"noteNumber": 42,
		"velocity": 0,
		"time": 160980,
		"track": 5
	},
	{
		"deltaTime": 60,
		"channel": 9,
		"type": "channel",
		"noteNumber": 42,
		"velocity": 127,
		"subtype": "noteOn",
		"time": 161040,
		"track": 5
	},
	{
		"deltaTime": 60,
		"channel": 9,
		"type": "channel",
		"subtype": "noteOff",
		"noteNumber": 42,
		"velocity": 0,
		"time": 161100,
		"track": 5
	},
	{
		"deltaTime": 60,
		"channel": 9,
		"type": "channel",
		"noteNumber": 42,
		"velocity": 127,
		"subtype": "noteOn",
		"time": 161160,
		"track": 5
	},
	{
		"deltaTime": 60,
		"channel": 9,
		"type": "channel",
		"subtype": "noteOff",
		"noteNumber": 42,
		"velocity": 0,
		"time": 161220,
		"track": 5
	},
	{
		"deltaTime": 0,
		"channel": 0,
		"type": "channel",
		"subtype": "noteOff",
		"noteNumber": 40,
		"velocity": 0,
		"time": 161280,
		"track": 2
	},
	{
		"deltaTime": 0,
		"channel": 0,
		"type": "channel",
		"noteNumber": 42,
		"velocity": 127,
		"subtype": "noteOn",
		"time": 161280,
		"track": 2
	},
	{
		"deltaTime": 0,
		"channel": 2,
		"type": "channel",
		"subtype": "noteOff",
		"noteNumber": 68,
		"velocity": 0,
		"time": 161280,
		"track": 4
	},
	{
		"deltaTime": 0,
		"channel": 2,
		"type": "channel",
		"subtype": "noteOff",
		"noteNumber": 63,
		"velocity": 0,
		"time": 161280,
		"track": 4
	},
	{
		"deltaTime": 0,
		"channel": 2,
		"type": "channel",
		"subtype": "noteOff",
		"noteNumber": 59,
		"velocity": 0,
		"time": 161280,
		"track": 4
	},
	{
		"deltaTime": 0,
		"channel": 2,
		"type": "channel",
		"noteNumber": 42,
		"velocity": 127,
		"subtype": "noteOn",
		"time": 161280,
		"track": 4
	},
	{
		"deltaTime": 0,
		"channel": 9,
		"type": "channel",
		"noteNumber": 42,
		"velocity": 127,
		"subtype": "noteOn",
		"time": 161280,
		"track": 5
	},
	{
		"deltaTime": 0,
		"channel": 9,
		"type": "channel",
		"noteNumber": 35,
		"velocity": 127,
		"subtype": "noteOn",
		"time": 161280,
		"track": 5
	},
	{
		"deltaTime": 60,
		"channel": 9,
		"type": "channel",
		"noteNumber": 36,
		"velocity": 127,
		"subtype": "noteOn",
		"time": 161280,
		"track": 5
	},
	{
		"deltaTime": 0,
		"channel": 9,
		"type": "channel",
		"subtype": "noteOff",
		"noteNumber": 36,
		"velocity": 0,
		"time": 161340,
		"track": 5
	},
	{
		"deltaTime": 0,
		"channel": 9,
		"type": "channel",
		"subtype": "noteOff",
		"noteNumber": 35,
		"velocity": 0,
		"time": 161340,
		"track": 5
	},
	{
		"deltaTime": 60,
		"channel": 9,
		"type": "channel",
		"subtype": "noteOff",
		"noteNumber": 42,
		"velocity": 0,
		"time": 161340,
		"track": 5
	},
	{
		"deltaTime": 60,
		"channel": 9,
		"type": "channel",
		"noteNumber": 42,
		"velocity": 127,
		"subtype": "noteOn",
		"time": 161400,
		"track": 5
	},
	{
		"deltaTime": 60,
		"channel": 9,
		"type": "channel",
		"subtype": "noteOff",
		"noteNumber": 42,
		"velocity": 0,
		"time": 161460,
		"track": 5
	},
	{
		"deltaTime": 0,
		"channel": 9,
		"type": "channel",
		"noteNumber": 42,
		"velocity": 127,
		"subtype": "noteOn",
		"time": 161520,
		"track": 5
	},
	{
		"deltaTime": 0,
		"channel": 9,
		"type": "channel",
		"noteNumber": 36,
		"velocity": 127,
		"subtype": "noteOn",
		"time": 161520,
		"track": 5
	},
	{
		"deltaTime": 60,
		"channel": 9,
		"type": "channel",
		"noteNumber": 35,
		"velocity": 127,
		"subtype": "noteOn",
		"time": 161520,
		"track": 5
	},
	{
		"deltaTime": 0,
		"channel": 9,
		"type": "channel",
		"subtype": "noteOff",
		"noteNumber": 35,
		"velocity": 0,
		"time": 161580,
		"track": 5
	},
	{
		"deltaTime": 0,
		"channel": 9,
		"type": "channel",
		"subtype": "noteOff",
		"noteNumber": 36,
		"velocity": 0,
		"time": 161580,
		"track": 5
	},
	{
		"deltaTime": 60,
		"channel": 9,
		"type": "channel",
		"subtype": "noteOff",
		"noteNumber": 42,
		"velocity": 0,
		"time": 161580,
		"track": 5
	},
	{
		"deltaTime": 0,
		"channel": 2,
		"type": "channel",
		"subtype": "noteOff",
		"noteNumber": 42,
		"velocity": 0,
		"time": 161640,
		"track": 4
	},
	{
		"deltaTime": 0,
		"channel": 2,
		"type": "channel",
		"noteNumber": 61,
		"velocity": 127,
		"subtype": "noteOn",
		"time": 161640,
		"track": 4
	},
	{
		"deltaTime": 0,
		"channel": 2,
		"type": "channel",
		"noteNumber": 66,
		"velocity": 127,
		"subtype": "noteOn",
		"time": 161640,
		"track": 4
	},
	{
		"deltaTime": 0,
		"channel": 2,
		"type": "channel",
		"noteNumber": 70,
		"velocity": 127,
		"subtype": "noteOn",
		"time": 161640,
		"track": 4
	},
	{
		"deltaTime": 60,
		"channel": 9,
		"type": "channel",
		"noteNumber": 42,
		"velocity": 127,
		"subtype": "noteOn",
		"time": 161640,
		"track": 5
	},
	{
		"deltaTime": 60,
		"channel": 9,
		"type": "channel",
		"subtype": "noteOff",
		"noteNumber": 42,
		"velocity": 0,
		"time": 161700,
		"track": 5
	},
	{
		"deltaTime": 0,
		"channel": 9,
		"type": "channel",
		"noteNumber": 42,
		"velocity": 127,
		"subtype": "noteOn",
		"time": 161760,
		"track": 5
	},
	{
		"deltaTime": 0,
		"channel": 9,
		"type": "channel",
		"noteNumber": 38,
		"velocity": 127,
		"subtype": "noteOn",
		"time": 161760,
		"track": 5
	},
	{
		"deltaTime": 60,
		"channel": 9,
		"type": "channel",
		"noteNumber": 40,
		"velocity": 127,
		"subtype": "noteOn",
		"time": 161760,
		"track": 5
	},
	{
		"deltaTime": 0,
		"channel": 9,
		"type": "channel",
		"subtype": "noteOff",
		"noteNumber": 40,
		"velocity": 0,
		"time": 161820,
		"track": 5
	},
	{
		"deltaTime": 0,
		"channel": 9,
		"type": "channel",
		"subtype": "noteOff",
		"noteNumber": 38,
		"velocity": 0,
		"time": 161820,
		"track": 5
	},
	{
		"deltaTime": 60,
		"channel": 9,
		"type": "channel",
		"subtype": "noteOff",
		"noteNumber": 42,
		"velocity": 0,
		"time": 161820,
		"track": 5
	},
	{
		"deltaTime": 0,
		"channel": 2,
		"type": "channel",
		"subtype": "noteOff",
		"noteNumber": 70,
		"velocity": 0,
		"time": 161880,
		"track": 4
	},
	{
		"deltaTime": 0,
		"channel": 2,
		"type": "channel",
		"subtype": "noteOff",
		"noteNumber": 66,
		"velocity": 0,
		"time": 161880,
		"track": 4
	},
	{
		"deltaTime": 0,
		"channel": 2,
		"type": "channel",
		"subtype": "noteOff",
		"noteNumber": 61,
		"velocity": 0,
		"time": 161880,
		"track": 4
	},
	{
		"deltaTime": 0,
		"channel": 2,
		"type": "channel",
		"noteNumber": 61,
		"velocity": 127,
		"subtype": "noteOn",
		"time": 161880,
		"track": 4
	},
	{
		"deltaTime": 0,
		"channel": 2,
		"type": "channel",
		"noteNumber": 66,
		"velocity": 127,
		"subtype": "noteOn",
		"time": 161880,
		"track": 4
	},
	{
		"deltaTime": 0,
		"channel": 2,
		"type": "channel",
		"noteNumber": 70,
		"velocity": 127,
		"subtype": "noteOn",
		"time": 161880,
		"track": 4
	},
	{
		"deltaTime": 60,
		"channel": 9,
		"type": "channel",
		"noteNumber": 42,
		"velocity": 127,
		"subtype": "noteOn",
		"time": 161880,
		"track": 5
	},
	{
		"deltaTime": 60,
		"channel": 9,
		"type": "channel",
		"subtype": "noteOff",
		"noteNumber": 42,
		"velocity": 0,
		"time": 161940,
		"track": 5
	},
	{
		"deltaTime": 60,
		"channel": 9,
		"type": "channel",
		"noteNumber": 42,
		"velocity": 127,
		"subtype": "noteOn",
		"time": 162000,
		"track": 5
	},
	{
		"deltaTime": 60,
		"channel": 9,
		"type": "channel",
		"subtype": "noteOff",
		"noteNumber": 42,
		"velocity": 0,
		"time": 162060,
		"track": 5
	},
	{
		"deltaTime": 0,
		"channel": 9,
		"type": "channel",
		"noteNumber": 42,
		"velocity": 127,
		"subtype": "noteOn",
		"time": 162120,
		"track": 5
	},
	{
		"deltaTime": 0,
		"channel": 9,
		"type": "channel",
		"noteNumber": 36,
		"velocity": 127,
		"subtype": "noteOn",
		"time": 162120,
		"track": 5
	},
	{
		"deltaTime": 60,
		"channel": 9,
		"type": "channel",
		"noteNumber": 35,
		"velocity": 127,
		"subtype": "noteOn",
		"time": 162120,
		"track": 5
	},
	{
		"deltaTime": 0,
		"channel": 9,
		"type": "channel",
		"subtype": "noteOff",
		"noteNumber": 35,
		"velocity": 0,
		"time": 162180,
		"track": 5
	},
	{
		"deltaTime": 0,
		"channel": 9,
		"type": "channel",
		"subtype": "noteOff",
		"noteNumber": 36,
		"velocity": 0,
		"time": 162180,
		"track": 5
	},
	{
		"deltaTime": 60,
		"channel": 9,
		"type": "channel",
		"subtype": "noteOff",
		"noteNumber": 42,
		"velocity": 0,
		"time": 162180,
		"track": 5
	},
	{
		"deltaTime": 0,
		"channel": 0,
		"type": "channel",
		"subtype": "noteOff",
		"noteNumber": 42,
		"velocity": 0,
		"time": 162240,
		"track": 2
	},
	{
		"deltaTime": 0,
		"channel": 0,
		"type": "channel",
		"noteNumber": 35,
		"velocity": 127,
		"subtype": "noteOn",
		"time": 162240,
		"track": 2
	},
	{
		"deltaTime": 0,
		"channel": 2,
		"type": "channel",
		"subtype": "noteOff",
		"noteNumber": 70,
		"velocity": 0,
		"time": 162240,
		"track": 4
	},
	{
		"deltaTime": 0,
		"channel": 2,
		"type": "channel",
		"subtype": "noteOff",
		"noteNumber": 66,
		"velocity": 0,
		"time": 162240,
		"track": 4
	},
	{
		"deltaTime": 0,
		"channel": 2,
		"type": "channel",
		"subtype": "noteOff",
		"noteNumber": 61,
		"velocity": 0,
		"time": 162240,
		"track": 4
	},
	{
		"deltaTime": 0,
		"channel": 2,
		"type": "channel",
		"noteNumber": 47,
		"velocity": 127,
		"subtype": "noteOn",
		"time": 162240,
		"track": 4
	},
	{
		"deltaTime": 60,
		"channel": 9,
		"type": "channel",
		"noteNumber": 42,
		"velocity": 127,
		"subtype": "noteOn",
		"time": 162240,
		"track": 5
	},
	{
		"deltaTime": 60,
		"channel": 9,
		"type": "channel",
		"subtype": "noteOff",
		"noteNumber": 42,
		"velocity": 0,
		"time": 162300,
		"track": 5
	},
	{
		"deltaTime": 60,
		"channel": 9,
		"type": "channel",
		"noteNumber": 42,
		"velocity": 127,
		"subtype": "noteOn",
		"time": 162360,
		"track": 5
	},
	{
		"deltaTime": 60,
		"channel": 9,
		"type": "channel",
		"subtype": "noteOff",
		"noteNumber": 42,
		"velocity": 0,
		"time": 162420,
		"track": 5
	},
	{
		"deltaTime": 0,
		"channel": 9,
		"type": "channel",
		"noteNumber": 42,
		"velocity": 127,
		"subtype": "noteOn",
		"time": 162480,
		"track": 5
	},
	{
		"deltaTime": 0,
		"channel": 9,
		"type": "channel",
		"noteNumber": 36,
		"velocity": 127,
		"subtype": "noteOn",
		"time": 162480,
		"track": 5
	},
	{
		"deltaTime": 60,
		"channel": 9,
		"type": "channel",
		"noteNumber": 35,
		"velocity": 127,
		"subtype": "noteOn",
		"time": 162480,
		"track": 5
	},
	{
		"deltaTime": 0,
		"channel": 9,
		"type": "channel",
		"subtype": "noteOff",
		"noteNumber": 35,
		"velocity": 0,
		"time": 162540,
		"track": 5
	},
	{
		"deltaTime": 0,
		"channel": 9,
		"type": "channel",
		"subtype": "noteOff",
		"noteNumber": 36,
		"velocity": 0,
		"time": 162540,
		"track": 5
	},
	{
		"deltaTime": 60,
		"channel": 9,
		"type": "channel",
		"subtype": "noteOff",
		"noteNumber": 42,
		"velocity": 0,
		"time": 162540,
		"track": 5
	},
	{
		"deltaTime": 0,
		"channel": 2,
		"type": "channel",
		"subtype": "noteOff",
		"noteNumber": 47,
		"velocity": 0,
		"time": 162600,
		"track": 4
	},
	{
		"deltaTime": 0,
		"channel": 2,
		"type": "channel",
		"noteNumber": 61,
		"velocity": 127,
		"subtype": "noteOn",
		"time": 162600,
		"track": 4
	},
	{
		"deltaTime": 0,
		"channel": 2,
		"type": "channel",
		"noteNumber": 66,
		"velocity": 127,
		"subtype": "noteOn",
		"time": 162600,
		"track": 4
	},
	{
		"deltaTime": 0,
		"channel": 2,
		"type": "channel",
		"noteNumber": 70,
		"velocity": 127,
		"subtype": "noteOn",
		"time": 162600,
		"track": 4
	},
	{
		"deltaTime": 60,
		"channel": 9,
		"type": "channel",
		"noteNumber": 42,
		"velocity": 127,
		"subtype": "noteOn",
		"time": 162600,
		"track": 5
	},
	{
		"deltaTime": 60,
		"channel": 9,
		"type": "channel",
		"subtype": "noteOff",
		"noteNumber": 42,
		"velocity": 0,
		"time": 162660,
		"track": 5
	},
	{
		"deltaTime": 0,
		"channel": 0,
		"type": "channel",
		"subtype": "noteOff",
		"noteNumber": 35,
		"velocity": 0,
		"time": 162720,
		"track": 2
	},
	{
		"deltaTime": 0,
		"channel": 0,
		"type": "channel",
		"noteNumber": 34,
		"velocity": 127,
		"subtype": "noteOn",
		"time": 162720,
		"track": 2
	},
	{
		"deltaTime": 0,
		"channel": 9,
		"type": "channel",
		"noteNumber": 42,
		"velocity": 127,
		"subtype": "noteOn",
		"time": 162720,
		"track": 5
	},
	{
		"deltaTime": 0,
		"channel": 9,
		"type": "channel",
		"noteNumber": 40,
		"velocity": 127,
		"subtype": "noteOn",
		"time": 162720,
		"track": 5
	},
	{
		"deltaTime": 60,
		"channel": 9,
		"type": "channel",
		"noteNumber": 38,
		"velocity": 127,
		"subtype": "noteOn",
		"time": 162720,
		"track": 5
	},
	{
		"deltaTime": 0,
		"channel": 9,
		"type": "channel",
		"subtype": "noteOff",
		"noteNumber": 38,
		"velocity": 0,
		"time": 162780,
		"track": 5
	},
	{
		"deltaTime": 0,
		"channel": 9,
		"type": "channel",
		"subtype": "noteOff",
		"noteNumber": 40,
		"velocity": 0,
		"time": 162780,
		"track": 5
	},
	{
		"deltaTime": 60,
		"channel": 9,
		"type": "channel",
		"subtype": "noteOff",
		"noteNumber": 42,
		"velocity": 0,
		"time": 162780,
		"track": 5
	},
	{
		"deltaTime": 0,
		"channel": 2,
		"type": "channel",
		"subtype": "noteOff",
		"noteNumber": 70,
		"velocity": 0,
		"time": 162840,
		"track": 4
	},
	{
		"deltaTime": 0,
		"channel": 2,
		"type": "channel",
		"subtype": "noteOff",
		"noteNumber": 66,
		"velocity": 0,
		"time": 162840,
		"track": 4
	},
	{
		"deltaTime": 0,
		"channel": 2,
		"type": "channel",
		"subtype": "noteOff",
		"noteNumber": 61,
		"velocity": 0,
		"time": 162840,
		"track": 4
	},
	{
		"deltaTime": 0,
		"channel": 2,
		"type": "channel",
		"noteNumber": 61,
		"velocity": 127,
		"subtype": "noteOn",
		"time": 162840,
		"track": 4
	},
	{
		"deltaTime": 0,
		"channel": 2,
		"type": "channel",
		"noteNumber": 66,
		"velocity": 127,
		"subtype": "noteOn",
		"time": 162840,
		"track": 4
	},
	{
		"deltaTime": 0,
		"channel": 2,
		"type": "channel",
		"noteNumber": 71,
		"velocity": 127,
		"subtype": "noteOn",
		"time": 162840,
		"track": 4
	},
	{
		"deltaTime": 60,
		"channel": 9,
		"type": "channel",
		"noteNumber": 42,
		"velocity": 127,
		"subtype": "noteOn",
		"time": 162840,
		"track": 5
	},
	{
		"deltaTime": 60,
		"channel": 9,
		"type": "channel",
		"subtype": "noteOff",
		"noteNumber": 42,
		"velocity": 0,
		"time": 162900,
		"track": 5
	},
	{
		"deltaTime": 60,
		"channel": 9,
		"type": "channel",
		"noteNumber": 42,
		"velocity": 127,
		"subtype": "noteOn",
		"time": 162960,
		"track": 5
	},
	{
		"deltaTime": 60,
		"channel": 9,
		"type": "channel",
		"subtype": "noteOff",
		"noteNumber": 42,
		"velocity": 0,
		"time": 163020,
		"track": 5
	},
	{
		"deltaTime": 60,
		"channel": 9,
		"type": "channel",
		"noteNumber": 42,
		"velocity": 127,
		"subtype": "noteOn",
		"time": 163080,
		"track": 5
	},
	{
		"deltaTime": 60,
		"channel": 9,
		"type": "channel",
		"subtype": "noteOff",
		"noteNumber": 42,
		"velocity": 0,
		"time": 163140,
		"track": 5
	},
	{
		"deltaTime": 0,
		"channel": 0,
		"type": "channel",
		"subtype": "noteOff",
		"noteNumber": 34,
		"velocity": 0,
		"time": 163200,
		"track": 2
	},
	{
		"deltaTime": 0,
		"channel": 0,
		"type": "channel",
		"noteNumber": 32,
		"velocity": 127,
		"subtype": "noteOn",
		"time": 163200,
		"track": 2
	},
	{
		"deltaTime": 0,
		"channel": 2,
		"type": "channel",
		"subtype": "noteOff",
		"noteNumber": 71,
		"velocity": 0,
		"time": 163200,
		"track": 4
	},
	{
		"deltaTime": 0,
		"channel": 2,
		"type": "channel",
		"subtype": "noteOff",
		"noteNumber": 66,
		"velocity": 0,
		"time": 163200,
		"track": 4
	},
	{
		"deltaTime": 0,
		"channel": 2,
		"type": "channel",
		"subtype": "noteOff",
		"noteNumber": 61,
		"velocity": 0,
		"time": 163200,
		"track": 4
	},
	{
		"deltaTime": 0,
		"channel": 2,
		"type": "channel",
		"noteNumber": 44,
		"velocity": 127,
		"subtype": "noteOn",
		"time": 163200,
		"track": 4
	},
	{
		"deltaTime": 0,
		"channel": 9,
		"type": "channel",
		"noteNumber": 42,
		"velocity": 127,
		"subtype": "noteOn",
		"time": 163200,
		"track": 5
	},
	{
		"deltaTime": 0,
		"channel": 9,
		"type": "channel",
		"noteNumber": 35,
		"velocity": 127,
		"subtype": "noteOn",
		"time": 163200,
		"track": 5
	},
	{
		"deltaTime": 60,
		"channel": 9,
		"type": "channel",
		"noteNumber": 36,
		"velocity": 127,
		"subtype": "noteOn",
		"time": 163200,
		"track": 5
	},
	{
		"deltaTime": 0,
		"channel": 9,
		"type": "channel",
		"subtype": "noteOff",
		"noteNumber": 36,
		"velocity": 0,
		"time": 163260,
		"track": 5
	},
	{
		"deltaTime": 0,
		"channel": 9,
		"type": "channel",
		"subtype": "noteOff",
		"noteNumber": 35,
		"velocity": 0,
		"time": 163260,
		"track": 5
	},
	{
		"deltaTime": 60,
		"channel": 9,
		"type": "channel",
		"subtype": "noteOff",
		"noteNumber": 42,
		"velocity": 0,
		"time": 163260,
		"track": 5
	},
	{
		"deltaTime": 60,
		"channel": 9,
		"type": "channel",
		"noteNumber": 42,
		"velocity": 127,
		"subtype": "noteOn",
		"time": 163320,
		"track": 5
	},
	{
		"deltaTime": 60,
		"channel": 9,
		"type": "channel",
		"subtype": "noteOff",
		"noteNumber": 42,
		"velocity": 0,
		"time": 163380,
		"track": 5
	},
	{
		"deltaTime": 0,
		"channel": 9,
		"type": "channel",
		"noteNumber": 42,
		"velocity": 127,
		"subtype": "noteOn",
		"time": 163440,
		"track": 5
	},
	{
		"deltaTime": 0,
		"channel": 9,
		"type": "channel",
		"noteNumber": 36,
		"velocity": 127,
		"subtype": "noteOn",
		"time": 163440,
		"track": 5
	},
	{
		"deltaTime": 60,
		"channel": 9,
		"type": "channel",
		"noteNumber": 35,
		"velocity": 127,
		"subtype": "noteOn",
		"time": 163440,
		"track": 5
	},
	{
		"deltaTime": 0,
		"channel": 9,
		"type": "channel",
		"subtype": "noteOff",
		"noteNumber": 35,
		"velocity": 0,
		"time": 163500,
		"track": 5
	},
	{
		"deltaTime": 0,
		"channel": 9,
		"type": "channel",
		"subtype": "noteOff",
		"noteNumber": 36,
		"velocity": 0,
		"time": 163500,
		"track": 5
	},
	{
		"deltaTime": 60,
		"channel": 9,
		"type": "channel",
		"subtype": "noteOff",
		"noteNumber": 42,
		"velocity": 0,
		"time": 163500,
		"track": 5
	},
	{
		"deltaTime": 0,
		"channel": 2,
		"type": "channel",
		"subtype": "noteOff",
		"noteNumber": 44,
		"velocity": 0,
		"time": 163560,
		"track": 4
	},
	{
		"deltaTime": 0,
		"channel": 2,
		"type": "channel",
		"noteNumber": 59,
		"velocity": 127,
		"subtype": "noteOn",
		"time": 163560,
		"track": 4
	},
	{
		"deltaTime": 0,
		"channel": 2,
		"type": "channel",
		"noteNumber": 63,
		"velocity": 127,
		"subtype": "noteOn",
		"time": 163560,
		"track": 4
	},
	{
		"deltaTime": 0,
		"channel": 2,
		"type": "channel",
		"noteNumber": 68,
		"velocity": 127,
		"subtype": "noteOn",
		"time": 163560,
		"track": 4
	},
	{
		"deltaTime": 60,
		"channel": 9,
		"type": "channel",
		"noteNumber": 42,
		"velocity": 127,
		"subtype": "noteOn",
		"time": 163560,
		"track": 5
	},
	{
		"deltaTime": 60,
		"channel": 9,
		"type": "channel",
		"subtype": "noteOff",
		"noteNumber": 42,
		"velocity": 0,
		"time": 163620,
		"track": 5
	},
	{
		"deltaTime": 0,
		"channel": 9,
		"type": "channel",
		"noteNumber": 42,
		"velocity": 127,
		"subtype": "noteOn",
		"time": 163680,
		"track": 5
	},
	{
		"deltaTime": 0,
		"channel": 9,
		"type": "channel",
		"noteNumber": 38,
		"velocity": 127,
		"subtype": "noteOn",
		"time": 163680,
		"track": 5
	},
	{
		"deltaTime": 60,
		"channel": 9,
		"type": "channel",
		"noteNumber": 40,
		"velocity": 127,
		"subtype": "noteOn",
		"time": 163680,
		"track": 5
	},
	{
		"deltaTime": 0,
		"channel": 9,
		"type": "channel",
		"subtype": "noteOff",
		"noteNumber": 40,
		"velocity": 0,
		"time": 163740,
		"track": 5
	},
	{
		"deltaTime": 0,
		"channel": 9,
		"type": "channel",
		"subtype": "noteOff",
		"noteNumber": 38,
		"velocity": 0,
		"time": 163740,
		"track": 5
	},
	{
		"deltaTime": 60,
		"channel": 9,
		"type": "channel",
		"subtype": "noteOff",
		"noteNumber": 42,
		"velocity": 0,
		"time": 163740,
		"track": 5
	},
	{
		"deltaTime": 0,
		"channel": 2,
		"type": "channel",
		"subtype": "noteOff",
		"noteNumber": 68,
		"velocity": 0,
		"time": 163800,
		"track": 4
	},
	{
		"deltaTime": 0,
		"channel": 2,
		"type": "channel",
		"subtype": "noteOff",
		"noteNumber": 63,
		"velocity": 0,
		"time": 163800,
		"track": 4
	},
	{
		"deltaTime": 0,
		"channel": 2,
		"type": "channel",
		"subtype": "noteOff",
		"noteNumber": 59,
		"velocity": 0,
		"time": 163800,
		"track": 4
	},
	{
		"deltaTime": 0,
		"channel": 2,
		"type": "channel",
		"noteNumber": 59,
		"velocity": 127,
		"subtype": "noteOn",
		"time": 163800,
		"track": 4
	},
	{
		"deltaTime": 0,
		"channel": 2,
		"type": "channel",
		"noteNumber": 63,
		"velocity": 127,
		"subtype": "noteOn",
		"time": 163800,
		"track": 4
	},
	{
		"deltaTime": 0,
		"channel": 2,
		"type": "channel",
		"noteNumber": 68,
		"velocity": 127,
		"subtype": "noteOn",
		"time": 163800,
		"track": 4
	},
	{
		"deltaTime": 60,
		"channel": 9,
		"type": "channel",
		"noteNumber": 42,
		"velocity": 127,
		"subtype": "noteOn",
		"time": 163800,
		"track": 5
	},
	{
		"deltaTime": 60,
		"channel": 9,
		"type": "channel",
		"subtype": "noteOff",
		"noteNumber": 42,
		"velocity": 0,
		"time": 163860,
		"track": 5
	},
	{
		"deltaTime": 60,
		"channel": 9,
		"type": "channel",
		"noteNumber": 42,
		"velocity": 127,
		"subtype": "noteOn",
		"time": 163920,
		"track": 5
	},
	{
		"deltaTime": 60,
		"channel": 9,
		"type": "channel",
		"subtype": "noteOff",
		"noteNumber": 42,
		"velocity": 0,
		"time": 163980,
		"track": 5
	},
	{
		"deltaTime": 0,
		"channel": 9,
		"type": "channel",
		"noteNumber": 42,
		"velocity": 127,
		"subtype": "noteOn",
		"time": 164040,
		"track": 5
	},
	{
		"deltaTime": 0,
		"channel": 9,
		"type": "channel",
		"noteNumber": 36,
		"velocity": 127,
		"subtype": "noteOn",
		"time": 164040,
		"track": 5
	},
	{
		"deltaTime": 60,
		"channel": 9,
		"type": "channel",
		"noteNumber": 35,
		"velocity": 127,
		"subtype": "noteOn",
		"time": 164040,
		"track": 5
	},
	{
		"deltaTime": 0,
		"channel": 9,
		"type": "channel",
		"subtype": "noteOff",
		"noteNumber": 35,
		"velocity": 0,
		"time": 164100,
		"track": 5
	},
	{
		"deltaTime": 0,
		"channel": 9,
		"type": "channel",
		"subtype": "noteOff",
		"noteNumber": 36,
		"velocity": 0,
		"time": 164100,
		"track": 5
	},
	{
		"deltaTime": 60,
		"channel": 9,
		"type": "channel",
		"subtype": "noteOff",
		"noteNumber": 42,
		"velocity": 0,
		"time": 164100,
		"track": 5
	},
	{
		"deltaTime": 0,
		"channel": 0,
		"type": "channel",
		"subtype": "noteOff",
		"noteNumber": 32,
		"velocity": 0,
		"time": 164160,
		"track": 2
	},
	{
		"deltaTime": 0,
		"channel": 0,
		"type": "channel",
		"noteNumber": 40,
		"velocity": 127,
		"subtype": "noteOn",
		"time": 164160,
		"track": 2
	},
	{
		"deltaTime": 0,
		"channel": 2,
		"type": "channel",
		"subtype": "noteOff",
		"noteNumber": 68,
		"velocity": 0,
		"time": 164160,
		"track": 4
	},
	{
		"deltaTime": 0,
		"channel": 2,
		"type": "channel",
		"subtype": "noteOff",
		"noteNumber": 63,
		"velocity": 0,
		"time": 164160,
		"track": 4
	},
	{
		"deltaTime": 0,
		"channel": 2,
		"type": "channel",
		"subtype": "noteOff",
		"noteNumber": 59,
		"velocity": 0,
		"time": 164160,
		"track": 4
	},
	{
		"deltaTime": 0,
		"channel": 2,
		"type": "channel",
		"noteNumber": 40,
		"velocity": 127,
		"subtype": "noteOn",
		"time": 164160,
		"track": 4
	},
	{
		"deltaTime": 60,
		"channel": 9,
		"type": "channel",
		"noteNumber": 42,
		"velocity": 127,
		"subtype": "noteOn",
		"time": 164160,
		"track": 5
	},
	{
		"deltaTime": 60,
		"channel": 9,
		"type": "channel",
		"subtype": "noteOff",
		"noteNumber": 42,
		"velocity": 0,
		"time": 164220,
		"track": 5
	},
	{
		"deltaTime": 60,
		"channel": 9,
		"type": "channel",
		"noteNumber": 42,
		"velocity": 127,
		"subtype": "noteOn",
		"time": 164280,
		"track": 5
	},
	{
		"deltaTime": 60,
		"channel": 9,
		"type": "channel",
		"subtype": "noteOff",
		"noteNumber": 42,
		"velocity": 0,
		"time": 164340,
		"track": 5
	},
	{
		"deltaTime": 0,
		"channel": 9,
		"type": "channel",
		"noteNumber": 42,
		"velocity": 127,
		"subtype": "noteOn",
		"time": 164400,
		"track": 5
	},
	{
		"deltaTime": 0,
		"channel": 9,
		"type": "channel",
		"noteNumber": 36,
		"velocity": 127,
		"subtype": "noteOn",
		"time": 164400,
		"track": 5
	},
	{
		"deltaTime": 60,
		"channel": 9,
		"type": "channel",
		"noteNumber": 35,
		"velocity": 127,
		"subtype": "noteOn",
		"time": 164400,
		"track": 5
	},
	{
		"deltaTime": 0,
		"channel": 9,
		"type": "channel",
		"subtype": "noteOff",
		"noteNumber": 35,
		"velocity": 0,
		"time": 164460,
		"track": 5
	},
	{
		"deltaTime": 0,
		"channel": 9,
		"type": "channel",
		"subtype": "noteOff",
		"noteNumber": 36,
		"velocity": 0,
		"time": 164460,
		"track": 5
	},
	{
		"deltaTime": 60,
		"channel": 9,
		"type": "channel",
		"subtype": "noteOff",
		"noteNumber": 42,
		"velocity": 0,
		"time": 164460,
		"track": 5
	},
	{
		"deltaTime": 0,
		"channel": 2,
		"type": "channel",
		"subtype": "noteOff",
		"noteNumber": 40,
		"velocity": 0,
		"time": 164520,
		"track": 4
	},
	{
		"deltaTime": 0,
		"channel": 2,
		"type": "channel",
		"noteNumber": 59,
		"velocity": 127,
		"subtype": "noteOn",
		"time": 164520,
		"track": 4
	},
	{
		"deltaTime": 0,
		"channel": 2,
		"type": "channel",
		"noteNumber": 63,
		"velocity": 127,
		"subtype": "noteOn",
		"time": 164520,
		"track": 4
	},
	{
		"deltaTime": 0,
		"channel": 2,
		"type": "channel",
		"noteNumber": 68,
		"velocity": 127,
		"subtype": "noteOn",
		"time": 164520,
		"track": 4
	},
	{
		"deltaTime": 60,
		"channel": 9,
		"type": "channel",
		"noteNumber": 42,
		"velocity": 127,
		"subtype": "noteOn",
		"time": 164520,
		"track": 5
	},
	{
		"deltaTime": 60,
		"channel": 9,
		"type": "channel",
		"subtype": "noteOff",
		"noteNumber": 42,
		"velocity": 0,
		"time": 164580,
		"track": 5
	},
	{
		"deltaTime": 0,
		"channel": 9,
		"type": "channel",
		"noteNumber": 42,
		"velocity": 127,
		"subtype": "noteOn",
		"time": 164640,
		"track": 5
	},
	{
		"deltaTime": 0,
		"channel": 9,
		"type": "channel",
		"noteNumber": 40,
		"velocity": 127,
		"subtype": "noteOn",
		"time": 164640,
		"track": 5
	},
	{
		"deltaTime": 60,
		"channel": 9,
		"type": "channel",
		"noteNumber": 38,
		"velocity": 127,
		"subtype": "noteOn",
		"time": 164640,
		"track": 5
	},
	{
		"deltaTime": 0,
		"channel": 9,
		"type": "channel",
		"subtype": "noteOff",
		"noteNumber": 38,
		"velocity": 0,
		"time": 164700,
		"track": 5
	},
	{
		"deltaTime": 0,
		"channel": 9,
		"type": "channel",
		"subtype": "noteOff",
		"noteNumber": 40,
		"velocity": 0,
		"time": 164700,
		"track": 5
	},
	{
		"deltaTime": 60,
		"channel": 9,
		"type": "channel",
		"subtype": "noteOff",
		"noteNumber": 42,
		"velocity": 0,
		"time": 164700,
		"track": 5
	},
	{
		"deltaTime": 0,
		"channel": 2,
		"type": "channel",
		"subtype": "noteOff",
		"noteNumber": 68,
		"velocity": 0,
		"time": 164760,
		"track": 4
	},
	{
		"deltaTime": 0,
		"channel": 2,
		"type": "channel",
		"subtype": "noteOff",
		"noteNumber": 63,
		"velocity": 0,
		"time": 164760,
		"track": 4
	},
	{
		"deltaTime": 0,
		"channel": 2,
		"type": "channel",
		"subtype": "noteOff",
		"noteNumber": 59,
		"velocity": 0,
		"time": 164760,
		"track": 4
	},
	{
		"deltaTime": 0,
		"channel": 2,
		"type": "channel",
		"noteNumber": 59,
		"velocity": 127,
		"subtype": "noteOn",
		"time": 164760,
		"track": 4
	},
	{
		"deltaTime": 0,
		"channel": 2,
		"type": "channel",
		"noteNumber": 63,
		"velocity": 127,
		"subtype": "noteOn",
		"time": 164760,
		"track": 4
	},
	{
		"deltaTime": 0,
		"channel": 2,
		"type": "channel",
		"noteNumber": 68,
		"velocity": 127,
		"subtype": "noteOn",
		"time": 164760,
		"track": 4
	},
	{
		"deltaTime": 60,
		"channel": 9,
		"type": "channel",
		"noteNumber": 42,
		"velocity": 127,
		"subtype": "noteOn",
		"time": 164760,
		"track": 5
	},
	{
		"deltaTime": 60,
		"channel": 9,
		"type": "channel",
		"subtype": "noteOff",
		"noteNumber": 42,
		"velocity": 0,
		"time": 164820,
		"track": 5
	},
	{
		"deltaTime": 60,
		"channel": 9,
		"type": "channel",
		"noteNumber": 42,
		"velocity": 127,
		"subtype": "noteOn",
		"time": 164880,
		"track": 5
	},
	{
		"deltaTime": 60,
		"channel": 9,
		"type": "channel",
		"subtype": "noteOff",
		"noteNumber": 42,
		"velocity": 0,
		"time": 164940,
		"track": 5
	},
	{
		"deltaTime": 60,
		"channel": 9,
		"type": "channel",
		"noteNumber": 42,
		"velocity": 127,
		"subtype": "noteOn",
		"time": 165000,
		"track": 5
	},
	{
		"deltaTime": 60,
		"channel": 9,
		"type": "channel",
		"subtype": "noteOff",
		"noteNumber": 42,
		"velocity": 0,
		"time": 165060,
		"track": 5
	},
	{
		"deltaTime": 0,
		"channel": 0,
		"type": "channel",
		"subtype": "noteOff",
		"noteNumber": 40,
		"velocity": 0,
		"time": 165120,
		"track": 2
	},
	{
		"deltaTime": 0,
		"channel": 0,
		"type": "channel",
		"noteNumber": 42,
		"velocity": 127,
		"subtype": "noteOn",
		"time": 165120,
		"track": 2
	},
	{
		"deltaTime": 0,
		"channel": 2,
		"type": "channel",
		"subtype": "noteOff",
		"noteNumber": 68,
		"velocity": 0,
		"time": 165120,
		"track": 4
	},
	{
		"deltaTime": 0,
		"channel": 2,
		"type": "channel",
		"subtype": "noteOff",
		"noteNumber": 63,
		"velocity": 0,
		"time": 165120,
		"track": 4
	},
	{
		"deltaTime": 0,
		"channel": 2,
		"type": "channel",
		"subtype": "noteOff",
		"noteNumber": 59,
		"velocity": 0,
		"time": 165120,
		"track": 4
	},
	{
		"deltaTime": 0,
		"channel": 2,
		"type": "channel",
		"noteNumber": 42,
		"velocity": 127,
		"subtype": "noteOn",
		"time": 165120,
		"track": 4
	},
	{
		"deltaTime": 0,
		"channel": 9,
		"type": "channel",
		"noteNumber": 42,
		"velocity": 127,
		"subtype": "noteOn",
		"time": 165120,
		"track": 5
	},
	{
		"deltaTime": 0,
		"channel": 9,
		"type": "channel",
		"noteNumber": 35,
		"velocity": 127,
		"subtype": "noteOn",
		"time": 165120,
		"track": 5
	},
	{
		"deltaTime": 60,
		"channel": 9,
		"type": "channel",
		"noteNumber": 36,
		"velocity": 127,
		"subtype": "noteOn",
		"time": 165120,
		"track": 5
	},
	{
		"deltaTime": 0,
		"channel": 9,
		"type": "channel",
		"subtype": "noteOff",
		"noteNumber": 36,
		"velocity": 0,
		"time": 165180,
		"track": 5
	},
	{
		"deltaTime": 0,
		"channel": 9,
		"type": "channel",
		"subtype": "noteOff",
		"noteNumber": 35,
		"velocity": 0,
		"time": 165180,
		"track": 5
	},
	{
		"deltaTime": 60,
		"channel": 9,
		"type": "channel",
		"subtype": "noteOff",
		"noteNumber": 42,
		"velocity": 0,
		"time": 165180,
		"track": 5
	},
	{
		"deltaTime": 60,
		"channel": 9,
		"type": "channel",
		"noteNumber": 42,
		"velocity": 127,
		"subtype": "noteOn",
		"time": 165240,
		"track": 5
	},
	{
		"deltaTime": 60,
		"channel": 9,
		"type": "channel",
		"subtype": "noteOff",
		"noteNumber": 42,
		"velocity": 0,
		"time": 165300,
		"track": 5
	},
	{
		"deltaTime": 0,
		"channel": 9,
		"type": "channel",
		"noteNumber": 42,
		"velocity": 127,
		"subtype": "noteOn",
		"time": 165360,
		"track": 5
	},
	{
		"deltaTime": 0,
		"channel": 9,
		"type": "channel",
		"noteNumber": 36,
		"velocity": 127,
		"subtype": "noteOn",
		"time": 165360,
		"track": 5
	},
	{
		"deltaTime": 60,
		"channel": 9,
		"type": "channel",
		"noteNumber": 35,
		"velocity": 127,
		"subtype": "noteOn",
		"time": 165360,
		"track": 5
	},
	{
		"deltaTime": 0,
		"channel": 9,
		"type": "channel",
		"subtype": "noteOff",
		"noteNumber": 35,
		"velocity": 0,
		"time": 165420,
		"track": 5
	},
	{
		"deltaTime": 0,
		"channel": 9,
		"type": "channel",
		"subtype": "noteOff",
		"noteNumber": 36,
		"velocity": 0,
		"time": 165420,
		"track": 5
	},
	{
		"deltaTime": 60,
		"channel": 9,
		"type": "channel",
		"subtype": "noteOff",
		"noteNumber": 42,
		"velocity": 0,
		"time": 165420,
		"track": 5
	},
	{
		"deltaTime": 0,
		"channel": 2,
		"type": "channel",
		"subtype": "noteOff",
		"noteNumber": 42,
		"velocity": 0,
		"time": 165480,
		"track": 4
	},
	{
		"deltaTime": 0,
		"channel": 2,
		"type": "channel",
		"noteNumber": 61,
		"velocity": 127,
		"subtype": "noteOn",
		"time": 165480,
		"track": 4
	},
	{
		"deltaTime": 0,
		"channel": 2,
		"type": "channel",
		"noteNumber": 66,
		"velocity": 127,
		"subtype": "noteOn",
		"time": 165480,
		"track": 4
	},
	{
		"deltaTime": 0,
		"channel": 2,
		"type": "channel",
		"noteNumber": 70,
		"velocity": 127,
		"subtype": "noteOn",
		"time": 165480,
		"track": 4
	},
	{
		"deltaTime": 60,
		"channel": 9,
		"type": "channel",
		"noteNumber": 42,
		"velocity": 127,
		"subtype": "noteOn",
		"time": 165480,
		"track": 5
	},
	{
		"deltaTime": 60,
		"channel": 9,
		"type": "channel",
		"subtype": "noteOff",
		"noteNumber": 42,
		"velocity": 0,
		"time": 165540,
		"track": 5
	},
	{
		"deltaTime": 0,
		"channel": 9,
		"type": "channel",
		"noteNumber": 42,
		"velocity": 127,
		"subtype": "noteOn",
		"time": 165600,
		"track": 5
	},
	{
		"deltaTime": 0,
		"channel": 9,
		"type": "channel",
		"noteNumber": 38,
		"velocity": 127,
		"subtype": "noteOn",
		"time": 165600,
		"track": 5
	},
	{
		"deltaTime": 60,
		"channel": 9,
		"type": "channel",
		"noteNumber": 40,
		"velocity": 127,
		"subtype": "noteOn",
		"time": 165600,
		"track": 5
	},
	{
		"deltaTime": 0,
		"channel": 9,
		"type": "channel",
		"subtype": "noteOff",
		"noteNumber": 40,
		"velocity": 0,
		"time": 165660,
		"track": 5
	},
	{
		"deltaTime": 0,
		"channel": 9,
		"type": "channel",
		"subtype": "noteOff",
		"noteNumber": 38,
		"velocity": 0,
		"time": 165660,
		"track": 5
	},
	{
		"deltaTime": 60,
		"channel": 9,
		"type": "channel",
		"subtype": "noteOff",
		"noteNumber": 42,
		"velocity": 0,
		"time": 165660,
		"track": 5
	},
	{
		"deltaTime": 0,
		"channel": 2,
		"type": "channel",
		"subtype": "noteOff",
		"noteNumber": 70,
		"velocity": 0,
		"time": 165720,
		"track": 4
	},
	{
		"deltaTime": 0,
		"channel": 2,
		"type": "channel",
		"subtype": "noteOff",
		"noteNumber": 66,
		"velocity": 0,
		"time": 165720,
		"track": 4
	},
	{
		"deltaTime": 0,
		"channel": 2,
		"type": "channel",
		"subtype": "noteOff",
		"noteNumber": 61,
		"velocity": 0,
		"time": 165720,
		"track": 4
	},
	{
		"deltaTime": 0,
		"channel": 2,
		"type": "channel",
		"noteNumber": 61,
		"velocity": 127,
		"subtype": "noteOn",
		"time": 165720,
		"track": 4
	},
	{
		"deltaTime": 0,
		"channel": 2,
		"type": "channel",
		"noteNumber": 66,
		"velocity": 127,
		"subtype": "noteOn",
		"time": 165720,
		"track": 4
	},
	{
		"deltaTime": 0,
		"channel": 2,
		"type": "channel",
		"noteNumber": 70,
		"velocity": 127,
		"subtype": "noteOn",
		"time": 165720,
		"track": 4
	},
	{
		"deltaTime": 60,
		"channel": 9,
		"type": "channel",
		"noteNumber": 42,
		"velocity": 127,
		"subtype": "noteOn",
		"time": 165720,
		"track": 5
	},
	{
		"deltaTime": 60,
		"channel": 9,
		"type": "channel",
		"subtype": "noteOff",
		"noteNumber": 42,
		"velocity": 0,
		"time": 165780,
		"track": 5
	},
	{
		"deltaTime": 60,
		"channel": 9,
		"type": "channel",
		"noteNumber": 42,
		"velocity": 127,
		"subtype": "noteOn",
		"time": 165840,
		"track": 5
	},
	{
		"deltaTime": 60,
		"channel": 9,
		"type": "channel",
		"subtype": "noteOff",
		"noteNumber": 42,
		"velocity": 0,
		"time": 165900,
		"track": 5
	},
	{
		"deltaTime": 0,
		"channel": 9,
		"type": "channel",
		"noteNumber": 42,
		"velocity": 127,
		"subtype": "noteOn",
		"time": 165960,
		"track": 5
	},
	{
		"deltaTime": 0,
		"channel": 9,
		"type": "channel",
		"noteNumber": 36,
		"velocity": 127,
		"subtype": "noteOn",
		"time": 165960,
		"track": 5
	},
	{
		"deltaTime": 60,
		"channel": 9,
		"type": "channel",
		"noteNumber": 35,
		"velocity": 127,
		"subtype": "noteOn",
		"time": 165960,
		"track": 5
	},
	{
		"deltaTime": 0,
		"channel": 9,
		"type": "channel",
		"subtype": "noteOff",
		"noteNumber": 35,
		"velocity": 0,
		"time": 166020,
		"track": 5
	},
	{
		"deltaTime": 0,
		"channel": 9,
		"type": "channel",
		"subtype": "noteOff",
		"noteNumber": 36,
		"velocity": 0,
		"time": 166020,
		"track": 5
	},
	{
		"deltaTime": 60,
		"channel": 9,
		"type": "channel",
		"subtype": "noteOff",
		"noteNumber": 42,
		"velocity": 0,
		"time": 166020,
		"track": 5
	},
	{
		"deltaTime": 0,
		"channel": 0,
		"type": "channel",
		"subtype": "noteOff",
		"noteNumber": 42,
		"velocity": 0,
		"time": 166080,
		"track": 2
	},
	{
		"deltaTime": 0,
		"channel": 0,
		"type": "channel",
		"noteNumber": 35,
		"velocity": 127,
		"subtype": "noteOn",
		"time": 166080,
		"track": 2
	},
	{
		"deltaTime": 0,
		"channel": 2,
		"type": "channel",
		"subtype": "noteOff",
		"noteNumber": 70,
		"velocity": 0,
		"time": 166080,
		"track": 4
	},
	{
		"deltaTime": 0,
		"channel": 2,
		"type": "channel",
		"subtype": "noteOff",
		"noteNumber": 66,
		"velocity": 0,
		"time": 166080,
		"track": 4
	},
	{
		"deltaTime": 0,
		"channel": 2,
		"type": "channel",
		"subtype": "noteOff",
		"noteNumber": 61,
		"velocity": 0,
		"time": 166080,
		"track": 4
	},
	{
		"deltaTime": 0,
		"channel": 2,
		"type": "channel",
		"noteNumber": 47,
		"velocity": 127,
		"subtype": "noteOn",
		"time": 166080,
		"track": 4
	},
	{
		"deltaTime": 60,
		"channel": 9,
		"type": "channel",
		"noteNumber": 42,
		"velocity": 127,
		"subtype": "noteOn",
		"time": 166080,
		"track": 5
	},
	{
		"deltaTime": 60,
		"channel": 9,
		"type": "channel",
		"subtype": "noteOff",
		"noteNumber": 42,
		"velocity": 0,
		"time": 166140,
		"track": 5
	},
	{
		"deltaTime": 60,
		"channel": 9,
		"type": "channel",
		"noteNumber": 42,
		"velocity": 127,
		"subtype": "noteOn",
		"time": 166200,
		"track": 5
	},
	{
		"deltaTime": 60,
		"channel": 9,
		"type": "channel",
		"subtype": "noteOff",
		"noteNumber": 42,
		"velocity": 0,
		"time": 166260,
		"track": 5
	},
	{
		"deltaTime": 0,
		"channel": 9,
		"type": "channel",
		"noteNumber": 42,
		"velocity": 127,
		"subtype": "noteOn",
		"time": 166320,
		"track": 5
	},
	{
		"deltaTime": 0,
		"channel": 9,
		"type": "channel",
		"noteNumber": 36,
		"velocity": 127,
		"subtype": "noteOn",
		"time": 166320,
		"track": 5
	},
	{
		"deltaTime": 60,
		"channel": 9,
		"type": "channel",
		"noteNumber": 35,
		"velocity": 127,
		"subtype": "noteOn",
		"time": 166320,
		"track": 5
	},
	{
		"deltaTime": 0,
		"channel": 9,
		"type": "channel",
		"subtype": "noteOff",
		"noteNumber": 35,
		"velocity": 0,
		"time": 166380,
		"track": 5
	},
	{
		"deltaTime": 0,
		"channel": 9,
		"type": "channel",
		"subtype": "noteOff",
		"noteNumber": 36,
		"velocity": 0,
		"time": 166380,
		"track": 5
	},
	{
		"deltaTime": 60,
		"channel": 9,
		"type": "channel",
		"subtype": "noteOff",
		"noteNumber": 42,
		"velocity": 0,
		"time": 166380,
		"track": 5
	},
	{
		"deltaTime": 0,
		"channel": 2,
		"type": "channel",
		"subtype": "noteOff",
		"noteNumber": 47,
		"velocity": 0,
		"time": 166440,
		"track": 4
	},
	{
		"deltaTime": 0,
		"channel": 2,
		"type": "channel",
		"noteNumber": 61,
		"velocity": 127,
		"subtype": "noteOn",
		"time": 166440,
		"track": 4
	},
	{
		"deltaTime": 0,
		"channel": 2,
		"type": "channel",
		"noteNumber": 66,
		"velocity": 127,
		"subtype": "noteOn",
		"time": 166440,
		"track": 4
	},
	{
		"deltaTime": 0,
		"channel": 2,
		"type": "channel",
		"noteNumber": 70,
		"velocity": 127,
		"subtype": "noteOn",
		"time": 166440,
		"track": 4
	},
	{
		"deltaTime": 60,
		"channel": 9,
		"type": "channel",
		"noteNumber": 42,
		"velocity": 127,
		"subtype": "noteOn",
		"time": 166440,
		"track": 5
	},
	{
		"deltaTime": 60,
		"channel": 9,
		"type": "channel",
		"subtype": "noteOff",
		"noteNumber": 42,
		"velocity": 0,
		"time": 166500,
		"track": 5
	},
	{
		"deltaTime": 0,
		"channel": 0,
		"type": "channel",
		"subtype": "noteOff",
		"noteNumber": 35,
		"velocity": 0,
		"time": 166560,
		"track": 2
	},
	{
		"deltaTime": 0,
		"channel": 0,
		"type": "channel",
		"noteNumber": 34,
		"velocity": 127,
		"subtype": "noteOn",
		"time": 166560,
		"track": 2
	},
	{
		"deltaTime": 0,
		"channel": 9,
		"type": "channel",
		"noteNumber": 42,
		"velocity": 127,
		"subtype": "noteOn",
		"time": 166560,
		"track": 5
	},
	{
		"deltaTime": 0,
		"channel": 9,
		"type": "channel",
		"noteNumber": 40,
		"velocity": 127,
		"subtype": "noteOn",
		"time": 166560,
		"track": 5
	},
	{
		"deltaTime": 60,
		"channel": 9,
		"type": "channel",
		"noteNumber": 38,
		"velocity": 127,
		"subtype": "noteOn",
		"time": 166560,
		"track": 5
	},
	{
		"deltaTime": 0,
		"channel": 9,
		"type": "channel",
		"subtype": "noteOff",
		"noteNumber": 38,
		"velocity": 0,
		"time": 166620,
		"track": 5
	},
	{
		"deltaTime": 0,
		"channel": 9,
		"type": "channel",
		"subtype": "noteOff",
		"noteNumber": 40,
		"velocity": 0,
		"time": 166620,
		"track": 5
	},
	{
		"deltaTime": 60,
		"channel": 9,
		"type": "channel",
		"subtype": "noteOff",
		"noteNumber": 42,
		"velocity": 0,
		"time": 166620,
		"track": 5
	},
	{
		"deltaTime": 0,
		"channel": 2,
		"type": "channel",
		"subtype": "noteOff",
		"noteNumber": 70,
		"velocity": 0,
		"time": 166680,
		"track": 4
	},
	{
		"deltaTime": 0,
		"channel": 2,
		"type": "channel",
		"subtype": "noteOff",
		"noteNumber": 66,
		"velocity": 0,
		"time": 166680,
		"track": 4
	},
	{
		"deltaTime": 0,
		"channel": 2,
		"type": "channel",
		"subtype": "noteOff",
		"noteNumber": 61,
		"velocity": 0,
		"time": 166680,
		"track": 4
	},
	{
		"deltaTime": 0,
		"channel": 2,
		"type": "channel",
		"noteNumber": 61,
		"velocity": 127,
		"subtype": "noteOn",
		"time": 166680,
		"track": 4
	},
	{
		"deltaTime": 0,
		"channel": 2,
		"type": "channel",
		"noteNumber": 66,
		"velocity": 127,
		"subtype": "noteOn",
		"time": 166680,
		"track": 4
	},
	{
		"deltaTime": 0,
		"channel": 2,
		"type": "channel",
		"noteNumber": 71,
		"velocity": 127,
		"subtype": "noteOn",
		"time": 166680,
		"track": 4
	},
	{
		"deltaTime": 60,
		"channel": 9,
		"type": "channel",
		"noteNumber": 42,
		"velocity": 127,
		"subtype": "noteOn",
		"time": 166680,
		"track": 5
	},
	{
		"deltaTime": 60,
		"channel": 9,
		"type": "channel",
		"subtype": "noteOff",
		"noteNumber": 42,
		"velocity": 0,
		"time": 166740,
		"track": 5
	},
	{
		"deltaTime": 60,
		"channel": 9,
		"type": "channel",
		"noteNumber": 42,
		"velocity": 127,
		"subtype": "noteOn",
		"time": 166800,
		"track": 5
	},
	{
		"deltaTime": 60,
		"channel": 9,
		"type": "channel",
		"subtype": "noteOff",
		"noteNumber": 42,
		"velocity": 0,
		"time": 166860,
		"track": 5
	},
	{
		"deltaTime": 60,
		"channel": 9,
		"type": "channel",
		"noteNumber": 42,
		"velocity": 127,
		"subtype": "noteOn",
		"time": 166920,
		"track": 5
	},
	{
		"deltaTime": 60,
		"channel": 9,
		"type": "channel",
		"subtype": "noteOff",
		"noteNumber": 42,
		"velocity": 0,
		"time": 166980,
		"track": 5
	},
	{
		"deltaTime": 0,
		"channel": 0,
		"type": "channel",
		"subtype": "noteOff",
		"noteNumber": 34,
		"velocity": 0,
		"time": 167040,
		"track": 2
	},
	{
		"deltaTime": 0,
		"channel": 0,
		"type": "channel",
		"noteNumber": 32,
		"velocity": 127,
		"subtype": "noteOn",
		"time": 167040,
		"track": 2
	},
	{
		"deltaTime": 0,
		"channel": 2,
		"type": "channel",
		"subtype": "noteOff",
		"noteNumber": 71,
		"velocity": 0,
		"time": 167040,
		"track": 4
	},
	{
		"deltaTime": 0,
		"channel": 2,
		"type": "channel",
		"subtype": "noteOff",
		"noteNumber": 66,
		"velocity": 0,
		"time": 167040,
		"track": 4
	},
	{
		"deltaTime": 0,
		"channel": 2,
		"type": "channel",
		"subtype": "noteOff",
		"noteNumber": 61,
		"velocity": 0,
		"time": 167040,
		"track": 4
	},
	{
		"deltaTime": 0,
		"channel": 2,
		"type": "channel",
		"noteNumber": 44,
		"velocity": 127,
		"subtype": "noteOn",
		"time": 167040,
		"track": 4
	},
	{
		"deltaTime": 0,
		"channel": 9,
		"type": "channel",
		"noteNumber": 42,
		"velocity": 127,
		"subtype": "noteOn",
		"time": 167040,
		"track": 5
	},
	{
		"deltaTime": 0,
		"channel": 9,
		"type": "channel",
		"noteNumber": 35,
		"velocity": 127,
		"subtype": "noteOn",
		"time": 167040,
		"track": 5
	},
	{
		"deltaTime": 60,
		"channel": 9,
		"type": "channel",
		"noteNumber": 36,
		"velocity": 127,
		"subtype": "noteOn",
		"time": 167040,
		"track": 5
	},
	{
		"deltaTime": 0,
		"channel": 9,
		"type": "channel",
		"subtype": "noteOff",
		"noteNumber": 36,
		"velocity": 0,
		"time": 167100,
		"track": 5
	},
	{
		"deltaTime": 0,
		"channel": 9,
		"type": "channel",
		"subtype": "noteOff",
		"noteNumber": 35,
		"velocity": 0,
		"time": 167100,
		"track": 5
	},
	{
		"deltaTime": 60,
		"channel": 9,
		"type": "channel",
		"subtype": "noteOff",
		"noteNumber": 42,
		"velocity": 0,
		"time": 167100,
		"track": 5
	},
	{
		"deltaTime": 60,
		"channel": 9,
		"type": "channel",
		"noteNumber": 42,
		"velocity": 127,
		"subtype": "noteOn",
		"time": 167160,
		"track": 5
	},
	{
		"deltaTime": 60,
		"channel": 9,
		"type": "channel",
		"subtype": "noteOff",
		"noteNumber": 42,
		"velocity": 0,
		"time": 167220,
		"track": 5
	},
	{
		"deltaTime": 0,
		"channel": 9,
		"type": "channel",
		"noteNumber": 42,
		"velocity": 127,
		"subtype": "noteOn",
		"time": 167280,
		"track": 5
	},
	{
		"deltaTime": 0,
		"channel": 9,
		"type": "channel",
		"noteNumber": 36,
		"velocity": 127,
		"subtype": "noteOn",
		"time": 167280,
		"track": 5
	},
	{
		"deltaTime": 60,
		"channel": 9,
		"type": "channel",
		"noteNumber": 35,
		"velocity": 127,
		"subtype": "noteOn",
		"time": 167280,
		"track": 5
	},
	{
		"deltaTime": 0,
		"channel": 9,
		"type": "channel",
		"subtype": "noteOff",
		"noteNumber": 35,
		"velocity": 0,
		"time": 167340,
		"track": 5
	},
	{
		"deltaTime": 0,
		"channel": 9,
		"type": "channel",
		"subtype": "noteOff",
		"noteNumber": 36,
		"velocity": 0,
		"time": 167340,
		"track": 5
	},
	{
		"deltaTime": 60,
		"channel": 9,
		"type": "channel",
		"subtype": "noteOff",
		"noteNumber": 42,
		"velocity": 0,
		"time": 167340,
		"track": 5
	},
	{
		"deltaTime": 0,
		"channel": 2,
		"type": "channel",
		"subtype": "noteOff",
		"noteNumber": 44,
		"velocity": 0,
		"time": 167400,
		"track": 4
	},
	{
		"deltaTime": 0,
		"channel": 2,
		"type": "channel",
		"noteNumber": 59,
		"velocity": 127,
		"subtype": "noteOn",
		"time": 167400,
		"track": 4
	},
	{
		"deltaTime": 0,
		"channel": 2,
		"type": "channel",
		"noteNumber": 63,
		"velocity": 127,
		"subtype": "noteOn",
		"time": 167400,
		"track": 4
	},
	{
		"deltaTime": 0,
		"channel": 2,
		"type": "channel",
		"noteNumber": 68,
		"velocity": 127,
		"subtype": "noteOn",
		"time": 167400,
		"track": 4
	},
	{
		"deltaTime": 60,
		"channel": 9,
		"type": "channel",
		"noteNumber": 42,
		"velocity": 127,
		"subtype": "noteOn",
		"time": 167400,
		"track": 5
	},
	{
		"deltaTime": 60,
		"channel": 9,
		"type": "channel",
		"subtype": "noteOff",
		"noteNumber": 42,
		"velocity": 0,
		"time": 167460,
		"track": 5
	},
	{
		"deltaTime": 0,
		"channel": 9,
		"type": "channel",
		"noteNumber": 42,
		"velocity": 127,
		"subtype": "noteOn",
		"time": 167520,
		"track": 5
	},
	{
		"deltaTime": 0,
		"channel": 9,
		"type": "channel",
		"noteNumber": 38,
		"velocity": 127,
		"subtype": "noteOn",
		"time": 167520,
		"track": 5
	},
	{
		"deltaTime": 60,
		"channel": 9,
		"type": "channel",
		"noteNumber": 40,
		"velocity": 127,
		"subtype": "noteOn",
		"time": 167520,
		"track": 5
	},
	{
		"deltaTime": 0,
		"channel": 9,
		"type": "channel",
		"subtype": "noteOff",
		"noteNumber": 40,
		"velocity": 0,
		"time": 167580,
		"track": 5
	},
	{
		"deltaTime": 0,
		"channel": 9,
		"type": "channel",
		"subtype": "noteOff",
		"noteNumber": 38,
		"velocity": 0,
		"time": 167580,
		"track": 5
	},
	{
		"deltaTime": 60,
		"channel": 9,
		"type": "channel",
		"subtype": "noteOff",
		"noteNumber": 42,
		"velocity": 0,
		"time": 167580,
		"track": 5
	},
	{
		"deltaTime": 0,
		"channel": 2,
		"type": "channel",
		"subtype": "noteOff",
		"noteNumber": 68,
		"velocity": 0,
		"time": 167640,
		"track": 4
	},
	{
		"deltaTime": 0,
		"channel": 2,
		"type": "channel",
		"subtype": "noteOff",
		"noteNumber": 63,
		"velocity": 0,
		"time": 167640,
		"track": 4
	},
	{
		"deltaTime": 0,
		"channel": 2,
		"type": "channel",
		"subtype": "noteOff",
		"noteNumber": 59,
		"velocity": 0,
		"time": 167640,
		"track": 4
	},
	{
		"deltaTime": 0,
		"channel": 2,
		"type": "channel",
		"noteNumber": 59,
		"velocity": 127,
		"subtype": "noteOn",
		"time": 167640,
		"track": 4
	},
	{
		"deltaTime": 0,
		"channel": 2,
		"type": "channel",
		"noteNumber": 63,
		"velocity": 127,
		"subtype": "noteOn",
		"time": 167640,
		"track": 4
	},
	{
		"deltaTime": 0,
		"channel": 2,
		"type": "channel",
		"noteNumber": 68,
		"velocity": 127,
		"subtype": "noteOn",
		"time": 167640,
		"track": 4
	},
	{
		"deltaTime": 60,
		"channel": 9,
		"type": "channel",
		"noteNumber": 42,
		"velocity": 127,
		"subtype": "noteOn",
		"time": 167640,
		"track": 5
	},
	{
		"deltaTime": 60,
		"channel": 9,
		"type": "channel",
		"subtype": "noteOff",
		"noteNumber": 42,
		"velocity": 0,
		"time": 167700,
		"track": 5
	},
	{
		"deltaTime": 0,
		"channel": 0,
		"type": "channel",
		"subtype": "noteOff",
		"noteNumber": 32,
		"velocity": 0,
		"time": 167760,
		"track": 2
	},
	{
		"deltaTime": 0,
		"channel": 0,
		"type": "channel",
		"noteNumber": 32,
		"velocity": 127,
		"subtype": "noteOn",
		"time": 167760,
		"track": 2
	},
	{
		"deltaTime": 60,
		"channel": 9,
		"type": "channel",
		"noteNumber": 42,
		"velocity": 127,
		"subtype": "noteOn",
		"time": 167760,
		"track": 5
	},
	{
		"deltaTime": 60,
		"channel": 9,
		"type": "channel",
		"subtype": "noteOff",
		"noteNumber": 42,
		"velocity": 0,
		"time": 167820,
		"track": 5
	},
	{
		"deltaTime": 0,
		"channel": 9,
		"type": "channel",
		"noteNumber": 42,
		"velocity": 127,
		"subtype": "noteOn",
		"time": 167880,
		"track": 5
	},
	{
		"deltaTime": 0,
		"channel": 9,
		"type": "channel",
		"noteNumber": 36,
		"velocity": 127,
		"subtype": "noteOn",
		"time": 167880,
		"track": 5
	},
	{
		"deltaTime": 60,
		"channel": 9,
		"type": "channel",
		"noteNumber": 35,
		"velocity": 127,
		"subtype": "noteOn",
		"time": 167880,
		"track": 5
	},
	{
		"deltaTime": 0,
		"channel": 9,
		"type": "channel",
		"subtype": "noteOff",
		"noteNumber": 35,
		"velocity": 0,
		"time": 167940,
		"track": 5
	},
	{
		"deltaTime": 0,
		"channel": 9,
		"type": "channel",
		"subtype": "noteOff",
		"noteNumber": 36,
		"velocity": 0,
		"time": 167940,
		"track": 5
	},
	{
		"deltaTime": 60,
		"channel": 9,
		"type": "channel",
		"subtype": "noteOff",
		"noteNumber": 42,
		"velocity": 0,
		"time": 167940,
		"track": 5
	},
	{
		"deltaTime": 0,
		"channel": 0,
		"type": "channel",
		"subtype": "noteOff",
		"noteNumber": 32,
		"velocity": 0,
		"time": 168000,
		"track": 2
	},
	{
		"deltaTime": 0,
		"channel": 0,
		"type": "channel",
		"noteNumber": 40,
		"velocity": 127,
		"subtype": "noteOn",
		"time": 168000,
		"track": 2
	},
	{
		"deltaTime": 0,
		"channel": 2,
		"type": "channel",
		"subtype": "noteOff",
		"noteNumber": 68,
		"velocity": 0,
		"time": 168000,
		"track": 4
	},
	{
		"deltaTime": 0,
		"channel": 2,
		"type": "channel",
		"subtype": "noteOff",
		"noteNumber": 63,
		"velocity": 0,
		"time": 168000,
		"track": 4
	},
	{
		"deltaTime": 0,
		"channel": 2,
		"type": "channel",
		"subtype": "noteOff",
		"noteNumber": 59,
		"velocity": 0,
		"time": 168000,
		"track": 4
	},
	{
		"deltaTime": 0,
		"channel": 2,
		"type": "channel",
		"noteNumber": 40,
		"velocity": 127,
		"subtype": "noteOn",
		"time": 168000,
		"track": 4
	},
	{
		"deltaTime": 60,
		"channel": 9,
		"type": "channel",
		"noteNumber": 42,
		"velocity": 127,
		"subtype": "noteOn",
		"time": 168000,
		"track": 5
	},
	{
		"deltaTime": 60,
		"channel": 9,
		"type": "channel",
		"subtype": "noteOff",
		"noteNumber": 42,
		"velocity": 0,
		"time": 168060,
		"track": 5
	},
	{
		"deltaTime": 60,
		"channel": 9,
		"type": "channel",
		"noteNumber": 42,
		"velocity": 127,
		"subtype": "noteOn",
		"time": 168120,
		"track": 5
	},
	{
		"deltaTime": 60,
		"channel": 9,
		"type": "channel",
		"subtype": "noteOff",
		"noteNumber": 42,
		"velocity": 0,
		"time": 168180,
		"track": 5
	},
	{
		"deltaTime": 0,
		"channel": 9,
		"type": "channel",
		"noteNumber": 42,
		"velocity": 127,
		"subtype": "noteOn",
		"time": 168240,
		"track": 5
	},
	{
		"deltaTime": 0,
		"channel": 9,
		"type": "channel",
		"noteNumber": 36,
		"velocity": 127,
		"subtype": "noteOn",
		"time": 168240,
		"track": 5
	},
	{
		"deltaTime": 60,
		"channel": 9,
		"type": "channel",
		"noteNumber": 35,
		"velocity": 127,
		"subtype": "noteOn",
		"time": 168240,
		"track": 5
	},
	{
		"deltaTime": 0,
		"channel": 9,
		"type": "channel",
		"subtype": "noteOff",
		"noteNumber": 35,
		"velocity": 0,
		"time": 168300,
		"track": 5
	},
	{
		"deltaTime": 0,
		"channel": 9,
		"type": "channel",
		"subtype": "noteOff",
		"noteNumber": 36,
		"velocity": 0,
		"time": 168300,
		"track": 5
	},
	{
		"deltaTime": 60,
		"channel": 9,
		"type": "channel",
		"subtype": "noteOff",
		"noteNumber": 42,
		"velocity": 0,
		"time": 168300,
		"track": 5
	},
	{
		"deltaTime": 0,
		"channel": 2,
		"type": "channel",
		"subtype": "noteOff",
		"noteNumber": 40,
		"velocity": 0,
		"time": 168360,
		"track": 4
	},
	{
		"deltaTime": 0,
		"channel": 2,
		"type": "channel",
		"noteNumber": 59,
		"velocity": 127,
		"subtype": "noteOn",
		"time": 168360,
		"track": 4
	},
	{
		"deltaTime": 0,
		"channel": 2,
		"type": "channel",
		"noteNumber": 63,
		"velocity": 127,
		"subtype": "noteOn",
		"time": 168360,
		"track": 4
	},
	{
		"deltaTime": 0,
		"channel": 2,
		"type": "channel",
		"noteNumber": 68,
		"velocity": 127,
		"subtype": "noteOn",
		"time": 168360,
		"track": 4
	},
	{
		"deltaTime": 60,
		"channel": 9,
		"type": "channel",
		"noteNumber": 42,
		"velocity": 127,
		"subtype": "noteOn",
		"time": 168360,
		"track": 5
	},
	{
		"deltaTime": 60,
		"channel": 9,
		"type": "channel",
		"subtype": "noteOff",
		"noteNumber": 42,
		"velocity": 0,
		"time": 168420,
		"track": 5
	},
	{
		"deltaTime": 0,
		"channel": 9,
		"type": "channel",
		"noteNumber": 42,
		"velocity": 127,
		"subtype": "noteOn",
		"time": 168480,
		"track": 5
	},
	{
		"deltaTime": 0,
		"channel": 9,
		"type": "channel",
		"noteNumber": 40,
		"velocity": 127,
		"subtype": "noteOn",
		"time": 168480,
		"track": 5
	},
	{
		"deltaTime": 60,
		"channel": 9,
		"type": "channel",
		"noteNumber": 38,
		"velocity": 127,
		"subtype": "noteOn",
		"time": 168480,
		"track": 5
	},
	{
		"deltaTime": 0,
		"channel": 9,
		"type": "channel",
		"subtype": "noteOff",
		"noteNumber": 38,
		"velocity": 0,
		"time": 168540,
		"track": 5
	},
	{
		"deltaTime": 0,
		"channel": 9,
		"type": "channel",
		"subtype": "noteOff",
		"noteNumber": 40,
		"velocity": 0,
		"time": 168540,
		"track": 5
	},
	{
		"deltaTime": 60,
		"channel": 9,
		"type": "channel",
		"subtype": "noteOff",
		"noteNumber": 42,
		"velocity": 0,
		"time": 168540,
		"track": 5
	},
	{
		"deltaTime": 0,
		"channel": 2,
		"type": "channel",
		"subtype": "noteOff",
		"noteNumber": 68,
		"velocity": 0,
		"time": 168600,
		"track": 4
	},
	{
		"deltaTime": 0,
		"channel": 2,
		"type": "channel",
		"subtype": "noteOff",
		"noteNumber": 63,
		"velocity": 0,
		"time": 168600,
		"track": 4
	},
	{
		"deltaTime": 0,
		"channel": 2,
		"type": "channel",
		"subtype": "noteOff",
		"noteNumber": 59,
		"velocity": 0,
		"time": 168600,
		"track": 4
	},
	{
		"deltaTime": 0,
		"channel": 2,
		"type": "channel",
		"noteNumber": 59,
		"velocity": 127,
		"subtype": "noteOn",
		"time": 168600,
		"track": 4
	},
	{
		"deltaTime": 0,
		"channel": 2,
		"type": "channel",
		"noteNumber": 63,
		"velocity": 127,
		"subtype": "noteOn",
		"time": 168600,
		"track": 4
	},
	{
		"deltaTime": 0,
		"channel": 2,
		"type": "channel",
		"noteNumber": 68,
		"velocity": 127,
		"subtype": "noteOn",
		"time": 168600,
		"track": 4
	},
	{
		"deltaTime": 60,
		"channel": 9,
		"type": "channel",
		"noteNumber": 42,
		"velocity": 127,
		"subtype": "noteOn",
		"time": 168600,
		"track": 5
	},
	{
		"deltaTime": 60,
		"channel": 9,
		"type": "channel",
		"subtype": "noteOff",
		"noteNumber": 42,
		"velocity": 0,
		"time": 168660,
		"track": 5
	},
	{
		"deltaTime": 0,
		"channel": 0,
		"type": "channel",
		"subtype": "noteOff",
		"noteNumber": 40,
		"velocity": 0,
		"time": 168720,
		"track": 2
	},
	{
		"deltaTime": 0,
		"channel": 0,
		"type": "channel",
		"noteNumber": 40,
		"velocity": 127,
		"subtype": "noteOn",
		"time": 168720,
		"track": 2
	},
	{
		"deltaTime": 60,
		"channel": 9,
		"type": "channel",
		"noteNumber": 42,
		"velocity": 127,
		"subtype": "noteOn",
		"time": 168720,
		"track": 5
	},
	{
		"deltaTime": 60,
		"channel": 9,
		"type": "channel",
		"subtype": "noteOff",
		"noteNumber": 42,
		"velocity": 0,
		"time": 168780,
		"track": 5
	},
	{
		"deltaTime": 60,
		"channel": 9,
		"type": "channel",
		"noteNumber": 42,
		"velocity": 127,
		"subtype": "noteOn",
		"time": 168840,
		"track": 5
	},
	{
		"deltaTime": 60,
		"channel": 9,
		"type": "channel",
		"subtype": "noteOff",
		"noteNumber": 42,
		"velocity": 0,
		"time": 168900,
		"track": 5
	},
	{
		"deltaTime": 0,
		"channel": 0,
		"type": "channel",
		"subtype": "noteOff",
		"noteNumber": 40,
		"velocity": 0,
		"time": 168960,
		"track": 2
	},
	{
		"deltaTime": 0,
		"channel": 0,
		"type": "channel",
		"noteNumber": 41,
		"velocity": 127,
		"subtype": "noteOn",
		"time": 168960,
		"track": 2
	},
	{
		"deltaTime": 0,
		"channel": 2,
		"type": "channel",
		"subtype": "noteOff",
		"noteNumber": 68,
		"velocity": 0,
		"time": 168960,
		"track": 4
	},
	{
		"deltaTime": 0,
		"channel": 2,
		"type": "channel",
		"subtype": "noteOff",
		"noteNumber": 63,
		"velocity": 0,
		"time": 168960,
		"track": 4
	},
	{
		"deltaTime": 0,
		"channel": 2,
		"type": "channel",
		"subtype": "noteOff",
		"noteNumber": 59,
		"velocity": 0,
		"time": 168960,
		"track": 4
	},
	{
		"deltaTime": 0,
		"channel": 2,
		"type": "channel",
		"noteNumber": 41,
		"velocity": 127,
		"subtype": "noteOn",
		"time": 168960,
		"track": 4
	},
	{
		"deltaTime": 0,
		"channel": 9,
		"type": "channel",
		"noteNumber": 35,
		"velocity": 127,
		"subtype": "noteOn",
		"time": 168960,
		"track": 5
	},
	{
		"deltaTime": 60,
		"channel": 9,
		"type": "channel",
		"noteNumber": 36,
		"velocity": 127,
		"subtype": "noteOn",
		"time": 168960,
		"track": 5
	},
	{
		"deltaTime": 0,
		"channel": 9,
		"type": "channel",
		"subtype": "noteOff",
		"noteNumber": 36,
		"velocity": 0,
		"time": 169020,
		"track": 5
	},
	{
		"deltaTime": 180,
		"channel": 9,
		"type": "channel",
		"subtype": "noteOff",
		"noteNumber": 35,
		"velocity": 0,
		"time": 169020,
		"track": 5
	},
	{
		"deltaTime": 0,
		"channel": 9,
		"type": "channel",
		"noteNumber": 35,
		"velocity": 127,
		"subtype": "noteOn",
		"time": 169200,
		"track": 5
	},
	{
		"deltaTime": 60,
		"channel": 9,
		"type": "channel",
		"noteNumber": 36,
		"velocity": 127,
		"subtype": "noteOn",
		"time": 169200,
		"track": 5
	},
	{
		"deltaTime": 0,
		"channel": 9,
		"type": "channel",
		"subtype": "noteOff",
		"noteNumber": 36,
		"velocity": 0,
		"time": 169260,
		"track": 5
	},
	{
		"deltaTime": 60,
		"channel": 9,
		"type": "channel",
		"subtype": "noteOff",
		"noteNumber": 35,
		"velocity": 0,
		"time": 169260,
		"track": 5
	},
	{
		"deltaTime": 0,
		"channel": 2,
		"type": "channel",
		"subtype": "noteOff",
		"noteNumber": 41,
		"velocity": 0,
		"time": 169320,
		"track": 4
	},
	{
		"deltaTime": 0,
		"channel": 2,
		"type": "channel",
		"noteNumber": 59,
		"velocity": 127,
		"subtype": "noteOn",
		"time": 169320,
		"track": 4
	},
	{
		"deltaTime": 0,
		"channel": 2,
		"type": "channel",
		"noteNumber": 63,
		"velocity": 127,
		"subtype": "noteOn",
		"time": 169320,
		"track": 4
	},
	{
		"deltaTime": 120,
		"channel": 2,
		"type": "channel",
		"noteNumber": 68,
		"velocity": 127,
		"subtype": "noteOn",
		"time": 169320,
		"track": 4
	},
	{
		"deltaTime": 60,
		"channel": 9,
		"type": "channel",
		"noteNumber": 39,
		"velocity": 127,
		"subtype": "noteOn",
		"time": 169440,
		"track": 5
	},
	{
		"deltaTime": 60,
		"channel": 9,
		"type": "channel",
		"subtype": "noteOff",
		"noteNumber": 39,
		"velocity": 0,
		"time": 169500,
		"track": 5
	},
	{
		"deltaTime": 0,
		"channel": 2,
		"type": "channel",
		"subtype": "noteOff",
		"noteNumber": 68,
		"velocity": 0,
		"time": 169560,
		"track": 4
	},
	{
		"deltaTime": 0,
		"channel": 2,
		"type": "channel",
		"subtype": "noteOff",
		"noteNumber": 63,
		"velocity": 0,
		"time": 169560,
		"track": 4
	},
	{
		"deltaTime": 0,
		"channel": 2,
		"type": "channel",
		"subtype": "noteOff",
		"noteNumber": 59,
		"velocity": 0,
		"time": 169560,
		"track": 4
	},
	{
		"deltaTime": 0,
		"channel": 2,
		"type": "channel",
		"noteNumber": 59,
		"velocity": 127,
		"subtype": "noteOn",
		"time": 169560,
		"track": 4
	},
	{
		"deltaTime": 0,
		"channel": 2,
		"type": "channel",
		"noteNumber": 63,
		"velocity": 127,
		"subtype": "noteOn",
		"time": 169560,
		"track": 4
	},
	{
		"deltaTime": 120,
		"channel": 2,
		"type": "channel",
		"noteNumber": 68,
		"velocity": 127,
		"subtype": "noteOn",
		"time": 169560,
		"track": 4
	},
	{
		"deltaTime": 0,
		"channel": 0,
		"type": "channel",
		"subtype": "noteOff",
		"noteNumber": 41,
		"velocity": 0,
		"time": 169680,
		"track": 2
	},
	{
		"deltaTime": 120,
		"channel": 0,
		"type": "channel",
		"noteNumber": 41,
		"velocity": 127,
		"subtype": "noteOn",
		"time": 169680,
		"track": 2
	},
	{
		"deltaTime": 0,
		"channel": 9,
		"type": "channel",
		"noteNumber": 35,
		"velocity": 127,
		"subtype": "noteOn",
		"time": 169800,
		"track": 5
	},
	{
		"deltaTime": 60,
		"channel": 9,
		"type": "channel",
		"noteNumber": 36,
		"velocity": 127,
		"subtype": "noteOn",
		"time": 169800,
		"track": 5
	},
	{
		"deltaTime": 0,
		"channel": 9,
		"type": "channel",
		"subtype": "noteOff",
		"noteNumber": 36,
		"velocity": 0,
		"time": 169860,
		"track": 5
	},
	{
		"deltaTime": 60,
		"channel": 9,
		"type": "channel",
		"subtype": "noteOff",
		"noteNumber": 35,
		"velocity": 0,
		"time": 169860,
		"track": 5
	},
	{
		"deltaTime": 0,
		"channel": 0,
		"type": "channel",
		"subtype": "noteOff",
		"noteNumber": 41,
		"velocity": 0,
		"time": 169920,
		"track": 2
	},
	{
		"deltaTime": 0,
		"channel": 0,
		"type": "channel",
		"noteNumber": 40,
		"velocity": 127,
		"subtype": "noteOn",
		"time": 169920,
		"track": 2
	},
	{
		"deltaTime": 0,
		"channel": 2,
		"type": "channel",
		"subtype": "noteOff",
		"noteNumber": 68,
		"velocity": 0,
		"time": 169920,
		"track": 4
	},
	{
		"deltaTime": 0,
		"channel": 2,
		"type": "channel",
		"subtype": "noteOff",
		"noteNumber": 63,
		"velocity": 0,
		"time": 169920,
		"track": 4
	},
	{
		"deltaTime": 0,
		"channel": 2,
		"type": "channel",
		"subtype": "noteOff",
		"noteNumber": 59,
		"velocity": 0,
		"time": 169920,
		"track": 4
	},
	{
		"deltaTime": 240,
		"channel": 2,
		"type": "channel",
		"noteNumber": 40,
		"velocity": 127,
		"subtype": "noteOn",
		"time": 169920,
		"track": 4
	},
	{
		"deltaTime": 0,
		"channel": 9,
		"type": "channel",
		"noteNumber": 35,
		"velocity": 127,
		"subtype": "noteOn",
		"time": 170160,
		"track": 5
	},
	{
		"deltaTime": 60,
		"channel": 9,
		"type": "channel",
		"noteNumber": 36,
		"velocity": 127,
		"subtype": "noteOn",
		"time": 170160,
		"track": 5
	},
	{
		"deltaTime": 0,
		"channel": 9,
		"type": "channel",
		"subtype": "noteOff",
		"noteNumber": 36,
		"velocity": 0,
		"time": 170220,
		"track": 5
	},
	{
		"deltaTime": 60,
		"channel": 9,
		"type": "channel",
		"subtype": "noteOff",
		"noteNumber": 35,
		"velocity": 0,
		"time": 170220,
		"track": 5
	},
	{
		"deltaTime": 0,
		"channel": 2,
		"type": "channel",
		"subtype": "noteOff",
		"noteNumber": 40,
		"velocity": 0,
		"time": 170280,
		"track": 4
	},
	{
		"deltaTime": 0,
		"channel": 2,
		"type": "channel",
		"noteNumber": 59,
		"velocity": 127,
		"subtype": "noteOn",
		"time": 170280,
		"track": 4
	},
	{
		"deltaTime": 0,
		"channel": 2,
		"type": "channel",
		"noteNumber": 63,
		"velocity": 127,
		"subtype": "noteOn",
		"time": 170280,
		"track": 4
	},
	{
		"deltaTime": 120,
		"channel": 2,
		"type": "channel",
		"noteNumber": 68,
		"velocity": 127,
		"subtype": "noteOn",
		"time": 170280,
		"track": 4
	},
	{
		"deltaTime": 0,
		"channel": 0,
		"type": "channel",
		"subtype": "noteOff",
		"noteNumber": 40,
		"velocity": 0,
		"time": 170400,
		"track": 2
	},
	{
		"deltaTime": 0,
		"channel": 0,
		"type": "channel",
		"noteNumber": 35,
		"velocity": 127,
		"subtype": "noteOn",
		"time": 170400,
		"track": 2
	},
	{
		"deltaTime": 0,
		"channel": 9,
		"type": "channel",
		"noteNumber": 38,
		"velocity": 127,
		"subtype": "noteOn",
		"time": 170400,
		"track": 5
	},
	{
		"deltaTime": 60,
		"channel": 9,
		"type": "channel",
		"noteNumber": 40,
		"velocity": 127,
		"subtype": "noteOn",
		"time": 170400,
		"track": 5
	},
	{
		"deltaTime": 0,
		"channel": 9,
		"type": "channel",
		"subtype": "noteOff",
		"noteNumber": 40,
		"velocity": 0,
		"time": 170460,
		"track": 5
	},
	{
		"deltaTime": 60,
		"channel": 9,
		"type": "channel",
		"subtype": "noteOff",
		"noteNumber": 38,
		"velocity": 0,
		"time": 170460,
		"track": 5
	},
	{
		"deltaTime": 0,
		"channel": 2,
		"type": "channel",
		"subtype": "noteOff",
		"noteNumber": 68,
		"velocity": 0,
		"time": 170520,
		"track": 4
	},
	{
		"deltaTime": 0,
		"channel": 2,
		"type": "channel",
		"subtype": "noteOff",
		"noteNumber": 63,
		"velocity": 0,
		"time": 170520,
		"track": 4
	},
	{
		"deltaTime": 0,
		"channel": 2,
		"type": "channel",
		"subtype": "noteOff",
		"noteNumber": 59,
		"velocity": 0,
		"time": 170520,
		"track": 4
	},
	{
		"deltaTime": 0,
		"channel": 2,
		"type": "channel",
		"noteNumber": 59,
		"velocity": 127,
		"subtype": "noteOn",
		"time": 170520,
		"track": 4
	},
	{
		"deltaTime": 0,
		"channel": 2,
		"type": "channel",
		"noteNumber": 63,
		"velocity": 127,
		"subtype": "noteOn",
		"time": 170520,
		"track": 4
	},
	{
		"deltaTime": 120,
		"channel": 2,
		"type": "channel",
		"noteNumber": 68,
		"velocity": 127,
		"subtype": "noteOn",
		"time": 170520,
		"track": 4
	},
	{
		"deltaTime": 0,
		"channel": 0,
		"type": "channel",
		"subtype": "noteOff",
		"noteNumber": 35,
		"velocity": 0,
		"time": 170640,
		"track": 2
	},
	{
		"deltaTime": 0,
		"channel": 0,
		"type": "channel",
		"noteNumber": 34,
		"velocity": 127,
		"subtype": "noteOn",
		"time": 170640,
		"track": 2
	},
	{
		"deltaTime": 0,
		"channel": 9,
		"type": "channel",
		"noteNumber": 35,
		"velocity": 127,
		"subtype": "noteOn",
		"time": 170640,
		"track": 5
	},
	{
		"deltaTime": 60,
		"channel": 9,
		"type": "channel",
		"noteNumber": 36,
		"velocity": 127,
		"subtype": "noteOn",
		"time": 170640,
		"track": 5
	},
	{
		"deltaTime": 0,
		"channel": 9,
		"type": "channel",
		"subtype": "noteOff",
		"noteNumber": 36,
		"velocity": 0,
		"time": 170700,
		"track": 5
	},
	{
		"deltaTime": 180,
		"channel": 9,
		"type": "channel",
		"subtype": "noteOff",
		"noteNumber": 35,
		"velocity": 0,
		"time": 170700,
		"track": 5
	},
	{
		"deltaTime": 0,
		"channel": 0,
		"type": "channel",
		"subtype": "noteOff",
		"noteNumber": 34,
		"velocity": 0,
		"time": 170880,
		"track": 2
	},
	{
		"deltaTime": 0,
		"channel": 0,
		"type": "channel",
		"noteNumber": 32,
		"velocity": 127,
		"subtype": "noteOn",
		"time": 170880,
		"track": 2
	},
	{
		"deltaTime": 0,
		"channel": 2,
		"type": "channel",
		"subtype": "noteOff",
		"noteNumber": 68,
		"velocity": 0,
		"time": 170880,
		"track": 4
	},
	{
		"deltaTime": 0,
		"channel": 2,
		"type": "channel",
		"subtype": "noteOff",
		"noteNumber": 63,
		"velocity": 0,
		"time": 170880,
		"track": 4
	},
	{
		"deltaTime": 0,
		"channel": 2,
		"type": "channel",
		"subtype": "noteOff",
		"noteNumber": 59,
		"velocity": 0,
		"time": 170880,
		"track": 4
	},
	{
		"deltaTime": 0,
		"channel": 2,
		"type": "channel",
		"noteNumber": 44,
		"velocity": 127,
		"subtype": "noteOn",
		"time": 170880,
		"track": 4
	},
	{
		"deltaTime": 0,
		"channel": 9,
		"type": "channel",
		"noteNumber": 42,
		"velocity": 127,
		"subtype": "noteOn",
		"time": 170880,
		"track": 5
	},
	{
		"deltaTime": 0,
		"channel": 9,
		"type": "channel",
		"noteNumber": 35,
		"velocity": 127,
		"subtype": "noteOn",
		"time": 170880,
		"track": 5
	},
	{
		"deltaTime": 60,
		"channel": 9,
		"type": "channel",
		"noteNumber": 36,
		"velocity": 127,
		"subtype": "noteOn",
		"time": 170880,
		"track": 5
	},
	{
		"deltaTime": 0,
		"channel": 9,
		"type": "channel",
		"subtype": "noteOff",
		"noteNumber": 36,
		"velocity": 0,
		"time": 170940,
		"track": 5
	},
	{
		"deltaTime": 0,
		"channel": 9,
		"type": "channel",
		"subtype": "noteOff",
		"noteNumber": 35,
		"velocity": 0,
		"time": 170940,
		"track": 5
	},
	{
		"deltaTime": 60,
		"channel": 9,
		"type": "channel",
		"subtype": "noteOff",
		"noteNumber": 42,
		"velocity": 0,
		"time": 170940,
		"track": 5
	},
	{
		"deltaTime": 60,
		"channel": 9,
		"type": "channel",
		"noteNumber": 42,
		"velocity": 127,
		"subtype": "noteOn",
		"time": 171000,
		"track": 5
	},
	{
		"deltaTime": 60,
		"channel": 9,
		"type": "channel",
		"subtype": "noteOff",
		"noteNumber": 42,
		"velocity": 0,
		"time": 171060,
		"track": 5
	},
	{
		"deltaTime": 0,
		"channel": 9,
		"type": "channel",
		"noteNumber": 42,
		"velocity": 127,
		"subtype": "noteOn",
		"time": 171120,
		"track": 5
	},
	{
		"deltaTime": 0,
		"channel": 9,
		"type": "channel",
		"noteNumber": 36,
		"velocity": 127,
		"subtype": "noteOn",
		"time": 171120,
		"track": 5
	},
	{
		"deltaTime": 60,
		"channel": 9,
		"type": "channel",
		"noteNumber": 35,
		"velocity": 127,
		"subtype": "noteOn",
		"time": 171120,
		"track": 5
	},
	{
		"deltaTime": 0,
		"channel": 9,
		"type": "channel",
		"subtype": "noteOff",
		"noteNumber": 35,
		"velocity": 0,
		"time": 171180,
		"track": 5
	},
	{
		"deltaTime": 0,
		"channel": 9,
		"type": "channel",
		"subtype": "noteOff",
		"noteNumber": 36,
		"velocity": 0,
		"time": 171180,
		"track": 5
	},
	{
		"deltaTime": 60,
		"channel": 9,
		"type": "channel",
		"subtype": "noteOff",
		"noteNumber": 42,
		"velocity": 0,
		"time": 171180,
		"track": 5
	},
	{
		"deltaTime": 0,
		"channel": 2,
		"type": "channel",
		"subtype": "noteOff",
		"noteNumber": 44,
		"velocity": 0,
		"time": 171240,
		"track": 4
	},
	{
		"deltaTime": 0,
		"channel": 2,
		"type": "channel",
		"noteNumber": 59,
		"velocity": 127,
		"subtype": "noteOn",
		"time": 171240,
		"track": 4
	},
	{
		"deltaTime": 0,
		"channel": 2,
		"type": "channel",
		"noteNumber": 63,
		"velocity": 127,
		"subtype": "noteOn",
		"time": 171240,
		"track": 4
	},
	{
		"deltaTime": 0,
		"channel": 2,
		"type": "channel",
		"noteNumber": 68,
		"velocity": 127,
		"subtype": "noteOn",
		"time": 171240,
		"track": 4
	},
	{
		"deltaTime": 60,
		"channel": 9,
		"type": "channel",
		"noteNumber": 42,
		"velocity": 127,
		"subtype": "noteOn",
		"time": 171240,
		"track": 5
	},
	{
		"deltaTime": 60,
		"channel": 9,
		"type": "channel",
		"subtype": "noteOff",
		"noteNumber": 42,
		"velocity": 0,
		"time": 171300,
		"track": 5
	},
	{
		"deltaTime": 0,
		"channel": 9,
		"type": "channel",
		"noteNumber": 42,
		"velocity": 127,
		"subtype": "noteOn",
		"time": 171360,
		"track": 5
	},
	{
		"deltaTime": 0,
		"channel": 9,
		"type": "channel",
		"noteNumber": 38,
		"velocity": 127,
		"subtype": "noteOn",
		"time": 171360,
		"track": 5
	},
	{
		"deltaTime": 60,
		"channel": 9,
		"type": "channel",
		"noteNumber": 40,
		"velocity": 127,
		"subtype": "noteOn",
		"time": 171360,
		"track": 5
	},
	{
		"deltaTime": 0,
		"channel": 9,
		"type": "channel",
		"subtype": "noteOff",
		"noteNumber": 40,
		"velocity": 0,
		"time": 171420,
		"track": 5
	},
	{
		"deltaTime": 0,
		"channel": 9,
		"type": "channel",
		"subtype": "noteOff",
		"noteNumber": 38,
		"velocity": 0,
		"time": 171420,
		"track": 5
	},
	{
		"deltaTime": 60,
		"channel": 9,
		"type": "channel",
		"subtype": "noteOff",
		"noteNumber": 42,
		"velocity": 0,
		"time": 171420,
		"track": 5
	},
	{
		"deltaTime": 0,
		"channel": 2,
		"type": "channel",
		"subtype": "noteOff",
		"noteNumber": 68,
		"velocity": 0,
		"time": 171480,
		"track": 4
	},
	{
		"deltaTime": 0,
		"channel": 2,
		"type": "channel",
		"subtype": "noteOff",
		"noteNumber": 63,
		"velocity": 0,
		"time": 171480,
		"track": 4
	},
	{
		"deltaTime": 0,
		"channel": 2,
		"type": "channel",
		"subtype": "noteOff",
		"noteNumber": 59,
		"velocity": 0,
		"time": 171480,
		"track": 4
	},
	{
		"deltaTime": 0,
		"channel": 2,
		"type": "channel",
		"noteNumber": 59,
		"velocity": 127,
		"subtype": "noteOn",
		"time": 171480,
		"track": 4
	},
	{
		"deltaTime": 0,
		"channel": 2,
		"type": "channel",
		"noteNumber": 63,
		"velocity": 127,
		"subtype": "noteOn",
		"time": 171480,
		"track": 4
	},
	{
		"deltaTime": 0,
		"channel": 2,
		"type": "channel",
		"noteNumber": 68,
		"velocity": 127,
		"subtype": "noteOn",
		"time": 171480,
		"track": 4
	},
	{
		"deltaTime": 60,
		"channel": 9,
		"type": "channel",
		"noteNumber": 42,
		"velocity": 127,
		"subtype": "noteOn",
		"time": 171480,
		"track": 5
	},
	{
		"deltaTime": 60,
		"channel": 9,
		"type": "channel",
		"subtype": "noteOff",
		"noteNumber": 42,
		"velocity": 0,
		"time": 171540,
		"track": 5
	},
	{
		"deltaTime": 60,
		"channel": 9,
		"type": "channel",
		"noteNumber": 42,
		"velocity": 127,
		"subtype": "noteOn",
		"time": 171600,
		"track": 5
	},
	{
		"deltaTime": 60,
		"channel": 9,
		"type": "channel",
		"subtype": "noteOff",
		"noteNumber": 42,
		"velocity": 0,
		"time": 171660,
		"track": 5
	},
	{
		"deltaTime": 0,
		"channel": 9,
		"type": "channel",
		"noteNumber": 42,
		"velocity": 127,
		"subtype": "noteOn",
		"time": 171720,
		"track": 5
	},
	{
		"deltaTime": 0,
		"channel": 9,
		"type": "channel",
		"noteNumber": 36,
		"velocity": 127,
		"subtype": "noteOn",
		"time": 171720,
		"track": 5
	},
	{
		"deltaTime": 60,
		"channel": 9,
		"type": "channel",
		"noteNumber": 35,
		"velocity": 127,
		"subtype": "noteOn",
		"time": 171720,
		"track": 5
	},
	{
		"deltaTime": 0,
		"channel": 9,
		"type": "channel",
		"subtype": "noteOff",
		"noteNumber": 35,
		"velocity": 0,
		"time": 171780,
		"track": 5
	},
	{
		"deltaTime": 0,
		"channel": 9,
		"type": "channel",
		"subtype": "noteOff",
		"noteNumber": 36,
		"velocity": 0,
		"time": 171780,
		"track": 5
	},
	{
		"deltaTime": 60,
		"channel": 9,
		"type": "channel",
		"subtype": "noteOff",
		"noteNumber": 42,
		"velocity": 0,
		"time": 171780,
		"track": 5
	},
	{
		"deltaTime": 0,
		"channel": 0,
		"type": "channel",
		"subtype": "noteOff",
		"noteNumber": 32,
		"velocity": 0,
		"time": 171840,
		"track": 2
	},
	{
		"deltaTime": 0,
		"channel": 0,
		"type": "channel",
		"noteNumber": 40,
		"velocity": 127,
		"subtype": "noteOn",
		"time": 171840,
		"track": 2
	},
	{
		"deltaTime": 0,
		"channel": 2,
		"type": "channel",
		"subtype": "noteOff",
		"noteNumber": 68,
		"velocity": 0,
		"time": 171840,
		"track": 4
	},
	{
		"deltaTime": 0,
		"channel": 2,
		"type": "channel",
		"subtype": "noteOff",
		"noteNumber": 63,
		"velocity": 0,
		"time": 171840,
		"track": 4
	},
	{
		"deltaTime": 0,
		"channel": 2,
		"type": "channel",
		"subtype": "noteOff",
		"noteNumber": 59,
		"velocity": 0,
		"time": 171840,
		"track": 4
	},
	{
		"deltaTime": 0,
		"channel": 2,
		"type": "channel",
		"noteNumber": 40,
		"velocity": 127,
		"subtype": "noteOn",
		"time": 171840,
		"track": 4
	},
	{
		"deltaTime": 60,
		"channel": 9,
		"type": "channel",
		"noteNumber": 42,
		"velocity": 127,
		"subtype": "noteOn",
		"time": 171840,
		"track": 5
	},
	{
		"deltaTime": 60,
		"channel": 9,
		"type": "channel",
		"subtype": "noteOff",
		"noteNumber": 42,
		"velocity": 0,
		"time": 171900,
		"track": 5
	},
	{
		"deltaTime": 60,
		"channel": 9,
		"type": "channel",
		"noteNumber": 42,
		"velocity": 127,
		"subtype": "noteOn",
		"time": 171960,
		"track": 5
	},
	{
		"deltaTime": 60,
		"channel": 9,
		"type": "channel",
		"subtype": "noteOff",
		"noteNumber": 42,
		"velocity": 0,
		"time": 172020,
		"track": 5
	},
	{
		"deltaTime": 0,
		"channel": 9,
		"type": "channel",
		"noteNumber": 42,
		"velocity": 127,
		"subtype": "noteOn",
		"time": 172080,
		"track": 5
	},
	{
		"deltaTime": 0,
		"channel": 9,
		"type": "channel",
		"noteNumber": 36,
		"velocity": 127,
		"subtype": "noteOn",
		"time": 172080,
		"track": 5
	},
	{
		"deltaTime": 60,
		"channel": 9,
		"type": "channel",
		"noteNumber": 35,
		"velocity": 127,
		"subtype": "noteOn",
		"time": 172080,
		"track": 5
	},
	{
		"deltaTime": 0,
		"channel": 9,
		"type": "channel",
		"subtype": "noteOff",
		"noteNumber": 35,
		"velocity": 0,
		"time": 172140,
		"track": 5
	},
	{
		"deltaTime": 0,
		"channel": 9,
		"type": "channel",
		"subtype": "noteOff",
		"noteNumber": 36,
		"velocity": 0,
		"time": 172140,
		"track": 5
	},
	{
		"deltaTime": 60,
		"channel": 9,
		"type": "channel",
		"subtype": "noteOff",
		"noteNumber": 42,
		"velocity": 0,
		"time": 172140,
		"track": 5
	},
	{
		"deltaTime": 0,
		"channel": 2,
		"type": "channel",
		"subtype": "noteOff",
		"noteNumber": 40,
		"velocity": 0,
		"time": 172200,
		"track": 4
	},
	{
		"deltaTime": 0,
		"channel": 2,
		"type": "channel",
		"noteNumber": 59,
		"velocity": 127,
		"subtype": "noteOn",
		"time": 172200,
		"track": 4
	},
	{
		"deltaTime": 0,
		"channel": 2,
		"type": "channel",
		"noteNumber": 63,
		"velocity": 127,
		"subtype": "noteOn",
		"time": 172200,
		"track": 4
	},
	{
		"deltaTime": 0,
		"channel": 2,
		"type": "channel",
		"noteNumber": 68,
		"velocity": 127,
		"subtype": "noteOn",
		"time": 172200,
		"track": 4
	},
	{
		"deltaTime": 60,
		"channel": 9,
		"type": "channel",
		"noteNumber": 42,
		"velocity": 127,
		"subtype": "noteOn",
		"time": 172200,
		"track": 5
	},
	{
		"deltaTime": 60,
		"channel": 9,
		"type": "channel",
		"subtype": "noteOff",
		"noteNumber": 42,
		"velocity": 0,
		"time": 172260,
		"track": 5
	},
	{
		"deltaTime": 0,
		"channel": 9,
		"type": "channel",
		"noteNumber": 42,
		"velocity": 127,
		"subtype": "noteOn",
		"time": 172320,
		"track": 5
	},
	{
		"deltaTime": 0,
		"channel": 9,
		"type": "channel",
		"noteNumber": 40,
		"velocity": 127,
		"subtype": "noteOn",
		"time": 172320,
		"track": 5
	},
	{
		"deltaTime": 60,
		"channel": 9,
		"type": "channel",
		"noteNumber": 38,
		"velocity": 127,
		"subtype": "noteOn",
		"time": 172320,
		"track": 5
	},
	{
		"deltaTime": 0,
		"channel": 9,
		"type": "channel",
		"subtype": "noteOff",
		"noteNumber": 38,
		"velocity": 0,
		"time": 172380,
		"track": 5
	},
	{
		"deltaTime": 0,
		"channel": 9,
		"type": "channel",
		"subtype": "noteOff",
		"noteNumber": 40,
		"velocity": 0,
		"time": 172380,
		"track": 5
	},
	{
		"deltaTime": 60,
		"channel": 9,
		"type": "channel",
		"subtype": "noteOff",
		"noteNumber": 42,
		"velocity": 0,
		"time": 172380,
		"track": 5
	},
	{
		"deltaTime": 0,
		"channel": 2,
		"type": "channel",
		"subtype": "noteOff",
		"noteNumber": 68,
		"velocity": 0,
		"time": 172440,
		"track": 4
	},
	{
		"deltaTime": 0,
		"channel": 2,
		"type": "channel",
		"subtype": "noteOff",
		"noteNumber": 63,
		"velocity": 0,
		"time": 172440,
		"track": 4
	},
	{
		"deltaTime": 0,
		"channel": 2,
		"type": "channel",
		"subtype": "noteOff",
		"noteNumber": 59,
		"velocity": 0,
		"time": 172440,
		"track": 4
	},
	{
		"deltaTime": 0,
		"channel": 2,
		"type": "channel",
		"noteNumber": 59,
		"velocity": 127,
		"subtype": "noteOn",
		"time": 172440,
		"track": 4
	},
	{
		"deltaTime": 0,
		"channel": 2,
		"type": "channel",
		"noteNumber": 63,
		"velocity": 127,
		"subtype": "noteOn",
		"time": 172440,
		"track": 4
	},
	{
		"deltaTime": 0,
		"channel": 2,
		"type": "channel",
		"noteNumber": 68,
		"velocity": 127,
		"subtype": "noteOn",
		"time": 172440,
		"track": 4
	},
	{
		"deltaTime": 60,
		"channel": 9,
		"type": "channel",
		"noteNumber": 42,
		"velocity": 127,
		"subtype": "noteOn",
		"time": 172440,
		"track": 5
	},
	{
		"deltaTime": 60,
		"channel": 9,
		"type": "channel",
		"subtype": "noteOff",
		"noteNumber": 42,
		"velocity": 0,
		"time": 172500,
		"track": 5
	},
	{
		"deltaTime": 60,
		"channel": 9,
		"type": "channel",
		"noteNumber": 42,
		"velocity": 127,
		"subtype": "noteOn",
		"time": 172560,
		"track": 5
	},
	{
		"deltaTime": 60,
		"channel": 9,
		"type": "channel",
		"subtype": "noteOff",
		"noteNumber": 42,
		"velocity": 0,
		"time": 172620,
		"track": 5
	},
	{
		"deltaTime": 60,
		"channel": 9,
		"type": "channel",
		"noteNumber": 42,
		"velocity": 127,
		"subtype": "noteOn",
		"time": 172680,
		"track": 5
	},
	{
		"deltaTime": 60,
		"channel": 9,
		"type": "channel",
		"subtype": "noteOff",
		"noteNumber": 42,
		"velocity": 0,
		"time": 172740,
		"track": 5
	},
	{
		"deltaTime": 0,
		"channel": 0,
		"type": "channel",
		"subtype": "noteOff",
		"noteNumber": 40,
		"velocity": 0,
		"time": 172800,
		"track": 2
	},
	{
		"deltaTime": 0,
		"channel": 0,
		"type": "channel",
		"noteNumber": 42,
		"velocity": 127,
		"subtype": "noteOn",
		"time": 172800,
		"track": 2
	},
	{
		"deltaTime": 0,
		"channel": 2,
		"type": "channel",
		"subtype": "noteOff",
		"noteNumber": 68,
		"velocity": 0,
		"time": 172800,
		"track": 4
	},
	{
		"deltaTime": 0,
		"channel": 2,
		"type": "channel",
		"subtype": "noteOff",
		"noteNumber": 63,
		"velocity": 0,
		"time": 172800,
		"track": 4
	},
	{
		"deltaTime": 0,
		"channel": 2,
		"type": "channel",
		"subtype": "noteOff",
		"noteNumber": 59,
		"velocity": 0,
		"time": 172800,
		"track": 4
	},
	{
		"deltaTime": 0,
		"channel": 2,
		"type": "channel",
		"noteNumber": 42,
		"velocity": 127,
		"subtype": "noteOn",
		"time": 172800,
		"track": 4
	},
	{
		"deltaTime": 0,
		"channel": 9,
		"type": "channel",
		"noteNumber": 42,
		"velocity": 127,
		"subtype": "noteOn",
		"time": 172800,
		"track": 5
	},
	{
		"deltaTime": 0,
		"channel": 9,
		"type": "channel",
		"noteNumber": 35,
		"velocity": 127,
		"subtype": "noteOn",
		"time": 172800,
		"track": 5
	},
	{
		"deltaTime": 60,
		"channel": 9,
		"type": "channel",
		"noteNumber": 36,
		"velocity": 127,
		"subtype": "noteOn",
		"time": 172800,
		"track": 5
	},
	{
		"deltaTime": 0,
		"channel": 9,
		"type": "channel",
		"subtype": "noteOff",
		"noteNumber": 36,
		"velocity": 0,
		"time": 172860,
		"track": 5
	},
	{
		"deltaTime": 0,
		"channel": 9,
		"type": "channel",
		"subtype": "noteOff",
		"noteNumber": 35,
		"velocity": 0,
		"time": 172860,
		"track": 5
	},
	{
		"deltaTime": 60,
		"channel": 9,
		"type": "channel",
		"subtype": "noteOff",
		"noteNumber": 42,
		"velocity": 0,
		"time": 172860,
		"track": 5
	},
	{
		"deltaTime": 60,
		"channel": 9,
		"type": "channel",
		"noteNumber": 42,
		"velocity": 127,
		"subtype": "noteOn",
		"time": 172920,
		"track": 5
	},
	{
		"deltaTime": 60,
		"channel": 9,
		"type": "channel",
		"subtype": "noteOff",
		"noteNumber": 42,
		"velocity": 0,
		"time": 172980,
		"track": 5
	},
	{
		"deltaTime": 0,
		"channel": 9,
		"type": "channel",
		"noteNumber": 42,
		"velocity": 127,
		"subtype": "noteOn",
		"time": 173040,
		"track": 5
	},
	{
		"deltaTime": 0,
		"channel": 9,
		"type": "channel",
		"noteNumber": 36,
		"velocity": 127,
		"subtype": "noteOn",
		"time": 173040,
		"track": 5
	},
	{
		"deltaTime": 60,
		"channel": 9,
		"type": "channel",
		"noteNumber": 35,
		"velocity": 127,
		"subtype": "noteOn",
		"time": 173040,
		"track": 5
	},
	{
		"deltaTime": 0,
		"channel": 9,
		"type": "channel",
		"subtype": "noteOff",
		"noteNumber": 35,
		"velocity": 0,
		"time": 173100,
		"track": 5
	},
	{
		"deltaTime": 0,
		"channel": 9,
		"type": "channel",
		"subtype": "noteOff",
		"noteNumber": 36,
		"velocity": 0,
		"time": 173100,
		"track": 5
	},
	{
		"deltaTime": 60,
		"channel": 9,
		"type": "channel",
		"subtype": "noteOff",
		"noteNumber": 42,
		"velocity": 0,
		"time": 173100,
		"track": 5
	},
	{
		"deltaTime": 0,
		"channel": 2,
		"type": "channel",
		"subtype": "noteOff",
		"noteNumber": 42,
		"velocity": 0,
		"time": 173160,
		"track": 4
	},
	{
		"deltaTime": 0,
		"channel": 2,
		"type": "channel",
		"noteNumber": 61,
		"velocity": 127,
		"subtype": "noteOn",
		"time": 173160,
		"track": 4
	},
	{
		"deltaTime": 0,
		"channel": 2,
		"type": "channel",
		"noteNumber": 66,
		"velocity": 127,
		"subtype": "noteOn",
		"time": 173160,
		"track": 4
	},
	{
		"deltaTime": 0,
		"channel": 2,
		"type": "channel",
		"noteNumber": 70,
		"velocity": 127,
		"subtype": "noteOn",
		"time": 173160,
		"track": 4
	},
	{
		"deltaTime": 60,
		"channel": 9,
		"type": "channel",
		"noteNumber": 42,
		"velocity": 127,
		"subtype": "noteOn",
		"time": 173160,
		"track": 5
	},
	{
		"deltaTime": 60,
		"channel": 9,
		"type": "channel",
		"subtype": "noteOff",
		"noteNumber": 42,
		"velocity": 0,
		"time": 173220,
		"track": 5
	},
	{
		"deltaTime": 0,
		"channel": 9,
		"type": "channel",
		"noteNumber": 42,
		"velocity": 127,
		"subtype": "noteOn",
		"time": 173280,
		"track": 5
	},
	{
		"deltaTime": 0,
		"channel": 9,
		"type": "channel",
		"noteNumber": 38,
		"velocity": 127,
		"subtype": "noteOn",
		"time": 173280,
		"track": 5
	},
	{
		"deltaTime": 60,
		"channel": 9,
		"type": "channel",
		"noteNumber": 40,
		"velocity": 127,
		"subtype": "noteOn",
		"time": 173280,
		"track": 5
	},
	{
		"deltaTime": 0,
		"channel": 9,
		"type": "channel",
		"subtype": "noteOff",
		"noteNumber": 40,
		"velocity": 0,
		"time": 173340,
		"track": 5
	},
	{
		"deltaTime": 0,
		"channel": 9,
		"type": "channel",
		"subtype": "noteOff",
		"noteNumber": 38,
		"velocity": 0,
		"time": 173340,
		"track": 5
	},
	{
		"deltaTime": 60,
		"channel": 9,
		"type": "channel",
		"subtype": "noteOff",
		"noteNumber": 42,
		"velocity": 0,
		"time": 173340,
		"track": 5
	},
	{
		"deltaTime": 0,
		"channel": 2,
		"type": "channel",
		"subtype": "noteOff",
		"noteNumber": 70,
		"velocity": 0,
		"time": 173400,
		"track": 4
	},
	{
		"deltaTime": 0,
		"channel": 2,
		"type": "channel",
		"subtype": "noteOff",
		"noteNumber": 66,
		"velocity": 0,
		"time": 173400,
		"track": 4
	},
	{
		"deltaTime": 0,
		"channel": 2,
		"type": "channel",
		"subtype": "noteOff",
		"noteNumber": 61,
		"velocity": 0,
		"time": 173400,
		"track": 4
	},
	{
		"deltaTime": 0,
		"channel": 2,
		"type": "channel",
		"noteNumber": 61,
		"velocity": 127,
		"subtype": "noteOn",
		"time": 173400,
		"track": 4
	},
	{
		"deltaTime": 0,
		"channel": 2,
		"type": "channel",
		"noteNumber": 66,
		"velocity": 127,
		"subtype": "noteOn",
		"time": 173400,
		"track": 4
	},
	{
		"deltaTime": 0,
		"channel": 2,
		"type": "channel",
		"noteNumber": 70,
		"velocity": 127,
		"subtype": "noteOn",
		"time": 173400,
		"track": 4
	},
	{
		"deltaTime": 60,
		"channel": 9,
		"type": "channel",
		"noteNumber": 42,
		"velocity": 127,
		"subtype": "noteOn",
		"time": 173400,
		"track": 5
	},
	{
		"deltaTime": 60,
		"channel": 9,
		"type": "channel",
		"subtype": "noteOff",
		"noteNumber": 42,
		"velocity": 0,
		"time": 173460,
		"track": 5
	},
	{
		"deltaTime": 60,
		"channel": 9,
		"type": "channel",
		"noteNumber": 42,
		"velocity": 127,
		"subtype": "noteOn",
		"time": 173520,
		"track": 5
	},
	{
		"deltaTime": 60,
		"channel": 9,
		"type": "channel",
		"subtype": "noteOff",
		"noteNumber": 42,
		"velocity": 0,
		"time": 173580,
		"track": 5
	},
	{
		"deltaTime": 0,
		"channel": 9,
		"type": "channel",
		"noteNumber": 42,
		"velocity": 127,
		"subtype": "noteOn",
		"time": 173640,
		"track": 5
	},
	{
		"deltaTime": 0,
		"channel": 9,
		"type": "channel",
		"noteNumber": 36,
		"velocity": 127,
		"subtype": "noteOn",
		"time": 173640,
		"track": 5
	},
	{
		"deltaTime": 60,
		"channel": 9,
		"type": "channel",
		"noteNumber": 35,
		"velocity": 127,
		"subtype": "noteOn",
		"time": 173640,
		"track": 5
	},
	{
		"deltaTime": 0,
		"channel": 9,
		"type": "channel",
		"subtype": "noteOff",
		"noteNumber": 35,
		"velocity": 0,
		"time": 173700,
		"track": 5
	},
	{
		"deltaTime": 0,
		"channel": 9,
		"type": "channel",
		"subtype": "noteOff",
		"noteNumber": 36,
		"velocity": 0,
		"time": 173700,
		"track": 5
	},
	{
		"deltaTime": 60,
		"channel": 9,
		"type": "channel",
		"subtype": "noteOff",
		"noteNumber": 42,
		"velocity": 0,
		"time": 173700,
		"track": 5
	},
	{
		"deltaTime": 0,
		"channel": 0,
		"type": "channel",
		"subtype": "noteOff",
		"noteNumber": 42,
		"velocity": 0,
		"time": 173760,
		"track": 2
	},
	{
		"deltaTime": 0,
		"channel": 0,
		"type": "channel",
		"noteNumber": 35,
		"velocity": 127,
		"subtype": "noteOn",
		"time": 173760,
		"track": 2
	},
	{
		"deltaTime": 0,
		"channel": 2,
		"type": "channel",
		"subtype": "noteOff",
		"noteNumber": 70,
		"velocity": 0,
		"time": 173760,
		"track": 4
	},
	{
		"deltaTime": 0,
		"channel": 2,
		"type": "channel",
		"subtype": "noteOff",
		"noteNumber": 66,
		"velocity": 0,
		"time": 173760,
		"track": 4
	},
	{
		"deltaTime": 0,
		"channel": 2,
		"type": "channel",
		"subtype": "noteOff",
		"noteNumber": 61,
		"velocity": 0,
		"time": 173760,
		"track": 4
	},
	{
		"deltaTime": 0,
		"channel": 2,
		"type": "channel",
		"noteNumber": 47,
		"velocity": 127,
		"subtype": "noteOn",
		"time": 173760,
		"track": 4
	},
	{
		"deltaTime": 60,
		"channel": 9,
		"type": "channel",
		"noteNumber": 42,
		"velocity": 127,
		"subtype": "noteOn",
		"time": 173760,
		"track": 5
	},
	{
		"deltaTime": 60,
		"channel": 9,
		"type": "channel",
		"subtype": "noteOff",
		"noteNumber": 42,
		"velocity": 0,
		"time": 173820,
		"track": 5
	},
	{
		"deltaTime": 60,
		"channel": 9,
		"type": "channel",
		"noteNumber": 42,
		"velocity": 127,
		"subtype": "noteOn",
		"time": 173880,
		"track": 5
	},
	{
		"deltaTime": 60,
		"channel": 9,
		"type": "channel",
		"subtype": "noteOff",
		"noteNumber": 42,
		"velocity": 0,
		"time": 173940,
		"track": 5
	},
	{
		"deltaTime": 0,
		"channel": 9,
		"type": "channel",
		"noteNumber": 42,
		"velocity": 127,
		"subtype": "noteOn",
		"time": 174000,
		"track": 5
	},
	{
		"deltaTime": 0,
		"channel": 9,
		"type": "channel",
		"noteNumber": 36,
		"velocity": 127,
		"subtype": "noteOn",
		"time": 174000,
		"track": 5
	},
	{
		"deltaTime": 60,
		"channel": 9,
		"type": "channel",
		"noteNumber": 35,
		"velocity": 127,
		"subtype": "noteOn",
		"time": 174000,
		"track": 5
	},
	{
		"deltaTime": 0,
		"channel": 9,
		"type": "channel",
		"subtype": "noteOff",
		"noteNumber": 35,
		"velocity": 0,
		"time": 174060,
		"track": 5
	},
	{
		"deltaTime": 0,
		"channel": 9,
		"type": "channel",
		"subtype": "noteOff",
		"noteNumber": 36,
		"velocity": 0,
		"time": 174060,
		"track": 5
	},
	{
		"deltaTime": 60,
		"channel": 9,
		"type": "channel",
		"subtype": "noteOff",
		"noteNumber": 42,
		"velocity": 0,
		"time": 174060,
		"track": 5
	},
	{
		"deltaTime": 0,
		"channel": 2,
		"type": "channel",
		"subtype": "noteOff",
		"noteNumber": 47,
		"velocity": 0,
		"time": 174120,
		"track": 4
	},
	{
		"deltaTime": 0,
		"channel": 2,
		"type": "channel",
		"noteNumber": 61,
		"velocity": 127,
		"subtype": "noteOn",
		"time": 174120,
		"track": 4
	},
	{
		"deltaTime": 0,
		"channel": 2,
		"type": "channel",
		"noteNumber": 66,
		"velocity": 127,
		"subtype": "noteOn",
		"time": 174120,
		"track": 4
	},
	{
		"deltaTime": 0,
		"channel": 2,
		"type": "channel",
		"noteNumber": 70,
		"velocity": 127,
		"subtype": "noteOn",
		"time": 174120,
		"track": 4
	},
	{
		"deltaTime": 60,
		"channel": 9,
		"type": "channel",
		"noteNumber": 42,
		"velocity": 127,
		"subtype": "noteOn",
		"time": 174120,
		"track": 5
	},
	{
		"deltaTime": 60,
		"channel": 9,
		"type": "channel",
		"subtype": "noteOff",
		"noteNumber": 42,
		"velocity": 0,
		"time": 174180,
		"track": 5
	},
	{
		"deltaTime": 0,
		"channel": 0,
		"type": "channel",
		"subtype": "noteOff",
		"noteNumber": 35,
		"velocity": 0,
		"time": 174240,
		"track": 2
	},
	{
		"deltaTime": 0,
		"channel": 0,
		"type": "channel",
		"noteNumber": 34,
		"velocity": 127,
		"subtype": "noteOn",
		"time": 174240,
		"track": 2
	},
	{
		"deltaTime": 0,
		"channel": 9,
		"type": "channel",
		"noteNumber": 42,
		"velocity": 127,
		"subtype": "noteOn",
		"time": 174240,
		"track": 5
	},
	{
		"deltaTime": 0,
		"channel": 9,
		"type": "channel",
		"noteNumber": 40,
		"velocity": 127,
		"subtype": "noteOn",
		"time": 174240,
		"track": 5
	},
	{
		"deltaTime": 60,
		"channel": 9,
		"type": "channel",
		"noteNumber": 38,
		"velocity": 127,
		"subtype": "noteOn",
		"time": 174240,
		"track": 5
	},
	{
		"deltaTime": 0,
		"channel": 9,
		"type": "channel",
		"subtype": "noteOff",
		"noteNumber": 38,
		"velocity": 0,
		"time": 174300,
		"track": 5
	},
	{
		"deltaTime": 0,
		"channel": 9,
		"type": "channel",
		"subtype": "noteOff",
		"noteNumber": 40,
		"velocity": 0,
		"time": 174300,
		"track": 5
	},
	{
		"deltaTime": 60,
		"channel": 9,
		"type": "channel",
		"subtype": "noteOff",
		"noteNumber": 42,
		"velocity": 0,
		"time": 174300,
		"track": 5
	},
	{
		"deltaTime": 0,
		"channel": 2,
		"type": "channel",
		"subtype": "noteOff",
		"noteNumber": 70,
		"velocity": 0,
		"time": 174360,
		"track": 4
	},
	{
		"deltaTime": 0,
		"channel": 2,
		"type": "channel",
		"subtype": "noteOff",
		"noteNumber": 66,
		"velocity": 0,
		"time": 174360,
		"track": 4
	},
	{
		"deltaTime": 0,
		"channel": 2,
		"type": "channel",
		"subtype": "noteOff",
		"noteNumber": 61,
		"velocity": 0,
		"time": 174360,
		"track": 4
	},
	{
		"deltaTime": 0,
		"channel": 2,
		"type": "channel",
		"noteNumber": 61,
		"velocity": 127,
		"subtype": "noteOn",
		"time": 174360,
		"track": 4
	},
	{
		"deltaTime": 0,
		"channel": 2,
		"type": "channel",
		"noteNumber": 66,
		"velocity": 127,
		"subtype": "noteOn",
		"time": 174360,
		"track": 4
	},
	{
		"deltaTime": 0,
		"channel": 2,
		"type": "channel",
		"noteNumber": 71,
		"velocity": 127,
		"subtype": "noteOn",
		"time": 174360,
		"track": 4
	},
	{
		"deltaTime": 60,
		"channel": 9,
		"type": "channel",
		"noteNumber": 42,
		"velocity": 127,
		"subtype": "noteOn",
		"time": 174360,
		"track": 5
	},
	{
		"deltaTime": 60,
		"channel": 9,
		"type": "channel",
		"subtype": "noteOff",
		"noteNumber": 42,
		"velocity": 0,
		"time": 174420,
		"track": 5
	},
	{
		"deltaTime": 60,
		"channel": 9,
		"type": "channel",
		"noteNumber": 42,
		"velocity": 127,
		"subtype": "noteOn",
		"time": 174480,
		"track": 5
	},
	{
		"deltaTime": 60,
		"channel": 9,
		"type": "channel",
		"subtype": "noteOff",
		"noteNumber": 42,
		"velocity": 0,
		"time": 174540,
		"track": 5
	},
	{
		"deltaTime": 60,
		"channel": 9,
		"type": "channel",
		"noteNumber": 42,
		"velocity": 127,
		"subtype": "noteOn",
		"time": 174600,
		"track": 5
	},
	{
		"deltaTime": 60,
		"channel": 9,
		"type": "channel",
		"subtype": "noteOff",
		"noteNumber": 42,
		"velocity": 0,
		"time": 174660,
		"track": 5
	},
	{
		"deltaTime": 0,
		"channel": 0,
		"type": "channel",
		"subtype": "noteOff",
		"noteNumber": 34,
		"velocity": 0,
		"time": 174720,
		"track": 2
	},
	{
		"deltaTime": 0,
		"channel": 0,
		"type": "channel",
		"noteNumber": 32,
		"velocity": 127,
		"subtype": "noteOn",
		"time": 174720,
		"track": 2
	},
	{
		"deltaTime": 0,
		"channel": 2,
		"type": "channel",
		"subtype": "noteOff",
		"noteNumber": 71,
		"velocity": 0,
		"time": 174720,
		"track": 4
	},
	{
		"deltaTime": 0,
		"channel": 2,
		"type": "channel",
		"subtype": "noteOff",
		"noteNumber": 66,
		"velocity": 0,
		"time": 174720,
		"track": 4
	},
	{
		"deltaTime": 0,
		"channel": 2,
		"type": "channel",
		"subtype": "noteOff",
		"noteNumber": 61,
		"velocity": 0,
		"time": 174720,
		"track": 4
	},
	{
		"deltaTime": 0,
		"channel": 2,
		"type": "channel",
		"noteNumber": 44,
		"velocity": 127,
		"subtype": "noteOn",
		"time": 174720,
		"track": 4
	},
	{
		"deltaTime": 0,
		"channel": 9,
		"type": "channel",
		"noteNumber": 42,
		"velocity": 127,
		"subtype": "noteOn",
		"time": 174720,
		"track": 5
	},
	{
		"deltaTime": 0,
		"channel": 9,
		"type": "channel",
		"noteNumber": 35,
		"velocity": 127,
		"subtype": "noteOn",
		"time": 174720,
		"track": 5
	},
	{
		"deltaTime": 60,
		"channel": 9,
		"type": "channel",
		"noteNumber": 36,
		"velocity": 127,
		"subtype": "noteOn",
		"time": 174720,
		"track": 5
	},
	{
		"deltaTime": 0,
		"channel": 9,
		"type": "channel",
		"subtype": "noteOff",
		"noteNumber": 36,
		"velocity": 0,
		"time": 174780,
		"track": 5
	},
	{
		"deltaTime": 0,
		"channel": 9,
		"type": "channel",
		"subtype": "noteOff",
		"noteNumber": 35,
		"velocity": 0,
		"time": 174780,
		"track": 5
	},
	{
		"deltaTime": 60,
		"channel": 9,
		"type": "channel",
		"subtype": "noteOff",
		"noteNumber": 42,
		"velocity": 0,
		"time": 174780,
		"track": 5
	},
	{
		"deltaTime": 60,
		"channel": 9,
		"type": "channel",
		"noteNumber": 42,
		"velocity": 127,
		"subtype": "noteOn",
		"time": 174840,
		"track": 5
	},
	{
		"deltaTime": 60,
		"channel": 9,
		"type": "channel",
		"subtype": "noteOff",
		"noteNumber": 42,
		"velocity": 0,
		"time": 174900,
		"track": 5
	},
	{
		"deltaTime": 0,
		"channel": 9,
		"type": "channel",
		"noteNumber": 42,
		"velocity": 127,
		"subtype": "noteOn",
		"time": 174960,
		"track": 5
	},
	{
		"deltaTime": 0,
		"channel": 9,
		"type": "channel",
		"noteNumber": 36,
		"velocity": 127,
		"subtype": "noteOn",
		"time": 174960,
		"track": 5
	},
	{
		"deltaTime": 60,
		"channel": 9,
		"type": "channel",
		"noteNumber": 35,
		"velocity": 127,
		"subtype": "noteOn",
		"time": 174960,
		"track": 5
	},
	{
		"deltaTime": 0,
		"channel": 9,
		"type": "channel",
		"subtype": "noteOff",
		"noteNumber": 35,
		"velocity": 0,
		"time": 175020,
		"track": 5
	},
	{
		"deltaTime": 0,
		"channel": 9,
		"type": "channel",
		"subtype": "noteOff",
		"noteNumber": 36,
		"velocity": 0,
		"time": 175020,
		"track": 5
	},
	{
		"deltaTime": 60,
		"channel": 9,
		"type": "channel",
		"subtype": "noteOff",
		"noteNumber": 42,
		"velocity": 0,
		"time": 175020,
		"track": 5
	},
	{
		"deltaTime": 0,
		"channel": 2,
		"type": "channel",
		"subtype": "noteOff",
		"noteNumber": 44,
		"velocity": 0,
		"time": 175080,
		"track": 4
	},
	{
		"deltaTime": 0,
		"channel": 2,
		"type": "channel",
		"noteNumber": 59,
		"velocity": 127,
		"subtype": "noteOn",
		"time": 175080,
		"track": 4
	},
	{
		"deltaTime": 0,
		"channel": 2,
		"type": "channel",
		"noteNumber": 63,
		"velocity": 127,
		"subtype": "noteOn",
		"time": 175080,
		"track": 4
	},
	{
		"deltaTime": 0,
		"channel": 2,
		"type": "channel",
		"noteNumber": 68,
		"velocity": 127,
		"subtype": "noteOn",
		"time": 175080,
		"track": 4
	},
	{
		"deltaTime": 60,
		"channel": 9,
		"type": "channel",
		"noteNumber": 42,
		"velocity": 127,
		"subtype": "noteOn",
		"time": 175080,
		"track": 5
	},
	{
		"deltaTime": 60,
		"channel": 9,
		"type": "channel",
		"subtype": "noteOff",
		"noteNumber": 42,
		"velocity": 0,
		"time": 175140,
		"track": 5
	},
	{
		"deltaTime": 0,
		"channel": 9,
		"type": "channel",
		"noteNumber": 42,
		"velocity": 127,
		"subtype": "noteOn",
		"time": 175200,
		"track": 5
	},
	{
		"deltaTime": 0,
		"channel": 9,
		"type": "channel",
		"noteNumber": 38,
		"velocity": 127,
		"subtype": "noteOn",
		"time": 175200,
		"track": 5
	},
	{
		"deltaTime": 60,
		"channel": 9,
		"type": "channel",
		"noteNumber": 40,
		"velocity": 127,
		"subtype": "noteOn",
		"time": 175200,
		"track": 5
	},
	{
		"deltaTime": 0,
		"channel": 9,
		"type": "channel",
		"subtype": "noteOff",
		"noteNumber": 40,
		"velocity": 0,
		"time": 175260,
		"track": 5
	},
	{
		"deltaTime": 0,
		"channel": 9,
		"type": "channel",
		"subtype": "noteOff",
		"noteNumber": 38,
		"velocity": 0,
		"time": 175260,
		"track": 5
	},
	{
		"deltaTime": 60,
		"channel": 9,
		"type": "channel",
		"subtype": "noteOff",
		"noteNumber": 42,
		"velocity": 0,
		"time": 175260,
		"track": 5
	},
	{
		"deltaTime": 0,
		"channel": 2,
		"type": "channel",
		"subtype": "noteOff",
		"noteNumber": 68,
		"velocity": 0,
		"time": 175320,
		"track": 4
	},
	{
		"deltaTime": 0,
		"channel": 2,
		"type": "channel",
		"subtype": "noteOff",
		"noteNumber": 63,
		"velocity": 0,
		"time": 175320,
		"track": 4
	},
	{
		"deltaTime": 0,
		"channel": 2,
		"type": "channel",
		"subtype": "noteOff",
		"noteNumber": 59,
		"velocity": 0,
		"time": 175320,
		"track": 4
	},
	{
		"deltaTime": 0,
		"channel": 2,
		"type": "channel",
		"noteNumber": 59,
		"velocity": 127,
		"subtype": "noteOn",
		"time": 175320,
		"track": 4
	},
	{
		"deltaTime": 0,
		"channel": 2,
		"type": "channel",
		"noteNumber": 63,
		"velocity": 127,
		"subtype": "noteOn",
		"time": 175320,
		"track": 4
	},
	{
		"deltaTime": 0,
		"channel": 2,
		"type": "channel",
		"noteNumber": 68,
		"velocity": 127,
		"subtype": "noteOn",
		"time": 175320,
		"track": 4
	},
	{
		"deltaTime": 60,
		"channel": 9,
		"type": "channel",
		"noteNumber": 42,
		"velocity": 127,
		"subtype": "noteOn",
		"time": 175320,
		"track": 5
	},
	{
		"deltaTime": 60,
		"channel": 9,
		"type": "channel",
		"subtype": "noteOff",
		"noteNumber": 42,
		"velocity": 0,
		"time": 175380,
		"track": 5
	},
	{
		"deltaTime": 60,
		"channel": 9,
		"type": "channel",
		"noteNumber": 42,
		"velocity": 127,
		"subtype": "noteOn",
		"time": 175440,
		"track": 5
	},
	{
		"deltaTime": 60,
		"channel": 9,
		"type": "channel",
		"subtype": "noteOff",
		"noteNumber": 42,
		"velocity": 0,
		"time": 175500,
		"track": 5
	},
	{
		"deltaTime": 0,
		"channel": 9,
		"type": "channel",
		"noteNumber": 42,
		"velocity": 127,
		"subtype": "noteOn",
		"time": 175560,
		"track": 5
	},
	{
		"deltaTime": 0,
		"channel": 9,
		"type": "channel",
		"noteNumber": 36,
		"velocity": 127,
		"subtype": "noteOn",
		"time": 175560,
		"track": 5
	},
	{
		"deltaTime": 60,
		"channel": 9,
		"type": "channel",
		"noteNumber": 35,
		"velocity": 127,
		"subtype": "noteOn",
		"time": 175560,
		"track": 5
	},
	{
		"deltaTime": 0,
		"channel": 9,
		"type": "channel",
		"subtype": "noteOff",
		"noteNumber": 35,
		"velocity": 0,
		"time": 175620,
		"track": 5
	},
	{
		"deltaTime": 0,
		"channel": 9,
		"type": "channel",
		"subtype": "noteOff",
		"noteNumber": 36,
		"velocity": 0,
		"time": 175620,
		"track": 5
	},
	{
		"deltaTime": 60,
		"channel": 9,
		"type": "channel",
		"subtype": "noteOff",
		"noteNumber": 42,
		"velocity": 0,
		"time": 175620,
		"track": 5
	},
	{
		"deltaTime": 0,
		"channel": 0,
		"type": "channel",
		"subtype": "noteOff",
		"noteNumber": 32,
		"velocity": 0,
		"time": 175680,
		"track": 2
	},
	{
		"deltaTime": 0,
		"channel": 0,
		"type": "channel",
		"noteNumber": 40,
		"velocity": 127,
		"subtype": "noteOn",
		"time": 175680,
		"track": 2
	},
	{
		"deltaTime": 0,
		"channel": 2,
		"type": "channel",
		"subtype": "noteOff",
		"noteNumber": 68,
		"velocity": 0,
		"time": 175680,
		"track": 4
	},
	{
		"deltaTime": 0,
		"channel": 2,
		"type": "channel",
		"subtype": "noteOff",
		"noteNumber": 63,
		"velocity": 0,
		"time": 175680,
		"track": 4
	},
	{
		"deltaTime": 0,
		"channel": 2,
		"type": "channel",
		"subtype": "noteOff",
		"noteNumber": 59,
		"velocity": 0,
		"time": 175680,
		"track": 4
	},
	{
		"deltaTime": 0,
		"channel": 2,
		"type": "channel",
		"noteNumber": 40,
		"velocity": 127,
		"subtype": "noteOn",
		"time": 175680,
		"track": 4
	},
	{
		"deltaTime": 60,
		"channel": 9,
		"type": "channel",
		"noteNumber": 42,
		"velocity": 127,
		"subtype": "noteOn",
		"time": 175680,
		"track": 5
	},
	{
		"deltaTime": 60,
		"channel": 9,
		"type": "channel",
		"subtype": "noteOff",
		"noteNumber": 42,
		"velocity": 0,
		"time": 175740,
		"track": 5
	},
	{
		"deltaTime": 60,
		"channel": 9,
		"type": "channel",
		"noteNumber": 42,
		"velocity": 127,
		"subtype": "noteOn",
		"time": 175800,
		"track": 5
	},
	{
		"deltaTime": 60,
		"channel": 9,
		"type": "channel",
		"subtype": "noteOff",
		"noteNumber": 42,
		"velocity": 0,
		"time": 175860,
		"track": 5
	},
	{
		"deltaTime": 0,
		"channel": 9,
		"type": "channel",
		"noteNumber": 42,
		"velocity": 127,
		"subtype": "noteOn",
		"time": 175920,
		"track": 5
	},
	{
		"deltaTime": 0,
		"channel": 9,
		"type": "channel",
		"noteNumber": 36,
		"velocity": 127,
		"subtype": "noteOn",
		"time": 175920,
		"track": 5
	},
	{
		"deltaTime": 60,
		"channel": 9,
		"type": "channel",
		"noteNumber": 35,
		"velocity": 127,
		"subtype": "noteOn",
		"time": 175920,
		"track": 5
	},
	{
		"deltaTime": 0,
		"channel": 9,
		"type": "channel",
		"subtype": "noteOff",
		"noteNumber": 35,
		"velocity": 0,
		"time": 175980,
		"track": 5
	},
	{
		"deltaTime": 0,
		"channel": 9,
		"type": "channel",
		"subtype": "noteOff",
		"noteNumber": 36,
		"velocity": 0,
		"time": 175980,
		"track": 5
	},
	{
		"deltaTime": 60,
		"channel": 9,
		"type": "channel",
		"subtype": "noteOff",
		"noteNumber": 42,
		"velocity": 0,
		"time": 175980,
		"track": 5
	},
	{
		"deltaTime": 0,
		"channel": 2,
		"type": "channel",
		"subtype": "noteOff",
		"noteNumber": 40,
		"velocity": 0,
		"time": 176040,
		"track": 4
	},
	{
		"deltaTime": 0,
		"channel": 2,
		"type": "channel",
		"noteNumber": 59,
		"velocity": 127,
		"subtype": "noteOn",
		"time": 176040,
		"track": 4
	},
	{
		"deltaTime": 0,
		"channel": 2,
		"type": "channel",
		"noteNumber": 63,
		"velocity": 127,
		"subtype": "noteOn",
		"time": 176040,
		"track": 4
	},
	{
		"deltaTime": 0,
		"channel": 2,
		"type": "channel",
		"noteNumber": 68,
		"velocity": 127,
		"subtype": "noteOn",
		"time": 176040,
		"track": 4
	},
	{
		"deltaTime": 60,
		"channel": 9,
		"type": "channel",
		"noteNumber": 42,
		"velocity": 127,
		"subtype": "noteOn",
		"time": 176040,
		"track": 5
	},
	{
		"deltaTime": 60,
		"channel": 9,
		"type": "channel",
		"subtype": "noteOff",
		"noteNumber": 42,
		"velocity": 0,
		"time": 176100,
		"track": 5
	},
	{
		"deltaTime": 0,
		"channel": 9,
		"type": "channel",
		"noteNumber": 42,
		"velocity": 127,
		"subtype": "noteOn",
		"time": 176160,
		"track": 5
	},
	{
		"deltaTime": 0,
		"channel": 9,
		"type": "channel",
		"noteNumber": 40,
		"velocity": 127,
		"subtype": "noteOn",
		"time": 176160,
		"track": 5
	},
	{
		"deltaTime": 60,
		"channel": 9,
		"type": "channel",
		"noteNumber": 38,
		"velocity": 127,
		"subtype": "noteOn",
		"time": 176160,
		"track": 5
	},
	{
		"deltaTime": 0,
		"channel": 9,
		"type": "channel",
		"subtype": "noteOff",
		"noteNumber": 38,
		"velocity": 0,
		"time": 176220,
		"track": 5
	},
	{
		"deltaTime": 0,
		"channel": 9,
		"type": "channel",
		"subtype": "noteOff",
		"noteNumber": 40,
		"velocity": 0,
		"time": 176220,
		"track": 5
	},
	{
		"deltaTime": 60,
		"channel": 9,
		"type": "channel",
		"subtype": "noteOff",
		"noteNumber": 42,
		"velocity": 0,
		"time": 176220,
		"track": 5
	},
	{
		"deltaTime": 0,
		"channel": 2,
		"type": "channel",
		"subtype": "noteOff",
		"noteNumber": 68,
		"velocity": 0,
		"time": 176280,
		"track": 4
	},
	{
		"deltaTime": 0,
		"channel": 2,
		"type": "channel",
		"subtype": "noteOff",
		"noteNumber": 63,
		"velocity": 0,
		"time": 176280,
		"track": 4
	},
	{
		"deltaTime": 0,
		"channel": 2,
		"type": "channel",
		"subtype": "noteOff",
		"noteNumber": 59,
		"velocity": 0,
		"time": 176280,
		"track": 4
	},
	{
		"deltaTime": 0,
		"channel": 2,
		"type": "channel",
		"noteNumber": 59,
		"velocity": 127,
		"subtype": "noteOn",
		"time": 176280,
		"track": 4
	},
	{
		"deltaTime": 0,
		"channel": 2,
		"type": "channel",
		"noteNumber": 63,
		"velocity": 127,
		"subtype": "noteOn",
		"time": 176280,
		"track": 4
	},
	{
		"deltaTime": 0,
		"channel": 2,
		"type": "channel",
		"noteNumber": 68,
		"velocity": 127,
		"subtype": "noteOn",
		"time": 176280,
		"track": 4
	},
	{
		"deltaTime": 60,
		"channel": 9,
		"type": "channel",
		"noteNumber": 42,
		"velocity": 127,
		"subtype": "noteOn",
		"time": 176280,
		"track": 5
	},
	{
		"deltaTime": 60,
		"channel": 9,
		"type": "channel",
		"subtype": "noteOff",
		"noteNumber": 42,
		"velocity": 0,
		"time": 176340,
		"track": 5
	},
	{
		"deltaTime": 60,
		"channel": 9,
		"type": "channel",
		"noteNumber": 42,
		"velocity": 127,
		"subtype": "noteOn",
		"time": 176400,
		"track": 5
	},
	{
		"deltaTime": 60,
		"channel": 9,
		"type": "channel",
		"subtype": "noteOff",
		"noteNumber": 42,
		"velocity": 0,
		"time": 176460,
		"track": 5
	},
	{
		"deltaTime": 60,
		"channel": 9,
		"type": "channel",
		"noteNumber": 42,
		"velocity": 127,
		"subtype": "noteOn",
		"time": 176520,
		"track": 5
	},
	{
		"deltaTime": 60,
		"channel": 9,
		"type": "channel",
		"subtype": "noteOff",
		"noteNumber": 42,
		"velocity": 0,
		"time": 176580,
		"track": 5
	},
	{
		"deltaTime": 0,
		"channel": 0,
		"type": "channel",
		"subtype": "noteOff",
		"noteNumber": 40,
		"velocity": 0,
		"time": 176640,
		"track": 2
	},
	{
		"deltaTime": 0,
		"channel": 0,
		"type": "channel",
		"noteNumber": 42,
		"velocity": 127,
		"subtype": "noteOn",
		"time": 176640,
		"track": 2
	},
	{
		"deltaTime": 0,
		"channel": 2,
		"type": "channel",
		"subtype": "noteOff",
		"noteNumber": 68,
		"velocity": 0,
		"time": 176640,
		"track": 4
	},
	{
		"deltaTime": 0,
		"channel": 2,
		"type": "channel",
		"subtype": "noteOff",
		"noteNumber": 63,
		"velocity": 0,
		"time": 176640,
		"track": 4
	},
	{
		"deltaTime": 0,
		"channel": 2,
		"type": "channel",
		"subtype": "noteOff",
		"noteNumber": 59,
		"velocity": 0,
		"time": 176640,
		"track": 4
	},
	{
		"deltaTime": 0,
		"channel": 2,
		"type": "channel",
		"noteNumber": 42,
		"velocity": 127,
		"subtype": "noteOn",
		"time": 176640,
		"track": 4
	},
	{
		"deltaTime": 0,
		"channel": 9,
		"type": "channel",
		"noteNumber": 42,
		"velocity": 127,
		"subtype": "noteOn",
		"time": 176640,
		"track": 5
	},
	{
		"deltaTime": 0,
		"channel": 9,
		"type": "channel",
		"noteNumber": 35,
		"velocity": 127,
		"subtype": "noteOn",
		"time": 176640,
		"track": 5
	},
	{
		"deltaTime": 60,
		"channel": 9,
		"type": "channel",
		"noteNumber": 36,
		"velocity": 127,
		"subtype": "noteOn",
		"time": 176640,
		"track": 5
	},
	{
		"deltaTime": 0,
		"channel": 9,
		"type": "channel",
		"subtype": "noteOff",
		"noteNumber": 36,
		"velocity": 0,
		"time": 176700,
		"track": 5
	},
	{
		"deltaTime": 0,
		"channel": 9,
		"type": "channel",
		"subtype": "noteOff",
		"noteNumber": 35,
		"velocity": 0,
		"time": 176700,
		"track": 5
	},
	{
		"deltaTime": 60,
		"channel": 9,
		"type": "channel",
		"subtype": "noteOff",
		"noteNumber": 42,
		"velocity": 0,
		"time": 176700,
		"track": 5
	},
	{
		"deltaTime": 60,
		"channel": 9,
		"type": "channel",
		"noteNumber": 42,
		"velocity": 127,
		"subtype": "noteOn",
		"time": 176760,
		"track": 5
	},
	{
		"deltaTime": 60,
		"channel": 9,
		"type": "channel",
		"subtype": "noteOff",
		"noteNumber": 42,
		"velocity": 0,
		"time": 176820,
		"track": 5
	},
	{
		"deltaTime": 0,
		"channel": 9,
		"type": "channel",
		"noteNumber": 42,
		"velocity": 127,
		"subtype": "noteOn",
		"time": 176880,
		"track": 5
	},
	{
		"deltaTime": 0,
		"channel": 9,
		"type": "channel",
		"noteNumber": 36,
		"velocity": 127,
		"subtype": "noteOn",
		"time": 176880,
		"track": 5
	},
	{
		"deltaTime": 60,
		"channel": 9,
		"type": "channel",
		"noteNumber": 35,
		"velocity": 127,
		"subtype": "noteOn",
		"time": 176880,
		"track": 5
	},
	{
		"deltaTime": 0,
		"channel": 9,
		"type": "channel",
		"subtype": "noteOff",
		"noteNumber": 35,
		"velocity": 0,
		"time": 176940,
		"track": 5
	},
	{
		"deltaTime": 0,
		"channel": 9,
		"type": "channel",
		"subtype": "noteOff",
		"noteNumber": 36,
		"velocity": 0,
		"time": 176940,
		"track": 5
	},
	{
		"deltaTime": 60,
		"channel": 9,
		"type": "channel",
		"subtype": "noteOff",
		"noteNumber": 42,
		"velocity": 0,
		"time": 176940,
		"track": 5
	},
	{
		"deltaTime": 0,
		"channel": 2,
		"type": "channel",
		"subtype": "noteOff",
		"noteNumber": 42,
		"velocity": 0,
		"time": 177000,
		"track": 4
	},
	{
		"deltaTime": 0,
		"channel": 2,
		"type": "channel",
		"noteNumber": 61,
		"velocity": 127,
		"subtype": "noteOn",
		"time": 177000,
		"track": 4
	},
	{
		"deltaTime": 0,
		"channel": 2,
		"type": "channel",
		"noteNumber": 66,
		"velocity": 127,
		"subtype": "noteOn",
		"time": 177000,
		"track": 4
	},
	{
		"deltaTime": 0,
		"channel": 2,
		"type": "channel",
		"noteNumber": 70,
		"velocity": 127,
		"subtype": "noteOn",
		"time": 177000,
		"track": 4
	},
	{
		"deltaTime": 60,
		"channel": 9,
		"type": "channel",
		"noteNumber": 42,
		"velocity": 127,
		"subtype": "noteOn",
		"time": 177000,
		"track": 5
	},
	{
		"deltaTime": 60,
		"channel": 9,
		"type": "channel",
		"subtype": "noteOff",
		"noteNumber": 42,
		"velocity": 0,
		"time": 177060,
		"track": 5
	},
	{
		"deltaTime": 0,
		"channel": 9,
		"type": "channel",
		"noteNumber": 42,
		"velocity": 127,
		"subtype": "noteOn",
		"time": 177120,
		"track": 5
	},
	{
		"deltaTime": 0,
		"channel": 9,
		"type": "channel",
		"noteNumber": 38,
		"velocity": 127,
		"subtype": "noteOn",
		"time": 177120,
		"track": 5
	},
	{
		"deltaTime": 60,
		"channel": 9,
		"type": "channel",
		"noteNumber": 40,
		"velocity": 127,
		"subtype": "noteOn",
		"time": 177120,
		"track": 5
	},
	{
		"deltaTime": 0,
		"channel": 9,
		"type": "channel",
		"subtype": "noteOff",
		"noteNumber": 40,
		"velocity": 0,
		"time": 177180,
		"track": 5
	},
	{
		"deltaTime": 0,
		"channel": 9,
		"type": "channel",
		"subtype": "noteOff",
		"noteNumber": 38,
		"velocity": 0,
		"time": 177180,
		"track": 5
	},
	{
		"deltaTime": 60,
		"channel": 9,
		"type": "channel",
		"subtype": "noteOff",
		"noteNumber": 42,
		"velocity": 0,
		"time": 177180,
		"track": 5
	},
	{
		"deltaTime": 0,
		"channel": 2,
		"type": "channel",
		"subtype": "noteOff",
		"noteNumber": 70,
		"velocity": 0,
		"time": 177240,
		"track": 4
	},
	{
		"deltaTime": 0,
		"channel": 2,
		"type": "channel",
		"subtype": "noteOff",
		"noteNumber": 66,
		"velocity": 0,
		"time": 177240,
		"track": 4
	},
	{
		"deltaTime": 0,
		"channel": 2,
		"type": "channel",
		"subtype": "noteOff",
		"noteNumber": 61,
		"velocity": 0,
		"time": 177240,
		"track": 4
	},
	{
		"deltaTime": 0,
		"channel": 2,
		"type": "channel",
		"noteNumber": 61,
		"velocity": 127,
		"subtype": "noteOn",
		"time": 177240,
		"track": 4
	},
	{
		"deltaTime": 0,
		"channel": 2,
		"type": "channel",
		"noteNumber": 66,
		"velocity": 127,
		"subtype": "noteOn",
		"time": 177240,
		"track": 4
	},
	{
		"deltaTime": 0,
		"channel": 2,
		"type": "channel",
		"noteNumber": 70,
		"velocity": 127,
		"subtype": "noteOn",
		"time": 177240,
		"track": 4
	},
	{
		"deltaTime": 60,
		"channel": 9,
		"type": "channel",
		"noteNumber": 42,
		"velocity": 127,
		"subtype": "noteOn",
		"time": 177240,
		"track": 5
	},
	{
		"deltaTime": 60,
		"channel": 9,
		"type": "channel",
		"subtype": "noteOff",
		"noteNumber": 42,
		"velocity": 0,
		"time": 177300,
		"track": 5
	},
	{
		"deltaTime": 60,
		"channel": 9,
		"type": "channel",
		"noteNumber": 42,
		"velocity": 127,
		"subtype": "noteOn",
		"time": 177360,
		"track": 5
	},
	{
		"deltaTime": 60,
		"channel": 9,
		"type": "channel",
		"subtype": "noteOff",
		"noteNumber": 42,
		"velocity": 0,
		"time": 177420,
		"track": 5
	},
	{
		"deltaTime": 0,
		"channel": 9,
		"type": "channel",
		"noteNumber": 42,
		"velocity": 127,
		"subtype": "noteOn",
		"time": 177480,
		"track": 5
	},
	{
		"deltaTime": 0,
		"channel": 9,
		"type": "channel",
		"noteNumber": 36,
		"velocity": 127,
		"subtype": "noteOn",
		"time": 177480,
		"track": 5
	},
	{
		"deltaTime": 60,
		"channel": 9,
		"type": "channel",
		"noteNumber": 35,
		"velocity": 127,
		"subtype": "noteOn",
		"time": 177480,
		"track": 5
	},
	{
		"deltaTime": 0,
		"channel": 9,
		"type": "channel",
		"subtype": "noteOff",
		"noteNumber": 35,
		"velocity": 0,
		"time": 177540,
		"track": 5
	},
	{
		"deltaTime": 0,
		"channel": 9,
		"type": "channel",
		"subtype": "noteOff",
		"noteNumber": 36,
		"velocity": 0,
		"time": 177540,
		"track": 5
	},
	{
		"deltaTime": 60,
		"channel": 9,
		"type": "channel",
		"subtype": "noteOff",
		"noteNumber": 42,
		"velocity": 0,
		"time": 177540,
		"track": 5
	},
	{
		"deltaTime": 0,
		"channel": 0,
		"type": "channel",
		"subtype": "noteOff",
		"noteNumber": 42,
		"velocity": 0,
		"time": 177600,
		"track": 2
	},
	{
		"deltaTime": 0,
		"channel": 0,
		"type": "channel",
		"noteNumber": 35,
		"velocity": 127,
		"subtype": "noteOn",
		"time": 177600,
		"track": 2
	},
	{
		"deltaTime": 0,
		"channel": 2,
		"type": "channel",
		"subtype": "noteOff",
		"noteNumber": 70,
		"velocity": 0,
		"time": 177600,
		"track": 4
	},
	{
		"deltaTime": 0,
		"channel": 2,
		"type": "channel",
		"subtype": "noteOff",
		"noteNumber": 66,
		"velocity": 0,
		"time": 177600,
		"track": 4
	},
	{
		"deltaTime": 0,
		"channel": 2,
		"type": "channel",
		"subtype": "noteOff",
		"noteNumber": 61,
		"velocity": 0,
		"time": 177600,
		"track": 4
	},
	{
		"deltaTime": 0,
		"channel": 2,
		"type": "channel",
		"noteNumber": 47,
		"velocity": 127,
		"subtype": "noteOn",
		"time": 177600,
		"track": 4
	},
	{
		"deltaTime": 60,
		"channel": 9,
		"type": "channel",
		"noteNumber": 42,
		"velocity": 127,
		"subtype": "noteOn",
		"time": 177600,
		"track": 5
	},
	{
		"deltaTime": 60,
		"channel": 9,
		"type": "channel",
		"subtype": "noteOff",
		"noteNumber": 42,
		"velocity": 0,
		"time": 177660,
		"track": 5
	},
	{
		"deltaTime": 60,
		"channel": 9,
		"type": "channel",
		"noteNumber": 42,
		"velocity": 127,
		"subtype": "noteOn",
		"time": 177720,
		"track": 5
	},
	{
		"deltaTime": 60,
		"channel": 9,
		"type": "channel",
		"subtype": "noteOff",
		"noteNumber": 42,
		"velocity": 0,
		"time": 177780,
		"track": 5
	},
	{
		"deltaTime": 0,
		"channel": 9,
		"type": "channel",
		"noteNumber": 42,
		"velocity": 127,
		"subtype": "noteOn",
		"time": 177840,
		"track": 5
	},
	{
		"deltaTime": 0,
		"channel": 9,
		"type": "channel",
		"noteNumber": 36,
		"velocity": 127,
		"subtype": "noteOn",
		"time": 177840,
		"track": 5
	},
	{
		"deltaTime": 60,
		"channel": 9,
		"type": "channel",
		"noteNumber": 35,
		"velocity": 127,
		"subtype": "noteOn",
		"time": 177840,
		"track": 5
	},
	{
		"deltaTime": 0,
		"channel": 9,
		"type": "channel",
		"subtype": "noteOff",
		"noteNumber": 35,
		"velocity": 0,
		"time": 177900,
		"track": 5
	},
	{
		"deltaTime": 0,
		"channel": 9,
		"type": "channel",
		"subtype": "noteOff",
		"noteNumber": 36,
		"velocity": 0,
		"time": 177900,
		"track": 5
	},
	{
		"deltaTime": 60,
		"channel": 9,
		"type": "channel",
		"subtype": "noteOff",
		"noteNumber": 42,
		"velocity": 0,
		"time": 177900,
		"track": 5
	},
	{
		"deltaTime": 0,
		"channel": 2,
		"type": "channel",
		"subtype": "noteOff",
		"noteNumber": 47,
		"velocity": 0,
		"time": 177960,
		"track": 4
	},
	{
		"deltaTime": 0,
		"channel": 2,
		"type": "channel",
		"noteNumber": 61,
		"velocity": 127,
		"subtype": "noteOn",
		"time": 177960,
		"track": 4
	},
	{
		"deltaTime": 0,
		"channel": 2,
		"type": "channel",
		"noteNumber": 66,
		"velocity": 127,
		"subtype": "noteOn",
		"time": 177960,
		"track": 4
	},
	{
		"deltaTime": 0,
		"channel": 2,
		"type": "channel",
		"noteNumber": 70,
		"velocity": 127,
		"subtype": "noteOn",
		"time": 177960,
		"track": 4
	},
	{
		"deltaTime": 60,
		"channel": 9,
		"type": "channel",
		"noteNumber": 42,
		"velocity": 127,
		"subtype": "noteOn",
		"time": 177960,
		"track": 5
	},
	{
		"deltaTime": 60,
		"channel": 9,
		"type": "channel",
		"subtype": "noteOff",
		"noteNumber": 42,
		"velocity": 0,
		"time": 178020,
		"track": 5
	},
	{
		"deltaTime": 0,
		"channel": 0,
		"type": "channel",
		"subtype": "noteOff",
		"noteNumber": 35,
		"velocity": 0,
		"time": 178080,
		"track": 2
	},
	{
		"deltaTime": 0,
		"channel": 0,
		"type": "channel",
		"noteNumber": 34,
		"velocity": 127,
		"subtype": "noteOn",
		"time": 178080,
		"track": 2
	},
	{
		"deltaTime": 0,
		"channel": 9,
		"type": "channel",
		"noteNumber": 42,
		"velocity": 127,
		"subtype": "noteOn",
		"time": 178080,
		"track": 5
	},
	{
		"deltaTime": 0,
		"channel": 9,
		"type": "channel",
		"noteNumber": 40,
		"velocity": 127,
		"subtype": "noteOn",
		"time": 178080,
		"track": 5
	},
	{
		"deltaTime": 60,
		"channel": 9,
		"type": "channel",
		"noteNumber": 38,
		"velocity": 127,
		"subtype": "noteOn",
		"time": 178080,
		"track": 5
	},
	{
		"deltaTime": 0,
		"channel": 9,
		"type": "channel",
		"subtype": "noteOff",
		"noteNumber": 38,
		"velocity": 0,
		"time": 178140,
		"track": 5
	},
	{
		"deltaTime": 0,
		"channel": 9,
		"type": "channel",
		"subtype": "noteOff",
		"noteNumber": 40,
		"velocity": 0,
		"time": 178140,
		"track": 5
	},
	{
		"deltaTime": 60,
		"channel": 9,
		"type": "channel",
		"subtype": "noteOff",
		"noteNumber": 42,
		"velocity": 0,
		"time": 178140,
		"track": 5
	},
	{
		"deltaTime": 0,
		"channel": 2,
		"type": "channel",
		"subtype": "noteOff",
		"noteNumber": 70,
		"velocity": 0,
		"time": 178200,
		"track": 4
	},
	{
		"deltaTime": 0,
		"channel": 2,
		"type": "channel",
		"subtype": "noteOff",
		"noteNumber": 66,
		"velocity": 0,
		"time": 178200,
		"track": 4
	},
	{
		"deltaTime": 0,
		"channel": 2,
		"type": "channel",
		"subtype": "noteOff",
		"noteNumber": 61,
		"velocity": 0,
		"time": 178200,
		"track": 4
	},
	{
		"deltaTime": 0,
		"channel": 2,
		"type": "channel",
		"noteNumber": 61,
		"velocity": 127,
		"subtype": "noteOn",
		"time": 178200,
		"track": 4
	},
	{
		"deltaTime": 0,
		"channel": 2,
		"type": "channel",
		"noteNumber": 66,
		"velocity": 127,
		"subtype": "noteOn",
		"time": 178200,
		"track": 4
	},
	{
		"deltaTime": 0,
		"channel": 2,
		"type": "channel",
		"noteNumber": 71,
		"velocity": 127,
		"subtype": "noteOn",
		"time": 178200,
		"track": 4
	},
	{
		"deltaTime": 60,
		"channel": 9,
		"type": "channel",
		"noteNumber": 42,
		"velocity": 127,
		"subtype": "noteOn",
		"time": 178200,
		"track": 5
	},
	{
		"deltaTime": 60,
		"channel": 9,
		"type": "channel",
		"subtype": "noteOff",
		"noteNumber": 42,
		"velocity": 0,
		"time": 178260,
		"track": 5
	},
	{
		"deltaTime": 60,
		"channel": 9,
		"type": "channel",
		"noteNumber": 42,
		"velocity": 127,
		"subtype": "noteOn",
		"time": 178320,
		"track": 5
	},
	{
		"deltaTime": 60,
		"channel": 9,
		"type": "channel",
		"subtype": "noteOff",
		"noteNumber": 42,
		"velocity": 0,
		"time": 178380,
		"track": 5
	},
	{
		"deltaTime": 60,
		"channel": 9,
		"type": "channel",
		"noteNumber": 42,
		"velocity": 127,
		"subtype": "noteOn",
		"time": 178440,
		"track": 5
	},
	{
		"deltaTime": 60,
		"channel": 9,
		"type": "channel",
		"subtype": "noteOff",
		"noteNumber": 42,
		"velocity": 0,
		"time": 178500,
		"track": 5
	},
	{
		"deltaTime": 0,
		"channel": 0,
		"type": "channel",
		"subtype": "noteOff",
		"noteNumber": 34,
		"velocity": 0,
		"time": 178560,
		"track": 2
	},
	{
		"deltaTime": 0,
		"channel": 0,
		"type": "channel",
		"noteNumber": 32,
		"velocity": 127,
		"subtype": "noteOn",
		"time": 178560,
		"track": 2
	},
	{
		"deltaTime": 0,
		"channel": 2,
		"type": "channel",
		"subtype": "noteOff",
		"noteNumber": 71,
		"velocity": 0,
		"time": 178560,
		"track": 4
	},
	{
		"deltaTime": 0,
		"channel": 2,
		"type": "channel",
		"subtype": "noteOff",
		"noteNumber": 66,
		"velocity": 0,
		"time": 178560,
		"track": 4
	},
	{
		"deltaTime": 0,
		"channel": 2,
		"type": "channel",
		"subtype": "noteOff",
		"noteNumber": 61,
		"velocity": 0,
		"time": 178560,
		"track": 4
	},
	{
		"deltaTime": 0,
		"channel": 2,
		"type": "channel",
		"noteNumber": 44,
		"velocity": 127,
		"subtype": "noteOn",
		"time": 178560,
		"track": 4
	},
	{
		"deltaTime": 0,
		"channel": 9,
		"type": "channel",
		"noteNumber": 42,
		"velocity": 127,
		"subtype": "noteOn",
		"time": 178560,
		"track": 5
	},
	{
		"deltaTime": 0,
		"channel": 9,
		"type": "channel",
		"noteNumber": 35,
		"velocity": 127,
		"subtype": "noteOn",
		"time": 178560,
		"track": 5
	},
	{
		"deltaTime": 60,
		"channel": 9,
		"type": "channel",
		"noteNumber": 36,
		"velocity": 127,
		"subtype": "noteOn",
		"time": 178560,
		"track": 5
	},
	{
		"deltaTime": 0,
		"channel": 9,
		"type": "channel",
		"subtype": "noteOff",
		"noteNumber": 36,
		"velocity": 0,
		"time": 178620,
		"track": 5
	},
	{
		"deltaTime": 0,
		"channel": 9,
		"type": "channel",
		"subtype": "noteOff",
		"noteNumber": 35,
		"velocity": 0,
		"time": 178620,
		"track": 5
	},
	{
		"deltaTime": 60,
		"channel": 9,
		"type": "channel",
		"subtype": "noteOff",
		"noteNumber": 42,
		"velocity": 0,
		"time": 178620,
		"track": 5
	},
	{
		"deltaTime": 60,
		"channel": 9,
		"type": "channel",
		"noteNumber": 42,
		"velocity": 127,
		"subtype": "noteOn",
		"time": 178680,
		"track": 5
	},
	{
		"deltaTime": 60,
		"channel": 9,
		"type": "channel",
		"subtype": "noteOff",
		"noteNumber": 42,
		"velocity": 0,
		"time": 178740,
		"track": 5
	},
	{
		"deltaTime": 0,
		"channel": 9,
		"type": "channel",
		"noteNumber": 42,
		"velocity": 127,
		"subtype": "noteOn",
		"time": 178800,
		"track": 5
	},
	{
		"deltaTime": 0,
		"channel": 9,
		"type": "channel",
		"noteNumber": 36,
		"velocity": 127,
		"subtype": "noteOn",
		"time": 178800,
		"track": 5
	},
	{
		"deltaTime": 60,
		"channel": 9,
		"type": "channel",
		"noteNumber": 35,
		"velocity": 127,
		"subtype": "noteOn",
		"time": 178800,
		"track": 5
	},
	{
		"deltaTime": 0,
		"channel": 9,
		"type": "channel",
		"subtype": "noteOff",
		"noteNumber": 35,
		"velocity": 0,
		"time": 178860,
		"track": 5
	},
	{
		"deltaTime": 0,
		"channel": 9,
		"type": "channel",
		"subtype": "noteOff",
		"noteNumber": 36,
		"velocity": 0,
		"time": 178860,
		"track": 5
	},
	{
		"deltaTime": 60,
		"channel": 9,
		"type": "channel",
		"subtype": "noteOff",
		"noteNumber": 42,
		"velocity": 0,
		"time": 178860,
		"track": 5
	},
	{
		"deltaTime": 0,
		"channel": 2,
		"type": "channel",
		"subtype": "noteOff",
		"noteNumber": 44,
		"velocity": 0,
		"time": 178920,
		"track": 4
	},
	{
		"deltaTime": 0,
		"channel": 2,
		"type": "channel",
		"noteNumber": 59,
		"velocity": 127,
		"subtype": "noteOn",
		"time": 178920,
		"track": 4
	},
	{
		"deltaTime": 0,
		"channel": 2,
		"type": "channel",
		"noteNumber": 63,
		"velocity": 127,
		"subtype": "noteOn",
		"time": 178920,
		"track": 4
	},
	{
		"deltaTime": 0,
		"channel": 2,
		"type": "channel",
		"noteNumber": 68,
		"velocity": 127,
		"subtype": "noteOn",
		"time": 178920,
		"track": 4
	},
	{
		"deltaTime": 60,
		"channel": 9,
		"type": "channel",
		"noteNumber": 42,
		"velocity": 127,
		"subtype": "noteOn",
		"time": 178920,
		"track": 5
	},
	{
		"deltaTime": 60,
		"channel": 9,
		"type": "channel",
		"subtype": "noteOff",
		"noteNumber": 42,
		"velocity": 0,
		"time": 178980,
		"track": 5
	},
	{
		"deltaTime": 0,
		"channel": 9,
		"type": "channel",
		"noteNumber": 42,
		"velocity": 127,
		"subtype": "noteOn",
		"time": 179040,
		"track": 5
	},
	{
		"deltaTime": 0,
		"channel": 9,
		"type": "channel",
		"noteNumber": 38,
		"velocity": 127,
		"subtype": "noteOn",
		"time": 179040,
		"track": 5
	},
	{
		"deltaTime": 60,
		"channel": 9,
		"type": "channel",
		"noteNumber": 40,
		"velocity": 127,
		"subtype": "noteOn",
		"time": 179040,
		"track": 5
	},
	{
		"deltaTime": 0,
		"channel": 9,
		"type": "channel",
		"subtype": "noteOff",
		"noteNumber": 40,
		"velocity": 0,
		"time": 179100,
		"track": 5
	},
	{
		"deltaTime": 0,
		"channel": 9,
		"type": "channel",
		"subtype": "noteOff",
		"noteNumber": 38,
		"velocity": 0,
		"time": 179100,
		"track": 5
	},
	{
		"deltaTime": 60,
		"channel": 9,
		"type": "channel",
		"subtype": "noteOff",
		"noteNumber": 42,
		"velocity": 0,
		"time": 179100,
		"track": 5
	},
	{
		"deltaTime": 0,
		"channel": 2,
		"type": "channel",
		"subtype": "noteOff",
		"noteNumber": 68,
		"velocity": 0,
		"time": 179160,
		"track": 4
	},
	{
		"deltaTime": 0,
		"channel": 2,
		"type": "channel",
		"subtype": "noteOff",
		"noteNumber": 63,
		"velocity": 0,
		"time": 179160,
		"track": 4
	},
	{
		"deltaTime": 0,
		"channel": 2,
		"type": "channel",
		"subtype": "noteOff",
		"noteNumber": 59,
		"velocity": 0,
		"time": 179160,
		"track": 4
	},
	{
		"deltaTime": 0,
		"channel": 2,
		"type": "channel",
		"noteNumber": 59,
		"velocity": 127,
		"subtype": "noteOn",
		"time": 179160,
		"track": 4
	},
	{
		"deltaTime": 0,
		"channel": 2,
		"type": "channel",
		"noteNumber": 63,
		"velocity": 127,
		"subtype": "noteOn",
		"time": 179160,
		"track": 4
	},
	{
		"deltaTime": 0,
		"channel": 2,
		"type": "channel",
		"noteNumber": 68,
		"velocity": 127,
		"subtype": "noteOn",
		"time": 179160,
		"track": 4
	},
	{
		"deltaTime": 60,
		"channel": 9,
		"type": "channel",
		"noteNumber": 42,
		"velocity": 127,
		"subtype": "noteOn",
		"time": 179160,
		"track": 5
	},
	{
		"deltaTime": 60,
		"channel": 9,
		"type": "channel",
		"subtype": "noteOff",
		"noteNumber": 42,
		"velocity": 0,
		"time": 179220,
		"track": 5
	},
	{
		"deltaTime": 60,
		"channel": 9,
		"type": "channel",
		"noteNumber": 42,
		"velocity": 127,
		"subtype": "noteOn",
		"time": 179280,
		"track": 5
	},
	{
		"deltaTime": 60,
		"channel": 9,
		"type": "channel",
		"subtype": "noteOff",
		"noteNumber": 42,
		"velocity": 0,
		"time": 179340,
		"track": 5
	},
	{
		"deltaTime": 0,
		"channel": 9,
		"type": "channel",
		"noteNumber": 42,
		"velocity": 127,
		"subtype": "noteOn",
		"time": 179400,
		"track": 5
	},
	{
		"deltaTime": 0,
		"channel": 9,
		"type": "channel",
		"noteNumber": 36,
		"velocity": 127,
		"subtype": "noteOn",
		"time": 179400,
		"track": 5
	},
	{
		"deltaTime": 60,
		"channel": 9,
		"type": "channel",
		"noteNumber": 35,
		"velocity": 127,
		"subtype": "noteOn",
		"time": 179400,
		"track": 5
	},
	{
		"deltaTime": 0,
		"channel": 9,
		"type": "channel",
		"subtype": "noteOff",
		"noteNumber": 35,
		"velocity": 0,
		"time": 179460,
		"track": 5
	},
	{
		"deltaTime": 0,
		"channel": 9,
		"type": "channel",
		"subtype": "noteOff",
		"noteNumber": 36,
		"velocity": 0,
		"time": 179460,
		"track": 5
	},
	{
		"deltaTime": 60,
		"channel": 9,
		"type": "channel",
		"subtype": "noteOff",
		"noteNumber": 42,
		"velocity": 0,
		"time": 179460,
		"track": 5
	},
	{
		"deltaTime": 0,
		"channel": 0,
		"type": "channel",
		"subtype": "noteOff",
		"noteNumber": 32,
		"velocity": 0,
		"time": 179520,
		"track": 2
	},
	{
		"deltaTime": 0,
		"channel": 0,
		"type": "channel",
		"noteNumber": 40,
		"velocity": 127,
		"subtype": "noteOn",
		"time": 179520,
		"track": 2
	},
	{
		"deltaTime": 0,
		"channel": 2,
		"type": "channel",
		"subtype": "noteOff",
		"noteNumber": 68,
		"velocity": 0,
		"time": 179520,
		"track": 4
	},
	{
		"deltaTime": 0,
		"channel": 2,
		"type": "channel",
		"subtype": "noteOff",
		"noteNumber": 63,
		"velocity": 0,
		"time": 179520,
		"track": 4
	},
	{
		"deltaTime": 0,
		"channel": 2,
		"type": "channel",
		"subtype": "noteOff",
		"noteNumber": 59,
		"velocity": 0,
		"time": 179520,
		"track": 4
	},
	{
		"deltaTime": 0,
		"channel": 2,
		"type": "channel",
		"noteNumber": 40,
		"velocity": 127,
		"subtype": "noteOn",
		"time": 179520,
		"track": 4
	},
	{
		"deltaTime": 60,
		"channel": 9,
		"type": "channel",
		"noteNumber": 42,
		"velocity": 127,
		"subtype": "noteOn",
		"time": 179520,
		"track": 5
	},
	{
		"deltaTime": 60,
		"channel": 9,
		"type": "channel",
		"subtype": "noteOff",
		"noteNumber": 42,
		"velocity": 0,
		"time": 179580,
		"track": 5
	},
	{
		"deltaTime": 60,
		"channel": 9,
		"type": "channel",
		"noteNumber": 42,
		"velocity": 127,
		"subtype": "noteOn",
		"time": 179640,
		"track": 5
	},
	{
		"deltaTime": 60,
		"channel": 9,
		"type": "channel",
		"subtype": "noteOff",
		"noteNumber": 42,
		"velocity": 0,
		"time": 179700,
		"track": 5
	},
	{
		"deltaTime": 0,
		"channel": 9,
		"type": "channel",
		"noteNumber": 42,
		"velocity": 127,
		"subtype": "noteOn",
		"time": 179760,
		"track": 5
	},
	{
		"deltaTime": 0,
		"channel": 9,
		"type": "channel",
		"noteNumber": 36,
		"velocity": 127,
		"subtype": "noteOn",
		"time": 179760,
		"track": 5
	},
	{
		"deltaTime": 60,
		"channel": 9,
		"type": "channel",
		"noteNumber": 35,
		"velocity": 127,
		"subtype": "noteOn",
		"time": 179760,
		"track": 5
	},
	{
		"deltaTime": 0,
		"channel": 9,
		"type": "channel",
		"subtype": "noteOff",
		"noteNumber": 35,
		"velocity": 0,
		"time": 179820,
		"track": 5
	},
	{
		"deltaTime": 0,
		"channel": 9,
		"type": "channel",
		"subtype": "noteOff",
		"noteNumber": 36,
		"velocity": 0,
		"time": 179820,
		"track": 5
	},
	{
		"deltaTime": 60,
		"channel": 9,
		"type": "channel",
		"subtype": "noteOff",
		"noteNumber": 42,
		"velocity": 0,
		"time": 179820,
		"track": 5
	},
	{
		"deltaTime": 0,
		"channel": 2,
		"type": "channel",
		"subtype": "noteOff",
		"noteNumber": 40,
		"velocity": 0,
		"time": 179880,
		"track": 4
	},
	{
		"deltaTime": 0,
		"channel": 2,
		"type": "channel",
		"noteNumber": 59,
		"velocity": 127,
		"subtype": "noteOn",
		"time": 179880,
		"track": 4
	},
	{
		"deltaTime": 0,
		"channel": 2,
		"type": "channel",
		"noteNumber": 63,
		"velocity": 127,
		"subtype": "noteOn",
		"time": 179880,
		"track": 4
	},
	{
		"deltaTime": 0,
		"channel": 2,
		"type": "channel",
		"noteNumber": 68,
		"velocity": 127,
		"subtype": "noteOn",
		"time": 179880,
		"track": 4
	},
	{
		"deltaTime": 60,
		"channel": 9,
		"type": "channel",
		"noteNumber": 42,
		"velocity": 127,
		"subtype": "noteOn",
		"time": 179880,
		"track": 5
	},
	{
		"deltaTime": 60,
		"channel": 9,
		"type": "channel",
		"subtype": "noteOff",
		"noteNumber": 42,
		"velocity": 0,
		"time": 179940,
		"track": 5
	},
	{
		"deltaTime": 0,
		"channel": 9,
		"type": "channel",
		"noteNumber": 42,
		"velocity": 127,
		"subtype": "noteOn",
		"time": 180000,
		"track": 5
	},
	{
		"deltaTime": 0,
		"channel": 9,
		"type": "channel",
		"noteNumber": 40,
		"velocity": 127,
		"subtype": "noteOn",
		"time": 180000,
		"track": 5
	},
	{
		"deltaTime": 60,
		"channel": 9,
		"type": "channel",
		"noteNumber": 38,
		"velocity": 127,
		"subtype": "noteOn",
		"time": 180000,
		"track": 5
	},
	{
		"deltaTime": 0,
		"channel": 9,
		"type": "channel",
		"subtype": "noteOff",
		"noteNumber": 38,
		"velocity": 0,
		"time": 180060,
		"track": 5
	},
	{
		"deltaTime": 0,
		"channel": 9,
		"type": "channel",
		"subtype": "noteOff",
		"noteNumber": 40,
		"velocity": 0,
		"time": 180060,
		"track": 5
	},
	{
		"deltaTime": 60,
		"channel": 9,
		"type": "channel",
		"subtype": "noteOff",
		"noteNumber": 42,
		"velocity": 0,
		"time": 180060,
		"track": 5
	},
	{
		"deltaTime": 0,
		"channel": 2,
		"type": "channel",
		"subtype": "noteOff",
		"noteNumber": 68,
		"velocity": 0,
		"time": 180120,
		"track": 4
	},
	{
		"deltaTime": 0,
		"channel": 2,
		"type": "channel",
		"subtype": "noteOff",
		"noteNumber": 63,
		"velocity": 0,
		"time": 180120,
		"track": 4
	},
	{
		"deltaTime": 0,
		"channel": 2,
		"type": "channel",
		"subtype": "noteOff",
		"noteNumber": 59,
		"velocity": 0,
		"time": 180120,
		"track": 4
	},
	{
		"deltaTime": 0,
		"channel": 2,
		"type": "channel",
		"noteNumber": 59,
		"velocity": 127,
		"subtype": "noteOn",
		"time": 180120,
		"track": 4
	},
	{
		"deltaTime": 0,
		"channel": 2,
		"type": "channel",
		"noteNumber": 63,
		"velocity": 127,
		"subtype": "noteOn",
		"time": 180120,
		"track": 4
	},
	{
		"deltaTime": 0,
		"channel": 2,
		"type": "channel",
		"noteNumber": 68,
		"velocity": 127,
		"subtype": "noteOn",
		"time": 180120,
		"track": 4
	},
	{
		"deltaTime": 60,
		"channel": 9,
		"type": "channel",
		"noteNumber": 42,
		"velocity": 127,
		"subtype": "noteOn",
		"time": 180120,
		"track": 5
	},
	{
		"deltaTime": 60,
		"channel": 9,
		"type": "channel",
		"subtype": "noteOff",
		"noteNumber": 42,
		"velocity": 0,
		"time": 180180,
		"track": 5
	},
	{
		"deltaTime": 60,
		"channel": 9,
		"type": "channel",
		"noteNumber": 42,
		"velocity": 127,
		"subtype": "noteOn",
		"time": 180240,
		"track": 5
	},
	{
		"deltaTime": 60,
		"channel": 9,
		"type": "channel",
		"subtype": "noteOff",
		"noteNumber": 42,
		"velocity": 0,
		"time": 180300,
		"track": 5
	},
	{
		"deltaTime": 60,
		"channel": 9,
		"type": "channel",
		"noteNumber": 42,
		"velocity": 127,
		"subtype": "noteOn",
		"time": 180360,
		"track": 5
	},
	{
		"deltaTime": 60,
		"channel": 9,
		"type": "channel",
		"subtype": "noteOff",
		"noteNumber": 42,
		"velocity": 0,
		"time": 180420,
		"track": 5
	},
	{
		"deltaTime": 0,
		"channel": 0,
		"type": "channel",
		"subtype": "noteOff",
		"noteNumber": 40,
		"velocity": 0,
		"time": 180480,
		"track": 2
	},
	{
		"deltaTime": 0,
		"channel": 0,
		"type": "channel",
		"noteNumber": 42,
		"velocity": 127,
		"subtype": "noteOn",
		"time": 180480,
		"track": 2
	},
	{
		"deltaTime": 0,
		"channel": 2,
		"type": "channel",
		"subtype": "noteOff",
		"noteNumber": 68,
		"velocity": 0,
		"time": 180480,
		"track": 4
	},
	{
		"deltaTime": 0,
		"channel": 2,
		"type": "channel",
		"subtype": "noteOff",
		"noteNumber": 63,
		"velocity": 0,
		"time": 180480,
		"track": 4
	},
	{
		"deltaTime": 0,
		"channel": 2,
		"type": "channel",
		"subtype": "noteOff",
		"noteNumber": 59,
		"velocity": 0,
		"time": 180480,
		"track": 4
	},
	{
		"deltaTime": 0,
		"channel": 2,
		"type": "channel",
		"noteNumber": 42,
		"velocity": 127,
		"subtype": "noteOn",
		"time": 180480,
		"track": 4
	},
	{
		"deltaTime": 0,
		"channel": 9,
		"type": "channel",
		"noteNumber": 42,
		"velocity": 127,
		"subtype": "noteOn",
		"time": 180480,
		"track": 5
	},
	{
		"deltaTime": 0,
		"channel": 9,
		"type": "channel",
		"noteNumber": 35,
		"velocity": 127,
		"subtype": "noteOn",
		"time": 180480,
		"track": 5
	},
	{
		"deltaTime": 60,
		"channel": 9,
		"type": "channel",
		"noteNumber": 36,
		"velocity": 127,
		"subtype": "noteOn",
		"time": 180480,
		"track": 5
	},
	{
		"deltaTime": 0,
		"channel": 9,
		"type": "channel",
		"subtype": "noteOff",
		"noteNumber": 36,
		"velocity": 0,
		"time": 180540,
		"track": 5
	},
	{
		"deltaTime": 0,
		"channel": 9,
		"type": "channel",
		"subtype": "noteOff",
		"noteNumber": 35,
		"velocity": 0,
		"time": 180540,
		"track": 5
	},
	{
		"deltaTime": 60,
		"channel": 9,
		"type": "channel",
		"subtype": "noteOff",
		"noteNumber": 42,
		"velocity": 0,
		"time": 180540,
		"track": 5
	},
	{
		"deltaTime": 60,
		"channel": 9,
		"type": "channel",
		"noteNumber": 42,
		"velocity": 127,
		"subtype": "noteOn",
		"time": 180600,
		"track": 5
	},
	{
		"deltaTime": 60,
		"channel": 9,
		"type": "channel",
		"subtype": "noteOff",
		"noteNumber": 42,
		"velocity": 0,
		"time": 180660,
		"track": 5
	},
	{
		"deltaTime": 0,
		"channel": 9,
		"type": "channel",
		"noteNumber": 42,
		"velocity": 127,
		"subtype": "noteOn",
		"time": 180720,
		"track": 5
	},
	{
		"deltaTime": 0,
		"channel": 9,
		"type": "channel",
		"noteNumber": 36,
		"velocity": 127,
		"subtype": "noteOn",
		"time": 180720,
		"track": 5
	},
	{
		"deltaTime": 60,
		"channel": 9,
		"type": "channel",
		"noteNumber": 35,
		"velocity": 127,
		"subtype": "noteOn",
		"time": 180720,
		"track": 5
	},
	{
		"deltaTime": 0,
		"channel": 9,
		"type": "channel",
		"subtype": "noteOff",
		"noteNumber": 35,
		"velocity": 0,
		"time": 180780,
		"track": 5
	},
	{
		"deltaTime": 0,
		"channel": 9,
		"type": "channel",
		"subtype": "noteOff",
		"noteNumber": 36,
		"velocity": 0,
		"time": 180780,
		"track": 5
	},
	{
		"deltaTime": 60,
		"channel": 9,
		"type": "channel",
		"subtype": "noteOff",
		"noteNumber": 42,
		"velocity": 0,
		"time": 180780,
		"track": 5
	},
	{
		"deltaTime": 0,
		"channel": 2,
		"type": "channel",
		"subtype": "noteOff",
		"noteNumber": 42,
		"velocity": 0,
		"time": 180840,
		"track": 4
	},
	{
		"deltaTime": 0,
		"channel": 2,
		"type": "channel",
		"noteNumber": 61,
		"velocity": 127,
		"subtype": "noteOn",
		"time": 180840,
		"track": 4
	},
	{
		"deltaTime": 0,
		"channel": 2,
		"type": "channel",
		"noteNumber": 66,
		"velocity": 127,
		"subtype": "noteOn",
		"time": 180840,
		"track": 4
	},
	{
		"deltaTime": 0,
		"channel": 2,
		"type": "channel",
		"noteNumber": 70,
		"velocity": 127,
		"subtype": "noteOn",
		"time": 180840,
		"track": 4
	},
	{
		"deltaTime": 60,
		"channel": 9,
		"type": "channel",
		"noteNumber": 42,
		"velocity": 127,
		"subtype": "noteOn",
		"time": 180840,
		"track": 5
	},
	{
		"deltaTime": 60,
		"channel": 9,
		"type": "channel",
		"subtype": "noteOff",
		"noteNumber": 42,
		"velocity": 0,
		"time": 180900,
		"track": 5
	},
	{
		"deltaTime": 0,
		"channel": 9,
		"type": "channel",
		"noteNumber": 42,
		"velocity": 127,
		"subtype": "noteOn",
		"time": 180960,
		"track": 5
	},
	{
		"deltaTime": 0,
		"channel": 9,
		"type": "channel",
		"noteNumber": 38,
		"velocity": 127,
		"subtype": "noteOn",
		"time": 180960,
		"track": 5
	},
	{
		"deltaTime": 60,
		"channel": 9,
		"type": "channel",
		"noteNumber": 40,
		"velocity": 127,
		"subtype": "noteOn",
		"time": 180960,
		"track": 5
	},
	{
		"deltaTime": 0,
		"channel": 9,
		"type": "channel",
		"subtype": "noteOff",
		"noteNumber": 40,
		"velocity": 0,
		"time": 181020,
		"track": 5
	},
	{
		"deltaTime": 0,
		"channel": 9,
		"type": "channel",
		"subtype": "noteOff",
		"noteNumber": 38,
		"velocity": 0,
		"time": 181020,
		"track": 5
	},
	{
		"deltaTime": 60,
		"channel": 9,
		"type": "channel",
		"subtype": "noteOff",
		"noteNumber": 42,
		"velocity": 0,
		"time": 181020,
		"track": 5
	},
	{
		"deltaTime": 0,
		"channel": 2,
		"type": "channel",
		"subtype": "noteOff",
		"noteNumber": 70,
		"velocity": 0,
		"time": 181080,
		"track": 4
	},
	{
		"deltaTime": 0,
		"channel": 2,
		"type": "channel",
		"subtype": "noteOff",
		"noteNumber": 66,
		"velocity": 0,
		"time": 181080,
		"track": 4
	},
	{
		"deltaTime": 0,
		"channel": 2,
		"type": "channel",
		"subtype": "noteOff",
		"noteNumber": 61,
		"velocity": 0,
		"time": 181080,
		"track": 4
	},
	{
		"deltaTime": 0,
		"channel": 2,
		"type": "channel",
		"noteNumber": 61,
		"velocity": 127,
		"subtype": "noteOn",
		"time": 181080,
		"track": 4
	},
	{
		"deltaTime": 0,
		"channel": 2,
		"type": "channel",
		"noteNumber": 66,
		"velocity": 127,
		"subtype": "noteOn",
		"time": 181080,
		"track": 4
	},
	{
		"deltaTime": 0,
		"channel": 2,
		"type": "channel",
		"noteNumber": 70,
		"velocity": 127,
		"subtype": "noteOn",
		"time": 181080,
		"track": 4
	},
	{
		"deltaTime": 60,
		"channel": 9,
		"type": "channel",
		"noteNumber": 42,
		"velocity": 127,
		"subtype": "noteOn",
		"time": 181080,
		"track": 5
	},
	{
		"deltaTime": 60,
		"channel": 9,
		"type": "channel",
		"subtype": "noteOff",
		"noteNumber": 42,
		"velocity": 0,
		"time": 181140,
		"track": 5
	},
	{
		"deltaTime": 60,
		"channel": 9,
		"type": "channel",
		"noteNumber": 42,
		"velocity": 127,
		"subtype": "noteOn",
		"time": 181200,
		"track": 5
	},
	{
		"deltaTime": 60,
		"channel": 9,
		"type": "channel",
		"subtype": "noteOff",
		"noteNumber": 42,
		"velocity": 0,
		"time": 181260,
		"track": 5
	},
	{
		"deltaTime": 0,
		"channel": 9,
		"type": "channel",
		"noteNumber": 42,
		"velocity": 127,
		"subtype": "noteOn",
		"time": 181320,
		"track": 5
	},
	{
		"deltaTime": 0,
		"channel": 9,
		"type": "channel",
		"noteNumber": 36,
		"velocity": 127,
		"subtype": "noteOn",
		"time": 181320,
		"track": 5
	},
	{
		"deltaTime": 60,
		"channel": 9,
		"type": "channel",
		"noteNumber": 35,
		"velocity": 127,
		"subtype": "noteOn",
		"time": 181320,
		"track": 5
	},
	{
		"deltaTime": 0,
		"channel": 9,
		"type": "channel",
		"subtype": "noteOff",
		"noteNumber": 35,
		"velocity": 0,
		"time": 181380,
		"track": 5
	},
	{
		"deltaTime": 0,
		"channel": 9,
		"type": "channel",
		"subtype": "noteOff",
		"noteNumber": 36,
		"velocity": 0,
		"time": 181380,
		"track": 5
	},
	{
		"deltaTime": 60,
		"channel": 9,
		"type": "channel",
		"subtype": "noteOff",
		"noteNumber": 42,
		"velocity": 0,
		"time": 181380,
		"track": 5
	},
	{
		"deltaTime": 0,
		"channel": 0,
		"type": "channel",
		"subtype": "noteOff",
		"noteNumber": 42,
		"velocity": 0,
		"time": 181440,
		"track": 2
	},
	{
		"deltaTime": 0,
		"channel": 0,
		"type": "channel",
		"noteNumber": 35,
		"velocity": 127,
		"subtype": "noteOn",
		"time": 181440,
		"track": 2
	},
	{
		"deltaTime": 0,
		"channel": 2,
		"type": "channel",
		"subtype": "noteOff",
		"noteNumber": 70,
		"velocity": 0,
		"time": 181440,
		"track": 4
	},
	{
		"deltaTime": 0,
		"channel": 2,
		"type": "channel",
		"subtype": "noteOff",
		"noteNumber": 66,
		"velocity": 0,
		"time": 181440,
		"track": 4
	},
	{
		"deltaTime": 0,
		"channel": 2,
		"type": "channel",
		"subtype": "noteOff",
		"noteNumber": 61,
		"velocity": 0,
		"time": 181440,
		"track": 4
	},
	{
		"deltaTime": 0,
		"channel": 2,
		"type": "channel",
		"noteNumber": 47,
		"velocity": 127,
		"subtype": "noteOn",
		"time": 181440,
		"track": 4
	},
	{
		"deltaTime": 60,
		"channel": 9,
		"type": "channel",
		"noteNumber": 42,
		"velocity": 127,
		"subtype": "noteOn",
		"time": 181440,
		"track": 5
	},
	{
		"deltaTime": 60,
		"channel": 9,
		"type": "channel",
		"subtype": "noteOff",
		"noteNumber": 42,
		"velocity": 0,
		"time": 181500,
		"track": 5
	},
	{
		"deltaTime": 60,
		"channel": 9,
		"type": "channel",
		"noteNumber": 42,
		"velocity": 127,
		"subtype": "noteOn",
		"time": 181560,
		"track": 5
	},
	{
		"deltaTime": 60,
		"channel": 9,
		"type": "channel",
		"subtype": "noteOff",
		"noteNumber": 42,
		"velocity": 0,
		"time": 181620,
		"track": 5
	},
	{
		"deltaTime": 0,
		"channel": 9,
		"type": "channel",
		"noteNumber": 42,
		"velocity": 127,
		"subtype": "noteOn",
		"time": 181680,
		"track": 5
	},
	{
		"deltaTime": 0,
		"channel": 9,
		"type": "channel",
		"noteNumber": 36,
		"velocity": 127,
		"subtype": "noteOn",
		"time": 181680,
		"track": 5
	},
	{
		"deltaTime": 60,
		"channel": 9,
		"type": "channel",
		"noteNumber": 35,
		"velocity": 127,
		"subtype": "noteOn",
		"time": 181680,
		"track": 5
	},
	{
		"deltaTime": 0,
		"channel": 9,
		"type": "channel",
		"subtype": "noteOff",
		"noteNumber": 35,
		"velocity": 0,
		"time": 181740,
		"track": 5
	},
	{
		"deltaTime": 0,
		"channel": 9,
		"type": "channel",
		"subtype": "noteOff",
		"noteNumber": 36,
		"velocity": 0,
		"time": 181740,
		"track": 5
	},
	{
		"deltaTime": 60,
		"channel": 9,
		"type": "channel",
		"subtype": "noteOff",
		"noteNumber": 42,
		"velocity": 0,
		"time": 181740,
		"track": 5
	},
	{
		"deltaTime": 0,
		"channel": 2,
		"type": "channel",
		"subtype": "noteOff",
		"noteNumber": 47,
		"velocity": 0,
		"time": 181800,
		"track": 4
	},
	{
		"deltaTime": 0,
		"channel": 2,
		"type": "channel",
		"noteNumber": 61,
		"velocity": 127,
		"subtype": "noteOn",
		"time": 181800,
		"track": 4
	},
	{
		"deltaTime": 0,
		"channel": 2,
		"type": "channel",
		"noteNumber": 66,
		"velocity": 127,
		"subtype": "noteOn",
		"time": 181800,
		"track": 4
	},
	{
		"deltaTime": 0,
		"channel": 2,
		"type": "channel",
		"noteNumber": 70,
		"velocity": 127,
		"subtype": "noteOn",
		"time": 181800,
		"track": 4
	},
	{
		"deltaTime": 60,
		"channel": 9,
		"type": "channel",
		"noteNumber": 42,
		"velocity": 127,
		"subtype": "noteOn",
		"time": 181800,
		"track": 5
	},
	{
		"deltaTime": 60,
		"channel": 9,
		"type": "channel",
		"subtype": "noteOff",
		"noteNumber": 42,
		"velocity": 0,
		"time": 181860,
		"track": 5
	},
	{
		"deltaTime": 0,
		"channel": 0,
		"type": "channel",
		"subtype": "noteOff",
		"noteNumber": 35,
		"velocity": 0,
		"time": 181920,
		"track": 2
	},
	{
		"deltaTime": 0,
		"channel": 0,
		"type": "channel",
		"noteNumber": 34,
		"velocity": 127,
		"subtype": "noteOn",
		"time": 181920,
		"track": 2
	},
	{
		"deltaTime": 0,
		"channel": 9,
		"type": "channel",
		"noteNumber": 42,
		"velocity": 127,
		"subtype": "noteOn",
		"time": 181920,
		"track": 5
	},
	{
		"deltaTime": 0,
		"channel": 9,
		"type": "channel",
		"noteNumber": 40,
		"velocity": 127,
		"subtype": "noteOn",
		"time": 181920,
		"track": 5
	},
	{
		"deltaTime": 60,
		"channel": 9,
		"type": "channel",
		"noteNumber": 38,
		"velocity": 127,
		"subtype": "noteOn",
		"time": 181920,
		"track": 5
	},
	{
		"deltaTime": 0,
		"channel": 9,
		"type": "channel",
		"subtype": "noteOff",
		"noteNumber": 38,
		"velocity": 0,
		"time": 181980,
		"track": 5
	},
	{
		"deltaTime": 0,
		"channel": 9,
		"type": "channel",
		"subtype": "noteOff",
		"noteNumber": 40,
		"velocity": 0,
		"time": 181980,
		"track": 5
	},
	{
		"deltaTime": 60,
		"channel": 9,
		"type": "channel",
		"subtype": "noteOff",
		"noteNumber": 42,
		"velocity": 0,
		"time": 181980,
		"track": 5
	},
	{
		"deltaTime": 0,
		"channel": 2,
		"type": "channel",
		"subtype": "noteOff",
		"noteNumber": 70,
		"velocity": 0,
		"time": 182040,
		"track": 4
	},
	{
		"deltaTime": 0,
		"channel": 2,
		"type": "channel",
		"subtype": "noteOff",
		"noteNumber": 66,
		"velocity": 0,
		"time": 182040,
		"track": 4
	},
	{
		"deltaTime": 0,
		"channel": 2,
		"type": "channel",
		"subtype": "noteOff",
		"noteNumber": 61,
		"velocity": 0,
		"time": 182040,
		"track": 4
	},
	{
		"deltaTime": 0,
		"channel": 2,
		"type": "channel",
		"noteNumber": 61,
		"velocity": 127,
		"subtype": "noteOn",
		"time": 182040,
		"track": 4
	},
	{
		"deltaTime": 0,
		"channel": 2,
		"type": "channel",
		"noteNumber": 66,
		"velocity": 127,
		"subtype": "noteOn",
		"time": 182040,
		"track": 4
	},
	{
		"deltaTime": 0,
		"channel": 2,
		"type": "channel",
		"noteNumber": 71,
		"velocity": 127,
		"subtype": "noteOn",
		"time": 182040,
		"track": 4
	},
	{
		"deltaTime": 60,
		"channel": 9,
		"type": "channel",
		"noteNumber": 42,
		"velocity": 127,
		"subtype": "noteOn",
		"time": 182040,
		"track": 5
	},
	{
		"deltaTime": 60,
		"channel": 9,
		"type": "channel",
		"subtype": "noteOff",
		"noteNumber": 42,
		"velocity": 0,
		"time": 182100,
		"track": 5
	},
	{
		"deltaTime": 60,
		"channel": 9,
		"type": "channel",
		"noteNumber": 42,
		"velocity": 127,
		"subtype": "noteOn",
		"time": 182160,
		"track": 5
	},
	{
		"deltaTime": 60,
		"channel": 9,
		"type": "channel",
		"subtype": "noteOff",
		"noteNumber": 42,
		"velocity": 0,
		"time": 182220,
		"track": 5
	},
	{
		"deltaTime": 60,
		"channel": 9,
		"type": "channel",
		"noteNumber": 42,
		"velocity": 127,
		"subtype": "noteOn",
		"time": 182280,
		"track": 5
	},
	{
		"deltaTime": 60,
		"channel": 9,
		"type": "channel",
		"subtype": "noteOff",
		"noteNumber": 42,
		"velocity": 0,
		"time": 182340,
		"track": 5
	},
	{
		"deltaTime": 0,
		"channel": 0,
		"type": "channel",
		"subtype": "noteOff",
		"noteNumber": 34,
		"velocity": 0,
		"time": 182400,
		"track": 2
	},
	{
		"deltaTime": 0,
		"channel": 0,
		"type": "channel",
		"noteNumber": 32,
		"velocity": 127,
		"subtype": "noteOn",
		"time": 182400,
		"track": 2
	},
	{
		"deltaTime": 0,
		"channel": 2,
		"type": "channel",
		"subtype": "noteOff",
		"noteNumber": 71,
		"velocity": 0,
		"time": 182400,
		"track": 4
	},
	{
		"deltaTime": 0,
		"channel": 2,
		"type": "channel",
		"subtype": "noteOff",
		"noteNumber": 66,
		"velocity": 0,
		"time": 182400,
		"track": 4
	},
	{
		"deltaTime": 0,
		"channel": 2,
		"type": "channel",
		"subtype": "noteOff",
		"noteNumber": 61,
		"velocity": 0,
		"time": 182400,
		"track": 4
	},
	{
		"deltaTime": 0,
		"channel": 2,
		"type": "channel",
		"noteNumber": 44,
		"velocity": 127,
		"subtype": "noteOn",
		"time": 182400,
		"track": 4
	},
	{
		"deltaTime": 0,
		"channel": 9,
		"type": "channel",
		"noteNumber": 42,
		"velocity": 127,
		"subtype": "noteOn",
		"time": 182400,
		"track": 5
	},
	{
		"deltaTime": 0,
		"channel": 9,
		"type": "channel",
		"noteNumber": 35,
		"velocity": 127,
		"subtype": "noteOn",
		"time": 182400,
		"track": 5
	},
	{
		"deltaTime": 60,
		"channel": 9,
		"type": "channel",
		"noteNumber": 36,
		"velocity": 127,
		"subtype": "noteOn",
		"time": 182400,
		"track": 5
	},
	{
		"deltaTime": 0,
		"channel": 9,
		"type": "channel",
		"subtype": "noteOff",
		"noteNumber": 36,
		"velocity": 0,
		"time": 182460,
		"track": 5
	},
	{
		"deltaTime": 0,
		"channel": 9,
		"type": "channel",
		"subtype": "noteOff",
		"noteNumber": 35,
		"velocity": 0,
		"time": 182460,
		"track": 5
	},
	{
		"deltaTime": 60,
		"channel": 9,
		"type": "channel",
		"subtype": "noteOff",
		"noteNumber": 42,
		"velocity": 0,
		"time": 182460,
		"track": 5
	},
	{
		"deltaTime": 60,
		"channel": 9,
		"type": "channel",
		"noteNumber": 42,
		"velocity": 127,
		"subtype": "noteOn",
		"time": 182520,
		"track": 5
	},
	{
		"deltaTime": 60,
		"channel": 9,
		"type": "channel",
		"subtype": "noteOff",
		"noteNumber": 42,
		"velocity": 0,
		"time": 182580,
		"track": 5
	},
	{
		"deltaTime": 0,
		"channel": 9,
		"type": "channel",
		"noteNumber": 42,
		"velocity": 127,
		"subtype": "noteOn",
		"time": 182640,
		"track": 5
	},
	{
		"deltaTime": 0,
		"channel": 9,
		"type": "channel",
		"noteNumber": 36,
		"velocity": 127,
		"subtype": "noteOn",
		"time": 182640,
		"track": 5
	},
	{
		"deltaTime": 60,
		"channel": 9,
		"type": "channel",
		"noteNumber": 35,
		"velocity": 127,
		"subtype": "noteOn",
		"time": 182640,
		"track": 5
	},
	{
		"deltaTime": 0,
		"channel": 9,
		"type": "channel",
		"subtype": "noteOff",
		"noteNumber": 35,
		"velocity": 0,
		"time": 182700,
		"track": 5
	},
	{
		"deltaTime": 0,
		"channel": 9,
		"type": "channel",
		"subtype": "noteOff",
		"noteNumber": 36,
		"velocity": 0,
		"time": 182700,
		"track": 5
	},
	{
		"deltaTime": 60,
		"channel": 9,
		"type": "channel",
		"subtype": "noteOff",
		"noteNumber": 42,
		"velocity": 0,
		"time": 182700,
		"track": 5
	},
	{
		"deltaTime": 0,
		"channel": 2,
		"type": "channel",
		"subtype": "noteOff",
		"noteNumber": 44,
		"velocity": 0,
		"time": 182760,
		"track": 4
	},
	{
		"deltaTime": 0,
		"channel": 2,
		"type": "channel",
		"noteNumber": 59,
		"velocity": 127,
		"subtype": "noteOn",
		"time": 182760,
		"track": 4
	},
	{
		"deltaTime": 0,
		"channel": 2,
		"type": "channel",
		"noteNumber": 63,
		"velocity": 127,
		"subtype": "noteOn",
		"time": 182760,
		"track": 4
	},
	{
		"deltaTime": 0,
		"channel": 2,
		"type": "channel",
		"noteNumber": 68,
		"velocity": 127,
		"subtype": "noteOn",
		"time": 182760,
		"track": 4
	},
	{
		"deltaTime": 60,
		"channel": 9,
		"type": "channel",
		"noteNumber": 42,
		"velocity": 127,
		"subtype": "noteOn",
		"time": 182760,
		"track": 5
	},
	{
		"deltaTime": 60,
		"channel": 9,
		"type": "channel",
		"subtype": "noteOff",
		"noteNumber": 42,
		"velocity": 0,
		"time": 182820,
		"track": 5
	},
	{
		"deltaTime": 0,
		"channel": 9,
		"type": "channel",
		"noteNumber": 42,
		"velocity": 127,
		"subtype": "noteOn",
		"time": 182880,
		"track": 5
	},
	{
		"deltaTime": 0,
		"channel": 9,
		"type": "channel",
		"noteNumber": 38,
		"velocity": 127,
		"subtype": "noteOn",
		"time": 182880,
		"track": 5
	},
	{
		"deltaTime": 60,
		"channel": 9,
		"type": "channel",
		"noteNumber": 40,
		"velocity": 127,
		"subtype": "noteOn",
		"time": 182880,
		"track": 5
	},
	{
		"deltaTime": 0,
		"channel": 9,
		"type": "channel",
		"subtype": "noteOff",
		"noteNumber": 40,
		"velocity": 0,
		"time": 182940,
		"track": 5
	},
	{
		"deltaTime": 0,
		"channel": 9,
		"type": "channel",
		"subtype": "noteOff",
		"noteNumber": 38,
		"velocity": 0,
		"time": 182940,
		"track": 5
	},
	{
		"deltaTime": 60,
		"channel": 9,
		"type": "channel",
		"subtype": "noteOff",
		"noteNumber": 42,
		"velocity": 0,
		"time": 182940,
		"track": 5
	},
	{
		"deltaTime": 0,
		"channel": 2,
		"type": "channel",
		"subtype": "noteOff",
		"noteNumber": 68,
		"velocity": 0,
		"time": 183000,
		"track": 4
	},
	{
		"deltaTime": 0,
		"channel": 2,
		"type": "channel",
		"subtype": "noteOff",
		"noteNumber": 63,
		"velocity": 0,
		"time": 183000,
		"track": 4
	},
	{
		"deltaTime": 0,
		"channel": 2,
		"type": "channel",
		"subtype": "noteOff",
		"noteNumber": 59,
		"velocity": 0,
		"time": 183000,
		"track": 4
	},
	{
		"deltaTime": 0,
		"channel": 2,
		"type": "channel",
		"noteNumber": 59,
		"velocity": 127,
		"subtype": "noteOn",
		"time": 183000,
		"track": 4
	},
	{
		"deltaTime": 0,
		"channel": 2,
		"type": "channel",
		"noteNumber": 63,
		"velocity": 127,
		"subtype": "noteOn",
		"time": 183000,
		"track": 4
	},
	{
		"deltaTime": 0,
		"channel": 2,
		"type": "channel",
		"noteNumber": 68,
		"velocity": 127,
		"subtype": "noteOn",
		"time": 183000,
		"track": 4
	},
	{
		"deltaTime": 60,
		"channel": 9,
		"type": "channel",
		"noteNumber": 42,
		"velocity": 127,
		"subtype": "noteOn",
		"time": 183000,
		"track": 5
	},
	{
		"deltaTime": 60,
		"channel": 9,
		"type": "channel",
		"subtype": "noteOff",
		"noteNumber": 42,
		"velocity": 0,
		"time": 183060,
		"track": 5
	},
	{
		"deltaTime": 0,
		"channel": 0,
		"type": "channel",
		"subtype": "noteOff",
		"noteNumber": 32,
		"velocity": 0,
		"time": 183120,
		"track": 2
	},
	{
		"deltaTime": 0,
		"channel": 0,
		"type": "channel",
		"noteNumber": 32,
		"velocity": 127,
		"subtype": "noteOn",
		"time": 183120,
		"track": 2
	},
	{
		"deltaTime": 60,
		"channel": 9,
		"type": "channel",
		"noteNumber": 42,
		"velocity": 127,
		"subtype": "noteOn",
		"time": 183120,
		"track": 5
	},
	{
		"deltaTime": 60,
		"channel": 9,
		"type": "channel",
		"subtype": "noteOff",
		"noteNumber": 42,
		"velocity": 0,
		"time": 183180,
		"track": 5
	},
	{
		"deltaTime": 0,
		"channel": 9,
		"type": "channel",
		"noteNumber": 42,
		"velocity": 127,
		"subtype": "noteOn",
		"time": 183240,
		"track": 5
	},
	{
		"deltaTime": 0,
		"channel": 9,
		"type": "channel",
		"noteNumber": 36,
		"velocity": 127,
		"subtype": "noteOn",
		"time": 183240,
		"track": 5
	},
	{
		"deltaTime": 60,
		"channel": 9,
		"type": "channel",
		"noteNumber": 35,
		"velocity": 127,
		"subtype": "noteOn",
		"time": 183240,
		"track": 5
	},
	{
		"deltaTime": 0,
		"channel": 9,
		"type": "channel",
		"subtype": "noteOff",
		"noteNumber": 35,
		"velocity": 0,
		"time": 183300,
		"track": 5
	},
	{
		"deltaTime": 0,
		"channel": 9,
		"type": "channel",
		"subtype": "noteOff",
		"noteNumber": 36,
		"velocity": 0,
		"time": 183300,
		"track": 5
	},
	{
		"deltaTime": 60,
		"channel": 9,
		"type": "channel",
		"subtype": "noteOff",
		"noteNumber": 42,
		"velocity": 0,
		"time": 183300,
		"track": 5
	},
	{
		"deltaTime": 0,
		"channel": 0,
		"type": "channel",
		"subtype": "noteOff",
		"noteNumber": 32,
		"velocity": 0,
		"time": 183360,
		"track": 2
	},
	{
		"deltaTime": 0,
		"channel": 0,
		"type": "channel",
		"noteNumber": 40,
		"velocity": 127,
		"subtype": "noteOn",
		"time": 183360,
		"track": 2
	},
	{
		"deltaTime": 0,
		"channel": 2,
		"type": "channel",
		"subtype": "noteOff",
		"noteNumber": 68,
		"velocity": 0,
		"time": 183360,
		"track": 4
	},
	{
		"deltaTime": 0,
		"channel": 2,
		"type": "channel",
		"subtype": "noteOff",
		"noteNumber": 63,
		"velocity": 0,
		"time": 183360,
		"track": 4
	},
	{
		"deltaTime": 0,
		"channel": 2,
		"type": "channel",
		"subtype": "noteOff",
		"noteNumber": 59,
		"velocity": 0,
		"time": 183360,
		"track": 4
	},
	{
		"deltaTime": 0,
		"channel": 2,
		"type": "channel",
		"noteNumber": 40,
		"velocity": 127,
		"subtype": "noteOn",
		"time": 183360,
		"track": 4
	},
	{
		"deltaTime": 60,
		"channel": 9,
		"type": "channel",
		"noteNumber": 42,
		"velocity": 127,
		"subtype": "noteOn",
		"time": 183360,
		"track": 5
	},
	{
		"deltaTime": 60,
		"channel": 9,
		"type": "channel",
		"subtype": "noteOff",
		"noteNumber": 42,
		"velocity": 0,
		"time": 183420,
		"track": 5
	},
	{
		"deltaTime": 60,
		"channel": 9,
		"type": "channel",
		"noteNumber": 42,
		"velocity": 127,
		"subtype": "noteOn",
		"time": 183480,
		"track": 5
	},
	{
		"deltaTime": 60,
		"channel": 9,
		"type": "channel",
		"subtype": "noteOff",
		"noteNumber": 42,
		"velocity": 0,
		"time": 183540,
		"track": 5
	},
	{
		"deltaTime": 0,
		"channel": 9,
		"type": "channel",
		"noteNumber": 42,
		"velocity": 127,
		"subtype": "noteOn",
		"time": 183600,
		"track": 5
	},
	{
		"deltaTime": 0,
		"channel": 9,
		"type": "channel",
		"noteNumber": 36,
		"velocity": 127,
		"subtype": "noteOn",
		"time": 183600,
		"track": 5
	},
	{
		"deltaTime": 60,
		"channel": 9,
		"type": "channel",
		"noteNumber": 35,
		"velocity": 127,
		"subtype": "noteOn",
		"time": 183600,
		"track": 5
	},
	{
		"deltaTime": 0,
		"channel": 9,
		"type": "channel",
		"subtype": "noteOff",
		"noteNumber": 35,
		"velocity": 0,
		"time": 183660,
		"track": 5
	},
	{
		"deltaTime": 0,
		"channel": 9,
		"type": "channel",
		"subtype": "noteOff",
		"noteNumber": 36,
		"velocity": 0,
		"time": 183660,
		"track": 5
	},
	{
		"deltaTime": 60,
		"channel": 9,
		"type": "channel",
		"subtype": "noteOff",
		"noteNumber": 42,
		"velocity": 0,
		"time": 183660,
		"track": 5
	},
	{
		"deltaTime": 0,
		"channel": 2,
		"type": "channel",
		"subtype": "noteOff",
		"noteNumber": 40,
		"velocity": 0,
		"time": 183720,
		"track": 4
	},
	{
		"deltaTime": 0,
		"channel": 2,
		"type": "channel",
		"noteNumber": 59,
		"velocity": 127,
		"subtype": "noteOn",
		"time": 183720,
		"track": 4
	},
	{
		"deltaTime": 0,
		"channel": 2,
		"type": "channel",
		"noteNumber": 63,
		"velocity": 127,
		"subtype": "noteOn",
		"time": 183720,
		"track": 4
	},
	{
		"deltaTime": 0,
		"channel": 2,
		"type": "channel",
		"noteNumber": 68,
		"velocity": 127,
		"subtype": "noteOn",
		"time": 183720,
		"track": 4
	},
	{
		"deltaTime": 60,
		"channel": 9,
		"type": "channel",
		"noteNumber": 42,
		"velocity": 127,
		"subtype": "noteOn",
		"time": 183720,
		"track": 5
	},
	{
		"deltaTime": 60,
		"channel": 9,
		"type": "channel",
		"subtype": "noteOff",
		"noteNumber": 42,
		"velocity": 0,
		"time": 183780,
		"track": 5
	},
	{
		"deltaTime": 0,
		"channel": 9,
		"type": "channel",
		"noteNumber": 42,
		"velocity": 127,
		"subtype": "noteOn",
		"time": 183840,
		"track": 5
	},
	{
		"deltaTime": 0,
		"channel": 9,
		"type": "channel",
		"noteNumber": 40,
		"velocity": 127,
		"subtype": "noteOn",
		"time": 183840,
		"track": 5
	},
	{
		"deltaTime": 60,
		"channel": 9,
		"type": "channel",
		"noteNumber": 38,
		"velocity": 127,
		"subtype": "noteOn",
		"time": 183840,
		"track": 5
	},
	{
		"deltaTime": 0,
		"channel": 9,
		"type": "channel",
		"subtype": "noteOff",
		"noteNumber": 38,
		"velocity": 0,
		"time": 183900,
		"track": 5
	},
	{
		"deltaTime": 0,
		"channel": 9,
		"type": "channel",
		"subtype": "noteOff",
		"noteNumber": 40,
		"velocity": 0,
		"time": 183900,
		"track": 5
	},
	{
		"deltaTime": 60,
		"channel": 9,
		"type": "channel",
		"subtype": "noteOff",
		"noteNumber": 42,
		"velocity": 0,
		"time": 183900,
		"track": 5
	},
	{
		"deltaTime": 0,
		"channel": 2,
		"type": "channel",
		"subtype": "noteOff",
		"noteNumber": 68,
		"velocity": 0,
		"time": 183960,
		"track": 4
	},
	{
		"deltaTime": 0,
		"channel": 2,
		"type": "channel",
		"subtype": "noteOff",
		"noteNumber": 63,
		"velocity": 0,
		"time": 183960,
		"track": 4
	},
	{
		"deltaTime": 0,
		"channel": 2,
		"type": "channel",
		"subtype": "noteOff",
		"noteNumber": 59,
		"velocity": 0,
		"time": 183960,
		"track": 4
	},
	{
		"deltaTime": 0,
		"channel": 2,
		"type": "channel",
		"noteNumber": 59,
		"velocity": 127,
		"subtype": "noteOn",
		"time": 183960,
		"track": 4
	},
	{
		"deltaTime": 0,
		"channel": 2,
		"type": "channel",
		"noteNumber": 63,
		"velocity": 127,
		"subtype": "noteOn",
		"time": 183960,
		"track": 4
	},
	{
		"deltaTime": 0,
		"channel": 2,
		"type": "channel",
		"noteNumber": 68,
		"velocity": 127,
		"subtype": "noteOn",
		"time": 183960,
		"track": 4
	},
	{
		"deltaTime": 60,
		"channel": 9,
		"type": "channel",
		"noteNumber": 42,
		"velocity": 127,
		"subtype": "noteOn",
		"time": 183960,
		"track": 5
	},
	{
		"deltaTime": 60,
		"channel": 9,
		"type": "channel",
		"subtype": "noteOff",
		"noteNumber": 42,
		"velocity": 0,
		"time": 184020,
		"track": 5
	},
	{
		"deltaTime": 0,
		"channel": 0,
		"type": "channel",
		"subtype": "noteOff",
		"noteNumber": 40,
		"velocity": 0,
		"time": 184080,
		"track": 2
	},
	{
		"deltaTime": 0,
		"channel": 0,
		"type": "channel",
		"noteNumber": 40,
		"velocity": 127,
		"subtype": "noteOn",
		"time": 184080,
		"track": 2
	},
	{
		"deltaTime": 60,
		"channel": 9,
		"type": "channel",
		"noteNumber": 42,
		"velocity": 127,
		"subtype": "noteOn",
		"time": 184080,
		"track": 5
	},
	{
		"deltaTime": 60,
		"channel": 9,
		"type": "channel",
		"subtype": "noteOff",
		"noteNumber": 42,
		"velocity": 0,
		"time": 184140,
		"track": 5
	},
	{
		"deltaTime": 60,
		"channel": 9,
		"type": "channel",
		"noteNumber": 42,
		"velocity": 127,
		"subtype": "noteOn",
		"time": 184200,
		"track": 5
	},
	{
		"deltaTime": 60,
		"channel": 9,
		"type": "channel",
		"subtype": "noteOff",
		"noteNumber": 42,
		"velocity": 0,
		"time": 184260,
		"track": 5
	},
	{
		"deltaTime": 0,
		"channel": 0,
		"type": "channel",
		"subtype": "noteOff",
		"noteNumber": 40,
		"velocity": 0,
		"time": 184320,
		"track": 2
	},
	{
		"deltaTime": 0,
		"channel": 0,
		"type": "channel",
		"noteNumber": 41,
		"velocity": 127,
		"subtype": "noteOn",
		"time": 184320,
		"track": 2
	},
	{
		"deltaTime": 0,
		"channel": 2,
		"type": "channel",
		"subtype": "noteOff",
		"noteNumber": 68,
		"velocity": 0,
		"time": 184320,
		"track": 4
	},
	{
		"deltaTime": 0,
		"channel": 2,
		"type": "channel",
		"subtype": "noteOff",
		"noteNumber": 63,
		"velocity": 0,
		"time": 184320,
		"track": 4
	},
	{
		"deltaTime": 0,
		"channel": 2,
		"type": "channel",
		"subtype": "noteOff",
		"noteNumber": 59,
		"velocity": 0,
		"time": 184320,
		"track": 4
	},
	{
		"deltaTime": 0,
		"channel": 9,
		"type": "channel",
		"noteNumber": 35,
		"velocity": 127,
		"subtype": "noteOn",
		"time": 184320,
		"track": 5
	},
	{
		"deltaTime": 60,
		"channel": 9,
		"type": "channel",
		"noteNumber": 36,
		"velocity": 127,
		"subtype": "noteOn",
		"time": 184320,
		"track": 5
	},
	{
		"deltaTime": 0,
		"channel": 9,
		"type": "channel",
		"subtype": "noteOff",
		"noteNumber": 36,
		"velocity": 0,
		"time": 184380,
		"track": 5
	},
	{
		"deltaTime": 180,
		"channel": 9,
		"type": "channel",
		"subtype": "noteOff",
		"noteNumber": 35,
		"velocity": 0,
		"time": 184380,
		"track": 5
	},
	{
		"deltaTime": 0,
		"channel": 9,
		"type": "channel",
		"noteNumber": 35,
		"velocity": 127,
		"subtype": "noteOn",
		"time": 184560,
		"track": 5
	},
	{
		"deltaTime": 60,
		"channel": 9,
		"type": "channel",
		"noteNumber": 36,
		"velocity": 127,
		"subtype": "noteOn",
		"time": 184560,
		"track": 5
	},
	{
		"deltaTime": 0,
		"channel": 9,
		"type": "channel",
		"subtype": "noteOff",
		"noteNumber": 36,
		"velocity": 0,
		"time": 184620,
		"track": 5
	},
	{
		"deltaTime": 180,
		"channel": 9,
		"type": "channel",
		"subtype": "noteOff",
		"noteNumber": 35,
		"velocity": 0,
		"time": 184620,
		"track": 5
	},
	{
		"deltaTime": 60,
		"channel": 9,
		"type": "channel",
		"noteNumber": 39,
		"velocity": 127,
		"subtype": "noteOn",
		"time": 184800,
		"track": 5
	},
	{
		"deltaTime": 180,
		"channel": 9,
		"type": "channel",
		"subtype": "noteOff",
		"noteNumber": 39,
		"velocity": 0,
		"time": 184860,
		"track": 5
	},
	{
		"deltaTime": 0,
		"channel": 0,
		"type": "channel",
		"subtype": "noteOff",
		"noteNumber": 41,
		"velocity": 0,
		"time": 185040,
		"track": 2
	},
	{
		"deltaTime": 120,
		"channel": 0,
		"type": "channel",
		"noteNumber": 41,
		"velocity": 127,
		"subtype": "noteOn",
		"time": 185040,
		"track": 2
	},
	{
		"deltaTime": 0,
		"channel": 9,
		"type": "channel",
		"noteNumber": 35,
		"velocity": 127,
		"subtype": "noteOn",
		"time": 185160,
		"track": 5
	},
	{
		"deltaTime": 60,
		"channel": 9,
		"type": "channel",
		"noteNumber": 36,
		"velocity": 127,
		"subtype": "noteOn",
		"time": 185160,
		"track": 5
	},
	{
		"deltaTime": 0,
		"channel": 9,
		"type": "channel",
		"subtype": "noteOff",
		"noteNumber": 36,
		"velocity": 0,
		"time": 185220,
		"track": 5
	},
	{
		"deltaTime": 60,
		"channel": 9,
		"type": "channel",
		"subtype": "noteOff",
		"noteNumber": 35,
		"velocity": 0,
		"time": 185220,
		"track": 5
	},
	{
		"deltaTime": 0,
		"channel": 0,
		"type": "channel",
		"subtype": "noteOff",
		"noteNumber": 41,
		"velocity": 0,
		"time": 185280,
		"track": 2
	},
	{
		"deltaTime": 240,
		"channel": 0,
		"type": "channel",
		"noteNumber": 40,
		"velocity": 127,
		"subtype": "noteOn",
		"time": 185280,
		"track": 2
	},
	{
		"deltaTime": 0,
		"channel": 9,
		"type": "channel",
		"noteNumber": 35,
		"velocity": 127,
		"subtype": "noteOn",
		"time": 185520,
		"track": 5
	},
	{
		"deltaTime": 60,
		"channel": 9,
		"type": "channel",
		"noteNumber": 36,
		"velocity": 127,
		"subtype": "noteOn",
		"time": 185520,
		"track": 5
	},
	{
		"deltaTime": 0,
		"channel": 9,
		"type": "channel",
		"subtype": "noteOff",
		"noteNumber": 36,
		"velocity": 0,
		"time": 185580,
		"track": 5
	},
	{
		"deltaTime": 180,
		"channel": 9,
		"type": "channel",
		"subtype": "noteOff",
		"noteNumber": 35,
		"velocity": 0,
		"time": 185580,
		"track": 5
	},
	{
		"deltaTime": 0,
		"channel": 0,
		"type": "channel",
		"subtype": "noteOff",
		"noteNumber": 40,
		"velocity": 0,
		"time": 185760,
		"track": 2
	},
	{
		"deltaTime": 0,
		"channel": 0,
		"type": "channel",
		"noteNumber": 35,
		"velocity": 127,
		"subtype": "noteOn",
		"time": 185760,
		"track": 2
	},
	{
		"deltaTime": 0,
		"channel": 9,
		"type": "channel",
		"noteNumber": 38,
		"velocity": 127,
		"subtype": "noteOn",
		"time": 185760,
		"track": 5
	},
	{
		"deltaTime": 60,
		"channel": 9,
		"type": "channel",
		"noteNumber": 40,
		"velocity": 127,
		"subtype": "noteOn",
		"time": 185760,
		"track": 5
	},
	{
		"deltaTime": 0,
		"channel": 9,
		"type": "channel",
		"subtype": "noteOff",
		"noteNumber": 40,
		"velocity": 0,
		"time": 185820,
		"track": 5
	},
	{
		"deltaTime": 180,
		"channel": 9,
		"type": "channel",
		"subtype": "noteOff",
		"noteNumber": 38,
		"velocity": 0,
		"time": 185820,
		"track": 5
	},
	{
		"deltaTime": 0,
		"channel": 0,
		"type": "channel",
		"subtype": "noteOff",
		"noteNumber": 35,
		"velocity": 0,
		"time": 186000,
		"track": 2
	},
	{
		"deltaTime": 0,
		"channel": 0,
		"type": "channel",
		"noteNumber": 34,
		"velocity": 127,
		"subtype": "noteOn",
		"time": 186000,
		"track": 2
	},
	{
		"deltaTime": 0,
		"channel": 9,
		"type": "channel",
		"noteNumber": 35,
		"velocity": 127,
		"subtype": "noteOn",
		"time": 186000,
		"track": 5
	},
	{
		"deltaTime": 60,
		"channel": 9,
		"type": "channel",
		"noteNumber": 36,
		"velocity": 127,
		"subtype": "noteOn",
		"time": 186000,
		"track": 5
	},
	{
		"deltaTime": 0,
		"channel": 9,
		"type": "channel",
		"subtype": "noteOff",
		"noteNumber": 36,
		"velocity": 0,
		"time": 186060,
		"track": 5
	},
	{
		"deltaTime": 180,
		"channel": 9,
		"type": "channel",
		"subtype": "noteOff",
		"noteNumber": 35,
		"velocity": 0,
		"time": 186060,
		"track": 5
	},
	{
		"deltaTime": 0,
		"channel": 0,
		"type": "channel",
		"subtype": "noteOff",
		"noteNumber": 34,
		"velocity": 0,
		"time": 186240,
		"track": 2
	},
	{
		"deltaTime": 720,
		"channel": 0,
		"type": "channel",
		"noteNumber": 32,
		"velocity": 127,
		"subtype": "noteOn",
		"time": 186240,
		"track": 2
	},
	{
		"deltaTime": 0,
		"channel": 0,
		"type": "channel",
		"subtype": "noteOff",
		"noteNumber": 32,
		"velocity": 0,
		"time": 186960,
		"track": 2
	},
	{
		"deltaTime": 240,
		"channel": 0,
		"type": "channel",
		"noteNumber": 32,
		"velocity": 127,
		"subtype": "noteOn",
		"time": 186960,
		"track": 2
	},
	{
		"deltaTime": 0,
		"channel": 0,
		"type": "channel",
		"subtype": "noteOff",
		"noteNumber": 32,
		"velocity": 0,
		"time": 187200,
		"track": 2
	},
	{
		"deltaTime": 720,
		"channel": 0,
		"type": "channel",
		"noteNumber": 40,
		"velocity": 127,
		"subtype": "noteOn",
		"time": 187200,
		"track": 2
	},
	{
		"deltaTime": 0,
		"channel": 0,
		"type": "channel",
		"subtype": "noteOff",
		"noteNumber": 40,
		"velocity": 0,
		"time": 187920,
		"track": 2
	},
	{
		"deltaTime": 240,
		"channel": 0,
		"type": "channel",
		"noteNumber": 40,
		"velocity": 127,
		"subtype": "noteOn",
		"time": 187920,
		"track": 2
	},
	{
		"deltaTime": 0,
		"channel": 0,
		"type": "channel",
		"subtype": "noteOff",
		"noteNumber": 40,
		"velocity": 0,
		"time": 188160,
		"track": 2
	},
	{
		"deltaTime": 720,
		"channel": 0,
		"type": "channel",
		"noteNumber": 41,
		"velocity": 127,
		"subtype": "noteOn",
		"time": 188160,
		"track": 2
	},
	{
		"deltaTime": 0,
		"channel": 0,
		"type": "channel",
		"subtype": "noteOff",
		"noteNumber": 41,
		"velocity": 0,
		"time": 188880,
		"track": 2
	},
	{
		"deltaTime": 240,
		"channel": 0,
		"type": "channel",
		"noteNumber": 41,
		"velocity": 127,
		"subtype": "noteOn",
		"time": 188880,
		"track": 2
	},
	{
		"deltaTime": 0,
		"channel": 0,
		"type": "channel",
		"subtype": "noteOff",
		"noteNumber": 41,
		"velocity": 0,
		"time": 189120,
		"track": 2
	},
	{
		"deltaTime": 480,
		"channel": 0,
		"type": "channel",
		"noteNumber": 40,
		"velocity": 127,
		"subtype": "noteOn",
		"time": 189120,
		"track": 2
	},
	{
		"deltaTime": 0,
		"channel": 0,
		"type": "channel",
		"subtype": "noteOff",
		"noteNumber": 40,
		"velocity": 0,
		"time": 189600,
		"track": 2
	},
	{
		"deltaTime": 240,
		"channel": 0,
		"type": "channel",
		"noteNumber": 35,
		"velocity": 127,
		"subtype": "noteOn",
		"time": 189600,
		"track": 2
	},
	{
		"deltaTime": 0,
		"channel": 0,
		"type": "channel",
		"subtype": "noteOff",
		"noteNumber": 35,
		"velocity": 0,
		"time": 189840,
		"track": 2
	},
	{
		"deltaTime": 240,
		"channel": 0,
		"type": "channel",
		"noteNumber": 34,
		"velocity": 127,
		"subtype": "noteOn",
		"time": 189840,
		"track": 2
	},
	{
		"deltaTime": 0,
		"channel": 0,
		"type": "channel",
		"subtype": "noteOff",
		"noteNumber": 34,
		"velocity": 0,
		"time": 190080,
		"track": 2
	},
	{
		"deltaTime": 720,
		"channel": 0,
		"type": "channel",
		"noteNumber": 32,
		"velocity": 127,
		"subtype": "noteOn",
		"time": 190080,
		"track": 2
	},
	{
		"deltaTime": 0,
		"channel": 0,
		"type": "channel",
		"subtype": "noteOff",
		"noteNumber": 32,
		"velocity": 0,
		"time": 190800,
		"track": 2
	},
	{
		"deltaTime": 240,
		"channel": 0,
		"type": "channel",
		"noteNumber": 32,
		"velocity": 127,
		"subtype": "noteOn",
		"time": 190800,
		"track": 2
	},
	{
		"deltaTime": 0,
		"channel": 0,
		"type": "channel",
		"subtype": "noteOff",
		"noteNumber": 32,
		"velocity": 0,
		"time": 191040,
		"track": 2
	},
	{
		"deltaTime": 720,
		"channel": 0,
		"type": "channel",
		"noteNumber": 40,
		"velocity": 127,
		"subtype": "noteOn",
		"time": 191040,
		"track": 2
	},
	{
		"deltaTime": 0,
		"channel": 0,
		"type": "channel",
		"subtype": "noteOff",
		"noteNumber": 40,
		"velocity": 0,
		"time": 191760,
		"track": 2
	},
	{
		"deltaTime": 240,
		"channel": 0,
		"type": "channel",
		"noteNumber": 40,
		"velocity": 127,
		"subtype": "noteOn",
		"time": 191760,
		"track": 2
	},
	{
		"deltaTime": 0,
		"channel": 0,
		"type": "channel",
		"subtype": "noteOff",
		"noteNumber": 40,
		"velocity": 0,
		"time": 192000,
		"track": 2
	},
	{
		"deltaTime": 720,
		"channel": 0,
		"type": "channel",
		"noteNumber": 41,
		"velocity": 127,
		"subtype": "noteOn",
		"time": 192000,
		"track": 2
	},
	{
		"deltaTime": 0,
		"channel": 0,
		"type": "channel",
		"subtype": "noteOff",
		"noteNumber": 41,
		"velocity": 0,
		"time": 192720,
		"track": 2
	},
	{
		"deltaTime": 240,
		"channel": 0,
		"type": "channel",
		"noteNumber": 41,
		"velocity": 127,
		"subtype": "noteOn",
		"time": 192720,
		"track": 2
	},
	{
		"deltaTime": 0,
		"channel": 0,
		"type": "channel",
		"subtype": "noteOff",
		"noteNumber": 41,
		"velocity": 0,
		"time": 192960,
		"track": 2
	},
	{
		"deltaTime": 480,
		"channel": 0,
		"type": "channel",
		"noteNumber": 40,
		"velocity": 127,
		"subtype": "noteOn",
		"time": 192960,
		"track": 2
	},
	{
		"deltaTime": 0,
		"channel": 0,
		"type": "channel",
		"subtype": "noteOff",
		"noteNumber": 40,
		"velocity": 0,
		"time": 193440,
		"track": 2
	},
	{
		"deltaTime": 240,
		"channel": 0,
		"type": "channel",
		"noteNumber": 35,
		"velocity": 127,
		"subtype": "noteOn",
		"time": 193440,
		"track": 2
	},
	{
		"deltaTime": 0,
		"channel": 0,
		"type": "channel",
		"subtype": "noteOff",
		"noteNumber": 35,
		"velocity": 0,
		"time": 193680,
		"track": 2
	},
	{
		"deltaTime": 240,
		"channel": 0,
		"type": "channel",
		"noteNumber": 34,
		"velocity": 127,
		"subtype": "noteOn",
		"time": 193680,
		"track": 2
	},
	{
		"deltaTime": 0,
		"channel": 0,
		"type": "channel",
		"subtype": "noteOff",
		"noteNumber": 34,
		"velocity": 0,
		"time": 193920,
		"track": 2
	},
	{
		"deltaTime": 720,
		"channel": 0,
		"type": "channel",
		"noteNumber": 32,
		"velocity": 127,
		"subtype": "noteOn",
		"time": 193920,
		"track": 2
	},
	{
		"deltaTime": 0,
		"channel": 0,
		"type": "channel",
		"subtype": "noteOff",
		"noteNumber": 32,
		"velocity": 0,
		"time": 194640,
		"track": 2
	},
	{
		"deltaTime": 240,
		"channel": 0,
		"type": "channel",
		"noteNumber": 32,
		"velocity": 127,
		"subtype": "noteOn",
		"time": 194640,
		"track": 2
	},
	{
		"deltaTime": 0,
		"channel": 0,
		"type": "channel",
		"subtype": "noteOff",
		"noteNumber": 32,
		"velocity": 0,
		"time": 194880,
		"track": 2
	},
	{
		"deltaTime": 720,
		"channel": 0,
		"type": "channel",
		"noteNumber": 40,
		"velocity": 127,
		"subtype": "noteOn",
		"time": 194880,
		"track": 2
	},
	{
		"deltaTime": 0,
		"channel": 0,
		"type": "channel",
		"subtype": "noteOff",
		"noteNumber": 40,
		"velocity": 0,
		"time": 195600,
		"track": 2
	},
	{
		"deltaTime": 240,
		"channel": 0,
		"type": "channel",
		"noteNumber": 40,
		"velocity": 127,
		"subtype": "noteOn",
		"time": 195600,
		"track": 2
	},
	{
		"deltaTime": 0,
		"channel": 0,
		"type": "channel",
		"subtype": "noteOff",
		"noteNumber": 40,
		"velocity": 0,
		"time": 195840,
		"track": 2
	},
	{
		"deltaTime": 720,
		"channel": 0,
		"type": "channel",
		"noteNumber": 41,
		"velocity": 127,
		"subtype": "noteOn",
		"time": 195840,
		"track": 2
	},
	{
		"deltaTime": 0,
		"channel": 0,
		"type": "channel",
		"subtype": "noteOff",
		"noteNumber": 41,
		"velocity": 0,
		"time": 196560,
		"track": 2
	},
	{
		"deltaTime": 240,
		"channel": 0,
		"type": "channel",
		"noteNumber": 41,
		"velocity": 127,
		"subtype": "noteOn",
		"time": 196560,
		"track": 2
	},
	{
		"deltaTime": 0,
		"channel": 0,
		"type": "channel",
		"subtype": "noteOff",
		"noteNumber": 41,
		"velocity": 0,
		"time": 196800,
		"track": 2
	},
	{
		"deltaTime": 480,
		"channel": 0,
		"type": "channel",
		"noteNumber": 40,
		"velocity": 127,
		"subtype": "noteOn",
		"time": 196800,
		"track": 2
	},
	{
		"deltaTime": 0,
		"channel": 0,
		"type": "channel",
		"subtype": "noteOff",
		"noteNumber": 40,
		"velocity": 0,
		"time": 197280,
		"track": 2
	},
	{
		"deltaTime": 0,
		"channel": 0,
		"type": "channel",
		"noteNumber": 35,
		"velocity": 127,
		"subtype": "noteOn",
		"time": 197280,
		"track": 2
	},
	{
		"deltaTime": 0,
		"channel": 9,
		"type": "channel",
		"noteNumber": 38,
		"velocity": 127,
		"subtype": "noteOn",
		"time": 197280,
		"track": 5
	},
	{
		"deltaTime": 60,
		"channel": 9,
		"type": "channel",
		"noteNumber": 40,
		"velocity": 127,
		"subtype": "noteOn",
		"time": 197280,
		"track": 5
	},
	{
		"deltaTime": 0,
		"channel": 9,
		"type": "channel",
		"subtype": "noteOff",
		"noteNumber": 40,
		"velocity": 0,
		"time": 197340,
		"track": 5
	},
	{
		"deltaTime": 180,
		"channel": 9,
		"type": "channel",
		"subtype": "noteOff",
		"noteNumber": 38,
		"velocity": 0,
		"time": 197340,
		"track": 5
	},
	{
		"deltaTime": 0,
		"channel": 0,
		"type": "channel",
		"subtype": "noteOff",
		"noteNumber": 35,
		"velocity": 0,
		"time": 197520,
		"track": 2
	},
	{
		"deltaTime": 120,
		"channel": 0,
		"type": "channel",
		"noteNumber": 34,
		"velocity": 127,
		"subtype": "noteOn",
		"time": 197520,
		"track": 2
	},
	{
		"deltaTime": 0,
		"channel": 9,
		"type": "channel",
		"noteNumber": 35,
		"velocity": 127,
		"subtype": "noteOn",
		"time": 197640,
		"track": 5
	},
	{
		"deltaTime": 60,
		"channel": 9,
		"type": "channel",
		"noteNumber": 36,
		"velocity": 127,
		"subtype": "noteOn",
		"time": 197640,
		"track": 5
	},
	{
		"deltaTime": 0,
		"channel": 9,
		"type": "channel",
		"subtype": "noteOff",
		"noteNumber": 36,
		"velocity": 0,
		"time": 197700,
		"track": 5
	},
	{
		"deltaTime": 60,
		"channel": 9,
		"type": "channel",
		"subtype": "noteOff",
		"noteNumber": 35,
		"velocity": 0,
		"time": 197700,
		"track": 5
	},
	{
		"deltaTime": 0,
		"channel": 0,
		"type": "channel",
		"subtype": "noteOff",
		"noteNumber": 34,
		"velocity": 0,
		"time": 197760,
		"track": 2
	},
	{
		"deltaTime": 0,
		"channel": 0,
		"type": "channel",
		"noteNumber": 32,
		"velocity": 127,
		"subtype": "noteOn",
		"time": 197760,
		"track": 2
	},
	{
		"deltaTime": 0,
		"channel": 2,
		"type": "channel",
		"noteNumber": 44,
		"velocity": 127,
		"subtype": "noteOn",
		"time": 197760,
		"track": 4
	},
	{
		"deltaTime": 0,
		"channel": 2,
		"type": "channel",
		"noteNumber": 51,
		"velocity": 127,
		"subtype": "noteOn",
		"time": 197760,
		"track": 4
	},
	{
		"deltaTime": 0,
		"channel": 2,
		"type": "channel",
		"noteNumber": 56,
		"velocity": 127,
		"subtype": "noteOn",
		"time": 197760,
		"track": 4
	},
	{
		"deltaTime": 0,
		"channel": 2,
		"type": "channel",
		"noteNumber": 59,
		"velocity": 127,
		"subtype": "noteOn",
		"time": 197760,
		"track": 4
	},
	{
		"deltaTime": 0,
		"channel": 2,
		"type": "channel",
		"noteNumber": 63,
		"velocity": 127,
		"subtype": "noteOn",
		"time": 197760,
		"track": 4
	},
	{
		"deltaTime": 0,
		"channel": 9,
		"type": "channel",
		"noteNumber": 42,
		"velocity": 127,
		"subtype": "noteOn",
		"time": 197760,
		"track": 5
	},
	{
		"deltaTime": 0,
		"channel": 9,
		"type": "channel",
		"noteNumber": 35,
		"velocity": 127,
		"subtype": "noteOn",
		"time": 197760,
		"track": 5
	},
	{
		"deltaTime": 60,
		"channel": 9,
		"type": "channel",
		"noteNumber": 36,
		"velocity": 127,
		"subtype": "noteOn",
		"time": 197760,
		"track": 5
	},
	{
		"deltaTime": 0,
		"channel": 9,
		"type": "channel",
		"subtype": "noteOff",
		"noteNumber": 36,
		"velocity": 0,
		"time": 197820,
		"track": 5
	},
	{
		"deltaTime": 0,
		"channel": 9,
		"type": "channel",
		"subtype": "noteOff",
		"noteNumber": 35,
		"velocity": 0,
		"time": 197820,
		"track": 5
	},
	{
		"deltaTime": 60,
		"channel": 9,
		"type": "channel",
		"subtype": "noteOff",
		"noteNumber": 42,
		"velocity": 0,
		"time": 197820,
		"track": 5
	},
	{
		"deltaTime": 60,
		"channel": 9,
		"type": "channel",
		"noteNumber": 42,
		"velocity": 127,
		"subtype": "noteOn",
		"time": 197880,
		"track": 5
	},
	{
		"deltaTime": 60,
		"channel": 9,
		"type": "channel",
		"subtype": "noteOff",
		"noteNumber": 42,
		"velocity": 0,
		"time": 197940,
		"track": 5
	},
	{
		"deltaTime": 0,
		"channel": 9,
		"type": "channel",
		"noteNumber": 42,
		"velocity": 127,
		"subtype": "noteOn",
		"time": 198000,
		"track": 5
	},
	{
		"deltaTime": 0,
		"channel": 9,
		"type": "channel",
		"noteNumber": 36,
		"velocity": 127,
		"subtype": "noteOn",
		"time": 198000,
		"track": 5
	},
	{
		"deltaTime": 60,
		"channel": 9,
		"type": "channel",
		"noteNumber": 35,
		"velocity": 127,
		"subtype": "noteOn",
		"time": 198000,
		"track": 5
	},
	{
		"deltaTime": 0,
		"channel": 9,
		"type": "channel",
		"subtype": "noteOff",
		"noteNumber": 35,
		"velocity": 0,
		"time": 198060,
		"track": 5
	},
	{
		"deltaTime": 0,
		"channel": 9,
		"type": "channel",
		"subtype": "noteOff",
		"noteNumber": 36,
		"velocity": 0,
		"time": 198060,
		"track": 5
	},
	{
		"deltaTime": 60,
		"channel": 9,
		"type": "channel",
		"subtype": "noteOff",
		"noteNumber": 42,
		"velocity": 0,
		"time": 198060,
		"track": 5
	},
	{
		"deltaTime": 0,
		"channel": 1,
		"type": "channel",
		"noteNumber": 56,
		"velocity": 127,
		"subtype": "noteOn",
		"time": 198120,
		"track": 3
	},
	{
		"deltaTime": 0,
		"channel": 2,
		"type": "channel",
		"subtype": "noteOff",
		"noteNumber": 63,
		"velocity": 0,
		"time": 198120,
		"track": 4
	},
	{
		"deltaTime": 0,
		"channel": 2,
		"type": "channel",
		"subtype": "noteOff",
		"noteNumber": 59,
		"velocity": 0,
		"time": 198120,
		"track": 4
	},
	{
		"deltaTime": 0,
		"channel": 2,
		"type": "channel",
		"subtype": "noteOff",
		"noteNumber": 56,
		"velocity": 0,
		"time": 198120,
		"track": 4
	},
	{
		"deltaTime": 0,
		"channel": 2,
		"type": "channel",
		"subtype": "noteOff",
		"noteNumber": 51,
		"velocity": 0,
		"time": 198120,
		"track": 4
	},
	{
		"deltaTime": 0,
		"channel": 2,
		"type": "channel",
		"subtype": "noteOff",
		"noteNumber": 44,
		"velocity": 0,
		"time": 198120,
		"track": 4
	},
	{
		"deltaTime": 0,
		"channel": 2,
		"type": "channel",
		"noteNumber": 56,
		"velocity": 127,
		"subtype": "noteOn",
		"time": 198120,
		"track": 4
	},
	{
		"deltaTime": 0,
		"channel": 2,
		"type": "channel",
		"noteNumber": 59,
		"velocity": 127,
		"subtype": "noteOn",
		"time": 198120,
		"track": 4
	},
	{
		"deltaTime": 60,
		"channel": 9,
		"type": "channel",
		"noteNumber": 42,
		"velocity": 127,
		"subtype": "noteOn",
		"time": 198120,
		"track": 5
	},
	{
		"deltaTime": 60,
		"channel": 9,
		"type": "channel",
		"subtype": "noteOff",
		"noteNumber": 42,
		"velocity": 0,
		"time": 198180,
		"track": 5
	},
	{
		"deltaTime": 0,
		"channel": 1,
		"type": "channel",
		"subtype": "noteOff",
		"noteNumber": 56,
		"velocity": 0,
		"time": 198240,
		"track": 3
	},
	{
		"deltaTime": 0,
		"channel": 1,
		"type": "channel",
		"noteNumber": 63,
		"velocity": 127,
		"subtype": "noteOn",
		"time": 198240,
		"track": 3
	},
	{
		"deltaTime": 0,
		"channel": 2,
		"type": "channel",
		"subtype": "noteOff",
		"noteNumber": 59,
		"velocity": 0,
		"time": 198240,
		"track": 4
	},
	{
		"deltaTime": 0,
		"channel": 2,
		"type": "channel",
		"subtype": "noteOff",
		"noteNumber": 56,
		"velocity": 0,
		"time": 198240,
		"track": 4
	},
	{
		"deltaTime": 0,
		"channel": 2,
		"type": "channel",
		"noteNumber": 51,
		"velocity": 127,
		"subtype": "noteOn",
		"time": 198240,
		"track": 4
	},
	{
		"deltaTime": 0,
		"channel": 2,
		"type": "channel",
		"noteNumber": 59,
		"velocity": 127,
		"subtype": "noteOn",
		"time": 198240,
		"track": 4
	},
	{
		"deltaTime": 0,
		"channel": 2,
		"type": "channel",
		"noteNumber": 63,
		"velocity": 127,
		"subtype": "noteOn",
		"time": 198240,
		"track": 4
	},
	{
		"deltaTime": 0,
		"channel": 9,
		"type": "channel",
		"noteNumber": 42,
		"velocity": 127,
		"subtype": "noteOn",
		"time": 198240,
		"track": 5
	},
	{
		"deltaTime": 0,
		"channel": 9,
		"type": "channel",
		"noteNumber": 38,
		"velocity": 127,
		"subtype": "noteOn",
		"time": 198240,
		"track": 5
	},
	{
		"deltaTime": 60,
		"channel": 9,
		"type": "channel",
		"noteNumber": 40,
		"velocity": 127,
		"subtype": "noteOn",
		"time": 198240,
		"track": 5
	},
	{
		"deltaTime": 0,
		"channel": 9,
		"type": "channel",
		"subtype": "noteOff",
		"noteNumber": 40,
		"velocity": 0,
		"time": 198300,
		"track": 5
	},
	{
		"deltaTime": 0,
		"channel": 9,
		"type": "channel",
		"subtype": "noteOff",
		"noteNumber": 38,
		"velocity": 0,
		"time": 198300,
		"track": 5
	},
	{
		"deltaTime": 60,
		"channel": 9,
		"type": "channel",
		"subtype": "noteOff",
		"noteNumber": 42,
		"velocity": 0,
		"time": 198300,
		"track": 5
	},
	{
		"deltaTime": 60,
		"channel": 9,
		"type": "channel",
		"noteNumber": 42,
		"velocity": 127,
		"subtype": "noteOn",
		"time": 198360,
		"track": 5
	},
	{
		"deltaTime": 60,
		"channel": 9,
		"type": "channel",
		"subtype": "noteOff",
		"noteNumber": 42,
		"velocity": 0,
		"time": 198420,
		"track": 5
	},
	{
		"deltaTime": 0,
		"channel": 1,
		"type": "channel",
		"subtype": "noteOff",
		"noteNumber": 63,
		"velocity": 0,
		"time": 198480,
		"track": 3
	},
	{
		"deltaTime": 0,
		"channel": 1,
		"type": "channel",
		"noteNumber": 63,
		"velocity": 127,
		"subtype": "noteOn",
		"time": 198480,
		"track": 3
	},
	{
		"deltaTime": 60,
		"channel": 9,
		"type": "channel",
		"noteNumber": 42,
		"velocity": 127,
		"subtype": "noteOn",
		"time": 198480,
		"track": 5
	},
	{
		"deltaTime": 60,
		"channel": 9,
		"type": "channel",
		"subtype": "noteOff",
		"noteNumber": 42,
		"velocity": 0,
		"time": 198540,
		"track": 5
	},
	{
		"deltaTime": 0,
		"channel": 9,
		"type": "channel",
		"noteNumber": 42,
		"velocity": 127,
		"subtype": "noteOn",
		"time": 198600,
		"track": 5
	},
	{
		"deltaTime": 0,
		"channel": 9,
		"type": "channel",
		"noteNumber": 36,
		"velocity": 127,
		"subtype": "noteOn",
		"time": 198600,
		"track": 5
	},
	{
		"deltaTime": 60,
		"channel": 9,
		"type": "channel",
		"noteNumber": 35,
		"velocity": 127,
		"subtype": "noteOn",
		"time": 198600,
		"track": 5
	},
	{
		"deltaTime": 0,
		"channel": 9,
		"type": "channel",
		"subtype": "noteOff",
		"noteNumber": 35,
		"velocity": 0,
		"time": 198660,
		"track": 5
	},
	{
		"deltaTime": 0,
		"channel": 9,
		"type": "channel",
		"subtype": "noteOff",
		"noteNumber": 36,
		"velocity": 0,
		"time": 198660,
		"track": 5
	},
	{
		"deltaTime": 60,
		"channel": 9,
		"type": "channel",
		"subtype": "noteOff",
		"noteNumber": 42,
		"velocity": 0,
		"time": 198660,
		"track": 5
	},
	{
		"deltaTime": 0,
		"channel": 0,
		"type": "channel",
		"subtype": "noteOff",
		"noteNumber": 32,
		"velocity": 0,
		"time": 198720,
		"track": 2
	},
	{
		"deltaTime": 0,
		"channel": 0,
		"type": "channel",
		"noteNumber": 40,
		"velocity": 127,
		"subtype": "noteOn",
		"time": 198720,
		"track": 2
	},
	{
		"deltaTime": 0,
		"channel": 1,
		"type": "channel",
		"subtype": "noteOff",
		"noteNumber": 63,
		"velocity": 0,
		"time": 198720,
		"track": 3
	},
	{
		"deltaTime": 0,
		"channel": 1,
		"type": "channel",
		"noteNumber": 63,
		"velocity": 127,
		"subtype": "noteOn",
		"time": 198720,
		"track": 3
	},
	{
		"deltaTime": 0,
		"channel": 2,
		"type": "channel",
		"subtype": "noteOff",
		"noteNumber": 63,
		"velocity": 0,
		"time": 198720,
		"track": 4
	},
	{
		"deltaTime": 0,
		"channel": 2,
		"type": "channel",
		"subtype": "noteOff",
		"noteNumber": 59,
		"velocity": 0,
		"time": 198720,
		"track": 4
	},
	{
		"deltaTime": 0,
		"channel": 2,
		"type": "channel",
		"subtype": "noteOff",
		"noteNumber": 51,
		"velocity": 0,
		"time": 198720,
		"track": 4
	},
	{
		"deltaTime": 0,
		"channel": 2,
		"type": "channel",
		"noteNumber": 40,
		"velocity": 127,
		"subtype": "noteOn",
		"time": 198720,
		"track": 4
	},
	{
		"deltaTime": 0,
		"channel": 2,
		"type": "channel",
		"noteNumber": 47,
		"velocity": 127,
		"subtype": "noteOn",
		"time": 198720,
		"track": 4
	},
	{
		"deltaTime": 0,
		"channel": 2,
		"type": "channel",
		"noteNumber": 52,
		"velocity": 127,
		"subtype": "noteOn",
		"time": 198720,
		"track": 4
	},
	{
		"deltaTime": 0,
		"channel": 2,
		"type": "channel",
		"noteNumber": 56,
		"velocity": 127,
		"subtype": "noteOn",
		"time": 198720,
		"track": 4
	},
	{
		"deltaTime": 60,
		"channel": 9,
		"type": "channel",
		"noteNumber": 42,
		"velocity": 127,
		"subtype": "noteOn",
		"time": 198720,
		"track": 5
	},
	{
		"deltaTime": 60,
		"channel": 9,
		"type": "channel",
		"subtype": "noteOff",
		"noteNumber": 42,
		"velocity": 0,
		"time": 198780,
		"track": 5
	},
	{
		"deltaTime": 60,
		"channel": 9,
		"type": "channel",
		"noteNumber": 42,
		"velocity": 127,
		"subtype": "noteOn",
		"time": 198840,
		"track": 5
	},
	{
		"deltaTime": 60,
		"channel": 9,
		"type": "channel",
		"subtype": "noteOff",
		"noteNumber": 42,
		"velocity": 0,
		"time": 198900,
		"track": 5
	},
	{
		"deltaTime": 0,
		"channel": 1,
		"type": "channel",
		"subtype": "noteOff",
		"noteNumber": 63,
		"velocity": 0,
		"time": 198960,
		"track": 3
	},
	{
		"deltaTime": 0,
		"channel": 1,
		"type": "channel",
		"noteNumber": 64,
		"velocity": 127,
		"subtype": "noteOn",
		"time": 198960,
		"track": 3
	},
	{
		"deltaTime": 0,
		"channel": 9,
		"type": "channel",
		"noteNumber": 42,
		"velocity": 127,
		"subtype": "noteOn",
		"time": 198960,
		"track": 5
	},
	{
		"deltaTime": 0,
		"channel": 9,
		"type": "channel",
		"noteNumber": 36,
		"velocity": 127,
		"subtype": "noteOn",
		"time": 198960,
		"track": 5
	},
	{
		"deltaTime": 60,
		"channel": 9,
		"type": "channel",
		"noteNumber": 35,
		"velocity": 127,
		"subtype": "noteOn",
		"time": 198960,
		"track": 5
	},
	{
		"deltaTime": 0,
		"channel": 9,
		"type": "channel",
		"subtype": "noteOff",
		"noteNumber": 35,
		"velocity": 0,
		"time": 199020,
		"track": 5
	},
	{
		"deltaTime": 0,
		"channel": 9,
		"type": "channel",
		"subtype": "noteOff",
		"noteNumber": 36,
		"velocity": 0,
		"time": 199020,
		"track": 5
	},
	{
		"deltaTime": 60,
		"channel": 9,
		"type": "channel",
		"subtype": "noteOff",
		"noteNumber": 42,
		"velocity": 0,
		"time": 199020,
		"track": 5
	},
	{
		"deltaTime": 0,
		"channel": 1,
		"type": "channel",
		"subtype": "noteOff",
		"noteNumber": 64,
		"velocity": 0,
		"time": 199080,
		"track": 3
	},
	{
		"deltaTime": 0,
		"channel": 1,
		"type": "channel",
		"noteNumber": 61,
		"velocity": 127,
		"subtype": "noteOn",
		"time": 199080,
		"track": 3
	},
	{
		"deltaTime": 0,
		"channel": 2,
		"type": "channel",
		"subtype": "noteOff",
		"noteNumber": 56,
		"velocity": 0,
		"time": 199080,
		"track": 4
	},
	{
		"deltaTime": 0,
		"channel": 2,
		"type": "channel",
		"subtype": "noteOff",
		"noteNumber": 52,
		"velocity": 0,
		"time": 199080,
		"track": 4
	},
	{
		"deltaTime": 0,
		"channel": 2,
		"type": "channel",
		"subtype": "noteOff",
		"noteNumber": 47,
		"velocity": 0,
		"time": 199080,
		"track": 4
	},
	{
		"deltaTime": 0,
		"channel": 2,
		"type": "channel",
		"subtype": "noteOff",
		"noteNumber": 40,
		"velocity": 0,
		"time": 199080,
		"track": 4
	},
	{
		"deltaTime": 0,
		"channel": 2,
		"type": "channel",
		"noteNumber": 52,
		"velocity": 127,
		"subtype": "noteOn",
		"time": 199080,
		"track": 4
	},
	{
		"deltaTime": 0,
		"channel": 2,
		"type": "channel",
		"noteNumber": 56,
		"velocity": 127,
		"subtype": "noteOn",
		"time": 199080,
		"track": 4
	},
	{
		"deltaTime": 60,
		"channel": 9,
		"type": "channel",
		"noteNumber": 42,
		"velocity": 127,
		"subtype": "noteOn",
		"time": 199080,
		"track": 5
	},
	{
		"deltaTime": 60,
		"channel": 9,
		"type": "channel",
		"subtype": "noteOff",
		"noteNumber": 42,
		"velocity": 0,
		"time": 199140,
		"track": 5
	},
	{
		"deltaTime": 0,
		"channel": 2,
		"type": "channel",
		"subtype": "noteOff",
		"noteNumber": 56,
		"velocity": 0,
		"time": 199200,
		"track": 4
	},
	{
		"deltaTime": 0,
		"channel": 2,
		"type": "channel",
		"subtype": "noteOff",
		"noteNumber": 52,
		"velocity": 0,
		"time": 199200,
		"track": 4
	},
	{
		"deltaTime": 0,
		"channel": 2,
		"type": "channel",
		"noteNumber": 40,
		"velocity": 127,
		"subtype": "noteOn",
		"time": 199200,
		"track": 4
	},
	{
		"deltaTime": 0,
		"channel": 2,
		"type": "channel",
		"noteNumber": 52,
		"velocity": 127,
		"subtype": "noteOn",
		"time": 199200,
		"track": 4
	},
	{
		"deltaTime": 0,
		"channel": 2,
		"type": "channel",
		"noteNumber": 56,
		"velocity": 127,
		"subtype": "noteOn",
		"time": 199200,
		"track": 4
	},
	{
		"deltaTime": 0,
		"channel": 2,
		"type": "channel",
		"noteNumber": 59,
		"velocity": 127,
		"subtype": "noteOn",
		"time": 199200,
		"track": 4
	},
	{
		"deltaTime": 0,
		"channel": 9,
		"type": "channel",
		"noteNumber": 42,
		"velocity": 127,
		"subtype": "noteOn",
		"time": 199200,
		"track": 5
	},
	{
		"deltaTime": 0,
		"channel": 9,
		"type": "channel",
		"noteNumber": 40,
		"velocity": 127,
		"subtype": "noteOn",
		"time": 199200,
		"track": 5
	},
	{
		"deltaTime": 60,
		"channel": 9,
		"type": "channel",
		"noteNumber": 38,
		"velocity": 127,
		"subtype": "noteOn",
		"time": 199200,
		"track": 5
	},
	{
		"deltaTime": 0,
		"channel": 9,
		"type": "channel",
		"subtype": "noteOff",
		"noteNumber": 38,
		"velocity": 0,
		"time": 199260,
		"track": 5
	},
	{
		"deltaTime": 0,
		"channel": 9,
		"type": "channel",
		"subtype": "noteOff",
		"noteNumber": 40,
		"velocity": 0,
		"time": 199260,
		"track": 5
	},
	{
		"deltaTime": 60,
		"channel": 9,
		"type": "channel",
		"subtype": "noteOff",
		"noteNumber": 42,
		"velocity": 0,
		"time": 199260,
		"track": 5
	},
	{
		"deltaTime": 0,
		"channel": 1,
		"type": "channel",
		"subtype": "noteOff",
		"noteNumber": 61,
		"velocity": 0,
		"time": 199320,
		"track": 3
	},
	{
		"deltaTime": 0,
		"channel": 1,
		"type": "channel",
		"noteNumber": 59,
		"velocity": 127,
		"subtype": "noteOn",
		"time": 199320,
		"track": 3
	},
	{
		"deltaTime": 60,
		"channel": 9,
		"type": "channel",
		"noteNumber": 42,
		"velocity": 127,
		"subtype": "noteOn",
		"time": 199320,
		"track": 5
	},
	{
		"deltaTime": 60,
		"channel": 9,
		"type": "channel",
		"subtype": "noteOff",
		"noteNumber": 42,
		"velocity": 0,
		"time": 199380,
		"track": 5
	},
	{
		"deltaTime": 60,
		"channel": 9,
		"type": "channel",
		"noteNumber": 42,
		"velocity": 127,
		"subtype": "noteOn",
		"time": 199440,
		"track": 5
	},
	{
		"deltaTime": 60,
		"channel": 9,
		"type": "channel",
		"subtype": "noteOff",
		"noteNumber": 42,
		"velocity": 0,
		"time": 199500,
		"track": 5
	},
	{
		"deltaTime": 0,
		"channel": 1,
		"type": "channel",
		"subtype": "noteOff",
		"noteNumber": 59,
		"velocity": 0,
		"time": 199560,
		"track": 3
	},
	{
		"deltaTime": 0,
		"channel": 1,
		"type": "channel",
		"noteNumber": 63,
		"velocity": 127,
		"subtype": "noteOn",
		"time": 199560,
		"track": 3
	},
	{
		"deltaTime": 60,
		"channel": 9,
		"type": "channel",
		"noteNumber": 42,
		"velocity": 127,
		"subtype": "noteOn",
		"time": 199560,
		"track": 5
	},
	{
		"deltaTime": 60,
		"channel": 9,
		"type": "channel",
		"subtype": "noteOff",
		"noteNumber": 42,
		"velocity": 0,
		"time": 199620,
		"track": 5
	},
	{
		"deltaTime": 0,
		"channel": 0,
		"type": "channel",
		"subtype": "noteOff",
		"noteNumber": 40,
		"velocity": 0,
		"time": 199680,
		"track": 2
	},
	{
		"deltaTime": 0,
		"channel": 0,
		"type": "channel",
		"noteNumber": 42,
		"velocity": 127,
		"subtype": "noteOn",
		"time": 199680,
		"track": 2
	},
	{
		"deltaTime": 0,
		"channel": 1,
		"type": "channel",
		"subtype": "noteOff",
		"noteNumber": 63,
		"velocity": 0,
		"time": 199680,
		"track": 3
	},
	{
		"deltaTime": 0,
		"channel": 1,
		"type": "channel",
		"noteNumber": 59,
		"velocity": 127,
		"subtype": "noteOn",
		"time": 199680,
		"track": 3
	},
	{
		"deltaTime": 0,
		"channel": 2,
		"type": "channel",
		"subtype": "noteOff",
		"noteNumber": 59,
		"velocity": 0,
		"time": 199680,
		"track": 4
	},
	{
		"deltaTime": 0,
		"channel": 2,
		"type": "channel",
		"subtype": "noteOff",
		"noteNumber": 56,
		"velocity": 0,
		"time": 199680,
		"track": 4
	},
	{
		"deltaTime": 0,
		"channel": 2,
		"type": "channel",
		"subtype": "noteOff",
		"noteNumber": 52,
		"velocity": 0,
		"time": 199680,
		"track": 4
	},
	{
		"deltaTime": 0,
		"channel": 2,
		"type": "channel",
		"subtype": "noteOff",
		"noteNumber": 40,
		"velocity": 0,
		"time": 199680,
		"track": 4
	},
	{
		"deltaTime": 0,
		"channel": 2,
		"type": "channel",
		"noteNumber": 42,
		"velocity": 127,
		"subtype": "noteOn",
		"time": 199680,
		"track": 4
	},
	{
		"deltaTime": 0,
		"channel": 2,
		"type": "channel",
		"noteNumber": 49,
		"velocity": 127,
		"subtype": "noteOn",
		"time": 199680,
		"track": 4
	},
	{
		"deltaTime": 0,
		"channel": 2,
		"type": "channel",
		"noteNumber": 54,
		"velocity": 127,
		"subtype": "noteOn",
		"time": 199680,
		"track": 4
	},
	{
		"deltaTime": 0,
		"channel": 2,
		"type": "channel",
		"noteNumber": 58,
		"velocity": 127,
		"subtype": "noteOn",
		"time": 199680,
		"track": 4
	},
	{
		"deltaTime": 0,
		"channel": 9,
		"type": "channel",
		"noteNumber": 42,
		"velocity": 127,
		"subtype": "noteOn",
		"time": 199680,
		"track": 5
	},
	{
		"deltaTime": 0,
		"channel": 9,
		"type": "channel",
		"noteNumber": 35,
		"velocity": 127,
		"subtype": "noteOn",
		"time": 199680,
		"track": 5
	},
	{
		"deltaTime": 60,
		"channel": 9,
		"type": "channel",
		"noteNumber": 36,
		"velocity": 127,
		"subtype": "noteOn",
		"time": 199680,
		"track": 5
	},
	{
		"deltaTime": 0,
		"channel": 9,
		"type": "channel",
		"subtype": "noteOff",
		"noteNumber": 36,
		"velocity": 0,
		"time": 199740,
		"track": 5
	},
	{
		"deltaTime": 0,
		"channel": 9,
		"type": "channel",
		"subtype": "noteOff",
		"noteNumber": 35,
		"velocity": 0,
		"time": 199740,
		"track": 5
	},
	{
		"deltaTime": 60,
		"channel": 9,
		"type": "channel",
		"subtype": "noteOff",
		"noteNumber": 42,
		"velocity": 0,
		"time": 199740,
		"track": 5
	},
	{
		"deltaTime": 0,
		"channel": 1,
		"type": "channel",
		"subtype": "noteOff",
		"noteNumber": 59,
		"velocity": 0,
		"time": 199800,
		"track": 3
	},
	{
		"deltaTime": 0,
		"channel": 1,
		"type": "channel",
		"noteNumber": 61,
		"velocity": 127,
		"subtype": "noteOn",
		"time": 199800,
		"track": 3
	},
	{
		"deltaTime": 60,
		"channel": 9,
		"type": "channel",
		"noteNumber": 42,
		"velocity": 127,
		"subtype": "noteOn",
		"time": 199800,
		"track": 5
	},
	{
		"deltaTime": 60,
		"channel": 9,
		"type": "channel",
		"subtype": "noteOff",
		"noteNumber": 42,
		"velocity": 0,
		"time": 199860,
		"track": 5
	},
	{
		"deltaTime": 0,
		"channel": 9,
		"type": "channel",
		"noteNumber": 42,
		"velocity": 127,
		"subtype": "noteOn",
		"time": 199920,
		"track": 5
	},
	{
		"deltaTime": 0,
		"channel": 9,
		"type": "channel",
		"noteNumber": 36,
		"velocity": 127,
		"subtype": "noteOn",
		"time": 199920,
		"track": 5
	},
	{
		"deltaTime": 60,
		"channel": 9,
		"type": "channel",
		"noteNumber": 35,
		"velocity": 127,
		"subtype": "noteOn",
		"time": 199920,
		"track": 5
	},
	{
		"deltaTime": 0,
		"channel": 9,
		"type": "channel",
		"subtype": "noteOff",
		"noteNumber": 35,
		"velocity": 0,
		"time": 199980,
		"track": 5
	},
	{
		"deltaTime": 0,
		"channel": 9,
		"type": "channel",
		"subtype": "noteOff",
		"noteNumber": 36,
		"velocity": 0,
		"time": 199980,
		"track": 5
	},
	{
		"deltaTime": 60,
		"channel": 9,
		"type": "channel",
		"subtype": "noteOff",
		"noteNumber": 42,
		"velocity": 0,
		"time": 199980,
		"track": 5
	},
	{
		"deltaTime": 0,
		"channel": 2,
		"type": "channel",
		"subtype": "noteOff",
		"noteNumber": 58,
		"velocity": 0,
		"time": 200040,
		"track": 4
	},
	{
		"deltaTime": 0,
		"channel": 2,
		"type": "channel",
		"subtype": "noteOff",
		"noteNumber": 54,
		"velocity": 0,
		"time": 200040,
		"track": 4
	},
	{
		"deltaTime": 0,
		"channel": 2,
		"type": "channel",
		"subtype": "noteOff",
		"noteNumber": 49,
		"velocity": 0,
		"time": 200040,
		"track": 4
	},
	{
		"deltaTime": 0,
		"channel": 2,
		"type": "channel",
		"subtype": "noteOff",
		"noteNumber": 42,
		"velocity": 0,
		"time": 200040,
		"track": 4
	},
	{
		"deltaTime": 0,
		"channel": 2,
		"type": "channel",
		"noteNumber": 54,
		"velocity": 127,
		"subtype": "noteOn",
		"time": 200040,
		"track": 4
	},
	{
		"deltaTime": 0,
		"channel": 2,
		"type": "channel",
		"noteNumber": 58,
		"velocity": 127,
		"subtype": "noteOn",
		"time": 200040,
		"track": 4
	},
	{
		"deltaTime": 60,
		"channel": 9,
		"type": "channel",
		"noteNumber": 42,
		"velocity": 127,
		"subtype": "noteOn",
		"time": 200040,
		"track": 5
	},
	{
		"deltaTime": 60,
		"channel": 9,
		"type": "channel",
		"subtype": "noteOff",
		"noteNumber": 42,
		"velocity": 0,
		"time": 200100,
		"track": 5
	},
	{
		"deltaTime": 0,
		"channel": 2,
		"type": "channel",
		"subtype": "noteOff",
		"noteNumber": 58,
		"velocity": 0,
		"time": 200160,
		"track": 4
	},
	{
		"deltaTime": 0,
		"channel": 2,
		"type": "channel",
		"subtype": "noteOff",
		"noteNumber": 54,
		"velocity": 0,
		"time": 200160,
		"track": 4
	},
	{
		"deltaTime": 0,
		"channel": 2,
		"type": "channel",
		"noteNumber": 42,
		"velocity": 127,
		"subtype": "noteOn",
		"time": 200160,
		"track": 4
	},
	{
		"deltaTime": 0,
		"channel": 2,
		"type": "channel",
		"noteNumber": 49,
		"velocity": 127,
		"subtype": "noteOn",
		"time": 200160,
		"track": 4
	},
	{
		"deltaTime": 0,
		"channel": 2,
		"type": "channel",
		"noteNumber": 58,
		"velocity": 127,
		"subtype": "noteOn",
		"time": 200160,
		"track": 4
	},
	{
		"deltaTime": 0,
		"channel": 2,
		"type": "channel",
		"noteNumber": 61,
		"velocity": 127,
		"subtype": "noteOn",
		"time": 200160,
		"track": 4
	},
	{
		"deltaTime": 0,
		"channel": 9,
		"type": "channel",
		"noteNumber": 42,
		"velocity": 127,
		"subtype": "noteOn",
		"time": 200160,
		"track": 5
	},
	{
		"deltaTime": 0,
		"channel": 9,
		"type": "channel",
		"noteNumber": 38,
		"velocity": 127,
		"subtype": "noteOn",
		"time": 200160,
		"track": 5
	},
	{
		"deltaTime": 60,
		"channel": 9,
		"type": "channel",
		"noteNumber": 40,
		"velocity": 127,
		"subtype": "noteOn",
		"time": 200160,
		"track": 5
	},
	{
		"deltaTime": 0,
		"channel": 9,
		"type": "channel",
		"subtype": "noteOff",
		"noteNumber": 40,
		"velocity": 0,
		"time": 200220,
		"track": 5
	},
	{
		"deltaTime": 0,
		"channel": 9,
		"type": "channel",
		"subtype": "noteOff",
		"noteNumber": 38,
		"velocity": 0,
		"time": 200220,
		"track": 5
	},
	{
		"deltaTime": 60,
		"channel": 9,
		"type": "channel",
		"subtype": "noteOff",
		"noteNumber": 42,
		"velocity": 0,
		"time": 200220,
		"track": 5
	},
	{
		"deltaTime": 60,
		"channel": 9,
		"type": "channel",
		"noteNumber": 42,
		"velocity": 127,
		"subtype": "noteOn",
		"time": 200280,
		"track": 5
	},
	{
		"deltaTime": 60,
		"channel": 9,
		"type": "channel",
		"subtype": "noteOff",
		"noteNumber": 42,
		"velocity": 0,
		"time": 200340,
		"track": 5
	},
	{
		"deltaTime": 60,
		"channel": 9,
		"type": "channel",
		"noteNumber": 42,
		"velocity": 127,
		"subtype": "noteOn",
		"time": 200400,
		"track": 5
	},
	{
		"deltaTime": 60,
		"channel": 9,
		"type": "channel",
		"subtype": "noteOff",
		"noteNumber": 42,
		"velocity": 0,
		"time": 200460,
		"track": 5
	},
	{
		"deltaTime": 0,
		"channel": 1,
		"type": "channel",
		"subtype": "noteOff",
		"noteNumber": 61,
		"velocity": 0,
		"time": 200520,
		"track": 3
	},
	{
		"deltaTime": 0,
		"channel": 1,
		"type": "channel",
		"noteNumber": 58,
		"velocity": 127,
		"subtype": "noteOn",
		"time": 200520,
		"track": 3
	},
	{
		"deltaTime": 0,
		"channel": 9,
		"type": "channel",
		"noteNumber": 42,
		"velocity": 127,
		"subtype": "noteOn",
		"time": 200520,
		"track": 5
	},
	{
		"deltaTime": 0,
		"channel": 9,
		"type": "channel",
		"noteNumber": 36,
		"velocity": 127,
		"subtype": "noteOn",
		"time": 200520,
		"track": 5
	},
	{
		"deltaTime": 60,
		"channel": 9,
		"type": "channel",
		"noteNumber": 35,
		"velocity": 127,
		"subtype": "noteOn",
		"time": 200520,
		"track": 5
	},
	{
		"deltaTime": 0,
		"channel": 9,
		"type": "channel",
		"subtype": "noteOff",
		"noteNumber": 35,
		"velocity": 0,
		"time": 200580,
		"track": 5
	},
	{
		"deltaTime": 0,
		"channel": 9,
		"type": "channel",
		"subtype": "noteOff",
		"noteNumber": 36,
		"velocity": 0,
		"time": 200580,
		"track": 5
	},
	{
		"deltaTime": 60,
		"channel": 9,
		"type": "channel",
		"subtype": "noteOff",
		"noteNumber": 42,
		"velocity": 0,
		"time": 200580,
		"track": 5
	},
	{
		"deltaTime": 0,
		"channel": 0,
		"type": "channel",
		"subtype": "noteOff",
		"noteNumber": 42,
		"velocity": 0,
		"time": 200640,
		"track": 2
	},
	{
		"deltaTime": 0,
		"channel": 0,
		"type": "channel",
		"noteNumber": 35,
		"velocity": 127,
		"subtype": "noteOn",
		"time": 200640,
		"track": 2
	},
	{
		"deltaTime": 0,
		"channel": 1,
		"type": "channel",
		"subtype": "noteOff",
		"noteNumber": 58,
		"velocity": 0,
		"time": 200640,
		"track": 3
	},
	{
		"deltaTime": 0,
		"channel": 1,
		"type": "channel",
		"noteNumber": 59,
		"velocity": 127,
		"subtype": "noteOn",
		"time": 200640,
		"track": 3
	},
	{
		"deltaTime": 0,
		"channel": 2,
		"type": "channel",
		"subtype": "noteOff",
		"noteNumber": 61,
		"velocity": 0,
		"time": 200640,
		"track": 4
	},
	{
		"deltaTime": 0,
		"channel": 2,
		"type": "channel",
		"subtype": "noteOff",
		"noteNumber": 58,
		"velocity": 0,
		"time": 200640,
		"track": 4
	},
	{
		"deltaTime": 0,
		"channel": 2,
		"type": "channel",
		"subtype": "noteOff",
		"noteNumber": 49,
		"velocity": 0,
		"time": 200640,
		"track": 4
	},
	{
		"deltaTime": 0,
		"channel": 2,
		"type": "channel",
		"subtype": "noteOff",
		"noteNumber": 42,
		"velocity": 0,
		"time": 200640,
		"track": 4
	},
	{
		"deltaTime": 0,
		"channel": 2,
		"type": "channel",
		"noteNumber": 47,
		"velocity": 127,
		"subtype": "noteOn",
		"time": 200640,
		"track": 4
	},
	{
		"deltaTime": 0,
		"channel": 2,
		"type": "channel",
		"noteNumber": 54,
		"velocity": 127,
		"subtype": "noteOn",
		"time": 200640,
		"track": 4
	},
	{
		"deltaTime": 0,
		"channel": 2,
		"type": "channel",
		"noteNumber": 59,
		"velocity": 127,
		"subtype": "noteOn",
		"time": 200640,
		"track": 4
	},
	{
		"deltaTime": 0,
		"channel": 2,
		"type": "channel",
		"noteNumber": 66,
		"velocity": 127,
		"subtype": "noteOn",
		"time": 200640,
		"track": 4
	},
	{
		"deltaTime": 60,
		"channel": 9,
		"type": "channel",
		"noteNumber": 42,
		"velocity": 127,
		"subtype": "noteOn",
		"time": 200640,
		"track": 5
	},
	{
		"deltaTime": 60,
		"channel": 9,
		"type": "channel",
		"subtype": "noteOff",
		"noteNumber": 42,
		"velocity": 0,
		"time": 200700,
		"track": 5
	},
	{
		"deltaTime": 60,
		"channel": 9,
		"type": "channel",
		"noteNumber": 42,
		"velocity": 127,
		"subtype": "noteOn",
		"time": 200760,
		"track": 5
	},
	{
		"deltaTime": 60,
		"channel": 9,
		"type": "channel",
		"subtype": "noteOff",
		"noteNumber": 42,
		"velocity": 0,
		"time": 200820,
		"track": 5
	},
	{
		"deltaTime": 0,
		"channel": 1,
		"type": "channel",
		"subtype": "noteOff",
		"noteNumber": 59,
		"velocity": 0,
		"time": 200880,
		"track": 3
	},
	{
		"deltaTime": 0,
		"channel": 1,
		"type": "channel",
		"noteNumber": 63,
		"velocity": 127,
		"subtype": "noteOn",
		"time": 200880,
		"track": 3
	},
	{
		"deltaTime": 0,
		"channel": 2,
		"type": "channel",
		"subtype": "noteOff",
		"noteNumber": 66,
		"velocity": 0,
		"time": 200880,
		"track": 4
	},
	{
		"deltaTime": 0,
		"channel": 2,
		"type": "channel",
		"subtype": "noteOff",
		"noteNumber": 59,
		"velocity": 0,
		"time": 200880,
		"track": 4
	},
	{
		"deltaTime": 0,
		"channel": 2,
		"type": "channel",
		"subtype": "noteOff",
		"noteNumber": 54,
		"velocity": 0,
		"time": 200880,
		"track": 4
	},
	{
		"deltaTime": 0,
		"channel": 2,
		"type": "channel",
		"subtype": "noteOff",
		"noteNumber": 47,
		"velocity": 0,
		"time": 200880,
		"track": 4
	},
	{
		"deltaTime": 0,
		"channel": 2,
		"type": "channel",
		"noteNumber": 54,
		"velocity": 127,
		"subtype": "noteOn",
		"time": 200880,
		"track": 4
	},
	{
		"deltaTime": 0,
		"channel": 2,
		"type": "channel",
		"noteNumber": 59,
		"velocity": 127,
		"subtype": "noteOn",
		"time": 200880,
		"track": 4
	},
	{
		"deltaTime": 0,
		"channel": 2,
		"type": "channel",
		"noteNumber": 63,
		"velocity": 127,
		"subtype": "noteOn",
		"time": 200880,
		"track": 4
	},
	{
		"deltaTime": 0,
		"channel": 9,
		"type": "channel",
		"noteNumber": 42,
		"velocity": 127,
		"subtype": "noteOn",
		"time": 200880,
		"track": 5
	},
	{
		"deltaTime": 0,
		"channel": 9,
		"type": "channel",
		"noteNumber": 36,
		"velocity": 127,
		"subtype": "noteOn",
		"time": 200880,
		"track": 5
	},
	{
		"deltaTime": 60,
		"channel": 9,
		"type": "channel",
		"noteNumber": 35,
		"velocity": 127,
		"subtype": "noteOn",
		"time": 200880,
		"track": 5
	},
	{
		"deltaTime": 0,
		"channel": 9,
		"type": "channel",
		"subtype": "noteOff",
		"noteNumber": 35,
		"velocity": 0,
		"time": 200940,
		"track": 5
	},
	{
		"deltaTime": 0,
		"channel": 9,
		"type": "channel",
		"subtype": "noteOff",
		"noteNumber": 36,
		"velocity": 0,
		"time": 200940,
		"track": 5
	},
	{
		"deltaTime": 60,
		"channel": 9,
		"type": "channel",
		"subtype": "noteOff",
		"noteNumber": 42,
		"velocity": 0,
		"time": 200940,
		"track": 5
	},
	{
		"deltaTime": 0,
		"channel": 1,
		"type": "channel",
		"subtype": "noteOff",
		"noteNumber": 63,
		"velocity": 0,
		"time": 201000,
		"track": 3
	},
	{
		"deltaTime": 0,
		"channel": 1,
		"type": "channel",
		"noteNumber": 58,
		"velocity": 127,
		"subtype": "noteOn",
		"time": 201000,
		"track": 3
	},
	{
		"deltaTime": 60,
		"channel": 9,
		"type": "channel",
		"noteNumber": 42,
		"velocity": 127,
		"subtype": "noteOn",
		"time": 201000,
		"track": 5
	},
	{
		"deltaTime": 60,
		"channel": 9,
		"type": "channel",
		"subtype": "noteOff",
		"noteNumber": 42,
		"velocity": 0,
		"time": 201060,
		"track": 5
	},
	{
		"deltaTime": 0,
		"channel": 0,
		"type": "channel",
		"subtype": "noteOff",
		"noteNumber": 35,
		"velocity": 0,
		"time": 201120,
		"track": 2
	},
	{
		"deltaTime": 0,
		"channel": 0,
		"type": "channel",
		"noteNumber": 34,
		"velocity": 127,
		"subtype": "noteOn",
		"time": 201120,
		"track": 2
	},
	{
		"deltaTime": 0,
		"channel": 2,
		"type": "channel",
		"subtype": "noteOff",
		"noteNumber": 63,
		"velocity": 0,
		"time": 201120,
		"track": 4
	},
	{
		"deltaTime": 0,
		"channel": 2,
		"type": "channel",
		"subtype": "noteOff",
		"noteNumber": 59,
		"velocity": 0,
		"time": 201120,
		"track": 4
	},
	{
		"deltaTime": 0,
		"channel": 2,
		"type": "channel",
		"subtype": "noteOff",
		"noteNumber": 54,
		"velocity": 0,
		"time": 201120,
		"track": 4
	},
	{
		"deltaTime": 0,
		"channel": 2,
		"type": "channel",
		"noteNumber": 46,
		"velocity": 127,
		"subtype": "noteOn",
		"time": 201120,
		"track": 4
	},
	{
		"deltaTime": 0,
		"channel": 2,
		"type": "channel",
		"noteNumber": 54,
		"velocity": 127,
		"subtype": "noteOn",
		"time": 201120,
		"track": 4
	},
	{
		"deltaTime": 0,
		"channel": 9,
		"type": "channel",
		"noteNumber": 42,
		"velocity": 127,
		"subtype": "noteOn",
		"time": 201120,
		"track": 5
	},
	{
		"deltaTime": 0,
		"channel": 9,
		"type": "channel",
		"noteNumber": 40,
		"velocity": 127,
		"subtype": "noteOn",
		"time": 201120,
		"track": 5
	},
	{
		"deltaTime": 60,
		"channel": 9,
		"type": "channel",
		"noteNumber": 38,
		"velocity": 127,
		"subtype": "noteOn",
		"time": 201120,
		"track": 5
	},
	{
		"deltaTime": 0,
		"channel": 9,
		"type": "channel",
		"subtype": "noteOff",
		"noteNumber": 38,
		"velocity": 0,
		"time": 201180,
		"track": 5
	},
	{
		"deltaTime": 0,
		"channel": 9,
		"type": "channel",
		"subtype": "noteOff",
		"noteNumber": 40,
		"velocity": 0,
		"time": 201180,
		"track": 5
	},
	{
		"deltaTime": 60,
		"channel": 9,
		"type": "channel",
		"subtype": "noteOff",
		"noteNumber": 42,
		"velocity": 0,
		"time": 201180,
		"track": 5
	},
	{
		"deltaTime": 60,
		"channel": 9,
		"type": "channel",
		"noteNumber": 42,
		"velocity": 127,
		"subtype": "noteOn",
		"time": 201240,
		"track": 5
	},
	{
		"deltaTime": 60,
		"channel": 9,
		"type": "channel",
		"subtype": "noteOff",
		"noteNumber": 42,
		"velocity": 0,
		"time": 201300,
		"track": 5
	},
	{
		"deltaTime": 0,
		"channel": 1,
		"type": "channel",
		"subtype": "noteOff",
		"noteNumber": 58,
		"velocity": 0,
		"time": 201360,
		"track": 3
	},
	{
		"deltaTime": 0,
		"channel": 1,
		"type": "channel",
		"noteNumber": 63,
		"velocity": 127,
		"subtype": "noteOn",
		"time": 201360,
		"track": 3
	},
	{
		"deltaTime": 0,
		"channel": 2,
		"type": "channel",
		"subtype": "noteOff",
		"noteNumber": 54,
		"velocity": 0,
		"time": 201360,
		"track": 4
	},
	{
		"deltaTime": 0,
		"channel": 2,
		"type": "channel",
		"subtype": "noteOff",
		"noteNumber": 46,
		"velocity": 0,
		"time": 201360,
		"track": 4
	},
	{
		"deltaTime": 0,
		"channel": 2,
		"type": "channel",
		"noteNumber": 54,
		"velocity": 127,
		"subtype": "noteOn",
		"time": 201360,
		"track": 4
	},
	{
		"deltaTime": 0,
		"channel": 2,
		"type": "channel",
		"noteNumber": 59,
		"velocity": 127,
		"subtype": "noteOn",
		"time": 201360,
		"track": 4
	},
	{
		"deltaTime": 0,
		"channel": 2,
		"type": "channel",
		"noteNumber": 63,
		"velocity": 127,
		"subtype": "noteOn",
		"time": 201360,
		"track": 4
	},
	{
		"deltaTime": 60,
		"channel": 9,
		"type": "channel",
		"noteNumber": 42,
		"velocity": 127,
		"subtype": "noteOn",
		"time": 201360,
		"track": 5
	},
	{
		"deltaTime": 60,
		"channel": 9,
		"type": "channel",
		"subtype": "noteOff",
		"noteNumber": 42,
		"velocity": 0,
		"time": 201420,
		"track": 5
	},
	{
		"deltaTime": 0,
		"channel": 1,
		"type": "channel",
		"subtype": "noteOff",
		"noteNumber": 63,
		"velocity": 0,
		"time": 201480,
		"track": 3
	},
	{
		"deltaTime": 0,
		"channel": 1,
		"type": "channel",
		"noteNumber": 56,
		"velocity": 127,
		"subtype": "noteOn",
		"time": 201480,
		"track": 3
	},
	{
		"deltaTime": 60,
		"channel": 9,
		"type": "channel",
		"noteNumber": 42,
		"velocity": 127,
		"subtype": "noteOn",
		"time": 201480,
		"track": 5
	},
	{
		"deltaTime": 60,
		"channel": 9,
		"type": "channel",
		"subtype": "noteOff",
		"noteNumber": 42,
		"velocity": 0,
		"time": 201540,
		"track": 5
	},
	{
		"deltaTime": 0,
		"channel": 0,
		"type": "channel",
		"subtype": "noteOff",
		"noteNumber": 34,
		"velocity": 0,
		"time": 201600,
		"track": 2
	},
	{
		"deltaTime": 0,
		"channel": 0,
		"type": "channel",
		"noteNumber": 32,
		"velocity": 127,
		"subtype": "noteOn",
		"time": 201600,
		"track": 2
	},
	{
		"deltaTime": 0,
		"channel": 2,
		"type": "channel",
		"subtype": "noteOff",
		"noteNumber": 63,
		"velocity": 0,
		"time": 201600,
		"track": 4
	},
	{
		"deltaTime": 0,
		"channel": 2,
		"type": "channel",
		"subtype": "noteOff",
		"noteNumber": 59,
		"velocity": 0,
		"time": 201600,
		"track": 4
	},
	{
		"deltaTime": 0,
		"channel": 2,
		"type": "channel",
		"subtype": "noteOff",
		"noteNumber": 54,
		"velocity": 0,
		"time": 201600,
		"track": 4
	},
	{
		"deltaTime": 0,
		"channel": 2,
		"type": "channel",
		"noteNumber": 44,
		"velocity": 127,
		"subtype": "noteOn",
		"time": 201600,
		"track": 4
	},
	{
		"deltaTime": 0,
		"channel": 2,
		"type": "channel",
		"noteNumber": 51,
		"velocity": 127,
		"subtype": "noteOn",
		"time": 201600,
		"track": 4
	},
	{
		"deltaTime": 0,
		"channel": 2,
		"type": "channel",
		"noteNumber": 56,
		"velocity": 127,
		"subtype": "noteOn",
		"time": 201600,
		"track": 4
	},
	{
		"deltaTime": 0,
		"channel": 2,
		"type": "channel",
		"noteNumber": 59,
		"velocity": 127,
		"subtype": "noteOn",
		"time": 201600,
		"track": 4
	},
	{
		"deltaTime": 0,
		"channel": 2,
		"type": "channel",
		"noteNumber": 63,
		"velocity": 127,
		"subtype": "noteOn",
		"time": 201600,
		"track": 4
	},
	{
		"deltaTime": 0,
		"channel": 9,
		"type": "channel",
		"noteNumber": 42,
		"velocity": 127,
		"subtype": "noteOn",
		"time": 201600,
		"track": 5
	},
	{
		"deltaTime": 0,
		"channel": 9,
		"type": "channel",
		"noteNumber": 35,
		"velocity": 127,
		"subtype": "noteOn",
		"time": 201600,
		"track": 5
	},
	{
		"deltaTime": 60,
		"channel": 9,
		"type": "channel",
		"noteNumber": 36,
		"velocity": 127,
		"subtype": "noteOn",
		"time": 201600,
		"track": 5
	},
	{
		"deltaTime": 0,
		"channel": 9,
		"type": "channel",
		"subtype": "noteOff",
		"noteNumber": 36,
		"velocity": 0,
		"time": 201660,
		"track": 5
	},
	{
		"deltaTime": 0,
		"channel": 9,
		"type": "channel",
		"subtype": "noteOff",
		"noteNumber": 35,
		"velocity": 0,
		"time": 201660,
		"track": 5
	},
	{
		"deltaTime": 60,
		"channel": 9,
		"type": "channel",
		"subtype": "noteOff",
		"noteNumber": 42,
		"velocity": 0,
		"time": 201660,
		"track": 5
	},
	{
		"deltaTime": 60,
		"channel": 9,
		"type": "channel",
		"noteNumber": 42,
		"velocity": 127,
		"subtype": "noteOn",
		"time": 201720,
		"track": 5
	},
	{
		"deltaTime": 60,
		"channel": 9,
		"type": "channel",
		"subtype": "noteOff",
		"noteNumber": 42,
		"velocity": 0,
		"time": 201780,
		"track": 5
	},
	{
		"deltaTime": 0,
		"channel": 1,
		"type": "channel",
		"subtype": "noteOff",
		"noteNumber": 56,
		"velocity": 0,
		"time": 201840,
		"track": 3
	},
	{
		"deltaTime": 0,
		"channel": 9,
		"type": "channel",
		"noteNumber": 42,
		"velocity": 127,
		"subtype": "noteOn",
		"time": 201840,
		"track": 5
	},
	{
		"deltaTime": 0,
		"channel": 9,
		"type": "channel",
		"noteNumber": 36,
		"velocity": 127,
		"subtype": "noteOn",
		"time": 201840,
		"track": 5
	},
	{
		"deltaTime": 60,
		"channel": 9,
		"type": "channel",
		"noteNumber": 35,
		"velocity": 127,
		"subtype": "noteOn",
		"time": 201840,
		"track": 5
	},
	{
		"deltaTime": 0,
		"channel": 9,
		"type": "channel",
		"subtype": "noteOff",
		"noteNumber": 35,
		"velocity": 0,
		"time": 201900,
		"track": 5
	},
	{
		"deltaTime": 0,
		"channel": 9,
		"type": "channel",
		"subtype": "noteOff",
		"noteNumber": 36,
		"velocity": 0,
		"time": 201900,
		"track": 5
	},
	{
		"deltaTime": 60,
		"channel": 9,
		"type": "channel",
		"subtype": "noteOff",
		"noteNumber": 42,
		"velocity": 0,
		"time": 201900,
		"track": 5
	},
	{
		"deltaTime": 0,
		"channel": 1,
		"type": "channel",
		"noteNumber": 56,
		"velocity": 127,
		"subtype": "noteOn",
		"time": 201960,
		"track": 3
	},
	{
		"deltaTime": 0,
		"channel": 2,
		"type": "channel",
		"subtype": "noteOff",
		"noteNumber": 63,
		"velocity": 0,
		"time": 201960,
		"track": 4
	},
	{
		"deltaTime": 0,
		"channel": 2,
		"type": "channel",
		"subtype": "noteOff",
		"noteNumber": 59,
		"velocity": 0,
		"time": 201960,
		"track": 4
	},
	{
		"deltaTime": 0,
		"channel": 2,
		"type": "channel",
		"subtype": "noteOff",
		"noteNumber": 56,
		"velocity": 0,
		"time": 201960,
		"track": 4
	},
	{
		"deltaTime": 0,
		"channel": 2,
		"type": "channel",
		"subtype": "noteOff",
		"noteNumber": 51,
		"velocity": 0,
		"time": 201960,
		"track": 4
	},
	{
		"deltaTime": 0,
		"channel": 2,
		"type": "channel",
		"subtype": "noteOff",
		"noteNumber": 44,
		"velocity": 0,
		"time": 201960,
		"track": 4
	},
	{
		"deltaTime": 0,
		"channel": 2,
		"type": "channel",
		"noteNumber": 56,
		"velocity": 127,
		"subtype": "noteOn",
		"time": 201960,
		"track": 4
	},
	{
		"deltaTime": 0,
		"channel": 2,
		"type": "channel",
		"noteNumber": 59,
		"velocity": 127,
		"subtype": "noteOn",
		"time": 201960,
		"track": 4
	},
	{
		"deltaTime": 60,
		"channel": 9,
		"type": "channel",
		"noteNumber": 42,
		"velocity": 127,
		"subtype": "noteOn",
		"time": 201960,
		"track": 5
	},
	{
		"deltaTime": 60,
		"channel": 9,
		"type": "channel",
		"subtype": "noteOff",
		"noteNumber": 42,
		"velocity": 0,
		"time": 202020,
		"track": 5
	},
	{
		"deltaTime": 0,
		"channel": 1,
		"type": "channel",
		"subtype": "noteOff",
		"noteNumber": 56,
		"velocity": 0,
		"time": 202080,
		"track": 3
	},
	{
		"deltaTime": 0,
		"channel": 1,
		"type": "channel",
		"noteNumber": 63,
		"velocity": 127,
		"subtype": "noteOn",
		"time": 202080,
		"track": 3
	},
	{
		"deltaTime": 0,
		"channel": 2,
		"type": "channel",
		"subtype": "noteOff",
		"noteNumber": 59,
		"velocity": 0,
		"time": 202080,
		"track": 4
	},
	{
		"deltaTime": 0,
		"channel": 2,
		"type": "channel",
		"subtype": "noteOff",
		"noteNumber": 56,
		"velocity": 0,
		"time": 202080,
		"track": 4
	},
	{
		"deltaTime": 0,
		"channel": 2,
		"type": "channel",
		"noteNumber": 51,
		"velocity": 127,
		"subtype": "noteOn",
		"time": 202080,
		"track": 4
	},
	{
		"deltaTime": 0,
		"channel": 2,
		"type": "channel",
		"noteNumber": 59,
		"velocity": 127,
		"subtype": "noteOn",
		"time": 202080,
		"track": 4
	},
	{
		"deltaTime": 0,
		"channel": 2,
		"type": "channel",
		"noteNumber": 63,
		"velocity": 127,
		"subtype": "noteOn",
		"time": 202080,
		"track": 4
	},
	{
		"deltaTime": 0,
		"channel": 9,
		"type": "channel",
		"noteNumber": 42,
		"velocity": 127,
		"subtype": "noteOn",
		"time": 202080,
		"track": 5
	},
	{
		"deltaTime": 0,
		"channel": 9,
		"type": "channel",
		"noteNumber": 38,
		"velocity": 127,
		"subtype": "noteOn",
		"time": 202080,
		"track": 5
	},
	{
		"deltaTime": 60,
		"channel": 9,
		"type": "channel",
		"noteNumber": 40,
		"velocity": 127,
		"subtype": "noteOn",
		"time": 202080,
		"track": 5
	},
	{
		"deltaTime": 0,
		"channel": 9,
		"type": "channel",
		"subtype": "noteOff",
		"noteNumber": 40,
		"velocity": 0,
		"time": 202140,
		"track": 5
	},
	{
		"deltaTime": 0,
		"channel": 9,
		"type": "channel",
		"subtype": "noteOff",
		"noteNumber": 38,
		"velocity": 0,
		"time": 202140,
		"track": 5
	},
	{
		"deltaTime": 60,
		"channel": 9,
		"type": "channel",
		"subtype": "noteOff",
		"noteNumber": 42,
		"velocity": 0,
		"time": 202140,
		"track": 5
	},
	{
		"deltaTime": 0,
		"channel": 1,
		"type": "channel",
		"subtype": "noteOff",
		"noteNumber": 63,
		"velocity": 0,
		"time": 202200,
		"track": 3
	},
	{
		"deltaTime": 0,
		"channel": 1,
		"type": "channel",
		"noteNumber": 63,
		"velocity": 127,
		"subtype": "noteOn",
		"time": 202200,
		"track": 3
	},
	{
		"deltaTime": 60,
		"channel": 9,
		"type": "channel",
		"noteNumber": 42,
		"velocity": 127,
		"subtype": "noteOn",
		"time": 202200,
		"track": 5
	},
	{
		"deltaTime": 60,
		"channel": 9,
		"type": "channel",
		"subtype": "noteOff",
		"noteNumber": 42,
		"velocity": 0,
		"time": 202260,
		"track": 5
	},
	{
		"deltaTime": 60,
		"channel": 9,
		"type": "channel",
		"noteNumber": 42,
		"velocity": 127,
		"subtype": "noteOn",
		"time": 202320,
		"track": 5
	},
	{
		"deltaTime": 60,
		"channel": 9,
		"type": "channel",
		"subtype": "noteOff",
		"noteNumber": 42,
		"velocity": 0,
		"time": 202380,
		"track": 5
	},
	{
		"deltaTime": 0,
		"channel": 1,
		"type": "channel",
		"subtype": "noteOff",
		"noteNumber": 63,
		"velocity": 0,
		"time": 202440,
		"track": 3
	},
	{
		"deltaTime": 0,
		"channel": 1,
		"type": "channel",
		"noteNumber": 63,
		"velocity": 127,
		"subtype": "noteOn",
		"time": 202440,
		"track": 3
	},
	{
		"deltaTime": 0,
		"channel": 9,
		"type": "channel",
		"noteNumber": 42,
		"velocity": 127,
		"subtype": "noteOn",
		"time": 202440,
		"track": 5
	},
	{
		"deltaTime": 0,
		"channel": 9,
		"type": "channel",
		"noteNumber": 36,
		"velocity": 127,
		"subtype": "noteOn",
		"time": 202440,
		"track": 5
	},
	{
		"deltaTime": 60,
		"channel": 9,
		"type": "channel",
		"noteNumber": 35,
		"velocity": 127,
		"subtype": "noteOn",
		"time": 202440,
		"track": 5
	},
	{
		"deltaTime": 0,
		"channel": 9,
		"type": "channel",
		"subtype": "noteOff",
		"noteNumber": 35,
		"velocity": 0,
		"time": 202500,
		"track": 5
	},
	{
		"deltaTime": 0,
		"channel": 9,
		"type": "channel",
		"subtype": "noteOff",
		"noteNumber": 36,
		"velocity": 0,
		"time": 202500,
		"track": 5
	},
	{
		"deltaTime": 60,
		"channel": 9,
		"type": "channel",
		"subtype": "noteOff",
		"noteNumber": 42,
		"velocity": 0,
		"time": 202500,
		"track": 5
	},
	{
		"deltaTime": 0,
		"channel": 0,
		"type": "channel",
		"subtype": "noteOff",
		"noteNumber": 32,
		"velocity": 0,
		"time": 202560,
		"track": 2
	},
	{
		"deltaTime": 0,
		"channel": 0,
		"type": "channel",
		"noteNumber": 40,
		"velocity": 127,
		"subtype": "noteOn",
		"time": 202560,
		"track": 2
	},
	{
		"deltaTime": 0,
		"channel": 2,
		"type": "channel",
		"subtype": "noteOff",
		"noteNumber": 63,
		"velocity": 0,
		"time": 202560,
		"track": 4
	},
	{
		"deltaTime": 0,
		"channel": 2,
		"type": "channel",
		"subtype": "noteOff",
		"noteNumber": 59,
		"velocity": 0,
		"time": 202560,
		"track": 4
	},
	{
		"deltaTime": 0,
		"channel": 2,
		"type": "channel",
		"subtype": "noteOff",
		"noteNumber": 51,
		"velocity": 0,
		"time": 202560,
		"track": 4
	},
	{
		"deltaTime": 0,
		"channel": 2,
		"type": "channel",
		"noteNumber": 40,
		"velocity": 127,
		"subtype": "noteOn",
		"time": 202560,
		"track": 4
	},
	{
		"deltaTime": 0,
		"channel": 2,
		"type": "channel",
		"noteNumber": 47,
		"velocity": 127,
		"subtype": "noteOn",
		"time": 202560,
		"track": 4
	},
	{
		"deltaTime": 0,
		"channel": 2,
		"type": "channel",
		"noteNumber": 52,
		"velocity": 127,
		"subtype": "noteOn",
		"time": 202560,
		"track": 4
	},
	{
		"deltaTime": 0,
		"channel": 2,
		"type": "channel",
		"noteNumber": 56,
		"velocity": 127,
		"subtype": "noteOn",
		"time": 202560,
		"track": 4
	},
	{
		"deltaTime": 60,
		"channel": 9,
		"type": "channel",
		"noteNumber": 42,
		"velocity": 127,
		"subtype": "noteOn",
		"time": 202560,
		"track": 5
	},
	{
		"deltaTime": 60,
		"channel": 9,
		"type": "channel",
		"subtype": "noteOff",
		"noteNumber": 42,
		"velocity": 0,
		"time": 202620,
		"track": 5
	},
	{
		"deltaTime": 0,
		"channel": 1,
		"type": "channel",
		"subtype": "noteOff",
		"noteNumber": 63,
		"velocity": 0,
		"time": 202680,
		"track": 3
	},
	{
		"deltaTime": 0,
		"channel": 1,
		"type": "channel",
		"noteNumber": 64,
		"velocity": 127,
		"subtype": "noteOn",
		"time": 202680,
		"track": 3
	},
	{
		"deltaTime": 60,
		"channel": 9,
		"type": "channel",
		"noteNumber": 42,
		"velocity": 127,
		"subtype": "noteOn",
		"time": 202680,
		"track": 5
	},
	{
		"deltaTime": 60,
		"channel": 9,
		"type": "channel",
		"subtype": "noteOff",
		"noteNumber": 42,
		"velocity": 0,
		"time": 202740,
		"track": 5
	},
	{
		"deltaTime": 0,
		"channel": 9,
		"type": "channel",
		"noteNumber": 42,
		"velocity": 127,
		"subtype": "noteOn",
		"time": 202800,
		"track": 5
	},
	{
		"deltaTime": 0,
		"channel": 9,
		"type": "channel",
		"noteNumber": 36,
		"velocity": 127,
		"subtype": "noteOn",
		"time": 202800,
		"track": 5
	},
	{
		"deltaTime": 60,
		"channel": 9,
		"type": "channel",
		"noteNumber": 35,
		"velocity": 127,
		"subtype": "noteOn",
		"time": 202800,
		"track": 5
	},
	{
		"deltaTime": 0,
		"channel": 9,
		"type": "channel",
		"subtype": "noteOff",
		"noteNumber": 35,
		"velocity": 0,
		"time": 202860,
		"track": 5
	},
	{
		"deltaTime": 0,
		"channel": 9,
		"type": "channel",
		"subtype": "noteOff",
		"noteNumber": 36,
		"velocity": 0,
		"time": 202860,
		"track": 5
	},
	{
		"deltaTime": 60,
		"channel": 9,
		"type": "channel",
		"subtype": "noteOff",
		"noteNumber": 42,
		"velocity": 0,
		"time": 202860,
		"track": 5
	},
	{
		"deltaTime": 0,
		"channel": 1,
		"type": "channel",
		"subtype": "noteOff",
		"noteNumber": 64,
		"velocity": 0,
		"time": 202920,
		"track": 3
	},
	{
		"deltaTime": 0,
		"channel": 1,
		"type": "channel",
		"noteNumber": 61,
		"velocity": 127,
		"subtype": "noteOn",
		"time": 202920,
		"track": 3
	},
	{
		"deltaTime": 0,
		"channel": 2,
		"type": "channel",
		"subtype": "noteOff",
		"noteNumber": 56,
		"velocity": 0,
		"time": 202920,
		"track": 4
	},
	{
		"deltaTime": 0,
		"channel": 2,
		"type": "channel",
		"subtype": "noteOff",
		"noteNumber": 52,
		"velocity": 0,
		"time": 202920,
		"track": 4
	},
	{
		"deltaTime": 0,
		"channel": 2,
		"type": "channel",
		"subtype": "noteOff",
		"noteNumber": 47,
		"velocity": 0,
		"time": 202920,
		"track": 4
	},
	{
		"deltaTime": 0,
		"channel": 2,
		"type": "channel",
		"subtype": "noteOff",
		"noteNumber": 40,
		"velocity": 0,
		"time": 202920,
		"track": 4
	},
	{
		"deltaTime": 0,
		"channel": 2,
		"type": "channel",
		"noteNumber": 52,
		"velocity": 127,
		"subtype": "noteOn",
		"time": 202920,
		"track": 4
	},
	{
		"deltaTime": 0,
		"channel": 2,
		"type": "channel",
		"noteNumber": 56,
		"velocity": 127,
		"subtype": "noteOn",
		"time": 202920,
		"track": 4
	},
	{
		"deltaTime": 60,
		"channel": 9,
		"type": "channel",
		"noteNumber": 42,
		"velocity": 127,
		"subtype": "noteOn",
		"time": 202920,
		"track": 5
	},
	{
		"deltaTime": 60,
		"channel": 9,
		"type": "channel",
		"subtype": "noteOff",
		"noteNumber": 42,
		"velocity": 0,
		"time": 202980,
		"track": 5
	},
	{
		"deltaTime": 0,
		"channel": 2,
		"type": "channel",
		"subtype": "noteOff",
		"noteNumber": 56,
		"velocity": 0,
		"time": 203040,
		"track": 4
	},
	{
		"deltaTime": 0,
		"channel": 2,
		"type": "channel",
		"subtype": "noteOff",
		"noteNumber": 52,
		"velocity": 0,
		"time": 203040,
		"track": 4
	},
	{
		"deltaTime": 0,
		"channel": 2,
		"type": "channel",
		"noteNumber": 40,
		"velocity": 127,
		"subtype": "noteOn",
		"time": 203040,
		"track": 4
	},
	{
		"deltaTime": 0,
		"channel": 2,
		"type": "channel",
		"noteNumber": 52,
		"velocity": 127,
		"subtype": "noteOn",
		"time": 203040,
		"track": 4
	},
	{
		"deltaTime": 0,
		"channel": 2,
		"type": "channel",
		"noteNumber": 56,
		"velocity": 127,
		"subtype": "noteOn",
		"time": 203040,
		"track": 4
	},
	{
		"deltaTime": 0,
		"channel": 2,
		"type": "channel",
		"noteNumber": 59,
		"velocity": 127,
		"subtype": "noteOn",
		"time": 203040,
		"track": 4
	},
	{
		"deltaTime": 0,
		"channel": 9,
		"type": "channel",
		"noteNumber": 42,
		"velocity": 127,
		"subtype": "noteOn",
		"time": 203040,
		"track": 5
	},
	{
		"deltaTime": 0,
		"channel": 9,
		"type": "channel",
		"noteNumber": 40,
		"velocity": 127,
		"subtype": "noteOn",
		"time": 203040,
		"track": 5
	},
	{
		"deltaTime": 60,
		"channel": 9,
		"type": "channel",
		"noteNumber": 38,
		"velocity": 127,
		"subtype": "noteOn",
		"time": 203040,
		"track": 5
	},
	{
		"deltaTime": 0,
		"channel": 9,
		"type": "channel",
		"subtype": "noteOff",
		"noteNumber": 38,
		"velocity": 0,
		"time": 203100,
		"track": 5
	},
	{
		"deltaTime": 0,
		"channel": 9,
		"type": "channel",
		"subtype": "noteOff",
		"noteNumber": 40,
		"velocity": 0,
		"time": 203100,
		"track": 5
	},
	{
		"deltaTime": 60,
		"channel": 9,
		"type": "channel",
		"subtype": "noteOff",
		"noteNumber": 42,
		"velocity": 0,
		"time": 203100,
		"track": 5
	},
	{
		"deltaTime": 0,
		"channel": 1,
		"type": "channel",
		"subtype": "noteOff",
		"noteNumber": 61,
		"velocity": 0,
		"time": 203160,
		"track": 3
	},
	{
		"deltaTime": 0,
		"channel": 1,
		"type": "channel",
		"noteNumber": 59,
		"velocity": 127,
		"subtype": "noteOn",
		"time": 203160,
		"track": 3
	},
	{
		"deltaTime": 60,
		"channel": 9,
		"type": "channel",
		"noteNumber": 42,
		"velocity": 127,
		"subtype": "noteOn",
		"time": 203160,
		"track": 5
	},
	{
		"deltaTime": 60,
		"channel": 9,
		"type": "channel",
		"subtype": "noteOff",
		"noteNumber": 42,
		"velocity": 0,
		"time": 203220,
		"track": 5
	},
	{
		"deltaTime": 60,
		"channel": 9,
		"type": "channel",
		"noteNumber": 42,
		"velocity": 127,
		"subtype": "noteOn",
		"time": 203280,
		"track": 5
	},
	{
		"deltaTime": 60,
		"channel": 9,
		"type": "channel",
		"subtype": "noteOff",
		"noteNumber": 42,
		"velocity": 0,
		"time": 203340,
		"track": 5
	},
	{
		"deltaTime": 0,
		"channel": 1,
		"type": "channel",
		"subtype": "noteOff",
		"noteNumber": 59,
		"velocity": 0,
		"time": 203400,
		"track": 3
	},
	{
		"deltaTime": 0,
		"channel": 1,
		"type": "channel",
		"noteNumber": 63,
		"velocity": 127,
		"subtype": "noteOn",
		"time": 203400,
		"track": 3
	},
	{
		"deltaTime": 60,
		"channel": 9,
		"type": "channel",
		"noteNumber": 42,
		"velocity": 127,
		"subtype": "noteOn",
		"time": 203400,
		"track": 5
	},
	{
		"deltaTime": 60,
		"channel": 9,
		"type": "channel",
		"subtype": "noteOff",
		"noteNumber": 42,
		"velocity": 0,
		"time": 203460,
		"track": 5
	},
	{
		"deltaTime": 0,
		"channel": 0,
		"type": "channel",
		"subtype": "noteOff",
		"noteNumber": 40,
		"velocity": 0,
		"time": 203520,
		"track": 2
	},
	{
		"deltaTime": 0,
		"channel": 0,
		"type": "channel",
		"noteNumber": 42,
		"velocity": 127,
		"subtype": "noteOn",
		"time": 203520,
		"track": 2
	},
	{
		"deltaTime": 0,
		"channel": 2,
		"type": "channel",
		"subtype": "noteOff",
		"noteNumber": 59,
		"velocity": 0,
		"time": 203520,
		"track": 4
	},
	{
		"deltaTime": 0,
		"channel": 2,
		"type": "channel",
		"subtype": "noteOff",
		"noteNumber": 56,
		"velocity": 0,
		"time": 203520,
		"track": 4
	},
	{
		"deltaTime": 0,
		"channel": 2,
		"type": "channel",
		"subtype": "noteOff",
		"noteNumber": 52,
		"velocity": 0,
		"time": 203520,
		"track": 4
	},
	{
		"deltaTime": 0,
		"channel": 2,
		"type": "channel",
		"subtype": "noteOff",
		"noteNumber": 40,
		"velocity": 0,
		"time": 203520,
		"track": 4
	},
	{
		"deltaTime": 0,
		"channel": 2,
		"type": "channel",
		"noteNumber": 42,
		"velocity": 127,
		"subtype": "noteOn",
		"time": 203520,
		"track": 4
	},
	{
		"deltaTime": 0,
		"channel": 2,
		"type": "channel",
		"noteNumber": 49,
		"velocity": 127,
		"subtype": "noteOn",
		"time": 203520,
		"track": 4
	},
	{
		"deltaTime": 0,
		"channel": 2,
		"type": "channel",
		"noteNumber": 54,
		"velocity": 127,
		"subtype": "noteOn",
		"time": 203520,
		"track": 4
	},
	{
		"deltaTime": 0,
		"channel": 2,
		"type": "channel",
		"noteNumber": 58,
		"velocity": 127,
		"subtype": "noteOn",
		"time": 203520,
		"track": 4
	},
	{
		"deltaTime": 0,
		"channel": 9,
		"type": "channel",
		"noteNumber": 42,
		"velocity": 127,
		"subtype": "noteOn",
		"time": 203520,
		"track": 5
	},
	{
		"deltaTime": 0,
		"channel": 9,
		"type": "channel",
		"noteNumber": 35,
		"velocity": 127,
		"subtype": "noteOn",
		"time": 203520,
		"track": 5
	},
	{
		"deltaTime": 60,
		"channel": 9,
		"type": "channel",
		"noteNumber": 36,
		"velocity": 127,
		"subtype": "noteOn",
		"time": 203520,
		"track": 5
	},
	{
		"deltaTime": 0,
		"channel": 9,
		"type": "channel",
		"subtype": "noteOff",
		"noteNumber": 36,
		"velocity": 0,
		"time": 203580,
		"track": 5
	},
	{
		"deltaTime": 0,
		"channel": 9,
		"type": "channel",
		"subtype": "noteOff",
		"noteNumber": 35,
		"velocity": 0,
		"time": 203580,
		"track": 5
	},
	{
		"deltaTime": 60,
		"channel": 9,
		"type": "channel",
		"subtype": "noteOff",
		"noteNumber": 42,
		"velocity": 0,
		"time": 203580,
		"track": 5
	},
	{
		"deltaTime": 60,
		"channel": 9,
		"type": "channel",
		"noteNumber": 42,
		"velocity": 127,
		"subtype": "noteOn",
		"time": 203640,
		"track": 5
	},
	{
		"deltaTime": 60,
		"channel": 9,
		"type": "channel",
		"subtype": "noteOff",
		"noteNumber": 42,
		"velocity": 0,
		"time": 203700,
		"track": 5
	},
	{
		"deltaTime": 0,
		"channel": 1,
		"type": "channel",
		"subtype": "noteOff",
		"noteNumber": 63,
		"velocity": 0,
		"time": 203760,
		"track": 3
	},
	{
		"deltaTime": 0,
		"channel": 1,
		"type": "channel",
		"noteNumber": 61,
		"velocity": 127,
		"subtype": "noteOn",
		"time": 203760,
		"track": 3
	},
	{
		"deltaTime": 0,
		"channel": 9,
		"type": "channel",
		"noteNumber": 42,
		"velocity": 127,
		"subtype": "noteOn",
		"time": 203760,
		"track": 5
	},
	{
		"deltaTime": 0,
		"channel": 9,
		"type": "channel",
		"noteNumber": 36,
		"velocity": 127,
		"subtype": "noteOn",
		"time": 203760,
		"track": 5
	},
	{
		"deltaTime": 60,
		"channel": 9,
		"type": "channel",
		"noteNumber": 35,
		"velocity": 127,
		"subtype": "noteOn",
		"time": 203760,
		"track": 5
	},
	{
		"deltaTime": 0,
		"channel": 9,
		"type": "channel",
		"subtype": "noteOff",
		"noteNumber": 35,
		"velocity": 0,
		"time": 203820,
		"track": 5
	},
	{
		"deltaTime": 0,
		"channel": 9,
		"type": "channel",
		"subtype": "noteOff",
		"noteNumber": 36,
		"velocity": 0,
		"time": 203820,
		"track": 5
	},
	{
		"deltaTime": 60,
		"channel": 9,
		"type": "channel",
		"subtype": "noteOff",
		"noteNumber": 42,
		"velocity": 0,
		"time": 203820,
		"track": 5
	},
	{
		"deltaTime": 0,
		"channel": 2,
		"type": "channel",
		"subtype": "noteOff",
		"noteNumber": 58,
		"velocity": 0,
		"time": 203880,
		"track": 4
	},
	{
		"deltaTime": 0,
		"channel": 2,
		"type": "channel",
		"subtype": "noteOff",
		"noteNumber": 54,
		"velocity": 0,
		"time": 203880,
		"track": 4
	},
	{
		"deltaTime": 0,
		"channel": 2,
		"type": "channel",
		"subtype": "noteOff",
		"noteNumber": 49,
		"velocity": 0,
		"time": 203880,
		"track": 4
	},
	{
		"deltaTime": 0,
		"channel": 2,
		"type": "channel",
		"subtype": "noteOff",
		"noteNumber": 42,
		"velocity": 0,
		"time": 203880,
		"track": 4
	},
	{
		"deltaTime": 0,
		"channel": 2,
		"type": "channel",
		"noteNumber": 54,
		"velocity": 127,
		"subtype": "noteOn",
		"time": 203880,
		"track": 4
	},
	{
		"deltaTime": 0,
		"channel": 2,
		"type": "channel",
		"noteNumber": 58,
		"velocity": 127,
		"subtype": "noteOn",
		"time": 203880,
		"track": 4
	},
	{
		"deltaTime": 60,
		"channel": 9,
		"type": "channel",
		"noteNumber": 42,
		"velocity": 127,
		"subtype": "noteOn",
		"time": 203880,
		"track": 5
	},
	{
		"deltaTime": 60,
		"channel": 9,
		"type": "channel",
		"subtype": "noteOff",
		"noteNumber": 42,
		"velocity": 0,
		"time": 203940,
		"track": 5
	},
	{
		"deltaTime": 0,
		"channel": 2,
		"type": "channel",
		"subtype": "noteOff",
		"noteNumber": 58,
		"velocity": 0,
		"time": 204000,
		"track": 4
	},
	{
		"deltaTime": 0,
		"channel": 2,
		"type": "channel",
		"subtype": "noteOff",
		"noteNumber": 54,
		"velocity": 0,
		"time": 204000,
		"track": 4
	},
	{
		"deltaTime": 0,
		"channel": 2,
		"type": "channel",
		"noteNumber": 42,
		"velocity": 127,
		"subtype": "noteOn",
		"time": 204000,
		"track": 4
	},
	{
		"deltaTime": 0,
		"channel": 2,
		"type": "channel",
		"noteNumber": 49,
		"velocity": 127,
		"subtype": "noteOn",
		"time": 204000,
		"track": 4
	},
	{
		"deltaTime": 0,
		"channel": 2,
		"type": "channel",
		"noteNumber": 58,
		"velocity": 127,
		"subtype": "noteOn",
		"time": 204000,
		"track": 4
	},
	{
		"deltaTime": 0,
		"channel": 2,
		"type": "channel",
		"noteNumber": 61,
		"velocity": 127,
		"subtype": "noteOn",
		"time": 204000,
		"track": 4
	},
	{
		"deltaTime": 0,
		"channel": 9,
		"type": "channel",
		"noteNumber": 42,
		"velocity": 127,
		"subtype": "noteOn",
		"time": 204000,
		"track": 5
	},
	{
		"deltaTime": 0,
		"channel": 9,
		"type": "channel",
		"noteNumber": 38,
		"velocity": 127,
		"subtype": "noteOn",
		"time": 204000,
		"track": 5
	},
	{
		"deltaTime": 60,
		"channel": 9,
		"type": "channel",
		"noteNumber": 40,
		"velocity": 127,
		"subtype": "noteOn",
		"time": 204000,
		"track": 5
	},
	{
		"deltaTime": 0,
		"channel": 9,
		"type": "channel",
		"subtype": "noteOff",
		"noteNumber": 40,
		"velocity": 0,
		"time": 204060,
		"track": 5
	},
	{
		"deltaTime": 0,
		"channel": 9,
		"type": "channel",
		"subtype": "noteOff",
		"noteNumber": 38,
		"velocity": 0,
		"time": 204060,
		"track": 5
	},
	{
		"deltaTime": 60,
		"channel": 9,
		"type": "channel",
		"subtype": "noteOff",
		"noteNumber": 42,
		"velocity": 0,
		"time": 204060,
		"track": 5
	},
	{
		"deltaTime": 60,
		"channel": 9,
		"type": "channel",
		"noteNumber": 42,
		"velocity": 127,
		"subtype": "noteOn",
		"time": 204120,
		"track": 5
	},
	{
		"deltaTime": 60,
		"channel": 9,
		"type": "channel",
		"subtype": "noteOff",
		"noteNumber": 42,
		"velocity": 0,
		"time": 204180,
		"track": 5
	},
	{
		"deltaTime": 0,
		"channel": 1,
		"type": "channel",
		"subtype": "noteOff",
		"noteNumber": 61,
		"velocity": 0,
		"time": 204240,
		"track": 3
	},
	{
		"deltaTime": 60,
		"channel": 9,
		"type": "channel",
		"noteNumber": 42,
		"velocity": 127,
		"subtype": "noteOn",
		"time": 204240,
		"track": 5
	},
	{
		"deltaTime": 60,
		"channel": 9,
		"type": "channel",
		"subtype": "noteOff",
		"noteNumber": 42,
		"velocity": 0,
		"time": 204300,
		"track": 5
	},
	{
		"deltaTime": 0,
		"channel": 1,
		"type": "channel",
		"noteNumber": 59,
		"velocity": 127,
		"subtype": "noteOn",
		"time": 204360,
		"track": 3
	},
	{
		"deltaTime": 0,
		"channel": 9,
		"type": "channel",
		"noteNumber": 42,
		"velocity": 127,
		"subtype": "noteOn",
		"time": 204360,
		"track": 5
	},
	{
		"deltaTime": 0,
		"channel": 9,
		"type": "channel",
		"noteNumber": 36,
		"velocity": 127,
		"subtype": "noteOn",
		"time": 204360,
		"track": 5
	},
	{
		"deltaTime": 60,
		"channel": 9,
		"type": "channel",
		"noteNumber": 35,
		"velocity": 127,
		"subtype": "noteOn",
		"time": 204360,
		"track": 5
	},
	{
		"deltaTime": 0,
		"channel": 9,
		"type": "channel",
		"subtype": "noteOff",
		"noteNumber": 35,
		"velocity": 0,
		"time": 204420,
		"track": 5
	},
	{
		"deltaTime": 0,
		"channel": 9,
		"type": "channel",
		"subtype": "noteOff",
		"noteNumber": 36,
		"velocity": 0,
		"time": 204420,
		"track": 5
	},
	{
		"deltaTime": 60,
		"channel": 9,
		"type": "channel",
		"subtype": "noteOff",
		"noteNumber": 42,
		"velocity": 0,
		"time": 204420,
		"track": 5
	},
	{
		"deltaTime": 0,
		"channel": 0,
		"type": "channel",
		"subtype": "noteOff",
		"noteNumber": 42,
		"velocity": 0,
		"time": 204480,
		"track": 2
	},
	{
		"deltaTime": 0,
		"channel": 0,
		"type": "channel",
		"noteNumber": 35,
		"velocity": 127,
		"subtype": "noteOn",
		"time": 204480,
		"track": 2
	},
	{
		"deltaTime": 0,
		"channel": 1,
		"type": "channel",
		"subtype": "noteOff",
		"noteNumber": 59,
		"velocity": 0,
		"time": 204480,
		"track": 3
	},
	{
		"deltaTime": 0,
		"channel": 1,
		"type": "channel",
		"noteNumber": 66,
		"velocity": 127,
		"subtype": "noteOn",
		"time": 204480,
		"track": 3
	},
	{
		"deltaTime": 0,
		"channel": 2,
		"type": "channel",
		"subtype": "noteOff",
		"noteNumber": 61,
		"velocity": 0,
		"time": 204480,
		"track": 4
	},
	{
		"deltaTime": 0,
		"channel": 2,
		"type": "channel",
		"subtype": "noteOff",
		"noteNumber": 58,
		"velocity": 0,
		"time": 204480,
		"track": 4
	},
	{
		"deltaTime": 0,
		"channel": 2,
		"type": "channel",
		"subtype": "noteOff",
		"noteNumber": 49,
		"velocity": 0,
		"time": 204480,
		"track": 4
	},
	{
		"deltaTime": 0,
		"channel": 2,
		"type": "channel",
		"subtype": "noteOff",
		"noteNumber": 42,
		"velocity": 0,
		"time": 204480,
		"track": 4
	},
	{
		"deltaTime": 0,
		"channel": 2,
		"type": "channel",
		"noteNumber": 47,
		"velocity": 127,
		"subtype": "noteOn",
		"time": 204480,
		"track": 4
	},
	{
		"deltaTime": 0,
		"channel": 2,
		"type": "channel",
		"noteNumber": 54,
		"velocity": 127,
		"subtype": "noteOn",
		"time": 204480,
		"track": 4
	},
	{
		"deltaTime": 0,
		"channel": 2,
		"type": "channel",
		"noteNumber": 59,
		"velocity": 127,
		"subtype": "noteOn",
		"time": 204480,
		"track": 4
	},
	{
		"deltaTime": 0,
		"channel": 2,
		"type": "channel",
		"noteNumber": 66,
		"velocity": 127,
		"subtype": "noteOn",
		"time": 204480,
		"track": 4
	},
	{
		"deltaTime": 60,
		"channel": 9,
		"type": "channel",
		"noteNumber": 42,
		"velocity": 127,
		"subtype": "noteOn",
		"time": 204480,
		"track": 5
	},
	{
		"deltaTime": 60,
		"channel": 9,
		"type": "channel",
		"subtype": "noteOff",
		"noteNumber": 42,
		"velocity": 0,
		"time": 204540,
		"track": 5
	},
	{
		"deltaTime": 60,
		"channel": 9,
		"type": "channel",
		"noteNumber": 42,
		"velocity": 127,
		"subtype": "noteOn",
		"time": 204600,
		"track": 5
	},
	{
		"deltaTime": 60,
		"channel": 9,
		"type": "channel",
		"subtype": "noteOff",
		"noteNumber": 42,
		"velocity": 0,
		"time": 204660,
		"track": 5
	},
	{
		"deltaTime": 0,
		"channel": 1,
		"type": "channel",
		"subtype": "noteOff",
		"noteNumber": 66,
		"velocity": 0,
		"time": 204720,
		"track": 3
	},
	{
		"deltaTime": 0,
		"channel": 1,
		"type": "channel",
		"noteNumber": 68,
		"velocity": 127,
		"subtype": "noteOn",
		"time": 204720,
		"track": 3
	},
	{
		"deltaTime": 0,
		"channel": 2,
		"type": "channel",
		"subtype": "noteOff",
		"noteNumber": 66,
		"velocity": 0,
		"time": 204720,
		"track": 4
	},
	{
		"deltaTime": 0,
		"channel": 2,
		"type": "channel",
		"subtype": "noteOff",
		"noteNumber": 59,
		"velocity": 0,
		"time": 204720,
		"track": 4
	},
	{
		"deltaTime": 0,
		"channel": 2,
		"type": "channel",
		"subtype": "noteOff",
		"noteNumber": 54,
		"velocity": 0,
		"time": 204720,
		"track": 4
	},
	{
		"deltaTime": 0,
		"channel": 2,
		"type": "channel",
		"subtype": "noteOff",
		"noteNumber": 47,
		"velocity": 0,
		"time": 204720,
		"track": 4
	},
	{
		"deltaTime": 0,
		"channel": 2,
		"type": "channel",
		"noteNumber": 54,
		"velocity": 127,
		"subtype": "noteOn",
		"time": 204720,
		"track": 4
	},
	{
		"deltaTime": 0,
		"channel": 2,
		"type": "channel",
		"noteNumber": 59,
		"velocity": 127,
		"subtype": "noteOn",
		"time": 204720,
		"track": 4
	},
	{
		"deltaTime": 0,
		"channel": 2,
		"type": "channel",
		"noteNumber": 63,
		"velocity": 127,
		"subtype": "noteOn",
		"time": 204720,
		"track": 4
	},
	{
		"deltaTime": 0,
		"channel": 9,
		"type": "channel",
		"noteNumber": 42,
		"velocity": 127,
		"subtype": "noteOn",
		"time": 204720,
		"track": 5
	},
	{
		"deltaTime": 0,
		"channel": 9,
		"type": "channel",
		"noteNumber": 36,
		"velocity": 127,
		"subtype": "noteOn",
		"time": 204720,
		"track": 5
	},
	{
		"deltaTime": 60,
		"channel": 9,
		"type": "channel",
		"noteNumber": 35,
		"velocity": 127,
		"subtype": "noteOn",
		"time": 204720,
		"track": 5
	},
	{
		"deltaTime": 0,
		"channel": 9,
		"type": "channel",
		"subtype": "noteOff",
		"noteNumber": 35,
		"velocity": 0,
		"time": 204780,
		"track": 5
	},
	{
		"deltaTime": 0,
		"channel": 9,
		"type": "channel",
		"subtype": "noteOff",
		"noteNumber": 36,
		"velocity": 0,
		"time": 204780,
		"track": 5
	},
	{
		"deltaTime": 60,
		"channel": 9,
		"type": "channel",
		"subtype": "noteOff",
		"noteNumber": 42,
		"velocity": 0,
		"time": 204780,
		"track": 5
	},
	{
		"deltaTime": 60,
		"channel": 9,
		"type": "channel",
		"noteNumber": 42,
		"velocity": 127,
		"subtype": "noteOn",
		"time": 204840,
		"track": 5
	},
	{
		"deltaTime": 60,
		"channel": 9,
		"type": "channel",
		"subtype": "noteOff",
		"noteNumber": 42,
		"velocity": 0,
		"time": 204900,
		"track": 5
	},
	{
		"deltaTime": 0,
		"channel": 0,
		"type": "channel",
		"subtype": "noteOff",
		"noteNumber": 35,
		"velocity": 0,
		"time": 204960,
		"track": 2
	},
	{
		"deltaTime": 0,
		"channel": 0,
		"type": "channel",
		"noteNumber": 34,
		"velocity": 127,
		"subtype": "noteOn",
		"time": 204960,
		"track": 2
	},
	{
		"deltaTime": 0,
		"channel": 1,
		"type": "channel",
		"subtype": "noteOff",
		"noteNumber": 68,
		"velocity": 0,
		"time": 204960,
		"track": 3
	},
	{
		"deltaTime": 0,
		"channel": 1,
		"type": "channel",
		"noteNumber": 63,
		"velocity": 127,
		"subtype": "noteOn",
		"time": 204960,
		"track": 3
	},
	{
		"deltaTime": 0,
		"channel": 2,
		"type": "channel",
		"subtype": "noteOff",
		"noteNumber": 63,
		"velocity": 0,
		"time": 204960,
		"track": 4
	},
	{
		"deltaTime": 0,
		"channel": 2,
		"type": "channel",
		"subtype": "noteOff",
		"noteNumber": 59,
		"velocity": 0,
		"time": 204960,
		"track": 4
	},
	{
		"deltaTime": 0,
		"channel": 2,
		"type": "channel",
		"subtype": "noteOff",
		"noteNumber": 54,
		"velocity": 0,
		"time": 204960,
		"track": 4
	},
	{
		"deltaTime": 0,
		"channel": 2,
		"type": "channel",
		"noteNumber": 46,
		"velocity": 127,
		"subtype": "noteOn",
		"time": 204960,
		"track": 4
	},
	{
		"deltaTime": 0,
		"channel": 2,
		"type": "channel",
		"noteNumber": 54,
		"velocity": 127,
		"subtype": "noteOn",
		"time": 204960,
		"track": 4
	},
	{
		"deltaTime": 0,
		"channel": 9,
		"type": "channel",
		"noteNumber": 42,
		"velocity": 127,
		"subtype": "noteOn",
		"time": 204960,
		"track": 5
	},
	{
		"deltaTime": 0,
		"channel": 9,
		"type": "channel",
		"noteNumber": 40,
		"velocity": 127,
		"subtype": "noteOn",
		"time": 204960,
		"track": 5
	},
	{
		"deltaTime": 60,
		"channel": 9,
		"type": "channel",
		"noteNumber": 38,
		"velocity": 127,
		"subtype": "noteOn",
		"time": 204960,
		"track": 5
	},
	{
		"deltaTime": 0,
		"channel": 9,
		"type": "channel",
		"subtype": "noteOff",
		"noteNumber": 38,
		"velocity": 0,
		"time": 205020,
		"track": 5
	},
	{
		"deltaTime": 0,
		"channel": 9,
		"type": "channel",
		"subtype": "noteOff",
		"noteNumber": 40,
		"velocity": 0,
		"time": 205020,
		"track": 5
	},
	{
		"deltaTime": 60,
		"channel": 9,
		"type": "channel",
		"subtype": "noteOff",
		"noteNumber": 42,
		"velocity": 0,
		"time": 205020,
		"track": 5
	},
	{
		"deltaTime": 60,
		"channel": 9,
		"type": "channel",
		"noteNumber": 42,
		"velocity": 127,
		"subtype": "noteOn",
		"time": 205080,
		"track": 5
	},
	{
		"deltaTime": 60,
		"channel": 9,
		"type": "channel",
		"subtype": "noteOff",
		"noteNumber": 42,
		"velocity": 0,
		"time": 205140,
		"track": 5
	},
	{
		"deltaTime": 0,
		"channel": 1,
		"type": "channel",
		"subtype": "noteOff",
		"noteNumber": 63,
		"velocity": 0,
		"time": 205200,
		"track": 3
	},
	{
		"deltaTime": 0,
		"channel": 1,
		"type": "channel",
		"noteNumber": 61,
		"velocity": 127,
		"subtype": "noteOn",
		"time": 205200,
		"track": 3
	},
	{
		"deltaTime": 0,
		"channel": 2,
		"type": "channel",
		"subtype": "noteOff",
		"noteNumber": 54,
		"velocity": 0,
		"time": 205200,
		"track": 4
	},
	{
		"deltaTime": 0,
		"channel": 2,
		"type": "channel",
		"subtype": "noteOff",
		"noteNumber": 46,
		"velocity": 0,
		"time": 205200,
		"track": 4
	},
	{
		"deltaTime": 0,
		"channel": 2,
		"type": "channel",
		"noteNumber": 54,
		"velocity": 127,
		"subtype": "noteOn",
		"time": 205200,
		"track": 4
	},
	{
		"deltaTime": 0,
		"channel": 2,
		"type": "channel",
		"noteNumber": 59,
		"velocity": 127,
		"subtype": "noteOn",
		"time": 205200,
		"track": 4
	},
	{
		"deltaTime": 0,
		"channel": 2,
		"type": "channel",
		"noteNumber": 63,
		"velocity": 127,
		"subtype": "noteOn",
		"time": 205200,
		"track": 4
	},
	{
		"deltaTime": 60,
		"channel": 9,
		"type": "channel",
		"noteNumber": 42,
		"velocity": 127,
		"subtype": "noteOn",
		"time": 205200,
		"track": 5
	},
	{
		"deltaTime": 60,
		"channel": 9,
		"type": "channel",
		"subtype": "noteOff",
		"noteNumber": 42,
		"velocity": 0,
		"time": 205260,
		"track": 5
	},
	{
		"deltaTime": 0,
		"channel": 1,
		"type": "channel",
		"subtype": "noteOff",
		"noteNumber": 61,
		"velocity": 0,
		"time": 205320,
		"track": 3
	},
	{
		"deltaTime": 0,
		"channel": 1,
		"type": "channel",
		"noteNumber": 63,
		"velocity": 127,
		"subtype": "noteOn",
		"time": 205320,
		"track": 3
	},
	{
		"deltaTime": 60,
		"channel": 9,
		"type": "channel",
		"noteNumber": 42,
		"velocity": 127,
		"subtype": "noteOn",
		"time": 205320,
		"track": 5
	},
	{
		"deltaTime": 60,
		"channel": 9,
		"type": "channel",
		"subtype": "noteOff",
		"noteNumber": 42,
		"velocity": 0,
		"time": 205380,
		"track": 5
	},
	{
		"deltaTime": 0,
		"channel": 0,
		"type": "channel",
		"subtype": "noteOff",
		"noteNumber": 34,
		"velocity": 0,
		"time": 205440,
		"track": 2
	},
	{
		"deltaTime": 0,
		"channel": 0,
		"type": "channel",
		"noteNumber": 32,
		"velocity": 127,
		"subtype": "noteOn",
		"time": 205440,
		"track": 2
	},
	{
		"deltaTime": 0,
		"channel": 2,
		"type": "channel",
		"subtype": "noteOff",
		"noteNumber": 63,
		"velocity": 0,
		"time": 205440,
		"track": 4
	},
	{
		"deltaTime": 0,
		"channel": 2,
		"type": "channel",
		"subtype": "noteOff",
		"noteNumber": 59,
		"velocity": 0,
		"time": 205440,
		"track": 4
	},
	{
		"deltaTime": 0,
		"channel": 2,
		"type": "channel",
		"subtype": "noteOff",
		"noteNumber": 54,
		"velocity": 0,
		"time": 205440,
		"track": 4
	},
	{
		"deltaTime": 0,
		"channel": 2,
		"type": "channel",
		"noteNumber": 44,
		"velocity": 127,
		"subtype": "noteOn",
		"time": 205440,
		"track": 4
	},
	{
		"deltaTime": 0,
		"channel": 2,
		"type": "channel",
		"noteNumber": 51,
		"velocity": 127,
		"subtype": "noteOn",
		"time": 205440,
		"track": 4
	},
	{
		"deltaTime": 0,
		"channel": 2,
		"type": "channel",
		"noteNumber": 56,
		"velocity": 127,
		"subtype": "noteOn",
		"time": 205440,
		"track": 4
	},
	{
		"deltaTime": 0,
		"channel": 2,
		"type": "channel",
		"noteNumber": 59,
		"velocity": 127,
		"subtype": "noteOn",
		"time": 205440,
		"track": 4
	},
	{
		"deltaTime": 0,
		"channel": 2,
		"type": "channel",
		"noteNumber": 63,
		"velocity": 127,
		"subtype": "noteOn",
		"time": 205440,
		"track": 4
	},
	{
		"deltaTime": 0,
		"channel": 9,
		"type": "channel",
		"noteNumber": 42,
		"velocity": 127,
		"subtype": "noteOn",
		"time": 205440,
		"track": 5
	},
	{
		"deltaTime": 0,
		"channel": 9,
		"type": "channel",
		"noteNumber": 35,
		"velocity": 127,
		"subtype": "noteOn",
		"time": 205440,
		"track": 5
	},
	{
		"deltaTime": 60,
		"channel": 9,
		"type": "channel",
		"noteNumber": 36,
		"velocity": 127,
		"subtype": "noteOn",
		"time": 205440,
		"track": 5
	},
	{
		"deltaTime": 0,
		"channel": 9,
		"type": "channel",
		"subtype": "noteOff",
		"noteNumber": 36,
		"velocity": 0,
		"time": 205500,
		"track": 5
	},
	{
		"deltaTime": 0,
		"channel": 9,
		"type": "channel",
		"subtype": "noteOff",
		"noteNumber": 35,
		"velocity": 0,
		"time": 205500,
		"track": 5
	},
	{
		"deltaTime": 60,
		"channel": 9,
		"type": "channel",
		"subtype": "noteOff",
		"noteNumber": 42,
		"velocity": 0,
		"time": 205500,
		"track": 5
	},
	{
		"deltaTime": 60,
		"channel": 9,
		"type": "channel",
		"noteNumber": 42,
		"velocity": 127,
		"subtype": "noteOn",
		"time": 205560,
		"track": 5
	},
	{
		"deltaTime": 60,
		"channel": 9,
		"type": "channel",
		"subtype": "noteOff",
		"noteNumber": 42,
		"velocity": 0,
		"time": 205620,
		"track": 5
	},
	{
		"deltaTime": 0,
		"channel": 1,
		"type": "channel",
		"subtype": "noteOff",
		"noteNumber": 63,
		"velocity": 0,
		"time": 205680,
		"track": 3
	},
	{
		"deltaTime": 0,
		"channel": 9,
		"type": "channel",
		"noteNumber": 42,
		"velocity": 127,
		"subtype": "noteOn",
		"time": 205680,
		"track": 5
	},
	{
		"deltaTime": 0,
		"channel": 9,
		"type": "channel",
		"noteNumber": 36,
		"velocity": 127,
		"subtype": "noteOn",
		"time": 205680,
		"track": 5
	},
	{
		"deltaTime": 60,
		"channel": 9,
		"type": "channel",
		"noteNumber": 35,
		"velocity": 127,
		"subtype": "noteOn",
		"time": 205680,
		"track": 5
	},
	{
		"deltaTime": 0,
		"channel": 9,
		"type": "channel",
		"subtype": "noteOff",
		"noteNumber": 35,
		"velocity": 0,
		"time": 205740,
		"track": 5
	},
	{
		"deltaTime": 0,
		"channel": 9,
		"type": "channel",
		"subtype": "noteOff",
		"noteNumber": 36,
		"velocity": 0,
		"time": 205740,
		"track": 5
	},
	{
		"deltaTime": 60,
		"channel": 9,
		"type": "channel",
		"subtype": "noteOff",
		"noteNumber": 42,
		"velocity": 0,
		"time": 205740,
		"track": 5
	},
	{
		"deltaTime": 0,
		"channel": 2,
		"type": "channel",
		"subtype": "noteOff",
		"noteNumber": 63,
		"velocity": 0,
		"time": 205800,
		"track": 4
	},
	{
		"deltaTime": 0,
		"channel": 2,
		"type": "channel",
		"subtype": "noteOff",
		"noteNumber": 59,
		"velocity": 0,
		"time": 205800,
		"track": 4
	},
	{
		"deltaTime": 0,
		"channel": 2,
		"type": "channel",
		"subtype": "noteOff",
		"noteNumber": 56,
		"velocity": 0,
		"time": 205800,
		"track": 4
	},
	{
		"deltaTime": 0,
		"channel": 2,
		"type": "channel",
		"subtype": "noteOff",
		"noteNumber": 51,
		"velocity": 0,
		"time": 205800,
		"track": 4
	},
	{
		"deltaTime": 0,
		"channel": 2,
		"type": "channel",
		"subtype": "noteOff",
		"noteNumber": 44,
		"velocity": 0,
		"time": 205800,
		"track": 4
	},
	{
		"deltaTime": 0,
		"channel": 2,
		"type": "channel",
		"noteNumber": 56,
		"velocity": 127,
		"subtype": "noteOn",
		"time": 205800,
		"track": 4
	},
	{
		"deltaTime": 0,
		"channel": 2,
		"type": "channel",
		"noteNumber": 59,
		"velocity": 127,
		"subtype": "noteOn",
		"time": 205800,
		"track": 4
	},
	{
		"deltaTime": 60,
		"channel": 9,
		"type": "channel",
		"noteNumber": 42,
		"velocity": 127,
		"subtype": "noteOn",
		"time": 205800,
		"track": 5
	},
	{
		"deltaTime": 60,
		"channel": 9,
		"type": "channel",
		"subtype": "noteOff",
		"noteNumber": 42,
		"velocity": 0,
		"time": 205860,
		"track": 5
	},
	{
		"deltaTime": 0,
		"channel": 1,
		"type": "channel",
		"noteNumber": 66,
		"velocity": 127,
		"subtype": "noteOn",
		"time": 205920,
		"track": 3
	},
	{
		"deltaTime": 0,
		"channel": 2,
		"type": "channel",
		"subtype": "noteOff",
		"noteNumber": 59,
		"velocity": 0,
		"time": 205920,
		"track": 4
	},
	{
		"deltaTime": 0,
		"channel": 2,
		"type": "channel",
		"subtype": "noteOff",
		"noteNumber": 56,
		"velocity": 0,
		"time": 205920,
		"track": 4
	},
	{
		"deltaTime": 0,
		"channel": 2,
		"type": "channel",
		"noteNumber": 51,
		"velocity": 127,
		"subtype": "noteOn",
		"time": 205920,
		"track": 4
	},
	{
		"deltaTime": 0,
		"channel": 2,
		"type": "channel",
		"noteNumber": 59,
		"velocity": 127,
		"subtype": "noteOn",
		"time": 205920,
		"track": 4
	},
	{
		"deltaTime": 0,
		"channel": 2,
		"type": "channel",
		"noteNumber": 63,
		"velocity": 127,
		"subtype": "noteOn",
		"time": 205920,
		"track": 4
	},
	{
		"deltaTime": 0,
		"channel": 9,
		"type": "channel",
		"noteNumber": 42,
		"velocity": 127,
		"subtype": "noteOn",
		"time": 205920,
		"track": 5
	},
	{
		"deltaTime": 0,
		"channel": 9,
		"type": "channel",
		"noteNumber": 38,
		"velocity": 127,
		"subtype": "noteOn",
		"time": 205920,
		"track": 5
	},
	{
		"deltaTime": 60,
		"channel": 9,
		"type": "channel",
		"noteNumber": 40,
		"velocity": 127,
		"subtype": "noteOn",
		"time": 205920,
		"track": 5
	},
	{
		"deltaTime": 0,
		"channel": 9,
		"type": "channel",
		"subtype": "noteOff",
		"noteNumber": 40,
		"velocity": 0,
		"time": 205980,
		"track": 5
	},
	{
		"deltaTime": 0,
		"channel": 9,
		"type": "channel",
		"subtype": "noteOff",
		"noteNumber": 38,
		"velocity": 0,
		"time": 205980,
		"track": 5
	},
	{
		"deltaTime": 60,
		"channel": 9,
		"type": "channel",
		"subtype": "noteOff",
		"noteNumber": 42,
		"velocity": 0,
		"time": 205980,
		"track": 5
	},
	{
		"deltaTime": 0,
		"channel": 1,
		"type": "channel",
		"subtype": "noteOff",
		"noteNumber": 66,
		"velocity": 0,
		"time": 206040,
		"track": 3
	},
	{
		"deltaTime": 0,
		"channel": 1,
		"type": "channel",
		"noteNumber": 66,
		"velocity": 127,
		"subtype": "noteOn",
		"time": 206040,
		"track": 3
	},
	{
		"deltaTime": 60,
		"channel": 9,
		"type": "channel",
		"noteNumber": 42,
		"velocity": 127,
		"subtype": "noteOn",
		"time": 206040,
		"track": 5
	},
	{
		"deltaTime": 60,
		"channel": 9,
		"type": "channel",
		"subtype": "noteOff",
		"noteNumber": 42,
		"velocity": 0,
		"time": 206100,
		"track": 5
	},
	{
		"deltaTime": 60,
		"channel": 9,
		"type": "channel",
		"noteNumber": 42,
		"velocity": 127,
		"subtype": "noteOn",
		"time": 206160,
		"track": 5
	},
	{
		"deltaTime": 60,
		"channel": 9,
		"type": "channel",
		"subtype": "noteOff",
		"noteNumber": 42,
		"velocity": 0,
		"time": 206220,
		"track": 5
	},
	{
		"deltaTime": 0,
		"channel": 1,
		"type": "channel",
		"subtype": "noteOff",
		"noteNumber": 66,
		"velocity": 0,
		"time": 206280,
		"track": 3
	},
	{
		"deltaTime": 0,
		"channel": 1,
		"type": "channel",
		"noteNumber": 66,
		"velocity": 127,
		"subtype": "noteOn",
		"time": 206280,
		"track": 3
	},
	{
		"deltaTime": 0,
		"channel": 9,
		"type": "channel",
		"noteNumber": 42,
		"velocity": 127,
		"subtype": "noteOn",
		"time": 206280,
		"track": 5
	},
	{
		"deltaTime": 0,
		"channel": 9,
		"type": "channel",
		"noteNumber": 36,
		"velocity": 127,
		"subtype": "noteOn",
		"time": 206280,
		"track": 5
	},
	{
		"deltaTime": 60,
		"channel": 9,
		"type": "channel",
		"noteNumber": 35,
		"velocity": 127,
		"subtype": "noteOn",
		"time": 206280,
		"track": 5
	},
	{
		"deltaTime": 0,
		"channel": 9,
		"type": "channel",
		"subtype": "noteOff",
		"noteNumber": 35,
		"velocity": 0,
		"time": 206340,
		"track": 5
	},
	{
		"deltaTime": 0,
		"channel": 9,
		"type": "channel",
		"subtype": "noteOff",
		"noteNumber": 36,
		"velocity": 0,
		"time": 206340,
		"track": 5
	},
	{
		"deltaTime": 60,
		"channel": 9,
		"type": "channel",
		"subtype": "noteOff",
		"noteNumber": 42,
		"velocity": 0,
		"time": 206340,
		"track": 5
	},
	{
		"deltaTime": 0,
		"channel": 0,
		"type": "channel",
		"subtype": "noteOff",
		"noteNumber": 32,
		"velocity": 0,
		"time": 206400,
		"track": 2
	},
	{
		"deltaTime": 0,
		"channel": 0,
		"type": "channel",
		"noteNumber": 40,
		"velocity": 127,
		"subtype": "noteOn",
		"time": 206400,
		"track": 2
	},
	{
		"deltaTime": 0,
		"channel": 2,
		"type": "channel",
		"subtype": "noteOff",
		"noteNumber": 63,
		"velocity": 0,
		"time": 206400,
		"track": 4
	},
	{
		"deltaTime": 0,
		"channel": 2,
		"type": "channel",
		"subtype": "noteOff",
		"noteNumber": 59,
		"velocity": 0,
		"time": 206400,
		"track": 4
	},
	{
		"deltaTime": 0,
		"channel": 2,
		"type": "channel",
		"subtype": "noteOff",
		"noteNumber": 51,
		"velocity": 0,
		"time": 206400,
		"track": 4
	},
	{
		"deltaTime": 0,
		"channel": 2,
		"type": "channel",
		"noteNumber": 40,
		"velocity": 127,
		"subtype": "noteOn",
		"time": 206400,
		"track": 4
	},
	{
		"deltaTime": 0,
		"channel": 2,
		"type": "channel",
		"noteNumber": 47,
		"velocity": 127,
		"subtype": "noteOn",
		"time": 206400,
		"track": 4
	},
	{
		"deltaTime": 0,
		"channel": 2,
		"type": "channel",
		"noteNumber": 52,
		"velocity": 127,
		"subtype": "noteOn",
		"time": 206400,
		"track": 4
	},
	{
		"deltaTime": 0,
		"channel": 2,
		"type": "channel",
		"noteNumber": 56,
		"velocity": 127,
		"subtype": "noteOn",
		"time": 206400,
		"track": 4
	},
	{
		"deltaTime": 60,
		"channel": 9,
		"type": "channel",
		"noteNumber": 42,
		"velocity": 127,
		"subtype": "noteOn",
		"time": 206400,
		"track": 5
	},
	{
		"deltaTime": 60,
		"channel": 9,
		"type": "channel",
		"subtype": "noteOff",
		"noteNumber": 42,
		"velocity": 0,
		"time": 206460,
		"track": 5
	},
	{
		"deltaTime": 0,
		"channel": 1,
		"type": "channel",
		"subtype": "noteOff",
		"noteNumber": 66,
		"velocity": 0,
		"time": 206520,
		"track": 3
	},
	{
		"deltaTime": 0,
		"channel": 1,
		"type": "channel",
		"noteNumber": 66,
		"velocity": 127,
		"subtype": "noteOn",
		"time": 206520,
		"track": 3
	},
	{
		"deltaTime": 60,
		"channel": 9,
		"type": "channel",
		"noteNumber": 42,
		"velocity": 127,
		"subtype": "noteOn",
		"time": 206520,
		"track": 5
	},
	{
		"deltaTime": 60,
		"channel": 9,
		"type": "channel",
		"subtype": "noteOff",
		"noteNumber": 42,
		"velocity": 0,
		"time": 206580,
		"track": 5
	},
	{
		"deltaTime": 0,
		"channel": 1,
		"type": "channel",
		"subtype": "noteOff",
		"noteNumber": 66,
		"velocity": 0,
		"time": 206640,
		"track": 3
	},
	{
		"deltaTime": 0,
		"channel": 1,
		"type": "channel",
		"noteNumber": 68,
		"velocity": 127,
		"subtype": "noteOn",
		"time": 206640,
		"track": 3
	},
	{
		"deltaTime": 0,
		"channel": 9,
		"type": "channel",
		"noteNumber": 42,
		"velocity": 127,
		"subtype": "noteOn",
		"time": 206640,
		"track": 5
	},
	{
		"deltaTime": 0,
		"channel": 9,
		"type": "channel",
		"noteNumber": 36,
		"velocity": 127,
		"subtype": "noteOn",
		"time": 206640,
		"track": 5
	},
	{
		"deltaTime": 60,
		"channel": 9,
		"type": "channel",
		"noteNumber": 35,
		"velocity": 127,
		"subtype": "noteOn",
		"time": 206640,
		"track": 5
	},
	{
		"deltaTime": 0,
		"channel": 9,
		"type": "channel",
		"subtype": "noteOff",
		"noteNumber": 35,
		"velocity": 0,
		"time": 206700,
		"track": 5
	},
	{
		"deltaTime": 0,
		"channel": 9,
		"type": "channel",
		"subtype": "noteOff",
		"noteNumber": 36,
		"velocity": 0,
		"time": 206700,
		"track": 5
	},
	{
		"deltaTime": 60,
		"channel": 9,
		"type": "channel",
		"subtype": "noteOff",
		"noteNumber": 42,
		"velocity": 0,
		"time": 206700,
		"track": 5
	},
	{
		"deltaTime": 0,
		"channel": 1,
		"type": "channel",
		"subtype": "noteOff",
		"noteNumber": 68,
		"velocity": 0,
		"time": 206760,
		"track": 3
	},
	{
		"deltaTime": 0,
		"channel": 1,
		"type": "channel",
		"noteNumber": 61,
		"velocity": 127,
		"subtype": "noteOn",
		"time": 206760,
		"track": 3
	},
	{
		"deltaTime": 0,
		"channel": 2,
		"type": "channel",
		"subtype": "noteOff",
		"noteNumber": 56,
		"velocity": 0,
		"time": 206760,
		"track": 4
	},
	{
		"deltaTime": 0,
		"channel": 2,
		"type": "channel",
		"subtype": "noteOff",
		"noteNumber": 52,
		"velocity": 0,
		"time": 206760,
		"track": 4
	},
	{
		"deltaTime": 0,
		"channel": 2,
		"type": "channel",
		"subtype": "noteOff",
		"noteNumber": 47,
		"velocity": 0,
		"time": 206760,
		"track": 4
	},
	{
		"deltaTime": 0,
		"channel": 2,
		"type": "channel",
		"subtype": "noteOff",
		"noteNumber": 40,
		"velocity": 0,
		"time": 206760,
		"track": 4
	},
	{
		"deltaTime": 0,
		"channel": 2,
		"type": "channel",
		"noteNumber": 52,
		"velocity": 127,
		"subtype": "noteOn",
		"time": 206760,
		"track": 4
	},
	{
		"deltaTime": 0,
		"channel": 2,
		"type": "channel",
		"noteNumber": 56,
		"velocity": 127,
		"subtype": "noteOn",
		"time": 206760,
		"track": 4
	},
	{
		"deltaTime": 60,
		"channel": 9,
		"type": "channel",
		"noteNumber": 42,
		"velocity": 127,
		"subtype": "noteOn",
		"time": 206760,
		"track": 5
	},
	{
		"deltaTime": 60,
		"channel": 9,
		"type": "channel",
		"subtype": "noteOff",
		"noteNumber": 42,
		"velocity": 0,
		"time": 206820,
		"track": 5
	},
	{
		"deltaTime": 0,
		"channel": 2,
		"type": "channel",
		"subtype": "noteOff",
		"noteNumber": 56,
		"velocity": 0,
		"time": 206880,
		"track": 4
	},
	{
		"deltaTime": 0,
		"channel": 2,
		"type": "channel",
		"subtype": "noteOff",
		"noteNumber": 52,
		"velocity": 0,
		"time": 206880,
		"track": 4
	},
	{
		"deltaTime": 0,
		"channel": 2,
		"type": "channel",
		"noteNumber": 40,
		"velocity": 127,
		"subtype": "noteOn",
		"time": 206880,
		"track": 4
	},
	{
		"deltaTime": 0,
		"channel": 2,
		"type": "channel",
		"noteNumber": 52,
		"velocity": 127,
		"subtype": "noteOn",
		"time": 206880,
		"track": 4
	},
	{
		"deltaTime": 0,
		"channel": 2,
		"type": "channel",
		"noteNumber": 56,
		"velocity": 127,
		"subtype": "noteOn",
		"time": 206880,
		"track": 4
	},
	{
		"deltaTime": 0,
		"channel": 2,
		"type": "channel",
		"noteNumber": 59,
		"velocity": 127,
		"subtype": "noteOn",
		"time": 206880,
		"track": 4
	},
	{
		"deltaTime": 0,
		"channel": 9,
		"type": "channel",
		"noteNumber": 42,
		"velocity": 127,
		"subtype": "noteOn",
		"time": 206880,
		"track": 5
	},
	{
		"deltaTime": 0,
		"channel": 9,
		"type": "channel",
		"noteNumber": 40,
		"velocity": 127,
		"subtype": "noteOn",
		"time": 206880,
		"track": 5
	},
	{
		"deltaTime": 60,
		"channel": 9,
		"type": "channel",
		"noteNumber": 38,
		"velocity": 127,
		"subtype": "noteOn",
		"time": 206880,
		"track": 5
	},
	{
		"deltaTime": 0,
		"channel": 9,
		"type": "channel",
		"subtype": "noteOff",
		"noteNumber": 38,
		"velocity": 0,
		"time": 206940,
		"track": 5
	},
	{
		"deltaTime": 0,
		"channel": 9,
		"type": "channel",
		"subtype": "noteOff",
		"noteNumber": 40,
		"velocity": 0,
		"time": 206940,
		"track": 5
	},
	{
		"deltaTime": 60,
		"channel": 9,
		"type": "channel",
		"subtype": "noteOff",
		"noteNumber": 42,
		"velocity": 0,
		"time": 206940,
		"track": 5
	},
	{
		"deltaTime": 0,
		"channel": 1,
		"type": "channel",
		"subtype": "noteOff",
		"noteNumber": 61,
		"velocity": 0,
		"time": 207000,
		"track": 3
	},
	{
		"deltaTime": 0,
		"channel": 1,
		"type": "channel",
		"noteNumber": 61,
		"velocity": 127,
		"subtype": "noteOn",
		"time": 207000,
		"track": 3
	},
	{
		"deltaTime": 60,
		"channel": 9,
		"type": "channel",
		"noteNumber": 42,
		"velocity": 127,
		"subtype": "noteOn",
		"time": 207000,
		"track": 5
	},
	{
		"deltaTime": 60,
		"channel": 9,
		"type": "channel",
		"subtype": "noteOff",
		"noteNumber": 42,
		"velocity": 0,
		"time": 207060,
		"track": 5
	},
	{
		"deltaTime": 0,
		"channel": 1,
		"type": "channel",
		"subtype": "noteOff",
		"noteNumber": 61,
		"velocity": 0,
		"time": 207120,
		"track": 3
	},
	{
		"deltaTime": 0,
		"channel": 1,
		"type": "channel",
		"noteNumber": 59,
		"velocity": 127,
		"subtype": "noteOn",
		"time": 207120,
		"track": 3
	},
	{
		"deltaTime": 60,
		"channel": 9,
		"type": "channel",
		"noteNumber": 42,
		"velocity": 127,
		"subtype": "noteOn",
		"time": 207120,
		"track": 5
	},
	{
		"deltaTime": 60,
		"channel": 9,
		"type": "channel",
		"subtype": "noteOff",
		"noteNumber": 42,
		"velocity": 0,
		"time": 207180,
		"track": 5
	},
	{
		"deltaTime": 0,
		"channel": 1,
		"type": "channel",
		"subtype": "noteOff",
		"noteNumber": 59,
		"velocity": 0,
		"time": 207240,
		"track": 3
	},
	{
		"deltaTime": 0,
		"channel": 1,
		"type": "channel",
		"noteNumber": 63,
		"velocity": 127,
		"subtype": "noteOn",
		"time": 207240,
		"track": 3
	},
	{
		"deltaTime": 60,
		"channel": 9,
		"type": "channel",
		"noteNumber": 42,
		"velocity": 127,
		"subtype": "noteOn",
		"time": 207240,
		"track": 5
	},
	{
		"deltaTime": 60,
		"channel": 9,
		"type": "channel",
		"subtype": "noteOff",
		"noteNumber": 42,
		"velocity": 0,
		"time": 207300,
		"track": 5
	},
	{
		"deltaTime": 0,
		"channel": 0,
		"type": "channel",
		"subtype": "noteOff",
		"noteNumber": 40,
		"velocity": 0,
		"time": 207360,
		"track": 2
	},
	{
		"deltaTime": 0,
		"channel": 0,
		"type": "channel",
		"noteNumber": 42,
		"velocity": 127,
		"subtype": "noteOn",
		"time": 207360,
		"track": 2
	},
	{
		"deltaTime": 0,
		"channel": 2,
		"type": "channel",
		"subtype": "noteOff",
		"noteNumber": 59,
		"velocity": 0,
		"time": 207360,
		"track": 4
	},
	{
		"deltaTime": 0,
		"channel": 2,
		"type": "channel",
		"subtype": "noteOff",
		"noteNumber": 56,
		"velocity": 0,
		"time": 207360,
		"track": 4
	},
	{
		"deltaTime": 0,
		"channel": 2,
		"type": "channel",
		"subtype": "noteOff",
		"noteNumber": 52,
		"velocity": 0,
		"time": 207360,
		"track": 4
	},
	{
		"deltaTime": 0,
		"channel": 2,
		"type": "channel",
		"subtype": "noteOff",
		"noteNumber": 40,
		"velocity": 0,
		"time": 207360,
		"track": 4
	},
	{
		"deltaTime": 0,
		"channel": 2,
		"type": "channel",
		"noteNumber": 42,
		"velocity": 127,
		"subtype": "noteOn",
		"time": 207360,
		"track": 4
	},
	{
		"deltaTime": 0,
		"channel": 2,
		"type": "channel",
		"noteNumber": 49,
		"velocity": 127,
		"subtype": "noteOn",
		"time": 207360,
		"track": 4
	},
	{
		"deltaTime": 0,
		"channel": 2,
		"type": "channel",
		"noteNumber": 54,
		"velocity": 127,
		"subtype": "noteOn",
		"time": 207360,
		"track": 4
	},
	{
		"deltaTime": 0,
		"channel": 2,
		"type": "channel",
		"noteNumber": 58,
		"velocity": 127,
		"subtype": "noteOn",
		"time": 207360,
		"track": 4
	},
	{
		"deltaTime": 0,
		"channel": 9,
		"type": "channel",
		"noteNumber": 42,
		"velocity": 127,
		"subtype": "noteOn",
		"time": 207360,
		"track": 5
	},
	{
		"deltaTime": 0,
		"channel": 9,
		"type": "channel",
		"noteNumber": 35,
		"velocity": 127,
		"subtype": "noteOn",
		"time": 207360,
		"track": 5
	},
	{
		"deltaTime": 60,
		"channel": 9,
		"type": "channel",
		"noteNumber": 36,
		"velocity": 127,
		"subtype": "noteOn",
		"time": 207360,
		"track": 5
	},
	{
		"deltaTime": 0,
		"channel": 9,
		"type": "channel",
		"subtype": "noteOff",
		"noteNumber": 36,
		"velocity": 0,
		"time": 207420,
		"track": 5
	},
	{
		"deltaTime": 0,
		"channel": 9,
		"type": "channel",
		"subtype": "noteOff",
		"noteNumber": 35,
		"velocity": 0,
		"time": 207420,
		"track": 5
	},
	{
		"deltaTime": 60,
		"channel": 9,
		"type": "channel",
		"subtype": "noteOff",
		"noteNumber": 42,
		"velocity": 0,
		"time": 207420,
		"track": 5
	},
	{
		"deltaTime": 0,
		"channel": 1,
		"type": "channel",
		"subtype": "noteOff",
		"noteNumber": 63,
		"velocity": 0,
		"time": 207480,
		"track": 3
	},
	{
		"deltaTime": 0,
		"channel": 1,
		"type": "channel",
		"noteNumber": 61,
		"velocity": 127,
		"subtype": "noteOn",
		"time": 207480,
		"track": 3
	},
	{
		"deltaTime": 60,
		"channel": 9,
		"type": "channel",
		"noteNumber": 42,
		"velocity": 127,
		"subtype": "noteOn",
		"time": 207480,
		"track": 5
	},
	{
		"deltaTime": 60,
		"channel": 9,
		"type": "channel",
		"subtype": "noteOff",
		"noteNumber": 42,
		"velocity": 0,
		"time": 207540,
		"track": 5
	},
	{
		"deltaTime": 0,
		"channel": 9,
		"type": "channel",
		"noteNumber": 42,
		"velocity": 127,
		"subtype": "noteOn",
		"time": 207600,
		"track": 5
	},
	{
		"deltaTime": 0,
		"channel": 9,
		"type": "channel",
		"noteNumber": 36,
		"velocity": 127,
		"subtype": "noteOn",
		"time": 207600,
		"track": 5
	},
	{
		"deltaTime": 60,
		"channel": 9,
		"type": "channel",
		"noteNumber": 35,
		"velocity": 127,
		"subtype": "noteOn",
		"time": 207600,
		"track": 5
	},
	{
		"deltaTime": 0,
		"channel": 9,
		"type": "channel",
		"subtype": "noteOff",
		"noteNumber": 35,
		"velocity": 0,
		"time": 207660,
		"track": 5
	},
	{
		"deltaTime": 0,
		"channel": 9,
		"type": "channel",
		"subtype": "noteOff",
		"noteNumber": 36,
		"velocity": 0,
		"time": 207660,
		"track": 5
	},
	{
		"deltaTime": 60,
		"channel": 9,
		"type": "channel",
		"subtype": "noteOff",
		"noteNumber": 42,
		"velocity": 0,
		"time": 207660,
		"track": 5
	},
	{
		"deltaTime": 0,
		"channel": 1,
		"type": "channel",
		"subtype": "noteOff",
		"noteNumber": 61,
		"velocity": 0,
		"time": 207720,
		"track": 3
	},
	{
		"deltaTime": 0,
		"channel": 1,
		"type": "channel",
		"noteNumber": 61,
		"velocity": 127,
		"subtype": "noteOn",
		"time": 207720,
		"track": 3
	},
	{
		"deltaTime": 0,
		"channel": 2,
		"type": "channel",
		"subtype": "noteOff",
		"noteNumber": 58,
		"velocity": 0,
		"time": 207720,
		"track": 4
	},
	{
		"deltaTime": 0,
		"channel": 2,
		"type": "channel",
		"subtype": "noteOff",
		"noteNumber": 54,
		"velocity": 0,
		"time": 207720,
		"track": 4
	},
	{
		"deltaTime": 0,
		"channel": 2,
		"type": "channel",
		"subtype": "noteOff",
		"noteNumber": 49,
		"velocity": 0,
		"time": 207720,
		"track": 4
	},
	{
		"deltaTime": 0,
		"channel": 2,
		"type": "channel",
		"subtype": "noteOff",
		"noteNumber": 42,
		"velocity": 0,
		"time": 207720,
		"track": 4
	},
	{
		"deltaTime": 0,
		"channel": 2,
		"type": "channel",
		"noteNumber": 54,
		"velocity": 127,
		"subtype": "noteOn",
		"time": 207720,
		"track": 4
	},
	{
		"deltaTime": 0,
		"channel": 2,
		"type": "channel",
		"noteNumber": 58,
		"velocity": 127,
		"subtype": "noteOn",
		"time": 207720,
		"track": 4
	},
	{
		"deltaTime": 60,
		"channel": 9,
		"type": "channel",
		"noteNumber": 42,
		"velocity": 127,
		"subtype": "noteOn",
		"time": 207720,
		"track": 5
	},
	{
		"deltaTime": 60,
		"channel": 9,
		"type": "channel",
		"subtype": "noteOff",
		"noteNumber": 42,
		"velocity": 0,
		"time": 207780,
		"track": 5
	},
	{
		"deltaTime": 0,
		"channel": 2,
		"type": "channel",
		"subtype": "noteOff",
		"noteNumber": 58,
		"velocity": 0,
		"time": 207840,
		"track": 4
	},
	{
		"deltaTime": 0,
		"channel": 2,
		"type": "channel",
		"subtype": "noteOff",
		"noteNumber": 54,
		"velocity": 0,
		"time": 207840,
		"track": 4
	},
	{
		"deltaTime": 0,
		"channel": 2,
		"type": "channel",
		"noteNumber": 42,
		"velocity": 127,
		"subtype": "noteOn",
		"time": 207840,
		"track": 4
	},
	{
		"deltaTime": 0,
		"channel": 2,
		"type": "channel",
		"noteNumber": 49,
		"velocity": 127,
		"subtype": "noteOn",
		"time": 207840,
		"track": 4
	},
	{
		"deltaTime": 0,
		"channel": 2,
		"type": "channel",
		"noteNumber": 58,
		"velocity": 127,
		"subtype": "noteOn",
		"time": 207840,
		"track": 4
	},
	{
		"deltaTime": 0,
		"channel": 2,
		"type": "channel",
		"noteNumber": 61,
		"velocity": 127,
		"subtype": "noteOn",
		"time": 207840,
		"track": 4
	},
	{
		"deltaTime": 0,
		"channel": 9,
		"type": "channel",
		"noteNumber": 42,
		"velocity": 127,
		"subtype": "noteOn",
		"time": 207840,
		"track": 5
	},
	{
		"deltaTime": 0,
		"channel": 9,
		"type": "channel",
		"noteNumber": 38,
		"velocity": 127,
		"subtype": "noteOn",
		"time": 207840,
		"track": 5
	},
	{
		"deltaTime": 60,
		"channel": 9,
		"type": "channel",
		"noteNumber": 40,
		"velocity": 127,
		"subtype": "noteOn",
		"time": 207840,
		"track": 5
	},
	{
		"deltaTime": 0,
		"channel": 9,
		"type": "channel",
		"subtype": "noteOff",
		"noteNumber": 40,
		"velocity": 0,
		"time": 207900,
		"track": 5
	},
	{
		"deltaTime": 0,
		"channel": 9,
		"type": "channel",
		"subtype": "noteOff",
		"noteNumber": 38,
		"velocity": 0,
		"time": 207900,
		"track": 5
	},
	{
		"deltaTime": 60,
		"channel": 9,
		"type": "channel",
		"subtype": "noteOff",
		"noteNumber": 42,
		"velocity": 0,
		"time": 207900,
		"track": 5
	},
	{
		"deltaTime": 0,
		"channel": 1,
		"type": "channel",
		"subtype": "noteOff",
		"noteNumber": 61,
		"velocity": 0,
		"time": 207960,
		"track": 3
	},
	{
		"deltaTime": 60,
		"channel": 9,
		"type": "channel",
		"noteNumber": 42,
		"velocity": 127,
		"subtype": "noteOn",
		"time": 207960,
		"track": 5
	},
	{
		"deltaTime": 60,
		"channel": 9,
		"type": "channel",
		"subtype": "noteOff",
		"noteNumber": 42,
		"velocity": 0,
		"time": 208020,
		"track": 5
	},
	{
		"deltaTime": 0,
		"channel": 1,
		"type": "channel",
		"noteNumber": 59,
		"velocity": 127,
		"subtype": "noteOn",
		"time": 208080,
		"track": 3
	},
	{
		"deltaTime": 60,
		"channel": 9,
		"type": "channel",
		"noteNumber": 42,
		"velocity": 127,
		"subtype": "noteOn",
		"time": 208080,
		"track": 5
	},
	{
		"deltaTime": 60,
		"channel": 9,
		"type": "channel",
		"subtype": "noteOff",
		"noteNumber": 42,
		"velocity": 0,
		"time": 208140,
		"track": 5
	},
	{
		"deltaTime": 0,
		"channel": 1,
		"type": "channel",
		"subtype": "noteOff",
		"noteNumber": 59,
		"velocity": 0,
		"time": 208200,
		"track": 3
	},
	{
		"deltaTime": 0,
		"channel": 1,
		"type": "channel",
		"noteNumber": 61,
		"velocity": 127,
		"subtype": "noteOn",
		"time": 208200,
		"track": 3
	},
	{
		"deltaTime": 0,
		"channel": 9,
		"type": "channel",
		"noteNumber": 42,
		"velocity": 127,
		"subtype": "noteOn",
		"time": 208200,
		"track": 5
	},
	{
		"deltaTime": 0,
		"channel": 9,
		"type": "channel",
		"noteNumber": 36,
		"velocity": 127,
		"subtype": "noteOn",
		"time": 208200,
		"track": 5
	},
	{
		"deltaTime": 60,
		"channel": 9,
		"type": "channel",
		"noteNumber": 35,
		"velocity": 127,
		"subtype": "noteOn",
		"time": 208200,
		"track": 5
	},
	{
		"deltaTime": 0,
		"channel": 9,
		"type": "channel",
		"subtype": "noteOff",
		"noteNumber": 35,
		"velocity": 0,
		"time": 208260,
		"track": 5
	},
	{
		"deltaTime": 0,
		"channel": 9,
		"type": "channel",
		"subtype": "noteOff",
		"noteNumber": 36,
		"velocity": 0,
		"time": 208260,
		"track": 5
	},
	{
		"deltaTime": 60,
		"channel": 9,
		"type": "channel",
		"subtype": "noteOff",
		"noteNumber": 42,
		"velocity": 0,
		"time": 208260,
		"track": 5
	},
	{
		"deltaTime": 0,
		"channel": 0,
		"type": "channel",
		"subtype": "noteOff",
		"noteNumber": 42,
		"velocity": 0,
		"time": 208320,
		"track": 2
	},
	{
		"deltaTime": 0,
		"channel": 0,
		"type": "channel",
		"noteNumber": 35,
		"velocity": 127,
		"subtype": "noteOn",
		"time": 208320,
		"track": 2
	},
	{
		"deltaTime": 0,
		"channel": 1,
		"type": "channel",
		"subtype": "noteOff",
		"noteNumber": 61,
		"velocity": 0,
		"time": 208320,
		"track": 3
	},
	{
		"deltaTime": 0,
		"channel": 1,
		"type": "channel",
		"noteNumber": 63,
		"velocity": 127,
		"subtype": "noteOn",
		"time": 208320,
		"track": 3
	},
	{
		"deltaTime": 0,
		"channel": 2,
		"type": "channel",
		"subtype": "noteOff",
		"noteNumber": 61,
		"velocity": 0,
		"time": 208320,
		"track": 4
	},
	{
		"deltaTime": 0,
		"channel": 2,
		"type": "channel",
		"subtype": "noteOff",
		"noteNumber": 58,
		"velocity": 0,
		"time": 208320,
		"track": 4
	},
	{
		"deltaTime": 0,
		"channel": 2,
		"type": "channel",
		"subtype": "noteOff",
		"noteNumber": 49,
		"velocity": 0,
		"time": 208320,
		"track": 4
	},
	{
		"deltaTime": 0,
		"channel": 2,
		"type": "channel",
		"subtype": "noteOff",
		"noteNumber": 42,
		"velocity": 0,
		"time": 208320,
		"track": 4
	},
	{
		"deltaTime": 0,
		"channel": 2,
		"type": "channel",
		"noteNumber": 47,
		"velocity": 127,
		"subtype": "noteOn",
		"time": 208320,
		"track": 4
	},
	{
		"deltaTime": 0,
		"channel": 2,
		"type": "channel",
		"noteNumber": 54,
		"velocity": 127,
		"subtype": "noteOn",
		"time": 208320,
		"track": 4
	},
	{
		"deltaTime": 0,
		"channel": 2,
		"type": "channel",
		"noteNumber": 59,
		"velocity": 127,
		"subtype": "noteOn",
		"time": 208320,
		"track": 4
	},
	{
		"deltaTime": 0,
		"channel": 2,
		"type": "channel",
		"noteNumber": 66,
		"velocity": 127,
		"subtype": "noteOn",
		"time": 208320,
		"track": 4
	},
	{
		"deltaTime": 60,
		"channel": 9,
		"type": "channel",
		"noteNumber": 42,
		"velocity": 127,
		"subtype": "noteOn",
		"time": 208320,
		"track": 5
	},
	{
		"deltaTime": 60,
		"channel": 9,
		"type": "channel",
		"subtype": "noteOff",
		"noteNumber": 42,
		"velocity": 0,
		"time": 208380,
		"track": 5
	},
	{
		"deltaTime": 60,
		"channel": 9,
		"type": "channel",
		"noteNumber": 42,
		"velocity": 127,
		"subtype": "noteOn",
		"time": 208440,
		"track": 5
	},
	{
		"deltaTime": 60,
		"channel": 9,
		"type": "channel",
		"subtype": "noteOff",
		"noteNumber": 42,
		"velocity": 0,
		"time": 208500,
		"track": 5
	},
	{
		"deltaTime": 0,
		"channel": 1,
		"type": "channel",
		"subtype": "noteOff",
		"noteNumber": 63,
		"velocity": 0,
		"time": 208560,
		"track": 3
	},
	{
		"deltaTime": 0,
		"channel": 1,
		"type": "channel",
		"noteNumber": 64,
		"velocity": 127,
		"subtype": "noteOn",
		"time": 208560,
		"track": 3
	},
	{
		"deltaTime": 0,
		"channel": 2,
		"type": "channel",
		"subtype": "noteOff",
		"noteNumber": 66,
		"velocity": 0,
		"time": 208560,
		"track": 4
	},
	{
		"deltaTime": 0,
		"channel": 2,
		"type": "channel",
		"subtype": "noteOff",
		"noteNumber": 59,
		"velocity": 0,
		"time": 208560,
		"track": 4
	},
	{
		"deltaTime": 0,
		"channel": 2,
		"type": "channel",
		"subtype": "noteOff",
		"noteNumber": 54,
		"velocity": 0,
		"time": 208560,
		"track": 4
	},
	{
		"deltaTime": 0,
		"channel": 2,
		"type": "channel",
		"subtype": "noteOff",
		"noteNumber": 47,
		"velocity": 0,
		"time": 208560,
		"track": 4
	},
	{
		"deltaTime": 0,
		"channel": 2,
		"type": "channel",
		"noteNumber": 54,
		"velocity": 127,
		"subtype": "noteOn",
		"time": 208560,
		"track": 4
	},
	{
		"deltaTime": 0,
		"channel": 2,
		"type": "channel",
		"noteNumber": 59,
		"velocity": 127,
		"subtype": "noteOn",
		"time": 208560,
		"track": 4
	},
	{
		"deltaTime": 0,
		"channel": 2,
		"type": "channel",
		"noteNumber": 63,
		"velocity": 127,
		"subtype": "noteOn",
		"time": 208560,
		"track": 4
	},
	{
		"deltaTime": 0,
		"channel": 9,
		"type": "channel",
		"noteNumber": 42,
		"velocity": 127,
		"subtype": "noteOn",
		"time": 208560,
		"track": 5
	},
	{
		"deltaTime": 0,
		"channel": 9,
		"type": "channel",
		"noteNumber": 36,
		"velocity": 127,
		"subtype": "noteOn",
		"time": 208560,
		"track": 5
	},
	{
		"deltaTime": 60,
		"channel": 9,
		"type": "channel",
		"noteNumber": 35,
		"velocity": 127,
		"subtype": "noteOn",
		"time": 208560,
		"track": 5
	},
	{
		"deltaTime": 0,
		"channel": 9,
		"type": "channel",
		"subtype": "noteOff",
		"noteNumber": 35,
		"velocity": 0,
		"time": 208620,
		"track": 5
	},
	{
		"deltaTime": 0,
		"channel": 9,
		"type": "channel",
		"subtype": "noteOff",
		"noteNumber": 36,
		"velocity": 0,
		"time": 208620,
		"track": 5
	},
	{
		"deltaTime": 60,
		"channel": 9,
		"type": "channel",
		"subtype": "noteOff",
		"noteNumber": 42,
		"velocity": 0,
		"time": 208620,
		"track": 5
	},
	{
		"deltaTime": 0,
		"channel": 1,
		"type": "channel",
		"subtype": "noteOff",
		"noteNumber": 64,
		"velocity": 0,
		"time": 208680,
		"track": 3
	},
	{
		"deltaTime": 0,
		"channel": 1,
		"type": "channel",
		"noteNumber": 63,
		"velocity": 127,
		"subtype": "noteOn",
		"time": 208680,
		"track": 3
	},
	{
		"deltaTime": 60,
		"channel": 9,
		"type": "channel",
		"noteNumber": 42,
		"velocity": 127,
		"subtype": "noteOn",
		"time": 208680,
		"track": 5
	},
	{
		"deltaTime": 60,
		"channel": 9,
		"type": "channel",
		"subtype": "noteOff",
		"noteNumber": 42,
		"velocity": 0,
		"time": 208740,
		"track": 5
	},
	{
		"deltaTime": 0,
		"channel": 0,
		"type": "channel",
		"subtype": "noteOff",
		"noteNumber": 35,
		"velocity": 0,
		"time": 208800,
		"track": 2
	},
	{
		"deltaTime": 0,
		"channel": 0,
		"type": "channel",
		"noteNumber": 34,
		"velocity": 127,
		"subtype": "noteOn",
		"time": 208800,
		"track": 2
	},
	{
		"deltaTime": 0,
		"channel": 2,
		"type": "channel",
		"subtype": "noteOff",
		"noteNumber": 63,
		"velocity": 0,
		"time": 208800,
		"track": 4
	},
	{
		"deltaTime": 0,
		"channel": 2,
		"type": "channel",
		"subtype": "noteOff",
		"noteNumber": 59,
		"velocity": 0,
		"time": 208800,
		"track": 4
	},
	{
		"deltaTime": 0,
		"channel": 2,
		"type": "channel",
		"subtype": "noteOff",
		"noteNumber": 54,
		"velocity": 0,
		"time": 208800,
		"track": 4
	},
	{
		"deltaTime": 0,
		"channel": 2,
		"type": "channel",
		"noteNumber": 46,
		"velocity": 127,
		"subtype": "noteOn",
		"time": 208800,
		"track": 4
	},
	{
		"deltaTime": 0,
		"channel": 2,
		"type": "channel",
		"noteNumber": 54,
		"velocity": 127,
		"subtype": "noteOn",
		"time": 208800,
		"track": 4
	},
	{
		"deltaTime": 0,
		"channel": 9,
		"type": "channel",
		"noteNumber": 42,
		"velocity": 127,
		"subtype": "noteOn",
		"time": 208800,
		"track": 5
	},
	{
		"deltaTime": 0,
		"channel": 9,
		"type": "channel",
		"noteNumber": 40,
		"velocity": 127,
		"subtype": "noteOn",
		"time": 208800,
		"track": 5
	},
	{
		"deltaTime": 60,
		"channel": 9,
		"type": "channel",
		"noteNumber": 38,
		"velocity": 127,
		"subtype": "noteOn",
		"time": 208800,
		"track": 5
	},
	{
		"deltaTime": 0,
		"channel": 9,
		"type": "channel",
		"subtype": "noteOff",
		"noteNumber": 38,
		"velocity": 0,
		"time": 208860,
		"track": 5
	},
	{
		"deltaTime": 0,
		"channel": 9,
		"type": "channel",
		"subtype": "noteOff",
		"noteNumber": 40,
		"velocity": 0,
		"time": 208860,
		"track": 5
	},
	{
		"deltaTime": 60,
		"channel": 9,
		"type": "channel",
		"subtype": "noteOff",
		"noteNumber": 42,
		"velocity": 0,
		"time": 208860,
		"track": 5
	},
	{
		"deltaTime": 0,
		"channel": 1,
		"type": "channel",
		"subtype": "noteOff",
		"noteNumber": 63,
		"velocity": 0,
		"time": 208920,
		"track": 3
	},
	{
		"deltaTime": 0,
		"channel": 1,
		"type": "channel",
		"noteNumber": 63,
		"velocity": 127,
		"subtype": "noteOn",
		"time": 208920,
		"track": 3
	},
	{
		"deltaTime": 60,
		"channel": 9,
		"type": "channel",
		"noteNumber": 42,
		"velocity": 127,
		"subtype": "noteOn",
		"time": 208920,
		"track": 5
	},
	{
		"deltaTime": 60,
		"channel": 9,
		"type": "channel",
		"subtype": "noteOff",
		"noteNumber": 42,
		"velocity": 0,
		"time": 208980,
		"track": 5
	},
	{
		"deltaTime": 0,
		"channel": 1,
		"type": "channel",
		"subtype": "noteOff",
		"noteNumber": 63,
		"velocity": 0,
		"time": 209040,
		"track": 3
	},
	{
		"deltaTime": 0,
		"channel": 1,
		"type": "channel",
		"noteNumber": 61,
		"velocity": 127,
		"subtype": "noteOn",
		"time": 209040,
		"track": 3
	},
	{
		"deltaTime": 0,
		"channel": 2,
		"type": "channel",
		"subtype": "noteOff",
		"noteNumber": 54,
		"velocity": 0,
		"time": 209040,
		"track": 4
	},
	{
		"deltaTime": 0,
		"channel": 2,
		"type": "channel",
		"subtype": "noteOff",
		"noteNumber": 46,
		"velocity": 0,
		"time": 209040,
		"track": 4
	},
	{
		"deltaTime": 0,
		"channel": 2,
		"type": "channel",
		"noteNumber": 54,
		"velocity": 127,
		"subtype": "noteOn",
		"time": 209040,
		"track": 4
	},
	{
		"deltaTime": 0,
		"channel": 2,
		"type": "channel",
		"noteNumber": 59,
		"velocity": 127,
		"subtype": "noteOn",
		"time": 209040,
		"track": 4
	},
	{
		"deltaTime": 0,
		"channel": 2,
		"type": "channel",
		"noteNumber": 63,
		"velocity": 127,
		"subtype": "noteOn",
		"time": 209040,
		"track": 4
	},
	{
		"deltaTime": 60,
		"channel": 9,
		"type": "channel",
		"noteNumber": 42,
		"velocity": 127,
		"subtype": "noteOn",
		"time": 209040,
		"track": 5
	},
	{
		"deltaTime": 60,
		"channel": 9,
		"type": "channel",
		"subtype": "noteOff",
		"noteNumber": 42,
		"velocity": 0,
		"time": 209100,
		"track": 5
	},
	{
		"deltaTime": 0,
		"channel": 1,
		"type": "channel",
		"subtype": "noteOff",
		"noteNumber": 61,
		"velocity": 0,
		"time": 209160,
		"track": 3
	},
	{
		"deltaTime": 0,
		"channel": 1,
		"type": "channel",
		"noteNumber": 63,
		"velocity": 127,
		"subtype": "noteOn",
		"time": 209160,
		"track": 3
	},
	{
		"deltaTime": 60,
		"channel": 9,
		"type": "channel",
		"noteNumber": 42,
		"velocity": 127,
		"subtype": "noteOn",
		"time": 209160,
		"track": 5
	},
	{
		"deltaTime": 60,
		"channel": 9,
		"type": "channel",
		"subtype": "noteOff",
		"noteNumber": 42,
		"velocity": 0,
		"time": 209220,
		"track": 5
	},
	{
		"deltaTime": 0,
		"channel": 0,
		"type": "channel",
		"subtype": "noteOff",
		"noteNumber": 34,
		"velocity": 0,
		"time": 209280,
		"track": 2
	},
	{
		"deltaTime": 0,
		"channel": 0,
		"type": "channel",
		"noteNumber": 32,
		"velocity": 127,
		"subtype": "noteOn",
		"time": 209280,
		"track": 2
	},
	{
		"deltaTime": 0,
		"channel": 2,
		"type": "channel",
		"subtype": "noteOff",
		"noteNumber": 63,
		"velocity": 0,
		"time": 209280,
		"track": 4
	},
	{
		"deltaTime": 0,
		"channel": 2,
		"type": "channel",
		"subtype": "noteOff",
		"noteNumber": 59,
		"velocity": 0,
		"time": 209280,
		"track": 4
	},
	{
		"deltaTime": 0,
		"channel": 2,
		"type": "channel",
		"subtype": "noteOff",
		"noteNumber": 54,
		"velocity": 0,
		"time": 209280,
		"track": 4
	},
	{
		"deltaTime": 0,
		"channel": 2,
		"type": "channel",
		"noteNumber": 44,
		"velocity": 127,
		"subtype": "noteOn",
		"time": 209280,
		"track": 4
	},
	{
		"deltaTime": 0,
		"channel": 2,
		"type": "channel",
		"noteNumber": 51,
		"velocity": 127,
		"subtype": "noteOn",
		"time": 209280,
		"track": 4
	},
	{
		"deltaTime": 0,
		"channel": 2,
		"type": "channel",
		"noteNumber": 56,
		"velocity": 127,
		"subtype": "noteOn",
		"time": 209280,
		"track": 4
	},
	{
		"deltaTime": 0,
		"channel": 2,
		"type": "channel",
		"noteNumber": 59,
		"velocity": 127,
		"subtype": "noteOn",
		"time": 209280,
		"track": 4
	},
	{
		"deltaTime": 0,
		"channel": 2,
		"type": "channel",
		"noteNumber": 63,
		"velocity": 127,
		"subtype": "noteOn",
		"time": 209280,
		"track": 4
	},
	{
		"deltaTime": 0,
		"channel": 9,
		"type": "channel",
		"noteNumber": 42,
		"velocity": 127,
		"subtype": "noteOn",
		"time": 209280,
		"track": 5
	},
	{
		"deltaTime": 0,
		"channel": 9,
		"type": "channel",
		"noteNumber": 35,
		"velocity": 127,
		"subtype": "noteOn",
		"time": 209280,
		"track": 5
	},
	{
		"deltaTime": 60,
		"channel": 9,
		"type": "channel",
		"noteNumber": 36,
		"velocity": 127,
		"subtype": "noteOn",
		"time": 209280,
		"track": 5
	},
	{
		"deltaTime": 0,
		"channel": 9,
		"type": "channel",
		"subtype": "noteOff",
		"noteNumber": 36,
		"velocity": 0,
		"time": 209340,
		"track": 5
	},
	{
		"deltaTime": 0,
		"channel": 9,
		"type": "channel",
		"subtype": "noteOff",
		"noteNumber": 35,
		"velocity": 0,
		"time": 209340,
		"track": 5
	},
	{
		"deltaTime": 60,
		"channel": 9,
		"type": "channel",
		"subtype": "noteOff",
		"noteNumber": 42,
		"velocity": 0,
		"time": 209340,
		"track": 5
	},
	{
		"deltaTime": 60,
		"channel": 9,
		"type": "channel",
		"noteNumber": 42,
		"velocity": 127,
		"subtype": "noteOn",
		"time": 209400,
		"track": 5
	},
	{
		"deltaTime": 60,
		"channel": 9,
		"type": "channel",
		"subtype": "noteOff",
		"noteNumber": 42,
		"velocity": 0,
		"time": 209460,
		"track": 5
	},
	{
		"deltaTime": 0,
		"channel": 1,
		"type": "channel",
		"subtype": "noteOff",
		"noteNumber": 63,
		"velocity": 0,
		"time": 209520,
		"track": 3
	},
	{
		"deltaTime": 0,
		"channel": 9,
		"type": "channel",
		"noteNumber": 42,
		"velocity": 127,
		"subtype": "noteOn",
		"time": 209520,
		"track": 5
	},
	{
		"deltaTime": 0,
		"channel": 9,
		"type": "channel",
		"noteNumber": 36,
		"velocity": 127,
		"subtype": "noteOn",
		"time": 209520,
		"track": 5
	},
	{
		"deltaTime": 60,
		"channel": 9,
		"type": "channel",
		"noteNumber": 35,
		"velocity": 127,
		"subtype": "noteOn",
		"time": 209520,
		"track": 5
	},
	{
		"deltaTime": 0,
		"channel": 9,
		"type": "channel",
		"subtype": "noteOff",
		"noteNumber": 35,
		"velocity": 0,
		"time": 209580,
		"track": 5
	},
	{
		"deltaTime": 0,
		"channel": 9,
		"type": "channel",
		"subtype": "noteOff",
		"noteNumber": 36,
		"velocity": 0,
		"time": 209580,
		"track": 5
	},
	{
		"deltaTime": 60,
		"channel": 9,
		"type": "channel",
		"subtype": "noteOff",
		"noteNumber": 42,
		"velocity": 0,
		"time": 209580,
		"track": 5
	},
	{
		"deltaTime": 0,
		"channel": 2,
		"type": "channel",
		"subtype": "noteOff",
		"noteNumber": 63,
		"velocity": 0,
		"time": 209640,
		"track": 4
	},
	{
		"deltaTime": 0,
		"channel": 2,
		"type": "channel",
		"subtype": "noteOff",
		"noteNumber": 59,
		"velocity": 0,
		"time": 209640,
		"track": 4
	},
	{
		"deltaTime": 0,
		"channel": 2,
		"type": "channel",
		"subtype": "noteOff",
		"noteNumber": 56,
		"velocity": 0,
		"time": 209640,
		"track": 4
	},
	{
		"deltaTime": 0,
		"channel": 2,
		"type": "channel",
		"subtype": "noteOff",
		"noteNumber": 51,
		"velocity": 0,
		"time": 209640,
		"track": 4
	},
	{
		"deltaTime": 0,
		"channel": 2,
		"type": "channel",
		"subtype": "noteOff",
		"noteNumber": 44,
		"velocity": 0,
		"time": 209640,
		"track": 4
	},
	{
		"deltaTime": 0,
		"channel": 2,
		"type": "channel",
		"noteNumber": 56,
		"velocity": 127,
		"subtype": "noteOn",
		"time": 209640,
		"track": 4
	},
	{
		"deltaTime": 0,
		"channel": 2,
		"type": "channel",
		"noteNumber": 59,
		"velocity": 127,
		"subtype": "noteOn",
		"time": 209640,
		"track": 4
	},
	{
		"deltaTime": 60,
		"channel": 9,
		"type": "channel",
		"noteNumber": 42,
		"velocity": 127,
		"subtype": "noteOn",
		"time": 209640,
		"track": 5
	},
	{
		"deltaTime": 60,
		"channel": 9,
		"type": "channel",
		"subtype": "noteOff",
		"noteNumber": 42,
		"velocity": 0,
		"time": 209700,
		"track": 5
	},
	{
		"deltaTime": 0,
		"channel": 1,
		"type": "channel",
		"noteNumber": 56,
		"velocity": 127,
		"subtype": "noteOn",
		"time": 209760,
		"track": 3
	},
	{
		"deltaTime": 0,
		"channel": 2,
		"type": "channel",
		"subtype": "noteOff",
		"noteNumber": 59,
		"velocity": 0,
		"time": 209760,
		"track": 4
	},
	{
		"deltaTime": 0,
		"channel": 2,
		"type": "channel",
		"subtype": "noteOff",
		"noteNumber": 56,
		"velocity": 0,
		"time": 209760,
		"track": 4
	},
	{
		"deltaTime": 0,
		"channel": 2,
		"type": "channel",
		"noteNumber": 51,
		"velocity": 127,
		"subtype": "noteOn",
		"time": 209760,
		"track": 4
	},
	{
		"deltaTime": 0,
		"channel": 2,
		"type": "channel",
		"noteNumber": 59,
		"velocity": 127,
		"subtype": "noteOn",
		"time": 209760,
		"track": 4
	},
	{
		"deltaTime": 0,
		"channel": 2,
		"type": "channel",
		"noteNumber": 63,
		"velocity": 127,
		"subtype": "noteOn",
		"time": 209760,
		"track": 4
	},
	{
		"deltaTime": 0,
		"channel": 9,
		"type": "channel",
		"noteNumber": 42,
		"velocity": 127,
		"subtype": "noteOn",
		"time": 209760,
		"track": 5
	},
	{
		"deltaTime": 0,
		"channel": 9,
		"type": "channel",
		"noteNumber": 38,
		"velocity": 127,
		"subtype": "noteOn",
		"time": 209760,
		"track": 5
	},
	{
		"deltaTime": 60,
		"channel": 9,
		"type": "channel",
		"noteNumber": 40,
		"velocity": 127,
		"subtype": "noteOn",
		"time": 209760,
		"track": 5
	},
	{
		"deltaTime": 0,
		"channel": 9,
		"type": "channel",
		"subtype": "noteOff",
		"noteNumber": 40,
		"velocity": 0,
		"time": 209820,
		"track": 5
	},
	{
		"deltaTime": 0,
		"channel": 9,
		"type": "channel",
		"subtype": "noteOff",
		"noteNumber": 38,
		"velocity": 0,
		"time": 209820,
		"track": 5
	},
	{
		"deltaTime": 60,
		"channel": 9,
		"type": "channel",
		"subtype": "noteOff",
		"noteNumber": 42,
		"velocity": 0,
		"time": 209820,
		"track": 5
	},
	{
		"deltaTime": 60,
		"channel": 9,
		"type": "channel",
		"noteNumber": 42,
		"velocity": 127,
		"subtype": "noteOn",
		"time": 209880,
		"track": 5
	},
	{
		"deltaTime": 60,
		"channel": 9,
		"type": "channel",
		"subtype": "noteOff",
		"noteNumber": 42,
		"velocity": 0,
		"time": 209940,
		"track": 5
	},
	{
		"deltaTime": 0,
		"channel": 0,
		"type": "channel",
		"subtype": "noteOff",
		"noteNumber": 32,
		"velocity": 0,
		"time": 210000,
		"track": 2
	},
	{
		"deltaTime": 0,
		"channel": 0,
		"type": "channel",
		"noteNumber": 32,
		"velocity": 127,
		"subtype": "noteOn",
		"time": 210000,
		"track": 2
	},
	{
		"deltaTime": 0,
		"channel": 1,
		"type": "channel",
		"subtype": "noteOff",
		"noteNumber": 56,
		"velocity": 0,
		"time": 210000,
		"track": 3
	},
	{
		"deltaTime": 0,
		"channel": 1,
		"type": "channel",
		"noteNumber": 63,
		"velocity": 127,
		"subtype": "noteOn",
		"time": 210000,
		"track": 3
	},
	{
		"deltaTime": 60,
		"channel": 9,
		"type": "channel",
		"noteNumber": 42,
		"velocity": 127,
		"subtype": "noteOn",
		"time": 210000,
		"track": 5
	},
	{
		"deltaTime": 60,
		"channel": 9,
		"type": "channel",
		"subtype": "noteOff",
		"noteNumber": 42,
		"velocity": 0,
		"time": 210060,
		"track": 5
	},
	{
		"deltaTime": 0,
		"channel": 1,
		"type": "channel",
		"subtype": "noteOff",
		"noteNumber": 63,
		"velocity": 0,
		"time": 210120,
		"track": 3
	},
	{
		"deltaTime": 0,
		"channel": 1,
		"type": "channel",
		"noteNumber": 61,
		"velocity": 127,
		"subtype": "noteOn",
		"time": 210120,
		"track": 3
	},
	{
		"deltaTime": 0,
		"channel": 9,
		"type": "channel",
		"noteNumber": 42,
		"velocity": 127,
		"subtype": "noteOn",
		"time": 210120,
		"track": 5
	},
	{
		"deltaTime": 0,
		"channel": 9,
		"type": "channel",
		"noteNumber": 36,
		"velocity": 127,
		"subtype": "noteOn",
		"time": 210120,
		"track": 5
	},
	{
		"deltaTime": 60,
		"channel": 9,
		"type": "channel",
		"noteNumber": 35,
		"velocity": 127,
		"subtype": "noteOn",
		"time": 210120,
		"track": 5
	},
	{
		"deltaTime": 0,
		"channel": 9,
		"type": "channel",
		"subtype": "noteOff",
		"noteNumber": 35,
		"velocity": 0,
		"time": 210180,
		"track": 5
	},
	{
		"deltaTime": 0,
		"channel": 9,
		"type": "channel",
		"subtype": "noteOff",
		"noteNumber": 36,
		"velocity": 0,
		"time": 210180,
		"track": 5
	},
	{
		"deltaTime": 60,
		"channel": 9,
		"type": "channel",
		"subtype": "noteOff",
		"noteNumber": 42,
		"velocity": 0,
		"time": 210180,
		"track": 5
	},
	{
		"deltaTime": 0,
		"channel": 0,
		"type": "channel",
		"subtype": "noteOff",
		"noteNumber": 32,
		"velocity": 0,
		"time": 210240,
		"track": 2
	},
	{
		"deltaTime": 0,
		"channel": 0,
		"type": "channel",
		"noteNumber": 40,
		"velocity": 127,
		"subtype": "noteOn",
		"time": 210240,
		"track": 2
	},
	{
		"deltaTime": 0,
		"channel": 2,
		"type": "channel",
		"subtype": "noteOff",
		"noteNumber": 63,
		"velocity": 0,
		"time": 210240,
		"track": 4
	},
	{
		"deltaTime": 0,
		"channel": 2,
		"type": "channel",
		"subtype": "noteOff",
		"noteNumber": 59,
		"velocity": 0,
		"time": 210240,
		"track": 4
	},
	{
		"deltaTime": 0,
		"channel": 2,
		"type": "channel",
		"subtype": "noteOff",
		"noteNumber": 51,
		"velocity": 0,
		"time": 210240,
		"track": 4
	},
	{
		"deltaTime": 0,
		"channel": 2,
		"type": "channel",
		"noteNumber": 40,
		"velocity": 127,
		"subtype": "noteOn",
		"time": 210240,
		"track": 4
	},
	{
		"deltaTime": 0,
		"channel": 2,
		"type": "channel",
		"noteNumber": 47,
		"velocity": 127,
		"subtype": "noteOn",
		"time": 210240,
		"track": 4
	},
	{
		"deltaTime": 0,
		"channel": 2,
		"type": "channel",
		"noteNumber": 52,
		"velocity": 127,
		"subtype": "noteOn",
		"time": 210240,
		"track": 4
	},
	{
		"deltaTime": 0,
		"channel": 2,
		"type": "channel",
		"noteNumber": 56,
		"velocity": 127,
		"subtype": "noteOn",
		"time": 210240,
		"track": 4
	},
	{
		"deltaTime": 60,
		"channel": 9,
		"type": "channel",
		"noteNumber": 42,
		"velocity": 127,
		"subtype": "noteOn",
		"time": 210240,
		"track": 5
	},
	{
		"deltaTime": 60,
		"channel": 9,
		"type": "channel",
		"subtype": "noteOff",
		"noteNumber": 42,
		"velocity": 0,
		"time": 210300,
		"track": 5
	},
	{
		"deltaTime": 60,
		"channel": 9,
		"type": "channel",
		"noteNumber": 42,
		"velocity": 127,
		"subtype": "noteOn",
		"time": 210360,
		"track": 5
	},
	{
		"deltaTime": 60,
		"channel": 9,
		"type": "channel",
		"subtype": "noteOff",
		"noteNumber": 42,
		"velocity": 0,
		"time": 210420,
		"track": 5
	},
	{
		"deltaTime": 0,
		"channel": 9,
		"type": "channel",
		"noteNumber": 42,
		"velocity": 127,
		"subtype": "noteOn",
		"time": 210480,
		"track": 5
	},
	{
		"deltaTime": 0,
		"channel": 9,
		"type": "channel",
		"noteNumber": 36,
		"velocity": 127,
		"subtype": "noteOn",
		"time": 210480,
		"track": 5
	},
	{
		"deltaTime": 60,
		"channel": 9,
		"type": "channel",
		"noteNumber": 35,
		"velocity": 127,
		"subtype": "noteOn",
		"time": 210480,
		"track": 5
	},
	{
		"deltaTime": 0,
		"channel": 9,
		"type": "channel",
		"subtype": "noteOff",
		"noteNumber": 35,
		"velocity": 0,
		"time": 210540,
		"track": 5
	},
	{
		"deltaTime": 0,
		"channel": 9,
		"type": "channel",
		"subtype": "noteOff",
		"noteNumber": 36,
		"velocity": 0,
		"time": 210540,
		"track": 5
	},
	{
		"deltaTime": 60,
		"channel": 9,
		"type": "channel",
		"subtype": "noteOff",
		"noteNumber": 42,
		"velocity": 0,
		"time": 210540,
		"track": 5
	},
	{
		"deltaTime": 0,
		"channel": 1,
		"type": "channel",
		"subtype": "noteOff",
		"noteNumber": 61,
		"velocity": 0,
		"time": 210600,
		"track": 3
	},
	{
		"deltaTime": 0,
		"channel": 1,
		"type": "channel",
		"noteNumber": 63,
		"velocity": 127,
		"subtype": "noteOn",
		"time": 210600,
		"track": 3
	},
	{
		"deltaTime": 0,
		"channel": 2,
		"type": "channel",
		"subtype": "noteOff",
		"noteNumber": 56,
		"velocity": 0,
		"time": 210600,
		"track": 4
	},
	{
		"deltaTime": 0,
		"channel": 2,
		"type": "channel",
		"subtype": "noteOff",
		"noteNumber": 52,
		"velocity": 0,
		"time": 210600,
		"track": 4
	},
	{
		"deltaTime": 0,
		"channel": 2,
		"type": "channel",
		"subtype": "noteOff",
		"noteNumber": 47,
		"velocity": 0,
		"time": 210600,
		"track": 4
	},
	{
		"deltaTime": 0,
		"channel": 2,
		"type": "channel",
		"subtype": "noteOff",
		"noteNumber": 40,
		"velocity": 0,
		"time": 210600,
		"track": 4
	},
	{
		"deltaTime": 0,
		"channel": 2,
		"type": "channel",
		"noteNumber": 52,
		"velocity": 127,
		"subtype": "noteOn",
		"time": 210600,
		"track": 4
	},
	{
		"deltaTime": 0,
		"channel": 2,
		"type": "channel",
		"noteNumber": 56,
		"velocity": 127,
		"subtype": "noteOn",
		"time": 210600,
		"track": 4
	},
	{
		"deltaTime": 60,
		"channel": 9,
		"type": "channel",
		"noteNumber": 42,
		"velocity": 127,
		"subtype": "noteOn",
		"time": 210600,
		"track": 5
	},
	{
		"deltaTime": 60,
		"channel": 9,
		"type": "channel",
		"subtype": "noteOff",
		"noteNumber": 42,
		"velocity": 0,
		"time": 210660,
		"track": 5
	},
	{
		"deltaTime": 0,
		"channel": 1,
		"type": "channel",
		"subtype": "noteOff",
		"noteNumber": 63,
		"velocity": 0,
		"time": 210720,
		"track": 3
	},
	{
		"deltaTime": 0,
		"channel": 1,
		"type": "channel",
		"noteNumber": 59,
		"velocity": 127,
		"subtype": "noteOn",
		"time": 210720,
		"track": 3
	},
	{
		"deltaTime": 0,
		"channel": 2,
		"type": "channel",
		"subtype": "noteOff",
		"noteNumber": 56,
		"velocity": 0,
		"time": 210720,
		"track": 4
	},
	{
		"deltaTime": 0,
		"channel": 2,
		"type": "channel",
		"subtype": "noteOff",
		"noteNumber": 52,
		"velocity": 0,
		"time": 210720,
		"track": 4
	},
	{
		"deltaTime": 0,
		"channel": 2,
		"type": "channel",
		"noteNumber": 40,
		"velocity": 127,
		"subtype": "noteOn",
		"time": 210720,
		"track": 4
	},
	{
		"deltaTime": 0,
		"channel": 2,
		"type": "channel",
		"noteNumber": 52,
		"velocity": 127,
		"subtype": "noteOn",
		"time": 210720,
		"track": 4
	},
	{
		"deltaTime": 0,
		"channel": 2,
		"type": "channel",
		"noteNumber": 56,
		"velocity": 127,
		"subtype": "noteOn",
		"time": 210720,
		"track": 4
	},
	{
		"deltaTime": 0,
		"channel": 2,
		"type": "channel",
		"noteNumber": 59,
		"velocity": 127,
		"subtype": "noteOn",
		"time": 210720,
		"track": 4
	},
	{
		"deltaTime": 0,
		"channel": 9,
		"type": "channel",
		"noteNumber": 42,
		"velocity": 127,
		"subtype": "noteOn",
		"time": 210720,
		"track": 5
	},
	{
		"deltaTime": 0,
		"channel": 9,
		"type": "channel",
		"noteNumber": 40,
		"velocity": 127,
		"subtype": "noteOn",
		"time": 210720,
		"track": 5
	},
	{
		"deltaTime": 60,
		"channel": 9,
		"type": "channel",
		"noteNumber": 38,
		"velocity": 127,
		"subtype": "noteOn",
		"time": 210720,
		"track": 5
	},
	{
		"deltaTime": 0,
		"channel": 9,
		"type": "channel",
		"subtype": "noteOff",
		"noteNumber": 38,
		"velocity": 0,
		"time": 210780,
		"track": 5
	},
	{
		"deltaTime": 0,
		"channel": 9,
		"type": "channel",
		"subtype": "noteOff",
		"noteNumber": 40,
		"velocity": 0,
		"time": 210780,
		"track": 5
	},
	{
		"deltaTime": 60,
		"channel": 9,
		"type": "channel",
		"subtype": "noteOff",
		"noteNumber": 42,
		"velocity": 0,
		"time": 210780,
		"track": 5
	},
	{
		"deltaTime": 60,
		"channel": 9,
		"type": "channel",
		"noteNumber": 42,
		"velocity": 127,
		"subtype": "noteOn",
		"time": 210840,
		"track": 5
	},
	{
		"deltaTime": 60,
		"channel": 9,
		"type": "channel",
		"subtype": "noteOff",
		"noteNumber": 42,
		"velocity": 0,
		"time": 210900,
		"track": 5
	},
	{
		"deltaTime": 0,
		"channel": 0,
		"type": "channel",
		"subtype": "noteOff",
		"noteNumber": 40,
		"velocity": 0,
		"time": 210960,
		"track": 2
	},
	{
		"deltaTime": 0,
		"channel": 0,
		"type": "channel",
		"noteNumber": 40,
		"velocity": 127,
		"subtype": "noteOn",
		"time": 210960,
		"track": 2
	},
	{
		"deltaTime": 0,
		"channel": 1,
		"type": "channel",
		"subtype": "noteOff",
		"noteNumber": 59,
		"velocity": 0,
		"time": 210960,
		"track": 3
	},
	{
		"deltaTime": 0,
		"channel": 1,
		"type": "channel",
		"noteNumber": 56,
		"velocity": 127,
		"subtype": "noteOn",
		"time": 210960,
		"track": 3
	},
	{
		"deltaTime": 60,
		"channel": 9,
		"type": "channel",
		"noteNumber": 42,
		"velocity": 127,
		"subtype": "noteOn",
		"time": 210960,
		"track": 5
	},
	{
		"deltaTime": 60,
		"channel": 9,
		"type": "channel",
		"subtype": "noteOff",
		"noteNumber": 42,
		"velocity": 0,
		"time": 211020,
		"track": 5
	},
	{
		"deltaTime": 0,
		"channel": 1,
		"type": "channel",
		"subtype": "noteOff",
		"noteNumber": 56,
		"velocity": 0,
		"time": 211080,
		"track": 3
	},
	{
		"deltaTime": 0,
		"channel": 1,
		"type": "channel",
		"noteNumber": 59,
		"velocity": 127,
		"subtype": "noteOn",
		"time": 211080,
		"track": 3
	},
	{
		"deltaTime": 60,
		"channel": 9,
		"type": "channel",
		"noteNumber": 42,
		"velocity": 127,
		"subtype": "noteOn",
		"time": 211080,
		"track": 5
	},
	{
		"deltaTime": 60,
		"channel": 9,
		"type": "channel",
		"subtype": "noteOff",
		"noteNumber": 42,
		"velocity": 0,
		"time": 211140,
		"track": 5
	},
	{
		"deltaTime": 0,
		"channel": 0,
		"type": "channel",
		"subtype": "noteOff",
		"noteNumber": 40,
		"velocity": 0,
		"time": 211200,
		"track": 2
	},
	{
		"deltaTime": 0,
		"channel": 0,
		"type": "channel",
		"noteNumber": 41,
		"velocity": 127,
		"subtype": "noteOn",
		"time": 211200,
		"track": 2
	},
	{
		"deltaTime": 0,
		"channel": 1,
		"type": "channel",
		"subtype": "noteOff",
		"noteNumber": 59,
		"velocity": 0,
		"time": 211200,
		"track": 3
	},
	{
		"deltaTime": 0,
		"channel": 1,
		"type": "channel",
		"noteNumber": 63,
		"velocity": 127,
		"subtype": "noteOn",
		"time": 211200,
		"track": 3
	},
	{
		"deltaTime": 0,
		"channel": 2,
		"type": "channel",
		"subtype": "noteOff",
		"noteNumber": 59,
		"velocity": 0,
		"time": 211200,
		"track": 4
	},
	{
		"deltaTime": 0,
		"channel": 2,
		"type": "channel",
		"subtype": "noteOff",
		"noteNumber": 56,
		"velocity": 0,
		"time": 211200,
		"track": 4
	},
	{
		"deltaTime": 0,
		"channel": 2,
		"type": "channel",
		"subtype": "noteOff",
		"noteNumber": 52,
		"velocity": 0,
		"time": 211200,
		"track": 4
	},
	{
		"deltaTime": 0,
		"channel": 2,
		"type": "channel",
		"subtype": "noteOff",
		"noteNumber": 40,
		"velocity": 0,
		"time": 211200,
		"track": 4
	},
	{
		"deltaTime": 0,
		"channel": 9,
		"type": "channel",
		"noteNumber": 35,
		"velocity": 127,
		"subtype": "noteOn",
		"time": 211200,
		"track": 5
	},
	{
		"deltaTime": 60,
		"channel": 9,
		"type": "channel",
		"noteNumber": 36,
		"velocity": 127,
		"subtype": "noteOn",
		"time": 211200,
		"track": 5
	},
	{
		"deltaTime": 0,
		"channel": 9,
		"type": "channel",
		"subtype": "noteOff",
		"noteNumber": 36,
		"velocity": 0,
		"time": 211260,
		"track": 5
	},
	{
		"deltaTime": 180,
		"channel": 9,
		"type": "channel",
		"subtype": "noteOff",
		"noteNumber": 35,
		"velocity": 0,
		"time": 211260,
		"track": 5
	},
	{
		"deltaTime": 0,
		"channel": 1,
		"type": "channel",
		"subtype": "noteOff",
		"noteNumber": 63,
		"velocity": 0,
		"time": 211440,
		"track": 3
	},
	{
		"deltaTime": 0,
		"channel": 1,
		"type": "channel",
		"noteNumber": 59,
		"velocity": 127,
		"subtype": "noteOn",
		"time": 211440,
		"track": 3
	},
	{
		"deltaTime": 0,
		"channel": 9,
		"type": "channel",
		"noteNumber": 35,
		"velocity": 127,
		"subtype": "noteOn",
		"time": 211440,
		"track": 5
	},
	{
		"deltaTime": 60,
		"channel": 9,
		"type": "channel",
		"noteNumber": 36,
		"velocity": 127,
		"subtype": "noteOn",
		"time": 211440,
		"track": 5
	},
	{
		"deltaTime": 0,
		"channel": 9,
		"type": "channel",
		"subtype": "noteOff",
		"noteNumber": 36,
		"velocity": 0,
		"time": 211500,
		"track": 5
	},
	{
		"deltaTime": 60,
		"channel": 9,
		"type": "channel",
		"subtype": "noteOff",
		"noteNumber": 35,
		"velocity": 0,
		"time": 211500,
		"track": 5
	},
	{
		"deltaTime": 0,
		"channel": 1,
		"type": "channel",
		"subtype": "noteOff",
		"noteNumber": 59,
		"velocity": 0,
		"time": 211560,
		"track": 3
	},
	{
		"deltaTime": 120,
		"channel": 1,
		"type": "channel",
		"noteNumber": 61,
		"velocity": 127,
		"subtype": "noteOn",
		"time": 211560,
		"track": 3
	},
	{
		"deltaTime": 60,
		"channel": 9,
		"type": "channel",
		"noteNumber": 39,
		"velocity": 127,
		"subtype": "noteOn",
		"time": 211680,
		"track": 5
	},
	{
		"deltaTime": 180,
		"channel": 9,
		"type": "channel",
		"subtype": "noteOff",
		"noteNumber": 39,
		"velocity": 0,
		"time": 211740,
		"track": 5
	},
	{
		"deltaTime": 0,
		"channel": 0,
		"type": "channel",
		"subtype": "noteOff",
		"noteNumber": 41,
		"velocity": 0,
		"time": 211920,
		"track": 2
	},
	{
		"deltaTime": 120,
		"channel": 0,
		"type": "channel",
		"noteNumber": 41,
		"velocity": 127,
		"subtype": "noteOn",
		"time": 211920,
		"track": 2
	},
	{
		"deltaTime": 0,
		"channel": 1,
		"type": "channel",
		"subtype": "noteOff",
		"noteNumber": 61,
		"velocity": 0,
		"time": 212040,
		"track": 3
	},
	{
		"deltaTime": 0,
		"channel": 1,
		"type": "channel",
		"noteNumber": 56,
		"velocity": 127,
		"subtype": "noteOn",
		"time": 212040,
		"track": 3
	},
	{
		"deltaTime": 0,
		"channel": 9,
		"type": "channel",
		"noteNumber": 35,
		"velocity": 127,
		"subtype": "noteOn",
		"time": 212040,
		"track": 5
	},
	{
		"deltaTime": 60,
		"channel": 9,
		"type": "channel",
		"noteNumber": 36,
		"velocity": 127,
		"subtype": "noteOn",
		"time": 212040,
		"track": 5
	},
	{
		"deltaTime": 0,
		"channel": 9,
		"type": "channel",
		"subtype": "noteOff",
		"noteNumber": 36,
		"velocity": 0,
		"time": 212100,
		"track": 5
	},
	{
		"deltaTime": 60,
		"channel": 9,
		"type": "channel",
		"subtype": "noteOff",
		"noteNumber": 35,
		"velocity": 0,
		"time": 212100,
		"track": 5
	},
	{
		"deltaTime": 0,
		"channel": 0,
		"type": "channel",
		"subtype": "noteOff",
		"noteNumber": 41,
		"velocity": 0,
		"time": 212160,
		"track": 2
	},
	{
		"deltaTime": 0,
		"channel": 0,
		"type": "channel",
		"noteNumber": 40,
		"velocity": 127,
		"subtype": "noteOn",
		"time": 212160,
		"track": 2
	},
	{
		"deltaTime": 0,
		"channel": 1,
		"type": "channel",
		"subtype": "noteOff",
		"noteNumber": 56,
		"velocity": 0,
		"time": 212160,
		"track": 3
	},
	{
		"deltaTime": 240,
		"channel": 1,
		"type": "channel",
		"noteNumber": 63,
		"velocity": 127,
		"subtype": "noteOn",
		"time": 212160,
		"track": 3
	},
	{
		"deltaTime": 0,
		"channel": 1,
		"type": "channel",
		"subtype": "noteOff",
		"noteNumber": 63,
		"velocity": 0,
		"time": 212400,
		"track": 3
	},
	{
		"deltaTime": 0,
		"channel": 1,
		"type": "channel",
		"noteNumber": 59,
		"velocity": 127,
		"subtype": "noteOn",
		"time": 212400,
		"track": 3
	},
	{
		"deltaTime": 0,
		"channel": 9,
		"type": "channel",
		"noteNumber": 35,
		"velocity": 127,
		"subtype": "noteOn",
		"time": 212400,
		"track": 5
	},
	{
		"deltaTime": 60,
		"channel": 9,
		"type": "channel",
		"noteNumber": 36,
		"velocity": 127,
		"subtype": "noteOn",
		"time": 212400,
		"track": 5
	},
	{
		"deltaTime": 0,
		"channel": 9,
		"type": "channel",
		"subtype": "noteOff",
		"noteNumber": 36,
		"velocity": 0,
		"time": 212460,
		"track": 5
	},
	{
		"deltaTime": 180,
		"channel": 9,
		"type": "channel",
		"subtype": "noteOff",
		"noteNumber": 35,
		"velocity": 0,
		"time": 212460,
		"track": 5
	},
	{
		"deltaTime": 0,
		"channel": 0,
		"type": "channel",
		"subtype": "noteOff",
		"noteNumber": 40,
		"velocity": 0,
		"time": 212640,
		"track": 2
	},
	{
		"deltaTime": 0,
		"channel": 0,
		"type": "channel",
		"noteNumber": 35,
		"velocity": 127,
		"subtype": "noteOn",
		"time": 212640,
		"track": 2
	},
	{
		"deltaTime": 0,
		"channel": 1,
		"type": "channel",
		"subtype": "noteOff",
		"noteNumber": 59,
		"velocity": 0,
		"time": 212640,
		"track": 3
	},
	{
		"deltaTime": 0,
		"channel": 1,
		"type": "channel",
		"noteNumber": 61,
		"velocity": 127,
		"subtype": "noteOn",
		"time": 212640,
		"track": 3
	},
	{
		"deltaTime": 0,
		"channel": 9,
		"type": "channel",
		"noteNumber": 38,
		"velocity": 127,
		"subtype": "noteOn",
		"time": 212640,
		"track": 5
	},
	{
		"deltaTime": 60,
		"channel": 9,
		"type": "channel",
		"noteNumber": 40,
		"velocity": 127,
		"subtype": "noteOn",
		"time": 212640,
		"track": 5
	},
	{
		"deltaTime": 0,
		"channel": 9,
		"type": "channel",
		"subtype": "noteOff",
		"noteNumber": 40,
		"velocity": 0,
		"time": 212700,
		"track": 5
	},
	{
		"deltaTime": 180,
		"channel": 9,
		"type": "channel",
		"subtype": "noteOff",
		"noteNumber": 38,
		"velocity": 0,
		"time": 212700,
		"track": 5
	},
	{
		"deltaTime": 0,
		"channel": 0,
		"type": "channel",
		"subtype": "noteOff",
		"noteNumber": 35,
		"velocity": 0,
		"time": 212880,
		"track": 2
	},
	{
		"deltaTime": 0,
		"channel": 0,
		"type": "channel",
		"noteNumber": 34,
		"velocity": 127,
		"subtype": "noteOn",
		"time": 212880,
		"track": 2
	},
	{
		"deltaTime": 0,
		"channel": 1,
		"type": "channel",
		"subtype": "noteOff",
		"noteNumber": 61,
		"velocity": 0,
		"time": 212880,
		"track": 3
	},
	{
		"deltaTime": 0,
		"channel": 1,
		"type": "channel",
		"noteNumber": 59,
		"velocity": 127,
		"subtype": "noteOn",
		"time": 212880,
		"track": 3
	},
	{
		"deltaTime": 0,
		"channel": 9,
		"type": "channel",
		"noteNumber": 35,
		"velocity": 127,
		"subtype": "noteOn",
		"time": 212880,
		"track": 5
	},
	{
		"deltaTime": 60,
		"channel": 9,
		"type": "channel",
		"noteNumber": 36,
		"velocity": 127,
		"subtype": "noteOn",
		"time": 212880,
		"track": 5
	},
	{
		"deltaTime": 0,
		"channel": 9,
		"type": "channel",
		"subtype": "noteOff",
		"noteNumber": 36,
		"velocity": 0,
		"time": 212940,
		"track": 5
	},
	{
		"deltaTime": 180,
		"channel": 9,
		"type": "channel",
		"subtype": "noteOff",
		"noteNumber": 35,
		"velocity": 0,
		"time": 212940,
		"track": 5
	},
	{
		"deltaTime": 0,
		"channel": 0,
		"type": "channel",
		"subtype": "noteOff",
		"noteNumber": 34,
		"velocity": 0,
		"time": 213120,
		"track": 2
	},
	{
		"deltaTime": 0,
		"channel": 0,
		"type": "channel",
		"noteNumber": 32,
		"velocity": 127,
		"subtype": "noteOn",
		"time": 213120,
		"track": 2
	},
	{
		"deltaTime": 0,
		"channel": 1,
		"type": "channel",
		"subtype": "noteOff",
		"noteNumber": 59,
		"velocity": 0,
		"time": 213120,
		"track": 3
	},
	{
		"deltaTime": 0,
		"type": "meta",
		"subtype": "endOfTrack",
		"time": 213120,
		"track": 3
	},
	{
		"deltaTime": 0,
		"channel": 2,
		"type": "channel",
		"noteNumber": 44,
		"velocity": 127,
		"subtype": "noteOn",
		"time": 213120,
		"track": 4
	},
	{
		"deltaTime": 0,
		"channel": 9,
		"type": "channel",
		"noteNumber": 42,
		"velocity": 127,
		"subtype": "noteOn",
		"time": 213120,
		"track": 5
	},
	{
		"deltaTime": 0,
		"channel": 9,
		"type": "channel",
		"noteNumber": 35,
		"velocity": 127,
		"subtype": "noteOn",
		"time": 213120,
		"track": 5
	},
	{
		"deltaTime": 60,
		"channel": 9,
		"type": "channel",
		"noteNumber": 36,
		"velocity": 127,
		"subtype": "noteOn",
		"time": 213120,
		"track": 5
	},
	{
		"deltaTime": 0,
		"channel": 9,
		"type": "channel",
		"subtype": "noteOff",
		"noteNumber": 36,
		"velocity": 0,
		"time": 213180,
		"track": 5
	},
	{
		"deltaTime": 0,
		"channel": 9,
		"type": "channel",
		"subtype": "noteOff",
		"noteNumber": 35,
		"velocity": 0,
		"time": 213180,
		"track": 5
	},
	{
		"deltaTime": 60,
		"channel": 9,
		"type": "channel",
		"subtype": "noteOff",
		"noteNumber": 42,
		"velocity": 0,
		"time": 213180,
		"track": 5
	},
	{
		"deltaTime": 60,
		"channel": 9,
		"type": "channel",
		"noteNumber": 42,
		"velocity": 127,
		"subtype": "noteOn",
		"time": 213240,
		"track": 5
	},
	{
		"deltaTime": 60,
		"channel": 9,
		"type": "channel",
		"subtype": "noteOff",
		"noteNumber": 42,
		"velocity": 0,
		"time": 213300,
		"track": 5
	},
	{
		"deltaTime": 0,
		"channel": 9,
		"type": "channel",
		"noteNumber": 42,
		"velocity": 127,
		"subtype": "noteOn",
		"time": 213360,
		"track": 5
	},
	{
		"deltaTime": 0,
		"channel": 9,
		"type": "channel",
		"noteNumber": 36,
		"velocity": 127,
		"subtype": "noteOn",
		"time": 213360,
		"track": 5
	},
	{
		"deltaTime": 60,
		"channel": 9,
		"type": "channel",
		"noteNumber": 35,
		"velocity": 127,
		"subtype": "noteOn",
		"time": 213360,
		"track": 5
	},
	{
		"deltaTime": 0,
		"channel": 9,
		"type": "channel",
		"subtype": "noteOff",
		"noteNumber": 35,
		"velocity": 0,
		"time": 213420,
		"track": 5
	},
	{
		"deltaTime": 0,
		"channel": 9,
		"type": "channel",
		"subtype": "noteOff",
		"noteNumber": 36,
		"velocity": 0,
		"time": 213420,
		"track": 5
	},
	{
		"deltaTime": 60,
		"channel": 9,
		"type": "channel",
		"subtype": "noteOff",
		"noteNumber": 42,
		"velocity": 0,
		"time": 213420,
		"track": 5
	},
	{
		"deltaTime": 0,
		"channel": 2,
		"type": "channel",
		"subtype": "noteOff",
		"noteNumber": 44,
		"velocity": 0,
		"time": 213480,
		"track": 4
	},
	{
		"deltaTime": 0,
		"channel": 2,
		"type": "channel",
		"noteNumber": 59,
		"velocity": 127,
		"subtype": "noteOn",
		"time": 213480,
		"track": 4
	},
	{
		"deltaTime": 0,
		"channel": 2,
		"type": "channel",
		"noteNumber": 63,
		"velocity": 127,
		"subtype": "noteOn",
		"time": 213480,
		"track": 4
	},
	{
		"deltaTime": 0,
		"channel": 2,
		"type": "channel",
		"noteNumber": 68,
		"velocity": 127,
		"subtype": "noteOn",
		"time": 213480,
		"track": 4
	},
	{
		"deltaTime": 60,
		"channel": 9,
		"type": "channel",
		"noteNumber": 42,
		"velocity": 127,
		"subtype": "noteOn",
		"time": 213480,
		"track": 5
	},
	{
		"deltaTime": 60,
		"channel": 9,
		"type": "channel",
		"subtype": "noteOff",
		"noteNumber": 42,
		"velocity": 0,
		"time": 213540,
		"track": 5
	},
	{
		"deltaTime": 0,
		"channel": 9,
		"type": "channel",
		"noteNumber": 42,
		"velocity": 127,
		"subtype": "noteOn",
		"time": 213600,
		"track": 5
	},
	{
		"deltaTime": 0,
		"channel": 9,
		"type": "channel",
		"noteNumber": 38,
		"velocity": 127,
		"subtype": "noteOn",
		"time": 213600,
		"track": 5
	},
	{
		"deltaTime": 60,
		"channel": 9,
		"type": "channel",
		"noteNumber": 40,
		"velocity": 127,
		"subtype": "noteOn",
		"time": 213600,
		"track": 5
	},
	{
		"deltaTime": 0,
		"channel": 9,
		"type": "channel",
		"subtype": "noteOff",
		"noteNumber": 40,
		"velocity": 0,
		"time": 213660,
		"track": 5
	},
	{
		"deltaTime": 0,
		"channel": 9,
		"type": "channel",
		"subtype": "noteOff",
		"noteNumber": 38,
		"velocity": 0,
		"time": 213660,
		"track": 5
	},
	{
		"deltaTime": 60,
		"channel": 9,
		"type": "channel",
		"subtype": "noteOff",
		"noteNumber": 42,
		"velocity": 0,
		"time": 213660,
		"track": 5
	},
	{
		"deltaTime": 0,
		"channel": 2,
		"type": "channel",
		"subtype": "noteOff",
		"noteNumber": 68,
		"velocity": 0,
		"time": 213720,
		"track": 4
	},
	{
		"deltaTime": 0,
		"channel": 2,
		"type": "channel",
		"subtype": "noteOff",
		"noteNumber": 63,
		"velocity": 0,
		"time": 213720,
		"track": 4
	},
	{
		"deltaTime": 0,
		"channel": 2,
		"type": "channel",
		"subtype": "noteOff",
		"noteNumber": 59,
		"velocity": 0,
		"time": 213720,
		"track": 4
	},
	{
		"deltaTime": 0,
		"channel": 2,
		"type": "channel",
		"noteNumber": 59,
		"velocity": 127,
		"subtype": "noteOn",
		"time": 213720,
		"track": 4
	},
	{
		"deltaTime": 0,
		"channel": 2,
		"type": "channel",
		"noteNumber": 63,
		"velocity": 127,
		"subtype": "noteOn",
		"time": 213720,
		"track": 4
	},
	{
		"deltaTime": 0,
		"channel": 2,
		"type": "channel",
		"noteNumber": 68,
		"velocity": 127,
		"subtype": "noteOn",
		"time": 213720,
		"track": 4
	},
	{
		"deltaTime": 60,
		"channel": 9,
		"type": "channel",
		"noteNumber": 42,
		"velocity": 127,
		"subtype": "noteOn",
		"time": 213720,
		"track": 5
	},
	{
		"deltaTime": 60,
		"channel": 9,
		"type": "channel",
		"subtype": "noteOff",
		"noteNumber": 42,
		"velocity": 0,
		"time": 213780,
		"track": 5
	},
	{
		"deltaTime": 60,
		"channel": 9,
		"type": "channel",
		"noteNumber": 42,
		"velocity": 127,
		"subtype": "noteOn",
		"time": 213840,
		"track": 5
	},
	{
		"deltaTime": 60,
		"channel": 9,
		"type": "channel",
		"subtype": "noteOff",
		"noteNumber": 42,
		"velocity": 0,
		"time": 213900,
		"track": 5
	},
	{
		"deltaTime": 0,
		"channel": 9,
		"type": "channel",
		"noteNumber": 42,
		"velocity": 127,
		"subtype": "noteOn",
		"time": 213960,
		"track": 5
	},
	{
		"deltaTime": 0,
		"channel": 9,
		"type": "channel",
		"noteNumber": 36,
		"velocity": 127,
		"subtype": "noteOn",
		"time": 213960,
		"track": 5
	},
	{
		"deltaTime": 60,
		"channel": 9,
		"type": "channel",
		"noteNumber": 35,
		"velocity": 127,
		"subtype": "noteOn",
		"time": 213960,
		"track": 5
	},
	{
		"deltaTime": 0,
		"channel": 9,
		"type": "channel",
		"subtype": "noteOff",
		"noteNumber": 35,
		"velocity": 0,
		"time": 214020,
		"track": 5
	},
	{
		"deltaTime": 0,
		"channel": 9,
		"type": "channel",
		"subtype": "noteOff",
		"noteNumber": 36,
		"velocity": 0,
		"time": 214020,
		"track": 5
	},
	{
		"deltaTime": 60,
		"channel": 9,
		"type": "channel",
		"subtype": "noteOff",
		"noteNumber": 42,
		"velocity": 0,
		"time": 214020,
		"track": 5
	},
	{
		"deltaTime": 0,
		"channel": 0,
		"type": "channel",
		"subtype": "noteOff",
		"noteNumber": 32,
		"velocity": 0,
		"time": 214080,
		"track": 2
	},
	{
		"deltaTime": 0,
		"channel": 0,
		"type": "channel",
		"noteNumber": 40,
		"velocity": 127,
		"subtype": "noteOn",
		"time": 214080,
		"track": 2
	},
	{
		"deltaTime": 0,
		"channel": 2,
		"type": "channel",
		"subtype": "noteOff",
		"noteNumber": 68,
		"velocity": 0,
		"time": 214080,
		"track": 4
	},
	{
		"deltaTime": 0,
		"channel": 2,
		"type": "channel",
		"subtype": "noteOff",
		"noteNumber": 63,
		"velocity": 0,
		"time": 214080,
		"track": 4
	},
	{
		"deltaTime": 0,
		"channel": 2,
		"type": "channel",
		"subtype": "noteOff",
		"noteNumber": 59,
		"velocity": 0,
		"time": 214080,
		"track": 4
	},
	{
		"deltaTime": 0,
		"channel": 2,
		"type": "channel",
		"noteNumber": 40,
		"velocity": 127,
		"subtype": "noteOn",
		"time": 214080,
		"track": 4
	},
	{
		"deltaTime": 60,
		"channel": 9,
		"type": "channel",
		"noteNumber": 42,
		"velocity": 127,
		"subtype": "noteOn",
		"time": 214080,
		"track": 5
	},
	{
		"deltaTime": 60,
		"channel": 9,
		"type": "channel",
		"subtype": "noteOff",
		"noteNumber": 42,
		"velocity": 0,
		"time": 214140,
		"track": 5
	},
	{
		"deltaTime": 60,
		"channel": 9,
		"type": "channel",
		"noteNumber": 42,
		"velocity": 127,
		"subtype": "noteOn",
		"time": 214200,
		"track": 5
	},
	{
		"deltaTime": 60,
		"channel": 9,
		"type": "channel",
		"subtype": "noteOff",
		"noteNumber": 42,
		"velocity": 0,
		"time": 214260,
		"track": 5
	},
	{
		"deltaTime": 0,
		"channel": 9,
		"type": "channel",
		"noteNumber": 42,
		"velocity": 127,
		"subtype": "noteOn",
		"time": 214320,
		"track": 5
	},
	{
		"deltaTime": 0,
		"channel": 9,
		"type": "channel",
		"noteNumber": 36,
		"velocity": 127,
		"subtype": "noteOn",
		"time": 214320,
		"track": 5
	},
	{
		"deltaTime": 60,
		"channel": 9,
		"type": "channel",
		"noteNumber": 35,
		"velocity": 127,
		"subtype": "noteOn",
		"time": 214320,
		"track": 5
	},
	{
		"deltaTime": 0,
		"channel": 9,
		"type": "channel",
		"subtype": "noteOff",
		"noteNumber": 35,
		"velocity": 0,
		"time": 214380,
		"track": 5
	},
	{
		"deltaTime": 0,
		"channel": 9,
		"type": "channel",
		"subtype": "noteOff",
		"noteNumber": 36,
		"velocity": 0,
		"time": 214380,
		"track": 5
	},
	{
		"deltaTime": 60,
		"channel": 9,
		"type": "channel",
		"subtype": "noteOff",
		"noteNumber": 42,
		"velocity": 0,
		"time": 214380,
		"track": 5
	},
	{
		"deltaTime": 0,
		"channel": 2,
		"type": "channel",
		"subtype": "noteOff",
		"noteNumber": 40,
		"velocity": 0,
		"time": 214440,
		"track": 4
	},
	{
		"deltaTime": 0,
		"channel": 2,
		"type": "channel",
		"noteNumber": 59,
		"velocity": 127,
		"subtype": "noteOn",
		"time": 214440,
		"track": 4
	},
	{
		"deltaTime": 0,
		"channel": 2,
		"type": "channel",
		"noteNumber": 63,
		"velocity": 127,
		"subtype": "noteOn",
		"time": 214440,
		"track": 4
	},
	{
		"deltaTime": 0,
		"channel": 2,
		"type": "channel",
		"noteNumber": 68,
		"velocity": 127,
		"subtype": "noteOn",
		"time": 214440,
		"track": 4
	},
	{
		"deltaTime": 60,
		"channel": 9,
		"type": "channel",
		"noteNumber": 42,
		"velocity": 127,
		"subtype": "noteOn",
		"time": 214440,
		"track": 5
	},
	{
		"deltaTime": 60,
		"channel": 9,
		"type": "channel",
		"subtype": "noteOff",
		"noteNumber": 42,
		"velocity": 0,
		"time": 214500,
		"track": 5
	},
	{
		"deltaTime": 0,
		"channel": 9,
		"type": "channel",
		"noteNumber": 42,
		"velocity": 127,
		"subtype": "noteOn",
		"time": 214560,
		"track": 5
	},
	{
		"deltaTime": 0,
		"channel": 9,
		"type": "channel",
		"noteNumber": 40,
		"velocity": 127,
		"subtype": "noteOn",
		"time": 214560,
		"track": 5
	},
	{
		"deltaTime": 60,
		"channel": 9,
		"type": "channel",
		"noteNumber": 38,
		"velocity": 127,
		"subtype": "noteOn",
		"time": 214560,
		"track": 5
	},
	{
		"deltaTime": 0,
		"channel": 9,
		"type": "channel",
		"subtype": "noteOff",
		"noteNumber": 38,
		"velocity": 0,
		"time": 214620,
		"track": 5
	},
	{
		"deltaTime": 0,
		"channel": 9,
		"type": "channel",
		"subtype": "noteOff",
		"noteNumber": 40,
		"velocity": 0,
		"time": 214620,
		"track": 5
	},
	{
		"deltaTime": 60,
		"channel": 9,
		"type": "channel",
		"subtype": "noteOff",
		"noteNumber": 42,
		"velocity": 0,
		"time": 214620,
		"track": 5
	},
	{
		"deltaTime": 0,
		"channel": 2,
		"type": "channel",
		"subtype": "noteOff",
		"noteNumber": 68,
		"velocity": 0,
		"time": 214680,
		"track": 4
	},
	{
		"deltaTime": 0,
		"channel": 2,
		"type": "channel",
		"subtype": "noteOff",
		"noteNumber": 63,
		"velocity": 0,
		"time": 214680,
		"track": 4
	},
	{
		"deltaTime": 0,
		"channel": 2,
		"type": "channel",
		"subtype": "noteOff",
		"noteNumber": 59,
		"velocity": 0,
		"time": 214680,
		"track": 4
	},
	{
		"deltaTime": 0,
		"channel": 2,
		"type": "channel",
		"noteNumber": 59,
		"velocity": 127,
		"subtype": "noteOn",
		"time": 214680,
		"track": 4
	},
	{
		"deltaTime": 0,
		"channel": 2,
		"type": "channel",
		"noteNumber": 63,
		"velocity": 127,
		"subtype": "noteOn",
		"time": 214680,
		"track": 4
	},
	{
		"deltaTime": 0,
		"channel": 2,
		"type": "channel",
		"noteNumber": 68,
		"velocity": 127,
		"subtype": "noteOn",
		"time": 214680,
		"track": 4
	},
	{
		"deltaTime": 60,
		"channel": 9,
		"type": "channel",
		"noteNumber": 42,
		"velocity": 127,
		"subtype": "noteOn",
		"time": 214680,
		"track": 5
	},
	{
		"deltaTime": 60,
		"channel": 9,
		"type": "channel",
		"subtype": "noteOff",
		"noteNumber": 42,
		"velocity": 0,
		"time": 214740,
		"track": 5
	},
	{
		"deltaTime": 60,
		"channel": 9,
		"type": "channel",
		"noteNumber": 42,
		"velocity": 127,
		"subtype": "noteOn",
		"time": 214800,
		"track": 5
	},
	{
		"deltaTime": 60,
		"channel": 9,
		"type": "channel",
		"subtype": "noteOff",
		"noteNumber": 42,
		"velocity": 0,
		"time": 214860,
		"track": 5
	},
	{
		"deltaTime": 60,
		"channel": 9,
		"type": "channel",
		"noteNumber": 42,
		"velocity": 127,
		"subtype": "noteOn",
		"time": 214920,
		"track": 5
	},
	{
		"deltaTime": 60,
		"channel": 9,
		"type": "channel",
		"subtype": "noteOff",
		"noteNumber": 42,
		"velocity": 0,
		"time": 214980,
		"track": 5
	},
	{
		"deltaTime": 0,
		"channel": 0,
		"type": "channel",
		"subtype": "noteOff",
		"noteNumber": 40,
		"velocity": 0,
		"time": 215040,
		"track": 2
	},
	{
		"deltaTime": 0,
		"channel": 0,
		"type": "channel",
		"noteNumber": 42,
		"velocity": 127,
		"subtype": "noteOn",
		"time": 215040,
		"track": 2
	},
	{
		"deltaTime": 0,
		"channel": 2,
		"type": "channel",
		"subtype": "noteOff",
		"noteNumber": 68,
		"velocity": 0,
		"time": 215040,
		"track": 4
	},
	{
		"deltaTime": 0,
		"channel": 2,
		"type": "channel",
		"subtype": "noteOff",
		"noteNumber": 63,
		"velocity": 0,
		"time": 215040,
		"track": 4
	},
	{
		"deltaTime": 0,
		"channel": 2,
		"type": "channel",
		"subtype": "noteOff",
		"noteNumber": 59,
		"velocity": 0,
		"time": 215040,
		"track": 4
	},
	{
		"deltaTime": 0,
		"channel": 2,
		"type": "channel",
		"noteNumber": 42,
		"velocity": 127,
		"subtype": "noteOn",
		"time": 215040,
		"track": 4
	},
	{
		"deltaTime": 0,
		"channel": 9,
		"type": "channel",
		"noteNumber": 42,
		"velocity": 127,
		"subtype": "noteOn",
		"time": 215040,
		"track": 5
	},
	{
		"deltaTime": 0,
		"channel": 9,
		"type": "channel",
		"noteNumber": 35,
		"velocity": 127,
		"subtype": "noteOn",
		"time": 215040,
		"track": 5
	},
	{
		"deltaTime": 60,
		"channel": 9,
		"type": "channel",
		"noteNumber": 36,
		"velocity": 127,
		"subtype": "noteOn",
		"time": 215040,
		"track": 5
	},
	{
		"deltaTime": 0,
		"channel": 9,
		"type": "channel",
		"subtype": "noteOff",
		"noteNumber": 36,
		"velocity": 0,
		"time": 215100,
		"track": 5
	},
	{
		"deltaTime": 0,
		"channel": 9,
		"type": "channel",
		"subtype": "noteOff",
		"noteNumber": 35,
		"velocity": 0,
		"time": 215100,
		"track": 5
	},
	{
		"deltaTime": 60,
		"channel": 9,
		"type": "channel",
		"subtype": "noteOff",
		"noteNumber": 42,
		"velocity": 0,
		"time": 215100,
		"track": 5
	},
	{
		"deltaTime": 60,
		"channel": 9,
		"type": "channel",
		"noteNumber": 42,
		"velocity": 127,
		"subtype": "noteOn",
		"time": 215160,
		"track": 5
	},
	{
		"deltaTime": 60,
		"channel": 9,
		"type": "channel",
		"subtype": "noteOff",
		"noteNumber": 42,
		"velocity": 0,
		"time": 215220,
		"track": 5
	},
	{
		"deltaTime": 0,
		"channel": 9,
		"type": "channel",
		"noteNumber": 42,
		"velocity": 127,
		"subtype": "noteOn",
		"time": 215280,
		"track": 5
	},
	{
		"deltaTime": 0,
		"channel": 9,
		"type": "channel",
		"noteNumber": 36,
		"velocity": 127,
		"subtype": "noteOn",
		"time": 215280,
		"track": 5
	},
	{
		"deltaTime": 60,
		"channel": 9,
		"type": "channel",
		"noteNumber": 35,
		"velocity": 127,
		"subtype": "noteOn",
		"time": 215280,
		"track": 5
	},
	{
		"deltaTime": 0,
		"channel": 9,
		"type": "channel",
		"subtype": "noteOff",
		"noteNumber": 35,
		"velocity": 0,
		"time": 215340,
		"track": 5
	},
	{
		"deltaTime": 0,
		"channel": 9,
		"type": "channel",
		"subtype": "noteOff",
		"noteNumber": 36,
		"velocity": 0,
		"time": 215340,
		"track": 5
	},
	{
		"deltaTime": 60,
		"channel": 9,
		"type": "channel",
		"subtype": "noteOff",
		"noteNumber": 42,
		"velocity": 0,
		"time": 215340,
		"track": 5
	},
	{
		"deltaTime": 0,
		"channel": 2,
		"type": "channel",
		"subtype": "noteOff",
		"noteNumber": 42,
		"velocity": 0,
		"time": 215400,
		"track": 4
	},
	{
		"deltaTime": 0,
		"channel": 2,
		"type": "channel",
		"noteNumber": 61,
		"velocity": 127,
		"subtype": "noteOn",
		"time": 215400,
		"track": 4
	},
	{
		"deltaTime": 0,
		"channel": 2,
		"type": "channel",
		"noteNumber": 66,
		"velocity": 127,
		"subtype": "noteOn",
		"time": 215400,
		"track": 4
	},
	{
		"deltaTime": 0,
		"channel": 2,
		"type": "channel",
		"noteNumber": 70,
		"velocity": 127,
		"subtype": "noteOn",
		"time": 215400,
		"track": 4
	},
	{
		"deltaTime": 60,
		"channel": 9,
		"type": "channel",
		"noteNumber": 42,
		"velocity": 127,
		"subtype": "noteOn",
		"time": 215400,
		"track": 5
	},
	{
		"deltaTime": 60,
		"channel": 9,
		"type": "channel",
		"subtype": "noteOff",
		"noteNumber": 42,
		"velocity": 0,
		"time": 215460,
		"track": 5
	},
	{
		"deltaTime": 0,
		"channel": 9,
		"type": "channel",
		"noteNumber": 42,
		"velocity": 127,
		"subtype": "noteOn",
		"time": 215520,
		"track": 5
	},
	{
		"deltaTime": 0,
		"channel": 9,
		"type": "channel",
		"noteNumber": 38,
		"velocity": 127,
		"subtype": "noteOn",
		"time": 215520,
		"track": 5
	},
	{
		"deltaTime": 60,
		"channel": 9,
		"type": "channel",
		"noteNumber": 40,
		"velocity": 127,
		"subtype": "noteOn",
		"time": 215520,
		"track": 5
	},
	{
		"deltaTime": 0,
		"channel": 9,
		"type": "channel",
		"subtype": "noteOff",
		"noteNumber": 40,
		"velocity": 0,
		"time": 215580,
		"track": 5
	},
	{
		"deltaTime": 0,
		"channel": 9,
		"type": "channel",
		"subtype": "noteOff",
		"noteNumber": 38,
		"velocity": 0,
		"time": 215580,
		"track": 5
	},
	{
		"deltaTime": 60,
		"channel": 9,
		"type": "channel",
		"subtype": "noteOff",
		"noteNumber": 42,
		"velocity": 0,
		"time": 215580,
		"track": 5
	},
	{
		"deltaTime": 0,
		"channel": 2,
		"type": "channel",
		"subtype": "noteOff",
		"noteNumber": 70,
		"velocity": 0,
		"time": 215640,
		"track": 4
	},
	{
		"deltaTime": 0,
		"channel": 2,
		"type": "channel",
		"subtype": "noteOff",
		"noteNumber": 66,
		"velocity": 0,
		"time": 215640,
		"track": 4
	},
	{
		"deltaTime": 0,
		"channel": 2,
		"type": "channel",
		"subtype": "noteOff",
		"noteNumber": 61,
		"velocity": 0,
		"time": 215640,
		"track": 4
	},
	{
		"deltaTime": 0,
		"channel": 2,
		"type": "channel",
		"noteNumber": 61,
		"velocity": 127,
		"subtype": "noteOn",
		"time": 215640,
		"track": 4
	},
	{
		"deltaTime": 0,
		"channel": 2,
		"type": "channel",
		"noteNumber": 66,
		"velocity": 127,
		"subtype": "noteOn",
		"time": 215640,
		"track": 4
	},
	{
		"deltaTime": 0,
		"channel": 2,
		"type": "channel",
		"noteNumber": 70,
		"velocity": 127,
		"subtype": "noteOn",
		"time": 215640,
		"track": 4
	},
	{
		"deltaTime": 60,
		"channel": 9,
		"type": "channel",
		"noteNumber": 42,
		"velocity": 127,
		"subtype": "noteOn",
		"time": 215640,
		"track": 5
	},
	{
		"deltaTime": 60,
		"channel": 9,
		"type": "channel",
		"subtype": "noteOff",
		"noteNumber": 42,
		"velocity": 0,
		"time": 215700,
		"track": 5
	},
	{
		"deltaTime": 60,
		"channel": 9,
		"type": "channel",
		"noteNumber": 42,
		"velocity": 127,
		"subtype": "noteOn",
		"time": 215760,
		"track": 5
	},
	{
		"deltaTime": 60,
		"channel": 9,
		"type": "channel",
		"subtype": "noteOff",
		"noteNumber": 42,
		"velocity": 0,
		"time": 215820,
		"track": 5
	},
	{
		"deltaTime": 0,
		"channel": 9,
		"type": "channel",
		"noteNumber": 42,
		"velocity": 127,
		"subtype": "noteOn",
		"time": 215880,
		"track": 5
	},
	{
		"deltaTime": 0,
		"channel": 9,
		"type": "channel",
		"noteNumber": 36,
		"velocity": 127,
		"subtype": "noteOn",
		"time": 215880,
		"track": 5
	},
	{
		"deltaTime": 60,
		"channel": 9,
		"type": "channel",
		"noteNumber": 35,
		"velocity": 127,
		"subtype": "noteOn",
		"time": 215880,
		"track": 5
	},
	{
		"deltaTime": 0,
		"channel": 9,
		"type": "channel",
		"subtype": "noteOff",
		"noteNumber": 35,
		"velocity": 0,
		"time": 215940,
		"track": 5
	},
	{
		"deltaTime": 0,
		"channel": 9,
		"type": "channel",
		"subtype": "noteOff",
		"noteNumber": 36,
		"velocity": 0,
		"time": 215940,
		"track": 5
	},
	{
		"deltaTime": 60,
		"channel": 9,
		"type": "channel",
		"subtype": "noteOff",
		"noteNumber": 42,
		"velocity": 0,
		"time": 215940,
		"track": 5
	},
	{
		"deltaTime": 0,
		"channel": 0,
		"type": "channel",
		"subtype": "noteOff",
		"noteNumber": 42,
		"velocity": 0,
		"time": 216000,
		"track": 2
	},
	{
		"deltaTime": 0,
		"channel": 0,
		"type": "channel",
		"noteNumber": 35,
		"velocity": 127,
		"subtype": "noteOn",
		"time": 216000,
		"track": 2
	},
	{
		"deltaTime": 0,
		"channel": 2,
		"type": "channel",
		"subtype": "noteOff",
		"noteNumber": 70,
		"velocity": 0,
		"time": 216000,
		"track": 4
	},
	{
		"deltaTime": 0,
		"channel": 2,
		"type": "channel",
		"subtype": "noteOff",
		"noteNumber": 66,
		"velocity": 0,
		"time": 216000,
		"track": 4
	},
	{
		"deltaTime": 0,
		"channel": 2,
		"type": "channel",
		"subtype": "noteOff",
		"noteNumber": 61,
		"velocity": 0,
		"time": 216000,
		"track": 4
	},
	{
		"deltaTime": 0,
		"channel": 2,
		"type": "channel",
		"noteNumber": 47,
		"velocity": 127,
		"subtype": "noteOn",
		"time": 216000,
		"track": 4
	},
	{
		"deltaTime": 60,
		"channel": 9,
		"type": "channel",
		"noteNumber": 42,
		"velocity": 127,
		"subtype": "noteOn",
		"time": 216000,
		"track": 5
	},
	{
		"deltaTime": 60,
		"channel": 9,
		"type": "channel",
		"subtype": "noteOff",
		"noteNumber": 42,
		"velocity": 0,
		"time": 216060,
		"track": 5
	},
	{
		"deltaTime": 60,
		"channel": 9,
		"type": "channel",
		"noteNumber": 42,
		"velocity": 127,
		"subtype": "noteOn",
		"time": 216120,
		"track": 5
	},
	{
		"deltaTime": 60,
		"channel": 9,
		"type": "channel",
		"subtype": "noteOff",
		"noteNumber": 42,
		"velocity": 0,
		"time": 216180,
		"track": 5
	},
	{
		"deltaTime": 0,
		"channel": 9,
		"type": "channel",
		"noteNumber": 42,
		"velocity": 127,
		"subtype": "noteOn",
		"time": 216240,
		"track": 5
	},
	{
		"deltaTime": 0,
		"channel": 9,
		"type": "channel",
		"noteNumber": 36,
		"velocity": 127,
		"subtype": "noteOn",
		"time": 216240,
		"track": 5
	},
	{
		"deltaTime": 60,
		"channel": 9,
		"type": "channel",
		"noteNumber": 35,
		"velocity": 127,
		"subtype": "noteOn",
		"time": 216240,
		"track": 5
	},
	{
		"deltaTime": 0,
		"channel": 9,
		"type": "channel",
		"subtype": "noteOff",
		"noteNumber": 35,
		"velocity": 0,
		"time": 216300,
		"track": 5
	},
	{
		"deltaTime": 0,
		"channel": 9,
		"type": "channel",
		"subtype": "noteOff",
		"noteNumber": 36,
		"velocity": 0,
		"time": 216300,
		"track": 5
	},
	{
		"deltaTime": 60,
		"channel": 9,
		"type": "channel",
		"subtype": "noteOff",
		"noteNumber": 42,
		"velocity": 0,
		"time": 216300,
		"track": 5
	},
	{
		"deltaTime": 0,
		"channel": 2,
		"type": "channel",
		"subtype": "noteOff",
		"noteNumber": 47,
		"velocity": 0,
		"time": 216360,
		"track": 4
	},
	{
		"deltaTime": 0,
		"channel": 2,
		"type": "channel",
		"noteNumber": 61,
		"velocity": 127,
		"subtype": "noteOn",
		"time": 216360,
		"track": 4
	},
	{
		"deltaTime": 0,
		"channel": 2,
		"type": "channel",
		"noteNumber": 66,
		"velocity": 127,
		"subtype": "noteOn",
		"time": 216360,
		"track": 4
	},
	{
		"deltaTime": 0,
		"channel": 2,
		"type": "channel",
		"noteNumber": 70,
		"velocity": 127,
		"subtype": "noteOn",
		"time": 216360,
		"track": 4
	},
	{
		"deltaTime": 60,
		"channel": 9,
		"type": "channel",
		"noteNumber": 42,
		"velocity": 127,
		"subtype": "noteOn",
		"time": 216360,
		"track": 5
	},
	{
		"deltaTime": 60,
		"channel": 9,
		"type": "channel",
		"subtype": "noteOff",
		"noteNumber": 42,
		"velocity": 0,
		"time": 216420,
		"track": 5
	},
	{
		"deltaTime": 0,
		"channel": 0,
		"type": "channel",
		"subtype": "noteOff",
		"noteNumber": 35,
		"velocity": 0,
		"time": 216480,
		"track": 2
	},
	{
		"deltaTime": 0,
		"channel": 0,
		"type": "channel",
		"noteNumber": 34,
		"velocity": 127,
		"subtype": "noteOn",
		"time": 216480,
		"track": 2
	},
	{
		"deltaTime": 0,
		"channel": 9,
		"type": "channel",
		"noteNumber": 42,
		"velocity": 127,
		"subtype": "noteOn",
		"time": 216480,
		"track": 5
	},
	{
		"deltaTime": 0,
		"channel": 9,
		"type": "channel",
		"noteNumber": 40,
		"velocity": 127,
		"subtype": "noteOn",
		"time": 216480,
		"track": 5
	},
	{
		"deltaTime": 60,
		"channel": 9,
		"type": "channel",
		"noteNumber": 38,
		"velocity": 127,
		"subtype": "noteOn",
		"time": 216480,
		"track": 5
	},
	{
		"deltaTime": 0,
		"channel": 9,
		"type": "channel",
		"subtype": "noteOff",
		"noteNumber": 38,
		"velocity": 0,
		"time": 216540,
		"track": 5
	},
	{
		"deltaTime": 0,
		"channel": 9,
		"type": "channel",
		"subtype": "noteOff",
		"noteNumber": 40,
		"velocity": 0,
		"time": 216540,
		"track": 5
	},
	{
		"deltaTime": 60,
		"channel": 9,
		"type": "channel",
		"subtype": "noteOff",
		"noteNumber": 42,
		"velocity": 0,
		"time": 216540,
		"track": 5
	},
	{
		"deltaTime": 0,
		"channel": 2,
		"type": "channel",
		"subtype": "noteOff",
		"noteNumber": 70,
		"velocity": 0,
		"time": 216600,
		"track": 4
	},
	{
		"deltaTime": 0,
		"channel": 2,
		"type": "channel",
		"subtype": "noteOff",
		"noteNumber": 66,
		"velocity": 0,
		"time": 216600,
		"track": 4
	},
	{
		"deltaTime": 0,
		"channel": 2,
		"type": "channel",
		"subtype": "noteOff",
		"noteNumber": 61,
		"velocity": 0,
		"time": 216600,
		"track": 4
	},
	{
		"deltaTime": 0,
		"channel": 2,
		"type": "channel",
		"noteNumber": 61,
		"velocity": 127,
		"subtype": "noteOn",
		"time": 216600,
		"track": 4
	},
	{
		"deltaTime": 0,
		"channel": 2,
		"type": "channel",
		"noteNumber": 66,
		"velocity": 127,
		"subtype": "noteOn",
		"time": 216600,
		"track": 4
	},
	{
		"deltaTime": 0,
		"channel": 2,
		"type": "channel",
		"noteNumber": 71,
		"velocity": 127,
		"subtype": "noteOn",
		"time": 216600,
		"track": 4
	},
	{
		"deltaTime": 60,
		"channel": 9,
		"type": "channel",
		"noteNumber": 42,
		"velocity": 127,
		"subtype": "noteOn",
		"time": 216600,
		"track": 5
	},
	{
		"deltaTime": 60,
		"channel": 9,
		"type": "channel",
		"subtype": "noteOff",
		"noteNumber": 42,
		"velocity": 0,
		"time": 216660,
		"track": 5
	},
	{
		"deltaTime": 60,
		"channel": 9,
		"type": "channel",
		"noteNumber": 42,
		"velocity": 127,
		"subtype": "noteOn",
		"time": 216720,
		"track": 5
	},
	{
		"deltaTime": 60,
		"channel": 9,
		"type": "channel",
		"subtype": "noteOff",
		"noteNumber": 42,
		"velocity": 0,
		"time": 216780,
		"track": 5
	},
	{
		"deltaTime": 60,
		"channel": 9,
		"type": "channel",
		"noteNumber": 42,
		"velocity": 127,
		"subtype": "noteOn",
		"time": 216840,
		"track": 5
	},
	{
		"deltaTime": 60,
		"channel": 9,
		"type": "channel",
		"subtype": "noteOff",
		"noteNumber": 42,
		"velocity": 0,
		"time": 216900,
		"track": 5
	},
	{
		"deltaTime": 0,
		"channel": 0,
		"type": "channel",
		"subtype": "noteOff",
		"noteNumber": 34,
		"velocity": 0,
		"time": 216960,
		"track": 2
	},
	{
		"deltaTime": 0,
		"channel": 0,
		"type": "channel",
		"noteNumber": 32,
		"velocity": 127,
		"subtype": "noteOn",
		"time": 216960,
		"track": 2
	},
	{
		"deltaTime": 0,
		"channel": 2,
		"type": "channel",
		"subtype": "noteOff",
		"noteNumber": 71,
		"velocity": 0,
		"time": 216960,
		"track": 4
	},
	{
		"deltaTime": 0,
		"channel": 2,
		"type": "channel",
		"subtype": "noteOff",
		"noteNumber": 66,
		"velocity": 0,
		"time": 216960,
		"track": 4
	},
	{
		"deltaTime": 0,
		"channel": 2,
		"type": "channel",
		"subtype": "noteOff",
		"noteNumber": 61,
		"velocity": 0,
		"time": 216960,
		"track": 4
	},
	{
		"deltaTime": 0,
		"channel": 2,
		"type": "channel",
		"noteNumber": 44,
		"velocity": 127,
		"subtype": "noteOn",
		"time": 216960,
		"track": 4
	},
	{
		"deltaTime": 0,
		"channel": 9,
		"type": "channel",
		"noteNumber": 42,
		"velocity": 127,
		"subtype": "noteOn",
		"time": 216960,
		"track": 5
	},
	{
		"deltaTime": 0,
		"channel": 9,
		"type": "channel",
		"noteNumber": 35,
		"velocity": 127,
		"subtype": "noteOn",
		"time": 216960,
		"track": 5
	},
	{
		"deltaTime": 60,
		"channel": 9,
		"type": "channel",
		"noteNumber": 36,
		"velocity": 127,
		"subtype": "noteOn",
		"time": 216960,
		"track": 5
	},
	{
		"deltaTime": 0,
		"channel": 9,
		"type": "channel",
		"subtype": "noteOff",
		"noteNumber": 36,
		"velocity": 0,
		"time": 217020,
		"track": 5
	},
	{
		"deltaTime": 0,
		"channel": 9,
		"type": "channel",
		"subtype": "noteOff",
		"noteNumber": 35,
		"velocity": 0,
		"time": 217020,
		"track": 5
	},
	{
		"deltaTime": 60,
		"channel": 9,
		"type": "channel",
		"subtype": "noteOff",
		"noteNumber": 42,
		"velocity": 0,
		"time": 217020,
		"track": 5
	},
	{
		"deltaTime": 60,
		"channel": 9,
		"type": "channel",
		"noteNumber": 42,
		"velocity": 127,
		"subtype": "noteOn",
		"time": 217080,
		"track": 5
	},
	{
		"deltaTime": 60,
		"channel": 9,
		"type": "channel",
		"subtype": "noteOff",
		"noteNumber": 42,
		"velocity": 0,
		"time": 217140,
		"track": 5
	},
	{
		"deltaTime": 0,
		"channel": 9,
		"type": "channel",
		"noteNumber": 42,
		"velocity": 127,
		"subtype": "noteOn",
		"time": 217200,
		"track": 5
	},
	{
		"deltaTime": 0,
		"channel": 9,
		"type": "channel",
		"noteNumber": 36,
		"velocity": 127,
		"subtype": "noteOn",
		"time": 217200,
		"track": 5
	},
	{
		"deltaTime": 60,
		"channel": 9,
		"type": "channel",
		"noteNumber": 35,
		"velocity": 127,
		"subtype": "noteOn",
		"time": 217200,
		"track": 5
	},
	{
		"deltaTime": 0,
		"channel": 9,
		"type": "channel",
		"subtype": "noteOff",
		"noteNumber": 35,
		"velocity": 0,
		"time": 217260,
		"track": 5
	},
	{
		"deltaTime": 0,
		"channel": 9,
		"type": "channel",
		"subtype": "noteOff",
		"noteNumber": 36,
		"velocity": 0,
		"time": 217260,
		"track": 5
	},
	{
		"deltaTime": 60,
		"channel": 9,
		"type": "channel",
		"subtype": "noteOff",
		"noteNumber": 42,
		"velocity": 0,
		"time": 217260,
		"track": 5
	},
	{
		"deltaTime": 0,
		"channel": 2,
		"type": "channel",
		"subtype": "noteOff",
		"noteNumber": 44,
		"velocity": 0,
		"time": 217320,
		"track": 4
	},
	{
		"deltaTime": 0,
		"channel": 2,
		"type": "channel",
		"noteNumber": 59,
		"velocity": 127,
		"subtype": "noteOn",
		"time": 217320,
		"track": 4
	},
	{
		"deltaTime": 0,
		"channel": 2,
		"type": "channel",
		"noteNumber": 63,
		"velocity": 127,
		"subtype": "noteOn",
		"time": 217320,
		"track": 4
	},
	{
		"deltaTime": 0,
		"channel": 2,
		"type": "channel",
		"noteNumber": 68,
		"velocity": 127,
		"subtype": "noteOn",
		"time": 217320,
		"track": 4
	},
	{
		"deltaTime": 60,
		"channel": 9,
		"type": "channel",
		"noteNumber": 42,
		"velocity": 127,
		"subtype": "noteOn",
		"time": 217320,
		"track": 5
	},
	{
		"deltaTime": 60,
		"channel": 9,
		"type": "channel",
		"subtype": "noteOff",
		"noteNumber": 42,
		"velocity": 0,
		"time": 217380,
		"track": 5
	},
	{
		"deltaTime": 0,
		"channel": 9,
		"type": "channel",
		"noteNumber": 42,
		"velocity": 127,
		"subtype": "noteOn",
		"time": 217440,
		"track": 5
	},
	{
		"deltaTime": 0,
		"channel": 9,
		"type": "channel",
		"noteNumber": 38,
		"velocity": 127,
		"subtype": "noteOn",
		"time": 217440,
		"track": 5
	},
	{
		"deltaTime": 60,
		"channel": 9,
		"type": "channel",
		"noteNumber": 40,
		"velocity": 127,
		"subtype": "noteOn",
		"time": 217440,
		"track": 5
	},
	{
		"deltaTime": 0,
		"channel": 9,
		"type": "channel",
		"subtype": "noteOff",
		"noteNumber": 40,
		"velocity": 0,
		"time": 217500,
		"track": 5
	},
	{
		"deltaTime": 0,
		"channel": 9,
		"type": "channel",
		"subtype": "noteOff",
		"noteNumber": 38,
		"velocity": 0,
		"time": 217500,
		"track": 5
	},
	{
		"deltaTime": 60,
		"channel": 9,
		"type": "channel",
		"subtype": "noteOff",
		"noteNumber": 42,
		"velocity": 0,
		"time": 217500,
		"track": 5
	},
	{
		"deltaTime": 0,
		"channel": 2,
		"type": "channel",
		"subtype": "noteOff",
		"noteNumber": 68,
		"velocity": 0,
		"time": 217560,
		"track": 4
	},
	{
		"deltaTime": 0,
		"channel": 2,
		"type": "channel",
		"subtype": "noteOff",
		"noteNumber": 63,
		"velocity": 0,
		"time": 217560,
		"track": 4
	},
	{
		"deltaTime": 0,
		"channel": 2,
		"type": "channel",
		"subtype": "noteOff",
		"noteNumber": 59,
		"velocity": 0,
		"time": 217560,
		"track": 4
	},
	{
		"deltaTime": 0,
		"channel": 2,
		"type": "channel",
		"noteNumber": 59,
		"velocity": 127,
		"subtype": "noteOn",
		"time": 217560,
		"track": 4
	},
	{
		"deltaTime": 0,
		"channel": 2,
		"type": "channel",
		"noteNumber": 63,
		"velocity": 127,
		"subtype": "noteOn",
		"time": 217560,
		"track": 4
	},
	{
		"deltaTime": 0,
		"channel": 2,
		"type": "channel",
		"noteNumber": 68,
		"velocity": 127,
		"subtype": "noteOn",
		"time": 217560,
		"track": 4
	},
	{
		"deltaTime": 60,
		"channel": 9,
		"type": "channel",
		"noteNumber": 42,
		"velocity": 127,
		"subtype": "noteOn",
		"time": 217560,
		"track": 5
	},
	{
		"deltaTime": 60,
		"channel": 9,
		"type": "channel",
		"subtype": "noteOff",
		"noteNumber": 42,
		"velocity": 0,
		"time": 217620,
		"track": 5
	},
	{
		"deltaTime": 60,
		"channel": 9,
		"type": "channel",
		"noteNumber": 42,
		"velocity": 127,
		"subtype": "noteOn",
		"time": 217680,
		"track": 5
	},
	{
		"deltaTime": 60,
		"channel": 9,
		"type": "channel",
		"subtype": "noteOff",
		"noteNumber": 42,
		"velocity": 0,
		"time": 217740,
		"track": 5
	},
	{
		"deltaTime": 0,
		"channel": 9,
		"type": "channel",
		"noteNumber": 42,
		"velocity": 127,
		"subtype": "noteOn",
		"time": 217800,
		"track": 5
	},
	{
		"deltaTime": 0,
		"channel": 9,
		"type": "channel",
		"noteNumber": 36,
		"velocity": 127,
		"subtype": "noteOn",
		"time": 217800,
		"track": 5
	},
	{
		"deltaTime": 60,
		"channel": 9,
		"type": "channel",
		"noteNumber": 35,
		"velocity": 127,
		"subtype": "noteOn",
		"time": 217800,
		"track": 5
	},
	{
		"deltaTime": 0,
		"channel": 9,
		"type": "channel",
		"subtype": "noteOff",
		"noteNumber": 35,
		"velocity": 0,
		"time": 217860,
		"track": 5
	},
	{
		"deltaTime": 0,
		"channel": 9,
		"type": "channel",
		"subtype": "noteOff",
		"noteNumber": 36,
		"velocity": 0,
		"time": 217860,
		"track": 5
	},
	{
		"deltaTime": 60,
		"channel": 9,
		"type": "channel",
		"subtype": "noteOff",
		"noteNumber": 42,
		"velocity": 0,
		"time": 217860,
		"track": 5
	},
	{
		"deltaTime": 0,
		"channel": 0,
		"type": "channel",
		"subtype": "noteOff",
		"noteNumber": 32,
		"velocity": 0,
		"time": 217920,
		"track": 2
	},
	{
		"deltaTime": 0,
		"channel": 0,
		"type": "channel",
		"noteNumber": 40,
		"velocity": 127,
		"subtype": "noteOn",
		"time": 217920,
		"track": 2
	},
	{
		"deltaTime": 0,
		"channel": 2,
		"type": "channel",
		"subtype": "noteOff",
		"noteNumber": 68,
		"velocity": 0,
		"time": 217920,
		"track": 4
	},
	{
		"deltaTime": 0,
		"channel": 2,
		"type": "channel",
		"subtype": "noteOff",
		"noteNumber": 63,
		"velocity": 0,
		"time": 217920,
		"track": 4
	},
	{
		"deltaTime": 0,
		"channel": 2,
		"type": "channel",
		"subtype": "noteOff",
		"noteNumber": 59,
		"velocity": 0,
		"time": 217920,
		"track": 4
	},
	{
		"deltaTime": 0,
		"channel": 2,
		"type": "channel",
		"noteNumber": 40,
		"velocity": 127,
		"subtype": "noteOn",
		"time": 217920,
		"track": 4
	},
	{
		"deltaTime": 60,
		"channel": 9,
		"type": "channel",
		"noteNumber": 42,
		"velocity": 127,
		"subtype": "noteOn",
		"time": 217920,
		"track": 5
	},
	{
		"deltaTime": 60,
		"channel": 9,
		"type": "channel",
		"subtype": "noteOff",
		"noteNumber": 42,
		"velocity": 0,
		"time": 217980,
		"track": 5
	},
	{
		"deltaTime": 60,
		"channel": 9,
		"type": "channel",
		"noteNumber": 42,
		"velocity": 127,
		"subtype": "noteOn",
		"time": 218040,
		"track": 5
	},
	{
		"deltaTime": 60,
		"channel": 9,
		"type": "channel",
		"subtype": "noteOff",
		"noteNumber": 42,
		"velocity": 0,
		"time": 218100,
		"track": 5
	},
	{
		"deltaTime": 0,
		"channel": 9,
		"type": "channel",
		"noteNumber": 42,
		"velocity": 127,
		"subtype": "noteOn",
		"time": 218160,
		"track": 5
	},
	{
		"deltaTime": 0,
		"channel": 9,
		"type": "channel",
		"noteNumber": 36,
		"velocity": 127,
		"subtype": "noteOn",
		"time": 218160,
		"track": 5
	},
	{
		"deltaTime": 60,
		"channel": 9,
		"type": "channel",
		"noteNumber": 35,
		"velocity": 127,
		"subtype": "noteOn",
		"time": 218160,
		"track": 5
	},
	{
		"deltaTime": 0,
		"channel": 9,
		"type": "channel",
		"subtype": "noteOff",
		"noteNumber": 35,
		"velocity": 0,
		"time": 218220,
		"track": 5
	},
	{
		"deltaTime": 0,
		"channel": 9,
		"type": "channel",
		"subtype": "noteOff",
		"noteNumber": 36,
		"velocity": 0,
		"time": 218220,
		"track": 5
	},
	{
		"deltaTime": 60,
		"channel": 9,
		"type": "channel",
		"subtype": "noteOff",
		"noteNumber": 42,
		"velocity": 0,
		"time": 218220,
		"track": 5
	},
	{
		"deltaTime": 0,
		"channel": 2,
		"type": "channel",
		"subtype": "noteOff",
		"noteNumber": 40,
		"velocity": 0,
		"time": 218280,
		"track": 4
	},
	{
		"deltaTime": 0,
		"channel": 2,
		"type": "channel",
		"noteNumber": 59,
		"velocity": 127,
		"subtype": "noteOn",
		"time": 218280,
		"track": 4
	},
	{
		"deltaTime": 0,
		"channel": 2,
		"type": "channel",
		"noteNumber": 63,
		"velocity": 127,
		"subtype": "noteOn",
		"time": 218280,
		"track": 4
	},
	{
		"deltaTime": 0,
		"channel": 2,
		"type": "channel",
		"noteNumber": 68,
		"velocity": 127,
		"subtype": "noteOn",
		"time": 218280,
		"track": 4
	},
	{
		"deltaTime": 60,
		"channel": 9,
		"type": "channel",
		"noteNumber": 42,
		"velocity": 127,
		"subtype": "noteOn",
		"time": 218280,
		"track": 5
	},
	{
		"deltaTime": 60,
		"channel": 9,
		"type": "channel",
		"subtype": "noteOff",
		"noteNumber": 42,
		"velocity": 0,
		"time": 218340,
		"track": 5
	},
	{
		"deltaTime": 0,
		"channel": 9,
		"type": "channel",
		"noteNumber": 42,
		"velocity": 127,
		"subtype": "noteOn",
		"time": 218400,
		"track": 5
	},
	{
		"deltaTime": 0,
		"channel": 9,
		"type": "channel",
		"noteNumber": 40,
		"velocity": 127,
		"subtype": "noteOn",
		"time": 218400,
		"track": 5
	},
	{
		"deltaTime": 60,
		"channel": 9,
		"type": "channel",
		"noteNumber": 38,
		"velocity": 127,
		"subtype": "noteOn",
		"time": 218400,
		"track": 5
	},
	{
		"deltaTime": 0,
		"channel": 9,
		"type": "channel",
		"subtype": "noteOff",
		"noteNumber": 38,
		"velocity": 0,
		"time": 218460,
		"track": 5
	},
	{
		"deltaTime": 0,
		"channel": 9,
		"type": "channel",
		"subtype": "noteOff",
		"noteNumber": 40,
		"velocity": 0,
		"time": 218460,
		"track": 5
	},
	{
		"deltaTime": 60,
		"channel": 9,
		"type": "channel",
		"subtype": "noteOff",
		"noteNumber": 42,
		"velocity": 0,
		"time": 218460,
		"track": 5
	},
	{
		"deltaTime": 0,
		"channel": 2,
		"type": "channel",
		"subtype": "noteOff",
		"noteNumber": 68,
		"velocity": 0,
		"time": 218520,
		"track": 4
	},
	{
		"deltaTime": 0,
		"channel": 2,
		"type": "channel",
		"subtype": "noteOff",
		"noteNumber": 63,
		"velocity": 0,
		"time": 218520,
		"track": 4
	},
	{
		"deltaTime": 0,
		"channel": 2,
		"type": "channel",
		"subtype": "noteOff",
		"noteNumber": 59,
		"velocity": 0,
		"time": 218520,
		"track": 4
	},
	{
		"deltaTime": 0,
		"channel": 2,
		"type": "channel",
		"noteNumber": 59,
		"velocity": 127,
		"subtype": "noteOn",
		"time": 218520,
		"track": 4
	},
	{
		"deltaTime": 0,
		"channel": 2,
		"type": "channel",
		"noteNumber": 63,
		"velocity": 127,
		"subtype": "noteOn",
		"time": 218520,
		"track": 4
	},
	{
		"deltaTime": 0,
		"channel": 2,
		"type": "channel",
		"noteNumber": 68,
		"velocity": 127,
		"subtype": "noteOn",
		"time": 218520,
		"track": 4
	},
	{
		"deltaTime": 60,
		"channel": 9,
		"type": "channel",
		"noteNumber": 42,
		"velocity": 127,
		"subtype": "noteOn",
		"time": 218520,
		"track": 5
	},
	{
		"deltaTime": 60,
		"channel": 9,
		"type": "channel",
		"subtype": "noteOff",
		"noteNumber": 42,
		"velocity": 0,
		"time": 218580,
		"track": 5
	},
	{
		"deltaTime": 60,
		"channel": 9,
		"type": "channel",
		"noteNumber": 42,
		"velocity": 127,
		"subtype": "noteOn",
		"time": 218640,
		"track": 5
	},
	{
		"deltaTime": 60,
		"channel": 9,
		"type": "channel",
		"subtype": "noteOff",
		"noteNumber": 42,
		"velocity": 0,
		"time": 218700,
		"track": 5
	},
	{
		"deltaTime": 60,
		"channel": 9,
		"type": "channel",
		"noteNumber": 42,
		"velocity": 127,
		"subtype": "noteOn",
		"time": 218760,
		"track": 5
	},
	{
		"deltaTime": 60,
		"channel": 9,
		"type": "channel",
		"subtype": "noteOff",
		"noteNumber": 42,
		"velocity": 0,
		"time": 218820,
		"track": 5
	},
	{
		"deltaTime": 0,
		"channel": 0,
		"type": "channel",
		"subtype": "noteOff",
		"noteNumber": 40,
		"velocity": 0,
		"time": 218880,
		"track": 2
	},
	{
		"deltaTime": 0,
		"channel": 0,
		"type": "channel",
		"noteNumber": 42,
		"velocity": 127,
		"subtype": "noteOn",
		"time": 218880,
		"track": 2
	},
	{
		"deltaTime": 0,
		"channel": 2,
		"type": "channel",
		"subtype": "noteOff",
		"noteNumber": 68,
		"velocity": 0,
		"time": 218880,
		"track": 4
	},
	{
		"deltaTime": 0,
		"channel": 2,
		"type": "channel",
		"subtype": "noteOff",
		"noteNumber": 63,
		"velocity": 0,
		"time": 218880,
		"track": 4
	},
	{
		"deltaTime": 0,
		"channel": 2,
		"type": "channel",
		"subtype": "noteOff",
		"noteNumber": 59,
		"velocity": 0,
		"time": 218880,
		"track": 4
	},
	{
		"deltaTime": 0,
		"channel": 2,
		"type": "channel",
		"noteNumber": 42,
		"velocity": 127,
		"subtype": "noteOn",
		"time": 218880,
		"track": 4
	},
	{
		"deltaTime": 0,
		"channel": 9,
		"type": "channel",
		"noteNumber": 42,
		"velocity": 127,
		"subtype": "noteOn",
		"time": 218880,
		"track": 5
	},
	{
		"deltaTime": 0,
		"channel": 9,
		"type": "channel",
		"noteNumber": 35,
		"velocity": 127,
		"subtype": "noteOn",
		"time": 218880,
		"track": 5
	},
	{
		"deltaTime": 60,
		"channel": 9,
		"type": "channel",
		"noteNumber": 36,
		"velocity": 127,
		"subtype": "noteOn",
		"time": 218880,
		"track": 5
	},
	{
		"deltaTime": 0,
		"channel": 9,
		"type": "channel",
		"subtype": "noteOff",
		"noteNumber": 36,
		"velocity": 0,
		"time": 218940,
		"track": 5
	},
	{
		"deltaTime": 0,
		"channel": 9,
		"type": "channel",
		"subtype": "noteOff",
		"noteNumber": 35,
		"velocity": 0,
		"time": 218940,
		"track": 5
	},
	{
		"deltaTime": 60,
		"channel": 9,
		"type": "channel",
		"subtype": "noteOff",
		"noteNumber": 42,
		"velocity": 0,
		"time": 218940,
		"track": 5
	},
	{
		"deltaTime": 60,
		"channel": 9,
		"type": "channel",
		"noteNumber": 42,
		"velocity": 127,
		"subtype": "noteOn",
		"time": 219000,
		"track": 5
	},
	{
		"deltaTime": 60,
		"channel": 9,
		"type": "channel",
		"subtype": "noteOff",
		"noteNumber": 42,
		"velocity": 0,
		"time": 219060,
		"track": 5
	},
	{
		"deltaTime": 0,
		"channel": 9,
		"type": "channel",
		"noteNumber": 42,
		"velocity": 127,
		"subtype": "noteOn",
		"time": 219120,
		"track": 5
	},
	{
		"deltaTime": 0,
		"channel": 9,
		"type": "channel",
		"noteNumber": 36,
		"velocity": 127,
		"subtype": "noteOn",
		"time": 219120,
		"track": 5
	},
	{
		"deltaTime": 60,
		"channel": 9,
		"type": "channel",
		"noteNumber": 35,
		"velocity": 127,
		"subtype": "noteOn",
		"time": 219120,
		"track": 5
	},
	{
		"deltaTime": 0,
		"channel": 9,
		"type": "channel",
		"subtype": "noteOff",
		"noteNumber": 35,
		"velocity": 0,
		"time": 219180,
		"track": 5
	},
	{
		"deltaTime": 0,
		"channel": 9,
		"type": "channel",
		"subtype": "noteOff",
		"noteNumber": 36,
		"velocity": 0,
		"time": 219180,
		"track": 5
	},
	{
		"deltaTime": 60,
		"channel": 9,
		"type": "channel",
		"subtype": "noteOff",
		"noteNumber": 42,
		"velocity": 0,
		"time": 219180,
		"track": 5
	},
	{
		"deltaTime": 0,
		"channel": 2,
		"type": "channel",
		"subtype": "noteOff",
		"noteNumber": 42,
		"velocity": 0,
		"time": 219240,
		"track": 4
	},
	{
		"deltaTime": 0,
		"channel": 2,
		"type": "channel",
		"noteNumber": 61,
		"velocity": 127,
		"subtype": "noteOn",
		"time": 219240,
		"track": 4
	},
	{
		"deltaTime": 0,
		"channel": 2,
		"type": "channel",
		"noteNumber": 66,
		"velocity": 127,
		"subtype": "noteOn",
		"time": 219240,
		"track": 4
	},
	{
		"deltaTime": 0,
		"channel": 2,
		"type": "channel",
		"noteNumber": 70,
		"velocity": 127,
		"subtype": "noteOn",
		"time": 219240,
		"track": 4
	},
	{
		"deltaTime": 60,
		"channel": 9,
		"type": "channel",
		"noteNumber": 42,
		"velocity": 127,
		"subtype": "noteOn",
		"time": 219240,
		"track": 5
	},
	{
		"deltaTime": 60,
		"channel": 9,
		"type": "channel",
		"subtype": "noteOff",
		"noteNumber": 42,
		"velocity": 0,
		"time": 219300,
		"track": 5
	},
	{
		"deltaTime": 0,
		"channel": 9,
		"type": "channel",
		"noteNumber": 42,
		"velocity": 127,
		"subtype": "noteOn",
		"time": 219360,
		"track": 5
	},
	{
		"deltaTime": 0,
		"channel": 9,
		"type": "channel",
		"noteNumber": 38,
		"velocity": 127,
		"subtype": "noteOn",
		"time": 219360,
		"track": 5
	},
	{
		"deltaTime": 60,
		"channel": 9,
		"type": "channel",
		"noteNumber": 40,
		"velocity": 127,
		"subtype": "noteOn",
		"time": 219360,
		"track": 5
	},
	{
		"deltaTime": 0,
		"channel": 9,
		"type": "channel",
		"subtype": "noteOff",
		"noteNumber": 40,
		"velocity": 0,
		"time": 219420,
		"track": 5
	},
	{
		"deltaTime": 0,
		"channel": 9,
		"type": "channel",
		"subtype": "noteOff",
		"noteNumber": 38,
		"velocity": 0,
		"time": 219420,
		"track": 5
	},
	{
		"deltaTime": 60,
		"channel": 9,
		"type": "channel",
		"subtype": "noteOff",
		"noteNumber": 42,
		"velocity": 0,
		"time": 219420,
		"track": 5
	},
	{
		"deltaTime": 0,
		"channel": 2,
		"type": "channel",
		"subtype": "noteOff",
		"noteNumber": 70,
		"velocity": 0,
		"time": 219480,
		"track": 4
	},
	{
		"deltaTime": 0,
		"channel": 2,
		"type": "channel",
		"subtype": "noteOff",
		"noteNumber": 66,
		"velocity": 0,
		"time": 219480,
		"track": 4
	},
	{
		"deltaTime": 0,
		"channel": 2,
		"type": "channel",
		"subtype": "noteOff",
		"noteNumber": 61,
		"velocity": 0,
		"time": 219480,
		"track": 4
	},
	{
		"deltaTime": 0,
		"channel": 2,
		"type": "channel",
		"noteNumber": 61,
		"velocity": 127,
		"subtype": "noteOn",
		"time": 219480,
		"track": 4
	},
	{
		"deltaTime": 0,
		"channel": 2,
		"type": "channel",
		"noteNumber": 66,
		"velocity": 127,
		"subtype": "noteOn",
		"time": 219480,
		"track": 4
	},
	{
		"deltaTime": 0,
		"channel": 2,
		"type": "channel",
		"noteNumber": 70,
		"velocity": 127,
		"subtype": "noteOn",
		"time": 219480,
		"track": 4
	},
	{
		"deltaTime": 60,
		"channel": 9,
		"type": "channel",
		"noteNumber": 42,
		"velocity": 127,
		"subtype": "noteOn",
		"time": 219480,
		"track": 5
	},
	{
		"deltaTime": 60,
		"channel": 9,
		"type": "channel",
		"subtype": "noteOff",
		"noteNumber": 42,
		"velocity": 0,
		"time": 219540,
		"track": 5
	},
	{
		"deltaTime": 60,
		"channel": 9,
		"type": "channel",
		"noteNumber": 42,
		"velocity": 127,
		"subtype": "noteOn",
		"time": 219600,
		"track": 5
	},
	{
		"deltaTime": 60,
		"channel": 9,
		"type": "channel",
		"subtype": "noteOff",
		"noteNumber": 42,
		"velocity": 0,
		"time": 219660,
		"track": 5
	},
	{
		"deltaTime": 0,
		"channel": 9,
		"type": "channel",
		"noteNumber": 42,
		"velocity": 127,
		"subtype": "noteOn",
		"time": 219720,
		"track": 5
	},
	{
		"deltaTime": 0,
		"channel": 9,
		"type": "channel",
		"noteNumber": 36,
		"velocity": 127,
		"subtype": "noteOn",
		"time": 219720,
		"track": 5
	},
	{
		"deltaTime": 60,
		"channel": 9,
		"type": "channel",
		"noteNumber": 35,
		"velocity": 127,
		"subtype": "noteOn",
		"time": 219720,
		"track": 5
	},
	{
		"deltaTime": 0,
		"channel": 9,
		"type": "channel",
		"subtype": "noteOff",
		"noteNumber": 35,
		"velocity": 0,
		"time": 219780,
		"track": 5
	},
	{
		"deltaTime": 0,
		"channel": 9,
		"type": "channel",
		"subtype": "noteOff",
		"noteNumber": 36,
		"velocity": 0,
		"time": 219780,
		"track": 5
	},
	{
		"deltaTime": 60,
		"channel": 9,
		"type": "channel",
		"subtype": "noteOff",
		"noteNumber": 42,
		"velocity": 0,
		"time": 219780,
		"track": 5
	},
	{
		"deltaTime": 0,
		"channel": 0,
		"type": "channel",
		"subtype": "noteOff",
		"noteNumber": 42,
		"velocity": 0,
		"time": 219840,
		"track": 2
	},
	{
		"deltaTime": 0,
		"channel": 0,
		"type": "channel",
		"noteNumber": 35,
		"velocity": 127,
		"subtype": "noteOn",
		"time": 219840,
		"track": 2
	},
	{
		"deltaTime": 0,
		"channel": 2,
		"type": "channel",
		"subtype": "noteOff",
		"noteNumber": 70,
		"velocity": 0,
		"time": 219840,
		"track": 4
	},
	{
		"deltaTime": 0,
		"channel": 2,
		"type": "channel",
		"subtype": "noteOff",
		"noteNumber": 66,
		"velocity": 0,
		"time": 219840,
		"track": 4
	},
	{
		"deltaTime": 0,
		"channel": 2,
		"type": "channel",
		"subtype": "noteOff",
		"noteNumber": 61,
		"velocity": 0,
		"time": 219840,
		"track": 4
	},
	{
		"deltaTime": 0,
		"channel": 2,
		"type": "channel",
		"noteNumber": 47,
		"velocity": 127,
		"subtype": "noteOn",
		"time": 219840,
		"track": 4
	},
	{
		"deltaTime": 60,
		"channel": 9,
		"type": "channel",
		"noteNumber": 42,
		"velocity": 127,
		"subtype": "noteOn",
		"time": 219840,
		"track": 5
	},
	{
		"deltaTime": 60,
		"channel": 9,
		"type": "channel",
		"subtype": "noteOff",
		"noteNumber": 42,
		"velocity": 0,
		"time": 219900,
		"track": 5
	},
	{
		"deltaTime": 60,
		"channel": 9,
		"type": "channel",
		"noteNumber": 42,
		"velocity": 127,
		"subtype": "noteOn",
		"time": 219960,
		"track": 5
	},
	{
		"deltaTime": 60,
		"channel": 9,
		"type": "channel",
		"subtype": "noteOff",
		"noteNumber": 42,
		"velocity": 0,
		"time": 220020,
		"track": 5
	},
	{
		"deltaTime": 0,
		"channel": 9,
		"type": "channel",
		"noteNumber": 42,
		"velocity": 127,
		"subtype": "noteOn",
		"time": 220080,
		"track": 5
	},
	{
		"deltaTime": 0,
		"channel": 9,
		"type": "channel",
		"noteNumber": 36,
		"velocity": 127,
		"subtype": "noteOn",
		"time": 220080,
		"track": 5
	},
	{
		"deltaTime": 60,
		"channel": 9,
		"type": "channel",
		"noteNumber": 35,
		"velocity": 127,
		"subtype": "noteOn",
		"time": 220080,
		"track": 5
	},
	{
		"deltaTime": 0,
		"channel": 9,
		"type": "channel",
		"subtype": "noteOff",
		"noteNumber": 35,
		"velocity": 0,
		"time": 220140,
		"track": 5
	},
	{
		"deltaTime": 0,
		"channel": 9,
		"type": "channel",
		"subtype": "noteOff",
		"noteNumber": 36,
		"velocity": 0,
		"time": 220140,
		"track": 5
	},
	{
		"deltaTime": 60,
		"channel": 9,
		"type": "channel",
		"subtype": "noteOff",
		"noteNumber": 42,
		"velocity": 0,
		"time": 220140,
		"track": 5
	},
	{
		"deltaTime": 0,
		"channel": 2,
		"type": "channel",
		"subtype": "noteOff",
		"noteNumber": 47,
		"velocity": 0,
		"time": 220200,
		"track": 4
	},
	{
		"deltaTime": 0,
		"channel": 2,
		"type": "channel",
		"noteNumber": 61,
		"velocity": 127,
		"subtype": "noteOn",
		"time": 220200,
		"track": 4
	},
	{
		"deltaTime": 0,
		"channel": 2,
		"type": "channel",
		"noteNumber": 66,
		"velocity": 127,
		"subtype": "noteOn",
		"time": 220200,
		"track": 4
	},
	{
		"deltaTime": 0,
		"channel": 2,
		"type": "channel",
		"noteNumber": 70,
		"velocity": 127,
		"subtype": "noteOn",
		"time": 220200,
		"track": 4
	},
	{
		"deltaTime": 60,
		"channel": 9,
		"type": "channel",
		"noteNumber": 42,
		"velocity": 127,
		"subtype": "noteOn",
		"time": 220200,
		"track": 5
	},
	{
		"deltaTime": 60,
		"channel": 9,
		"type": "channel",
		"subtype": "noteOff",
		"noteNumber": 42,
		"velocity": 0,
		"time": 220260,
		"track": 5
	},
	{
		"deltaTime": 0,
		"channel": 0,
		"type": "channel",
		"subtype": "noteOff",
		"noteNumber": 35,
		"velocity": 0,
		"time": 220320,
		"track": 2
	},
	{
		"deltaTime": 0,
		"channel": 0,
		"type": "channel",
		"noteNumber": 34,
		"velocity": 127,
		"subtype": "noteOn",
		"time": 220320,
		"track": 2
	},
	{
		"deltaTime": 0,
		"channel": 9,
		"type": "channel",
		"noteNumber": 42,
		"velocity": 127,
		"subtype": "noteOn",
		"time": 220320,
		"track": 5
	},
	{
		"deltaTime": 0,
		"channel": 9,
		"type": "channel",
		"noteNumber": 40,
		"velocity": 127,
		"subtype": "noteOn",
		"time": 220320,
		"track": 5
	},
	{
		"deltaTime": 60,
		"channel": 9,
		"type": "channel",
		"noteNumber": 38,
		"velocity": 127,
		"subtype": "noteOn",
		"time": 220320,
		"track": 5
	},
	{
		"deltaTime": 0,
		"channel": 9,
		"type": "channel",
		"subtype": "noteOff",
		"noteNumber": 38,
		"velocity": 0,
		"time": 220380,
		"track": 5
	},
	{
		"deltaTime": 0,
		"channel": 9,
		"type": "channel",
		"subtype": "noteOff",
		"noteNumber": 40,
		"velocity": 0,
		"time": 220380,
		"track": 5
	},
	{
		"deltaTime": 60,
		"channel": 9,
		"type": "channel",
		"subtype": "noteOff",
		"noteNumber": 42,
		"velocity": 0,
		"time": 220380,
		"track": 5
	},
	{
		"deltaTime": 0,
		"channel": 2,
		"type": "channel",
		"subtype": "noteOff",
		"noteNumber": 70,
		"velocity": 0,
		"time": 220440,
		"track": 4
	},
	{
		"deltaTime": 0,
		"channel": 2,
		"type": "channel",
		"subtype": "noteOff",
		"noteNumber": 66,
		"velocity": 0,
		"time": 220440,
		"track": 4
	},
	{
		"deltaTime": 0,
		"channel": 2,
		"type": "channel",
		"subtype": "noteOff",
		"noteNumber": 61,
		"velocity": 0,
		"time": 220440,
		"track": 4
	},
	{
		"deltaTime": 0,
		"channel": 2,
		"type": "channel",
		"noteNumber": 61,
		"velocity": 127,
		"subtype": "noteOn",
		"time": 220440,
		"track": 4
	},
	{
		"deltaTime": 0,
		"channel": 2,
		"type": "channel",
		"noteNumber": 66,
		"velocity": 127,
		"subtype": "noteOn",
		"time": 220440,
		"track": 4
	},
	{
		"deltaTime": 0,
		"channel": 2,
		"type": "channel",
		"noteNumber": 71,
		"velocity": 127,
		"subtype": "noteOn",
		"time": 220440,
		"track": 4
	},
	{
		"deltaTime": 60,
		"channel": 9,
		"type": "channel",
		"noteNumber": 42,
		"velocity": 127,
		"subtype": "noteOn",
		"time": 220440,
		"track": 5
	},
	{
		"deltaTime": 60,
		"channel": 9,
		"type": "channel",
		"subtype": "noteOff",
		"noteNumber": 42,
		"velocity": 0,
		"time": 220500,
		"track": 5
	},
	{
		"deltaTime": 60,
		"channel": 9,
		"type": "channel",
		"noteNumber": 42,
		"velocity": 127,
		"subtype": "noteOn",
		"time": 220560,
		"track": 5
	},
	{
		"deltaTime": 60,
		"channel": 9,
		"type": "channel",
		"subtype": "noteOff",
		"noteNumber": 42,
		"velocity": 0,
		"time": 220620,
		"track": 5
	},
	{
		"deltaTime": 60,
		"channel": 9,
		"type": "channel",
		"noteNumber": 42,
		"velocity": 127,
		"subtype": "noteOn",
		"time": 220680,
		"track": 5
	},
	{
		"deltaTime": 60,
		"channel": 9,
		"type": "channel",
		"subtype": "noteOff",
		"noteNumber": 42,
		"velocity": 0,
		"time": 220740,
		"track": 5
	},
	{
		"deltaTime": 0,
		"channel": 0,
		"type": "channel",
		"subtype": "noteOff",
		"noteNumber": 34,
		"velocity": 0,
		"time": 220800,
		"track": 2
	},
	{
		"deltaTime": 0,
		"channel": 0,
		"type": "channel",
		"noteNumber": 32,
		"velocity": 127,
		"subtype": "noteOn",
		"time": 220800,
		"track": 2
	},
	{
		"deltaTime": 0,
		"channel": 2,
		"type": "channel",
		"subtype": "noteOff",
		"noteNumber": 71,
		"velocity": 0,
		"time": 220800,
		"track": 4
	},
	{
		"deltaTime": 0,
		"channel": 2,
		"type": "channel",
		"subtype": "noteOff",
		"noteNumber": 66,
		"velocity": 0,
		"time": 220800,
		"track": 4
	},
	{
		"deltaTime": 0,
		"channel": 2,
		"type": "channel",
		"subtype": "noteOff",
		"noteNumber": 61,
		"velocity": 0,
		"time": 220800,
		"track": 4
	},
	{
		"deltaTime": 0,
		"channel": 2,
		"type": "channel",
		"noteNumber": 44,
		"velocity": 127,
		"subtype": "noteOn",
		"time": 220800,
		"track": 4
	},
	{
		"deltaTime": 0,
		"channel": 9,
		"type": "channel",
		"noteNumber": 42,
		"velocity": 127,
		"subtype": "noteOn",
		"time": 220800,
		"track": 5
	},
	{
		"deltaTime": 0,
		"channel": 9,
		"type": "channel",
		"noteNumber": 35,
		"velocity": 127,
		"subtype": "noteOn",
		"time": 220800,
		"track": 5
	},
	{
		"deltaTime": 60,
		"channel": 9,
		"type": "channel",
		"noteNumber": 36,
		"velocity": 127,
		"subtype": "noteOn",
		"time": 220800,
		"track": 5
	},
	{
		"deltaTime": 0,
		"channel": 9,
		"type": "channel",
		"subtype": "noteOff",
		"noteNumber": 36,
		"velocity": 0,
		"time": 220860,
		"track": 5
	},
	{
		"deltaTime": 0,
		"channel": 9,
		"type": "channel",
		"subtype": "noteOff",
		"noteNumber": 35,
		"velocity": 0,
		"time": 220860,
		"track": 5
	},
	{
		"deltaTime": 60,
		"channel": 9,
		"type": "channel",
		"subtype": "noteOff",
		"noteNumber": 42,
		"velocity": 0,
		"time": 220860,
		"track": 5
	},
	{
		"deltaTime": 60,
		"channel": 9,
		"type": "channel",
		"noteNumber": 42,
		"velocity": 127,
		"subtype": "noteOn",
		"time": 220920,
		"track": 5
	},
	{
		"deltaTime": 60,
		"channel": 9,
		"type": "channel",
		"subtype": "noteOff",
		"noteNumber": 42,
		"velocity": 0,
		"time": 220980,
		"track": 5
	},
	{
		"deltaTime": 0,
		"channel": 9,
		"type": "channel",
		"noteNumber": 42,
		"velocity": 127,
		"subtype": "noteOn",
		"time": 221040,
		"track": 5
	},
	{
		"deltaTime": 0,
		"channel": 9,
		"type": "channel",
		"noteNumber": 36,
		"velocity": 127,
		"subtype": "noteOn",
		"time": 221040,
		"track": 5
	},
	{
		"deltaTime": 60,
		"channel": 9,
		"type": "channel",
		"noteNumber": 35,
		"velocity": 127,
		"subtype": "noteOn",
		"time": 221040,
		"track": 5
	},
	{
		"deltaTime": 0,
		"channel": 9,
		"type": "channel",
		"subtype": "noteOff",
		"noteNumber": 35,
		"velocity": 0,
		"time": 221100,
		"track": 5
	},
	{
		"deltaTime": 0,
		"channel": 9,
		"type": "channel",
		"subtype": "noteOff",
		"noteNumber": 36,
		"velocity": 0,
		"time": 221100,
		"track": 5
	},
	{
		"deltaTime": 60,
		"channel": 9,
		"type": "channel",
		"subtype": "noteOff",
		"noteNumber": 42,
		"velocity": 0,
		"time": 221100,
		"track": 5
	},
	{
		"deltaTime": 0,
		"channel": 2,
		"type": "channel",
		"subtype": "noteOff",
		"noteNumber": 44,
		"velocity": 0,
		"time": 221160,
		"track": 4
	},
	{
		"deltaTime": 0,
		"channel": 2,
		"type": "channel",
		"noteNumber": 59,
		"velocity": 127,
		"subtype": "noteOn",
		"time": 221160,
		"track": 4
	},
	{
		"deltaTime": 0,
		"channel": 2,
		"type": "channel",
		"noteNumber": 63,
		"velocity": 127,
		"subtype": "noteOn",
		"time": 221160,
		"track": 4
	},
	{
		"deltaTime": 0,
		"channel": 2,
		"type": "channel",
		"noteNumber": 68,
		"velocity": 127,
		"subtype": "noteOn",
		"time": 221160,
		"track": 4
	},
	{
		"deltaTime": 60,
		"channel": 9,
		"type": "channel",
		"noteNumber": 42,
		"velocity": 127,
		"subtype": "noteOn",
		"time": 221160,
		"track": 5
	},
	{
		"deltaTime": 60,
		"channel": 9,
		"type": "channel",
		"subtype": "noteOff",
		"noteNumber": 42,
		"velocity": 0,
		"time": 221220,
		"track": 5
	},
	{
		"deltaTime": 0,
		"channel": 9,
		"type": "channel",
		"noteNumber": 42,
		"velocity": 127,
		"subtype": "noteOn",
		"time": 221280,
		"track": 5
	},
	{
		"deltaTime": 0,
		"channel": 9,
		"type": "channel",
		"noteNumber": 38,
		"velocity": 127,
		"subtype": "noteOn",
		"time": 221280,
		"track": 5
	},
	{
		"deltaTime": 60,
		"channel": 9,
		"type": "channel",
		"noteNumber": 40,
		"velocity": 127,
		"subtype": "noteOn",
		"time": 221280,
		"track": 5
	},
	{
		"deltaTime": 0,
		"channel": 9,
		"type": "channel",
		"subtype": "noteOff",
		"noteNumber": 40,
		"velocity": 0,
		"time": 221340,
		"track": 5
	},
	{
		"deltaTime": 0,
		"channel": 9,
		"type": "channel",
		"subtype": "noteOff",
		"noteNumber": 38,
		"velocity": 0,
		"time": 221340,
		"track": 5
	},
	{
		"deltaTime": 60,
		"channel": 9,
		"type": "channel",
		"subtype": "noteOff",
		"noteNumber": 42,
		"velocity": 0,
		"time": 221340,
		"track": 5
	},
	{
		"deltaTime": 0,
		"channel": 2,
		"type": "channel",
		"subtype": "noteOff",
		"noteNumber": 68,
		"velocity": 0,
		"time": 221400,
		"track": 4
	},
	{
		"deltaTime": 0,
		"channel": 2,
		"type": "channel",
		"subtype": "noteOff",
		"noteNumber": 63,
		"velocity": 0,
		"time": 221400,
		"track": 4
	},
	{
		"deltaTime": 0,
		"channel": 2,
		"type": "channel",
		"subtype": "noteOff",
		"noteNumber": 59,
		"velocity": 0,
		"time": 221400,
		"track": 4
	},
	{
		"deltaTime": 0,
		"channel": 2,
		"type": "channel",
		"noteNumber": 59,
		"velocity": 127,
		"subtype": "noteOn",
		"time": 221400,
		"track": 4
	},
	{
		"deltaTime": 0,
		"channel": 2,
		"type": "channel",
		"noteNumber": 63,
		"velocity": 127,
		"subtype": "noteOn",
		"time": 221400,
		"track": 4
	},
	{
		"deltaTime": 0,
		"channel": 2,
		"type": "channel",
		"noteNumber": 68,
		"velocity": 127,
		"subtype": "noteOn",
		"time": 221400,
		"track": 4
	},
	{
		"deltaTime": 60,
		"channel": 9,
		"type": "channel",
		"noteNumber": 42,
		"velocity": 127,
		"subtype": "noteOn",
		"time": 221400,
		"track": 5
	},
	{
		"deltaTime": 60,
		"channel": 9,
		"type": "channel",
		"subtype": "noteOff",
		"noteNumber": 42,
		"velocity": 0,
		"time": 221460,
		"track": 5
	},
	{
		"deltaTime": 60,
		"channel": 9,
		"type": "channel",
		"noteNumber": 42,
		"velocity": 127,
		"subtype": "noteOn",
		"time": 221520,
		"track": 5
	},
	{
		"deltaTime": 60,
		"channel": 9,
		"type": "channel",
		"subtype": "noteOff",
		"noteNumber": 42,
		"velocity": 0,
		"time": 221580,
		"track": 5
	},
	{
		"deltaTime": 0,
		"channel": 9,
		"type": "channel",
		"noteNumber": 42,
		"velocity": 127,
		"subtype": "noteOn",
		"time": 221640,
		"track": 5
	},
	{
		"deltaTime": 0,
		"channel": 9,
		"type": "channel",
		"noteNumber": 36,
		"velocity": 127,
		"subtype": "noteOn",
		"time": 221640,
		"track": 5
	},
	{
		"deltaTime": 60,
		"channel": 9,
		"type": "channel",
		"noteNumber": 35,
		"velocity": 127,
		"subtype": "noteOn",
		"time": 221640,
		"track": 5
	},
	{
		"deltaTime": 0,
		"channel": 9,
		"type": "channel",
		"subtype": "noteOff",
		"noteNumber": 35,
		"velocity": 0,
		"time": 221700,
		"track": 5
	},
	{
		"deltaTime": 0,
		"channel": 9,
		"type": "channel",
		"subtype": "noteOff",
		"noteNumber": 36,
		"velocity": 0,
		"time": 221700,
		"track": 5
	},
	{
		"deltaTime": 60,
		"channel": 9,
		"type": "channel",
		"subtype": "noteOff",
		"noteNumber": 42,
		"velocity": 0,
		"time": 221700,
		"track": 5
	},
	{
		"deltaTime": 0,
		"channel": 0,
		"type": "channel",
		"subtype": "noteOff",
		"noteNumber": 32,
		"velocity": 0,
		"time": 221760,
		"track": 2
	},
	{
		"deltaTime": 0,
		"channel": 0,
		"type": "channel",
		"noteNumber": 40,
		"velocity": 127,
		"subtype": "noteOn",
		"time": 221760,
		"track": 2
	},
	{
		"deltaTime": 0,
		"channel": 2,
		"type": "channel",
		"subtype": "noteOff",
		"noteNumber": 68,
		"velocity": 0,
		"time": 221760,
		"track": 4
	},
	{
		"deltaTime": 0,
		"channel": 2,
		"type": "channel",
		"subtype": "noteOff",
		"noteNumber": 63,
		"velocity": 0,
		"time": 221760,
		"track": 4
	},
	{
		"deltaTime": 0,
		"channel": 2,
		"type": "channel",
		"subtype": "noteOff",
		"noteNumber": 59,
		"velocity": 0,
		"time": 221760,
		"track": 4
	},
	{
		"deltaTime": 0,
		"channel": 2,
		"type": "channel",
		"noteNumber": 40,
		"velocity": 127,
		"subtype": "noteOn",
		"time": 221760,
		"track": 4
	},
	{
		"deltaTime": 60,
		"channel": 9,
		"type": "channel",
		"noteNumber": 42,
		"velocity": 127,
		"subtype": "noteOn",
		"time": 221760,
		"track": 5
	},
	{
		"deltaTime": 60,
		"channel": 9,
		"type": "channel",
		"subtype": "noteOff",
		"noteNumber": 42,
		"velocity": 0,
		"time": 221820,
		"track": 5
	},
	{
		"deltaTime": 60,
		"channel": 9,
		"type": "channel",
		"noteNumber": 42,
		"velocity": 127,
		"subtype": "noteOn",
		"time": 221880,
		"track": 5
	},
	{
		"deltaTime": 60,
		"channel": 9,
		"type": "channel",
		"subtype": "noteOff",
		"noteNumber": 42,
		"velocity": 0,
		"time": 221940,
		"track": 5
	},
	{
		"deltaTime": 0,
		"channel": 9,
		"type": "channel",
		"noteNumber": 42,
		"velocity": 127,
		"subtype": "noteOn",
		"time": 222000,
		"track": 5
	},
	{
		"deltaTime": 0,
		"channel": 9,
		"type": "channel",
		"noteNumber": 36,
		"velocity": 127,
		"subtype": "noteOn",
		"time": 222000,
		"track": 5
	},
	{
		"deltaTime": 60,
		"channel": 9,
		"type": "channel",
		"noteNumber": 35,
		"velocity": 127,
		"subtype": "noteOn",
		"time": 222000,
		"track": 5
	},
	{
		"deltaTime": 0,
		"channel": 9,
		"type": "channel",
		"subtype": "noteOff",
		"noteNumber": 35,
		"velocity": 0,
		"time": 222060,
		"track": 5
	},
	{
		"deltaTime": 0,
		"channel": 9,
		"type": "channel",
		"subtype": "noteOff",
		"noteNumber": 36,
		"velocity": 0,
		"time": 222060,
		"track": 5
	},
	{
		"deltaTime": 60,
		"channel": 9,
		"type": "channel",
		"subtype": "noteOff",
		"noteNumber": 42,
		"velocity": 0,
		"time": 222060,
		"track": 5
	},
	{
		"deltaTime": 0,
		"channel": 2,
		"type": "channel",
		"subtype": "noteOff",
		"noteNumber": 40,
		"velocity": 0,
		"time": 222120,
		"track": 4
	},
	{
		"deltaTime": 0,
		"channel": 2,
		"type": "channel",
		"noteNumber": 59,
		"velocity": 127,
		"subtype": "noteOn",
		"time": 222120,
		"track": 4
	},
	{
		"deltaTime": 0,
		"channel": 2,
		"type": "channel",
		"noteNumber": 63,
		"velocity": 127,
		"subtype": "noteOn",
		"time": 222120,
		"track": 4
	},
	{
		"deltaTime": 0,
		"channel": 2,
		"type": "channel",
		"noteNumber": 68,
		"velocity": 127,
		"subtype": "noteOn",
		"time": 222120,
		"track": 4
	},
	{
		"deltaTime": 60,
		"channel": 9,
		"type": "channel",
		"noteNumber": 42,
		"velocity": 127,
		"subtype": "noteOn",
		"time": 222120,
		"track": 5
	},
	{
		"deltaTime": 60,
		"channel": 9,
		"type": "channel",
		"subtype": "noteOff",
		"noteNumber": 42,
		"velocity": 0,
		"time": 222180,
		"track": 5
	},
	{
		"deltaTime": 0,
		"channel": 9,
		"type": "channel",
		"noteNumber": 42,
		"velocity": 127,
		"subtype": "noteOn",
		"time": 222240,
		"track": 5
	},
	{
		"deltaTime": 0,
		"channel": 9,
		"type": "channel",
		"noteNumber": 40,
		"velocity": 127,
		"subtype": "noteOn",
		"time": 222240,
		"track": 5
	},
	{
		"deltaTime": 60,
		"channel": 9,
		"type": "channel",
		"noteNumber": 38,
		"velocity": 127,
		"subtype": "noteOn",
		"time": 222240,
		"track": 5
	},
	{
		"deltaTime": 0,
		"channel": 9,
		"type": "channel",
		"subtype": "noteOff",
		"noteNumber": 38,
		"velocity": 0,
		"time": 222300,
		"track": 5
	},
	{
		"deltaTime": 0,
		"channel": 9,
		"type": "channel",
		"subtype": "noteOff",
		"noteNumber": 40,
		"velocity": 0,
		"time": 222300,
		"track": 5
	},
	{
		"deltaTime": 60,
		"channel": 9,
		"type": "channel",
		"subtype": "noteOff",
		"noteNumber": 42,
		"velocity": 0,
		"time": 222300,
		"track": 5
	},
	{
		"deltaTime": 0,
		"channel": 2,
		"type": "channel",
		"subtype": "noteOff",
		"noteNumber": 68,
		"velocity": 0,
		"time": 222360,
		"track": 4
	},
	{
		"deltaTime": 0,
		"channel": 2,
		"type": "channel",
		"subtype": "noteOff",
		"noteNumber": 63,
		"velocity": 0,
		"time": 222360,
		"track": 4
	},
	{
		"deltaTime": 0,
		"channel": 2,
		"type": "channel",
		"subtype": "noteOff",
		"noteNumber": 59,
		"velocity": 0,
		"time": 222360,
		"track": 4
	},
	{
		"deltaTime": 0,
		"channel": 2,
		"type": "channel",
		"noteNumber": 59,
		"velocity": 127,
		"subtype": "noteOn",
		"time": 222360,
		"track": 4
	},
	{
		"deltaTime": 0,
		"channel": 2,
		"type": "channel",
		"noteNumber": 63,
		"velocity": 127,
		"subtype": "noteOn",
		"time": 222360,
		"track": 4
	},
	{
		"deltaTime": 0,
		"channel": 2,
		"type": "channel",
		"noteNumber": 68,
		"velocity": 127,
		"subtype": "noteOn",
		"time": 222360,
		"track": 4
	},
	{
		"deltaTime": 60,
		"channel": 9,
		"type": "channel",
		"noteNumber": 42,
		"velocity": 127,
		"subtype": "noteOn",
		"time": 222360,
		"track": 5
	},
	{
		"deltaTime": 60,
		"channel": 9,
		"type": "channel",
		"subtype": "noteOff",
		"noteNumber": 42,
		"velocity": 0,
		"time": 222420,
		"track": 5
	},
	{
		"deltaTime": 60,
		"channel": 9,
		"type": "channel",
		"noteNumber": 42,
		"velocity": 127,
		"subtype": "noteOn",
		"time": 222480,
		"track": 5
	},
	{
		"deltaTime": 60,
		"channel": 9,
		"type": "channel",
		"subtype": "noteOff",
		"noteNumber": 42,
		"velocity": 0,
		"time": 222540,
		"track": 5
	},
	{
		"deltaTime": 60,
		"channel": 9,
		"type": "channel",
		"noteNumber": 42,
		"velocity": 127,
		"subtype": "noteOn",
		"time": 222600,
		"track": 5
	},
	{
		"deltaTime": 60,
		"channel": 9,
		"type": "channel",
		"subtype": "noteOff",
		"noteNumber": 42,
		"velocity": 0,
		"time": 222660,
		"track": 5
	},
	{
		"deltaTime": 0,
		"channel": 0,
		"type": "channel",
		"subtype": "noteOff",
		"noteNumber": 40,
		"velocity": 0,
		"time": 222720,
		"track": 2
	},
	{
		"deltaTime": 0,
		"channel": 0,
		"type": "channel",
		"noteNumber": 42,
		"velocity": 127,
		"subtype": "noteOn",
		"time": 222720,
		"track": 2
	},
	{
		"deltaTime": 0,
		"channel": 2,
		"type": "channel",
		"subtype": "noteOff",
		"noteNumber": 68,
		"velocity": 0,
		"time": 222720,
		"track": 4
	},
	{
		"deltaTime": 0,
		"channel": 2,
		"type": "channel",
		"subtype": "noteOff",
		"noteNumber": 63,
		"velocity": 0,
		"time": 222720,
		"track": 4
	},
	{
		"deltaTime": 0,
		"channel": 2,
		"type": "channel",
		"subtype": "noteOff",
		"noteNumber": 59,
		"velocity": 0,
		"time": 222720,
		"track": 4
	},
	{
		"deltaTime": 0,
		"channel": 2,
		"type": "channel",
		"noteNumber": 42,
		"velocity": 127,
		"subtype": "noteOn",
		"time": 222720,
		"track": 4
	},
	{
		"deltaTime": 0,
		"channel": 9,
		"type": "channel",
		"noteNumber": 42,
		"velocity": 127,
		"subtype": "noteOn",
		"time": 222720,
		"track": 5
	},
	{
		"deltaTime": 0,
		"channel": 9,
		"type": "channel",
		"noteNumber": 35,
		"velocity": 127,
		"subtype": "noteOn",
		"time": 222720,
		"track": 5
	},
	{
		"deltaTime": 60,
		"channel": 9,
		"type": "channel",
		"noteNumber": 36,
		"velocity": 127,
		"subtype": "noteOn",
		"time": 222720,
		"track": 5
	},
	{
		"deltaTime": 0,
		"channel": 9,
		"type": "channel",
		"subtype": "noteOff",
		"noteNumber": 36,
		"velocity": 0,
		"time": 222780,
		"track": 5
	},
	{
		"deltaTime": 0,
		"channel": 9,
		"type": "channel",
		"subtype": "noteOff",
		"noteNumber": 35,
		"velocity": 0,
		"time": 222780,
		"track": 5
	},
	{
		"deltaTime": 60,
		"channel": 9,
		"type": "channel",
		"subtype": "noteOff",
		"noteNumber": 42,
		"velocity": 0,
		"time": 222780,
		"track": 5
	},
	{
		"deltaTime": 60,
		"channel": 9,
		"type": "channel",
		"noteNumber": 42,
		"velocity": 127,
		"subtype": "noteOn",
		"time": 222840,
		"track": 5
	},
	{
		"deltaTime": 60,
		"channel": 9,
		"type": "channel",
		"subtype": "noteOff",
		"noteNumber": 42,
		"velocity": 0,
		"time": 222900,
		"track": 5
	},
	{
		"deltaTime": 0,
		"channel": 9,
		"type": "channel",
		"noteNumber": 42,
		"velocity": 127,
		"subtype": "noteOn",
		"time": 222960,
		"track": 5
	},
	{
		"deltaTime": 0,
		"channel": 9,
		"type": "channel",
		"noteNumber": 36,
		"velocity": 127,
		"subtype": "noteOn",
		"time": 222960,
		"track": 5
	},
	{
		"deltaTime": 60,
		"channel": 9,
		"type": "channel",
		"noteNumber": 35,
		"velocity": 127,
		"subtype": "noteOn",
		"time": 222960,
		"track": 5
	},
	{
		"deltaTime": 0,
		"channel": 9,
		"type": "channel",
		"subtype": "noteOff",
		"noteNumber": 35,
		"velocity": 0,
		"time": 223020,
		"track": 5
	},
	{
		"deltaTime": 0,
		"channel": 9,
		"type": "channel",
		"subtype": "noteOff",
		"noteNumber": 36,
		"velocity": 0,
		"time": 223020,
		"track": 5
	},
	{
		"deltaTime": 60,
		"channel": 9,
		"type": "channel",
		"subtype": "noteOff",
		"noteNumber": 42,
		"velocity": 0,
		"time": 223020,
		"track": 5
	},
	{
		"deltaTime": 0,
		"channel": 2,
		"type": "channel",
		"subtype": "noteOff",
		"noteNumber": 42,
		"velocity": 0,
		"time": 223080,
		"track": 4
	},
	{
		"deltaTime": 0,
		"channel": 2,
		"type": "channel",
		"noteNumber": 61,
		"velocity": 127,
		"subtype": "noteOn",
		"time": 223080,
		"track": 4
	},
	{
		"deltaTime": 0,
		"channel": 2,
		"type": "channel",
		"noteNumber": 66,
		"velocity": 127,
		"subtype": "noteOn",
		"time": 223080,
		"track": 4
	},
	{
		"deltaTime": 0,
		"channel": 2,
		"type": "channel",
		"noteNumber": 70,
		"velocity": 127,
		"subtype": "noteOn",
		"time": 223080,
		"track": 4
	},
	{
		"deltaTime": 60,
		"channel": 9,
		"type": "channel",
		"noteNumber": 42,
		"velocity": 127,
		"subtype": "noteOn",
		"time": 223080,
		"track": 5
	},
	{
		"deltaTime": 60,
		"channel": 9,
		"type": "channel",
		"subtype": "noteOff",
		"noteNumber": 42,
		"velocity": 0,
		"time": 223140,
		"track": 5
	},
	{
		"deltaTime": 0,
		"channel": 9,
		"type": "channel",
		"noteNumber": 42,
		"velocity": 127,
		"subtype": "noteOn",
		"time": 223200,
		"track": 5
	},
	{
		"deltaTime": 0,
		"channel": 9,
		"type": "channel",
		"noteNumber": 38,
		"velocity": 127,
		"subtype": "noteOn",
		"time": 223200,
		"track": 5
	},
	{
		"deltaTime": 60,
		"channel": 9,
		"type": "channel",
		"noteNumber": 40,
		"velocity": 127,
		"subtype": "noteOn",
		"time": 223200,
		"track": 5
	},
	{
		"deltaTime": 0,
		"channel": 9,
		"type": "channel",
		"subtype": "noteOff",
		"noteNumber": 40,
		"velocity": 0,
		"time": 223260,
		"track": 5
	},
	{
		"deltaTime": 0,
		"channel": 9,
		"type": "channel",
		"subtype": "noteOff",
		"noteNumber": 38,
		"velocity": 0,
		"time": 223260,
		"track": 5
	},
	{
		"deltaTime": 60,
		"channel": 9,
		"type": "channel",
		"subtype": "noteOff",
		"noteNumber": 42,
		"velocity": 0,
		"time": 223260,
		"track": 5
	},
	{
		"deltaTime": 0,
		"channel": 2,
		"type": "channel",
		"subtype": "noteOff",
		"noteNumber": 70,
		"velocity": 0,
		"time": 223320,
		"track": 4
	},
	{
		"deltaTime": 0,
		"channel": 2,
		"type": "channel",
		"subtype": "noteOff",
		"noteNumber": 66,
		"velocity": 0,
		"time": 223320,
		"track": 4
	},
	{
		"deltaTime": 0,
		"channel": 2,
		"type": "channel",
		"subtype": "noteOff",
		"noteNumber": 61,
		"velocity": 0,
		"time": 223320,
		"track": 4
	},
	{
		"deltaTime": 0,
		"channel": 2,
		"type": "channel",
		"noteNumber": 61,
		"velocity": 127,
		"subtype": "noteOn",
		"time": 223320,
		"track": 4
	},
	{
		"deltaTime": 0,
		"channel": 2,
		"type": "channel",
		"noteNumber": 66,
		"velocity": 127,
		"subtype": "noteOn",
		"time": 223320,
		"track": 4
	},
	{
		"deltaTime": 0,
		"channel": 2,
		"type": "channel",
		"noteNumber": 70,
		"velocity": 127,
		"subtype": "noteOn",
		"time": 223320,
		"track": 4
	},
	{
		"deltaTime": 60,
		"channel": 9,
		"type": "channel",
		"noteNumber": 42,
		"velocity": 127,
		"subtype": "noteOn",
		"time": 223320,
		"track": 5
	},
	{
		"deltaTime": 60,
		"channel": 9,
		"type": "channel",
		"subtype": "noteOff",
		"noteNumber": 42,
		"velocity": 0,
		"time": 223380,
		"track": 5
	},
	{
		"deltaTime": 60,
		"channel": 9,
		"type": "channel",
		"noteNumber": 42,
		"velocity": 127,
		"subtype": "noteOn",
		"time": 223440,
		"track": 5
	},
	{
		"deltaTime": 60,
		"channel": 9,
		"type": "channel",
		"subtype": "noteOff",
		"noteNumber": 42,
		"velocity": 0,
		"time": 223500,
		"track": 5
	},
	{
		"deltaTime": 0,
		"channel": 9,
		"type": "channel",
		"noteNumber": 42,
		"velocity": 127,
		"subtype": "noteOn",
		"time": 223560,
		"track": 5
	},
	{
		"deltaTime": 0,
		"channel": 9,
		"type": "channel",
		"noteNumber": 36,
		"velocity": 127,
		"subtype": "noteOn",
		"time": 223560,
		"track": 5
	},
	{
		"deltaTime": 60,
		"channel": 9,
		"type": "channel",
		"noteNumber": 35,
		"velocity": 127,
		"subtype": "noteOn",
		"time": 223560,
		"track": 5
	},
	{
		"deltaTime": 0,
		"channel": 9,
		"type": "channel",
		"subtype": "noteOff",
		"noteNumber": 35,
		"velocity": 0,
		"time": 223620,
		"track": 5
	},
	{
		"deltaTime": 0,
		"channel": 9,
		"type": "channel",
		"subtype": "noteOff",
		"noteNumber": 36,
		"velocity": 0,
		"time": 223620,
		"track": 5
	},
	{
		"deltaTime": 60,
		"channel": 9,
		"type": "channel",
		"subtype": "noteOff",
		"noteNumber": 42,
		"velocity": 0,
		"time": 223620,
		"track": 5
	},
	{
		"deltaTime": 0,
		"channel": 0,
		"type": "channel",
		"subtype": "noteOff",
		"noteNumber": 42,
		"velocity": 0,
		"time": 223680,
		"track": 2
	},
	{
		"deltaTime": 0,
		"channel": 0,
		"type": "channel",
		"noteNumber": 35,
		"velocity": 127,
		"subtype": "noteOn",
		"time": 223680,
		"track": 2
	},
	{
		"deltaTime": 0,
		"channel": 2,
		"type": "channel",
		"subtype": "noteOff",
		"noteNumber": 70,
		"velocity": 0,
		"time": 223680,
		"track": 4
	},
	{
		"deltaTime": 0,
		"channel": 2,
		"type": "channel",
		"subtype": "noteOff",
		"noteNumber": 66,
		"velocity": 0,
		"time": 223680,
		"track": 4
	},
	{
		"deltaTime": 0,
		"channel": 2,
		"type": "channel",
		"subtype": "noteOff",
		"noteNumber": 61,
		"velocity": 0,
		"time": 223680,
		"track": 4
	},
	{
		"deltaTime": 0,
		"channel": 2,
		"type": "channel",
		"noteNumber": 47,
		"velocity": 127,
		"subtype": "noteOn",
		"time": 223680,
		"track": 4
	},
	{
		"deltaTime": 60,
		"channel": 9,
		"type": "channel",
		"noteNumber": 42,
		"velocity": 127,
		"subtype": "noteOn",
		"time": 223680,
		"track": 5
	},
	{
		"deltaTime": 60,
		"channel": 9,
		"type": "channel",
		"subtype": "noteOff",
		"noteNumber": 42,
		"velocity": 0,
		"time": 223740,
		"track": 5
	},
	{
		"deltaTime": 60,
		"channel": 9,
		"type": "channel",
		"noteNumber": 42,
		"velocity": 127,
		"subtype": "noteOn",
		"time": 223800,
		"track": 5
	},
	{
		"deltaTime": 60,
		"channel": 9,
		"type": "channel",
		"subtype": "noteOff",
		"noteNumber": 42,
		"velocity": 0,
		"time": 223860,
		"track": 5
	},
	{
		"deltaTime": 0,
		"channel": 9,
		"type": "channel",
		"noteNumber": 42,
		"velocity": 127,
		"subtype": "noteOn",
		"time": 223920,
		"track": 5
	},
	{
		"deltaTime": 0,
		"channel": 9,
		"type": "channel",
		"noteNumber": 36,
		"velocity": 127,
		"subtype": "noteOn",
		"time": 223920,
		"track": 5
	},
	{
		"deltaTime": 60,
		"channel": 9,
		"type": "channel",
		"noteNumber": 35,
		"velocity": 127,
		"subtype": "noteOn",
		"time": 223920,
		"track": 5
	},
	{
		"deltaTime": 0,
		"channel": 9,
		"type": "channel",
		"subtype": "noteOff",
		"noteNumber": 35,
		"velocity": 0,
		"time": 223980,
		"track": 5
	},
	{
		"deltaTime": 0,
		"channel": 9,
		"type": "channel",
		"subtype": "noteOff",
		"noteNumber": 36,
		"velocity": 0,
		"time": 223980,
		"track": 5
	},
	{
		"deltaTime": 60,
		"channel": 9,
		"type": "channel",
		"subtype": "noteOff",
		"noteNumber": 42,
		"velocity": 0,
		"time": 223980,
		"track": 5
	},
	{
		"deltaTime": 0,
		"channel": 2,
		"type": "channel",
		"subtype": "noteOff",
		"noteNumber": 47,
		"velocity": 0,
		"time": 224040,
		"track": 4
	},
	{
		"deltaTime": 0,
		"channel": 2,
		"type": "channel",
		"noteNumber": 61,
		"velocity": 127,
		"subtype": "noteOn",
		"time": 224040,
		"track": 4
	},
	{
		"deltaTime": 0,
		"channel": 2,
		"type": "channel",
		"noteNumber": 66,
		"velocity": 127,
		"subtype": "noteOn",
		"time": 224040,
		"track": 4
	},
	{
		"deltaTime": 0,
		"channel": 2,
		"type": "channel",
		"noteNumber": 70,
		"velocity": 127,
		"subtype": "noteOn",
		"time": 224040,
		"track": 4
	},
	{
		"deltaTime": 60,
		"channel": 9,
		"type": "channel",
		"noteNumber": 42,
		"velocity": 127,
		"subtype": "noteOn",
		"time": 224040,
		"track": 5
	},
	{
		"deltaTime": 60,
		"channel": 9,
		"type": "channel",
		"subtype": "noteOff",
		"noteNumber": 42,
		"velocity": 0,
		"time": 224100,
		"track": 5
	},
	{
		"deltaTime": 0,
		"channel": 0,
		"type": "channel",
		"subtype": "noteOff",
		"noteNumber": 35,
		"velocity": 0,
		"time": 224160,
		"track": 2
	},
	{
		"deltaTime": 0,
		"channel": 0,
		"type": "channel",
		"noteNumber": 34,
		"velocity": 127,
		"subtype": "noteOn",
		"time": 224160,
		"track": 2
	},
	{
		"deltaTime": 0,
		"channel": 9,
		"type": "channel",
		"noteNumber": 42,
		"velocity": 127,
		"subtype": "noteOn",
		"time": 224160,
		"track": 5
	},
	{
		"deltaTime": 0,
		"channel": 9,
		"type": "channel",
		"noteNumber": 40,
		"velocity": 127,
		"subtype": "noteOn",
		"time": 224160,
		"track": 5
	},
	{
		"deltaTime": 60,
		"channel": 9,
		"type": "channel",
		"noteNumber": 38,
		"velocity": 127,
		"subtype": "noteOn",
		"time": 224160,
		"track": 5
	},
	{
		"deltaTime": 0,
		"channel": 9,
		"type": "channel",
		"subtype": "noteOff",
		"noteNumber": 38,
		"velocity": 0,
		"time": 224220,
		"track": 5
	},
	{
		"deltaTime": 0,
		"channel": 9,
		"type": "channel",
		"subtype": "noteOff",
		"noteNumber": 40,
		"velocity": 0,
		"time": 224220,
		"track": 5
	},
	{
		"deltaTime": 60,
		"channel": 9,
		"type": "channel",
		"subtype": "noteOff",
		"noteNumber": 42,
		"velocity": 0,
		"time": 224220,
		"track": 5
	},
	{
		"deltaTime": 0,
		"channel": 2,
		"type": "channel",
		"subtype": "noteOff",
		"noteNumber": 70,
		"velocity": 0,
		"time": 224280,
		"track": 4
	},
	{
		"deltaTime": 0,
		"channel": 2,
		"type": "channel",
		"subtype": "noteOff",
		"noteNumber": 66,
		"velocity": 0,
		"time": 224280,
		"track": 4
	},
	{
		"deltaTime": 0,
		"channel": 2,
		"type": "channel",
		"subtype": "noteOff",
		"noteNumber": 61,
		"velocity": 0,
		"time": 224280,
		"track": 4
	},
	{
		"deltaTime": 0,
		"channel": 2,
		"type": "channel",
		"noteNumber": 61,
		"velocity": 127,
		"subtype": "noteOn",
		"time": 224280,
		"track": 4
	},
	{
		"deltaTime": 0,
		"channel": 2,
		"type": "channel",
		"noteNumber": 66,
		"velocity": 127,
		"subtype": "noteOn",
		"time": 224280,
		"track": 4
	},
	{
		"deltaTime": 0,
		"channel": 2,
		"type": "channel",
		"noteNumber": 71,
		"velocity": 127,
		"subtype": "noteOn",
		"time": 224280,
		"track": 4
	},
	{
		"deltaTime": 60,
		"channel": 9,
		"type": "channel",
		"noteNumber": 42,
		"velocity": 127,
		"subtype": "noteOn",
		"time": 224280,
		"track": 5
	},
	{
		"deltaTime": 60,
		"channel": 9,
		"type": "channel",
		"subtype": "noteOff",
		"noteNumber": 42,
		"velocity": 0,
		"time": 224340,
		"track": 5
	},
	{
		"deltaTime": 60,
		"channel": 9,
		"type": "channel",
		"noteNumber": 42,
		"velocity": 127,
		"subtype": "noteOn",
		"time": 224400,
		"track": 5
	},
	{
		"deltaTime": 60,
		"channel": 9,
		"type": "channel",
		"subtype": "noteOff",
		"noteNumber": 42,
		"velocity": 0,
		"time": 224460,
		"track": 5
	},
	{
		"deltaTime": 60,
		"channel": 9,
		"type": "channel",
		"noteNumber": 42,
		"velocity": 127,
		"subtype": "noteOn",
		"time": 224520,
		"track": 5
	},
	{
		"deltaTime": 60,
		"channel": 9,
		"type": "channel",
		"subtype": "noteOff",
		"noteNumber": 42,
		"velocity": 0,
		"time": 224580,
		"track": 5
	},
	{
		"deltaTime": 0,
		"channel": 0,
		"type": "channel",
		"subtype": "noteOff",
		"noteNumber": 34,
		"velocity": 0,
		"time": 224640,
		"track": 2
	},
	{
		"deltaTime": 0,
		"channel": 0,
		"type": "channel",
		"noteNumber": 32,
		"velocity": 127,
		"subtype": "noteOn",
		"time": 224640,
		"track": 2
	},
	{
		"deltaTime": 0,
		"channel": 2,
		"type": "channel",
		"subtype": "noteOff",
		"noteNumber": 71,
		"velocity": 0,
		"time": 224640,
		"track": 4
	},
	{
		"deltaTime": 0,
		"channel": 2,
		"type": "channel",
		"subtype": "noteOff",
		"noteNumber": 66,
		"velocity": 0,
		"time": 224640,
		"track": 4
	},
	{
		"deltaTime": 0,
		"channel": 2,
		"type": "channel",
		"subtype": "noteOff",
		"noteNumber": 61,
		"velocity": 0,
		"time": 224640,
		"track": 4
	},
	{
		"deltaTime": 0,
		"channel": 2,
		"type": "channel",
		"noteNumber": 44,
		"velocity": 127,
		"subtype": "noteOn",
		"time": 224640,
		"track": 4
	},
	{
		"deltaTime": 0,
		"channel": 9,
		"type": "channel",
		"noteNumber": 42,
		"velocity": 127,
		"subtype": "noteOn",
		"time": 224640,
		"track": 5
	},
	{
		"deltaTime": 0,
		"channel": 9,
		"type": "channel",
		"noteNumber": 35,
		"velocity": 127,
		"subtype": "noteOn",
		"time": 224640,
		"track": 5
	},
	{
		"deltaTime": 60,
		"channel": 9,
		"type": "channel",
		"noteNumber": 36,
		"velocity": 127,
		"subtype": "noteOn",
		"time": 224640,
		"track": 5
	},
	{
		"deltaTime": 0,
		"channel": 9,
		"type": "channel",
		"subtype": "noteOff",
		"noteNumber": 36,
		"velocity": 0,
		"time": 224700,
		"track": 5
	},
	{
		"deltaTime": 0,
		"channel": 9,
		"type": "channel",
		"subtype": "noteOff",
		"noteNumber": 35,
		"velocity": 0,
		"time": 224700,
		"track": 5
	},
	{
		"deltaTime": 60,
		"channel": 9,
		"type": "channel",
		"subtype": "noteOff",
		"noteNumber": 42,
		"velocity": 0,
		"time": 224700,
		"track": 5
	},
	{
		"deltaTime": 60,
		"channel": 9,
		"type": "channel",
		"noteNumber": 42,
		"velocity": 127,
		"subtype": "noteOn",
		"time": 224760,
		"track": 5
	},
	{
		"deltaTime": 60,
		"channel": 9,
		"type": "channel",
		"subtype": "noteOff",
		"noteNumber": 42,
		"velocity": 0,
		"time": 224820,
		"track": 5
	},
	{
		"deltaTime": 0,
		"channel": 9,
		"type": "channel",
		"noteNumber": 42,
		"velocity": 127,
		"subtype": "noteOn",
		"time": 224880,
		"track": 5
	},
	{
		"deltaTime": 0,
		"channel": 9,
		"type": "channel",
		"noteNumber": 36,
		"velocity": 127,
		"subtype": "noteOn",
		"time": 224880,
		"track": 5
	},
	{
		"deltaTime": 60,
		"channel": 9,
		"type": "channel",
		"noteNumber": 35,
		"velocity": 127,
		"subtype": "noteOn",
		"time": 224880,
		"track": 5
	},
	{
		"deltaTime": 0,
		"channel": 9,
		"type": "channel",
		"subtype": "noteOff",
		"noteNumber": 35,
		"velocity": 0,
		"time": 224940,
		"track": 5
	},
	{
		"deltaTime": 0,
		"channel": 9,
		"type": "channel",
		"subtype": "noteOff",
		"noteNumber": 36,
		"velocity": 0,
		"time": 224940,
		"track": 5
	},
	{
		"deltaTime": 60,
		"channel": 9,
		"type": "channel",
		"subtype": "noteOff",
		"noteNumber": 42,
		"velocity": 0,
		"time": 224940,
		"track": 5
	},
	{
		"deltaTime": 0,
		"channel": 2,
		"type": "channel",
		"subtype": "noteOff",
		"noteNumber": 44,
		"velocity": 0,
		"time": 225000,
		"track": 4
	},
	{
		"deltaTime": 0,
		"channel": 2,
		"type": "channel",
		"noteNumber": 59,
		"velocity": 127,
		"subtype": "noteOn",
		"time": 225000,
		"track": 4
	},
	{
		"deltaTime": 0,
		"channel": 2,
		"type": "channel",
		"noteNumber": 63,
		"velocity": 127,
		"subtype": "noteOn",
		"time": 225000,
		"track": 4
	},
	{
		"deltaTime": 0,
		"channel": 2,
		"type": "channel",
		"noteNumber": 68,
		"velocity": 127,
		"subtype": "noteOn",
		"time": 225000,
		"track": 4
	},
	{
		"deltaTime": 60,
		"channel": 9,
		"type": "channel",
		"noteNumber": 42,
		"velocity": 127,
		"subtype": "noteOn",
		"time": 225000,
		"track": 5
	},
	{
		"deltaTime": 60,
		"channel": 9,
		"type": "channel",
		"subtype": "noteOff",
		"noteNumber": 42,
		"velocity": 0,
		"time": 225060,
		"track": 5
	},
	{
		"deltaTime": 0,
		"channel": 9,
		"type": "channel",
		"noteNumber": 42,
		"velocity": 127,
		"subtype": "noteOn",
		"time": 225120,
		"track": 5
	},
	{
		"deltaTime": 0,
		"channel": 9,
		"type": "channel",
		"noteNumber": 38,
		"velocity": 127,
		"subtype": "noteOn",
		"time": 225120,
		"track": 5
	},
	{
		"deltaTime": 60,
		"channel": 9,
		"type": "channel",
		"noteNumber": 40,
		"velocity": 127,
		"subtype": "noteOn",
		"time": 225120,
		"track": 5
	},
	{
		"deltaTime": 0,
		"channel": 9,
		"type": "channel",
		"subtype": "noteOff",
		"noteNumber": 40,
		"velocity": 0,
		"time": 225180,
		"track": 5
	},
	{
		"deltaTime": 0,
		"channel": 9,
		"type": "channel",
		"subtype": "noteOff",
		"noteNumber": 38,
		"velocity": 0,
		"time": 225180,
		"track": 5
	},
	{
		"deltaTime": 60,
		"channel": 9,
		"type": "channel",
		"subtype": "noteOff",
		"noteNumber": 42,
		"velocity": 0,
		"time": 225180,
		"track": 5
	},
	{
		"deltaTime": 0,
		"channel": 2,
		"type": "channel",
		"subtype": "noteOff",
		"noteNumber": 68,
		"velocity": 0,
		"time": 225240,
		"track": 4
	},
	{
		"deltaTime": 0,
		"channel": 2,
		"type": "channel",
		"subtype": "noteOff",
		"noteNumber": 63,
		"velocity": 0,
		"time": 225240,
		"track": 4
	},
	{
		"deltaTime": 0,
		"channel": 2,
		"type": "channel",
		"subtype": "noteOff",
		"noteNumber": 59,
		"velocity": 0,
		"time": 225240,
		"track": 4
	},
	{
		"deltaTime": 0,
		"channel": 2,
		"type": "channel",
		"noteNumber": 59,
		"velocity": 127,
		"subtype": "noteOn",
		"time": 225240,
		"track": 4
	},
	{
		"deltaTime": 0,
		"channel": 2,
		"type": "channel",
		"noteNumber": 63,
		"velocity": 127,
		"subtype": "noteOn",
		"time": 225240,
		"track": 4
	},
	{
		"deltaTime": 0,
		"channel": 2,
		"type": "channel",
		"noteNumber": 68,
		"velocity": 127,
		"subtype": "noteOn",
		"time": 225240,
		"track": 4
	},
	{
		"deltaTime": 60,
		"channel": 9,
		"type": "channel",
		"noteNumber": 42,
		"velocity": 127,
		"subtype": "noteOn",
		"time": 225240,
		"track": 5
	},
	{
		"deltaTime": 60,
		"channel": 9,
		"type": "channel",
		"subtype": "noteOff",
		"noteNumber": 42,
		"velocity": 0,
		"time": 225300,
		"track": 5
	},
	{
		"deltaTime": 0,
		"channel": 0,
		"type": "channel",
		"subtype": "noteOff",
		"noteNumber": 32,
		"velocity": 0,
		"time": 225360,
		"track": 2
	},
	{
		"deltaTime": 0,
		"channel": 0,
		"type": "channel",
		"noteNumber": 32,
		"velocity": 127,
		"subtype": "noteOn",
		"time": 225360,
		"track": 2
	},
	{
		"deltaTime": 60,
		"channel": 9,
		"type": "channel",
		"noteNumber": 42,
		"velocity": 127,
		"subtype": "noteOn",
		"time": 225360,
		"track": 5
	},
	{
		"deltaTime": 60,
		"channel": 9,
		"type": "channel",
		"subtype": "noteOff",
		"noteNumber": 42,
		"velocity": 0,
		"time": 225420,
		"track": 5
	},
	{
		"deltaTime": 0,
		"channel": 9,
		"type": "channel",
		"noteNumber": 42,
		"velocity": 127,
		"subtype": "noteOn",
		"time": 225480,
		"track": 5
	},
	{
		"deltaTime": 0,
		"channel": 9,
		"type": "channel",
		"noteNumber": 36,
		"velocity": 127,
		"subtype": "noteOn",
		"time": 225480,
		"track": 5
	},
	{
		"deltaTime": 60,
		"channel": 9,
		"type": "channel",
		"noteNumber": 35,
		"velocity": 127,
		"subtype": "noteOn",
		"time": 225480,
		"track": 5
	},
	{
		"deltaTime": 0,
		"channel": 9,
		"type": "channel",
		"subtype": "noteOff",
		"noteNumber": 35,
		"velocity": 0,
		"time": 225540,
		"track": 5
	},
	{
		"deltaTime": 0,
		"channel": 9,
		"type": "channel",
		"subtype": "noteOff",
		"noteNumber": 36,
		"velocity": 0,
		"time": 225540,
		"track": 5
	},
	{
		"deltaTime": 60,
		"channel": 9,
		"type": "channel",
		"subtype": "noteOff",
		"noteNumber": 42,
		"velocity": 0,
		"time": 225540,
		"track": 5
	},
	{
		"deltaTime": 0,
		"channel": 0,
		"type": "channel",
		"subtype": "noteOff",
		"noteNumber": 32,
		"velocity": 0,
		"time": 225600,
		"track": 2
	},
	{
		"deltaTime": 0,
		"channel": 0,
		"type": "channel",
		"noteNumber": 40,
		"velocity": 127,
		"subtype": "noteOn",
		"time": 225600,
		"track": 2
	},
	{
		"deltaTime": 0,
		"channel": 2,
		"type": "channel",
		"subtype": "noteOff",
		"noteNumber": 68,
		"velocity": 0,
		"time": 225600,
		"track": 4
	},
	{
		"deltaTime": 0,
		"channel": 2,
		"type": "channel",
		"subtype": "noteOff",
		"noteNumber": 63,
		"velocity": 0,
		"time": 225600,
		"track": 4
	},
	{
		"deltaTime": 0,
		"channel": 2,
		"type": "channel",
		"subtype": "noteOff",
		"noteNumber": 59,
		"velocity": 0,
		"time": 225600,
		"track": 4
	},
	{
		"deltaTime": 0,
		"channel": 2,
		"type": "channel",
		"noteNumber": 40,
		"velocity": 127,
		"subtype": "noteOn",
		"time": 225600,
		"track": 4
	},
	{
		"deltaTime": 60,
		"channel": 9,
		"type": "channel",
		"noteNumber": 42,
		"velocity": 127,
		"subtype": "noteOn",
		"time": 225600,
		"track": 5
	},
	{
		"deltaTime": 60,
		"channel": 9,
		"type": "channel",
		"subtype": "noteOff",
		"noteNumber": 42,
		"velocity": 0,
		"time": 225660,
		"track": 5
	},
	{
		"deltaTime": 60,
		"channel": 9,
		"type": "channel",
		"noteNumber": 42,
		"velocity": 127,
		"subtype": "noteOn",
		"time": 225720,
		"track": 5
	},
	{
		"deltaTime": 60,
		"channel": 9,
		"type": "channel",
		"subtype": "noteOff",
		"noteNumber": 42,
		"velocity": 0,
		"time": 225780,
		"track": 5
	},
	{
		"deltaTime": 0,
		"channel": 9,
		"type": "channel",
		"noteNumber": 42,
		"velocity": 127,
		"subtype": "noteOn",
		"time": 225840,
		"track": 5
	},
	{
		"deltaTime": 0,
		"channel": 9,
		"type": "channel",
		"noteNumber": 36,
		"velocity": 127,
		"subtype": "noteOn",
		"time": 225840,
		"track": 5
	},
	{
		"deltaTime": 60,
		"channel": 9,
		"type": "channel",
		"noteNumber": 35,
		"velocity": 127,
		"subtype": "noteOn",
		"time": 225840,
		"track": 5
	},
	{
		"deltaTime": 0,
		"channel": 9,
		"type": "channel",
		"subtype": "noteOff",
		"noteNumber": 35,
		"velocity": 0,
		"time": 225900,
		"track": 5
	},
	{
		"deltaTime": 0,
		"channel": 9,
		"type": "channel",
		"subtype": "noteOff",
		"noteNumber": 36,
		"velocity": 0,
		"time": 225900,
		"track": 5
	},
	{
		"deltaTime": 60,
		"channel": 9,
		"type": "channel",
		"subtype": "noteOff",
		"noteNumber": 42,
		"velocity": 0,
		"time": 225900,
		"track": 5
	},
	{
		"deltaTime": 0,
		"channel": 2,
		"type": "channel",
		"subtype": "noteOff",
		"noteNumber": 40,
		"velocity": 0,
		"time": 225960,
		"track": 4
	},
	{
		"deltaTime": 0,
		"channel": 2,
		"type": "channel",
		"noteNumber": 59,
		"velocity": 127,
		"subtype": "noteOn",
		"time": 225960,
		"track": 4
	},
	{
		"deltaTime": 0,
		"channel": 2,
		"type": "channel",
		"noteNumber": 63,
		"velocity": 127,
		"subtype": "noteOn",
		"time": 225960,
		"track": 4
	},
	{
		"deltaTime": 0,
		"channel": 2,
		"type": "channel",
		"noteNumber": 68,
		"velocity": 127,
		"subtype": "noteOn",
		"time": 225960,
		"track": 4
	},
	{
		"deltaTime": 60,
		"channel": 9,
		"type": "channel",
		"noteNumber": 42,
		"velocity": 127,
		"subtype": "noteOn",
		"time": 225960,
		"track": 5
	},
	{
		"deltaTime": 60,
		"channel": 9,
		"type": "channel",
		"subtype": "noteOff",
		"noteNumber": 42,
		"velocity": 0,
		"time": 226020,
		"track": 5
	},
	{
		"deltaTime": 0,
		"channel": 9,
		"type": "channel",
		"noteNumber": 42,
		"velocity": 127,
		"subtype": "noteOn",
		"time": 226080,
		"track": 5
	},
	{
		"deltaTime": 0,
		"channel": 9,
		"type": "channel",
		"noteNumber": 40,
		"velocity": 127,
		"subtype": "noteOn",
		"time": 226080,
		"track": 5
	},
	{
		"deltaTime": 60,
		"channel": 9,
		"type": "channel",
		"noteNumber": 38,
		"velocity": 127,
		"subtype": "noteOn",
		"time": 226080,
		"track": 5
	},
	{
		"deltaTime": 0,
		"channel": 9,
		"type": "channel",
		"subtype": "noteOff",
		"noteNumber": 38,
		"velocity": 0,
		"time": 226140,
		"track": 5
	},
	{
		"deltaTime": 0,
		"channel": 9,
		"type": "channel",
		"subtype": "noteOff",
		"noteNumber": 40,
		"velocity": 0,
		"time": 226140,
		"track": 5
	},
	{
		"deltaTime": 60,
		"channel": 9,
		"type": "channel",
		"subtype": "noteOff",
		"noteNumber": 42,
		"velocity": 0,
		"time": 226140,
		"track": 5
	},
	{
		"deltaTime": 0,
		"channel": 2,
		"type": "channel",
		"subtype": "noteOff",
		"noteNumber": 68,
		"velocity": 0,
		"time": 226200,
		"track": 4
	},
	{
		"deltaTime": 0,
		"channel": 2,
		"type": "channel",
		"subtype": "noteOff",
		"noteNumber": 63,
		"velocity": 0,
		"time": 226200,
		"track": 4
	},
	{
		"deltaTime": 0,
		"channel": 2,
		"type": "channel",
		"subtype": "noteOff",
		"noteNumber": 59,
		"velocity": 0,
		"time": 226200,
		"track": 4
	},
	{
		"deltaTime": 0,
		"channel": 2,
		"type": "channel",
		"noteNumber": 59,
		"velocity": 127,
		"subtype": "noteOn",
		"time": 226200,
		"track": 4
	},
	{
		"deltaTime": 0,
		"channel": 2,
		"type": "channel",
		"noteNumber": 63,
		"velocity": 127,
		"subtype": "noteOn",
		"time": 226200,
		"track": 4
	},
	{
		"deltaTime": 0,
		"channel": 2,
		"type": "channel",
		"noteNumber": 68,
		"velocity": 127,
		"subtype": "noteOn",
		"time": 226200,
		"track": 4
	},
	{
		"deltaTime": 60,
		"channel": 9,
		"type": "channel",
		"noteNumber": 42,
		"velocity": 127,
		"subtype": "noteOn",
		"time": 226200,
		"track": 5
	},
	{
		"deltaTime": 60,
		"channel": 9,
		"type": "channel",
		"subtype": "noteOff",
		"noteNumber": 42,
		"velocity": 0,
		"time": 226260,
		"track": 5
	},
	{
		"deltaTime": 0,
		"channel": 0,
		"type": "channel",
		"subtype": "noteOff",
		"noteNumber": 40,
		"velocity": 0,
		"time": 226320,
		"track": 2
	},
	{
		"deltaTime": 0,
		"channel": 0,
		"type": "channel",
		"noteNumber": 40,
		"velocity": 127,
		"subtype": "noteOn",
		"time": 226320,
		"track": 2
	},
	{
		"deltaTime": 60,
		"channel": 9,
		"type": "channel",
		"noteNumber": 42,
		"velocity": 127,
		"subtype": "noteOn",
		"time": 226320,
		"track": 5
	},
	{
		"deltaTime": 60,
		"channel": 9,
		"type": "channel",
		"subtype": "noteOff",
		"noteNumber": 42,
		"velocity": 0,
		"time": 226380,
		"track": 5
	},
	{
		"deltaTime": 60,
		"channel": 9,
		"type": "channel",
		"noteNumber": 42,
		"velocity": 127,
		"subtype": "noteOn",
		"time": 226440,
		"track": 5
	},
	{
		"deltaTime": 60,
		"channel": 9,
		"type": "channel",
		"subtype": "noteOff",
		"noteNumber": 42,
		"velocity": 0,
		"time": 226500,
		"track": 5
	},
	{
		"deltaTime": 0,
		"channel": 0,
		"type": "channel",
		"subtype": "noteOff",
		"noteNumber": 40,
		"velocity": 0,
		"time": 226560,
		"track": 2
	},
	{
		"deltaTime": 0,
		"channel": 0,
		"type": "channel",
		"noteNumber": 41,
		"velocity": 127,
		"subtype": "noteOn",
		"time": 226560,
		"track": 2
	},
	{
		"deltaTime": 0,
		"channel": 2,
		"type": "channel",
		"subtype": "noteOff",
		"noteNumber": 68,
		"velocity": 0,
		"time": 226560,
		"track": 4
	},
	{
		"deltaTime": 0,
		"channel": 2,
		"type": "channel",
		"subtype": "noteOff",
		"noteNumber": 63,
		"velocity": 0,
		"time": 226560,
		"track": 4
	},
	{
		"deltaTime": 0,
		"channel": 2,
		"type": "channel",
		"subtype": "noteOff",
		"noteNumber": 59,
		"velocity": 0,
		"time": 226560,
		"track": 4
	},
	{
		"deltaTime": 0,
		"channel": 2,
		"type": "channel",
		"noteNumber": 41,
		"velocity": 127,
		"subtype": "noteOn",
		"time": 226560,
		"track": 4
	},
	{
		"deltaTime": 0,
		"channel": 9,
		"type": "channel",
		"noteNumber": 35,
		"velocity": 127,
		"subtype": "noteOn",
		"time": 226560,
		"track": 5
	},
	{
		"deltaTime": 60,
		"channel": 9,
		"type": "channel",
		"noteNumber": 36,
		"velocity": 127,
		"subtype": "noteOn",
		"time": 226560,
		"track": 5
	},
	{
		"deltaTime": 0,
		"channel": 9,
		"type": "channel",
		"subtype": "noteOff",
		"noteNumber": 36,
		"velocity": 0,
		"time": 226620,
		"track": 5
	},
	{
		"deltaTime": 180,
		"channel": 9,
		"type": "channel",
		"subtype": "noteOff",
		"noteNumber": 35,
		"velocity": 0,
		"time": 226620,
		"track": 5
	},
	{
		"deltaTime": 0,
		"channel": 9,
		"type": "channel",
		"noteNumber": 35,
		"velocity": 127,
		"subtype": "noteOn",
		"time": 226800,
		"track": 5
	},
	{
		"deltaTime": 60,
		"channel": 9,
		"type": "channel",
		"noteNumber": 36,
		"velocity": 127,
		"subtype": "noteOn",
		"time": 226800,
		"track": 5
	},
	{
		"deltaTime": 0,
		"channel": 9,
		"type": "channel",
		"subtype": "noteOff",
		"noteNumber": 36,
		"velocity": 0,
		"time": 226860,
		"track": 5
	},
	{
		"deltaTime": 60,
		"channel": 9,
		"type": "channel",
		"subtype": "noteOff",
		"noteNumber": 35,
		"velocity": 0,
		"time": 226860,
		"track": 5
	},
	{
		"deltaTime": 0,
		"channel": 2,
		"type": "channel",
		"subtype": "noteOff",
		"noteNumber": 41,
		"velocity": 0,
		"time": 226920,
		"track": 4
	},
	{
		"deltaTime": 0,
		"channel": 2,
		"type": "channel",
		"noteNumber": 59,
		"velocity": 127,
		"subtype": "noteOn",
		"time": 226920,
		"track": 4
	},
	{
		"deltaTime": 0,
		"channel": 2,
		"type": "channel",
		"noteNumber": 63,
		"velocity": 127,
		"subtype": "noteOn",
		"time": 226920,
		"track": 4
	},
	{
		"deltaTime": 120,
		"channel": 2,
		"type": "channel",
		"noteNumber": 68,
		"velocity": 127,
		"subtype": "noteOn",
		"time": 226920,
		"track": 4
	},
	{
		"deltaTime": 60,
		"channel": 9,
		"type": "channel",
		"noteNumber": 39,
		"velocity": 127,
		"subtype": "noteOn",
		"time": 227040,
		"track": 5
	},
	{
		"deltaTime": 60,
		"channel": 9,
		"type": "channel",
		"subtype": "noteOff",
		"noteNumber": 39,
		"velocity": 0,
		"time": 227100,
		"track": 5
	},
	{
		"deltaTime": 0,
		"channel": 2,
		"type": "channel",
		"subtype": "noteOff",
		"noteNumber": 68,
		"velocity": 0,
		"time": 227160,
		"track": 4
	},
	{
		"deltaTime": 0,
		"channel": 2,
		"type": "channel",
		"subtype": "noteOff",
		"noteNumber": 63,
		"velocity": 0,
		"time": 227160,
		"track": 4
	},
	{
		"deltaTime": 0,
		"channel": 2,
		"type": "channel",
		"subtype": "noteOff",
		"noteNumber": 59,
		"velocity": 0,
		"time": 227160,
		"track": 4
	},
	{
		"deltaTime": 0,
		"channel": 2,
		"type": "channel",
		"noteNumber": 59,
		"velocity": 127,
		"subtype": "noteOn",
		"time": 227160,
		"track": 4
	},
	{
		"deltaTime": 0,
		"channel": 2,
		"type": "channel",
		"noteNumber": 63,
		"velocity": 127,
		"subtype": "noteOn",
		"time": 227160,
		"track": 4
	},
	{
		"deltaTime": 120,
		"channel": 2,
		"type": "channel",
		"noteNumber": 68,
		"velocity": 127,
		"subtype": "noteOn",
		"time": 227160,
		"track": 4
	},
	{
		"deltaTime": 0,
		"channel": 0,
		"type": "channel",
		"subtype": "noteOff",
		"noteNumber": 41,
		"velocity": 0,
		"time": 227280,
		"track": 2
	},
	{
		"deltaTime": 120,
		"channel": 0,
		"type": "channel",
		"noteNumber": 41,
		"velocity": 127,
		"subtype": "noteOn",
		"time": 227280,
		"track": 2
	},
	{
		"deltaTime": 0,
		"channel": 9,
		"type": "channel",
		"noteNumber": 35,
		"velocity": 127,
		"subtype": "noteOn",
		"time": 227400,
		"track": 5
	},
	{
		"deltaTime": 60,
		"channel": 9,
		"type": "channel",
		"noteNumber": 36,
		"velocity": 127,
		"subtype": "noteOn",
		"time": 227400,
		"track": 5
	},
	{
		"deltaTime": 0,
		"channel": 9,
		"type": "channel",
		"subtype": "noteOff",
		"noteNumber": 36,
		"velocity": 0,
		"time": 227460,
		"track": 5
	},
	{
		"deltaTime": 60,
		"channel": 9,
		"type": "channel",
		"subtype": "noteOff",
		"noteNumber": 35,
		"velocity": 0,
		"time": 227460,
		"track": 5
	},
	{
		"deltaTime": 0,
		"channel": 0,
		"type": "channel",
		"subtype": "noteOff",
		"noteNumber": 41,
		"velocity": 0,
		"time": 227520,
		"track": 2
	},
	{
		"deltaTime": 0,
		"channel": 0,
		"type": "channel",
		"noteNumber": 40,
		"velocity": 127,
		"subtype": "noteOn",
		"time": 227520,
		"track": 2
	},
	{
		"deltaTime": 0,
		"channel": 2,
		"type": "channel",
		"subtype": "noteOff",
		"noteNumber": 68,
		"velocity": 0,
		"time": 227520,
		"track": 4
	},
	{
		"deltaTime": 0,
		"channel": 2,
		"type": "channel",
		"subtype": "noteOff",
		"noteNumber": 63,
		"velocity": 0,
		"time": 227520,
		"track": 4
	},
	{
		"deltaTime": 0,
		"channel": 2,
		"type": "channel",
		"subtype": "noteOff",
		"noteNumber": 59,
		"velocity": 0,
		"time": 227520,
		"track": 4
	},
	{
		"deltaTime": 240,
		"channel": 2,
		"type": "channel",
		"noteNumber": 40,
		"velocity": 127,
		"subtype": "noteOn",
		"time": 227520,
		"track": 4
	},
	{
		"deltaTime": 0,
		"channel": 9,
		"type": "channel",
		"noteNumber": 35,
		"velocity": 127,
		"subtype": "noteOn",
		"time": 227760,
		"track": 5
	},
	{
		"deltaTime": 60,
		"channel": 9,
		"type": "channel",
		"noteNumber": 36,
		"velocity": 127,
		"subtype": "noteOn",
		"time": 227760,
		"track": 5
	},
	{
		"deltaTime": 0,
		"channel": 9,
		"type": "channel",
		"subtype": "noteOff",
		"noteNumber": 36,
		"velocity": 0,
		"time": 227820,
		"track": 5
	},
	{
		"deltaTime": 60,
		"channel": 9,
		"type": "channel",
		"subtype": "noteOff",
		"noteNumber": 35,
		"velocity": 0,
		"time": 227820,
		"track": 5
	},
	{
		"deltaTime": 0,
		"channel": 2,
		"type": "channel",
		"subtype": "noteOff",
		"noteNumber": 40,
		"velocity": 0,
		"time": 227880,
		"track": 4
	},
	{
		"deltaTime": 0,
		"channel": 2,
		"type": "channel",
		"noteNumber": 59,
		"velocity": 127,
		"subtype": "noteOn",
		"time": 227880,
		"track": 4
	},
	{
		"deltaTime": 0,
		"channel": 2,
		"type": "channel",
		"noteNumber": 63,
		"velocity": 127,
		"subtype": "noteOn",
		"time": 227880,
		"track": 4
	},
	{
		"deltaTime": 120,
		"channel": 2,
		"type": "channel",
		"noteNumber": 68,
		"velocity": 127,
		"subtype": "noteOn",
		"time": 227880,
		"track": 4
	},
	{
		"deltaTime": 0,
		"channel": 0,
		"type": "channel",
		"subtype": "noteOff",
		"noteNumber": 40,
		"velocity": 0,
		"time": 228000,
		"track": 2
	},
	{
		"deltaTime": 0,
		"channel": 0,
		"type": "channel",
		"noteNumber": 35,
		"velocity": 127,
		"subtype": "noteOn",
		"time": 228000,
		"track": 2
	},
	{
		"deltaTime": 0,
		"channel": 9,
		"type": "channel",
		"noteNumber": 38,
		"velocity": 127,
		"subtype": "noteOn",
		"time": 228000,
		"track": 5
	},
	{
		"deltaTime": 60,
		"channel": 9,
		"type": "channel",
		"noteNumber": 40,
		"velocity": 127,
		"subtype": "noteOn",
		"time": 228000,
		"track": 5
	},
	{
		"deltaTime": 0,
		"channel": 9,
		"type": "channel",
		"subtype": "noteOff",
		"noteNumber": 40,
		"velocity": 0,
		"time": 228060,
		"track": 5
	},
	{
		"deltaTime": 60,
		"channel": 9,
		"type": "channel",
		"subtype": "noteOff",
		"noteNumber": 38,
		"velocity": 0,
		"time": 228060,
		"track": 5
	},
	{
		"deltaTime": 0,
		"channel": 2,
		"type": "channel",
		"subtype": "noteOff",
		"noteNumber": 68,
		"velocity": 0,
		"time": 228120,
		"track": 4
	},
	{
		"deltaTime": 0,
		"channel": 2,
		"type": "channel",
		"subtype": "noteOff",
		"noteNumber": 63,
		"velocity": 0,
		"time": 228120,
		"track": 4
	},
	{
		"deltaTime": 0,
		"channel": 2,
		"type": "channel",
		"subtype": "noteOff",
		"noteNumber": 59,
		"velocity": 0,
		"time": 228120,
		"track": 4
	},
	{
		"deltaTime": 0,
		"channel": 2,
		"type": "channel",
		"noteNumber": 59,
		"velocity": 127,
		"subtype": "noteOn",
		"time": 228120,
		"track": 4
	},
	{
		"deltaTime": 0,
		"channel": 2,
		"type": "channel",
		"noteNumber": 63,
		"velocity": 127,
		"subtype": "noteOn",
		"time": 228120,
		"track": 4
	},
	{
		"deltaTime": 120,
		"channel": 2,
		"type": "channel",
		"noteNumber": 68,
		"velocity": 127,
		"subtype": "noteOn",
		"time": 228120,
		"track": 4
	},
	{
		"deltaTime": 0,
		"channel": 0,
		"type": "channel",
		"subtype": "noteOff",
		"noteNumber": 35,
		"velocity": 0,
		"time": 228240,
		"track": 2
	},
	{
		"deltaTime": 0,
		"channel": 0,
		"type": "channel",
		"noteNumber": 34,
		"velocity": 127,
		"subtype": "noteOn",
		"time": 228240,
		"track": 2
	},
	{
		"deltaTime": 0,
		"channel": 9,
		"type": "channel",
		"noteNumber": 35,
		"velocity": 127,
		"subtype": "noteOn",
		"time": 228240,
		"track": 5
	},
	{
		"deltaTime": 60,
		"channel": 9,
		"type": "channel",
		"noteNumber": 36,
		"velocity": 127,
		"subtype": "noteOn",
		"time": 228240,
		"track": 5
	},
	{
		"deltaTime": 0,
		"channel": 9,
		"type": "channel",
		"subtype": "noteOff",
		"noteNumber": 36,
		"velocity": 0,
		"time": 228300,
		"track": 5
	},
	{
		"deltaTime": 180,
		"channel": 9,
		"type": "channel",
		"subtype": "noteOff",
		"noteNumber": 35,
		"velocity": 0,
		"time": 228300,
		"track": 5
	},
	{
		"deltaTime": 0,
		"channel": 0,
		"type": "channel",
		"subtype": "noteOff",
		"noteNumber": 34,
		"velocity": 0,
		"time": 228480,
		"track": 2
	},
	{
		"deltaTime": 0,
		"channel": 0,
		"type": "channel",
		"noteNumber": 32,
		"velocity": 127,
		"subtype": "noteOn",
		"time": 228480,
		"track": 2
	},
	{
		"deltaTime": 0,
		"channel": 2,
		"type": "channel",
		"subtype": "noteOff",
		"noteNumber": 68,
		"velocity": 0,
		"time": 228480,
		"track": 4
	},
	{
		"deltaTime": 0,
		"channel": 2,
		"type": "channel",
		"subtype": "noteOff",
		"noteNumber": 63,
		"velocity": 0,
		"time": 228480,
		"track": 4
	},
	{
		"deltaTime": 0,
		"channel": 2,
		"type": "channel",
		"subtype": "noteOff",
		"noteNumber": 59,
		"velocity": 0,
		"time": 228480,
		"track": 4
	},
	{
		"deltaTime": 0,
		"channel": 2,
		"type": "channel",
		"noteNumber": 44,
		"velocity": 127,
		"subtype": "noteOn",
		"time": 228480,
		"track": 4
	},
	{
		"deltaTime": 0,
		"channel": 9,
		"type": "channel",
		"noteNumber": 42,
		"velocity": 127,
		"subtype": "noteOn",
		"time": 228480,
		"track": 5
	},
	{
		"deltaTime": 0,
		"channel": 9,
		"type": "channel",
		"noteNumber": 35,
		"velocity": 127,
		"subtype": "noteOn",
		"time": 228480,
		"track": 5
	},
	{
		"deltaTime": 60,
		"channel": 9,
		"type": "channel",
		"noteNumber": 36,
		"velocity": 127,
		"subtype": "noteOn",
		"time": 228480,
		"track": 5
	},
	{
		"deltaTime": 0,
		"channel": 9,
		"type": "channel",
		"subtype": "noteOff",
		"noteNumber": 36,
		"velocity": 0,
		"time": 228540,
		"track": 5
	},
	{
		"deltaTime": 0,
		"channel": 9,
		"type": "channel",
		"subtype": "noteOff",
		"noteNumber": 35,
		"velocity": 0,
		"time": 228540,
		"track": 5
	},
	{
		"deltaTime": 60,
		"channel": 9,
		"type": "channel",
		"subtype": "noteOff",
		"noteNumber": 42,
		"velocity": 0,
		"time": 228540,
		"track": 5
	},
	{
		"deltaTime": 60,
		"channel": 9,
		"type": "channel",
		"noteNumber": 42,
		"velocity": 127,
		"subtype": "noteOn",
		"time": 228600,
		"track": 5
	},
	{
		"deltaTime": 60,
		"channel": 9,
		"type": "channel",
		"subtype": "noteOff",
		"noteNumber": 42,
		"velocity": 0,
		"time": 228660,
		"track": 5
	},
	{
		"deltaTime": 0,
		"channel": 9,
		"type": "channel",
		"noteNumber": 42,
		"velocity": 127,
		"subtype": "noteOn",
		"time": 228720,
		"track": 5
	},
	{
		"deltaTime": 0,
		"channel": 9,
		"type": "channel",
		"noteNumber": 36,
		"velocity": 127,
		"subtype": "noteOn",
		"time": 228720,
		"track": 5
	},
	{
		"deltaTime": 60,
		"channel": 9,
		"type": "channel",
		"noteNumber": 35,
		"velocity": 127,
		"subtype": "noteOn",
		"time": 228720,
		"track": 5
	},
	{
		"deltaTime": 0,
		"channel": 9,
		"type": "channel",
		"subtype": "noteOff",
		"noteNumber": 35,
		"velocity": 0,
		"time": 228780,
		"track": 5
	},
	{
		"deltaTime": 0,
		"channel": 9,
		"type": "channel",
		"subtype": "noteOff",
		"noteNumber": 36,
		"velocity": 0,
		"time": 228780,
		"track": 5
	},
	{
		"deltaTime": 60,
		"channel": 9,
		"type": "channel",
		"subtype": "noteOff",
		"noteNumber": 42,
		"velocity": 0,
		"time": 228780,
		"track": 5
	},
	{
		"deltaTime": 0,
		"channel": 2,
		"type": "channel",
		"subtype": "noteOff",
		"noteNumber": 44,
		"velocity": 0,
		"time": 228840,
		"track": 4
	},
	{
		"deltaTime": 0,
		"channel": 2,
		"type": "channel",
		"noteNumber": 59,
		"velocity": 127,
		"subtype": "noteOn",
		"time": 228840,
		"track": 4
	},
	{
		"deltaTime": 0,
		"channel": 2,
		"type": "channel",
		"noteNumber": 63,
		"velocity": 127,
		"subtype": "noteOn",
		"time": 228840,
		"track": 4
	},
	{
		"deltaTime": 0,
		"channel": 2,
		"type": "channel",
		"noteNumber": 68,
		"velocity": 127,
		"subtype": "noteOn",
		"time": 228840,
		"track": 4
	},
	{
		"deltaTime": 60,
		"channel": 9,
		"type": "channel",
		"noteNumber": 42,
		"velocity": 127,
		"subtype": "noteOn",
		"time": 228840,
		"track": 5
	},
	{
		"deltaTime": 60,
		"channel": 9,
		"type": "channel",
		"subtype": "noteOff",
		"noteNumber": 42,
		"velocity": 0,
		"time": 228900,
		"track": 5
	},
	{
		"deltaTime": 0,
		"channel": 9,
		"type": "channel",
		"noteNumber": 42,
		"velocity": 127,
		"subtype": "noteOn",
		"time": 228960,
		"track": 5
	},
	{
		"deltaTime": 0,
		"channel": 9,
		"type": "channel",
		"noteNumber": 38,
		"velocity": 127,
		"subtype": "noteOn",
		"time": 228960,
		"track": 5
	},
	{
		"deltaTime": 60,
		"channel": 9,
		"type": "channel",
		"noteNumber": 40,
		"velocity": 127,
		"subtype": "noteOn",
		"time": 228960,
		"track": 5
	},
	{
		"deltaTime": 0,
		"channel": 9,
		"type": "channel",
		"subtype": "noteOff",
		"noteNumber": 40,
		"velocity": 0,
		"time": 229020,
		"track": 5
	},
	{
		"deltaTime": 0,
		"channel": 9,
		"type": "channel",
		"subtype": "noteOff",
		"noteNumber": 38,
		"velocity": 0,
		"time": 229020,
		"track": 5
	},
	{
		"deltaTime": 60,
		"channel": 9,
		"type": "channel",
		"subtype": "noteOff",
		"noteNumber": 42,
		"velocity": 0,
		"time": 229020,
		"track": 5
	},
	{
		"deltaTime": 0,
		"channel": 2,
		"type": "channel",
		"subtype": "noteOff",
		"noteNumber": 68,
		"velocity": 0,
		"time": 229080,
		"track": 4
	},
	{
		"deltaTime": 0,
		"channel": 2,
		"type": "channel",
		"subtype": "noteOff",
		"noteNumber": 63,
		"velocity": 0,
		"time": 229080,
		"track": 4
	},
	{
		"deltaTime": 0,
		"channel": 2,
		"type": "channel",
		"subtype": "noteOff",
		"noteNumber": 59,
		"velocity": 0,
		"time": 229080,
		"track": 4
	},
	{
		"deltaTime": 0,
		"channel": 2,
		"type": "channel",
		"noteNumber": 59,
		"velocity": 127,
		"subtype": "noteOn",
		"time": 229080,
		"track": 4
	},
	{
		"deltaTime": 0,
		"channel": 2,
		"type": "channel",
		"noteNumber": 63,
		"velocity": 127,
		"subtype": "noteOn",
		"time": 229080,
		"track": 4
	},
	{
		"deltaTime": 0,
		"channel": 2,
		"type": "channel",
		"noteNumber": 68,
		"velocity": 127,
		"subtype": "noteOn",
		"time": 229080,
		"track": 4
	},
	{
		"deltaTime": 60,
		"channel": 9,
		"type": "channel",
		"noteNumber": 42,
		"velocity": 127,
		"subtype": "noteOn",
		"time": 229080,
		"track": 5
	},
	{
		"deltaTime": 60,
		"channel": 9,
		"type": "channel",
		"subtype": "noteOff",
		"noteNumber": 42,
		"velocity": 0,
		"time": 229140,
		"track": 5
	},
	{
		"deltaTime": 60,
		"channel": 9,
		"type": "channel",
		"noteNumber": 42,
		"velocity": 127,
		"subtype": "noteOn",
		"time": 229200,
		"track": 5
	},
	{
		"deltaTime": 60,
		"channel": 9,
		"type": "channel",
		"subtype": "noteOff",
		"noteNumber": 42,
		"velocity": 0,
		"time": 229260,
		"track": 5
	},
	{
		"deltaTime": 0,
		"channel": 9,
		"type": "channel",
		"noteNumber": 42,
		"velocity": 127,
		"subtype": "noteOn",
		"time": 229320,
		"track": 5
	},
	{
		"deltaTime": 0,
		"channel": 9,
		"type": "channel",
		"noteNumber": 36,
		"velocity": 127,
		"subtype": "noteOn",
		"time": 229320,
		"track": 5
	},
	{
		"deltaTime": 60,
		"channel": 9,
		"type": "channel",
		"noteNumber": 35,
		"velocity": 127,
		"subtype": "noteOn",
		"time": 229320,
		"track": 5
	},
	{
		"deltaTime": 0,
		"channel": 9,
		"type": "channel",
		"subtype": "noteOff",
		"noteNumber": 35,
		"velocity": 0,
		"time": 229380,
		"track": 5
	},
	{
		"deltaTime": 0,
		"channel": 9,
		"type": "channel",
		"subtype": "noteOff",
		"noteNumber": 36,
		"velocity": 0,
		"time": 229380,
		"track": 5
	},
	{
		"deltaTime": 60,
		"channel": 9,
		"type": "channel",
		"subtype": "noteOff",
		"noteNumber": 42,
		"velocity": 0,
		"time": 229380,
		"track": 5
	},
	{
		"deltaTime": 0,
		"channel": 0,
		"type": "channel",
		"subtype": "noteOff",
		"noteNumber": 32,
		"velocity": 0,
		"time": 229440,
		"track": 2
	},
	{
		"deltaTime": 0,
		"channel": 0,
		"type": "channel",
		"noteNumber": 40,
		"velocity": 127,
		"subtype": "noteOn",
		"time": 229440,
		"track": 2
	},
	{
		"deltaTime": 0,
		"channel": 2,
		"type": "channel",
		"subtype": "noteOff",
		"noteNumber": 68,
		"velocity": 0,
		"time": 229440,
		"track": 4
	},
	{
		"deltaTime": 0,
		"channel": 2,
		"type": "channel",
		"subtype": "noteOff",
		"noteNumber": 63,
		"velocity": 0,
		"time": 229440,
		"track": 4
	},
	{
		"deltaTime": 0,
		"channel": 2,
		"type": "channel",
		"subtype": "noteOff",
		"noteNumber": 59,
		"velocity": 0,
		"time": 229440,
		"track": 4
	},
	{
		"deltaTime": 0,
		"channel": 2,
		"type": "channel",
		"noteNumber": 40,
		"velocity": 127,
		"subtype": "noteOn",
		"time": 229440,
		"track": 4
	},
	{
		"deltaTime": 60,
		"channel": 9,
		"type": "channel",
		"noteNumber": 42,
		"velocity": 127,
		"subtype": "noteOn",
		"time": 229440,
		"track": 5
	},
	{
		"deltaTime": 60,
		"channel": 9,
		"type": "channel",
		"subtype": "noteOff",
		"noteNumber": 42,
		"velocity": 0,
		"time": 229500,
		"track": 5
	},
	{
		"deltaTime": 60,
		"channel": 9,
		"type": "channel",
		"noteNumber": 42,
		"velocity": 127,
		"subtype": "noteOn",
		"time": 229560,
		"track": 5
	},
	{
		"deltaTime": 60,
		"channel": 9,
		"type": "channel",
		"subtype": "noteOff",
		"noteNumber": 42,
		"velocity": 0,
		"time": 229620,
		"track": 5
	},
	{
		"deltaTime": 0,
		"channel": 9,
		"type": "channel",
		"noteNumber": 42,
		"velocity": 127,
		"subtype": "noteOn",
		"time": 229680,
		"track": 5
	},
	{
		"deltaTime": 0,
		"channel": 9,
		"type": "channel",
		"noteNumber": 36,
		"velocity": 127,
		"subtype": "noteOn",
		"time": 229680,
		"track": 5
	},
	{
		"deltaTime": 60,
		"channel": 9,
		"type": "channel",
		"noteNumber": 35,
		"velocity": 127,
		"subtype": "noteOn",
		"time": 229680,
		"track": 5
	},
	{
		"deltaTime": 0,
		"channel": 9,
		"type": "channel",
		"subtype": "noteOff",
		"noteNumber": 35,
		"velocity": 0,
		"time": 229740,
		"track": 5
	},
	{
		"deltaTime": 0,
		"channel": 9,
		"type": "channel",
		"subtype": "noteOff",
		"noteNumber": 36,
		"velocity": 0,
		"time": 229740,
		"track": 5
	},
	{
		"deltaTime": 60,
		"channel": 9,
		"type": "channel",
		"subtype": "noteOff",
		"noteNumber": 42,
		"velocity": 0,
		"time": 229740,
		"track": 5
	},
	{
		"deltaTime": 0,
		"channel": 2,
		"type": "channel",
		"subtype": "noteOff",
		"noteNumber": 40,
		"velocity": 0,
		"time": 229800,
		"track": 4
	},
	{
		"deltaTime": 0,
		"channel": 2,
		"type": "channel",
		"noteNumber": 59,
		"velocity": 127,
		"subtype": "noteOn",
		"time": 229800,
		"track": 4
	},
	{
		"deltaTime": 0,
		"channel": 2,
		"type": "channel",
		"noteNumber": 63,
		"velocity": 127,
		"subtype": "noteOn",
		"time": 229800,
		"track": 4
	},
	{
		"deltaTime": 0,
		"channel": 2,
		"type": "channel",
		"noteNumber": 68,
		"velocity": 127,
		"subtype": "noteOn",
		"time": 229800,
		"track": 4
	},
	{
		"deltaTime": 60,
		"channel": 9,
		"type": "channel",
		"noteNumber": 42,
		"velocity": 127,
		"subtype": "noteOn",
		"time": 229800,
		"track": 5
	},
	{
		"deltaTime": 60,
		"channel": 9,
		"type": "channel",
		"subtype": "noteOff",
		"noteNumber": 42,
		"velocity": 0,
		"time": 229860,
		"track": 5
	},
	{
		"deltaTime": 0,
		"channel": 9,
		"type": "channel",
		"noteNumber": 42,
		"velocity": 127,
		"subtype": "noteOn",
		"time": 229920,
		"track": 5
	},
	{
		"deltaTime": 0,
		"channel": 9,
		"type": "channel",
		"noteNumber": 40,
		"velocity": 127,
		"subtype": "noteOn",
		"time": 229920,
		"track": 5
	},
	{
		"deltaTime": 60,
		"channel": 9,
		"type": "channel",
		"noteNumber": 38,
		"velocity": 127,
		"subtype": "noteOn",
		"time": 229920,
		"track": 5
	},
	{
		"deltaTime": 0,
		"channel": 9,
		"type": "channel",
		"subtype": "noteOff",
		"noteNumber": 38,
		"velocity": 0,
		"time": 229980,
		"track": 5
	},
	{
		"deltaTime": 0,
		"channel": 9,
		"type": "channel",
		"subtype": "noteOff",
		"noteNumber": 40,
		"velocity": 0,
		"time": 229980,
		"track": 5
	},
	{
		"deltaTime": 60,
		"channel": 9,
		"type": "channel",
		"subtype": "noteOff",
		"noteNumber": 42,
		"velocity": 0,
		"time": 229980,
		"track": 5
	},
	{
		"deltaTime": 0,
		"channel": 2,
		"type": "channel",
		"subtype": "noteOff",
		"noteNumber": 68,
		"velocity": 0,
		"time": 230040,
		"track": 4
	},
	{
		"deltaTime": 0,
		"channel": 2,
		"type": "channel",
		"subtype": "noteOff",
		"noteNumber": 63,
		"velocity": 0,
		"time": 230040,
		"track": 4
	},
	{
		"deltaTime": 0,
		"channel": 2,
		"type": "channel",
		"subtype": "noteOff",
		"noteNumber": 59,
		"velocity": 0,
		"time": 230040,
		"track": 4
	},
	{
		"deltaTime": 0,
		"channel": 2,
		"type": "channel",
		"noteNumber": 59,
		"velocity": 127,
		"subtype": "noteOn",
		"time": 230040,
		"track": 4
	},
	{
		"deltaTime": 0,
		"channel": 2,
		"type": "channel",
		"noteNumber": 63,
		"velocity": 127,
		"subtype": "noteOn",
		"time": 230040,
		"track": 4
	},
	{
		"deltaTime": 0,
		"channel": 2,
		"type": "channel",
		"noteNumber": 68,
		"velocity": 127,
		"subtype": "noteOn",
		"time": 230040,
		"track": 4
	},
	{
		"deltaTime": 60,
		"channel": 9,
		"type": "channel",
		"noteNumber": 42,
		"velocity": 127,
		"subtype": "noteOn",
		"time": 230040,
		"track": 5
	},
	{
		"deltaTime": 60,
		"channel": 9,
		"type": "channel",
		"subtype": "noteOff",
		"noteNumber": 42,
		"velocity": 0,
		"time": 230100,
		"track": 5
	},
	{
		"deltaTime": 60,
		"channel": 9,
		"type": "channel",
		"noteNumber": 42,
		"velocity": 127,
		"subtype": "noteOn",
		"time": 230160,
		"track": 5
	},
	{
		"deltaTime": 60,
		"channel": 9,
		"type": "channel",
		"subtype": "noteOff",
		"noteNumber": 42,
		"velocity": 0,
		"time": 230220,
		"track": 5
	},
	{
		"deltaTime": 60,
		"channel": 9,
		"type": "channel",
		"noteNumber": 42,
		"velocity": 127,
		"subtype": "noteOn",
		"time": 230280,
		"track": 5
	},
	{
		"deltaTime": 60,
		"channel": 9,
		"type": "channel",
		"subtype": "noteOff",
		"noteNumber": 42,
		"velocity": 0,
		"time": 230340,
		"track": 5
	},
	{
		"deltaTime": 0,
		"channel": 0,
		"type": "channel",
		"subtype": "noteOff",
		"noteNumber": 40,
		"velocity": 0,
		"time": 230400,
		"track": 2
	},
	{
		"deltaTime": 0,
		"channel": 0,
		"type": "channel",
		"noteNumber": 42,
		"velocity": 127,
		"subtype": "noteOn",
		"time": 230400,
		"track": 2
	},
	{
		"deltaTime": 0,
		"channel": 2,
		"type": "channel",
		"subtype": "noteOff",
		"noteNumber": 68,
		"velocity": 0,
		"time": 230400,
		"track": 4
	},
	{
		"deltaTime": 0,
		"channel": 2,
		"type": "channel",
		"subtype": "noteOff",
		"noteNumber": 63,
		"velocity": 0,
		"time": 230400,
		"track": 4
	},
	{
		"deltaTime": 0,
		"channel": 2,
		"type": "channel",
		"subtype": "noteOff",
		"noteNumber": 59,
		"velocity": 0,
		"time": 230400,
		"track": 4
	},
	{
		"deltaTime": 0,
		"channel": 2,
		"type": "channel",
		"noteNumber": 42,
		"velocity": 127,
		"subtype": "noteOn",
		"time": 230400,
		"track": 4
	},
	{
		"deltaTime": 0,
		"channel": 9,
		"type": "channel",
		"noteNumber": 42,
		"velocity": 127,
		"subtype": "noteOn",
		"time": 230400,
		"track": 5
	},
	{
		"deltaTime": 0,
		"channel": 9,
		"type": "channel",
		"noteNumber": 35,
		"velocity": 127,
		"subtype": "noteOn",
		"time": 230400,
		"track": 5
	},
	{
		"deltaTime": 60,
		"channel": 9,
		"type": "channel",
		"noteNumber": 36,
		"velocity": 127,
		"subtype": "noteOn",
		"time": 230400,
		"track": 5
	},
	{
		"deltaTime": 0,
		"channel": 9,
		"type": "channel",
		"subtype": "noteOff",
		"noteNumber": 36,
		"velocity": 0,
		"time": 230460,
		"track": 5
	},
	{
		"deltaTime": 0,
		"channel": 9,
		"type": "channel",
		"subtype": "noteOff",
		"noteNumber": 35,
		"velocity": 0,
		"time": 230460,
		"track": 5
	},
	{
		"deltaTime": 60,
		"channel": 9,
		"type": "channel",
		"subtype": "noteOff",
		"noteNumber": 42,
		"velocity": 0,
		"time": 230460,
		"track": 5
	},
	{
		"deltaTime": 60,
		"channel": 9,
		"type": "channel",
		"noteNumber": 42,
		"velocity": 127,
		"subtype": "noteOn",
		"time": 230520,
		"track": 5
	},
	{
		"deltaTime": 60,
		"channel": 9,
		"type": "channel",
		"subtype": "noteOff",
		"noteNumber": 42,
		"velocity": 0,
		"time": 230580,
		"track": 5
	},
	{
		"deltaTime": 0,
		"channel": 9,
		"type": "channel",
		"noteNumber": 42,
		"velocity": 127,
		"subtype": "noteOn",
		"time": 230640,
		"track": 5
	},
	{
		"deltaTime": 0,
		"channel": 9,
		"type": "channel",
		"noteNumber": 36,
		"velocity": 127,
		"subtype": "noteOn",
		"time": 230640,
		"track": 5
	},
	{
		"deltaTime": 60,
		"channel": 9,
		"type": "channel",
		"noteNumber": 35,
		"velocity": 127,
		"subtype": "noteOn",
		"time": 230640,
		"track": 5
	},
	{
		"deltaTime": 0,
		"channel": 9,
		"type": "channel",
		"subtype": "noteOff",
		"noteNumber": 35,
		"velocity": 0,
		"time": 230700,
		"track": 5
	},
	{
		"deltaTime": 0,
		"channel": 9,
		"type": "channel",
		"subtype": "noteOff",
		"noteNumber": 36,
		"velocity": 0,
		"time": 230700,
		"track": 5
	},
	{
		"deltaTime": 60,
		"channel": 9,
		"type": "channel",
		"subtype": "noteOff",
		"noteNumber": 42,
		"velocity": 0,
		"time": 230700,
		"track": 5
	},
	{
		"deltaTime": 0,
		"channel": 2,
		"type": "channel",
		"subtype": "noteOff",
		"noteNumber": 42,
		"velocity": 0,
		"time": 230760,
		"track": 4
	},
	{
		"deltaTime": 0,
		"channel": 2,
		"type": "channel",
		"noteNumber": 61,
		"velocity": 127,
		"subtype": "noteOn",
		"time": 230760,
		"track": 4
	},
	{
		"deltaTime": 0,
		"channel": 2,
		"type": "channel",
		"noteNumber": 66,
		"velocity": 127,
		"subtype": "noteOn",
		"time": 230760,
		"track": 4
	},
	{
		"deltaTime": 0,
		"channel": 2,
		"type": "channel",
		"noteNumber": 70,
		"velocity": 127,
		"subtype": "noteOn",
		"time": 230760,
		"track": 4
	},
	{
		"deltaTime": 60,
		"channel": 9,
		"type": "channel",
		"noteNumber": 42,
		"velocity": 127,
		"subtype": "noteOn",
		"time": 230760,
		"track": 5
	},
	{
		"deltaTime": 60,
		"channel": 9,
		"type": "channel",
		"subtype": "noteOff",
		"noteNumber": 42,
		"velocity": 0,
		"time": 230820,
		"track": 5
	},
	{
		"deltaTime": 0,
		"channel": 9,
		"type": "channel",
		"noteNumber": 42,
		"velocity": 127,
		"subtype": "noteOn",
		"time": 230880,
		"track": 5
	},
	{
		"deltaTime": 0,
		"channel": 9,
		"type": "channel",
		"noteNumber": 38,
		"velocity": 127,
		"subtype": "noteOn",
		"time": 230880,
		"track": 5
	},
	{
		"deltaTime": 60,
		"channel": 9,
		"type": "channel",
		"noteNumber": 40,
		"velocity": 127,
		"subtype": "noteOn",
		"time": 230880,
		"track": 5
	},
	{
		"deltaTime": 0,
		"channel": 9,
		"type": "channel",
		"subtype": "noteOff",
		"noteNumber": 40,
		"velocity": 0,
		"time": 230940,
		"track": 5
	},
	{
		"deltaTime": 0,
		"channel": 9,
		"type": "channel",
		"subtype": "noteOff",
		"noteNumber": 38,
		"velocity": 0,
		"time": 230940,
		"track": 5
	},
	{
		"deltaTime": 60,
		"channel": 9,
		"type": "channel",
		"subtype": "noteOff",
		"noteNumber": 42,
		"velocity": 0,
		"time": 230940,
		"track": 5
	},
	{
		"deltaTime": 0,
		"channel": 2,
		"type": "channel",
		"subtype": "noteOff",
		"noteNumber": 70,
		"velocity": 0,
		"time": 231000,
		"track": 4
	},
	{
		"deltaTime": 0,
		"channel": 2,
		"type": "channel",
		"subtype": "noteOff",
		"noteNumber": 66,
		"velocity": 0,
		"time": 231000,
		"track": 4
	},
	{
		"deltaTime": 0,
		"channel": 2,
		"type": "channel",
		"subtype": "noteOff",
		"noteNumber": 61,
		"velocity": 0,
		"time": 231000,
		"track": 4
	},
	{
		"deltaTime": 0,
		"channel": 2,
		"type": "channel",
		"noteNumber": 61,
		"velocity": 127,
		"subtype": "noteOn",
		"time": 231000,
		"track": 4
	},
	{
		"deltaTime": 0,
		"channel": 2,
		"type": "channel",
		"noteNumber": 66,
		"velocity": 127,
		"subtype": "noteOn",
		"time": 231000,
		"track": 4
	},
	{
		"deltaTime": 0,
		"channel": 2,
		"type": "channel",
		"noteNumber": 70,
		"velocity": 127,
		"subtype": "noteOn",
		"time": 231000,
		"track": 4
	},
	{
		"deltaTime": 60,
		"channel": 9,
		"type": "channel",
		"noteNumber": 42,
		"velocity": 127,
		"subtype": "noteOn",
		"time": 231000,
		"track": 5
	},
	{
		"deltaTime": 60,
		"channel": 9,
		"type": "channel",
		"subtype": "noteOff",
		"noteNumber": 42,
		"velocity": 0,
		"time": 231060,
		"track": 5
	},
	{
		"deltaTime": 60,
		"channel": 9,
		"type": "channel",
		"noteNumber": 42,
		"velocity": 127,
		"subtype": "noteOn",
		"time": 231120,
		"track": 5
	},
	{
		"deltaTime": 60,
		"channel": 9,
		"type": "channel",
		"subtype": "noteOff",
		"noteNumber": 42,
		"velocity": 0,
		"time": 231180,
		"track": 5
	},
	{
		"deltaTime": 0,
		"channel": 9,
		"type": "channel",
		"noteNumber": 42,
		"velocity": 127,
		"subtype": "noteOn",
		"time": 231240,
		"track": 5
	},
	{
		"deltaTime": 0,
		"channel": 9,
		"type": "channel",
		"noteNumber": 36,
		"velocity": 127,
		"subtype": "noteOn",
		"time": 231240,
		"track": 5
	},
	{
		"deltaTime": 60,
		"channel": 9,
		"type": "channel",
		"noteNumber": 35,
		"velocity": 127,
		"subtype": "noteOn",
		"time": 231240,
		"track": 5
	},
	{
		"deltaTime": 0,
		"channel": 9,
		"type": "channel",
		"subtype": "noteOff",
		"noteNumber": 35,
		"velocity": 0,
		"time": 231300,
		"track": 5
	},
	{
		"deltaTime": 0,
		"channel": 9,
		"type": "channel",
		"subtype": "noteOff",
		"noteNumber": 36,
		"velocity": 0,
		"time": 231300,
		"track": 5
	},
	{
		"deltaTime": 60,
		"channel": 9,
		"type": "channel",
		"subtype": "noteOff",
		"noteNumber": 42,
		"velocity": 0,
		"time": 231300,
		"track": 5
	},
	{
		"deltaTime": 0,
		"channel": 0,
		"type": "channel",
		"subtype": "noteOff",
		"noteNumber": 42,
		"velocity": 0,
		"time": 231360,
		"track": 2
	},
	{
		"deltaTime": 0,
		"channel": 0,
		"type": "channel",
		"noteNumber": 35,
		"velocity": 127,
		"subtype": "noteOn",
		"time": 231360,
		"track": 2
	},
	{
		"deltaTime": 0,
		"channel": 2,
		"type": "channel",
		"subtype": "noteOff",
		"noteNumber": 70,
		"velocity": 0,
		"time": 231360,
		"track": 4
	},
	{
		"deltaTime": 0,
		"channel": 2,
		"type": "channel",
		"subtype": "noteOff",
		"noteNumber": 66,
		"velocity": 0,
		"time": 231360,
		"track": 4
	},
	{
		"deltaTime": 0,
		"channel": 2,
		"type": "channel",
		"subtype": "noteOff",
		"noteNumber": 61,
		"velocity": 0,
		"time": 231360,
		"track": 4
	},
	{
		"deltaTime": 0,
		"channel": 2,
		"type": "channel",
		"noteNumber": 47,
		"velocity": 127,
		"subtype": "noteOn",
		"time": 231360,
		"track": 4
	},
	{
		"deltaTime": 60,
		"channel": 9,
		"type": "channel",
		"noteNumber": 42,
		"velocity": 127,
		"subtype": "noteOn",
		"time": 231360,
		"track": 5
	},
	{
		"deltaTime": 60,
		"channel": 9,
		"type": "channel",
		"subtype": "noteOff",
		"noteNumber": 42,
		"velocity": 0,
		"time": 231420,
		"track": 5
	},
	{
		"deltaTime": 60,
		"channel": 9,
		"type": "channel",
		"noteNumber": 42,
		"velocity": 127,
		"subtype": "noteOn",
		"time": 231480,
		"track": 5
	},
	{
		"deltaTime": 60,
		"channel": 9,
		"type": "channel",
		"subtype": "noteOff",
		"noteNumber": 42,
		"velocity": 0,
		"time": 231540,
		"track": 5
	},
	{
		"deltaTime": 0,
		"channel": 9,
		"type": "channel",
		"noteNumber": 42,
		"velocity": 127,
		"subtype": "noteOn",
		"time": 231600,
		"track": 5
	},
	{
		"deltaTime": 0,
		"channel": 9,
		"type": "channel",
		"noteNumber": 36,
		"velocity": 127,
		"subtype": "noteOn",
		"time": 231600,
		"track": 5
	},
	{
		"deltaTime": 60,
		"channel": 9,
		"type": "channel",
		"noteNumber": 35,
		"velocity": 127,
		"subtype": "noteOn",
		"time": 231600,
		"track": 5
	},
	{
		"deltaTime": 0,
		"channel": 9,
		"type": "channel",
		"subtype": "noteOff",
		"noteNumber": 35,
		"velocity": 0,
		"time": 231660,
		"track": 5
	},
	{
		"deltaTime": 0,
		"channel": 9,
		"type": "channel",
		"subtype": "noteOff",
		"noteNumber": 36,
		"velocity": 0,
		"time": 231660,
		"track": 5
	},
	{
		"deltaTime": 60,
		"channel": 9,
		"type": "channel",
		"subtype": "noteOff",
		"noteNumber": 42,
		"velocity": 0,
		"time": 231660,
		"track": 5
	},
	{
		"deltaTime": 0,
		"channel": 2,
		"type": "channel",
		"subtype": "noteOff",
		"noteNumber": 47,
		"velocity": 0,
		"time": 231720,
		"track": 4
	},
	{
		"deltaTime": 0,
		"channel": 2,
		"type": "channel",
		"noteNumber": 61,
		"velocity": 127,
		"subtype": "noteOn",
		"time": 231720,
		"track": 4
	},
	{
		"deltaTime": 0,
		"channel": 2,
		"type": "channel",
		"noteNumber": 66,
		"velocity": 127,
		"subtype": "noteOn",
		"time": 231720,
		"track": 4
	},
	{
		"deltaTime": 0,
		"channel": 2,
		"type": "channel",
		"noteNumber": 70,
		"velocity": 127,
		"subtype": "noteOn",
		"time": 231720,
		"track": 4
	},
	{
		"deltaTime": 60,
		"channel": 9,
		"type": "channel",
		"noteNumber": 42,
		"velocity": 127,
		"subtype": "noteOn",
		"time": 231720,
		"track": 5
	},
	{
		"deltaTime": 60,
		"channel": 9,
		"type": "channel",
		"subtype": "noteOff",
		"noteNumber": 42,
		"velocity": 0,
		"time": 231780,
		"track": 5
	},
	{
		"deltaTime": 0,
		"channel": 0,
		"type": "channel",
		"subtype": "noteOff",
		"noteNumber": 35,
		"velocity": 0,
		"time": 231840,
		"track": 2
	},
	{
		"deltaTime": 0,
		"channel": 0,
		"type": "channel",
		"noteNumber": 34,
		"velocity": 127,
		"subtype": "noteOn",
		"time": 231840,
		"track": 2
	},
	{
		"deltaTime": 0,
		"channel": 9,
		"type": "channel",
		"noteNumber": 42,
		"velocity": 127,
		"subtype": "noteOn",
		"time": 231840,
		"track": 5
	},
	{
		"deltaTime": 0,
		"channel": 9,
		"type": "channel",
		"noteNumber": 40,
		"velocity": 127,
		"subtype": "noteOn",
		"time": 231840,
		"track": 5
	},
	{
		"deltaTime": 60,
		"channel": 9,
		"type": "channel",
		"noteNumber": 38,
		"velocity": 127,
		"subtype": "noteOn",
		"time": 231840,
		"track": 5
	},
	{
		"deltaTime": 0,
		"channel": 9,
		"type": "channel",
		"subtype": "noteOff",
		"noteNumber": 38,
		"velocity": 0,
		"time": 231900,
		"track": 5
	},
	{
		"deltaTime": 0,
		"channel": 9,
		"type": "channel",
		"subtype": "noteOff",
		"noteNumber": 40,
		"velocity": 0,
		"time": 231900,
		"track": 5
	},
	{
		"deltaTime": 60,
		"channel": 9,
		"type": "channel",
		"subtype": "noteOff",
		"noteNumber": 42,
		"velocity": 0,
		"time": 231900,
		"track": 5
	},
	{
		"deltaTime": 0,
		"channel": 2,
		"type": "channel",
		"subtype": "noteOff",
		"noteNumber": 70,
		"velocity": 0,
		"time": 231960,
		"track": 4
	},
	{
		"deltaTime": 0,
		"channel": 2,
		"type": "channel",
		"subtype": "noteOff",
		"noteNumber": 66,
		"velocity": 0,
		"time": 231960,
		"track": 4
	},
	{
		"deltaTime": 0,
		"channel": 2,
		"type": "channel",
		"subtype": "noteOff",
		"noteNumber": 61,
		"velocity": 0,
		"time": 231960,
		"track": 4
	},
	{
		"deltaTime": 0,
		"channel": 2,
		"type": "channel",
		"noteNumber": 61,
		"velocity": 127,
		"subtype": "noteOn",
		"time": 231960,
		"track": 4
	},
	{
		"deltaTime": 0,
		"channel": 2,
		"type": "channel",
		"noteNumber": 66,
		"velocity": 127,
		"subtype": "noteOn",
		"time": 231960,
		"track": 4
	},
	{
		"deltaTime": 0,
		"channel": 2,
		"type": "channel",
		"noteNumber": 71,
		"velocity": 127,
		"subtype": "noteOn",
		"time": 231960,
		"track": 4
	},
	{
		"deltaTime": 60,
		"channel": 9,
		"type": "channel",
		"noteNumber": 42,
		"velocity": 127,
		"subtype": "noteOn",
		"time": 231960,
		"track": 5
	},
	{
		"deltaTime": 60,
		"channel": 9,
		"type": "channel",
		"subtype": "noteOff",
		"noteNumber": 42,
		"velocity": 0,
		"time": 232020,
		"track": 5
	},
	{
		"deltaTime": 60,
		"channel": 9,
		"type": "channel",
		"noteNumber": 42,
		"velocity": 127,
		"subtype": "noteOn",
		"time": 232080,
		"track": 5
	},
	{
		"deltaTime": 60,
		"channel": 9,
		"type": "channel",
		"subtype": "noteOff",
		"noteNumber": 42,
		"velocity": 0,
		"time": 232140,
		"track": 5
	},
	{
		"deltaTime": 60,
		"channel": 9,
		"type": "channel",
		"noteNumber": 42,
		"velocity": 127,
		"subtype": "noteOn",
		"time": 232200,
		"track": 5
	},
	{
		"deltaTime": 60,
		"channel": 9,
		"type": "channel",
		"subtype": "noteOff",
		"noteNumber": 42,
		"velocity": 0,
		"time": 232260,
		"track": 5
	},
	{
		"deltaTime": 0,
		"channel": 0,
		"type": "channel",
		"subtype": "noteOff",
		"noteNumber": 34,
		"velocity": 0,
		"time": 232320,
		"track": 2
	},
	{
		"deltaTime": 0,
		"channel": 0,
		"type": "channel",
		"noteNumber": 32,
		"velocity": 127,
		"subtype": "noteOn",
		"time": 232320,
		"track": 2
	},
	{
		"deltaTime": 0,
		"channel": 2,
		"type": "channel",
		"subtype": "noteOff",
		"noteNumber": 71,
		"velocity": 0,
		"time": 232320,
		"track": 4
	},
	{
		"deltaTime": 0,
		"channel": 2,
		"type": "channel",
		"subtype": "noteOff",
		"noteNumber": 66,
		"velocity": 0,
		"time": 232320,
		"track": 4
	},
	{
		"deltaTime": 0,
		"channel": 2,
		"type": "channel",
		"subtype": "noteOff",
		"noteNumber": 61,
		"velocity": 0,
		"time": 232320,
		"track": 4
	},
	{
		"deltaTime": 0,
		"channel": 2,
		"type": "channel",
		"noteNumber": 44,
		"velocity": 127,
		"subtype": "noteOn",
		"time": 232320,
		"track": 4
	},
	{
		"deltaTime": 0,
		"channel": 9,
		"type": "channel",
		"noteNumber": 42,
		"velocity": 127,
		"subtype": "noteOn",
		"time": 232320,
		"track": 5
	},
	{
		"deltaTime": 0,
		"channel": 9,
		"type": "channel",
		"noteNumber": 35,
		"velocity": 127,
		"subtype": "noteOn",
		"time": 232320,
		"track": 5
	},
	{
		"deltaTime": 60,
		"channel": 9,
		"type": "channel",
		"noteNumber": 36,
		"velocity": 127,
		"subtype": "noteOn",
		"time": 232320,
		"track": 5
	},
	{
		"deltaTime": 0,
		"channel": 9,
		"type": "channel",
		"subtype": "noteOff",
		"noteNumber": 36,
		"velocity": 0,
		"time": 232380,
		"track": 5
	},
	{
		"deltaTime": 0,
		"channel": 9,
		"type": "channel",
		"subtype": "noteOff",
		"noteNumber": 35,
		"velocity": 0,
		"time": 232380,
		"track": 5
	},
	{
		"deltaTime": 60,
		"channel": 9,
		"type": "channel",
		"subtype": "noteOff",
		"noteNumber": 42,
		"velocity": 0,
		"time": 232380,
		"track": 5
	},
	{
		"deltaTime": 60,
		"channel": 9,
		"type": "channel",
		"noteNumber": 42,
		"velocity": 127,
		"subtype": "noteOn",
		"time": 232440,
		"track": 5
	},
	{
		"deltaTime": 60,
		"channel": 9,
		"type": "channel",
		"subtype": "noteOff",
		"noteNumber": 42,
		"velocity": 0,
		"time": 232500,
		"track": 5
	},
	{
		"deltaTime": 0,
		"channel": 9,
		"type": "channel",
		"noteNumber": 42,
		"velocity": 127,
		"subtype": "noteOn",
		"time": 232560,
		"track": 5
	},
	{
		"deltaTime": 0,
		"channel": 9,
		"type": "channel",
		"noteNumber": 36,
		"velocity": 127,
		"subtype": "noteOn",
		"time": 232560,
		"track": 5
	},
	{
		"deltaTime": 60,
		"channel": 9,
		"type": "channel",
		"noteNumber": 35,
		"velocity": 127,
		"subtype": "noteOn",
		"time": 232560,
		"track": 5
	},
	{
		"deltaTime": 0,
		"channel": 9,
		"type": "channel",
		"subtype": "noteOff",
		"noteNumber": 35,
		"velocity": 0,
		"time": 232620,
		"track": 5
	},
	{
		"deltaTime": 0,
		"channel": 9,
		"type": "channel",
		"subtype": "noteOff",
		"noteNumber": 36,
		"velocity": 0,
		"time": 232620,
		"track": 5
	},
	{
		"deltaTime": 60,
		"channel": 9,
		"type": "channel",
		"subtype": "noteOff",
		"noteNumber": 42,
		"velocity": 0,
		"time": 232620,
		"track": 5
	},
	{
		"deltaTime": 0,
		"channel": 2,
		"type": "channel",
		"subtype": "noteOff",
		"noteNumber": 44,
		"velocity": 0,
		"time": 232680,
		"track": 4
	},
	{
		"deltaTime": 0,
		"channel": 2,
		"type": "channel",
		"noteNumber": 59,
		"velocity": 127,
		"subtype": "noteOn",
		"time": 232680,
		"track": 4
	},
	{
		"deltaTime": 0,
		"channel": 2,
		"type": "channel",
		"noteNumber": 63,
		"velocity": 127,
		"subtype": "noteOn",
		"time": 232680,
		"track": 4
	},
	{
		"deltaTime": 0,
		"channel": 2,
		"type": "channel",
		"noteNumber": 68,
		"velocity": 127,
		"subtype": "noteOn",
		"time": 232680,
		"track": 4
	},
	{
		"deltaTime": 60,
		"channel": 9,
		"type": "channel",
		"noteNumber": 42,
		"velocity": 127,
		"subtype": "noteOn",
		"time": 232680,
		"track": 5
	},
	{
		"deltaTime": 60,
		"channel": 9,
		"type": "channel",
		"subtype": "noteOff",
		"noteNumber": 42,
		"velocity": 0,
		"time": 232740,
		"track": 5
	},
	{
		"deltaTime": 0,
		"channel": 9,
		"type": "channel",
		"noteNumber": 42,
		"velocity": 127,
		"subtype": "noteOn",
		"time": 232800,
		"track": 5
	},
	{
		"deltaTime": 0,
		"channel": 9,
		"type": "channel",
		"noteNumber": 38,
		"velocity": 127,
		"subtype": "noteOn",
		"time": 232800,
		"track": 5
	},
	{
		"deltaTime": 60,
		"channel": 9,
		"type": "channel",
		"noteNumber": 40,
		"velocity": 127,
		"subtype": "noteOn",
		"time": 232800,
		"track": 5
	},
	{
		"deltaTime": 0,
		"channel": 9,
		"type": "channel",
		"subtype": "noteOff",
		"noteNumber": 40,
		"velocity": 0,
		"time": 232860,
		"track": 5
	},
	{
		"deltaTime": 0,
		"channel": 9,
		"type": "channel",
		"subtype": "noteOff",
		"noteNumber": 38,
		"velocity": 0,
		"time": 232860,
		"track": 5
	},
	{
		"deltaTime": 60,
		"channel": 9,
		"type": "channel",
		"subtype": "noteOff",
		"noteNumber": 42,
		"velocity": 0,
		"time": 232860,
		"track": 5
	},
	{
		"deltaTime": 0,
		"channel": 2,
		"type": "channel",
		"subtype": "noteOff",
		"noteNumber": 68,
		"velocity": 0,
		"time": 232920,
		"track": 4
	},
	{
		"deltaTime": 0,
		"channel": 2,
		"type": "channel",
		"subtype": "noteOff",
		"noteNumber": 63,
		"velocity": 0,
		"time": 232920,
		"track": 4
	},
	{
		"deltaTime": 0,
		"channel": 2,
		"type": "channel",
		"subtype": "noteOff",
		"noteNumber": 59,
		"velocity": 0,
		"time": 232920,
		"track": 4
	},
	{
		"deltaTime": 0,
		"channel": 2,
		"type": "channel",
		"noteNumber": 59,
		"velocity": 127,
		"subtype": "noteOn",
		"time": 232920,
		"track": 4
	},
	{
		"deltaTime": 0,
		"channel": 2,
		"type": "channel",
		"noteNumber": 63,
		"velocity": 127,
		"subtype": "noteOn",
		"time": 232920,
		"track": 4
	},
	{
		"deltaTime": 0,
		"channel": 2,
		"type": "channel",
		"noteNumber": 68,
		"velocity": 127,
		"subtype": "noteOn",
		"time": 232920,
		"track": 4
	},
	{
		"deltaTime": 60,
		"channel": 9,
		"type": "channel",
		"noteNumber": 42,
		"velocity": 127,
		"subtype": "noteOn",
		"time": 232920,
		"track": 5
	},
	{
		"deltaTime": 60,
		"channel": 9,
		"type": "channel",
		"subtype": "noteOff",
		"noteNumber": 42,
		"velocity": 0,
		"time": 232980,
		"track": 5
	},
	{
		"deltaTime": 60,
		"channel": 9,
		"type": "channel",
		"noteNumber": 42,
		"velocity": 127,
		"subtype": "noteOn",
		"time": 233040,
		"track": 5
	},
	{
		"deltaTime": 60,
		"channel": 9,
		"type": "channel",
		"subtype": "noteOff",
		"noteNumber": 42,
		"velocity": 0,
		"time": 233100,
		"track": 5
	},
	{
		"deltaTime": 0,
		"channel": 9,
		"type": "channel",
		"noteNumber": 42,
		"velocity": 127,
		"subtype": "noteOn",
		"time": 233160,
		"track": 5
	},
	{
		"deltaTime": 0,
		"channel": 9,
		"type": "channel",
		"noteNumber": 36,
		"velocity": 127,
		"subtype": "noteOn",
		"time": 233160,
		"track": 5
	},
	{
		"deltaTime": 60,
		"channel": 9,
		"type": "channel",
		"noteNumber": 35,
		"velocity": 127,
		"subtype": "noteOn",
		"time": 233160,
		"track": 5
	},
	{
		"deltaTime": 0,
		"channel": 9,
		"type": "channel",
		"subtype": "noteOff",
		"noteNumber": 35,
		"velocity": 0,
		"time": 233220,
		"track": 5
	},
	{
		"deltaTime": 0,
		"channel": 9,
		"type": "channel",
		"subtype": "noteOff",
		"noteNumber": 36,
		"velocity": 0,
		"time": 233220,
		"track": 5
	},
	{
		"deltaTime": 60,
		"channel": 9,
		"type": "channel",
		"subtype": "noteOff",
		"noteNumber": 42,
		"velocity": 0,
		"time": 233220,
		"track": 5
	},
	{
		"deltaTime": 0,
		"channel": 0,
		"type": "channel",
		"subtype": "noteOff",
		"noteNumber": 32,
		"velocity": 0,
		"time": 233280,
		"track": 2
	},
	{
		"deltaTime": 0,
		"channel": 0,
		"type": "channel",
		"noteNumber": 40,
		"velocity": 127,
		"subtype": "noteOn",
		"time": 233280,
		"track": 2
	},
	{
		"deltaTime": 0,
		"channel": 2,
		"type": "channel",
		"subtype": "noteOff",
		"noteNumber": 68,
		"velocity": 0,
		"time": 233280,
		"track": 4
	},
	{
		"deltaTime": 0,
		"channel": 2,
		"type": "channel",
		"subtype": "noteOff",
		"noteNumber": 63,
		"velocity": 0,
		"time": 233280,
		"track": 4
	},
	{
		"deltaTime": 0,
		"channel": 2,
		"type": "channel",
		"subtype": "noteOff",
		"noteNumber": 59,
		"velocity": 0,
		"time": 233280,
		"track": 4
	},
	{
		"deltaTime": 0,
		"channel": 2,
		"type": "channel",
		"noteNumber": 40,
		"velocity": 127,
		"subtype": "noteOn",
		"time": 233280,
		"track": 4
	},
	{
		"deltaTime": 60,
		"channel": 9,
		"type": "channel",
		"noteNumber": 42,
		"velocity": 127,
		"subtype": "noteOn",
		"time": 233280,
		"track": 5
	},
	{
		"deltaTime": 60,
		"channel": 9,
		"type": "channel",
		"subtype": "noteOff",
		"noteNumber": 42,
		"velocity": 0,
		"time": 233340,
		"track": 5
	},
	{
		"deltaTime": 60,
		"channel": 9,
		"type": "channel",
		"noteNumber": 42,
		"velocity": 127,
		"subtype": "noteOn",
		"time": 233400,
		"track": 5
	},
	{
		"deltaTime": 60,
		"channel": 9,
		"type": "channel",
		"subtype": "noteOff",
		"noteNumber": 42,
		"velocity": 0,
		"time": 233460,
		"track": 5
	},
	{
		"deltaTime": 0,
		"channel": 9,
		"type": "channel",
		"noteNumber": 42,
		"velocity": 127,
		"subtype": "noteOn",
		"time": 233520,
		"track": 5
	},
	{
		"deltaTime": 0,
		"channel": 9,
		"type": "channel",
		"noteNumber": 36,
		"velocity": 127,
		"subtype": "noteOn",
		"time": 233520,
		"track": 5
	},
	{
		"deltaTime": 60,
		"channel": 9,
		"type": "channel",
		"noteNumber": 35,
		"velocity": 127,
		"subtype": "noteOn",
		"time": 233520,
		"track": 5
	},
	{
		"deltaTime": 0,
		"channel": 9,
		"type": "channel",
		"subtype": "noteOff",
		"noteNumber": 35,
		"velocity": 0,
		"time": 233580,
		"track": 5
	},
	{
		"deltaTime": 0,
		"channel": 9,
		"type": "channel",
		"subtype": "noteOff",
		"noteNumber": 36,
		"velocity": 0,
		"time": 233580,
		"track": 5
	},
	{
		"deltaTime": 60,
		"channel": 9,
		"type": "channel",
		"subtype": "noteOff",
		"noteNumber": 42,
		"velocity": 0,
		"time": 233580,
		"track": 5
	},
	{
		"deltaTime": 0,
		"channel": 2,
		"type": "channel",
		"subtype": "noteOff",
		"noteNumber": 40,
		"velocity": 0,
		"time": 233640,
		"track": 4
	},
	{
		"deltaTime": 0,
		"channel": 2,
		"type": "channel",
		"noteNumber": 59,
		"velocity": 127,
		"subtype": "noteOn",
		"time": 233640,
		"track": 4
	},
	{
		"deltaTime": 0,
		"channel": 2,
		"type": "channel",
		"noteNumber": 63,
		"velocity": 127,
		"subtype": "noteOn",
		"time": 233640,
		"track": 4
	},
	{
		"deltaTime": 0,
		"channel": 2,
		"type": "channel",
		"noteNumber": 68,
		"velocity": 127,
		"subtype": "noteOn",
		"time": 233640,
		"track": 4
	},
	{
		"deltaTime": 60,
		"channel": 9,
		"type": "channel",
		"noteNumber": 42,
		"velocity": 127,
		"subtype": "noteOn",
		"time": 233640,
		"track": 5
	},
	{
		"deltaTime": 60,
		"channel": 9,
		"type": "channel",
		"subtype": "noteOff",
		"noteNumber": 42,
		"velocity": 0,
		"time": 233700,
		"track": 5
	},
	{
		"deltaTime": 0,
		"channel": 9,
		"type": "channel",
		"noteNumber": 42,
		"velocity": 127,
		"subtype": "noteOn",
		"time": 233760,
		"track": 5
	},
	{
		"deltaTime": 0,
		"channel": 9,
		"type": "channel",
		"noteNumber": 40,
		"velocity": 127,
		"subtype": "noteOn",
		"time": 233760,
		"track": 5
	},
	{
		"deltaTime": 60,
		"channel": 9,
		"type": "channel",
		"noteNumber": 38,
		"velocity": 127,
		"subtype": "noteOn",
		"time": 233760,
		"track": 5
	},
	{
		"deltaTime": 0,
		"channel": 9,
		"type": "channel",
		"subtype": "noteOff",
		"noteNumber": 38,
		"velocity": 0,
		"time": 233820,
		"track": 5
	},
	{
		"deltaTime": 0,
		"channel": 9,
		"type": "channel",
		"subtype": "noteOff",
		"noteNumber": 40,
		"velocity": 0,
		"time": 233820,
		"track": 5
	},
	{
		"deltaTime": 60,
		"channel": 9,
		"type": "channel",
		"subtype": "noteOff",
		"noteNumber": 42,
		"velocity": 0,
		"time": 233820,
		"track": 5
	},
	{
		"deltaTime": 0,
		"channel": 2,
		"type": "channel",
		"subtype": "noteOff",
		"noteNumber": 68,
		"velocity": 0,
		"time": 233880,
		"track": 4
	},
	{
		"deltaTime": 0,
		"channel": 2,
		"type": "channel",
		"subtype": "noteOff",
		"noteNumber": 63,
		"velocity": 0,
		"time": 233880,
		"track": 4
	},
	{
		"deltaTime": 0,
		"channel": 2,
		"type": "channel",
		"subtype": "noteOff",
		"noteNumber": 59,
		"velocity": 0,
		"time": 233880,
		"track": 4
	},
	{
		"deltaTime": 0,
		"channel": 2,
		"type": "channel",
		"noteNumber": 59,
		"velocity": 127,
		"subtype": "noteOn",
		"time": 233880,
		"track": 4
	},
	{
		"deltaTime": 0,
		"channel": 2,
		"type": "channel",
		"noteNumber": 63,
		"velocity": 127,
		"subtype": "noteOn",
		"time": 233880,
		"track": 4
	},
	{
		"deltaTime": 0,
		"channel": 2,
		"type": "channel",
		"noteNumber": 68,
		"velocity": 127,
		"subtype": "noteOn",
		"time": 233880,
		"track": 4
	},
	{
		"deltaTime": 60,
		"channel": 9,
		"type": "channel",
		"noteNumber": 42,
		"velocity": 127,
		"subtype": "noteOn",
		"time": 233880,
		"track": 5
	},
	{
		"deltaTime": 60,
		"channel": 9,
		"type": "channel",
		"subtype": "noteOff",
		"noteNumber": 42,
		"velocity": 0,
		"time": 233940,
		"track": 5
	},
	{
		"deltaTime": 60,
		"channel": 9,
		"type": "channel",
		"noteNumber": 42,
		"velocity": 127,
		"subtype": "noteOn",
		"time": 234000,
		"track": 5
	},
	{
		"deltaTime": 60,
		"channel": 9,
		"type": "channel",
		"subtype": "noteOff",
		"noteNumber": 42,
		"velocity": 0,
		"time": 234060,
		"track": 5
	},
	{
		"deltaTime": 60,
		"channel": 9,
		"type": "channel",
		"noteNumber": 42,
		"velocity": 127,
		"subtype": "noteOn",
		"time": 234120,
		"track": 5
	},
	{
		"deltaTime": 60,
		"channel": 9,
		"type": "channel",
		"subtype": "noteOff",
		"noteNumber": 42,
		"velocity": 0,
		"time": 234180,
		"track": 5
	},
	{
		"deltaTime": 0,
		"channel": 0,
		"type": "channel",
		"subtype": "noteOff",
		"noteNumber": 40,
		"velocity": 0,
		"time": 234240,
		"track": 2
	},
	{
		"deltaTime": 0,
		"channel": 0,
		"type": "channel",
		"noteNumber": 42,
		"velocity": 127,
		"subtype": "noteOn",
		"time": 234240,
		"track": 2
	},
	{
		"deltaTime": 0,
		"channel": 2,
		"type": "channel",
		"subtype": "noteOff",
		"noteNumber": 68,
		"velocity": 0,
		"time": 234240,
		"track": 4
	},
	{
		"deltaTime": 0,
		"channel": 2,
		"type": "channel",
		"subtype": "noteOff",
		"noteNumber": 63,
		"velocity": 0,
		"time": 234240,
		"track": 4
	},
	{
		"deltaTime": 0,
		"channel": 2,
		"type": "channel",
		"subtype": "noteOff",
		"noteNumber": 59,
		"velocity": 0,
		"time": 234240,
		"track": 4
	},
	{
		"deltaTime": 0,
		"channel": 2,
		"type": "channel",
		"noteNumber": 42,
		"velocity": 127,
		"subtype": "noteOn",
		"time": 234240,
		"track": 4
	},
	{
		"deltaTime": 0,
		"channel": 9,
		"type": "channel",
		"noteNumber": 42,
		"velocity": 127,
		"subtype": "noteOn",
		"time": 234240,
		"track": 5
	},
	{
		"deltaTime": 0,
		"channel": 9,
		"type": "channel",
		"noteNumber": 35,
		"velocity": 127,
		"subtype": "noteOn",
		"time": 234240,
		"track": 5
	},
	{
		"deltaTime": 60,
		"channel": 9,
		"type": "channel",
		"noteNumber": 36,
		"velocity": 127,
		"subtype": "noteOn",
		"time": 234240,
		"track": 5
	},
	{
		"deltaTime": 0,
		"channel": 9,
		"type": "channel",
		"subtype": "noteOff",
		"noteNumber": 36,
		"velocity": 0,
		"time": 234300,
		"track": 5
	},
	{
		"deltaTime": 0,
		"channel": 9,
		"type": "channel",
		"subtype": "noteOff",
		"noteNumber": 35,
		"velocity": 0,
		"time": 234300,
		"track": 5
	},
	{
		"deltaTime": 60,
		"channel": 9,
		"type": "channel",
		"subtype": "noteOff",
		"noteNumber": 42,
		"velocity": 0,
		"time": 234300,
		"track": 5
	},
	{
		"deltaTime": 60,
		"channel": 9,
		"type": "channel",
		"noteNumber": 42,
		"velocity": 127,
		"subtype": "noteOn",
		"time": 234360,
		"track": 5
	},
	{
		"deltaTime": 60,
		"channel": 9,
		"type": "channel",
		"subtype": "noteOff",
		"noteNumber": 42,
		"velocity": 0,
		"time": 234420,
		"track": 5
	},
	{
		"deltaTime": 0,
		"channel": 9,
		"type": "channel",
		"noteNumber": 42,
		"velocity": 127,
		"subtype": "noteOn",
		"time": 234480,
		"track": 5
	},
	{
		"deltaTime": 0,
		"channel": 9,
		"type": "channel",
		"noteNumber": 36,
		"velocity": 127,
		"subtype": "noteOn",
		"time": 234480,
		"track": 5
	},
	{
		"deltaTime": 60,
		"channel": 9,
		"type": "channel",
		"noteNumber": 35,
		"velocity": 127,
		"subtype": "noteOn",
		"time": 234480,
		"track": 5
	},
	{
		"deltaTime": 0,
		"channel": 9,
		"type": "channel",
		"subtype": "noteOff",
		"noteNumber": 35,
		"velocity": 0,
		"time": 234540,
		"track": 5
	},
	{
		"deltaTime": 0,
		"channel": 9,
		"type": "channel",
		"subtype": "noteOff",
		"noteNumber": 36,
		"velocity": 0,
		"time": 234540,
		"track": 5
	},
	{
		"deltaTime": 60,
		"channel": 9,
		"type": "channel",
		"subtype": "noteOff",
		"noteNumber": 42,
		"velocity": 0,
		"time": 234540,
		"track": 5
	},
	{
		"deltaTime": 0,
		"channel": 2,
		"type": "channel",
		"subtype": "noteOff",
		"noteNumber": 42,
		"velocity": 0,
		"time": 234600,
		"track": 4
	},
	{
		"deltaTime": 0,
		"channel": 2,
		"type": "channel",
		"noteNumber": 61,
		"velocity": 127,
		"subtype": "noteOn",
		"time": 234600,
		"track": 4
	},
	{
		"deltaTime": 0,
		"channel": 2,
		"type": "channel",
		"noteNumber": 66,
		"velocity": 127,
		"subtype": "noteOn",
		"time": 234600,
		"track": 4
	},
	{
		"deltaTime": 0,
		"channel": 2,
		"type": "channel",
		"noteNumber": 70,
		"velocity": 127,
		"subtype": "noteOn",
		"time": 234600,
		"track": 4
	},
	{
		"deltaTime": 60,
		"channel": 9,
		"type": "channel",
		"noteNumber": 42,
		"velocity": 127,
		"subtype": "noteOn",
		"time": 234600,
		"track": 5
	},
	{
		"deltaTime": 60,
		"channel": 9,
		"type": "channel",
		"subtype": "noteOff",
		"noteNumber": 42,
		"velocity": 0,
		"time": 234660,
		"track": 5
	},
	{
		"deltaTime": 0,
		"channel": 9,
		"type": "channel",
		"noteNumber": 42,
		"velocity": 127,
		"subtype": "noteOn",
		"time": 234720,
		"track": 5
	},
	{
		"deltaTime": 0,
		"channel": 9,
		"type": "channel",
		"noteNumber": 38,
		"velocity": 127,
		"subtype": "noteOn",
		"time": 234720,
		"track": 5
	},
	{
		"deltaTime": 60,
		"channel": 9,
		"type": "channel",
		"noteNumber": 40,
		"velocity": 127,
		"subtype": "noteOn",
		"time": 234720,
		"track": 5
	},
	{
		"deltaTime": 0,
		"channel": 9,
		"type": "channel",
		"subtype": "noteOff",
		"noteNumber": 40,
		"velocity": 0,
		"time": 234780,
		"track": 5
	},
	{
		"deltaTime": 0,
		"channel": 9,
		"type": "channel",
		"subtype": "noteOff",
		"noteNumber": 38,
		"velocity": 0,
		"time": 234780,
		"track": 5
	},
	{
		"deltaTime": 60,
		"channel": 9,
		"type": "channel",
		"subtype": "noteOff",
		"noteNumber": 42,
		"velocity": 0,
		"time": 234780,
		"track": 5
	},
	{
		"deltaTime": 0,
		"channel": 2,
		"type": "channel",
		"subtype": "noteOff",
		"noteNumber": 70,
		"velocity": 0,
		"time": 234840,
		"track": 4
	},
	{
		"deltaTime": 0,
		"channel": 2,
		"type": "channel",
		"subtype": "noteOff",
		"noteNumber": 66,
		"velocity": 0,
		"time": 234840,
		"track": 4
	},
	{
		"deltaTime": 0,
		"channel": 2,
		"type": "channel",
		"subtype": "noteOff",
		"noteNumber": 61,
		"velocity": 0,
		"time": 234840,
		"track": 4
	},
	{
		"deltaTime": 0,
		"channel": 2,
		"type": "channel",
		"noteNumber": 61,
		"velocity": 127,
		"subtype": "noteOn",
		"time": 234840,
		"track": 4
	},
	{
		"deltaTime": 0,
		"channel": 2,
		"type": "channel",
		"noteNumber": 66,
		"velocity": 127,
		"subtype": "noteOn",
		"time": 234840,
		"track": 4
	},
	{
		"deltaTime": 0,
		"channel": 2,
		"type": "channel",
		"noteNumber": 70,
		"velocity": 127,
		"subtype": "noteOn",
		"time": 234840,
		"track": 4
	},
	{
		"deltaTime": 60,
		"channel": 9,
		"type": "channel",
		"noteNumber": 42,
		"velocity": 127,
		"subtype": "noteOn",
		"time": 234840,
		"track": 5
	},
	{
		"deltaTime": 60,
		"channel": 9,
		"type": "channel",
		"subtype": "noteOff",
		"noteNumber": 42,
		"velocity": 0,
		"time": 234900,
		"track": 5
	},
	{
		"deltaTime": 60,
		"channel": 9,
		"type": "channel",
		"noteNumber": 42,
		"velocity": 127,
		"subtype": "noteOn",
		"time": 234960,
		"track": 5
	},
	{
		"deltaTime": 60,
		"channel": 9,
		"type": "channel",
		"subtype": "noteOff",
		"noteNumber": 42,
		"velocity": 0,
		"time": 235020,
		"track": 5
	},
	{
		"deltaTime": 0,
		"channel": 9,
		"type": "channel",
		"noteNumber": 42,
		"velocity": 127,
		"subtype": "noteOn",
		"time": 235080,
		"track": 5
	},
	{
		"deltaTime": 0,
		"channel": 9,
		"type": "channel",
		"noteNumber": 36,
		"velocity": 127,
		"subtype": "noteOn",
		"time": 235080,
		"track": 5
	},
	{
		"deltaTime": 60,
		"channel": 9,
		"type": "channel",
		"noteNumber": 35,
		"velocity": 127,
		"subtype": "noteOn",
		"time": 235080,
		"track": 5
	},
	{
		"deltaTime": 0,
		"channel": 9,
		"type": "channel",
		"subtype": "noteOff",
		"noteNumber": 35,
		"velocity": 0,
		"time": 235140,
		"track": 5
	},
	{
		"deltaTime": 0,
		"channel": 9,
		"type": "channel",
		"subtype": "noteOff",
		"noteNumber": 36,
		"velocity": 0,
		"time": 235140,
		"track": 5
	},
	{
		"deltaTime": 60,
		"channel": 9,
		"type": "channel",
		"subtype": "noteOff",
		"noteNumber": 42,
		"velocity": 0,
		"time": 235140,
		"track": 5
	},
	{
		"deltaTime": 0,
		"channel": 0,
		"type": "channel",
		"subtype": "noteOff",
		"noteNumber": 42,
		"velocity": 0,
		"time": 235200,
		"track": 2
	},
	{
		"deltaTime": 0,
		"channel": 0,
		"type": "channel",
		"noteNumber": 35,
		"velocity": 127,
		"subtype": "noteOn",
		"time": 235200,
		"track": 2
	},
	{
		"deltaTime": 0,
		"channel": 2,
		"type": "channel",
		"subtype": "noteOff",
		"noteNumber": 70,
		"velocity": 0,
		"time": 235200,
		"track": 4
	},
	{
		"deltaTime": 0,
		"channel": 2,
		"type": "channel",
		"subtype": "noteOff",
		"noteNumber": 66,
		"velocity": 0,
		"time": 235200,
		"track": 4
	},
	{
		"deltaTime": 0,
		"channel": 2,
		"type": "channel",
		"subtype": "noteOff",
		"noteNumber": 61,
		"velocity": 0,
		"time": 235200,
		"track": 4
	},
	{
		"deltaTime": 0,
		"channel": 2,
		"type": "channel",
		"noteNumber": 47,
		"velocity": 127,
		"subtype": "noteOn",
		"time": 235200,
		"track": 4
	},
	{
		"deltaTime": 60,
		"channel": 9,
		"type": "channel",
		"noteNumber": 42,
		"velocity": 127,
		"subtype": "noteOn",
		"time": 235200,
		"track": 5
	},
	{
		"deltaTime": 60,
		"channel": 9,
		"type": "channel",
		"subtype": "noteOff",
		"noteNumber": 42,
		"velocity": 0,
		"time": 235260,
		"track": 5
	},
	{
		"deltaTime": 60,
		"channel": 9,
		"type": "channel",
		"noteNumber": 42,
		"velocity": 127,
		"subtype": "noteOn",
		"time": 235320,
		"track": 5
	},
	{
		"deltaTime": 60,
		"channel": 9,
		"type": "channel",
		"subtype": "noteOff",
		"noteNumber": 42,
		"velocity": 0,
		"time": 235380,
		"track": 5
	},
	{
		"deltaTime": 0,
		"channel": 9,
		"type": "channel",
		"noteNumber": 42,
		"velocity": 127,
		"subtype": "noteOn",
		"time": 235440,
		"track": 5
	},
	{
		"deltaTime": 0,
		"channel": 9,
		"type": "channel",
		"noteNumber": 36,
		"velocity": 127,
		"subtype": "noteOn",
		"time": 235440,
		"track": 5
	},
	{
		"deltaTime": 60,
		"channel": 9,
		"type": "channel",
		"noteNumber": 35,
		"velocity": 127,
		"subtype": "noteOn",
		"time": 235440,
		"track": 5
	},
	{
		"deltaTime": 0,
		"channel": 9,
		"type": "channel",
		"subtype": "noteOff",
		"noteNumber": 35,
		"velocity": 0,
		"time": 235500,
		"track": 5
	},
	{
		"deltaTime": 0,
		"channel": 9,
		"type": "channel",
		"subtype": "noteOff",
		"noteNumber": 36,
		"velocity": 0,
		"time": 235500,
		"track": 5
	},
	{
		"deltaTime": 60,
		"channel": 9,
		"type": "channel",
		"subtype": "noteOff",
		"noteNumber": 42,
		"velocity": 0,
		"time": 235500,
		"track": 5
	},
	{
		"deltaTime": 0,
		"channel": 2,
		"type": "channel",
		"subtype": "noteOff",
		"noteNumber": 47,
		"velocity": 0,
		"time": 235560,
		"track": 4
	},
	{
		"deltaTime": 0,
		"channel": 2,
		"type": "channel",
		"noteNumber": 61,
		"velocity": 127,
		"subtype": "noteOn",
		"time": 235560,
		"track": 4
	},
	{
		"deltaTime": 0,
		"channel": 2,
		"type": "channel",
		"noteNumber": 66,
		"velocity": 127,
		"subtype": "noteOn",
		"time": 235560,
		"track": 4
	},
	{
		"deltaTime": 0,
		"channel": 2,
		"type": "channel",
		"noteNumber": 70,
		"velocity": 127,
		"subtype": "noteOn",
		"time": 235560,
		"track": 4
	},
	{
		"deltaTime": 60,
		"channel": 9,
		"type": "channel",
		"noteNumber": 42,
		"velocity": 127,
		"subtype": "noteOn",
		"time": 235560,
		"track": 5
	},
	{
		"deltaTime": 60,
		"channel": 9,
		"type": "channel",
		"subtype": "noteOff",
		"noteNumber": 42,
		"velocity": 0,
		"time": 235620,
		"track": 5
	},
	{
		"deltaTime": 0,
		"channel": 0,
		"type": "channel",
		"subtype": "noteOff",
		"noteNumber": 35,
		"velocity": 0,
		"time": 235680,
		"track": 2
	},
	{
		"deltaTime": 0,
		"channel": 0,
		"type": "channel",
		"noteNumber": 34,
		"velocity": 127,
		"subtype": "noteOn",
		"time": 235680,
		"track": 2
	},
	{
		"deltaTime": 0,
		"channel": 9,
		"type": "channel",
		"noteNumber": 42,
		"velocity": 127,
		"subtype": "noteOn",
		"time": 235680,
		"track": 5
	},
	{
		"deltaTime": 0,
		"channel": 9,
		"type": "channel",
		"noteNumber": 40,
		"velocity": 127,
		"subtype": "noteOn",
		"time": 235680,
		"track": 5
	},
	{
		"deltaTime": 60,
		"channel": 9,
		"type": "channel",
		"noteNumber": 38,
		"velocity": 127,
		"subtype": "noteOn",
		"time": 235680,
		"track": 5
	},
	{
		"deltaTime": 0,
		"channel": 9,
		"type": "channel",
		"subtype": "noteOff",
		"noteNumber": 38,
		"velocity": 0,
		"time": 235740,
		"track": 5
	},
	{
		"deltaTime": 0,
		"channel": 9,
		"type": "channel",
		"subtype": "noteOff",
		"noteNumber": 40,
		"velocity": 0,
		"time": 235740,
		"track": 5
	},
	{
		"deltaTime": 60,
		"channel": 9,
		"type": "channel",
		"subtype": "noteOff",
		"noteNumber": 42,
		"velocity": 0,
		"time": 235740,
		"track": 5
	},
	{
		"deltaTime": 0,
		"channel": 2,
		"type": "channel",
		"subtype": "noteOff",
		"noteNumber": 70,
		"velocity": 0,
		"time": 235800,
		"track": 4
	},
	{
		"deltaTime": 0,
		"channel": 2,
		"type": "channel",
		"subtype": "noteOff",
		"noteNumber": 66,
		"velocity": 0,
		"time": 235800,
		"track": 4
	},
	{
		"deltaTime": 0,
		"channel": 2,
		"type": "channel",
		"subtype": "noteOff",
		"noteNumber": 61,
		"velocity": 0,
		"time": 235800,
		"track": 4
	},
	{
		"deltaTime": 0,
		"channel": 2,
		"type": "channel",
		"noteNumber": 61,
		"velocity": 127,
		"subtype": "noteOn",
		"time": 235800,
		"track": 4
	},
	{
		"deltaTime": 0,
		"channel": 2,
		"type": "channel",
		"noteNumber": 66,
		"velocity": 127,
		"subtype": "noteOn",
		"time": 235800,
		"track": 4
	},
	{
		"deltaTime": 0,
		"channel": 2,
		"type": "channel",
		"noteNumber": 71,
		"velocity": 127,
		"subtype": "noteOn",
		"time": 235800,
		"track": 4
	},
	{
		"deltaTime": 60,
		"channel": 9,
		"type": "channel",
		"noteNumber": 42,
		"velocity": 127,
		"subtype": "noteOn",
		"time": 235800,
		"track": 5
	},
	{
		"deltaTime": 60,
		"channel": 9,
		"type": "channel",
		"subtype": "noteOff",
		"noteNumber": 42,
		"velocity": 0,
		"time": 235860,
		"track": 5
	},
	{
		"deltaTime": 60,
		"channel": 9,
		"type": "channel",
		"noteNumber": 42,
		"velocity": 127,
		"subtype": "noteOn",
		"time": 235920,
		"track": 5
	},
	{
		"deltaTime": 60,
		"channel": 9,
		"type": "channel",
		"subtype": "noteOff",
		"noteNumber": 42,
		"velocity": 0,
		"time": 235980,
		"track": 5
	},
	{
		"deltaTime": 60,
		"channel": 9,
		"type": "channel",
		"noteNumber": 42,
		"velocity": 127,
		"subtype": "noteOn",
		"time": 236040,
		"track": 5
	},
	{
		"deltaTime": 60,
		"channel": 9,
		"type": "channel",
		"subtype": "noteOff",
		"noteNumber": 42,
		"velocity": 0,
		"time": 236100,
		"track": 5
	},
	{
		"deltaTime": 0,
		"channel": 0,
		"type": "channel",
		"subtype": "noteOff",
		"noteNumber": 34,
		"velocity": 0,
		"time": 236160,
		"track": 2
	},
	{
		"deltaTime": 0,
		"channel": 0,
		"type": "channel",
		"noteNumber": 32,
		"velocity": 127,
		"subtype": "noteOn",
		"time": 236160,
		"track": 2
	},
	{
		"deltaTime": 0,
		"channel": 2,
		"type": "channel",
		"subtype": "noteOff",
		"noteNumber": 71,
		"velocity": 0,
		"time": 236160,
		"track": 4
	},
	{
		"deltaTime": 0,
		"channel": 2,
		"type": "channel",
		"subtype": "noteOff",
		"noteNumber": 66,
		"velocity": 0,
		"time": 236160,
		"track": 4
	},
	{
		"deltaTime": 0,
		"channel": 2,
		"type": "channel",
		"subtype": "noteOff",
		"noteNumber": 61,
		"velocity": 0,
		"time": 236160,
		"track": 4
	},
	{
		"deltaTime": 0,
		"channel": 2,
		"type": "channel",
		"noteNumber": 44,
		"velocity": 127,
		"subtype": "noteOn",
		"time": 236160,
		"track": 4
	},
	{
		"deltaTime": 0,
		"channel": 9,
		"type": "channel",
		"noteNumber": 42,
		"velocity": 127,
		"subtype": "noteOn",
		"time": 236160,
		"track": 5
	},
	{
		"deltaTime": 0,
		"channel": 9,
		"type": "channel",
		"noteNumber": 35,
		"velocity": 127,
		"subtype": "noteOn",
		"time": 236160,
		"track": 5
	},
	{
		"deltaTime": 60,
		"channel": 9,
		"type": "channel",
		"noteNumber": 36,
		"velocity": 127,
		"subtype": "noteOn",
		"time": 236160,
		"track": 5
	},
	{
		"deltaTime": 0,
		"channel": 9,
		"type": "channel",
		"subtype": "noteOff",
		"noteNumber": 36,
		"velocity": 0,
		"time": 236220,
		"track": 5
	},
	{
		"deltaTime": 0,
		"channel": 9,
		"type": "channel",
		"subtype": "noteOff",
		"noteNumber": 35,
		"velocity": 0,
		"time": 236220,
		"track": 5
	},
	{
		"deltaTime": 60,
		"channel": 9,
		"type": "channel",
		"subtype": "noteOff",
		"noteNumber": 42,
		"velocity": 0,
		"time": 236220,
		"track": 5
	},
	{
		"deltaTime": 60,
		"channel": 9,
		"type": "channel",
		"noteNumber": 42,
		"velocity": 127,
		"subtype": "noteOn",
		"time": 236280,
		"track": 5
	},
	{
		"deltaTime": 60,
		"channel": 9,
		"type": "channel",
		"subtype": "noteOff",
		"noteNumber": 42,
		"velocity": 0,
		"time": 236340,
		"track": 5
	},
	{
		"deltaTime": 0,
		"channel": 9,
		"type": "channel",
		"noteNumber": 42,
		"velocity": 127,
		"subtype": "noteOn",
		"time": 236400,
		"track": 5
	},
	{
		"deltaTime": 0,
		"channel": 9,
		"type": "channel",
		"noteNumber": 36,
		"velocity": 127,
		"subtype": "noteOn",
		"time": 236400,
		"track": 5
	},
	{
		"deltaTime": 60,
		"channel": 9,
		"type": "channel",
		"noteNumber": 35,
		"velocity": 127,
		"subtype": "noteOn",
		"time": 236400,
		"track": 5
	},
	{
		"deltaTime": 0,
		"channel": 9,
		"type": "channel",
		"subtype": "noteOff",
		"noteNumber": 35,
		"velocity": 0,
		"time": 236460,
		"track": 5
	},
	{
		"deltaTime": 0,
		"channel": 9,
		"type": "channel",
		"subtype": "noteOff",
		"noteNumber": 36,
		"velocity": 0,
		"time": 236460,
		"track": 5
	},
	{
		"deltaTime": 60,
		"channel": 9,
		"type": "channel",
		"subtype": "noteOff",
		"noteNumber": 42,
		"velocity": 0,
		"time": 236460,
		"track": 5
	},
	{
		"deltaTime": 0,
		"channel": 2,
		"type": "channel",
		"subtype": "noteOff",
		"noteNumber": 44,
		"velocity": 0,
		"time": 236520,
		"track": 4
	},
	{
		"deltaTime": 0,
		"channel": 2,
		"type": "channel",
		"noteNumber": 59,
		"velocity": 127,
		"subtype": "noteOn",
		"time": 236520,
		"track": 4
	},
	{
		"deltaTime": 0,
		"channel": 2,
		"type": "channel",
		"noteNumber": 63,
		"velocity": 127,
		"subtype": "noteOn",
		"time": 236520,
		"track": 4
	},
	{
		"deltaTime": 0,
		"channel": 2,
		"type": "channel",
		"noteNumber": 68,
		"velocity": 127,
		"subtype": "noteOn",
		"time": 236520,
		"track": 4
	},
	{
		"deltaTime": 60,
		"channel": 9,
		"type": "channel",
		"noteNumber": 42,
		"velocity": 127,
		"subtype": "noteOn",
		"time": 236520,
		"track": 5
	},
	{
		"deltaTime": 60,
		"channel": 9,
		"type": "channel",
		"subtype": "noteOff",
		"noteNumber": 42,
		"velocity": 0,
		"time": 236580,
		"track": 5
	},
	{
		"deltaTime": 0,
		"channel": 9,
		"type": "channel",
		"noteNumber": 42,
		"velocity": 127,
		"subtype": "noteOn",
		"time": 236640,
		"track": 5
	},
	{
		"deltaTime": 0,
		"channel": 9,
		"type": "channel",
		"noteNumber": 38,
		"velocity": 127,
		"subtype": "noteOn",
		"time": 236640,
		"track": 5
	},
	{
		"deltaTime": 60,
		"channel": 9,
		"type": "channel",
		"noteNumber": 40,
		"velocity": 127,
		"subtype": "noteOn",
		"time": 236640,
		"track": 5
	},
	{
		"deltaTime": 0,
		"channel": 9,
		"type": "channel",
		"subtype": "noteOff",
		"noteNumber": 40,
		"velocity": 0,
		"time": 236700,
		"track": 5
	},
	{
		"deltaTime": 0,
		"channel": 9,
		"type": "channel",
		"subtype": "noteOff",
		"noteNumber": 38,
		"velocity": 0,
		"time": 236700,
		"track": 5
	},
	{
		"deltaTime": 60,
		"channel": 9,
		"type": "channel",
		"subtype": "noteOff",
		"noteNumber": 42,
		"velocity": 0,
		"time": 236700,
		"track": 5
	},
	{
		"deltaTime": 0,
		"channel": 2,
		"type": "channel",
		"subtype": "noteOff",
		"noteNumber": 68,
		"velocity": 0,
		"time": 236760,
		"track": 4
	},
	{
		"deltaTime": 0,
		"channel": 2,
		"type": "channel",
		"subtype": "noteOff",
		"noteNumber": 63,
		"velocity": 0,
		"time": 236760,
		"track": 4
	},
	{
		"deltaTime": 0,
		"channel": 2,
		"type": "channel",
		"subtype": "noteOff",
		"noteNumber": 59,
		"velocity": 0,
		"time": 236760,
		"track": 4
	},
	{
		"deltaTime": 0,
		"channel": 2,
		"type": "channel",
		"noteNumber": 59,
		"velocity": 127,
		"subtype": "noteOn",
		"time": 236760,
		"track": 4
	},
	{
		"deltaTime": 0,
		"channel": 2,
		"type": "channel",
		"noteNumber": 63,
		"velocity": 127,
		"subtype": "noteOn",
		"time": 236760,
		"track": 4
	},
	{
		"deltaTime": 0,
		"channel": 2,
		"type": "channel",
		"noteNumber": 68,
		"velocity": 127,
		"subtype": "noteOn",
		"time": 236760,
		"track": 4
	},
	{
		"deltaTime": 60,
		"channel": 9,
		"type": "channel",
		"noteNumber": 42,
		"velocity": 127,
		"subtype": "noteOn",
		"time": 236760,
		"track": 5
	},
	{
		"deltaTime": 60,
		"channel": 9,
		"type": "channel",
		"subtype": "noteOff",
		"noteNumber": 42,
		"velocity": 0,
		"time": 236820,
		"track": 5
	},
	{
		"deltaTime": 60,
		"channel": 9,
		"type": "channel",
		"noteNumber": 42,
		"velocity": 127,
		"subtype": "noteOn",
		"time": 236880,
		"track": 5
	},
	{
		"deltaTime": 60,
		"channel": 9,
		"type": "channel",
		"subtype": "noteOff",
		"noteNumber": 42,
		"velocity": 0,
		"time": 236940,
		"track": 5
	},
	{
		"deltaTime": 0,
		"channel": 9,
		"type": "channel",
		"noteNumber": 42,
		"velocity": 127,
		"subtype": "noteOn",
		"time": 237000,
		"track": 5
	},
	{
		"deltaTime": 0,
		"channel": 9,
		"type": "channel",
		"noteNumber": 36,
		"velocity": 127,
		"subtype": "noteOn",
		"time": 237000,
		"track": 5
	},
	{
		"deltaTime": 60,
		"channel": 9,
		"type": "channel",
		"noteNumber": 35,
		"velocity": 127,
		"subtype": "noteOn",
		"time": 237000,
		"track": 5
	},
	{
		"deltaTime": 0,
		"channel": 9,
		"type": "channel",
		"subtype": "noteOff",
		"noteNumber": 35,
		"velocity": 0,
		"time": 237060,
		"track": 5
	},
	{
		"deltaTime": 0,
		"channel": 9,
		"type": "channel",
		"subtype": "noteOff",
		"noteNumber": 36,
		"velocity": 0,
		"time": 237060,
		"track": 5
	},
	{
		"deltaTime": 60,
		"channel": 9,
		"type": "channel",
		"subtype": "noteOff",
		"noteNumber": 42,
		"velocity": 0,
		"time": 237060,
		"track": 5
	},
	{
		"deltaTime": 0,
		"channel": 0,
		"type": "channel",
		"subtype": "noteOff",
		"noteNumber": 32,
		"velocity": 0,
		"time": 237120,
		"track": 2
	},
	{
		"deltaTime": 0,
		"channel": 0,
		"type": "channel",
		"noteNumber": 40,
		"velocity": 127,
		"subtype": "noteOn",
		"time": 237120,
		"track": 2
	},
	{
		"deltaTime": 0,
		"channel": 2,
		"type": "channel",
		"subtype": "noteOff",
		"noteNumber": 68,
		"velocity": 0,
		"time": 237120,
		"track": 4
	},
	{
		"deltaTime": 0,
		"channel": 2,
		"type": "channel",
		"subtype": "noteOff",
		"noteNumber": 63,
		"velocity": 0,
		"time": 237120,
		"track": 4
	},
	{
		"deltaTime": 0,
		"channel": 2,
		"type": "channel",
		"subtype": "noteOff",
		"noteNumber": 59,
		"velocity": 0,
		"time": 237120,
		"track": 4
	},
	{
		"deltaTime": 0,
		"channel": 2,
		"type": "channel",
		"noteNumber": 40,
		"velocity": 127,
		"subtype": "noteOn",
		"time": 237120,
		"track": 4
	},
	{
		"deltaTime": 60,
		"channel": 9,
		"type": "channel",
		"noteNumber": 42,
		"velocity": 127,
		"subtype": "noteOn",
		"time": 237120,
		"track": 5
	},
	{
		"deltaTime": 60,
		"channel": 9,
		"type": "channel",
		"subtype": "noteOff",
		"noteNumber": 42,
		"velocity": 0,
		"time": 237180,
		"track": 5
	},
	{
		"deltaTime": 60,
		"channel": 9,
		"type": "channel",
		"noteNumber": 42,
		"velocity": 127,
		"subtype": "noteOn",
		"time": 237240,
		"track": 5
	},
	{
		"deltaTime": 60,
		"channel": 9,
		"type": "channel",
		"subtype": "noteOff",
		"noteNumber": 42,
		"velocity": 0,
		"time": 237300,
		"track": 5
	},
	{
		"deltaTime": 0,
		"channel": 9,
		"type": "channel",
		"noteNumber": 42,
		"velocity": 127,
		"subtype": "noteOn",
		"time": 237360,
		"track": 5
	},
	{
		"deltaTime": 0,
		"channel": 9,
		"type": "channel",
		"noteNumber": 36,
		"velocity": 127,
		"subtype": "noteOn",
		"time": 237360,
		"track": 5
	},
	{
		"deltaTime": 60,
		"channel": 9,
		"type": "channel",
		"noteNumber": 35,
		"velocity": 127,
		"subtype": "noteOn",
		"time": 237360,
		"track": 5
	},
	{
		"deltaTime": 0,
		"channel": 9,
		"type": "channel",
		"subtype": "noteOff",
		"noteNumber": 35,
		"velocity": 0,
		"time": 237420,
		"track": 5
	},
	{
		"deltaTime": 0,
		"channel": 9,
		"type": "channel",
		"subtype": "noteOff",
		"noteNumber": 36,
		"velocity": 0,
		"time": 237420,
		"track": 5
	},
	{
		"deltaTime": 60,
		"channel": 9,
		"type": "channel",
		"subtype": "noteOff",
		"noteNumber": 42,
		"velocity": 0,
		"time": 237420,
		"track": 5
	},
	{
		"deltaTime": 0,
		"channel": 2,
		"type": "channel",
		"subtype": "noteOff",
		"noteNumber": 40,
		"velocity": 0,
		"time": 237480,
		"track": 4
	},
	{
		"deltaTime": 0,
		"channel": 2,
		"type": "channel",
		"noteNumber": 59,
		"velocity": 127,
		"subtype": "noteOn",
		"time": 237480,
		"track": 4
	},
	{
		"deltaTime": 0,
		"channel": 2,
		"type": "channel",
		"noteNumber": 63,
		"velocity": 127,
		"subtype": "noteOn",
		"time": 237480,
		"track": 4
	},
	{
		"deltaTime": 0,
		"channel": 2,
		"type": "channel",
		"noteNumber": 68,
		"velocity": 127,
		"subtype": "noteOn",
		"time": 237480,
		"track": 4
	},
	{
		"deltaTime": 60,
		"channel": 9,
		"type": "channel",
		"noteNumber": 42,
		"velocity": 127,
		"subtype": "noteOn",
		"time": 237480,
		"track": 5
	},
	{
		"deltaTime": 60,
		"channel": 9,
		"type": "channel",
		"subtype": "noteOff",
		"noteNumber": 42,
		"velocity": 0,
		"time": 237540,
		"track": 5
	},
	{
		"deltaTime": 0,
		"channel": 9,
		"type": "channel",
		"noteNumber": 42,
		"velocity": 127,
		"subtype": "noteOn",
		"time": 237600,
		"track": 5
	},
	{
		"deltaTime": 0,
		"channel": 9,
		"type": "channel",
		"noteNumber": 40,
		"velocity": 127,
		"subtype": "noteOn",
		"time": 237600,
		"track": 5
	},
	{
		"deltaTime": 60,
		"channel": 9,
		"type": "channel",
		"noteNumber": 38,
		"velocity": 127,
		"subtype": "noteOn",
		"time": 237600,
		"track": 5
	},
	{
		"deltaTime": 0,
		"channel": 9,
		"type": "channel",
		"subtype": "noteOff",
		"noteNumber": 38,
		"velocity": 0,
		"time": 237660,
		"track": 5
	},
	{
		"deltaTime": 0,
		"channel": 9,
		"type": "channel",
		"subtype": "noteOff",
		"noteNumber": 40,
		"velocity": 0,
		"time": 237660,
		"track": 5
	},
	{
		"deltaTime": 60,
		"channel": 9,
		"type": "channel",
		"subtype": "noteOff",
		"noteNumber": 42,
		"velocity": 0,
		"time": 237660,
		"track": 5
	},
	{
		"deltaTime": 0,
		"channel": 2,
		"type": "channel",
		"subtype": "noteOff",
		"noteNumber": 68,
		"velocity": 0,
		"time": 237720,
		"track": 4
	},
	{
		"deltaTime": 0,
		"channel": 2,
		"type": "channel",
		"subtype": "noteOff",
		"noteNumber": 63,
		"velocity": 0,
		"time": 237720,
		"track": 4
	},
	{
		"deltaTime": 0,
		"channel": 2,
		"type": "channel",
		"subtype": "noteOff",
		"noteNumber": 59,
		"velocity": 0,
		"time": 237720,
		"track": 4
	},
	{
		"deltaTime": 0,
		"channel": 2,
		"type": "channel",
		"noteNumber": 59,
		"velocity": 127,
		"subtype": "noteOn",
		"time": 237720,
		"track": 4
	},
	{
		"deltaTime": 0,
		"channel": 2,
		"type": "channel",
		"noteNumber": 63,
		"velocity": 127,
		"subtype": "noteOn",
		"time": 237720,
		"track": 4
	},
	{
		"deltaTime": 0,
		"channel": 2,
		"type": "channel",
		"noteNumber": 68,
		"velocity": 127,
		"subtype": "noteOn",
		"time": 237720,
		"track": 4
	},
	{
		"deltaTime": 60,
		"channel": 9,
		"type": "channel",
		"noteNumber": 42,
		"velocity": 127,
		"subtype": "noteOn",
		"time": 237720,
		"track": 5
	},
	{
		"deltaTime": 60,
		"channel": 9,
		"type": "channel",
		"subtype": "noteOff",
		"noteNumber": 42,
		"velocity": 0,
		"time": 237780,
		"track": 5
	},
	{
		"deltaTime": 60,
		"channel": 9,
		"type": "channel",
		"noteNumber": 42,
		"velocity": 127,
		"subtype": "noteOn",
		"time": 237840,
		"track": 5
	},
	{
		"deltaTime": 60,
		"channel": 9,
		"type": "channel",
		"subtype": "noteOff",
		"noteNumber": 42,
		"velocity": 0,
		"time": 237900,
		"track": 5
	},
	{
		"deltaTime": 60,
		"channel": 9,
		"type": "channel",
		"noteNumber": 42,
		"velocity": 127,
		"subtype": "noteOn",
		"time": 237960,
		"track": 5
	},
	{
		"deltaTime": 60,
		"channel": 9,
		"type": "channel",
		"subtype": "noteOff",
		"noteNumber": 42,
		"velocity": 0,
		"time": 238020,
		"track": 5
	},
	{
		"deltaTime": 0,
		"channel": 0,
		"type": "channel",
		"subtype": "noteOff",
		"noteNumber": 40,
		"velocity": 0,
		"time": 238080,
		"track": 2
	},
	{
		"deltaTime": 0,
		"channel": 0,
		"type": "channel",
		"noteNumber": 42,
		"velocity": 127,
		"subtype": "noteOn",
		"time": 238080,
		"track": 2
	},
	{
		"deltaTime": 0,
		"channel": 2,
		"type": "channel",
		"subtype": "noteOff",
		"noteNumber": 68,
		"velocity": 0,
		"time": 238080,
		"track": 4
	},
	{
		"deltaTime": 0,
		"channel": 2,
		"type": "channel",
		"subtype": "noteOff",
		"noteNumber": 63,
		"velocity": 0,
		"time": 238080,
		"track": 4
	},
	{
		"deltaTime": 0,
		"channel": 2,
		"type": "channel",
		"subtype": "noteOff",
		"noteNumber": 59,
		"velocity": 0,
		"time": 238080,
		"track": 4
	},
	{
		"deltaTime": 0,
		"channel": 2,
		"type": "channel",
		"noteNumber": 42,
		"velocity": 127,
		"subtype": "noteOn",
		"time": 238080,
		"track": 4
	},
	{
		"deltaTime": 0,
		"channel": 9,
		"type": "channel",
		"noteNumber": 42,
		"velocity": 127,
		"subtype": "noteOn",
		"time": 238080,
		"track": 5
	},
	{
		"deltaTime": 0,
		"channel": 9,
		"type": "channel",
		"noteNumber": 35,
		"velocity": 127,
		"subtype": "noteOn",
		"time": 238080,
		"track": 5
	},
	{
		"deltaTime": 60,
		"channel": 9,
		"type": "channel",
		"noteNumber": 36,
		"velocity": 127,
		"subtype": "noteOn",
		"time": 238080,
		"track": 5
	},
	{
		"deltaTime": 0,
		"channel": 9,
		"type": "channel",
		"subtype": "noteOff",
		"noteNumber": 36,
		"velocity": 0,
		"time": 238140,
		"track": 5
	},
	{
		"deltaTime": 0,
		"channel": 9,
		"type": "channel",
		"subtype": "noteOff",
		"noteNumber": 35,
		"velocity": 0,
		"time": 238140,
		"track": 5
	},
	{
		"deltaTime": 60,
		"channel": 9,
		"type": "channel",
		"subtype": "noteOff",
		"noteNumber": 42,
		"velocity": 0,
		"time": 238140,
		"track": 5
	},
	{
		"deltaTime": 60,
		"channel": 9,
		"type": "channel",
		"noteNumber": 42,
		"velocity": 127,
		"subtype": "noteOn",
		"time": 238200,
		"track": 5
	},
	{
		"deltaTime": 60,
		"channel": 9,
		"type": "channel",
		"subtype": "noteOff",
		"noteNumber": 42,
		"velocity": 0,
		"time": 238260,
		"track": 5
	},
	{
		"deltaTime": 0,
		"channel": 9,
		"type": "channel",
		"noteNumber": 42,
		"velocity": 127,
		"subtype": "noteOn",
		"time": 238320,
		"track": 5
	},
	{
		"deltaTime": 0,
		"channel": 9,
		"type": "channel",
		"noteNumber": 36,
		"velocity": 127,
		"subtype": "noteOn",
		"time": 238320,
		"track": 5
	},
	{
		"deltaTime": 60,
		"channel": 9,
		"type": "channel",
		"noteNumber": 35,
		"velocity": 127,
		"subtype": "noteOn",
		"time": 238320,
		"track": 5
	},
	{
		"deltaTime": 0,
		"channel": 9,
		"type": "channel",
		"subtype": "noteOff",
		"noteNumber": 35,
		"velocity": 0,
		"time": 238380,
		"track": 5
	},
	{
		"deltaTime": 0,
		"channel": 9,
		"type": "channel",
		"subtype": "noteOff",
		"noteNumber": 36,
		"velocity": 0,
		"time": 238380,
		"track": 5
	},
	{
		"deltaTime": 60,
		"channel": 9,
		"type": "channel",
		"subtype": "noteOff",
		"noteNumber": 42,
		"velocity": 0,
		"time": 238380,
		"track": 5
	},
	{
		"deltaTime": 0,
		"channel": 2,
		"type": "channel",
		"subtype": "noteOff",
		"noteNumber": 42,
		"velocity": 0,
		"time": 238440,
		"track": 4
	},
	{
		"deltaTime": 0,
		"channel": 2,
		"type": "channel",
		"noteNumber": 61,
		"velocity": 127,
		"subtype": "noteOn",
		"time": 238440,
		"track": 4
	},
	{
		"deltaTime": 0,
		"channel": 2,
		"type": "channel",
		"noteNumber": 66,
		"velocity": 127,
		"subtype": "noteOn",
		"time": 238440,
		"track": 4
	},
	{
		"deltaTime": 0,
		"channel": 2,
		"type": "channel",
		"noteNumber": 70,
		"velocity": 127,
		"subtype": "noteOn",
		"time": 238440,
		"track": 4
	},
	{
		"deltaTime": 60,
		"channel": 9,
		"type": "channel",
		"noteNumber": 42,
		"velocity": 127,
		"subtype": "noteOn",
		"time": 238440,
		"track": 5
	},
	{
		"deltaTime": 60,
		"channel": 9,
		"type": "channel",
		"subtype": "noteOff",
		"noteNumber": 42,
		"velocity": 0,
		"time": 238500,
		"track": 5
	},
	{
		"deltaTime": 0,
		"channel": 9,
		"type": "channel",
		"noteNumber": 42,
		"velocity": 127,
		"subtype": "noteOn",
		"time": 238560,
		"track": 5
	},
	{
		"deltaTime": 0,
		"channel": 9,
		"type": "channel",
		"noteNumber": 38,
		"velocity": 127,
		"subtype": "noteOn",
		"time": 238560,
		"track": 5
	},
	{
		"deltaTime": 60,
		"channel": 9,
		"type": "channel",
		"noteNumber": 40,
		"velocity": 127,
		"subtype": "noteOn",
		"time": 238560,
		"track": 5
	},
	{
		"deltaTime": 0,
		"channel": 9,
		"type": "channel",
		"subtype": "noteOff",
		"noteNumber": 40,
		"velocity": 0,
		"time": 238620,
		"track": 5
	},
	{
		"deltaTime": 0,
		"channel": 9,
		"type": "channel",
		"subtype": "noteOff",
		"noteNumber": 38,
		"velocity": 0,
		"time": 238620,
		"track": 5
	},
	{
		"deltaTime": 60,
		"channel": 9,
		"type": "channel",
		"subtype": "noteOff",
		"noteNumber": 42,
		"velocity": 0,
		"time": 238620,
		"track": 5
	},
	{
		"deltaTime": 0,
		"channel": 2,
		"type": "channel",
		"subtype": "noteOff",
		"noteNumber": 70,
		"velocity": 0,
		"time": 238680,
		"track": 4
	},
	{
		"deltaTime": 0,
		"channel": 2,
		"type": "channel",
		"subtype": "noteOff",
		"noteNumber": 66,
		"velocity": 0,
		"time": 238680,
		"track": 4
	},
	{
		"deltaTime": 0,
		"channel": 2,
		"type": "channel",
		"subtype": "noteOff",
		"noteNumber": 61,
		"velocity": 0,
		"time": 238680,
		"track": 4
	},
	{
		"deltaTime": 0,
		"channel": 2,
		"type": "channel",
		"noteNumber": 61,
		"velocity": 127,
		"subtype": "noteOn",
		"time": 238680,
		"track": 4
	},
	{
		"deltaTime": 0,
		"channel": 2,
		"type": "channel",
		"noteNumber": 66,
		"velocity": 127,
		"subtype": "noteOn",
		"time": 238680,
		"track": 4
	},
	{
		"deltaTime": 0,
		"channel": 2,
		"type": "channel",
		"noteNumber": 70,
		"velocity": 127,
		"subtype": "noteOn",
		"time": 238680,
		"track": 4
	},
	{
		"deltaTime": 60,
		"channel": 9,
		"type": "channel",
		"noteNumber": 42,
		"velocity": 127,
		"subtype": "noteOn",
		"time": 238680,
		"track": 5
	},
	{
		"deltaTime": 60,
		"channel": 9,
		"type": "channel",
		"subtype": "noteOff",
		"noteNumber": 42,
		"velocity": 0,
		"time": 238740,
		"track": 5
	},
	{
		"deltaTime": 60,
		"channel": 9,
		"type": "channel",
		"noteNumber": 42,
		"velocity": 127,
		"subtype": "noteOn",
		"time": 238800,
		"track": 5
	},
	{
		"deltaTime": 60,
		"channel": 9,
		"type": "channel",
		"subtype": "noteOff",
		"noteNumber": 42,
		"velocity": 0,
		"time": 238860,
		"track": 5
	},
	{
		"deltaTime": 0,
		"channel": 9,
		"type": "channel",
		"noteNumber": 42,
		"velocity": 127,
		"subtype": "noteOn",
		"time": 238920,
		"track": 5
	},
	{
		"deltaTime": 0,
		"channel": 9,
		"type": "channel",
		"noteNumber": 36,
		"velocity": 127,
		"subtype": "noteOn",
		"time": 238920,
		"track": 5
	},
	{
		"deltaTime": 60,
		"channel": 9,
		"type": "channel",
		"noteNumber": 35,
		"velocity": 127,
		"subtype": "noteOn",
		"time": 238920,
		"track": 5
	},
	{
		"deltaTime": 0,
		"channel": 9,
		"type": "channel",
		"subtype": "noteOff",
		"noteNumber": 35,
		"velocity": 0,
		"time": 238980,
		"track": 5
	},
	{
		"deltaTime": 0,
		"channel": 9,
		"type": "channel",
		"subtype": "noteOff",
		"noteNumber": 36,
		"velocity": 0,
		"time": 238980,
		"track": 5
	},
	{
		"deltaTime": 60,
		"channel": 9,
		"type": "channel",
		"subtype": "noteOff",
		"noteNumber": 42,
		"velocity": 0,
		"time": 238980,
		"track": 5
	},
	{
		"deltaTime": 0,
		"channel": 0,
		"type": "channel",
		"subtype": "noteOff",
		"noteNumber": 42,
		"velocity": 0,
		"time": 239040,
		"track": 2
	},
	{
		"deltaTime": 0,
		"channel": 0,
		"type": "channel",
		"noteNumber": 35,
		"velocity": 127,
		"subtype": "noteOn",
		"time": 239040,
		"track": 2
	},
	{
		"deltaTime": 0,
		"channel": 2,
		"type": "channel",
		"subtype": "noteOff",
		"noteNumber": 70,
		"velocity": 0,
		"time": 239040,
		"track": 4
	},
	{
		"deltaTime": 0,
		"channel": 2,
		"type": "channel",
		"subtype": "noteOff",
		"noteNumber": 66,
		"velocity": 0,
		"time": 239040,
		"track": 4
	},
	{
		"deltaTime": 0,
		"channel": 2,
		"type": "channel",
		"subtype": "noteOff",
		"noteNumber": 61,
		"velocity": 0,
		"time": 239040,
		"track": 4
	},
	{
		"deltaTime": 0,
		"channel": 2,
		"type": "channel",
		"noteNumber": 47,
		"velocity": 127,
		"subtype": "noteOn",
		"time": 239040,
		"track": 4
	},
	{
		"deltaTime": 60,
		"channel": 9,
		"type": "channel",
		"noteNumber": 42,
		"velocity": 127,
		"subtype": "noteOn",
		"time": 239040,
		"track": 5
	},
	{
		"deltaTime": 60,
		"channel": 9,
		"type": "channel",
		"subtype": "noteOff",
		"noteNumber": 42,
		"velocity": 0,
		"time": 239100,
		"track": 5
	},
	{
		"deltaTime": 60,
		"channel": 9,
		"type": "channel",
		"noteNumber": 42,
		"velocity": 127,
		"subtype": "noteOn",
		"time": 239160,
		"track": 5
	},
	{
		"deltaTime": 60,
		"channel": 9,
		"type": "channel",
		"subtype": "noteOff",
		"noteNumber": 42,
		"velocity": 0,
		"time": 239220,
		"track": 5
	},
	{
		"deltaTime": 0,
		"channel": 9,
		"type": "channel",
		"noteNumber": 42,
		"velocity": 127,
		"subtype": "noteOn",
		"time": 239280,
		"track": 5
	},
	{
		"deltaTime": 0,
		"channel": 9,
		"type": "channel",
		"noteNumber": 36,
		"velocity": 127,
		"subtype": "noteOn",
		"time": 239280,
		"track": 5
	},
	{
		"deltaTime": 60,
		"channel": 9,
		"type": "channel",
		"noteNumber": 35,
		"velocity": 127,
		"subtype": "noteOn",
		"time": 239280,
		"track": 5
	},
	{
		"deltaTime": 0,
		"channel": 9,
		"type": "channel",
		"subtype": "noteOff",
		"noteNumber": 35,
		"velocity": 0,
		"time": 239340,
		"track": 5
	},
	{
		"deltaTime": 0,
		"channel": 9,
		"type": "channel",
		"subtype": "noteOff",
		"noteNumber": 36,
		"velocity": 0,
		"time": 239340,
		"track": 5
	},
	{
		"deltaTime": 60,
		"channel": 9,
		"type": "channel",
		"subtype": "noteOff",
		"noteNumber": 42,
		"velocity": 0,
		"time": 239340,
		"track": 5
	},
	{
		"deltaTime": 0,
		"channel": 2,
		"type": "channel",
		"subtype": "noteOff",
		"noteNumber": 47,
		"velocity": 0,
		"time": 239400,
		"track": 4
	},
	{
		"deltaTime": 0,
		"channel": 2,
		"type": "channel",
		"noteNumber": 61,
		"velocity": 127,
		"subtype": "noteOn",
		"time": 239400,
		"track": 4
	},
	{
		"deltaTime": 0,
		"channel": 2,
		"type": "channel",
		"noteNumber": 66,
		"velocity": 127,
		"subtype": "noteOn",
		"time": 239400,
		"track": 4
	},
	{
		"deltaTime": 0,
		"channel": 2,
		"type": "channel",
		"noteNumber": 70,
		"velocity": 127,
		"subtype": "noteOn",
		"time": 239400,
		"track": 4
	},
	{
		"deltaTime": 60,
		"channel": 9,
		"type": "channel",
		"noteNumber": 42,
		"velocity": 127,
		"subtype": "noteOn",
		"time": 239400,
		"track": 5
	},
	{
		"deltaTime": 60,
		"channel": 9,
		"type": "channel",
		"subtype": "noteOff",
		"noteNumber": 42,
		"velocity": 0,
		"time": 239460,
		"track": 5
	},
	{
		"deltaTime": 0,
		"channel": 0,
		"type": "channel",
		"subtype": "noteOff",
		"noteNumber": 35,
		"velocity": 0,
		"time": 239520,
		"track": 2
	},
	{
		"deltaTime": 0,
		"channel": 0,
		"type": "channel",
		"noteNumber": 34,
		"velocity": 127,
		"subtype": "noteOn",
		"time": 239520,
		"track": 2
	},
	{
		"deltaTime": 0,
		"channel": 9,
		"type": "channel",
		"noteNumber": 42,
		"velocity": 127,
		"subtype": "noteOn",
		"time": 239520,
		"track": 5
	},
	{
		"deltaTime": 0,
		"channel": 9,
		"type": "channel",
		"noteNumber": 40,
		"velocity": 127,
		"subtype": "noteOn",
		"time": 239520,
		"track": 5
	},
	{
		"deltaTime": 60,
		"channel": 9,
		"type": "channel",
		"noteNumber": 38,
		"velocity": 127,
		"subtype": "noteOn",
		"time": 239520,
		"track": 5
	},
	{
		"deltaTime": 0,
		"channel": 9,
		"type": "channel",
		"subtype": "noteOff",
		"noteNumber": 38,
		"velocity": 0,
		"time": 239580,
		"track": 5
	},
	{
		"deltaTime": 0,
		"channel": 9,
		"type": "channel",
		"subtype": "noteOff",
		"noteNumber": 40,
		"velocity": 0,
		"time": 239580,
		"track": 5
	},
	{
		"deltaTime": 60,
		"channel": 9,
		"type": "channel",
		"subtype": "noteOff",
		"noteNumber": 42,
		"velocity": 0,
		"time": 239580,
		"track": 5
	},
	{
		"deltaTime": 0,
		"channel": 2,
		"type": "channel",
		"subtype": "noteOff",
		"noteNumber": 70,
		"velocity": 0,
		"time": 239640,
		"track": 4
	},
	{
		"deltaTime": 0,
		"channel": 2,
		"type": "channel",
		"subtype": "noteOff",
		"noteNumber": 66,
		"velocity": 0,
		"time": 239640,
		"track": 4
	},
	{
		"deltaTime": 0,
		"channel": 2,
		"type": "channel",
		"subtype": "noteOff",
		"noteNumber": 61,
		"velocity": 0,
		"time": 239640,
		"track": 4
	},
	{
		"deltaTime": 0,
		"channel": 2,
		"type": "channel",
		"noteNumber": 61,
		"velocity": 127,
		"subtype": "noteOn",
		"time": 239640,
		"track": 4
	},
	{
		"deltaTime": 0,
		"channel": 2,
		"type": "channel",
		"noteNumber": 66,
		"velocity": 127,
		"subtype": "noteOn",
		"time": 239640,
		"track": 4
	},
	{
		"deltaTime": 0,
		"channel": 2,
		"type": "channel",
		"noteNumber": 71,
		"velocity": 127,
		"subtype": "noteOn",
		"time": 239640,
		"track": 4
	},
	{
		"deltaTime": 60,
		"channel": 9,
		"type": "channel",
		"noteNumber": 42,
		"velocity": 127,
		"subtype": "noteOn",
		"time": 239640,
		"track": 5
	},
	{
		"deltaTime": 60,
		"channel": 9,
		"type": "channel",
		"subtype": "noteOff",
		"noteNumber": 42,
		"velocity": 0,
		"time": 239700,
		"track": 5
	},
	{
		"deltaTime": 60,
		"channel": 9,
		"type": "channel",
		"noteNumber": 42,
		"velocity": 127,
		"subtype": "noteOn",
		"time": 239760,
		"track": 5
	},
	{
		"deltaTime": 60,
		"channel": 9,
		"type": "channel",
		"subtype": "noteOff",
		"noteNumber": 42,
		"velocity": 0,
		"time": 239820,
		"track": 5
	},
	{
		"deltaTime": 60,
		"channel": 9,
		"type": "channel",
		"noteNumber": 42,
		"velocity": 127,
		"subtype": "noteOn",
		"time": 239880,
		"track": 5
	},
	{
		"deltaTime": 60,
		"channel": 9,
		"type": "channel",
		"subtype": "noteOff",
		"noteNumber": 42,
		"velocity": 0,
		"time": 239940,
		"track": 5
	},
	{
		"deltaTime": 0,
		"channel": 0,
		"type": "channel",
		"subtype": "noteOff",
		"noteNumber": 34,
		"velocity": 0,
		"time": 240000,
		"track": 2
	},
	{
		"deltaTime": 0,
		"channel": 0,
		"type": "channel",
		"noteNumber": 32,
		"velocity": 127,
		"subtype": "noteOn",
		"time": 240000,
		"track": 2
	},
	{
		"deltaTime": 0,
		"channel": 2,
		"type": "channel",
		"subtype": "noteOff",
		"noteNumber": 71,
		"velocity": 0,
		"time": 240000,
		"track": 4
	},
	{
		"deltaTime": 0,
		"channel": 2,
		"type": "channel",
		"subtype": "noteOff",
		"noteNumber": 66,
		"velocity": 0,
		"time": 240000,
		"track": 4
	},
	{
		"deltaTime": 0,
		"channel": 2,
		"type": "channel",
		"subtype": "noteOff",
		"noteNumber": 61,
		"velocity": 0,
		"time": 240000,
		"track": 4
	},
	{
		"deltaTime": 0,
		"channel": 2,
		"type": "channel",
		"noteNumber": 44,
		"velocity": 127,
		"subtype": "noteOn",
		"time": 240000,
		"track": 4
	},
	{
		"deltaTime": 0,
		"channel": 9,
		"type": "channel",
		"noteNumber": 42,
		"velocity": 127,
		"subtype": "noteOn",
		"time": 240000,
		"track": 5
	},
	{
		"deltaTime": 0,
		"channel": 9,
		"type": "channel",
		"noteNumber": 35,
		"velocity": 127,
		"subtype": "noteOn",
		"time": 240000,
		"track": 5
	},
	{
		"deltaTime": 60,
		"channel": 9,
		"type": "channel",
		"noteNumber": 36,
		"velocity": 127,
		"subtype": "noteOn",
		"time": 240000,
		"track": 5
	},
	{
		"deltaTime": 0,
		"channel": 9,
		"type": "channel",
		"subtype": "noteOff",
		"noteNumber": 36,
		"velocity": 0,
		"time": 240060,
		"track": 5
	},
	{
		"deltaTime": 0,
		"channel": 9,
		"type": "channel",
		"subtype": "noteOff",
		"noteNumber": 35,
		"velocity": 0,
		"time": 240060,
		"track": 5
	},
	{
		"deltaTime": 60,
		"channel": 9,
		"type": "channel",
		"subtype": "noteOff",
		"noteNumber": 42,
		"velocity": 0,
		"time": 240060,
		"track": 5
	},
	{
		"deltaTime": 60,
		"channel": 9,
		"type": "channel",
		"noteNumber": 42,
		"velocity": 127,
		"subtype": "noteOn",
		"time": 240120,
		"track": 5
	},
	{
		"deltaTime": 60,
		"channel": 9,
		"type": "channel",
		"subtype": "noteOff",
		"noteNumber": 42,
		"velocity": 0,
		"time": 240180,
		"track": 5
	},
	{
		"deltaTime": 0,
		"channel": 9,
		"type": "channel",
		"noteNumber": 42,
		"velocity": 127,
		"subtype": "noteOn",
		"time": 240240,
		"track": 5
	},
	{
		"deltaTime": 0,
		"channel": 9,
		"type": "channel",
		"noteNumber": 36,
		"velocity": 127,
		"subtype": "noteOn",
		"time": 240240,
		"track": 5
	},
	{
		"deltaTime": 60,
		"channel": 9,
		"type": "channel",
		"noteNumber": 35,
		"velocity": 127,
		"subtype": "noteOn",
		"time": 240240,
		"track": 5
	},
	{
		"deltaTime": 0,
		"channel": 9,
		"type": "channel",
		"subtype": "noteOff",
		"noteNumber": 35,
		"velocity": 0,
		"time": 240300,
		"track": 5
	},
	{
		"deltaTime": 0,
		"channel": 9,
		"type": "channel",
		"subtype": "noteOff",
		"noteNumber": 36,
		"velocity": 0,
		"time": 240300,
		"track": 5
	},
	{
		"deltaTime": 60,
		"channel": 9,
		"type": "channel",
		"subtype": "noteOff",
		"noteNumber": 42,
		"velocity": 0,
		"time": 240300,
		"track": 5
	},
	{
		"deltaTime": 0,
		"channel": 2,
		"type": "channel",
		"subtype": "noteOff",
		"noteNumber": 44,
		"velocity": 0,
		"time": 240360,
		"track": 4
	},
	{
		"deltaTime": 0,
		"channel": 2,
		"type": "channel",
		"noteNumber": 59,
		"velocity": 127,
		"subtype": "noteOn",
		"time": 240360,
		"track": 4
	},
	{
		"deltaTime": 0,
		"channel": 2,
		"type": "channel",
		"noteNumber": 63,
		"velocity": 127,
		"subtype": "noteOn",
		"time": 240360,
		"track": 4
	},
	{
		"deltaTime": 0,
		"channel": 2,
		"type": "channel",
		"noteNumber": 68,
		"velocity": 127,
		"subtype": "noteOn",
		"time": 240360,
		"track": 4
	},
	{
		"deltaTime": 60,
		"channel": 9,
		"type": "channel",
		"noteNumber": 42,
		"velocity": 127,
		"subtype": "noteOn",
		"time": 240360,
		"track": 5
	},
	{
		"deltaTime": 60,
		"channel": 9,
		"type": "channel",
		"subtype": "noteOff",
		"noteNumber": 42,
		"velocity": 0,
		"time": 240420,
		"track": 5
	},
	{
		"deltaTime": 0,
		"channel": 9,
		"type": "channel",
		"noteNumber": 42,
		"velocity": 127,
		"subtype": "noteOn",
		"time": 240480,
		"track": 5
	},
	{
		"deltaTime": 0,
		"channel": 9,
		"type": "channel",
		"noteNumber": 38,
		"velocity": 127,
		"subtype": "noteOn",
		"time": 240480,
		"track": 5
	},
	{
		"deltaTime": 60,
		"channel": 9,
		"type": "channel",
		"noteNumber": 40,
		"velocity": 127,
		"subtype": "noteOn",
		"time": 240480,
		"track": 5
	},
	{
		"deltaTime": 0,
		"channel": 9,
		"type": "channel",
		"subtype": "noteOff",
		"noteNumber": 40,
		"velocity": 0,
		"time": 240540,
		"track": 5
	},
	{
		"deltaTime": 0,
		"channel": 9,
		"type": "channel",
		"subtype": "noteOff",
		"noteNumber": 38,
		"velocity": 0,
		"time": 240540,
		"track": 5
	},
	{
		"deltaTime": 60,
		"channel": 9,
		"type": "channel",
		"subtype": "noteOff",
		"noteNumber": 42,
		"velocity": 0,
		"time": 240540,
		"track": 5
	},
	{
		"deltaTime": 0,
		"channel": 2,
		"type": "channel",
		"subtype": "noteOff",
		"noteNumber": 68,
		"velocity": 0,
		"time": 240600,
		"track": 4
	},
	{
		"deltaTime": 0,
		"channel": 2,
		"type": "channel",
		"subtype": "noteOff",
		"noteNumber": 63,
		"velocity": 0,
		"time": 240600,
		"track": 4
	},
	{
		"deltaTime": 0,
		"channel": 2,
		"type": "channel",
		"subtype": "noteOff",
		"noteNumber": 59,
		"velocity": 0,
		"time": 240600,
		"track": 4
	},
	{
		"deltaTime": 0,
		"channel": 2,
		"type": "channel",
		"noteNumber": 59,
		"velocity": 127,
		"subtype": "noteOn",
		"time": 240600,
		"track": 4
	},
	{
		"deltaTime": 0,
		"channel": 2,
		"type": "channel",
		"noteNumber": 63,
		"velocity": 127,
		"subtype": "noteOn",
		"time": 240600,
		"track": 4
	},
	{
		"deltaTime": 0,
		"channel": 2,
		"type": "channel",
		"noteNumber": 68,
		"velocity": 127,
		"subtype": "noteOn",
		"time": 240600,
		"track": 4
	},
	{
		"deltaTime": 60,
		"channel": 9,
		"type": "channel",
		"noteNumber": 42,
		"velocity": 127,
		"subtype": "noteOn",
		"time": 240600,
		"track": 5
	},
	{
		"deltaTime": 60,
		"channel": 9,
		"type": "channel",
		"subtype": "noteOff",
		"noteNumber": 42,
		"velocity": 0,
		"time": 240660,
		"track": 5
	},
	{
		"deltaTime": 0,
		"channel": 0,
		"type": "channel",
		"subtype": "noteOff",
		"noteNumber": 32,
		"velocity": 0,
		"time": 240720,
		"track": 2
	},
	{
		"deltaTime": 0,
		"channel": 0,
		"type": "channel",
		"noteNumber": 32,
		"velocity": 127,
		"subtype": "noteOn",
		"time": 240720,
		"track": 2
	},
	{
		"deltaTime": 60,
		"channel": 9,
		"type": "channel",
		"noteNumber": 42,
		"velocity": 127,
		"subtype": "noteOn",
		"time": 240720,
		"track": 5
	},
	{
		"deltaTime": 60,
		"channel": 9,
		"type": "channel",
		"subtype": "noteOff",
		"noteNumber": 42,
		"velocity": 0,
		"time": 240780,
		"track": 5
	},
	{
		"deltaTime": 0,
		"channel": 9,
		"type": "channel",
		"noteNumber": 42,
		"velocity": 127,
		"subtype": "noteOn",
		"time": 240840,
		"track": 5
	},
	{
		"deltaTime": 0,
		"channel": 9,
		"type": "channel",
		"noteNumber": 36,
		"velocity": 127,
		"subtype": "noteOn",
		"time": 240840,
		"track": 5
	},
	{
		"deltaTime": 60,
		"channel": 9,
		"type": "channel",
		"noteNumber": 35,
		"velocity": 127,
		"subtype": "noteOn",
		"time": 240840,
		"track": 5
	},
	{
		"deltaTime": 0,
		"channel": 9,
		"type": "channel",
		"subtype": "noteOff",
		"noteNumber": 35,
		"velocity": 0,
		"time": 240900,
		"track": 5
	},
	{
		"deltaTime": 0,
		"channel": 9,
		"type": "channel",
		"subtype": "noteOff",
		"noteNumber": 36,
		"velocity": 0,
		"time": 240900,
		"track": 5
	},
	{
		"deltaTime": 60,
		"channel": 9,
		"type": "channel",
		"subtype": "noteOff",
		"noteNumber": 42,
		"velocity": 0,
		"time": 240900,
		"track": 5
	},
	{
		"deltaTime": 0,
		"channel": 0,
		"type": "channel",
		"subtype": "noteOff",
		"noteNumber": 32,
		"velocity": 0,
		"time": 240960,
		"track": 2
	},
	{
		"deltaTime": 0,
		"channel": 0,
		"type": "channel",
		"noteNumber": 40,
		"velocity": 127,
		"subtype": "noteOn",
		"time": 240960,
		"track": 2
	},
	{
		"deltaTime": 0,
		"channel": 2,
		"type": "channel",
		"subtype": "noteOff",
		"noteNumber": 68,
		"velocity": 0,
		"time": 240960,
		"track": 4
	},
	{
		"deltaTime": 0,
		"channel": 2,
		"type": "channel",
		"subtype": "noteOff",
		"noteNumber": 63,
		"velocity": 0,
		"time": 240960,
		"track": 4
	},
	{
		"deltaTime": 0,
		"channel": 2,
		"type": "channel",
		"subtype": "noteOff",
		"noteNumber": 59,
		"velocity": 0,
		"time": 240960,
		"track": 4
	},
	{
		"deltaTime": 0,
		"channel": 2,
		"type": "channel",
		"noteNumber": 40,
		"velocity": 127,
		"subtype": "noteOn",
		"time": 240960,
		"track": 4
	},
	{
		"deltaTime": 60,
		"channel": 9,
		"type": "channel",
		"noteNumber": 42,
		"velocity": 127,
		"subtype": "noteOn",
		"time": 240960,
		"track": 5
	},
	{
		"deltaTime": 60,
		"channel": 9,
		"type": "channel",
		"subtype": "noteOff",
		"noteNumber": 42,
		"velocity": 0,
		"time": 241020,
		"track": 5
	},
	{
		"deltaTime": 60,
		"channel": 9,
		"type": "channel",
		"noteNumber": 42,
		"velocity": 127,
		"subtype": "noteOn",
		"time": 241080,
		"track": 5
	},
	{
		"deltaTime": 60,
		"channel": 9,
		"type": "channel",
		"subtype": "noteOff",
		"noteNumber": 42,
		"velocity": 0,
		"time": 241140,
		"track": 5
	},
	{
		"deltaTime": 0,
		"channel": 9,
		"type": "channel",
		"noteNumber": 42,
		"velocity": 127,
		"subtype": "noteOn",
		"time": 241200,
		"track": 5
	},
	{
		"deltaTime": 0,
		"channel": 9,
		"type": "channel",
		"noteNumber": 36,
		"velocity": 127,
		"subtype": "noteOn",
		"time": 241200,
		"track": 5
	},
	{
		"deltaTime": 60,
		"channel": 9,
		"type": "channel",
		"noteNumber": 35,
		"velocity": 127,
		"subtype": "noteOn",
		"time": 241200,
		"track": 5
	},
	{
		"deltaTime": 0,
		"channel": 9,
		"type": "channel",
		"subtype": "noteOff",
		"noteNumber": 35,
		"velocity": 0,
		"time": 241260,
		"track": 5
	},
	{
		"deltaTime": 0,
		"channel": 9,
		"type": "channel",
		"subtype": "noteOff",
		"noteNumber": 36,
		"velocity": 0,
		"time": 241260,
		"track": 5
	},
	{
		"deltaTime": 60,
		"channel": 9,
		"type": "channel",
		"subtype": "noteOff",
		"noteNumber": 42,
		"velocity": 0,
		"time": 241260,
		"track": 5
	},
	{
		"deltaTime": 0,
		"channel": 2,
		"type": "channel",
		"subtype": "noteOff",
		"noteNumber": 40,
		"velocity": 0,
		"time": 241320,
		"track": 4
	},
	{
		"deltaTime": 0,
		"channel": 2,
		"type": "channel",
		"noteNumber": 59,
		"velocity": 127,
		"subtype": "noteOn",
		"time": 241320,
		"track": 4
	},
	{
		"deltaTime": 0,
		"channel": 2,
		"type": "channel",
		"noteNumber": 63,
		"velocity": 127,
		"subtype": "noteOn",
		"time": 241320,
		"track": 4
	},
	{
		"deltaTime": 0,
		"channel": 2,
		"type": "channel",
		"noteNumber": 68,
		"velocity": 127,
		"subtype": "noteOn",
		"time": 241320,
		"track": 4
	},
	{
		"deltaTime": 60,
		"channel": 9,
		"type": "channel",
		"noteNumber": 42,
		"velocity": 127,
		"subtype": "noteOn",
		"time": 241320,
		"track": 5
	},
	{
		"deltaTime": 60,
		"channel": 9,
		"type": "channel",
		"subtype": "noteOff",
		"noteNumber": 42,
		"velocity": 0,
		"time": 241380,
		"track": 5
	},
	{
		"deltaTime": 0,
		"channel": 9,
		"type": "channel",
		"noteNumber": 42,
		"velocity": 127,
		"subtype": "noteOn",
		"time": 241440,
		"track": 5
	},
	{
		"deltaTime": 0,
		"channel": 9,
		"type": "channel",
		"noteNumber": 40,
		"velocity": 127,
		"subtype": "noteOn",
		"time": 241440,
		"track": 5
	},
	{
		"deltaTime": 60,
		"channel": 9,
		"type": "channel",
		"noteNumber": 38,
		"velocity": 127,
		"subtype": "noteOn",
		"time": 241440,
		"track": 5
	},
	{
		"deltaTime": 0,
		"channel": 9,
		"type": "channel",
		"subtype": "noteOff",
		"noteNumber": 38,
		"velocity": 0,
		"time": 241500,
		"track": 5
	},
	{
		"deltaTime": 0,
		"channel": 9,
		"type": "channel",
		"subtype": "noteOff",
		"noteNumber": 40,
		"velocity": 0,
		"time": 241500,
		"track": 5
	},
	{
		"deltaTime": 60,
		"channel": 9,
		"type": "channel",
		"subtype": "noteOff",
		"noteNumber": 42,
		"velocity": 0,
		"time": 241500,
		"track": 5
	},
	{
		"deltaTime": 0,
		"channel": 2,
		"type": "channel",
		"subtype": "noteOff",
		"noteNumber": 68,
		"velocity": 0,
		"time": 241560,
		"track": 4
	},
	{
		"deltaTime": 0,
		"channel": 2,
		"type": "channel",
		"subtype": "noteOff",
		"noteNumber": 63,
		"velocity": 0,
		"time": 241560,
		"track": 4
	},
	{
		"deltaTime": 0,
		"channel": 2,
		"type": "channel",
		"subtype": "noteOff",
		"noteNumber": 59,
		"velocity": 0,
		"time": 241560,
		"track": 4
	},
	{
		"deltaTime": 0,
		"channel": 2,
		"type": "channel",
		"noteNumber": 59,
		"velocity": 127,
		"subtype": "noteOn",
		"time": 241560,
		"track": 4
	},
	{
		"deltaTime": 0,
		"channel": 2,
		"type": "channel",
		"noteNumber": 63,
		"velocity": 127,
		"subtype": "noteOn",
		"time": 241560,
		"track": 4
	},
	{
		"deltaTime": 0,
		"channel": 2,
		"type": "channel",
		"noteNumber": 68,
		"velocity": 127,
		"subtype": "noteOn",
		"time": 241560,
		"track": 4
	},
	{
		"deltaTime": 60,
		"channel": 9,
		"type": "channel",
		"noteNumber": 42,
		"velocity": 127,
		"subtype": "noteOn",
		"time": 241560,
		"track": 5
	},
	{
		"deltaTime": 60,
		"channel": 9,
		"type": "channel",
		"subtype": "noteOff",
		"noteNumber": 42,
		"velocity": 0,
		"time": 241620,
		"track": 5
	},
	{
		"deltaTime": 0,
		"channel": 0,
		"type": "channel",
		"subtype": "noteOff",
		"noteNumber": 40,
		"velocity": 0,
		"time": 241680,
		"track": 2
	},
	{
		"deltaTime": 0,
		"channel": 0,
		"type": "channel",
		"noteNumber": 40,
		"velocity": 127,
		"subtype": "noteOn",
		"time": 241680,
		"track": 2
	},
	{
		"deltaTime": 60,
		"channel": 9,
		"type": "channel",
		"noteNumber": 42,
		"velocity": 127,
		"subtype": "noteOn",
		"time": 241680,
		"track": 5
	},
	{
		"deltaTime": 60,
		"channel": 9,
		"type": "channel",
		"subtype": "noteOff",
		"noteNumber": 42,
		"velocity": 0,
		"time": 241740,
		"track": 5
	},
	{
		"deltaTime": 60,
		"channel": 9,
		"type": "channel",
		"noteNumber": 42,
		"velocity": 127,
		"subtype": "noteOn",
		"time": 241800,
		"track": 5
	},
	{
		"deltaTime": 60,
		"channel": 9,
		"type": "channel",
		"subtype": "noteOff",
		"noteNumber": 42,
		"velocity": 0,
		"time": 241860,
		"track": 5
	},
	{
		"deltaTime": 0,
		"channel": 0,
		"type": "channel",
		"subtype": "noteOff",
		"noteNumber": 40,
		"velocity": 0,
		"time": 241920,
		"track": 2
	},
	{
		"deltaTime": 0,
		"channel": 0,
		"type": "channel",
		"noteNumber": 41,
		"velocity": 127,
		"subtype": "noteOn",
		"time": 241920,
		"track": 2
	},
	{
		"deltaTime": 0,
		"channel": 2,
		"type": "channel",
		"subtype": "noteOff",
		"noteNumber": 68,
		"velocity": 0,
		"time": 241920,
		"track": 4
	},
	{
		"deltaTime": 0,
		"channel": 2,
		"type": "channel",
		"subtype": "noteOff",
		"noteNumber": 63,
		"velocity": 0,
		"time": 241920,
		"track": 4
	},
	{
		"deltaTime": 0,
		"channel": 2,
		"type": "channel",
		"subtype": "noteOff",
		"noteNumber": 59,
		"velocity": 0,
		"time": 241920,
		"track": 4
	},
	{
		"deltaTime": 0,
		"type": "meta",
		"subtype": "endOfTrack",
		"time": 241920,
		"track": 4
	},
	{
		"deltaTime": 0,
		"channel": 9,
		"type": "channel",
		"noteNumber": 35,
		"velocity": 127,
		"subtype": "noteOn",
		"time": 241920,
		"track": 5
	},
	{
		"deltaTime": 60,
		"channel": 9,
		"type": "channel",
		"noteNumber": 36,
		"velocity": 127,
		"subtype": "noteOn",
		"time": 241920,
		"track": 5
	},
	{
		"deltaTime": 0,
		"channel": 9,
		"type": "channel",
		"subtype": "noteOff",
		"noteNumber": 36,
		"velocity": 0,
		"time": 241980,
		"track": 5
	},
	{
		"deltaTime": 180,
		"channel": 9,
		"type": "channel",
		"subtype": "noteOff",
		"noteNumber": 35,
		"velocity": 0,
		"time": 241980,
		"track": 5
	},
	{
		"deltaTime": 0,
		"channel": 9,
		"type": "channel",
		"noteNumber": 35,
		"velocity": 127,
		"subtype": "noteOn",
		"time": 242160,
		"track": 5
	},
	{
		"deltaTime": 60,
		"channel": 9,
		"type": "channel",
		"noteNumber": 36,
		"velocity": 127,
		"subtype": "noteOn",
		"time": 242160,
		"track": 5
	},
	{
		"deltaTime": 0,
		"channel": 9,
		"type": "channel",
		"subtype": "noteOff",
		"noteNumber": 36,
		"velocity": 0,
		"time": 242220,
		"track": 5
	},
	{
		"deltaTime": 180,
		"channel": 9,
		"type": "channel",
		"subtype": "noteOff",
		"noteNumber": 35,
		"velocity": 0,
		"time": 242220,
		"track": 5
	},
	{
		"deltaTime": 60,
		"channel": 9,
		"type": "channel",
		"noteNumber": 39,
		"velocity": 127,
		"subtype": "noteOn",
		"time": 242400,
		"track": 5
	},
	{
		"deltaTime": 180,
		"channel": 9,
		"type": "channel",
		"subtype": "noteOff",
		"noteNumber": 39,
		"velocity": 0,
		"time": 242460,
		"track": 5
	},
	{
		"deltaTime": 0,
		"channel": 0,
		"type": "channel",
		"subtype": "noteOff",
		"noteNumber": 41,
		"velocity": 0,
		"time": 242640,
		"track": 2
	},
	{
		"deltaTime": 120,
		"channel": 0,
		"type": "channel",
		"noteNumber": 41,
		"velocity": 127,
		"subtype": "noteOn",
		"time": 242640,
		"track": 2
	},
	{
		"deltaTime": 0,
		"channel": 9,
		"type": "channel",
		"noteNumber": 35,
		"velocity": 127,
		"subtype": "noteOn",
		"time": 242760,
		"track": 5
	},
	{
		"deltaTime": 60,
		"channel": 9,
		"type": "channel",
		"noteNumber": 36,
		"velocity": 127,
		"subtype": "noteOn",
		"time": 242760,
		"track": 5
	},
	{
		"deltaTime": 0,
		"channel": 9,
		"type": "channel",
		"subtype": "noteOff",
		"noteNumber": 36,
		"velocity": 0,
		"time": 242820,
		"track": 5
	},
	{
		"deltaTime": 60,
		"channel": 9,
		"type": "channel",
		"subtype": "noteOff",
		"noteNumber": 35,
		"velocity": 0,
		"time": 242820,
		"track": 5
	},
	{
		"deltaTime": 0,
		"channel": 0,
		"type": "channel",
		"subtype": "noteOff",
		"noteNumber": 41,
		"velocity": 0,
		"time": 242880,
		"track": 2
	},
	{
		"deltaTime": 240,
		"channel": 0,
		"type": "channel",
		"noteNumber": 40,
		"velocity": 127,
		"subtype": "noteOn",
		"time": 242880,
		"track": 2
	},
	{
		"deltaTime": 0,
		"channel": 9,
		"type": "channel",
		"noteNumber": 35,
		"velocity": 127,
		"subtype": "noteOn",
		"time": 243120,
		"track": 5
	},
	{
		"deltaTime": 60,
		"channel": 9,
		"type": "channel",
		"noteNumber": 36,
		"velocity": 127,
		"subtype": "noteOn",
		"time": 243120,
		"track": 5
	},
	{
		"deltaTime": 0,
		"channel": 9,
		"type": "channel",
		"subtype": "noteOff",
		"noteNumber": 36,
		"velocity": 0,
		"time": 243180,
		"track": 5
	},
	{
		"deltaTime": 180,
		"channel": 9,
		"type": "channel",
		"subtype": "noteOff",
		"noteNumber": 35,
		"velocity": 0,
		"time": 243180,
		"track": 5
	},
	{
		"deltaTime": 0,
		"channel": 0,
		"type": "channel",
		"subtype": "noteOff",
		"noteNumber": 40,
		"velocity": 0,
		"time": 243360,
		"track": 2
	},
	{
		"deltaTime": 0,
		"channel": 0,
		"type": "channel",
		"noteNumber": 35,
		"velocity": 127,
		"subtype": "noteOn",
		"time": 243360,
		"track": 2
	},
	{
		"deltaTime": 0,
		"channel": 9,
		"type": "channel",
		"noteNumber": 38,
		"velocity": 127,
		"subtype": "noteOn",
		"time": 243360,
		"track": 5
	},
	{
		"deltaTime": 60,
		"channel": 9,
		"type": "channel",
		"noteNumber": 40,
		"velocity": 127,
		"subtype": "noteOn",
		"time": 243360,
		"track": 5
	},
	{
		"deltaTime": 0,
		"channel": 9,
		"type": "channel",
		"subtype": "noteOff",
		"noteNumber": 40,
		"velocity": 0,
		"time": 243420,
		"track": 5
	},
	{
		"deltaTime": 180,
		"channel": 9,
		"type": "channel",
		"subtype": "noteOff",
		"noteNumber": 38,
		"velocity": 0,
		"time": 243420,
		"track": 5
	},
	{
		"deltaTime": 0,
		"channel": 0,
		"type": "channel",
		"subtype": "noteOff",
		"noteNumber": 35,
		"velocity": 0,
		"time": 243600,
		"track": 2
	},
	{
		"deltaTime": 0,
		"channel": 0,
		"type": "channel",
		"noteNumber": 34,
		"velocity": 127,
		"subtype": "noteOn",
		"time": 243600,
		"track": 2
	},
	{
		"deltaTime": 0,
		"channel": 9,
		"type": "channel",
		"noteNumber": 35,
		"velocity": 127,
		"subtype": "noteOn",
		"time": 243600,
		"track": 5
	},
	{
		"deltaTime": 60,
		"channel": 9,
		"type": "channel",
		"noteNumber": 36,
		"velocity": 127,
		"subtype": "noteOn",
		"time": 243600,
		"track": 5
	},
	{
		"deltaTime": 0,
		"channel": 9,
		"type": "channel",
		"subtype": "noteOff",
		"noteNumber": 36,
		"velocity": 0,
		"time": 243660,
		"track": 5
	},
	{
		"deltaTime": 180,
		"channel": 9,
		"type": "channel",
		"subtype": "noteOff",
		"noteNumber": 35,
		"velocity": 0,
		"time": 243660,
		"track": 5
	},
	{
		"deltaTime": 0,
		"channel": 0,
		"type": "channel",
		"subtype": "noteOff",
		"noteNumber": 34,
		"velocity": 0,
		"time": 243840,
		"track": 2
	},
	{
		"deltaTime": 0,
		"channel": 0,
		"type": "channel",
		"noteNumber": 32,
		"velocity": 127,
		"subtype": "noteOn",
		"time": 243840,
		"track": 2
	},
	{
		"deltaTime": 0,
		"channel": 9,
		"type": "channel",
		"noteNumber": 35,
		"velocity": 127,
		"subtype": "noteOn",
		"time": 243840,
		"track": 5
	},
	{
		"deltaTime": 60,
		"channel": 9,
		"type": "channel",
		"noteNumber": 36,
		"velocity": 127,
		"subtype": "noteOn",
		"time": 243840,
		"track": 5
	},
	{
		"deltaTime": 0,
		"channel": 9,
		"type": "channel",
		"subtype": "noteOff",
		"noteNumber": 36,
		"velocity": 0,
		"time": 243900,
		"track": 5
	},
	{
		"deltaTime": 0,
		"channel": 9,
		"type": "channel",
		"subtype": "noteOff",
		"noteNumber": 35,
		"velocity": 0,
		"time": 243900,
		"track": 5
	},
	{
		"deltaTime": 420,
		"type": "meta",
		"subtype": "endOfTrack",
		"time": 243900,
		"track": 5
	},
	{
		"deltaTime": 0,
		"channel": 0,
		"type": "channel",
		"subtype": "noteOff",
		"noteNumber": 32,
		"velocity": 0,
		"time": 244320,
		"track": 2
	},
	{
		"deltaTime": 0,
		"type": "meta",
		"subtype": "endOfTrack",
		"time": 244320,
		"track": 2,
		"deltatime": 0
	}
]